%TF.GenerationSoftware,KiCad,Pcbnew,7.0.2*%
%TF.CreationDate,2023-09-29T19:18:40+02:00*%
%TF.ProjectId,crowbar,63726f77-6261-4722-9e6b-696361645f70,rev?*%
%TF.SameCoordinates,Original*%
%TF.FileFunction,Copper,L2,Bot*%
%TF.FilePolarity,Positive*%
%FSLAX46Y46*%
G04 Gerber Fmt 4.6, Leading zero omitted, Abs format (unit mm)*
G04 Created by KiCad (PCBNEW 7.0.2) date 2023-09-29 19:18:40*
%MOMM*%
%LPD*%
G01*
G04 APERTURE LIST*
G04 Aperture macros list*
%AMRoundRect*
0 Rectangle with rounded corners*
0 $1 Rounding radius*
0 $2 $3 $4 $5 $6 $7 $8 $9 X,Y pos of 4 corners*
0 Add a 4 corners polygon primitive as box body*
4,1,4,$2,$3,$4,$5,$6,$7,$8,$9,$2,$3,0*
0 Add four circle primitives for the rounded corners*
1,1,$1+$1,$2,$3*
1,1,$1+$1,$4,$5*
1,1,$1+$1,$6,$7*
1,1,$1+$1,$8,$9*
0 Add four rect primitives between the rounded corners*
20,1,$1+$1,$2,$3,$4,$5,0*
20,1,$1+$1,$4,$5,$6,$7,0*
20,1,$1+$1,$6,$7,$8,$9,0*
20,1,$1+$1,$8,$9,$2,$3,0*%
G04 Aperture macros list end*
%TA.AperFunction,SMDPad,CuDef*%
%ADD10RoundRect,0.150000X-0.587500X-0.150000X0.587500X-0.150000X0.587500X0.150000X-0.587500X0.150000X0*%
%TD*%
%TA.AperFunction,SMDPad,CuDef*%
%ADD11RoundRect,0.250000X-0.450000X0.350000X-0.450000X-0.350000X0.450000X-0.350000X0.450000X0.350000X0*%
%TD*%
%TA.AperFunction,SMDPad,CuDef*%
%ADD12RoundRect,0.250000X0.350000X0.450000X-0.350000X0.450000X-0.350000X-0.450000X0.350000X-0.450000X0*%
%TD*%
%TA.AperFunction,ComponentPad*%
%ADD13R,1.700000X1.700000*%
%TD*%
%TA.AperFunction,ComponentPad*%
%ADD14O,1.700000X1.700000*%
%TD*%
%TA.AperFunction,SMDPad,CuDef*%
%ADD15RoundRect,0.250000X-0.350000X0.850000X-0.350000X-0.850000X0.350000X-0.850000X0.350000X0.850000X0*%
%TD*%
%TA.AperFunction,SMDPad,CuDef*%
%ADD16RoundRect,0.249997X-2.650003X2.950003X-2.650003X-2.950003X2.650003X-2.950003X2.650003X2.950003X0*%
%TD*%
%TA.AperFunction,SMDPad,CuDef*%
%ADD17RoundRect,0.250000X-1.125000X1.275000X-1.125000X-1.275000X1.125000X-1.275000X1.125000X1.275000X0*%
%TD*%
%TA.AperFunction,Conductor*%
%ADD18C,0.250000*%
%TD*%
G04 APERTURE END LIST*
D10*
%TO.P,U2,1,REF*%
%TO.N,Net-(U2-REF)*%
X110647000Y-71054000D03*
%TO.P,U2,2,K*%
%TO.N,Net-(D1-G)*%
X110647000Y-69154000D03*
%TO.P,U2,3,A*%
%TO.N,GND*%
X112522000Y-70104000D03*
%TD*%
%TO.P,U1,1,REF*%
%TO.N,Net-(U1-REF)*%
X110647000Y-75880000D03*
%TO.P,U1,2,K*%
%TO.N,Net-(D1-G)*%
X110647000Y-73980000D03*
%TO.P,U1,3,A*%
%TO.N,GND*%
X112522000Y-74930000D03*
%TD*%
D11*
%TO.P,R5,1*%
%TO.N,Net-(U2-REF)*%
X107950000Y-74930000D03*
%TO.P,R5,2*%
%TO.N,GND*%
X107950000Y-76930000D03*
%TD*%
%TO.P,R4,1*%
%TO.N,Net-(J1-Pin_2)*%
X107950000Y-71120000D03*
%TO.P,R4,2*%
%TO.N,Net-(U2-REF)*%
X107950000Y-73120000D03*
%TD*%
%TO.P,R3,1*%
%TO.N,Net-(U1-REF)*%
X104902000Y-74930000D03*
%TO.P,R3,2*%
%TO.N,GND*%
X104902000Y-76930000D03*
%TD*%
%TO.P,R2,1*%
%TO.N,Net-(J1-Pin_3)*%
X104902000Y-71120000D03*
%TO.P,R2,2*%
%TO.N,Net-(U1-REF)*%
X104902000Y-73120000D03*
%TD*%
D12*
%TO.P,R1,1*%
%TO.N,Net-(D1-A1)*%
X107442000Y-68580000D03*
%TO.P,R1,2*%
%TO.N,Net-(D1-G)*%
X105442000Y-68580000D03*
%TD*%
D13*
%TO.P,J1,1,Pin_1*%
%TO.N,Net-(D1-A1)*%
X93980000Y-68580000D03*
D14*
%TO.P,J1,2,Pin_2*%
%TO.N,Net-(J1-Pin_2)*%
X93980000Y-71120000D03*
%TO.P,J1,3,Pin_3*%
%TO.N,Net-(J1-Pin_3)*%
X93980000Y-73660000D03*
%TO.P,J1,4,Pin_4*%
%TO.N,GND*%
X93980000Y-76200000D03*
%TD*%
D15*
%TO.P,D1,1,A1*%
%TO.N,Net-(D1-A1)*%
X97796000Y-68122000D03*
%TO.P,D1,3,G*%
%TO.N,Net-(D1-G)*%
X102356000Y-68122000D03*
D16*
%TO.P,D1,2,A2*%
%TO.N,GND*%
X100076000Y-74422000D03*
D17*
X101601000Y-76097000D03*
X98551000Y-72747000D03*
X98551000Y-76097000D03*
X101601000Y-72747000D03*
%TD*%
D18*
%TO.N,Net-(D1-G)*%
X109048000Y-67555000D02*
X110647000Y-69154000D01*
X106467000Y-67555000D02*
X109048000Y-67555000D01*
X105442000Y-68580000D02*
X106467000Y-67555000D01*
%TO.N,Net-(D1-A1)*%
X106417000Y-69605000D02*
X99279000Y-69605000D01*
X99279000Y-69605000D02*
X97796000Y-68122000D01*
X107442000Y-68580000D02*
X106417000Y-69605000D01*
%TO.N,Net-(D1-G)*%
X104984000Y-68122000D02*
X105442000Y-68580000D01*
X102356000Y-68122000D02*
X104984000Y-68122000D01*
X111737749Y-70735498D02*
X110647000Y-69644749D01*
X111737749Y-72889251D02*
X111737749Y-70735498D01*
X110647000Y-69644749D02*
X110647000Y-69154000D01*
X110647000Y-73980000D02*
X111737749Y-72889251D01*
%TO.N,Net-(J1-Pin_2)*%
X94905000Y-70195000D02*
X93980000Y-71120000D01*
X107025000Y-70195000D02*
X94905000Y-70195000D01*
X107950000Y-71120000D02*
X107025000Y-70195000D01*
%TO.N,Net-(J1-Pin_3)*%
X96743000Y-70897000D02*
X93980000Y-73660000D01*
X104679000Y-70897000D02*
X96743000Y-70897000D01*
X104902000Y-71120000D02*
X104679000Y-70897000D01*
%TO.N,Net-(U1-REF)*%
X105852000Y-75880000D02*
X104902000Y-74930000D01*
X110647000Y-75880000D02*
X105852000Y-75880000D01*
%TO.N,Net-(U2-REF)*%
X108581000Y-73120000D02*
X110647000Y-71054000D01*
X107950000Y-73120000D02*
X108581000Y-73120000D01*
X107950000Y-73120000D02*
X107950000Y-74930000D01*
%TO.N,Net-(U1-REF)*%
X104902000Y-73120000D02*
X104902000Y-74930000D01*
%TD*%
%TA.AperFunction,Conductor*%
%TO.N,Net-(D1-A1)*%
G36*
X99257039Y-66822185D02*
G01*
X99302794Y-66874989D01*
X99314000Y-66926500D01*
X99314000Y-69445500D01*
X99294315Y-69512539D01*
X99241511Y-69558294D01*
X99190000Y-69569500D01*
X94987744Y-69569500D01*
X94967236Y-69567235D01*
X94897113Y-69569439D01*
X94893219Y-69569500D01*
X94865650Y-69569500D01*
X94861794Y-69569986D01*
X94861791Y-69569987D01*
X94861735Y-69569994D01*
X94861662Y-69570003D01*
X94850043Y-69570917D01*
X94806372Y-69572289D01*
X94787128Y-69577880D01*
X94768084Y-69581824D01*
X94748206Y-69584335D01*
X94740740Y-69587292D01*
X94695093Y-69596000D01*
X94104500Y-69596000D01*
X94037461Y-69576315D01*
X93991706Y-69523511D01*
X93980500Y-69472000D01*
X93980500Y-66926500D01*
X94000185Y-66859461D01*
X94052989Y-66813706D01*
X94104500Y-66802500D01*
X99190000Y-66802500D01*
X99257039Y-66822185D01*
G37*
%TD.AperFunction*%
%TD*%
%TA.AperFunction,Conductor*%
%TO.N,GND*%
G36*
X113480539Y-70123685D02*
G01*
X113526294Y-70176489D01*
X113537500Y-70228000D01*
X113537500Y-77853500D01*
X113517815Y-77920539D01*
X113465011Y-77966294D01*
X113413500Y-77977500D01*
X94104500Y-77977500D01*
X94037461Y-77957815D01*
X93991706Y-77905011D01*
X93980500Y-77853500D01*
X93980500Y-75129240D01*
X94000185Y-75062201D01*
X94052989Y-75016446D01*
X94093693Y-75005712D01*
X94159642Y-74999941D01*
X94215408Y-74995063D01*
X94443663Y-74933903D01*
X94657830Y-74834035D01*
X94851401Y-74698495D01*
X95018495Y-74531401D01*
X95154035Y-74337830D01*
X95253903Y-74123663D01*
X95315063Y-73895408D01*
X95335659Y-73660000D01*
X95315063Y-73424592D01*
X95288143Y-73324125D01*
X95289806Y-73254276D01*
X95320235Y-73204353D01*
X96965771Y-71558819D01*
X97027095Y-71525334D01*
X97053453Y-71522500D01*
X103589777Y-71522500D01*
X103656816Y-71542185D01*
X103702571Y-71594989D01*
X103706711Y-71610242D01*
X103707729Y-71609905D01*
X103767186Y-71789334D01*
X103859288Y-71938657D01*
X103952950Y-72032319D01*
X103986435Y-72093642D01*
X103981451Y-72163334D01*
X103952950Y-72207681D01*
X103859288Y-72301342D01*
X103767186Y-72450665D01*
X103712000Y-72617202D01*
X103701819Y-72716858D01*
X103701817Y-72716878D01*
X103701500Y-72719991D01*
X103701500Y-72723138D01*
X103701500Y-72723139D01*
X103701500Y-73516858D01*
X103701500Y-73516877D01*
X103701501Y-73520008D01*
X103701820Y-73523140D01*
X103701821Y-73523141D01*
X103712000Y-73622796D01*
X103767186Y-73789334D01*
X103866897Y-73950993D01*
X103865789Y-73951676D01*
X103891435Y-73998642D01*
X103886451Y-74068334D01*
X103866783Y-74098936D01*
X103866897Y-74099007D01*
X103767186Y-74260665D01*
X103712000Y-74427202D01*
X103701819Y-74526858D01*
X103701817Y-74526878D01*
X103701500Y-74529991D01*
X103701500Y-74533138D01*
X103701500Y-74533139D01*
X103701500Y-75326858D01*
X103701500Y-75326877D01*
X103701501Y-75330008D01*
X103701820Y-75333140D01*
X103701821Y-75333141D01*
X103712000Y-75432796D01*
X103767186Y-75599334D01*
X103859288Y-75748657D01*
X103983342Y-75872711D01*
X103983344Y-75872712D01*
X104132666Y-75964814D01*
X104244017Y-76001712D01*
X104299202Y-76019999D01*
X104398858Y-76030180D01*
X104398859Y-76030180D01*
X104401991Y-76030500D01*
X105066546Y-76030499D01*
X105133585Y-76050183D01*
X105154227Y-76066818D01*
X105351196Y-76263787D01*
X105364096Y-76279888D01*
X105415223Y-76327900D01*
X105418020Y-76330611D01*
X105437529Y-76350120D01*
X105440709Y-76352587D01*
X105449571Y-76360155D01*
X105481418Y-76390062D01*
X105498972Y-76399712D01*
X105515236Y-76410396D01*
X105526972Y-76419499D01*
X105531064Y-76422673D01*
X105555909Y-76433424D01*
X105571152Y-76440021D01*
X105581631Y-76445154D01*
X105619908Y-76466197D01*
X105639306Y-76471177D01*
X105657708Y-76477477D01*
X105676104Y-76485438D01*
X105719261Y-76492273D01*
X105730664Y-76494634D01*
X105772981Y-76505500D01*
X105793016Y-76505500D01*
X105812413Y-76507026D01*
X105832196Y-76510160D01*
X105875674Y-76506050D01*
X105887344Y-76505500D01*
X109563692Y-76505500D01*
X109630731Y-76525185D01*
X109651373Y-76541819D01*
X109657635Y-76548081D01*
X109799101Y-76631744D01*
X109799102Y-76631744D01*
X109956927Y-76677597D01*
X109956931Y-76677598D01*
X109993806Y-76680500D01*
X109996251Y-76680500D01*
X111297749Y-76680500D01*
X111300194Y-76680500D01*
X111337069Y-76677598D01*
X111494898Y-76631744D01*
X111636365Y-76548081D01*
X111752581Y-76431865D01*
X111836244Y-76290398D01*
X111882098Y-76132569D01*
X111885000Y-76095694D01*
X111885000Y-75664306D01*
X111882098Y-75627431D01*
X111836244Y-75469602D01*
X111752581Y-75328135D01*
X111636365Y-75211919D01*
X111585793Y-75182011D01*
X111494897Y-75128255D01*
X111337072Y-75082402D01*
X111302628Y-75079691D01*
X111302614Y-75079690D01*
X111300194Y-75079500D01*
X109993806Y-75079500D01*
X109991386Y-75079690D01*
X109991371Y-75079691D01*
X109956927Y-75082402D01*
X109799102Y-75128255D01*
X109657634Y-75211919D01*
X109651373Y-75218181D01*
X109590050Y-75251666D01*
X109563692Y-75254500D01*
X109274500Y-75254500D01*
X109207461Y-75234815D01*
X109161706Y-75182011D01*
X109150500Y-75130500D01*
X109150499Y-74533141D01*
X109150499Y-74533139D01*
X109150499Y-74529992D01*
X109139999Y-74427203D01*
X109084814Y-74260666D01*
X109040411Y-74188677D01*
X108985103Y-74099007D01*
X108986210Y-74098323D01*
X108960565Y-74051365D01*
X108965546Y-73981673D01*
X108985217Y-73951063D01*
X108985103Y-73950993D01*
X109019388Y-73895407D01*
X109084814Y-73789334D01*
X109139999Y-73622797D01*
X109150500Y-73520009D01*
X109150499Y-73486452D01*
X109170182Y-73419415D01*
X109186813Y-73398775D01*
X110694771Y-71890819D01*
X110756095Y-71857334D01*
X110782453Y-71854500D01*
X110988249Y-71854500D01*
X111055288Y-71874185D01*
X111101043Y-71926989D01*
X111112249Y-71978500D01*
X111112249Y-72578797D01*
X111092564Y-72645836D01*
X111075930Y-72666478D01*
X110599228Y-73143181D01*
X110537905Y-73176666D01*
X110511547Y-73179500D01*
X109993806Y-73179500D01*
X109991386Y-73179690D01*
X109991371Y-73179691D01*
X109956927Y-73182402D01*
X109799102Y-73228255D01*
X109657634Y-73311919D01*
X109541419Y-73428134D01*
X109457755Y-73569602D01*
X109411902Y-73727427D01*
X109409191Y-73761871D01*
X109409190Y-73761886D01*
X109409000Y-73764306D01*
X109409000Y-74195694D01*
X109409190Y-74198114D01*
X109409191Y-74198128D01*
X109411902Y-74232572D01*
X109457755Y-74390397D01*
X109479522Y-74427203D01*
X109541419Y-74531865D01*
X109657635Y-74648081D01*
X109742874Y-74698491D01*
X109799102Y-74731744D01*
X109956927Y-74777597D01*
X109956931Y-74777598D01*
X109993806Y-74780500D01*
X109996251Y-74780500D01*
X111297749Y-74780500D01*
X111300194Y-74780500D01*
X111337069Y-74777598D01*
X111494898Y-74731744D01*
X111636365Y-74648081D01*
X111752581Y-74531865D01*
X111836244Y-74390398D01*
X111882098Y-74232569D01*
X111885000Y-74195694D01*
X111885000Y-73764306D01*
X111882098Y-73727431D01*
X111880508Y-73721961D01*
X111880708Y-73652091D01*
X111911902Y-73599686D01*
X112121536Y-73390053D01*
X112137634Y-73377156D01*
X112139620Y-73375040D01*
X112139626Y-73375037D01*
X112185698Y-73325974D01*
X112188283Y-73323306D01*
X112207869Y-73303722D01*
X112210334Y-73300543D01*
X112217916Y-73291667D01*
X112247811Y-73259833D01*
X112257461Y-73242278D01*
X112268149Y-73226008D01*
X112280420Y-73210189D01*
X112280422Y-73210187D01*
X112297775Y-73170083D01*
X112302906Y-73159613D01*
X112323946Y-73121343D01*
X112328924Y-73101950D01*
X112335230Y-73083533D01*
X112336767Y-73079979D01*
X112343187Y-73065147D01*
X112350021Y-73021996D01*
X112352384Y-73010582D01*
X112363249Y-72968270D01*
X112363249Y-72948234D01*
X112364776Y-72928835D01*
X112367909Y-72909055D01*
X112363799Y-72865575D01*
X112363249Y-72853906D01*
X112363249Y-70818241D01*
X112365513Y-70797737D01*
X112363310Y-70727624D01*
X112363249Y-70723729D01*
X112363249Y-70700038D01*
X112363249Y-70696148D01*
X112362747Y-70692175D01*
X112361829Y-70680516D01*
X112360458Y-70636871D01*
X112354869Y-70617638D01*
X112350923Y-70598580D01*
X112348413Y-70578704D01*
X112332337Y-70538102D01*
X112328553Y-70527051D01*
X112321313Y-70502134D01*
X112316367Y-70485108D01*
X112306163Y-70467853D01*
X112297610Y-70450393D01*
X112290235Y-70431766D01*
X112264557Y-70396423D01*
X112258150Y-70386669D01*
X112235919Y-70349078D01*
X112221754Y-70334914D01*
X112209119Y-70320120D01*
X112197343Y-70303911D01*
X112197342Y-70303910D01*
X112195143Y-70300883D01*
X112171665Y-70235077D01*
X112187492Y-70167023D01*
X112237598Y-70118329D01*
X112295463Y-70104000D01*
X113413500Y-70104000D01*
X113480539Y-70123685D01*
G37*
%TD.AperFunction*%
%TD*%
M02*
