%TF.GenerationSoftware,KiCad,Pcbnew,8.0.4*%
%TF.CreationDate,2025-02-28T20:51:30+01:00*%
%TF.ProjectId,Lochraster,4c6f6368-7261-4737-9465-722e6b696361,rev?*%
%TF.SameCoordinates,Original*%
%TF.FileFunction,Legend,Top*%
%TF.FilePolarity,Positive*%
%FSLAX46Y46*%
G04 Gerber Fmt 4.6, Leading zero omitted, Abs format (unit mm)*
G04 Created by KiCad (PCBNEW 8.0.4) date 2025-02-28 20:51:30*
%MOMM*%
%LPD*%
G01*
G04 APERTURE LIST*
%ADD10C,0.150000*%
%ADD11C,0.100000*%
%ADD12C,0.000000*%
%ADD13C,0.120000*%
G04 APERTURE END LIST*
D10*
X199583000Y-60810000D02*
X164023000Y-60810000D01*
X199583000Y-98910000D02*
X199583000Y-60810000D01*
X164023000Y-60810000D02*
X164023000Y-98910000D01*
X164023000Y-98910000D02*
X199583000Y-98910000D01*
D11*
X175185674Y-58187531D02*
X175185674Y-57687531D01*
X175185674Y-57687531D02*
X175304722Y-57687531D01*
X175304722Y-57687531D02*
X175376150Y-57711341D01*
X175376150Y-57711341D02*
X175423769Y-57758960D01*
X175423769Y-57758960D02*
X175447579Y-57806579D01*
X175447579Y-57806579D02*
X175471388Y-57901817D01*
X175471388Y-57901817D02*
X175471388Y-57973245D01*
X175471388Y-57973245D02*
X175447579Y-58068483D01*
X175447579Y-58068483D02*
X175423769Y-58116102D01*
X175423769Y-58116102D02*
X175376150Y-58163722D01*
X175376150Y-58163722D02*
X175304722Y-58187531D01*
X175304722Y-58187531D02*
X175185674Y-58187531D01*
X175780912Y-57687531D02*
X175828531Y-57687531D01*
X175828531Y-57687531D02*
X175876150Y-57711341D01*
X175876150Y-57711341D02*
X175899960Y-57735150D01*
X175899960Y-57735150D02*
X175923769Y-57782769D01*
X175923769Y-57782769D02*
X175947579Y-57878007D01*
X175947579Y-57878007D02*
X175947579Y-57997055D01*
X175947579Y-57997055D02*
X175923769Y-58092293D01*
X175923769Y-58092293D02*
X175899960Y-58139912D01*
X175899960Y-58139912D02*
X175876150Y-58163722D01*
X175876150Y-58163722D02*
X175828531Y-58187531D01*
X175828531Y-58187531D02*
X175780912Y-58187531D01*
X175780912Y-58187531D02*
X175733293Y-58163722D01*
X175733293Y-58163722D02*
X175709484Y-58139912D01*
X175709484Y-58139912D02*
X175685674Y-58092293D01*
X175685674Y-58092293D02*
X175661865Y-57997055D01*
X175661865Y-57997055D02*
X175661865Y-57878007D01*
X175661865Y-57878007D02*
X175685674Y-57782769D01*
X175685674Y-57782769D02*
X175709484Y-57735150D01*
X175709484Y-57735150D02*
X175733293Y-57711341D01*
X175733293Y-57711341D02*
X175780912Y-57687531D01*
X182622836Y-58203609D02*
X182622836Y-57703609D01*
X182622836Y-57703609D02*
X182741884Y-57703609D01*
X182741884Y-57703609D02*
X182813312Y-57727419D01*
X182813312Y-57727419D02*
X182860931Y-57775038D01*
X182860931Y-57775038D02*
X182884741Y-57822657D01*
X182884741Y-57822657D02*
X182908550Y-57917895D01*
X182908550Y-57917895D02*
X182908550Y-57989323D01*
X182908550Y-57989323D02*
X182884741Y-58084561D01*
X182884741Y-58084561D02*
X182860931Y-58132180D01*
X182860931Y-58132180D02*
X182813312Y-58179800D01*
X182813312Y-58179800D02*
X182741884Y-58203609D01*
X182741884Y-58203609D02*
X182622836Y-58203609D01*
X183384741Y-58203609D02*
X183099027Y-58203609D01*
X183241884Y-58203609D02*
X183241884Y-57703609D01*
X183241884Y-57703609D02*
X183194265Y-57775038D01*
X183194265Y-57775038D02*
X183146646Y-57822657D01*
X183146646Y-57822657D02*
X183099027Y-57846466D01*
X183837121Y-57703609D02*
X183599026Y-57703609D01*
X183599026Y-57703609D02*
X183575217Y-57941704D01*
X183575217Y-57941704D02*
X183599026Y-57917895D01*
X183599026Y-57917895D02*
X183646645Y-57894085D01*
X183646645Y-57894085D02*
X183765693Y-57894085D01*
X183765693Y-57894085D02*
X183813312Y-57917895D01*
X183813312Y-57917895D02*
X183837121Y-57941704D01*
X183837121Y-57941704D02*
X183860931Y-57989323D01*
X183860931Y-57989323D02*
X183860931Y-58108371D01*
X183860931Y-58108371D02*
X183837121Y-58155990D01*
X183837121Y-58155990D02*
X183813312Y-58179800D01*
X183813312Y-58179800D02*
X183765693Y-58203609D01*
X183765693Y-58203609D02*
X183646645Y-58203609D01*
X183646645Y-58203609D02*
X183599026Y-58179800D01*
X183599026Y-58179800D02*
X183575217Y-58155990D01*
X201434160Y-94033687D02*
X201434160Y-93533687D01*
X201434160Y-93533687D02*
X201553208Y-93533687D01*
X201553208Y-93533687D02*
X201624636Y-93557497D01*
X201624636Y-93557497D02*
X201672255Y-93605116D01*
X201672255Y-93605116D02*
X201696065Y-93652735D01*
X201696065Y-93652735D02*
X201719874Y-93747973D01*
X201719874Y-93747973D02*
X201719874Y-93819401D01*
X201719874Y-93819401D02*
X201696065Y-93914639D01*
X201696065Y-93914639D02*
X201672255Y-93962258D01*
X201672255Y-93962258D02*
X201624636Y-94009878D01*
X201624636Y-94009878D02*
X201553208Y-94033687D01*
X201553208Y-94033687D02*
X201434160Y-94033687D01*
X202172255Y-93533687D02*
X201934160Y-93533687D01*
X201934160Y-93533687D02*
X201910351Y-93771782D01*
X201910351Y-93771782D02*
X201934160Y-93747973D01*
X201934160Y-93747973D02*
X201981779Y-93724163D01*
X201981779Y-93724163D02*
X202100827Y-93724163D01*
X202100827Y-93724163D02*
X202148446Y-93747973D01*
X202148446Y-93747973D02*
X202172255Y-93771782D01*
X202172255Y-93771782D02*
X202196065Y-93819401D01*
X202196065Y-93819401D02*
X202196065Y-93938449D01*
X202196065Y-93938449D02*
X202172255Y-93986068D01*
X202172255Y-93986068D02*
X202148446Y-94009878D01*
X202148446Y-94009878D02*
X202100827Y-94033687D01*
X202100827Y-94033687D02*
X201981779Y-94033687D01*
X201981779Y-94033687D02*
X201934160Y-94009878D01*
X201934160Y-94009878D02*
X201910351Y-93986068D01*
X202672255Y-94033687D02*
X202386541Y-94033687D01*
X202529398Y-94033687D02*
X202529398Y-93533687D01*
X202529398Y-93533687D02*
X202481779Y-93605116D01*
X202481779Y-93605116D02*
X202434160Y-93652735D01*
X202434160Y-93652735D02*
X202386541Y-93676544D01*
X160024741Y-77253609D02*
X159739027Y-77253609D01*
X159881884Y-77253609D02*
X159881884Y-76753609D01*
X159881884Y-76753609D02*
X159834265Y-76825038D01*
X159834265Y-76825038D02*
X159786646Y-76872657D01*
X159786646Y-76872657D02*
X159739027Y-76896466D01*
X160215217Y-76801228D02*
X160239026Y-76777419D01*
X160239026Y-76777419D02*
X160286645Y-76753609D01*
X160286645Y-76753609D02*
X160405693Y-76753609D01*
X160405693Y-76753609D02*
X160453312Y-76777419D01*
X160453312Y-76777419D02*
X160477121Y-76801228D01*
X160477121Y-76801228D02*
X160500931Y-76848847D01*
X160500931Y-76848847D02*
X160500931Y-76896466D01*
X160500931Y-76896466D02*
X160477121Y-76967895D01*
X160477121Y-76967895D02*
X160191407Y-77253609D01*
X160191407Y-77253609D02*
X160500931Y-77253609D01*
X160643788Y-76753609D02*
X160810454Y-77253609D01*
X160810454Y-77253609D02*
X160977121Y-76753609D01*
X180186027Y-101494752D02*
X180424122Y-101494752D01*
X180138408Y-101637609D02*
X180305074Y-101137609D01*
X180305074Y-101137609D02*
X180471741Y-101637609D01*
X180590788Y-101137609D02*
X180924121Y-101137609D01*
X180924121Y-101137609D02*
X180709836Y-101637609D01*
X201434160Y-96573687D02*
X201434160Y-96073687D01*
X201434160Y-96073687D02*
X201553208Y-96073687D01*
X201553208Y-96073687D02*
X201624636Y-96097497D01*
X201624636Y-96097497D02*
X201672255Y-96145116D01*
X201672255Y-96145116D02*
X201696065Y-96192735D01*
X201696065Y-96192735D02*
X201719874Y-96287973D01*
X201719874Y-96287973D02*
X201719874Y-96359401D01*
X201719874Y-96359401D02*
X201696065Y-96454639D01*
X201696065Y-96454639D02*
X201672255Y-96502258D01*
X201672255Y-96502258D02*
X201624636Y-96549878D01*
X201624636Y-96549878D02*
X201553208Y-96573687D01*
X201553208Y-96573687D02*
X201434160Y-96573687D01*
X202172255Y-96073687D02*
X201934160Y-96073687D01*
X201934160Y-96073687D02*
X201910351Y-96311782D01*
X201910351Y-96311782D02*
X201934160Y-96287973D01*
X201934160Y-96287973D02*
X201981779Y-96264163D01*
X201981779Y-96264163D02*
X202100827Y-96264163D01*
X202100827Y-96264163D02*
X202148446Y-96287973D01*
X202148446Y-96287973D02*
X202172255Y-96311782D01*
X202172255Y-96311782D02*
X202196065Y-96359401D01*
X202196065Y-96359401D02*
X202196065Y-96478449D01*
X202196065Y-96478449D02*
X202172255Y-96526068D01*
X202172255Y-96526068D02*
X202148446Y-96549878D01*
X202148446Y-96549878D02*
X202100827Y-96573687D01*
X202100827Y-96573687D02*
X201981779Y-96573687D01*
X201981779Y-96573687D02*
X201934160Y-96549878D01*
X201934160Y-96549878D02*
X201910351Y-96526068D01*
X202362731Y-96073687D02*
X202672255Y-96073687D01*
X202672255Y-96073687D02*
X202505588Y-96264163D01*
X202505588Y-96264163D02*
X202577017Y-96264163D01*
X202577017Y-96264163D02*
X202624636Y-96287973D01*
X202624636Y-96287973D02*
X202648445Y-96311782D01*
X202648445Y-96311782D02*
X202672255Y-96359401D01*
X202672255Y-96359401D02*
X202672255Y-96478449D01*
X202672255Y-96478449D02*
X202648445Y-96526068D01*
X202648445Y-96526068D02*
X202624636Y-96549878D01*
X202624636Y-96549878D02*
X202577017Y-96573687D01*
X202577017Y-96573687D02*
X202434160Y-96573687D01*
X202434160Y-96573687D02*
X202386541Y-96549878D01*
X202386541Y-96549878D02*
X202362731Y-96526068D01*
X177646027Y-101494752D02*
X177884122Y-101494752D01*
X177598408Y-101637609D02*
X177765074Y-101137609D01*
X177765074Y-101137609D02*
X177931741Y-101637609D01*
X178312693Y-101137609D02*
X178217455Y-101137609D01*
X178217455Y-101137609D02*
X178169836Y-101161419D01*
X178169836Y-101161419D02*
X178146026Y-101185228D01*
X178146026Y-101185228D02*
X178098407Y-101256657D01*
X178098407Y-101256657D02*
X178074598Y-101351895D01*
X178074598Y-101351895D02*
X178074598Y-101542371D01*
X178074598Y-101542371D02*
X178098407Y-101589990D01*
X178098407Y-101589990D02*
X178122217Y-101613800D01*
X178122217Y-101613800D02*
X178169836Y-101637609D01*
X178169836Y-101637609D02*
X178265074Y-101637609D01*
X178265074Y-101637609D02*
X178312693Y-101613800D01*
X178312693Y-101613800D02*
X178336502Y-101589990D01*
X178336502Y-101589990D02*
X178360312Y-101542371D01*
X178360312Y-101542371D02*
X178360312Y-101423323D01*
X178360312Y-101423323D02*
X178336502Y-101375704D01*
X178336502Y-101375704D02*
X178312693Y-101351895D01*
X178312693Y-101351895D02*
X178265074Y-101328085D01*
X178265074Y-101328085D02*
X178169836Y-101328085D01*
X178169836Y-101328085D02*
X178122217Y-101351895D01*
X178122217Y-101351895D02*
X178098407Y-101375704D01*
X178098407Y-101375704D02*
X178074598Y-101423323D01*
X175106027Y-101494752D02*
X175344122Y-101494752D01*
X175058408Y-101637609D02*
X175225074Y-101137609D01*
X175225074Y-101137609D02*
X175391741Y-101637609D01*
X175796502Y-101137609D02*
X175558407Y-101137609D01*
X175558407Y-101137609D02*
X175534598Y-101375704D01*
X175534598Y-101375704D02*
X175558407Y-101351895D01*
X175558407Y-101351895D02*
X175606026Y-101328085D01*
X175606026Y-101328085D02*
X175725074Y-101328085D01*
X175725074Y-101328085D02*
X175772693Y-101351895D01*
X175772693Y-101351895D02*
X175796502Y-101375704D01*
X175796502Y-101375704D02*
X175820312Y-101423323D01*
X175820312Y-101423323D02*
X175820312Y-101542371D01*
X175820312Y-101542371D02*
X175796502Y-101589990D01*
X175796502Y-101589990D02*
X175772693Y-101613800D01*
X175772693Y-101613800D02*
X175725074Y-101637609D01*
X175725074Y-101637609D02*
X175606026Y-101637609D01*
X175606026Y-101637609D02*
X175558407Y-101613800D01*
X175558407Y-101613800D02*
X175534598Y-101589990D01*
X157175217Y-69133609D02*
X157484741Y-69133609D01*
X157484741Y-69133609D02*
X157318074Y-69324085D01*
X157318074Y-69324085D02*
X157389503Y-69324085D01*
X157389503Y-69324085D02*
X157437122Y-69347895D01*
X157437122Y-69347895D02*
X157460931Y-69371704D01*
X157460931Y-69371704D02*
X157484741Y-69419323D01*
X157484741Y-69419323D02*
X157484741Y-69538371D01*
X157484741Y-69538371D02*
X157460931Y-69585990D01*
X157460931Y-69585990D02*
X157437122Y-69609800D01*
X157437122Y-69609800D02*
X157389503Y-69633609D01*
X157389503Y-69633609D02*
X157246646Y-69633609D01*
X157246646Y-69633609D02*
X157199027Y-69609800D01*
X157199027Y-69609800D02*
X157175217Y-69585990D01*
X157722836Y-69609800D02*
X157722836Y-69633609D01*
X157722836Y-69633609D02*
X157699026Y-69681228D01*
X157699026Y-69681228D02*
X157675217Y-69705038D01*
X157889502Y-69133609D02*
X158199026Y-69133609D01*
X158199026Y-69133609D02*
X158032359Y-69324085D01*
X158032359Y-69324085D02*
X158103788Y-69324085D01*
X158103788Y-69324085D02*
X158151407Y-69347895D01*
X158151407Y-69347895D02*
X158175216Y-69371704D01*
X158175216Y-69371704D02*
X158199026Y-69419323D01*
X158199026Y-69419323D02*
X158199026Y-69538371D01*
X158199026Y-69538371D02*
X158175216Y-69585990D01*
X158175216Y-69585990D02*
X158151407Y-69609800D01*
X158151407Y-69609800D02*
X158103788Y-69633609D01*
X158103788Y-69633609D02*
X157960931Y-69633609D01*
X157960931Y-69633609D02*
X157913312Y-69609800D01*
X157913312Y-69609800D02*
X157889502Y-69585990D01*
X158341883Y-69133609D02*
X158508549Y-69633609D01*
X158508549Y-69633609D02*
X158675216Y-69133609D01*
X200506027Y-101494752D02*
X200744122Y-101494752D01*
X200458408Y-101637609D02*
X200625074Y-101137609D01*
X200625074Y-101137609D02*
X200791741Y-101637609D01*
X201220312Y-101637609D02*
X200934598Y-101637609D01*
X201077455Y-101637609D02*
X201077455Y-101137609D01*
X201077455Y-101137609D02*
X201029836Y-101209038D01*
X201029836Y-101209038D02*
X200982217Y-101256657D01*
X200982217Y-101256657D02*
X200934598Y-101280466D01*
X201648883Y-101304276D02*
X201648883Y-101637609D01*
X201529835Y-101113800D02*
X201410788Y-101470942D01*
X201410788Y-101470942D02*
X201720311Y-101470942D01*
X204085836Y-63537609D02*
X204085836Y-63037609D01*
X204085836Y-63037609D02*
X204204884Y-63037609D01*
X204204884Y-63037609D02*
X204276312Y-63061419D01*
X204276312Y-63061419D02*
X204323931Y-63109038D01*
X204323931Y-63109038D02*
X204347741Y-63156657D01*
X204347741Y-63156657D02*
X204371550Y-63251895D01*
X204371550Y-63251895D02*
X204371550Y-63323323D01*
X204371550Y-63323323D02*
X204347741Y-63418561D01*
X204347741Y-63418561D02*
X204323931Y-63466180D01*
X204323931Y-63466180D02*
X204276312Y-63513800D01*
X204276312Y-63513800D02*
X204204884Y-63537609D01*
X204204884Y-63537609D02*
X204085836Y-63537609D01*
X204562027Y-63085228D02*
X204585836Y-63061419D01*
X204585836Y-63061419D02*
X204633455Y-63037609D01*
X204633455Y-63037609D02*
X204752503Y-63037609D01*
X204752503Y-63037609D02*
X204800122Y-63061419D01*
X204800122Y-63061419D02*
X204823931Y-63085228D01*
X204823931Y-63085228D02*
X204847741Y-63132847D01*
X204847741Y-63132847D02*
X204847741Y-63180466D01*
X204847741Y-63180466D02*
X204823931Y-63251895D01*
X204823931Y-63251895D02*
X204538217Y-63537609D01*
X204538217Y-63537609D02*
X204847741Y-63537609D01*
X205276312Y-63037609D02*
X205181074Y-63037609D01*
X205181074Y-63037609D02*
X205133455Y-63061419D01*
X205133455Y-63061419D02*
X205109645Y-63085228D01*
X205109645Y-63085228D02*
X205062026Y-63156657D01*
X205062026Y-63156657D02*
X205038217Y-63251895D01*
X205038217Y-63251895D02*
X205038217Y-63442371D01*
X205038217Y-63442371D02*
X205062026Y-63489990D01*
X205062026Y-63489990D02*
X205085836Y-63513800D01*
X205085836Y-63513800D02*
X205133455Y-63537609D01*
X205133455Y-63537609D02*
X205228693Y-63537609D01*
X205228693Y-63537609D02*
X205276312Y-63513800D01*
X205276312Y-63513800D02*
X205300121Y-63489990D01*
X205300121Y-63489990D02*
X205323931Y-63442371D01*
X205323931Y-63442371D02*
X205323931Y-63323323D01*
X205323931Y-63323323D02*
X205300121Y-63275704D01*
X205300121Y-63275704D02*
X205276312Y-63251895D01*
X205276312Y-63251895D02*
X205228693Y-63228085D01*
X205228693Y-63228085D02*
X205133455Y-63228085D01*
X205133455Y-63228085D02*
X205085836Y-63251895D01*
X205085836Y-63251895D02*
X205062026Y-63275704D01*
X205062026Y-63275704D02*
X205038217Y-63323323D01*
X170097189Y-101510830D02*
X170335284Y-101510830D01*
X170049570Y-101653687D02*
X170216236Y-101153687D01*
X170216236Y-101153687D02*
X170382903Y-101653687D01*
X170501950Y-101153687D02*
X170811474Y-101153687D01*
X170811474Y-101153687D02*
X170644807Y-101344163D01*
X170644807Y-101344163D02*
X170716236Y-101344163D01*
X170716236Y-101344163D02*
X170763855Y-101367973D01*
X170763855Y-101367973D02*
X170787664Y-101391782D01*
X170787664Y-101391782D02*
X170811474Y-101439401D01*
X170811474Y-101439401D02*
X170811474Y-101558449D01*
X170811474Y-101558449D02*
X170787664Y-101606068D01*
X170787664Y-101606068D02*
X170763855Y-101629878D01*
X170763855Y-101629878D02*
X170716236Y-101653687D01*
X170716236Y-101653687D02*
X170573379Y-101653687D01*
X170573379Y-101653687D02*
X170525760Y-101629878D01*
X170525760Y-101629878D02*
X170501950Y-101606068D01*
X203831836Y-58457609D02*
X203831836Y-57957609D01*
X203831836Y-57957609D02*
X203950884Y-57957609D01*
X203950884Y-57957609D02*
X204022312Y-57981419D01*
X204022312Y-57981419D02*
X204069931Y-58029038D01*
X204069931Y-58029038D02*
X204093741Y-58076657D01*
X204093741Y-58076657D02*
X204117550Y-58171895D01*
X204117550Y-58171895D02*
X204117550Y-58243323D01*
X204117550Y-58243323D02*
X204093741Y-58338561D01*
X204093741Y-58338561D02*
X204069931Y-58386180D01*
X204069931Y-58386180D02*
X204022312Y-58433800D01*
X204022312Y-58433800D02*
X203950884Y-58457609D01*
X203950884Y-58457609D02*
X203831836Y-58457609D01*
X204308027Y-58005228D02*
X204331836Y-57981419D01*
X204331836Y-57981419D02*
X204379455Y-57957609D01*
X204379455Y-57957609D02*
X204498503Y-57957609D01*
X204498503Y-57957609D02*
X204546122Y-57981419D01*
X204546122Y-57981419D02*
X204569931Y-58005228D01*
X204569931Y-58005228D02*
X204593741Y-58052847D01*
X204593741Y-58052847D02*
X204593741Y-58100466D01*
X204593741Y-58100466D02*
X204569931Y-58171895D01*
X204569931Y-58171895D02*
X204284217Y-58457609D01*
X204284217Y-58457609D02*
X204593741Y-58457609D01*
X204784217Y-58005228D02*
X204808026Y-57981419D01*
X204808026Y-57981419D02*
X204855645Y-57957609D01*
X204855645Y-57957609D02*
X204974693Y-57957609D01*
X204974693Y-57957609D02*
X205022312Y-57981419D01*
X205022312Y-57981419D02*
X205046121Y-58005228D01*
X205046121Y-58005228D02*
X205069931Y-58052847D01*
X205069931Y-58052847D02*
X205069931Y-58100466D01*
X205069931Y-58100466D02*
X205046121Y-58171895D01*
X205046121Y-58171895D02*
X204760407Y-58457609D01*
X204760407Y-58457609D02*
X205069931Y-58457609D01*
X201362998Y-66093687D02*
X201362998Y-65593687D01*
X201362998Y-65593687D02*
X201482046Y-65593687D01*
X201482046Y-65593687D02*
X201553474Y-65617497D01*
X201553474Y-65617497D02*
X201601093Y-65665116D01*
X201601093Y-65665116D02*
X201624903Y-65712735D01*
X201624903Y-65712735D02*
X201648712Y-65807973D01*
X201648712Y-65807973D02*
X201648712Y-65879401D01*
X201648712Y-65879401D02*
X201624903Y-65974639D01*
X201624903Y-65974639D02*
X201601093Y-66022258D01*
X201601093Y-66022258D02*
X201553474Y-66069878D01*
X201553474Y-66069878D02*
X201482046Y-66093687D01*
X201482046Y-66093687D02*
X201362998Y-66093687D01*
X201839189Y-65641306D02*
X201862998Y-65617497D01*
X201862998Y-65617497D02*
X201910617Y-65593687D01*
X201910617Y-65593687D02*
X202029665Y-65593687D01*
X202029665Y-65593687D02*
X202077284Y-65617497D01*
X202077284Y-65617497D02*
X202101093Y-65641306D01*
X202101093Y-65641306D02*
X202124903Y-65688925D01*
X202124903Y-65688925D02*
X202124903Y-65736544D01*
X202124903Y-65736544D02*
X202101093Y-65807973D01*
X202101093Y-65807973D02*
X201815379Y-66093687D01*
X201815379Y-66093687D02*
X202124903Y-66093687D01*
X202362998Y-66093687D02*
X202458236Y-66093687D01*
X202458236Y-66093687D02*
X202505855Y-66069878D01*
X202505855Y-66069878D02*
X202529664Y-66046068D01*
X202529664Y-66046068D02*
X202577283Y-65974639D01*
X202577283Y-65974639D02*
X202601093Y-65879401D01*
X202601093Y-65879401D02*
X202601093Y-65688925D01*
X202601093Y-65688925D02*
X202577283Y-65641306D01*
X202577283Y-65641306D02*
X202553474Y-65617497D01*
X202553474Y-65617497D02*
X202505855Y-65593687D01*
X202505855Y-65593687D02*
X202410617Y-65593687D01*
X202410617Y-65593687D02*
X202362998Y-65617497D01*
X202362998Y-65617497D02*
X202339188Y-65641306D01*
X202339188Y-65641306D02*
X202315379Y-65688925D01*
X202315379Y-65688925D02*
X202315379Y-65807973D01*
X202315379Y-65807973D02*
X202339188Y-65855592D01*
X202339188Y-65855592D02*
X202362998Y-65879401D01*
X202362998Y-65879401D02*
X202410617Y-65903211D01*
X202410617Y-65903211D02*
X202505855Y-65903211D01*
X202505855Y-65903211D02*
X202553474Y-65879401D01*
X202553474Y-65879401D02*
X202577283Y-65855592D01*
X202577283Y-65855592D02*
X202601093Y-65807973D01*
X204085836Y-71157609D02*
X204085836Y-70657609D01*
X204085836Y-70657609D02*
X204204884Y-70657609D01*
X204204884Y-70657609D02*
X204276312Y-70681419D01*
X204276312Y-70681419D02*
X204323931Y-70729038D01*
X204323931Y-70729038D02*
X204347741Y-70776657D01*
X204347741Y-70776657D02*
X204371550Y-70871895D01*
X204371550Y-70871895D02*
X204371550Y-70943323D01*
X204371550Y-70943323D02*
X204347741Y-71038561D01*
X204347741Y-71038561D02*
X204323931Y-71086180D01*
X204323931Y-71086180D02*
X204276312Y-71133800D01*
X204276312Y-71133800D02*
X204204884Y-71157609D01*
X204204884Y-71157609D02*
X204085836Y-71157609D01*
X204538217Y-70657609D02*
X204847741Y-70657609D01*
X204847741Y-70657609D02*
X204681074Y-70848085D01*
X204681074Y-70848085D02*
X204752503Y-70848085D01*
X204752503Y-70848085D02*
X204800122Y-70871895D01*
X204800122Y-70871895D02*
X204823931Y-70895704D01*
X204823931Y-70895704D02*
X204847741Y-70943323D01*
X204847741Y-70943323D02*
X204847741Y-71062371D01*
X204847741Y-71062371D02*
X204823931Y-71109990D01*
X204823931Y-71109990D02*
X204800122Y-71133800D01*
X204800122Y-71133800D02*
X204752503Y-71157609D01*
X204752503Y-71157609D02*
X204609646Y-71157609D01*
X204609646Y-71157609D02*
X204562027Y-71133800D01*
X204562027Y-71133800D02*
X204538217Y-71109990D01*
X205038217Y-70705228D02*
X205062026Y-70681419D01*
X205062026Y-70681419D02*
X205109645Y-70657609D01*
X205109645Y-70657609D02*
X205228693Y-70657609D01*
X205228693Y-70657609D02*
X205276312Y-70681419D01*
X205276312Y-70681419D02*
X205300121Y-70705228D01*
X205300121Y-70705228D02*
X205323931Y-70752847D01*
X205323931Y-70752847D02*
X205323931Y-70800466D01*
X205323931Y-70800466D02*
X205300121Y-70871895D01*
X205300121Y-70871895D02*
X205014407Y-71157609D01*
X205014407Y-71157609D02*
X205323931Y-71157609D01*
X204085836Y-81317609D02*
X204085836Y-80817609D01*
X204085836Y-80817609D02*
X204204884Y-80817609D01*
X204204884Y-80817609D02*
X204276312Y-80841419D01*
X204276312Y-80841419D02*
X204323931Y-80889038D01*
X204323931Y-80889038D02*
X204347741Y-80936657D01*
X204347741Y-80936657D02*
X204371550Y-81031895D01*
X204371550Y-81031895D02*
X204371550Y-81103323D01*
X204371550Y-81103323D02*
X204347741Y-81198561D01*
X204347741Y-81198561D02*
X204323931Y-81246180D01*
X204323931Y-81246180D02*
X204276312Y-81293800D01*
X204276312Y-81293800D02*
X204204884Y-81317609D01*
X204204884Y-81317609D02*
X204085836Y-81317609D01*
X204800122Y-80984276D02*
X204800122Y-81317609D01*
X204681074Y-80793800D02*
X204562027Y-81150942D01*
X204562027Y-81150942D02*
X204871550Y-81150942D01*
X205157264Y-80817609D02*
X205204883Y-80817609D01*
X205204883Y-80817609D02*
X205252502Y-80841419D01*
X205252502Y-80841419D02*
X205276312Y-80865228D01*
X205276312Y-80865228D02*
X205300121Y-80912847D01*
X205300121Y-80912847D02*
X205323931Y-81008085D01*
X205323931Y-81008085D02*
X205323931Y-81127133D01*
X205323931Y-81127133D02*
X205300121Y-81222371D01*
X205300121Y-81222371D02*
X205276312Y-81269990D01*
X205276312Y-81269990D02*
X205252502Y-81293800D01*
X205252502Y-81293800D02*
X205204883Y-81317609D01*
X205204883Y-81317609D02*
X205157264Y-81317609D01*
X205157264Y-81317609D02*
X205109645Y-81293800D01*
X205109645Y-81293800D02*
X205085836Y-81269990D01*
X205085836Y-81269990D02*
X205062026Y-81222371D01*
X205062026Y-81222371D02*
X205038217Y-81127133D01*
X205038217Y-81127133D02*
X205038217Y-81008085D01*
X205038217Y-81008085D02*
X205062026Y-80912847D01*
X205062026Y-80912847D02*
X205085836Y-80865228D01*
X205085836Y-80865228D02*
X205109645Y-80841419D01*
X205109645Y-80841419D02*
X205157264Y-80817609D01*
X187806027Y-101494752D02*
X188044122Y-101494752D01*
X187758408Y-101637609D02*
X187925074Y-101137609D01*
X187925074Y-101137609D02*
X188091741Y-101637609D01*
X188282217Y-101637609D02*
X188377455Y-101637609D01*
X188377455Y-101637609D02*
X188425074Y-101613800D01*
X188425074Y-101613800D02*
X188448883Y-101589990D01*
X188448883Y-101589990D02*
X188496502Y-101518561D01*
X188496502Y-101518561D02*
X188520312Y-101423323D01*
X188520312Y-101423323D02*
X188520312Y-101232847D01*
X188520312Y-101232847D02*
X188496502Y-101185228D01*
X188496502Y-101185228D02*
X188472693Y-101161419D01*
X188472693Y-101161419D02*
X188425074Y-101137609D01*
X188425074Y-101137609D02*
X188329836Y-101137609D01*
X188329836Y-101137609D02*
X188282217Y-101161419D01*
X188282217Y-101161419D02*
X188258407Y-101185228D01*
X188258407Y-101185228D02*
X188234598Y-101232847D01*
X188234598Y-101232847D02*
X188234598Y-101351895D01*
X188234598Y-101351895D02*
X188258407Y-101399514D01*
X188258407Y-101399514D02*
X188282217Y-101423323D01*
X188282217Y-101423323D02*
X188329836Y-101447133D01*
X188329836Y-101447133D02*
X188425074Y-101447133D01*
X188425074Y-101447133D02*
X188472693Y-101423323D01*
X188472693Y-101423323D02*
X188496502Y-101399514D01*
X188496502Y-101399514D02*
X188520312Y-101351895D01*
X160024741Y-84397419D02*
X159977122Y-84373609D01*
X159977122Y-84373609D02*
X159905693Y-84373609D01*
X159905693Y-84373609D02*
X159834265Y-84397419D01*
X159834265Y-84397419D02*
X159786646Y-84445038D01*
X159786646Y-84445038D02*
X159762836Y-84492657D01*
X159762836Y-84492657D02*
X159739027Y-84587895D01*
X159739027Y-84587895D02*
X159739027Y-84659323D01*
X159739027Y-84659323D02*
X159762836Y-84754561D01*
X159762836Y-84754561D02*
X159786646Y-84802180D01*
X159786646Y-84802180D02*
X159834265Y-84849800D01*
X159834265Y-84849800D02*
X159905693Y-84873609D01*
X159905693Y-84873609D02*
X159953312Y-84873609D01*
X159953312Y-84873609D02*
X160024741Y-84849800D01*
X160024741Y-84849800D02*
X160048550Y-84825990D01*
X160048550Y-84825990D02*
X160048550Y-84659323D01*
X160048550Y-84659323D02*
X159953312Y-84659323D01*
X160262836Y-84873609D02*
X160262836Y-84373609D01*
X160262836Y-84373609D02*
X160548550Y-84873609D01*
X160548550Y-84873609D02*
X160548550Y-84373609D01*
X160786646Y-84873609D02*
X160786646Y-84373609D01*
X160786646Y-84373609D02*
X160905694Y-84373609D01*
X160905694Y-84373609D02*
X160977122Y-84397419D01*
X160977122Y-84397419D02*
X161024741Y-84445038D01*
X161024741Y-84445038D02*
X161048551Y-84492657D01*
X161048551Y-84492657D02*
X161072360Y-84587895D01*
X161072360Y-84587895D02*
X161072360Y-84659323D01*
X161072360Y-84659323D02*
X161048551Y-84754561D01*
X161048551Y-84754561D02*
X161024741Y-84802180D01*
X161024741Y-84802180D02*
X160977122Y-84849800D01*
X160977122Y-84849800D02*
X160905694Y-84873609D01*
X160905694Y-84873609D02*
X160786646Y-84873609D01*
X201362998Y-71173687D02*
X201362998Y-70673687D01*
X201362998Y-70673687D02*
X201482046Y-70673687D01*
X201482046Y-70673687D02*
X201553474Y-70697497D01*
X201553474Y-70697497D02*
X201601093Y-70745116D01*
X201601093Y-70745116D02*
X201624903Y-70792735D01*
X201624903Y-70792735D02*
X201648712Y-70887973D01*
X201648712Y-70887973D02*
X201648712Y-70959401D01*
X201648712Y-70959401D02*
X201624903Y-71054639D01*
X201624903Y-71054639D02*
X201601093Y-71102258D01*
X201601093Y-71102258D02*
X201553474Y-71149878D01*
X201553474Y-71149878D02*
X201482046Y-71173687D01*
X201482046Y-71173687D02*
X201362998Y-71173687D01*
X201815379Y-70673687D02*
X202124903Y-70673687D01*
X202124903Y-70673687D02*
X201958236Y-70864163D01*
X201958236Y-70864163D02*
X202029665Y-70864163D01*
X202029665Y-70864163D02*
X202077284Y-70887973D01*
X202077284Y-70887973D02*
X202101093Y-70911782D01*
X202101093Y-70911782D02*
X202124903Y-70959401D01*
X202124903Y-70959401D02*
X202124903Y-71078449D01*
X202124903Y-71078449D02*
X202101093Y-71126068D01*
X202101093Y-71126068D02*
X202077284Y-71149878D01*
X202077284Y-71149878D02*
X202029665Y-71173687D01*
X202029665Y-71173687D02*
X201886808Y-71173687D01*
X201886808Y-71173687D02*
X201839189Y-71149878D01*
X201839189Y-71149878D02*
X201815379Y-71126068D01*
X202291569Y-70673687D02*
X202601093Y-70673687D01*
X202601093Y-70673687D02*
X202434426Y-70864163D01*
X202434426Y-70864163D02*
X202505855Y-70864163D01*
X202505855Y-70864163D02*
X202553474Y-70887973D01*
X202553474Y-70887973D02*
X202577283Y-70911782D01*
X202577283Y-70911782D02*
X202601093Y-70959401D01*
X202601093Y-70959401D02*
X202601093Y-71078449D01*
X202601093Y-71078449D02*
X202577283Y-71126068D01*
X202577283Y-71126068D02*
X202553474Y-71149878D01*
X202553474Y-71149878D02*
X202505855Y-71173687D01*
X202505855Y-71173687D02*
X202362998Y-71173687D01*
X202362998Y-71173687D02*
X202315379Y-71149878D01*
X202315379Y-71149878D02*
X202291569Y-71126068D01*
X201362998Y-88937609D02*
X201362998Y-88437609D01*
X201362998Y-88437609D02*
X201482046Y-88437609D01*
X201482046Y-88437609D02*
X201553474Y-88461419D01*
X201553474Y-88461419D02*
X201601093Y-88509038D01*
X201601093Y-88509038D02*
X201624903Y-88556657D01*
X201624903Y-88556657D02*
X201648712Y-88651895D01*
X201648712Y-88651895D02*
X201648712Y-88723323D01*
X201648712Y-88723323D02*
X201624903Y-88818561D01*
X201624903Y-88818561D02*
X201601093Y-88866180D01*
X201601093Y-88866180D02*
X201553474Y-88913800D01*
X201553474Y-88913800D02*
X201482046Y-88937609D01*
X201482046Y-88937609D02*
X201362998Y-88937609D01*
X202077284Y-88604276D02*
X202077284Y-88937609D01*
X201958236Y-88413800D02*
X201839189Y-88770942D01*
X201839189Y-88770942D02*
X202148712Y-88770942D01*
X202291569Y-88437609D02*
X202624902Y-88437609D01*
X202624902Y-88437609D02*
X202410617Y-88937609D01*
X201362998Y-81333687D02*
X201362998Y-80833687D01*
X201362998Y-80833687D02*
X201482046Y-80833687D01*
X201482046Y-80833687D02*
X201553474Y-80857497D01*
X201553474Y-80857497D02*
X201601093Y-80905116D01*
X201601093Y-80905116D02*
X201624903Y-80952735D01*
X201624903Y-80952735D02*
X201648712Y-81047973D01*
X201648712Y-81047973D02*
X201648712Y-81119401D01*
X201648712Y-81119401D02*
X201624903Y-81214639D01*
X201624903Y-81214639D02*
X201601093Y-81262258D01*
X201601093Y-81262258D02*
X201553474Y-81309878D01*
X201553474Y-81309878D02*
X201482046Y-81333687D01*
X201482046Y-81333687D02*
X201362998Y-81333687D01*
X202077284Y-81000354D02*
X202077284Y-81333687D01*
X201958236Y-80809878D02*
X201839189Y-81167020D01*
X201839189Y-81167020D02*
X202148712Y-81167020D01*
X202601093Y-81333687D02*
X202315379Y-81333687D01*
X202458236Y-81333687D02*
X202458236Y-80833687D01*
X202458236Y-80833687D02*
X202410617Y-80905116D01*
X202410617Y-80905116D02*
X202362998Y-80952735D01*
X202362998Y-80952735D02*
X202315379Y-80976544D01*
X203902998Y-88937609D02*
X203902998Y-88437609D01*
X203902998Y-88437609D02*
X204022046Y-88437609D01*
X204022046Y-88437609D02*
X204093474Y-88461419D01*
X204093474Y-88461419D02*
X204141093Y-88509038D01*
X204141093Y-88509038D02*
X204164903Y-88556657D01*
X204164903Y-88556657D02*
X204188712Y-88651895D01*
X204188712Y-88651895D02*
X204188712Y-88723323D01*
X204188712Y-88723323D02*
X204164903Y-88818561D01*
X204164903Y-88818561D02*
X204141093Y-88866180D01*
X204141093Y-88866180D02*
X204093474Y-88913800D01*
X204093474Y-88913800D02*
X204022046Y-88937609D01*
X204022046Y-88937609D02*
X203902998Y-88937609D01*
X204617284Y-88604276D02*
X204617284Y-88937609D01*
X204498236Y-88413800D02*
X204379189Y-88770942D01*
X204379189Y-88770942D02*
X204688712Y-88770942D01*
X205093474Y-88437609D02*
X204998236Y-88437609D01*
X204998236Y-88437609D02*
X204950617Y-88461419D01*
X204950617Y-88461419D02*
X204926807Y-88485228D01*
X204926807Y-88485228D02*
X204879188Y-88556657D01*
X204879188Y-88556657D02*
X204855379Y-88651895D01*
X204855379Y-88651895D02*
X204855379Y-88842371D01*
X204855379Y-88842371D02*
X204879188Y-88889990D01*
X204879188Y-88889990D02*
X204902998Y-88913800D01*
X204902998Y-88913800D02*
X204950617Y-88937609D01*
X204950617Y-88937609D02*
X205045855Y-88937609D01*
X205045855Y-88937609D02*
X205093474Y-88913800D01*
X205093474Y-88913800D02*
X205117283Y-88889990D01*
X205117283Y-88889990D02*
X205141093Y-88842371D01*
X205141093Y-88842371D02*
X205141093Y-88723323D01*
X205141093Y-88723323D02*
X205117283Y-88675704D01*
X205117283Y-88675704D02*
X205093474Y-88651895D01*
X205093474Y-88651895D02*
X205045855Y-88628085D01*
X205045855Y-88628085D02*
X204950617Y-88628085D01*
X204950617Y-88628085D02*
X204902998Y-88651895D01*
X204902998Y-88651895D02*
X204879188Y-88675704D01*
X204879188Y-88675704D02*
X204855379Y-88723323D01*
X201291836Y-61013687D02*
X201291836Y-60513687D01*
X201291836Y-60513687D02*
X201410884Y-60513687D01*
X201410884Y-60513687D02*
X201482312Y-60537497D01*
X201482312Y-60537497D02*
X201529931Y-60585116D01*
X201529931Y-60585116D02*
X201553741Y-60632735D01*
X201553741Y-60632735D02*
X201577550Y-60727973D01*
X201577550Y-60727973D02*
X201577550Y-60799401D01*
X201577550Y-60799401D02*
X201553741Y-60894639D01*
X201553741Y-60894639D02*
X201529931Y-60942258D01*
X201529931Y-60942258D02*
X201482312Y-60989878D01*
X201482312Y-60989878D02*
X201410884Y-61013687D01*
X201410884Y-61013687D02*
X201291836Y-61013687D01*
X201768027Y-60561306D02*
X201791836Y-60537497D01*
X201791836Y-60537497D02*
X201839455Y-60513687D01*
X201839455Y-60513687D02*
X201958503Y-60513687D01*
X201958503Y-60513687D02*
X202006122Y-60537497D01*
X202006122Y-60537497D02*
X202029931Y-60561306D01*
X202029931Y-60561306D02*
X202053741Y-60608925D01*
X202053741Y-60608925D02*
X202053741Y-60656544D01*
X202053741Y-60656544D02*
X202029931Y-60727973D01*
X202029931Y-60727973D02*
X201744217Y-61013687D01*
X201744217Y-61013687D02*
X202053741Y-61013687D01*
X202506121Y-60513687D02*
X202268026Y-60513687D01*
X202268026Y-60513687D02*
X202244217Y-60751782D01*
X202244217Y-60751782D02*
X202268026Y-60727973D01*
X202268026Y-60727973D02*
X202315645Y-60704163D01*
X202315645Y-60704163D02*
X202434693Y-60704163D01*
X202434693Y-60704163D02*
X202482312Y-60727973D01*
X202482312Y-60727973D02*
X202506121Y-60751782D01*
X202506121Y-60751782D02*
X202529931Y-60799401D01*
X202529931Y-60799401D02*
X202529931Y-60918449D01*
X202529931Y-60918449D02*
X202506121Y-60966068D01*
X202506121Y-60966068D02*
X202482312Y-60989878D01*
X202482312Y-60989878D02*
X202434693Y-61013687D01*
X202434693Y-61013687D02*
X202315645Y-61013687D01*
X202315645Y-61013687D02*
X202268026Y-60989878D01*
X202268026Y-60989878D02*
X202244217Y-60966068D01*
X160024741Y-97097419D02*
X159977122Y-97073609D01*
X159977122Y-97073609D02*
X159905693Y-97073609D01*
X159905693Y-97073609D02*
X159834265Y-97097419D01*
X159834265Y-97097419D02*
X159786646Y-97145038D01*
X159786646Y-97145038D02*
X159762836Y-97192657D01*
X159762836Y-97192657D02*
X159739027Y-97287895D01*
X159739027Y-97287895D02*
X159739027Y-97359323D01*
X159739027Y-97359323D02*
X159762836Y-97454561D01*
X159762836Y-97454561D02*
X159786646Y-97502180D01*
X159786646Y-97502180D02*
X159834265Y-97549800D01*
X159834265Y-97549800D02*
X159905693Y-97573609D01*
X159905693Y-97573609D02*
X159953312Y-97573609D01*
X159953312Y-97573609D02*
X160024741Y-97549800D01*
X160024741Y-97549800D02*
X160048550Y-97525990D01*
X160048550Y-97525990D02*
X160048550Y-97359323D01*
X160048550Y-97359323D02*
X159953312Y-97359323D01*
X160262836Y-97573609D02*
X160262836Y-97073609D01*
X160262836Y-97073609D02*
X160548550Y-97573609D01*
X160548550Y-97573609D02*
X160548550Y-97073609D01*
X160786646Y-97573609D02*
X160786646Y-97073609D01*
X160786646Y-97073609D02*
X160905694Y-97073609D01*
X160905694Y-97073609D02*
X160977122Y-97097419D01*
X160977122Y-97097419D02*
X161024741Y-97145038D01*
X161024741Y-97145038D02*
X161048551Y-97192657D01*
X161048551Y-97192657D02*
X161072360Y-97287895D01*
X161072360Y-97287895D02*
X161072360Y-97359323D01*
X161072360Y-97359323D02*
X161048551Y-97454561D01*
X161048551Y-97454561D02*
X161024741Y-97502180D01*
X161024741Y-97502180D02*
X160977122Y-97549800D01*
X160977122Y-97549800D02*
X160905694Y-97573609D01*
X160905694Y-97573609D02*
X160786646Y-97573609D01*
X204014674Y-60997609D02*
X204014674Y-60497609D01*
X204014674Y-60497609D02*
X204133722Y-60497609D01*
X204133722Y-60497609D02*
X204205150Y-60521419D01*
X204205150Y-60521419D02*
X204252769Y-60569038D01*
X204252769Y-60569038D02*
X204276579Y-60616657D01*
X204276579Y-60616657D02*
X204300388Y-60711895D01*
X204300388Y-60711895D02*
X204300388Y-60783323D01*
X204300388Y-60783323D02*
X204276579Y-60878561D01*
X204276579Y-60878561D02*
X204252769Y-60926180D01*
X204252769Y-60926180D02*
X204205150Y-60973800D01*
X204205150Y-60973800D02*
X204133722Y-60997609D01*
X204133722Y-60997609D02*
X204014674Y-60997609D01*
X204490865Y-60545228D02*
X204514674Y-60521419D01*
X204514674Y-60521419D02*
X204562293Y-60497609D01*
X204562293Y-60497609D02*
X204681341Y-60497609D01*
X204681341Y-60497609D02*
X204728960Y-60521419D01*
X204728960Y-60521419D02*
X204752769Y-60545228D01*
X204752769Y-60545228D02*
X204776579Y-60592847D01*
X204776579Y-60592847D02*
X204776579Y-60640466D01*
X204776579Y-60640466D02*
X204752769Y-60711895D01*
X204752769Y-60711895D02*
X204467055Y-60997609D01*
X204467055Y-60997609D02*
X204776579Y-60997609D01*
X205205150Y-60664276D02*
X205205150Y-60997609D01*
X205086102Y-60473800D02*
X204967055Y-60830942D01*
X204967055Y-60830942D02*
X205276578Y-60830942D01*
X192782836Y-58203609D02*
X192782836Y-57703609D01*
X192782836Y-57703609D02*
X192901884Y-57703609D01*
X192901884Y-57703609D02*
X192973312Y-57727419D01*
X192973312Y-57727419D02*
X193020931Y-57775038D01*
X193020931Y-57775038D02*
X193044741Y-57822657D01*
X193044741Y-57822657D02*
X193068550Y-57917895D01*
X193068550Y-57917895D02*
X193068550Y-57989323D01*
X193068550Y-57989323D02*
X193044741Y-58084561D01*
X193044741Y-58084561D02*
X193020931Y-58132180D01*
X193020931Y-58132180D02*
X192973312Y-58179800D01*
X192973312Y-58179800D02*
X192901884Y-58203609D01*
X192901884Y-58203609D02*
X192782836Y-58203609D01*
X193544741Y-58203609D02*
X193259027Y-58203609D01*
X193401884Y-58203609D02*
X193401884Y-57703609D01*
X193401884Y-57703609D02*
X193354265Y-57775038D01*
X193354265Y-57775038D02*
X193306646Y-57822657D01*
X193306646Y-57822657D02*
X193259027Y-57846466D01*
X193782836Y-58203609D02*
X193878074Y-58203609D01*
X193878074Y-58203609D02*
X193925693Y-58179800D01*
X193925693Y-58179800D02*
X193949502Y-58155990D01*
X193949502Y-58155990D02*
X193997121Y-58084561D01*
X193997121Y-58084561D02*
X194020931Y-57989323D01*
X194020931Y-57989323D02*
X194020931Y-57798847D01*
X194020931Y-57798847D02*
X193997121Y-57751228D01*
X193997121Y-57751228D02*
X193973312Y-57727419D01*
X193973312Y-57727419D02*
X193925693Y-57703609D01*
X193925693Y-57703609D02*
X193830455Y-57703609D01*
X193830455Y-57703609D02*
X193782836Y-57727419D01*
X193782836Y-57727419D02*
X193759026Y-57751228D01*
X193759026Y-57751228D02*
X193735217Y-57798847D01*
X193735217Y-57798847D02*
X193735217Y-57917895D01*
X193735217Y-57917895D02*
X193759026Y-57965514D01*
X193759026Y-57965514D02*
X193782836Y-57989323D01*
X193782836Y-57989323D02*
X193830455Y-58013133D01*
X193830455Y-58013133D02*
X193925693Y-58013133D01*
X193925693Y-58013133D02*
X193973312Y-57989323D01*
X193973312Y-57989323D02*
X193997121Y-57965514D01*
X193997121Y-57965514D02*
X194020931Y-57917895D01*
X160000931Y-79293609D02*
X159762836Y-79293609D01*
X159762836Y-79293609D02*
X159739027Y-79531704D01*
X159739027Y-79531704D02*
X159762836Y-79507895D01*
X159762836Y-79507895D02*
X159810455Y-79484085D01*
X159810455Y-79484085D02*
X159929503Y-79484085D01*
X159929503Y-79484085D02*
X159977122Y-79507895D01*
X159977122Y-79507895D02*
X160000931Y-79531704D01*
X160000931Y-79531704D02*
X160024741Y-79579323D01*
X160024741Y-79579323D02*
X160024741Y-79698371D01*
X160024741Y-79698371D02*
X160000931Y-79745990D01*
X160000931Y-79745990D02*
X159977122Y-79769800D01*
X159977122Y-79769800D02*
X159929503Y-79793609D01*
X159929503Y-79793609D02*
X159810455Y-79793609D01*
X159810455Y-79793609D02*
X159762836Y-79769800D01*
X159762836Y-79769800D02*
X159739027Y-79745990D01*
X160167598Y-79293609D02*
X160334264Y-79793609D01*
X160334264Y-79793609D02*
X160500931Y-79293609D01*
X203902998Y-78777609D02*
X203902998Y-78277609D01*
X203902998Y-78277609D02*
X204022046Y-78277609D01*
X204022046Y-78277609D02*
X204093474Y-78301419D01*
X204093474Y-78301419D02*
X204141093Y-78349038D01*
X204141093Y-78349038D02*
X204164903Y-78396657D01*
X204164903Y-78396657D02*
X204188712Y-78491895D01*
X204188712Y-78491895D02*
X204188712Y-78563323D01*
X204188712Y-78563323D02*
X204164903Y-78658561D01*
X204164903Y-78658561D02*
X204141093Y-78706180D01*
X204141093Y-78706180D02*
X204093474Y-78753800D01*
X204093474Y-78753800D02*
X204022046Y-78777609D01*
X204022046Y-78777609D02*
X203902998Y-78777609D01*
X204355379Y-78277609D02*
X204664903Y-78277609D01*
X204664903Y-78277609D02*
X204498236Y-78468085D01*
X204498236Y-78468085D02*
X204569665Y-78468085D01*
X204569665Y-78468085D02*
X204617284Y-78491895D01*
X204617284Y-78491895D02*
X204641093Y-78515704D01*
X204641093Y-78515704D02*
X204664903Y-78563323D01*
X204664903Y-78563323D02*
X204664903Y-78682371D01*
X204664903Y-78682371D02*
X204641093Y-78729990D01*
X204641093Y-78729990D02*
X204617284Y-78753800D01*
X204617284Y-78753800D02*
X204569665Y-78777609D01*
X204569665Y-78777609D02*
X204426808Y-78777609D01*
X204426808Y-78777609D02*
X204379189Y-78753800D01*
X204379189Y-78753800D02*
X204355379Y-78729990D01*
X204950617Y-78491895D02*
X204902998Y-78468085D01*
X204902998Y-78468085D02*
X204879188Y-78444276D01*
X204879188Y-78444276D02*
X204855379Y-78396657D01*
X204855379Y-78396657D02*
X204855379Y-78372847D01*
X204855379Y-78372847D02*
X204879188Y-78325228D01*
X204879188Y-78325228D02*
X204902998Y-78301419D01*
X204902998Y-78301419D02*
X204950617Y-78277609D01*
X204950617Y-78277609D02*
X205045855Y-78277609D01*
X205045855Y-78277609D02*
X205093474Y-78301419D01*
X205093474Y-78301419D02*
X205117283Y-78325228D01*
X205117283Y-78325228D02*
X205141093Y-78372847D01*
X205141093Y-78372847D02*
X205141093Y-78396657D01*
X205141093Y-78396657D02*
X205117283Y-78444276D01*
X205117283Y-78444276D02*
X205093474Y-78468085D01*
X205093474Y-78468085D02*
X205045855Y-78491895D01*
X205045855Y-78491895D02*
X204950617Y-78491895D01*
X204950617Y-78491895D02*
X204902998Y-78515704D01*
X204902998Y-78515704D02*
X204879188Y-78539514D01*
X204879188Y-78539514D02*
X204855379Y-78587133D01*
X204855379Y-78587133D02*
X204855379Y-78682371D01*
X204855379Y-78682371D02*
X204879188Y-78729990D01*
X204879188Y-78729990D02*
X204902998Y-78753800D01*
X204902998Y-78753800D02*
X204950617Y-78777609D01*
X204950617Y-78777609D02*
X205045855Y-78777609D01*
X205045855Y-78777609D02*
X205093474Y-78753800D01*
X205093474Y-78753800D02*
X205117283Y-78729990D01*
X205117283Y-78729990D02*
X205141093Y-78682371D01*
X205141093Y-78682371D02*
X205141093Y-78587133D01*
X205141093Y-78587133D02*
X205117283Y-78539514D01*
X205117283Y-78539514D02*
X205093474Y-78515704D01*
X205093474Y-78515704D02*
X205045855Y-78491895D01*
D10*
X158231969Y-61441819D02*
X157755779Y-61441819D01*
X157755779Y-61441819D02*
X157755779Y-60441819D01*
X159136731Y-61441819D02*
X158803398Y-60965628D01*
X158565303Y-61441819D02*
X158565303Y-60441819D01*
X158565303Y-60441819D02*
X158946255Y-60441819D01*
X158946255Y-60441819D02*
X159041493Y-60489438D01*
X159041493Y-60489438D02*
X159089112Y-60537057D01*
X159089112Y-60537057D02*
X159136731Y-60632295D01*
X159136731Y-60632295D02*
X159136731Y-60775152D01*
X159136731Y-60775152D02*
X159089112Y-60870390D01*
X159089112Y-60870390D02*
X159041493Y-60918009D01*
X159041493Y-60918009D02*
X158946255Y-60965628D01*
X158946255Y-60965628D02*
X158565303Y-60965628D01*
X160184351Y-60441819D02*
X160517684Y-61441819D01*
X160517684Y-61441819D02*
X160851017Y-60441819D01*
X161708160Y-61441819D02*
X161136732Y-61441819D01*
X161422446Y-61441819D02*
X161422446Y-60441819D01*
X161422446Y-60441819D02*
X161327208Y-60584676D01*
X161327208Y-60584676D02*
X161231970Y-60679914D01*
X161231970Y-60679914D02*
X161136732Y-60727533D01*
X162136732Y-61346580D02*
X162184351Y-61394200D01*
X162184351Y-61394200D02*
X162136732Y-61441819D01*
X162136732Y-61441819D02*
X162089113Y-61394200D01*
X162089113Y-61394200D02*
X162136732Y-61346580D01*
X162136732Y-61346580D02*
X162136732Y-61441819D01*
X162803398Y-60441819D02*
X162898636Y-60441819D01*
X162898636Y-60441819D02*
X162993874Y-60489438D01*
X162993874Y-60489438D02*
X163041493Y-60537057D01*
X163041493Y-60537057D02*
X163089112Y-60632295D01*
X163089112Y-60632295D02*
X163136731Y-60822771D01*
X163136731Y-60822771D02*
X163136731Y-61060866D01*
X163136731Y-61060866D02*
X163089112Y-61251342D01*
X163089112Y-61251342D02*
X163041493Y-61346580D01*
X163041493Y-61346580D02*
X162993874Y-61394200D01*
X162993874Y-61394200D02*
X162898636Y-61441819D01*
X162898636Y-61441819D02*
X162803398Y-61441819D01*
X162803398Y-61441819D02*
X162708160Y-61394200D01*
X162708160Y-61394200D02*
X162660541Y-61346580D01*
X162660541Y-61346580D02*
X162612922Y-61251342D01*
X162612922Y-61251342D02*
X162565303Y-61060866D01*
X162565303Y-61060866D02*
X162565303Y-60822771D01*
X162565303Y-60822771D02*
X162612922Y-60632295D01*
X162612922Y-60632295D02*
X162660541Y-60537057D01*
X162660541Y-60537057D02*
X162708160Y-60489438D01*
X162708160Y-60489438D02*
X162803398Y-60441819D01*
D11*
X201362998Y-91493687D02*
X201362998Y-90993687D01*
X201362998Y-90993687D02*
X201482046Y-90993687D01*
X201482046Y-90993687D02*
X201553474Y-91017497D01*
X201553474Y-91017497D02*
X201601093Y-91065116D01*
X201601093Y-91065116D02*
X201624903Y-91112735D01*
X201624903Y-91112735D02*
X201648712Y-91207973D01*
X201648712Y-91207973D02*
X201648712Y-91279401D01*
X201648712Y-91279401D02*
X201624903Y-91374639D01*
X201624903Y-91374639D02*
X201601093Y-91422258D01*
X201601093Y-91422258D02*
X201553474Y-91469878D01*
X201553474Y-91469878D02*
X201482046Y-91493687D01*
X201482046Y-91493687D02*
X201362998Y-91493687D01*
X202077284Y-91160354D02*
X202077284Y-91493687D01*
X201958236Y-90969878D02*
X201839189Y-91327020D01*
X201839189Y-91327020D02*
X202148712Y-91327020D01*
X202362998Y-91493687D02*
X202458236Y-91493687D01*
X202458236Y-91493687D02*
X202505855Y-91469878D01*
X202505855Y-91469878D02*
X202529664Y-91446068D01*
X202529664Y-91446068D02*
X202577283Y-91374639D01*
X202577283Y-91374639D02*
X202601093Y-91279401D01*
X202601093Y-91279401D02*
X202601093Y-91088925D01*
X202601093Y-91088925D02*
X202577283Y-91041306D01*
X202577283Y-91041306D02*
X202553474Y-91017497D01*
X202553474Y-91017497D02*
X202505855Y-90993687D01*
X202505855Y-90993687D02*
X202410617Y-90993687D01*
X202410617Y-90993687D02*
X202362998Y-91017497D01*
X202362998Y-91017497D02*
X202339188Y-91041306D01*
X202339188Y-91041306D02*
X202315379Y-91088925D01*
X202315379Y-91088925D02*
X202315379Y-91207973D01*
X202315379Y-91207973D02*
X202339188Y-91255592D01*
X202339188Y-91255592D02*
X202362998Y-91279401D01*
X202362998Y-91279401D02*
X202410617Y-91303211D01*
X202410617Y-91303211D02*
X202505855Y-91303211D01*
X202505855Y-91303211D02*
X202553474Y-91279401D01*
X202553474Y-91279401D02*
X202577283Y-91255592D01*
X202577283Y-91255592D02*
X202601093Y-91207973D01*
X169922836Y-58203609D02*
X169922836Y-57703609D01*
X169922836Y-57703609D02*
X170041884Y-57703609D01*
X170041884Y-57703609D02*
X170113312Y-57727419D01*
X170113312Y-57727419D02*
X170160931Y-57775038D01*
X170160931Y-57775038D02*
X170184741Y-57822657D01*
X170184741Y-57822657D02*
X170208550Y-57917895D01*
X170208550Y-57917895D02*
X170208550Y-57989323D01*
X170208550Y-57989323D02*
X170184741Y-58084561D01*
X170184741Y-58084561D02*
X170160931Y-58132180D01*
X170160931Y-58132180D02*
X170113312Y-58179800D01*
X170113312Y-58179800D02*
X170041884Y-58203609D01*
X170041884Y-58203609D02*
X169922836Y-58203609D01*
X170399027Y-57751228D02*
X170422836Y-57727419D01*
X170422836Y-57727419D02*
X170470455Y-57703609D01*
X170470455Y-57703609D02*
X170589503Y-57703609D01*
X170589503Y-57703609D02*
X170637122Y-57727419D01*
X170637122Y-57727419D02*
X170660931Y-57751228D01*
X170660931Y-57751228D02*
X170684741Y-57798847D01*
X170684741Y-57798847D02*
X170684741Y-57846466D01*
X170684741Y-57846466D02*
X170660931Y-57917895D01*
X170660931Y-57917895D02*
X170375217Y-58203609D01*
X170375217Y-58203609D02*
X170684741Y-58203609D01*
X172820027Y-101494752D02*
X173058122Y-101494752D01*
X172772408Y-101637609D02*
X172939074Y-101137609D01*
X172939074Y-101137609D02*
X173105741Y-101637609D01*
X173486693Y-101304276D02*
X173486693Y-101637609D01*
X173367645Y-101113800D02*
X173248598Y-101470942D01*
X173248598Y-101470942D02*
X173558121Y-101470942D01*
X204156998Y-73697609D02*
X204156998Y-73197609D01*
X204156998Y-73197609D02*
X204276046Y-73197609D01*
X204276046Y-73197609D02*
X204347474Y-73221419D01*
X204347474Y-73221419D02*
X204395093Y-73269038D01*
X204395093Y-73269038D02*
X204418903Y-73316657D01*
X204418903Y-73316657D02*
X204442712Y-73411895D01*
X204442712Y-73411895D02*
X204442712Y-73483323D01*
X204442712Y-73483323D02*
X204418903Y-73578561D01*
X204418903Y-73578561D02*
X204395093Y-73626180D01*
X204395093Y-73626180D02*
X204347474Y-73673800D01*
X204347474Y-73673800D02*
X204276046Y-73697609D01*
X204276046Y-73697609D02*
X204156998Y-73697609D01*
X204609379Y-73197609D02*
X204918903Y-73197609D01*
X204918903Y-73197609D02*
X204752236Y-73388085D01*
X204752236Y-73388085D02*
X204823665Y-73388085D01*
X204823665Y-73388085D02*
X204871284Y-73411895D01*
X204871284Y-73411895D02*
X204895093Y-73435704D01*
X204895093Y-73435704D02*
X204918903Y-73483323D01*
X204918903Y-73483323D02*
X204918903Y-73602371D01*
X204918903Y-73602371D02*
X204895093Y-73649990D01*
X204895093Y-73649990D02*
X204871284Y-73673800D01*
X204871284Y-73673800D02*
X204823665Y-73697609D01*
X204823665Y-73697609D02*
X204680808Y-73697609D01*
X204680808Y-73697609D02*
X204633189Y-73673800D01*
X204633189Y-73673800D02*
X204609379Y-73649990D01*
X205347474Y-73364276D02*
X205347474Y-73697609D01*
X205228426Y-73173800D02*
X205109379Y-73530942D01*
X205109379Y-73530942D02*
X205418902Y-73530942D01*
X185266027Y-101494752D02*
X185504122Y-101494752D01*
X185218408Y-101637609D02*
X185385074Y-101137609D01*
X185385074Y-101137609D02*
X185551741Y-101637609D01*
X185789836Y-101351895D02*
X185742217Y-101328085D01*
X185742217Y-101328085D02*
X185718407Y-101304276D01*
X185718407Y-101304276D02*
X185694598Y-101256657D01*
X185694598Y-101256657D02*
X185694598Y-101232847D01*
X185694598Y-101232847D02*
X185718407Y-101185228D01*
X185718407Y-101185228D02*
X185742217Y-101161419D01*
X185742217Y-101161419D02*
X185789836Y-101137609D01*
X185789836Y-101137609D02*
X185885074Y-101137609D01*
X185885074Y-101137609D02*
X185932693Y-101161419D01*
X185932693Y-101161419D02*
X185956502Y-101185228D01*
X185956502Y-101185228D02*
X185980312Y-101232847D01*
X185980312Y-101232847D02*
X185980312Y-101256657D01*
X185980312Y-101256657D02*
X185956502Y-101304276D01*
X185956502Y-101304276D02*
X185932693Y-101328085D01*
X185932693Y-101328085D02*
X185885074Y-101351895D01*
X185885074Y-101351895D02*
X185789836Y-101351895D01*
X185789836Y-101351895D02*
X185742217Y-101375704D01*
X185742217Y-101375704D02*
X185718407Y-101399514D01*
X185718407Y-101399514D02*
X185694598Y-101447133D01*
X185694598Y-101447133D02*
X185694598Y-101542371D01*
X185694598Y-101542371D02*
X185718407Y-101589990D01*
X185718407Y-101589990D02*
X185742217Y-101613800D01*
X185742217Y-101613800D02*
X185789836Y-101637609D01*
X185789836Y-101637609D02*
X185885074Y-101637609D01*
X185885074Y-101637609D02*
X185932693Y-101613800D01*
X185932693Y-101613800D02*
X185956502Y-101589990D01*
X185956502Y-101589990D02*
X185980312Y-101542371D01*
X185980312Y-101542371D02*
X185980312Y-101447133D01*
X185980312Y-101447133D02*
X185956502Y-101399514D01*
X185956502Y-101399514D02*
X185932693Y-101375704D01*
X185932693Y-101375704D02*
X185885074Y-101351895D01*
X201434160Y-83873687D02*
X201434160Y-83373687D01*
X201434160Y-83373687D02*
X201553208Y-83373687D01*
X201553208Y-83373687D02*
X201624636Y-83397497D01*
X201624636Y-83397497D02*
X201672255Y-83445116D01*
X201672255Y-83445116D02*
X201696065Y-83492735D01*
X201696065Y-83492735D02*
X201719874Y-83587973D01*
X201719874Y-83587973D02*
X201719874Y-83659401D01*
X201719874Y-83659401D02*
X201696065Y-83754639D01*
X201696065Y-83754639D02*
X201672255Y-83802258D01*
X201672255Y-83802258D02*
X201624636Y-83849878D01*
X201624636Y-83849878D02*
X201553208Y-83873687D01*
X201553208Y-83873687D02*
X201434160Y-83873687D01*
X202148446Y-83540354D02*
X202148446Y-83873687D01*
X202029398Y-83349878D02*
X201910351Y-83707020D01*
X201910351Y-83707020D02*
X202219874Y-83707020D01*
X202362731Y-83373687D02*
X202672255Y-83373687D01*
X202672255Y-83373687D02*
X202505588Y-83564163D01*
X202505588Y-83564163D02*
X202577017Y-83564163D01*
X202577017Y-83564163D02*
X202624636Y-83587973D01*
X202624636Y-83587973D02*
X202648445Y-83611782D01*
X202648445Y-83611782D02*
X202672255Y-83659401D01*
X202672255Y-83659401D02*
X202672255Y-83778449D01*
X202672255Y-83778449D02*
X202648445Y-83826068D01*
X202648445Y-83826068D02*
X202624636Y-83849878D01*
X202624636Y-83849878D02*
X202577017Y-83873687D01*
X202577017Y-83873687D02*
X202434160Y-83873687D01*
X202434160Y-83873687D02*
X202386541Y-83849878D01*
X202386541Y-83849878D02*
X202362731Y-83826068D01*
X204156998Y-86397609D02*
X204156998Y-85897609D01*
X204156998Y-85897609D02*
X204276046Y-85897609D01*
X204276046Y-85897609D02*
X204347474Y-85921419D01*
X204347474Y-85921419D02*
X204395093Y-85969038D01*
X204395093Y-85969038D02*
X204418903Y-86016657D01*
X204418903Y-86016657D02*
X204442712Y-86111895D01*
X204442712Y-86111895D02*
X204442712Y-86183323D01*
X204442712Y-86183323D02*
X204418903Y-86278561D01*
X204418903Y-86278561D02*
X204395093Y-86326180D01*
X204395093Y-86326180D02*
X204347474Y-86373800D01*
X204347474Y-86373800D02*
X204276046Y-86397609D01*
X204276046Y-86397609D02*
X204156998Y-86397609D01*
X204871284Y-86064276D02*
X204871284Y-86397609D01*
X204752236Y-85873800D02*
X204633189Y-86230942D01*
X204633189Y-86230942D02*
X204942712Y-86230942D01*
X205347474Y-86064276D02*
X205347474Y-86397609D01*
X205228426Y-85873800D02*
X205109379Y-86230942D01*
X205109379Y-86230942D02*
X205418902Y-86230942D01*
X192886027Y-101494752D02*
X193124122Y-101494752D01*
X192838408Y-101637609D02*
X193005074Y-101137609D01*
X193005074Y-101137609D02*
X193171741Y-101637609D01*
X193600312Y-101637609D02*
X193314598Y-101637609D01*
X193457455Y-101637609D02*
X193457455Y-101137609D01*
X193457455Y-101137609D02*
X193409836Y-101209038D01*
X193409836Y-101209038D02*
X193362217Y-101256657D01*
X193362217Y-101256657D02*
X193314598Y-101280466D01*
X194076502Y-101637609D02*
X193790788Y-101637609D01*
X193933645Y-101637609D02*
X193933645Y-101137609D01*
X193933645Y-101137609D02*
X193886026Y-101209038D01*
X193886026Y-101209038D02*
X193838407Y-101256657D01*
X193838407Y-101256657D02*
X193790788Y-101280466D01*
X204085836Y-91477609D02*
X204085836Y-90977609D01*
X204085836Y-90977609D02*
X204204884Y-90977609D01*
X204204884Y-90977609D02*
X204276312Y-91001419D01*
X204276312Y-91001419D02*
X204323931Y-91049038D01*
X204323931Y-91049038D02*
X204347741Y-91096657D01*
X204347741Y-91096657D02*
X204371550Y-91191895D01*
X204371550Y-91191895D02*
X204371550Y-91263323D01*
X204371550Y-91263323D02*
X204347741Y-91358561D01*
X204347741Y-91358561D02*
X204323931Y-91406180D01*
X204323931Y-91406180D02*
X204276312Y-91453800D01*
X204276312Y-91453800D02*
X204204884Y-91477609D01*
X204204884Y-91477609D02*
X204085836Y-91477609D01*
X204800122Y-91144276D02*
X204800122Y-91477609D01*
X204681074Y-90953800D02*
X204562027Y-91310942D01*
X204562027Y-91310942D02*
X204871550Y-91310942D01*
X205133455Y-91191895D02*
X205085836Y-91168085D01*
X205085836Y-91168085D02*
X205062026Y-91144276D01*
X205062026Y-91144276D02*
X205038217Y-91096657D01*
X205038217Y-91096657D02*
X205038217Y-91072847D01*
X205038217Y-91072847D02*
X205062026Y-91025228D01*
X205062026Y-91025228D02*
X205085836Y-91001419D01*
X205085836Y-91001419D02*
X205133455Y-90977609D01*
X205133455Y-90977609D02*
X205228693Y-90977609D01*
X205228693Y-90977609D02*
X205276312Y-91001419D01*
X205276312Y-91001419D02*
X205300121Y-91025228D01*
X205300121Y-91025228D02*
X205323931Y-91072847D01*
X205323931Y-91072847D02*
X205323931Y-91096657D01*
X205323931Y-91096657D02*
X205300121Y-91144276D01*
X205300121Y-91144276D02*
X205276312Y-91168085D01*
X205276312Y-91168085D02*
X205228693Y-91191895D01*
X205228693Y-91191895D02*
X205133455Y-91191895D01*
X205133455Y-91191895D02*
X205085836Y-91215704D01*
X205085836Y-91215704D02*
X205062026Y-91239514D01*
X205062026Y-91239514D02*
X205038217Y-91287133D01*
X205038217Y-91287133D02*
X205038217Y-91382371D01*
X205038217Y-91382371D02*
X205062026Y-91429990D01*
X205062026Y-91429990D02*
X205085836Y-91453800D01*
X205085836Y-91453800D02*
X205133455Y-91477609D01*
X205133455Y-91477609D02*
X205228693Y-91477609D01*
X205228693Y-91477609D02*
X205276312Y-91453800D01*
X205276312Y-91453800D02*
X205300121Y-91429990D01*
X205300121Y-91429990D02*
X205323931Y-91382371D01*
X205323931Y-91382371D02*
X205323931Y-91287133D01*
X205323931Y-91287133D02*
X205300121Y-91239514D01*
X205300121Y-91239514D02*
X205276312Y-91215704D01*
X205276312Y-91215704D02*
X205228693Y-91191895D01*
X165017189Y-101510830D02*
X165255284Y-101510830D01*
X164969570Y-101653687D02*
X165136236Y-101153687D01*
X165136236Y-101153687D02*
X165302903Y-101653687D01*
X165731474Y-101653687D02*
X165445760Y-101653687D01*
X165588617Y-101653687D02*
X165588617Y-101153687D01*
X165588617Y-101153687D02*
X165540998Y-101225116D01*
X165540998Y-101225116D02*
X165493379Y-101272735D01*
X165493379Y-101272735D02*
X165445760Y-101296544D01*
X201291836Y-58457609D02*
X201291836Y-57957609D01*
X201291836Y-57957609D02*
X201410884Y-57957609D01*
X201410884Y-57957609D02*
X201482312Y-57981419D01*
X201482312Y-57981419D02*
X201529931Y-58029038D01*
X201529931Y-58029038D02*
X201553741Y-58076657D01*
X201553741Y-58076657D02*
X201577550Y-58171895D01*
X201577550Y-58171895D02*
X201577550Y-58243323D01*
X201577550Y-58243323D02*
X201553741Y-58338561D01*
X201553741Y-58338561D02*
X201529931Y-58386180D01*
X201529931Y-58386180D02*
X201482312Y-58433800D01*
X201482312Y-58433800D02*
X201410884Y-58457609D01*
X201410884Y-58457609D02*
X201291836Y-58457609D01*
X201768027Y-58005228D02*
X201791836Y-57981419D01*
X201791836Y-57981419D02*
X201839455Y-57957609D01*
X201839455Y-57957609D02*
X201958503Y-57957609D01*
X201958503Y-57957609D02*
X202006122Y-57981419D01*
X202006122Y-57981419D02*
X202029931Y-58005228D01*
X202029931Y-58005228D02*
X202053741Y-58052847D01*
X202053741Y-58052847D02*
X202053741Y-58100466D01*
X202053741Y-58100466D02*
X202029931Y-58171895D01*
X202029931Y-58171895D02*
X201744217Y-58457609D01*
X201744217Y-58457609D02*
X202053741Y-58457609D01*
X202220407Y-57957609D02*
X202529931Y-57957609D01*
X202529931Y-57957609D02*
X202363264Y-58148085D01*
X202363264Y-58148085D02*
X202434693Y-58148085D01*
X202434693Y-58148085D02*
X202482312Y-58171895D01*
X202482312Y-58171895D02*
X202506121Y-58195704D01*
X202506121Y-58195704D02*
X202529931Y-58243323D01*
X202529931Y-58243323D02*
X202529931Y-58362371D01*
X202529931Y-58362371D02*
X202506121Y-58409990D01*
X202506121Y-58409990D02*
X202482312Y-58433800D01*
X202482312Y-58433800D02*
X202434693Y-58457609D01*
X202434693Y-58457609D02*
X202291836Y-58457609D01*
X202291836Y-58457609D02*
X202244217Y-58433800D01*
X202244217Y-58433800D02*
X202220407Y-58409990D01*
X201434160Y-73713687D02*
X201434160Y-73213687D01*
X201434160Y-73213687D02*
X201553208Y-73213687D01*
X201553208Y-73213687D02*
X201624636Y-73237497D01*
X201624636Y-73237497D02*
X201672255Y-73285116D01*
X201672255Y-73285116D02*
X201696065Y-73332735D01*
X201696065Y-73332735D02*
X201719874Y-73427973D01*
X201719874Y-73427973D02*
X201719874Y-73499401D01*
X201719874Y-73499401D02*
X201696065Y-73594639D01*
X201696065Y-73594639D02*
X201672255Y-73642258D01*
X201672255Y-73642258D02*
X201624636Y-73689878D01*
X201624636Y-73689878D02*
X201553208Y-73713687D01*
X201553208Y-73713687D02*
X201434160Y-73713687D01*
X201886541Y-73213687D02*
X202196065Y-73213687D01*
X202196065Y-73213687D02*
X202029398Y-73404163D01*
X202029398Y-73404163D02*
X202100827Y-73404163D01*
X202100827Y-73404163D02*
X202148446Y-73427973D01*
X202148446Y-73427973D02*
X202172255Y-73451782D01*
X202172255Y-73451782D02*
X202196065Y-73499401D01*
X202196065Y-73499401D02*
X202196065Y-73618449D01*
X202196065Y-73618449D02*
X202172255Y-73666068D01*
X202172255Y-73666068D02*
X202148446Y-73689878D01*
X202148446Y-73689878D02*
X202100827Y-73713687D01*
X202100827Y-73713687D02*
X201957970Y-73713687D01*
X201957970Y-73713687D02*
X201910351Y-73689878D01*
X201910351Y-73689878D02*
X201886541Y-73666068D01*
X202648445Y-73213687D02*
X202410350Y-73213687D01*
X202410350Y-73213687D02*
X202386541Y-73451782D01*
X202386541Y-73451782D02*
X202410350Y-73427973D01*
X202410350Y-73427973D02*
X202457969Y-73404163D01*
X202457969Y-73404163D02*
X202577017Y-73404163D01*
X202577017Y-73404163D02*
X202624636Y-73427973D01*
X202624636Y-73427973D02*
X202648445Y-73451782D01*
X202648445Y-73451782D02*
X202672255Y-73499401D01*
X202672255Y-73499401D02*
X202672255Y-73618449D01*
X202672255Y-73618449D02*
X202648445Y-73666068D01*
X202648445Y-73666068D02*
X202624636Y-73689878D01*
X202624636Y-73689878D02*
X202577017Y-73713687D01*
X202577017Y-73713687D02*
X202457969Y-73713687D01*
X202457969Y-73713687D02*
X202410350Y-73689878D01*
X202410350Y-73689878D02*
X202386541Y-73666068D01*
X157484741Y-64553609D02*
X157199027Y-64553609D01*
X157341884Y-64553609D02*
X157341884Y-64053609D01*
X157341884Y-64053609D02*
X157294265Y-64125038D01*
X157294265Y-64125038D02*
X157246646Y-64172657D01*
X157246646Y-64172657D02*
X157199027Y-64196466D01*
X157675217Y-64101228D02*
X157699026Y-64077419D01*
X157699026Y-64077419D02*
X157746645Y-64053609D01*
X157746645Y-64053609D02*
X157865693Y-64053609D01*
X157865693Y-64053609D02*
X157913312Y-64077419D01*
X157913312Y-64077419D02*
X157937121Y-64101228D01*
X157937121Y-64101228D02*
X157960931Y-64148847D01*
X157960931Y-64148847D02*
X157960931Y-64196466D01*
X157960931Y-64196466D02*
X157937121Y-64267895D01*
X157937121Y-64267895D02*
X157651407Y-64553609D01*
X157651407Y-64553609D02*
X157960931Y-64553609D01*
X158103788Y-64053609D02*
X158270454Y-64553609D01*
X158270454Y-64553609D02*
X158437121Y-64053609D01*
X160024741Y-89953609D02*
X159739027Y-89953609D01*
X159881884Y-89953609D02*
X159881884Y-89453609D01*
X159881884Y-89453609D02*
X159834265Y-89525038D01*
X159834265Y-89525038D02*
X159786646Y-89572657D01*
X159786646Y-89572657D02*
X159739027Y-89596466D01*
X160215217Y-89501228D02*
X160239026Y-89477419D01*
X160239026Y-89477419D02*
X160286645Y-89453609D01*
X160286645Y-89453609D02*
X160405693Y-89453609D01*
X160405693Y-89453609D02*
X160453312Y-89477419D01*
X160453312Y-89477419D02*
X160477121Y-89501228D01*
X160477121Y-89501228D02*
X160500931Y-89548847D01*
X160500931Y-89548847D02*
X160500931Y-89596466D01*
X160500931Y-89596466D02*
X160477121Y-89667895D01*
X160477121Y-89667895D02*
X160191407Y-89953609D01*
X160191407Y-89953609D02*
X160500931Y-89953609D01*
X160643788Y-89453609D02*
X160810454Y-89953609D01*
X160810454Y-89953609D02*
X160977121Y-89453609D01*
X203902998Y-68617609D02*
X203902998Y-68117609D01*
X203902998Y-68117609D02*
X204022046Y-68117609D01*
X204022046Y-68117609D02*
X204093474Y-68141419D01*
X204093474Y-68141419D02*
X204141093Y-68189038D01*
X204141093Y-68189038D02*
X204164903Y-68236657D01*
X204164903Y-68236657D02*
X204188712Y-68331895D01*
X204188712Y-68331895D02*
X204188712Y-68403323D01*
X204188712Y-68403323D02*
X204164903Y-68498561D01*
X204164903Y-68498561D02*
X204141093Y-68546180D01*
X204141093Y-68546180D02*
X204093474Y-68593800D01*
X204093474Y-68593800D02*
X204022046Y-68617609D01*
X204022046Y-68617609D02*
X203902998Y-68617609D01*
X204355379Y-68117609D02*
X204664903Y-68117609D01*
X204664903Y-68117609D02*
X204498236Y-68308085D01*
X204498236Y-68308085D02*
X204569665Y-68308085D01*
X204569665Y-68308085D02*
X204617284Y-68331895D01*
X204617284Y-68331895D02*
X204641093Y-68355704D01*
X204641093Y-68355704D02*
X204664903Y-68403323D01*
X204664903Y-68403323D02*
X204664903Y-68522371D01*
X204664903Y-68522371D02*
X204641093Y-68569990D01*
X204641093Y-68569990D02*
X204617284Y-68593800D01*
X204617284Y-68593800D02*
X204569665Y-68617609D01*
X204569665Y-68617609D02*
X204426808Y-68617609D01*
X204426808Y-68617609D02*
X204379189Y-68593800D01*
X204379189Y-68593800D02*
X204355379Y-68569990D01*
X204974426Y-68117609D02*
X205022045Y-68117609D01*
X205022045Y-68117609D02*
X205069664Y-68141419D01*
X205069664Y-68141419D02*
X205093474Y-68165228D01*
X205093474Y-68165228D02*
X205117283Y-68212847D01*
X205117283Y-68212847D02*
X205141093Y-68308085D01*
X205141093Y-68308085D02*
X205141093Y-68427133D01*
X205141093Y-68427133D02*
X205117283Y-68522371D01*
X205117283Y-68522371D02*
X205093474Y-68569990D01*
X205093474Y-68569990D02*
X205069664Y-68593800D01*
X205069664Y-68593800D02*
X205022045Y-68617609D01*
X205022045Y-68617609D02*
X204974426Y-68617609D01*
X204974426Y-68617609D02*
X204926807Y-68593800D01*
X204926807Y-68593800D02*
X204902998Y-68569990D01*
X204902998Y-68569990D02*
X204879188Y-68522371D01*
X204879188Y-68522371D02*
X204855379Y-68427133D01*
X204855379Y-68427133D02*
X204855379Y-68308085D01*
X204855379Y-68308085D02*
X204879188Y-68212847D01*
X204879188Y-68212847D02*
X204902998Y-68165228D01*
X204902998Y-68165228D02*
X204926807Y-68141419D01*
X204926807Y-68141419D02*
X204974426Y-68117609D01*
X201434160Y-86413687D02*
X201434160Y-85913687D01*
X201434160Y-85913687D02*
X201553208Y-85913687D01*
X201553208Y-85913687D02*
X201624636Y-85937497D01*
X201624636Y-85937497D02*
X201672255Y-85985116D01*
X201672255Y-85985116D02*
X201696065Y-86032735D01*
X201696065Y-86032735D02*
X201719874Y-86127973D01*
X201719874Y-86127973D02*
X201719874Y-86199401D01*
X201719874Y-86199401D02*
X201696065Y-86294639D01*
X201696065Y-86294639D02*
X201672255Y-86342258D01*
X201672255Y-86342258D02*
X201624636Y-86389878D01*
X201624636Y-86389878D02*
X201553208Y-86413687D01*
X201553208Y-86413687D02*
X201434160Y-86413687D01*
X202148446Y-86080354D02*
X202148446Y-86413687D01*
X202029398Y-85889878D02*
X201910351Y-86247020D01*
X201910351Y-86247020D02*
X202219874Y-86247020D01*
X202648445Y-85913687D02*
X202410350Y-85913687D01*
X202410350Y-85913687D02*
X202386541Y-86151782D01*
X202386541Y-86151782D02*
X202410350Y-86127973D01*
X202410350Y-86127973D02*
X202457969Y-86104163D01*
X202457969Y-86104163D02*
X202577017Y-86104163D01*
X202577017Y-86104163D02*
X202624636Y-86127973D01*
X202624636Y-86127973D02*
X202648445Y-86151782D01*
X202648445Y-86151782D02*
X202672255Y-86199401D01*
X202672255Y-86199401D02*
X202672255Y-86318449D01*
X202672255Y-86318449D02*
X202648445Y-86366068D01*
X202648445Y-86366068D02*
X202624636Y-86389878D01*
X202624636Y-86389878D02*
X202577017Y-86413687D01*
X202577017Y-86413687D02*
X202457969Y-86413687D01*
X202457969Y-86413687D02*
X202410350Y-86389878D01*
X202410350Y-86389878D02*
X202386541Y-86366068D01*
X172462836Y-58203609D02*
X172462836Y-57703609D01*
X172462836Y-57703609D02*
X172581884Y-57703609D01*
X172581884Y-57703609D02*
X172653312Y-57727419D01*
X172653312Y-57727419D02*
X172700931Y-57775038D01*
X172700931Y-57775038D02*
X172724741Y-57822657D01*
X172724741Y-57822657D02*
X172748550Y-57917895D01*
X172748550Y-57917895D02*
X172748550Y-57989323D01*
X172748550Y-57989323D02*
X172724741Y-58084561D01*
X172724741Y-58084561D02*
X172700931Y-58132180D01*
X172700931Y-58132180D02*
X172653312Y-58179800D01*
X172653312Y-58179800D02*
X172581884Y-58203609D01*
X172581884Y-58203609D02*
X172462836Y-58203609D01*
X173224741Y-58203609D02*
X172939027Y-58203609D01*
X173081884Y-58203609D02*
X173081884Y-57703609D01*
X173081884Y-57703609D02*
X173034265Y-57775038D01*
X173034265Y-57775038D02*
X172986646Y-57822657D01*
X172986646Y-57822657D02*
X172939027Y-57846466D01*
X160000931Y-91993609D02*
X159762836Y-91993609D01*
X159762836Y-91993609D02*
X159739027Y-92231704D01*
X159739027Y-92231704D02*
X159762836Y-92207895D01*
X159762836Y-92207895D02*
X159810455Y-92184085D01*
X159810455Y-92184085D02*
X159929503Y-92184085D01*
X159929503Y-92184085D02*
X159977122Y-92207895D01*
X159977122Y-92207895D02*
X160000931Y-92231704D01*
X160000931Y-92231704D02*
X160024741Y-92279323D01*
X160024741Y-92279323D02*
X160024741Y-92398371D01*
X160024741Y-92398371D02*
X160000931Y-92445990D01*
X160000931Y-92445990D02*
X159977122Y-92469800D01*
X159977122Y-92469800D02*
X159929503Y-92493609D01*
X159929503Y-92493609D02*
X159810455Y-92493609D01*
X159810455Y-92493609D02*
X159762836Y-92469800D01*
X159762836Y-92469800D02*
X159739027Y-92445990D01*
X160167598Y-91993609D02*
X160334264Y-92493609D01*
X160334264Y-92493609D02*
X160500931Y-91993609D01*
X197862836Y-58203609D02*
X197862836Y-57703609D01*
X197862836Y-57703609D02*
X197981884Y-57703609D01*
X197981884Y-57703609D02*
X198053312Y-57727419D01*
X198053312Y-57727419D02*
X198100931Y-57775038D01*
X198100931Y-57775038D02*
X198124741Y-57822657D01*
X198124741Y-57822657D02*
X198148550Y-57917895D01*
X198148550Y-57917895D02*
X198148550Y-57989323D01*
X198148550Y-57989323D02*
X198124741Y-58084561D01*
X198124741Y-58084561D02*
X198100931Y-58132180D01*
X198100931Y-58132180D02*
X198053312Y-58179800D01*
X198053312Y-58179800D02*
X197981884Y-58203609D01*
X197981884Y-58203609D02*
X197862836Y-58203609D01*
X198339027Y-57751228D02*
X198362836Y-57727419D01*
X198362836Y-57727419D02*
X198410455Y-57703609D01*
X198410455Y-57703609D02*
X198529503Y-57703609D01*
X198529503Y-57703609D02*
X198577122Y-57727419D01*
X198577122Y-57727419D02*
X198600931Y-57751228D01*
X198600931Y-57751228D02*
X198624741Y-57798847D01*
X198624741Y-57798847D02*
X198624741Y-57846466D01*
X198624741Y-57846466D02*
X198600931Y-57917895D01*
X198600931Y-57917895D02*
X198315217Y-58203609D01*
X198315217Y-58203609D02*
X198624741Y-58203609D01*
X199100931Y-58203609D02*
X198815217Y-58203609D01*
X198958074Y-58203609D02*
X198958074Y-57703609D01*
X198958074Y-57703609D02*
X198910455Y-57775038D01*
X198910455Y-57775038D02*
X198862836Y-57822657D01*
X198862836Y-57822657D02*
X198815217Y-57846466D01*
X204085836Y-66077609D02*
X204085836Y-65577609D01*
X204085836Y-65577609D02*
X204204884Y-65577609D01*
X204204884Y-65577609D02*
X204276312Y-65601419D01*
X204276312Y-65601419D02*
X204323931Y-65649038D01*
X204323931Y-65649038D02*
X204347741Y-65696657D01*
X204347741Y-65696657D02*
X204371550Y-65791895D01*
X204371550Y-65791895D02*
X204371550Y-65863323D01*
X204371550Y-65863323D02*
X204347741Y-65958561D01*
X204347741Y-65958561D02*
X204323931Y-66006180D01*
X204323931Y-66006180D02*
X204276312Y-66053800D01*
X204276312Y-66053800D02*
X204204884Y-66077609D01*
X204204884Y-66077609D02*
X204085836Y-66077609D01*
X204562027Y-65625228D02*
X204585836Y-65601419D01*
X204585836Y-65601419D02*
X204633455Y-65577609D01*
X204633455Y-65577609D02*
X204752503Y-65577609D01*
X204752503Y-65577609D02*
X204800122Y-65601419D01*
X204800122Y-65601419D02*
X204823931Y-65625228D01*
X204823931Y-65625228D02*
X204847741Y-65672847D01*
X204847741Y-65672847D02*
X204847741Y-65720466D01*
X204847741Y-65720466D02*
X204823931Y-65791895D01*
X204823931Y-65791895D02*
X204538217Y-66077609D01*
X204538217Y-66077609D02*
X204847741Y-66077609D01*
X205133455Y-65791895D02*
X205085836Y-65768085D01*
X205085836Y-65768085D02*
X205062026Y-65744276D01*
X205062026Y-65744276D02*
X205038217Y-65696657D01*
X205038217Y-65696657D02*
X205038217Y-65672847D01*
X205038217Y-65672847D02*
X205062026Y-65625228D01*
X205062026Y-65625228D02*
X205085836Y-65601419D01*
X205085836Y-65601419D02*
X205133455Y-65577609D01*
X205133455Y-65577609D02*
X205228693Y-65577609D01*
X205228693Y-65577609D02*
X205276312Y-65601419D01*
X205276312Y-65601419D02*
X205300121Y-65625228D01*
X205300121Y-65625228D02*
X205323931Y-65672847D01*
X205323931Y-65672847D02*
X205323931Y-65696657D01*
X205323931Y-65696657D02*
X205300121Y-65744276D01*
X205300121Y-65744276D02*
X205276312Y-65768085D01*
X205276312Y-65768085D02*
X205228693Y-65791895D01*
X205228693Y-65791895D02*
X205133455Y-65791895D01*
X205133455Y-65791895D02*
X205085836Y-65815704D01*
X205085836Y-65815704D02*
X205062026Y-65839514D01*
X205062026Y-65839514D02*
X205038217Y-65887133D01*
X205038217Y-65887133D02*
X205038217Y-65982371D01*
X205038217Y-65982371D02*
X205062026Y-66029990D01*
X205062026Y-66029990D02*
X205085836Y-66053800D01*
X205085836Y-66053800D02*
X205133455Y-66077609D01*
X205133455Y-66077609D02*
X205228693Y-66077609D01*
X205228693Y-66077609D02*
X205276312Y-66053800D01*
X205276312Y-66053800D02*
X205300121Y-66029990D01*
X205300121Y-66029990D02*
X205323931Y-65982371D01*
X205323931Y-65982371D02*
X205323931Y-65887133D01*
X205323931Y-65887133D02*
X205300121Y-65839514D01*
X205300121Y-65839514D02*
X205276312Y-65815704D01*
X205276312Y-65815704D02*
X205228693Y-65791895D01*
X185162836Y-58203609D02*
X185162836Y-57703609D01*
X185162836Y-57703609D02*
X185281884Y-57703609D01*
X185281884Y-57703609D02*
X185353312Y-57727419D01*
X185353312Y-57727419D02*
X185400931Y-57775038D01*
X185400931Y-57775038D02*
X185424741Y-57822657D01*
X185424741Y-57822657D02*
X185448550Y-57917895D01*
X185448550Y-57917895D02*
X185448550Y-57989323D01*
X185448550Y-57989323D02*
X185424741Y-58084561D01*
X185424741Y-58084561D02*
X185400931Y-58132180D01*
X185400931Y-58132180D02*
X185353312Y-58179800D01*
X185353312Y-58179800D02*
X185281884Y-58203609D01*
X185281884Y-58203609D02*
X185162836Y-58203609D01*
X185924741Y-58203609D02*
X185639027Y-58203609D01*
X185781884Y-58203609D02*
X185781884Y-57703609D01*
X185781884Y-57703609D02*
X185734265Y-57775038D01*
X185734265Y-57775038D02*
X185686646Y-57822657D01*
X185686646Y-57822657D02*
X185639027Y-57846466D01*
X186353312Y-57703609D02*
X186258074Y-57703609D01*
X186258074Y-57703609D02*
X186210455Y-57727419D01*
X186210455Y-57727419D02*
X186186645Y-57751228D01*
X186186645Y-57751228D02*
X186139026Y-57822657D01*
X186139026Y-57822657D02*
X186115217Y-57917895D01*
X186115217Y-57917895D02*
X186115217Y-58108371D01*
X186115217Y-58108371D02*
X186139026Y-58155990D01*
X186139026Y-58155990D02*
X186162836Y-58179800D01*
X186162836Y-58179800D02*
X186210455Y-58203609D01*
X186210455Y-58203609D02*
X186305693Y-58203609D01*
X186305693Y-58203609D02*
X186353312Y-58179800D01*
X186353312Y-58179800D02*
X186377121Y-58155990D01*
X186377121Y-58155990D02*
X186400931Y-58108371D01*
X186400931Y-58108371D02*
X186400931Y-57989323D01*
X186400931Y-57989323D02*
X186377121Y-57941704D01*
X186377121Y-57941704D02*
X186353312Y-57917895D01*
X186353312Y-57917895D02*
X186305693Y-57894085D01*
X186305693Y-57894085D02*
X186210455Y-57894085D01*
X186210455Y-57894085D02*
X186162836Y-57917895D01*
X186162836Y-57917895D02*
X186139026Y-57941704D01*
X186139026Y-57941704D02*
X186115217Y-57989323D01*
X201362998Y-68617609D02*
X201362998Y-68117609D01*
X201362998Y-68117609D02*
X201482046Y-68117609D01*
X201482046Y-68117609D02*
X201553474Y-68141419D01*
X201553474Y-68141419D02*
X201601093Y-68189038D01*
X201601093Y-68189038D02*
X201624903Y-68236657D01*
X201624903Y-68236657D02*
X201648712Y-68331895D01*
X201648712Y-68331895D02*
X201648712Y-68403323D01*
X201648712Y-68403323D02*
X201624903Y-68498561D01*
X201624903Y-68498561D02*
X201601093Y-68546180D01*
X201601093Y-68546180D02*
X201553474Y-68593800D01*
X201553474Y-68593800D02*
X201482046Y-68617609D01*
X201482046Y-68617609D02*
X201362998Y-68617609D01*
X201815379Y-68117609D02*
X202124903Y-68117609D01*
X202124903Y-68117609D02*
X201958236Y-68308085D01*
X201958236Y-68308085D02*
X202029665Y-68308085D01*
X202029665Y-68308085D02*
X202077284Y-68331895D01*
X202077284Y-68331895D02*
X202101093Y-68355704D01*
X202101093Y-68355704D02*
X202124903Y-68403323D01*
X202124903Y-68403323D02*
X202124903Y-68522371D01*
X202124903Y-68522371D02*
X202101093Y-68569990D01*
X202101093Y-68569990D02*
X202077284Y-68593800D01*
X202077284Y-68593800D02*
X202029665Y-68617609D01*
X202029665Y-68617609D02*
X201886808Y-68617609D01*
X201886808Y-68617609D02*
X201839189Y-68593800D01*
X201839189Y-68593800D02*
X201815379Y-68569990D01*
X202601093Y-68617609D02*
X202315379Y-68617609D01*
X202458236Y-68617609D02*
X202458236Y-68117609D01*
X202458236Y-68117609D02*
X202410617Y-68189038D01*
X202410617Y-68189038D02*
X202362998Y-68236657D01*
X202362998Y-68236657D02*
X202315379Y-68260466D01*
X204156998Y-94017609D02*
X204156998Y-93517609D01*
X204156998Y-93517609D02*
X204276046Y-93517609D01*
X204276046Y-93517609D02*
X204347474Y-93541419D01*
X204347474Y-93541419D02*
X204395093Y-93589038D01*
X204395093Y-93589038D02*
X204418903Y-93636657D01*
X204418903Y-93636657D02*
X204442712Y-93731895D01*
X204442712Y-93731895D02*
X204442712Y-93803323D01*
X204442712Y-93803323D02*
X204418903Y-93898561D01*
X204418903Y-93898561D02*
X204395093Y-93946180D01*
X204395093Y-93946180D02*
X204347474Y-93993800D01*
X204347474Y-93993800D02*
X204276046Y-94017609D01*
X204276046Y-94017609D02*
X204156998Y-94017609D01*
X204895093Y-93517609D02*
X204656998Y-93517609D01*
X204656998Y-93517609D02*
X204633189Y-93755704D01*
X204633189Y-93755704D02*
X204656998Y-93731895D01*
X204656998Y-93731895D02*
X204704617Y-93708085D01*
X204704617Y-93708085D02*
X204823665Y-93708085D01*
X204823665Y-93708085D02*
X204871284Y-93731895D01*
X204871284Y-93731895D02*
X204895093Y-93755704D01*
X204895093Y-93755704D02*
X204918903Y-93803323D01*
X204918903Y-93803323D02*
X204918903Y-93922371D01*
X204918903Y-93922371D02*
X204895093Y-93969990D01*
X204895093Y-93969990D02*
X204871284Y-93993800D01*
X204871284Y-93993800D02*
X204823665Y-94017609D01*
X204823665Y-94017609D02*
X204704617Y-94017609D01*
X204704617Y-94017609D02*
X204656998Y-93993800D01*
X204656998Y-93993800D02*
X204633189Y-93969990D01*
X205228426Y-93517609D02*
X205276045Y-93517609D01*
X205276045Y-93517609D02*
X205323664Y-93541419D01*
X205323664Y-93541419D02*
X205347474Y-93565228D01*
X205347474Y-93565228D02*
X205371283Y-93612847D01*
X205371283Y-93612847D02*
X205395093Y-93708085D01*
X205395093Y-93708085D02*
X205395093Y-93827133D01*
X205395093Y-93827133D02*
X205371283Y-93922371D01*
X205371283Y-93922371D02*
X205347474Y-93969990D01*
X205347474Y-93969990D02*
X205323664Y-93993800D01*
X205323664Y-93993800D02*
X205276045Y-94017609D01*
X205276045Y-94017609D02*
X205228426Y-94017609D01*
X205228426Y-94017609D02*
X205180807Y-93993800D01*
X205180807Y-93993800D02*
X205156998Y-93969990D01*
X205156998Y-93969990D02*
X205133188Y-93922371D01*
X205133188Y-93922371D02*
X205109379Y-93827133D01*
X205109379Y-93827133D02*
X205109379Y-93708085D01*
X205109379Y-93708085D02*
X205133188Y-93612847D01*
X205133188Y-93612847D02*
X205156998Y-93565228D01*
X205156998Y-93565228D02*
X205180807Y-93541419D01*
X205180807Y-93541419D02*
X205228426Y-93517609D01*
X187702836Y-58203609D02*
X187702836Y-57703609D01*
X187702836Y-57703609D02*
X187821884Y-57703609D01*
X187821884Y-57703609D02*
X187893312Y-57727419D01*
X187893312Y-57727419D02*
X187940931Y-57775038D01*
X187940931Y-57775038D02*
X187964741Y-57822657D01*
X187964741Y-57822657D02*
X187988550Y-57917895D01*
X187988550Y-57917895D02*
X187988550Y-57989323D01*
X187988550Y-57989323D02*
X187964741Y-58084561D01*
X187964741Y-58084561D02*
X187940931Y-58132180D01*
X187940931Y-58132180D02*
X187893312Y-58179800D01*
X187893312Y-58179800D02*
X187821884Y-58203609D01*
X187821884Y-58203609D02*
X187702836Y-58203609D01*
X188464741Y-58203609D02*
X188179027Y-58203609D01*
X188321884Y-58203609D02*
X188321884Y-57703609D01*
X188321884Y-57703609D02*
X188274265Y-57775038D01*
X188274265Y-57775038D02*
X188226646Y-57822657D01*
X188226646Y-57822657D02*
X188179027Y-57846466D01*
X188631407Y-57703609D02*
X188964740Y-57703609D01*
X188964740Y-57703609D02*
X188750455Y-58203609D01*
X157460931Y-66593609D02*
X157222836Y-66593609D01*
X157222836Y-66593609D02*
X157199027Y-66831704D01*
X157199027Y-66831704D02*
X157222836Y-66807895D01*
X157222836Y-66807895D02*
X157270455Y-66784085D01*
X157270455Y-66784085D02*
X157389503Y-66784085D01*
X157389503Y-66784085D02*
X157437122Y-66807895D01*
X157437122Y-66807895D02*
X157460931Y-66831704D01*
X157460931Y-66831704D02*
X157484741Y-66879323D01*
X157484741Y-66879323D02*
X157484741Y-66998371D01*
X157484741Y-66998371D02*
X157460931Y-67045990D01*
X157460931Y-67045990D02*
X157437122Y-67069800D01*
X157437122Y-67069800D02*
X157389503Y-67093609D01*
X157389503Y-67093609D02*
X157270455Y-67093609D01*
X157270455Y-67093609D02*
X157222836Y-67069800D01*
X157222836Y-67069800D02*
X157199027Y-67045990D01*
X157627598Y-66593609D02*
X157794264Y-67093609D01*
X157794264Y-67093609D02*
X157960931Y-66593609D01*
X201362998Y-63553687D02*
X201362998Y-63053687D01*
X201362998Y-63053687D02*
X201482046Y-63053687D01*
X201482046Y-63053687D02*
X201553474Y-63077497D01*
X201553474Y-63077497D02*
X201601093Y-63125116D01*
X201601093Y-63125116D02*
X201624903Y-63172735D01*
X201624903Y-63172735D02*
X201648712Y-63267973D01*
X201648712Y-63267973D02*
X201648712Y-63339401D01*
X201648712Y-63339401D02*
X201624903Y-63434639D01*
X201624903Y-63434639D02*
X201601093Y-63482258D01*
X201601093Y-63482258D02*
X201553474Y-63529878D01*
X201553474Y-63529878D02*
X201482046Y-63553687D01*
X201482046Y-63553687D02*
X201362998Y-63553687D01*
X201839189Y-63101306D02*
X201862998Y-63077497D01*
X201862998Y-63077497D02*
X201910617Y-63053687D01*
X201910617Y-63053687D02*
X202029665Y-63053687D01*
X202029665Y-63053687D02*
X202077284Y-63077497D01*
X202077284Y-63077497D02*
X202101093Y-63101306D01*
X202101093Y-63101306D02*
X202124903Y-63148925D01*
X202124903Y-63148925D02*
X202124903Y-63196544D01*
X202124903Y-63196544D02*
X202101093Y-63267973D01*
X202101093Y-63267973D02*
X201815379Y-63553687D01*
X201815379Y-63553687D02*
X202124903Y-63553687D01*
X202291569Y-63053687D02*
X202624902Y-63053687D01*
X202624902Y-63053687D02*
X202410617Y-63553687D01*
X201362998Y-78777609D02*
X201362998Y-78277609D01*
X201362998Y-78277609D02*
X201482046Y-78277609D01*
X201482046Y-78277609D02*
X201553474Y-78301419D01*
X201553474Y-78301419D02*
X201601093Y-78349038D01*
X201601093Y-78349038D02*
X201624903Y-78396657D01*
X201624903Y-78396657D02*
X201648712Y-78491895D01*
X201648712Y-78491895D02*
X201648712Y-78563323D01*
X201648712Y-78563323D02*
X201624903Y-78658561D01*
X201624903Y-78658561D02*
X201601093Y-78706180D01*
X201601093Y-78706180D02*
X201553474Y-78753800D01*
X201553474Y-78753800D02*
X201482046Y-78777609D01*
X201482046Y-78777609D02*
X201362998Y-78777609D01*
X201815379Y-78277609D02*
X202124903Y-78277609D01*
X202124903Y-78277609D02*
X201958236Y-78468085D01*
X201958236Y-78468085D02*
X202029665Y-78468085D01*
X202029665Y-78468085D02*
X202077284Y-78491895D01*
X202077284Y-78491895D02*
X202101093Y-78515704D01*
X202101093Y-78515704D02*
X202124903Y-78563323D01*
X202124903Y-78563323D02*
X202124903Y-78682371D01*
X202124903Y-78682371D02*
X202101093Y-78729990D01*
X202101093Y-78729990D02*
X202077284Y-78753800D01*
X202077284Y-78753800D02*
X202029665Y-78777609D01*
X202029665Y-78777609D02*
X201886808Y-78777609D01*
X201886808Y-78777609D02*
X201839189Y-78753800D01*
X201839189Y-78753800D02*
X201815379Y-78729990D01*
X202362998Y-78777609D02*
X202458236Y-78777609D01*
X202458236Y-78777609D02*
X202505855Y-78753800D01*
X202505855Y-78753800D02*
X202529664Y-78729990D01*
X202529664Y-78729990D02*
X202577283Y-78658561D01*
X202577283Y-78658561D02*
X202601093Y-78563323D01*
X202601093Y-78563323D02*
X202601093Y-78372847D01*
X202601093Y-78372847D02*
X202577283Y-78325228D01*
X202577283Y-78325228D02*
X202553474Y-78301419D01*
X202553474Y-78301419D02*
X202505855Y-78277609D01*
X202505855Y-78277609D02*
X202410617Y-78277609D01*
X202410617Y-78277609D02*
X202362998Y-78301419D01*
X202362998Y-78301419D02*
X202339188Y-78325228D01*
X202339188Y-78325228D02*
X202315379Y-78372847D01*
X202315379Y-78372847D02*
X202315379Y-78491895D01*
X202315379Y-78491895D02*
X202339188Y-78539514D01*
X202339188Y-78539514D02*
X202362998Y-78563323D01*
X202362998Y-78563323D02*
X202410617Y-78587133D01*
X202410617Y-78587133D02*
X202505855Y-78587133D01*
X202505855Y-78587133D02*
X202553474Y-78563323D01*
X202553474Y-78563323D02*
X202577283Y-78539514D01*
X202577283Y-78539514D02*
X202601093Y-78491895D01*
X190242836Y-58203609D02*
X190242836Y-57703609D01*
X190242836Y-57703609D02*
X190361884Y-57703609D01*
X190361884Y-57703609D02*
X190433312Y-57727419D01*
X190433312Y-57727419D02*
X190480931Y-57775038D01*
X190480931Y-57775038D02*
X190504741Y-57822657D01*
X190504741Y-57822657D02*
X190528550Y-57917895D01*
X190528550Y-57917895D02*
X190528550Y-57989323D01*
X190528550Y-57989323D02*
X190504741Y-58084561D01*
X190504741Y-58084561D02*
X190480931Y-58132180D01*
X190480931Y-58132180D02*
X190433312Y-58179800D01*
X190433312Y-58179800D02*
X190361884Y-58203609D01*
X190361884Y-58203609D02*
X190242836Y-58203609D01*
X191004741Y-58203609D02*
X190719027Y-58203609D01*
X190861884Y-58203609D02*
X190861884Y-57703609D01*
X190861884Y-57703609D02*
X190814265Y-57775038D01*
X190814265Y-57775038D02*
X190766646Y-57822657D01*
X190766646Y-57822657D02*
X190719027Y-57846466D01*
X191290455Y-57917895D02*
X191242836Y-57894085D01*
X191242836Y-57894085D02*
X191219026Y-57870276D01*
X191219026Y-57870276D02*
X191195217Y-57822657D01*
X191195217Y-57822657D02*
X191195217Y-57798847D01*
X191195217Y-57798847D02*
X191219026Y-57751228D01*
X191219026Y-57751228D02*
X191242836Y-57727419D01*
X191242836Y-57727419D02*
X191290455Y-57703609D01*
X191290455Y-57703609D02*
X191385693Y-57703609D01*
X191385693Y-57703609D02*
X191433312Y-57727419D01*
X191433312Y-57727419D02*
X191457121Y-57751228D01*
X191457121Y-57751228D02*
X191480931Y-57798847D01*
X191480931Y-57798847D02*
X191480931Y-57822657D01*
X191480931Y-57822657D02*
X191457121Y-57870276D01*
X191457121Y-57870276D02*
X191433312Y-57894085D01*
X191433312Y-57894085D02*
X191385693Y-57917895D01*
X191385693Y-57917895D02*
X191290455Y-57917895D01*
X191290455Y-57917895D02*
X191242836Y-57941704D01*
X191242836Y-57941704D02*
X191219026Y-57965514D01*
X191219026Y-57965514D02*
X191195217Y-58013133D01*
X191195217Y-58013133D02*
X191195217Y-58108371D01*
X191195217Y-58108371D02*
X191219026Y-58155990D01*
X191219026Y-58155990D02*
X191242836Y-58179800D01*
X191242836Y-58179800D02*
X191290455Y-58203609D01*
X191290455Y-58203609D02*
X191385693Y-58203609D01*
X191385693Y-58203609D02*
X191433312Y-58179800D01*
X191433312Y-58179800D02*
X191457121Y-58155990D01*
X191457121Y-58155990D02*
X191480931Y-58108371D01*
X191480931Y-58108371D02*
X191480931Y-58013133D01*
X191480931Y-58013133D02*
X191457121Y-57965514D01*
X191457121Y-57965514D02*
X191433312Y-57941704D01*
X191433312Y-57941704D02*
X191385693Y-57917895D01*
X159715217Y-94533609D02*
X160024741Y-94533609D01*
X160024741Y-94533609D02*
X159858074Y-94724085D01*
X159858074Y-94724085D02*
X159929503Y-94724085D01*
X159929503Y-94724085D02*
X159977122Y-94747895D01*
X159977122Y-94747895D02*
X160000931Y-94771704D01*
X160000931Y-94771704D02*
X160024741Y-94819323D01*
X160024741Y-94819323D02*
X160024741Y-94938371D01*
X160024741Y-94938371D02*
X160000931Y-94985990D01*
X160000931Y-94985990D02*
X159977122Y-95009800D01*
X159977122Y-95009800D02*
X159929503Y-95033609D01*
X159929503Y-95033609D02*
X159786646Y-95033609D01*
X159786646Y-95033609D02*
X159739027Y-95009800D01*
X159739027Y-95009800D02*
X159715217Y-94985990D01*
X160262836Y-95009800D02*
X160262836Y-95033609D01*
X160262836Y-95033609D02*
X160239026Y-95081228D01*
X160239026Y-95081228D02*
X160215217Y-95105038D01*
X160429502Y-94533609D02*
X160739026Y-94533609D01*
X160739026Y-94533609D02*
X160572359Y-94724085D01*
X160572359Y-94724085D02*
X160643788Y-94724085D01*
X160643788Y-94724085D02*
X160691407Y-94747895D01*
X160691407Y-94747895D02*
X160715216Y-94771704D01*
X160715216Y-94771704D02*
X160739026Y-94819323D01*
X160739026Y-94819323D02*
X160739026Y-94938371D01*
X160739026Y-94938371D02*
X160715216Y-94985990D01*
X160715216Y-94985990D02*
X160691407Y-95009800D01*
X160691407Y-95009800D02*
X160643788Y-95033609D01*
X160643788Y-95033609D02*
X160500931Y-95033609D01*
X160500931Y-95033609D02*
X160453312Y-95009800D01*
X160453312Y-95009800D02*
X160429502Y-94985990D01*
X160881883Y-94533609D02*
X161048549Y-95033609D01*
X161048549Y-95033609D02*
X161215216Y-94533609D01*
X190346027Y-101494752D02*
X190584122Y-101494752D01*
X190298408Y-101637609D02*
X190465074Y-101137609D01*
X190465074Y-101137609D02*
X190631741Y-101637609D01*
X191060312Y-101637609D02*
X190774598Y-101637609D01*
X190917455Y-101637609D02*
X190917455Y-101137609D01*
X190917455Y-101137609D02*
X190869836Y-101209038D01*
X190869836Y-101209038D02*
X190822217Y-101256657D01*
X190822217Y-101256657D02*
X190774598Y-101280466D01*
X191369835Y-101137609D02*
X191417454Y-101137609D01*
X191417454Y-101137609D02*
X191465073Y-101161419D01*
X191465073Y-101161419D02*
X191488883Y-101185228D01*
X191488883Y-101185228D02*
X191512692Y-101232847D01*
X191512692Y-101232847D02*
X191536502Y-101328085D01*
X191536502Y-101328085D02*
X191536502Y-101447133D01*
X191536502Y-101447133D02*
X191512692Y-101542371D01*
X191512692Y-101542371D02*
X191488883Y-101589990D01*
X191488883Y-101589990D02*
X191465073Y-101613800D01*
X191465073Y-101613800D02*
X191417454Y-101637609D01*
X191417454Y-101637609D02*
X191369835Y-101637609D01*
X191369835Y-101637609D02*
X191322216Y-101613800D01*
X191322216Y-101613800D02*
X191298407Y-101589990D01*
X191298407Y-101589990D02*
X191274597Y-101542371D01*
X191274597Y-101542371D02*
X191250788Y-101447133D01*
X191250788Y-101447133D02*
X191250788Y-101328085D01*
X191250788Y-101328085D02*
X191274597Y-101232847D01*
X191274597Y-101232847D02*
X191298407Y-101185228D01*
X191298407Y-101185228D02*
X191322216Y-101161419D01*
X191322216Y-101161419D02*
X191369835Y-101137609D01*
X197966027Y-101494752D02*
X198204122Y-101494752D01*
X197918408Y-101637609D02*
X198085074Y-101137609D01*
X198085074Y-101137609D02*
X198251741Y-101637609D01*
X198680312Y-101637609D02*
X198394598Y-101637609D01*
X198537455Y-101637609D02*
X198537455Y-101137609D01*
X198537455Y-101137609D02*
X198489836Y-101209038D01*
X198489836Y-101209038D02*
X198442217Y-101256657D01*
X198442217Y-101256657D02*
X198394598Y-101280466D01*
X198846978Y-101137609D02*
X199156502Y-101137609D01*
X199156502Y-101137609D02*
X198989835Y-101328085D01*
X198989835Y-101328085D02*
X199061264Y-101328085D01*
X199061264Y-101328085D02*
X199108883Y-101351895D01*
X199108883Y-101351895D02*
X199132692Y-101375704D01*
X199132692Y-101375704D02*
X199156502Y-101423323D01*
X199156502Y-101423323D02*
X199156502Y-101542371D01*
X199156502Y-101542371D02*
X199132692Y-101589990D01*
X199132692Y-101589990D02*
X199108883Y-101613800D01*
X199108883Y-101613800D02*
X199061264Y-101637609D01*
X199061264Y-101637609D02*
X198918407Y-101637609D01*
X198918407Y-101637609D02*
X198870788Y-101613800D01*
X198870788Y-101613800D02*
X198846978Y-101589990D01*
X159715217Y-81833609D02*
X160024741Y-81833609D01*
X160024741Y-81833609D02*
X159858074Y-82024085D01*
X159858074Y-82024085D02*
X159929503Y-82024085D01*
X159929503Y-82024085D02*
X159977122Y-82047895D01*
X159977122Y-82047895D02*
X160000931Y-82071704D01*
X160000931Y-82071704D02*
X160024741Y-82119323D01*
X160024741Y-82119323D02*
X160024741Y-82238371D01*
X160024741Y-82238371D02*
X160000931Y-82285990D01*
X160000931Y-82285990D02*
X159977122Y-82309800D01*
X159977122Y-82309800D02*
X159929503Y-82333609D01*
X159929503Y-82333609D02*
X159786646Y-82333609D01*
X159786646Y-82333609D02*
X159739027Y-82309800D01*
X159739027Y-82309800D02*
X159715217Y-82285990D01*
X160262836Y-82309800D02*
X160262836Y-82333609D01*
X160262836Y-82333609D02*
X160239026Y-82381228D01*
X160239026Y-82381228D02*
X160215217Y-82405038D01*
X160429502Y-81833609D02*
X160739026Y-81833609D01*
X160739026Y-81833609D02*
X160572359Y-82024085D01*
X160572359Y-82024085D02*
X160643788Y-82024085D01*
X160643788Y-82024085D02*
X160691407Y-82047895D01*
X160691407Y-82047895D02*
X160715216Y-82071704D01*
X160715216Y-82071704D02*
X160739026Y-82119323D01*
X160739026Y-82119323D02*
X160739026Y-82238371D01*
X160739026Y-82238371D02*
X160715216Y-82285990D01*
X160715216Y-82285990D02*
X160691407Y-82309800D01*
X160691407Y-82309800D02*
X160643788Y-82333609D01*
X160643788Y-82333609D02*
X160500931Y-82333609D01*
X160500931Y-82333609D02*
X160453312Y-82309800D01*
X160453312Y-82309800D02*
X160429502Y-82285990D01*
X160881883Y-81833609D02*
X161048549Y-82333609D01*
X161048549Y-82333609D02*
X161215216Y-81833609D01*
X157484741Y-71697419D02*
X157437122Y-71673609D01*
X157437122Y-71673609D02*
X157365693Y-71673609D01*
X157365693Y-71673609D02*
X157294265Y-71697419D01*
X157294265Y-71697419D02*
X157246646Y-71745038D01*
X157246646Y-71745038D02*
X157222836Y-71792657D01*
X157222836Y-71792657D02*
X157199027Y-71887895D01*
X157199027Y-71887895D02*
X157199027Y-71959323D01*
X157199027Y-71959323D02*
X157222836Y-72054561D01*
X157222836Y-72054561D02*
X157246646Y-72102180D01*
X157246646Y-72102180D02*
X157294265Y-72149800D01*
X157294265Y-72149800D02*
X157365693Y-72173609D01*
X157365693Y-72173609D02*
X157413312Y-72173609D01*
X157413312Y-72173609D02*
X157484741Y-72149800D01*
X157484741Y-72149800D02*
X157508550Y-72125990D01*
X157508550Y-72125990D02*
X157508550Y-71959323D01*
X157508550Y-71959323D02*
X157413312Y-71959323D01*
X157722836Y-72173609D02*
X157722836Y-71673609D01*
X157722836Y-71673609D02*
X158008550Y-72173609D01*
X158008550Y-72173609D02*
X158008550Y-71673609D01*
X158246646Y-72173609D02*
X158246646Y-71673609D01*
X158246646Y-71673609D02*
X158365694Y-71673609D01*
X158365694Y-71673609D02*
X158437122Y-71697419D01*
X158437122Y-71697419D02*
X158484741Y-71745038D01*
X158484741Y-71745038D02*
X158508551Y-71792657D01*
X158508551Y-71792657D02*
X158532360Y-71887895D01*
X158532360Y-71887895D02*
X158532360Y-71959323D01*
X158532360Y-71959323D02*
X158508551Y-72054561D01*
X158508551Y-72054561D02*
X158484741Y-72102180D01*
X158484741Y-72102180D02*
X158437122Y-72149800D01*
X158437122Y-72149800D02*
X158365694Y-72173609D01*
X158365694Y-72173609D02*
X158246646Y-72173609D01*
X167557189Y-101510830D02*
X167795284Y-101510830D01*
X167509570Y-101653687D02*
X167676236Y-101153687D01*
X167676236Y-101153687D02*
X167842903Y-101653687D01*
X167985760Y-101201306D02*
X168009569Y-101177497D01*
X168009569Y-101177497D02*
X168057188Y-101153687D01*
X168057188Y-101153687D02*
X168176236Y-101153687D01*
X168176236Y-101153687D02*
X168223855Y-101177497D01*
X168223855Y-101177497D02*
X168247664Y-101201306D01*
X168247664Y-101201306D02*
X168271474Y-101248925D01*
X168271474Y-101248925D02*
X168271474Y-101296544D01*
X168271474Y-101296544D02*
X168247664Y-101367973D01*
X168247664Y-101367973D02*
X167961950Y-101653687D01*
X167961950Y-101653687D02*
X168271474Y-101653687D01*
X204156998Y-76237609D02*
X204156998Y-75737609D01*
X204156998Y-75737609D02*
X204276046Y-75737609D01*
X204276046Y-75737609D02*
X204347474Y-75761419D01*
X204347474Y-75761419D02*
X204395093Y-75809038D01*
X204395093Y-75809038D02*
X204418903Y-75856657D01*
X204418903Y-75856657D02*
X204442712Y-75951895D01*
X204442712Y-75951895D02*
X204442712Y-76023323D01*
X204442712Y-76023323D02*
X204418903Y-76118561D01*
X204418903Y-76118561D02*
X204395093Y-76166180D01*
X204395093Y-76166180D02*
X204347474Y-76213800D01*
X204347474Y-76213800D02*
X204276046Y-76237609D01*
X204276046Y-76237609D02*
X204156998Y-76237609D01*
X204609379Y-75737609D02*
X204918903Y-75737609D01*
X204918903Y-75737609D02*
X204752236Y-75928085D01*
X204752236Y-75928085D02*
X204823665Y-75928085D01*
X204823665Y-75928085D02*
X204871284Y-75951895D01*
X204871284Y-75951895D02*
X204895093Y-75975704D01*
X204895093Y-75975704D02*
X204918903Y-76023323D01*
X204918903Y-76023323D02*
X204918903Y-76142371D01*
X204918903Y-76142371D02*
X204895093Y-76189990D01*
X204895093Y-76189990D02*
X204871284Y-76213800D01*
X204871284Y-76213800D02*
X204823665Y-76237609D01*
X204823665Y-76237609D02*
X204680808Y-76237609D01*
X204680808Y-76237609D02*
X204633189Y-76213800D01*
X204633189Y-76213800D02*
X204609379Y-76189990D01*
X205347474Y-75737609D02*
X205252236Y-75737609D01*
X205252236Y-75737609D02*
X205204617Y-75761419D01*
X205204617Y-75761419D02*
X205180807Y-75785228D01*
X205180807Y-75785228D02*
X205133188Y-75856657D01*
X205133188Y-75856657D02*
X205109379Y-75951895D01*
X205109379Y-75951895D02*
X205109379Y-76142371D01*
X205109379Y-76142371D02*
X205133188Y-76189990D01*
X205133188Y-76189990D02*
X205156998Y-76213800D01*
X205156998Y-76213800D02*
X205204617Y-76237609D01*
X205204617Y-76237609D02*
X205299855Y-76237609D01*
X205299855Y-76237609D02*
X205347474Y-76213800D01*
X205347474Y-76213800D02*
X205371283Y-76189990D01*
X205371283Y-76189990D02*
X205395093Y-76142371D01*
X205395093Y-76142371D02*
X205395093Y-76023323D01*
X205395093Y-76023323D02*
X205371283Y-75975704D01*
X205371283Y-75975704D02*
X205347474Y-75951895D01*
X205347474Y-75951895D02*
X205299855Y-75928085D01*
X205299855Y-75928085D02*
X205204617Y-75928085D01*
X205204617Y-75928085D02*
X205156998Y-75951895D01*
X205156998Y-75951895D02*
X205133188Y-75975704D01*
X205133188Y-75975704D02*
X205109379Y-76023323D01*
X180082836Y-58203609D02*
X180082836Y-57703609D01*
X180082836Y-57703609D02*
X180201884Y-57703609D01*
X180201884Y-57703609D02*
X180273312Y-57727419D01*
X180273312Y-57727419D02*
X180320931Y-57775038D01*
X180320931Y-57775038D02*
X180344741Y-57822657D01*
X180344741Y-57822657D02*
X180368550Y-57917895D01*
X180368550Y-57917895D02*
X180368550Y-57989323D01*
X180368550Y-57989323D02*
X180344741Y-58084561D01*
X180344741Y-58084561D02*
X180320931Y-58132180D01*
X180320931Y-58132180D02*
X180273312Y-58179800D01*
X180273312Y-58179800D02*
X180201884Y-58203609D01*
X180201884Y-58203609D02*
X180082836Y-58203609D01*
X180844741Y-58203609D02*
X180559027Y-58203609D01*
X180701884Y-58203609D02*
X180701884Y-57703609D01*
X180701884Y-57703609D02*
X180654265Y-57775038D01*
X180654265Y-57775038D02*
X180606646Y-57822657D01*
X180606646Y-57822657D02*
X180559027Y-57846466D01*
X181273312Y-57870276D02*
X181273312Y-58203609D01*
X181154264Y-57679800D02*
X181035217Y-58036942D01*
X181035217Y-58036942D02*
X181344740Y-58036942D01*
X195426027Y-101494752D02*
X195664122Y-101494752D01*
X195378408Y-101637609D02*
X195545074Y-101137609D01*
X195545074Y-101137609D02*
X195711741Y-101637609D01*
X196140312Y-101637609D02*
X195854598Y-101637609D01*
X195997455Y-101637609D02*
X195997455Y-101137609D01*
X195997455Y-101137609D02*
X195949836Y-101209038D01*
X195949836Y-101209038D02*
X195902217Y-101256657D01*
X195902217Y-101256657D02*
X195854598Y-101280466D01*
X196330788Y-101185228D02*
X196354597Y-101161419D01*
X196354597Y-101161419D02*
X196402216Y-101137609D01*
X196402216Y-101137609D02*
X196521264Y-101137609D01*
X196521264Y-101137609D02*
X196568883Y-101161419D01*
X196568883Y-101161419D02*
X196592692Y-101185228D01*
X196592692Y-101185228D02*
X196616502Y-101232847D01*
X196616502Y-101232847D02*
X196616502Y-101280466D01*
X196616502Y-101280466D02*
X196592692Y-101351895D01*
X196592692Y-101351895D02*
X196306978Y-101637609D01*
X196306978Y-101637609D02*
X196616502Y-101637609D01*
X204156998Y-83857609D02*
X204156998Y-83357609D01*
X204156998Y-83357609D02*
X204276046Y-83357609D01*
X204276046Y-83357609D02*
X204347474Y-83381419D01*
X204347474Y-83381419D02*
X204395093Y-83429038D01*
X204395093Y-83429038D02*
X204418903Y-83476657D01*
X204418903Y-83476657D02*
X204442712Y-83571895D01*
X204442712Y-83571895D02*
X204442712Y-83643323D01*
X204442712Y-83643323D02*
X204418903Y-83738561D01*
X204418903Y-83738561D02*
X204395093Y-83786180D01*
X204395093Y-83786180D02*
X204347474Y-83833800D01*
X204347474Y-83833800D02*
X204276046Y-83857609D01*
X204276046Y-83857609D02*
X204156998Y-83857609D01*
X204871284Y-83524276D02*
X204871284Y-83857609D01*
X204752236Y-83333800D02*
X204633189Y-83690942D01*
X204633189Y-83690942D02*
X204942712Y-83690942D01*
X205109379Y-83405228D02*
X205133188Y-83381419D01*
X205133188Y-83381419D02*
X205180807Y-83357609D01*
X205180807Y-83357609D02*
X205299855Y-83357609D01*
X205299855Y-83357609D02*
X205347474Y-83381419D01*
X205347474Y-83381419D02*
X205371283Y-83405228D01*
X205371283Y-83405228D02*
X205395093Y-83452847D01*
X205395093Y-83452847D02*
X205395093Y-83500466D01*
X205395093Y-83500466D02*
X205371283Y-83571895D01*
X205371283Y-83571895D02*
X205085569Y-83857609D01*
X205085569Y-83857609D02*
X205395093Y-83857609D01*
X201434160Y-76253687D02*
X201434160Y-75753687D01*
X201434160Y-75753687D02*
X201553208Y-75753687D01*
X201553208Y-75753687D02*
X201624636Y-75777497D01*
X201624636Y-75777497D02*
X201672255Y-75825116D01*
X201672255Y-75825116D02*
X201696065Y-75872735D01*
X201696065Y-75872735D02*
X201719874Y-75967973D01*
X201719874Y-75967973D02*
X201719874Y-76039401D01*
X201719874Y-76039401D02*
X201696065Y-76134639D01*
X201696065Y-76134639D02*
X201672255Y-76182258D01*
X201672255Y-76182258D02*
X201624636Y-76229878D01*
X201624636Y-76229878D02*
X201553208Y-76253687D01*
X201553208Y-76253687D02*
X201434160Y-76253687D01*
X201886541Y-75753687D02*
X202196065Y-75753687D01*
X202196065Y-75753687D02*
X202029398Y-75944163D01*
X202029398Y-75944163D02*
X202100827Y-75944163D01*
X202100827Y-75944163D02*
X202148446Y-75967973D01*
X202148446Y-75967973D02*
X202172255Y-75991782D01*
X202172255Y-75991782D02*
X202196065Y-76039401D01*
X202196065Y-76039401D02*
X202196065Y-76158449D01*
X202196065Y-76158449D02*
X202172255Y-76206068D01*
X202172255Y-76206068D02*
X202148446Y-76229878D01*
X202148446Y-76229878D02*
X202100827Y-76253687D01*
X202100827Y-76253687D02*
X201957970Y-76253687D01*
X201957970Y-76253687D02*
X201910351Y-76229878D01*
X201910351Y-76229878D02*
X201886541Y-76206068D01*
X202362731Y-75753687D02*
X202696064Y-75753687D01*
X202696064Y-75753687D02*
X202481779Y-76253687D01*
X204156998Y-96557609D02*
X204156998Y-96057609D01*
X204156998Y-96057609D02*
X204276046Y-96057609D01*
X204276046Y-96057609D02*
X204347474Y-96081419D01*
X204347474Y-96081419D02*
X204395093Y-96129038D01*
X204395093Y-96129038D02*
X204418903Y-96176657D01*
X204418903Y-96176657D02*
X204442712Y-96271895D01*
X204442712Y-96271895D02*
X204442712Y-96343323D01*
X204442712Y-96343323D02*
X204418903Y-96438561D01*
X204418903Y-96438561D02*
X204395093Y-96486180D01*
X204395093Y-96486180D02*
X204347474Y-96533800D01*
X204347474Y-96533800D02*
X204276046Y-96557609D01*
X204276046Y-96557609D02*
X204156998Y-96557609D01*
X204895093Y-96057609D02*
X204656998Y-96057609D01*
X204656998Y-96057609D02*
X204633189Y-96295704D01*
X204633189Y-96295704D02*
X204656998Y-96271895D01*
X204656998Y-96271895D02*
X204704617Y-96248085D01*
X204704617Y-96248085D02*
X204823665Y-96248085D01*
X204823665Y-96248085D02*
X204871284Y-96271895D01*
X204871284Y-96271895D02*
X204895093Y-96295704D01*
X204895093Y-96295704D02*
X204918903Y-96343323D01*
X204918903Y-96343323D02*
X204918903Y-96462371D01*
X204918903Y-96462371D02*
X204895093Y-96509990D01*
X204895093Y-96509990D02*
X204871284Y-96533800D01*
X204871284Y-96533800D02*
X204823665Y-96557609D01*
X204823665Y-96557609D02*
X204704617Y-96557609D01*
X204704617Y-96557609D02*
X204656998Y-96533800D01*
X204656998Y-96533800D02*
X204633189Y-96509990D01*
X205109379Y-96105228D02*
X205133188Y-96081419D01*
X205133188Y-96081419D02*
X205180807Y-96057609D01*
X205180807Y-96057609D02*
X205299855Y-96057609D01*
X205299855Y-96057609D02*
X205347474Y-96081419D01*
X205347474Y-96081419D02*
X205371283Y-96105228D01*
X205371283Y-96105228D02*
X205395093Y-96152847D01*
X205395093Y-96152847D02*
X205395093Y-96200466D01*
X205395093Y-96200466D02*
X205371283Y-96271895D01*
X205371283Y-96271895D02*
X205085569Y-96557609D01*
X205085569Y-96557609D02*
X205395093Y-96557609D01*
X167382836Y-58203609D02*
X167382836Y-57703609D01*
X167382836Y-57703609D02*
X167501884Y-57703609D01*
X167501884Y-57703609D02*
X167573312Y-57727419D01*
X167573312Y-57727419D02*
X167620931Y-57775038D01*
X167620931Y-57775038D02*
X167644741Y-57822657D01*
X167644741Y-57822657D02*
X167668550Y-57917895D01*
X167668550Y-57917895D02*
X167668550Y-57989323D01*
X167668550Y-57989323D02*
X167644741Y-58084561D01*
X167644741Y-58084561D02*
X167620931Y-58132180D01*
X167620931Y-58132180D02*
X167573312Y-58179800D01*
X167573312Y-58179800D02*
X167501884Y-58203609D01*
X167501884Y-58203609D02*
X167382836Y-58203609D01*
X167835217Y-57703609D02*
X168144741Y-57703609D01*
X168144741Y-57703609D02*
X167978074Y-57894085D01*
X167978074Y-57894085D02*
X168049503Y-57894085D01*
X168049503Y-57894085D02*
X168097122Y-57917895D01*
X168097122Y-57917895D02*
X168120931Y-57941704D01*
X168120931Y-57941704D02*
X168144741Y-57989323D01*
X168144741Y-57989323D02*
X168144741Y-58108371D01*
X168144741Y-58108371D02*
X168120931Y-58155990D01*
X168120931Y-58155990D02*
X168097122Y-58179800D01*
X168097122Y-58179800D02*
X168049503Y-58203609D01*
X168049503Y-58203609D02*
X167906646Y-58203609D01*
X167906646Y-58203609D02*
X167859027Y-58179800D01*
X167859027Y-58179800D02*
X167835217Y-58155990D01*
X203046027Y-101494752D02*
X203284122Y-101494752D01*
X202998408Y-101637609D02*
X203165074Y-101137609D01*
X203165074Y-101137609D02*
X203331741Y-101637609D01*
X203760312Y-101637609D02*
X203474598Y-101637609D01*
X203617455Y-101637609D02*
X203617455Y-101137609D01*
X203617455Y-101137609D02*
X203569836Y-101209038D01*
X203569836Y-101209038D02*
X203522217Y-101256657D01*
X203522217Y-101256657D02*
X203474598Y-101280466D01*
X204212692Y-101137609D02*
X203974597Y-101137609D01*
X203974597Y-101137609D02*
X203950788Y-101375704D01*
X203950788Y-101375704D02*
X203974597Y-101351895D01*
X203974597Y-101351895D02*
X204022216Y-101328085D01*
X204022216Y-101328085D02*
X204141264Y-101328085D01*
X204141264Y-101328085D02*
X204188883Y-101351895D01*
X204188883Y-101351895D02*
X204212692Y-101375704D01*
X204212692Y-101375704D02*
X204236502Y-101423323D01*
X204236502Y-101423323D02*
X204236502Y-101542371D01*
X204236502Y-101542371D02*
X204212692Y-101589990D01*
X204212692Y-101589990D02*
X204188883Y-101613800D01*
X204188883Y-101613800D02*
X204141264Y-101637609D01*
X204141264Y-101637609D02*
X204022216Y-101637609D01*
X204022216Y-101637609D02*
X203974597Y-101613800D01*
X203974597Y-101613800D02*
X203950788Y-101589990D01*
X195322836Y-58203609D02*
X195322836Y-57703609D01*
X195322836Y-57703609D02*
X195441884Y-57703609D01*
X195441884Y-57703609D02*
X195513312Y-57727419D01*
X195513312Y-57727419D02*
X195560931Y-57775038D01*
X195560931Y-57775038D02*
X195584741Y-57822657D01*
X195584741Y-57822657D02*
X195608550Y-57917895D01*
X195608550Y-57917895D02*
X195608550Y-57989323D01*
X195608550Y-57989323D02*
X195584741Y-58084561D01*
X195584741Y-58084561D02*
X195560931Y-58132180D01*
X195560931Y-58132180D02*
X195513312Y-58179800D01*
X195513312Y-58179800D02*
X195441884Y-58203609D01*
X195441884Y-58203609D02*
X195322836Y-58203609D01*
X195799027Y-57751228D02*
X195822836Y-57727419D01*
X195822836Y-57727419D02*
X195870455Y-57703609D01*
X195870455Y-57703609D02*
X195989503Y-57703609D01*
X195989503Y-57703609D02*
X196037122Y-57727419D01*
X196037122Y-57727419D02*
X196060931Y-57751228D01*
X196060931Y-57751228D02*
X196084741Y-57798847D01*
X196084741Y-57798847D02*
X196084741Y-57846466D01*
X196084741Y-57846466D02*
X196060931Y-57917895D01*
X196060931Y-57917895D02*
X195775217Y-58203609D01*
X195775217Y-58203609D02*
X196084741Y-58203609D01*
X196394264Y-57703609D02*
X196441883Y-57703609D01*
X196441883Y-57703609D02*
X196489502Y-57727419D01*
X196489502Y-57727419D02*
X196513312Y-57751228D01*
X196513312Y-57751228D02*
X196537121Y-57798847D01*
X196537121Y-57798847D02*
X196560931Y-57894085D01*
X196560931Y-57894085D02*
X196560931Y-58013133D01*
X196560931Y-58013133D02*
X196537121Y-58108371D01*
X196537121Y-58108371D02*
X196513312Y-58155990D01*
X196513312Y-58155990D02*
X196489502Y-58179800D01*
X196489502Y-58179800D02*
X196441883Y-58203609D01*
X196441883Y-58203609D02*
X196394264Y-58203609D01*
X196394264Y-58203609D02*
X196346645Y-58179800D01*
X196346645Y-58179800D02*
X196322836Y-58155990D01*
X196322836Y-58155990D02*
X196299026Y-58108371D01*
X196299026Y-58108371D02*
X196275217Y-58013133D01*
X196275217Y-58013133D02*
X196275217Y-57894085D01*
X196275217Y-57894085D02*
X196299026Y-57798847D01*
X196299026Y-57798847D02*
X196322836Y-57751228D01*
X196322836Y-57751228D02*
X196346645Y-57727419D01*
X196346645Y-57727419D02*
X196394264Y-57703609D01*
D12*
%TO.C,G\u002A\u002A\u002A*%
G36*
X164411102Y-56256837D02*
G01*
X164480981Y-56259511D01*
X164529978Y-56263678D01*
X164538998Y-56265180D01*
X164583358Y-56282357D01*
X164634045Y-56312816D01*
X164680480Y-56348672D01*
X164712084Y-56382039D01*
X164719717Y-56399867D01*
X164734426Y-56426139D01*
X164747147Y-56433696D01*
X164767484Y-56457976D01*
X164774857Y-56495083D01*
X164780487Y-56542000D01*
X164790833Y-56570716D01*
X164796025Y-56610065D01*
X164779945Y-56678485D01*
X164761944Y-56728810D01*
X164713296Y-56809875D01*
X164635912Y-56877315D01*
X164593729Y-56902416D01*
X164550242Y-56917952D01*
X164493864Y-56926689D01*
X164413011Y-56931396D01*
X164408846Y-56931549D01*
X164332749Y-56932978D01*
X164267366Y-56931824D01*
X164223919Y-56928360D01*
X164216837Y-56926909D01*
X164115225Y-56881785D01*
X164032712Y-56812067D01*
X163974595Y-56724165D01*
X163958204Y-56666693D01*
X164637547Y-56666693D01*
X164643294Y-56700711D01*
X164662628Y-56719282D01*
X164666466Y-56719667D01*
X164682615Y-56704250D01*
X164693142Y-56677056D01*
X164699561Y-56627123D01*
X164698720Y-56569056D01*
X164691894Y-56515239D01*
X164680361Y-56478057D01*
X164671682Y-56468876D01*
X164648700Y-56475196D01*
X164638490Y-56505305D01*
X164643672Y-56547857D01*
X164649750Y-56563907D01*
X164660983Y-56606355D01*
X164648944Y-56634518D01*
X164637547Y-56666693D01*
X163958204Y-56666693D01*
X163946168Y-56624492D01*
X163944283Y-56596950D01*
X163950255Y-56547766D01*
X163967097Y-56488617D01*
X163990429Y-56429976D01*
X164007536Y-56397929D01*
X164578850Y-56397929D01*
X164591711Y-56408796D01*
X164620890Y-56425243D01*
X164624777Y-56419049D01*
X164619141Y-56408796D01*
X164592435Y-56391410D01*
X164586061Y-56390790D01*
X164578850Y-56397929D01*
X164007536Y-56397929D01*
X164015872Y-56382314D01*
X164039047Y-56356104D01*
X164045902Y-56353936D01*
X164066657Y-56343172D01*
X164103017Y-56316293D01*
X164116064Y-56305580D01*
X164147666Y-56281818D01*
X164179956Y-56267304D01*
X164223129Y-56259707D01*
X164287382Y-56256700D01*
X164332334Y-56256177D01*
X164411102Y-56256837D01*
G37*
G36*
X165563161Y-56513431D02*
G01*
X165642265Y-56546544D01*
X165709395Y-56580081D01*
X165862626Y-56659933D01*
X165958076Y-56831521D01*
X166010491Y-56930330D01*
X166041609Y-57004326D01*
X166050819Y-57058858D01*
X166037510Y-57099274D01*
X166001070Y-57130923D01*
X165940887Y-57159153D01*
X165919704Y-57167171D01*
X165830490Y-57199939D01*
X165841311Y-57302676D01*
X165850176Y-57369513D01*
X165864116Y-57454427D01*
X165881678Y-57550454D01*
X165901411Y-57650629D01*
X165921861Y-57747989D01*
X165941578Y-57835569D01*
X165959109Y-57906405D01*
X165973002Y-57953533D01*
X165980313Y-57969292D01*
X166009336Y-57978505D01*
X166064804Y-57971303D01*
X166087511Y-57965866D01*
X166145314Y-57954875D01*
X166192120Y-57952581D01*
X166206533Y-57955182D01*
X166231205Y-57983304D01*
X166235930Y-58039163D01*
X166220859Y-58119943D01*
X166193043Y-58204914D01*
X166163954Y-58287911D01*
X166135545Y-58378128D01*
X166119652Y-58434688D01*
X166106906Y-58486419D01*
X166100961Y-58526474D01*
X166102804Y-58565267D01*
X166113423Y-58613213D01*
X166133806Y-58680726D01*
X166146852Y-58721596D01*
X166185342Y-58827741D01*
X166224697Y-58910664D01*
X166256817Y-58958148D01*
X166298580Y-59022225D01*
X166308420Y-59080267D01*
X166286020Y-59127867D01*
X166270004Y-59141596D01*
X166207649Y-59167614D01*
X166144634Y-59157595D01*
X166100786Y-59130565D01*
X166072431Y-59105286D01*
X166059051Y-59079279D01*
X166057268Y-59040049D01*
X166062237Y-58987963D01*
X166064236Y-58888482D01*
X166044861Y-58803450D01*
X166010127Y-58703272D01*
X165988111Y-58626956D01*
X165978438Y-58564211D01*
X165980738Y-58504750D01*
X165994637Y-58438284D01*
X166019763Y-58354522D01*
X166027710Y-58329814D01*
X166053068Y-58250370D01*
X166073612Y-58184101D01*
X166087059Y-58138500D01*
X166091207Y-58121420D01*
X166076056Y-58111244D01*
X166059268Y-58109444D01*
X166023339Y-58115397D01*
X165965558Y-58130930D01*
X165896299Y-58152553D01*
X165825930Y-58176776D01*
X165764824Y-58200112D01*
X165723351Y-58219069D01*
X165713115Y-58225912D01*
X165699679Y-58250350D01*
X165678213Y-58302491D01*
X165651488Y-58375097D01*
X165622275Y-58460929D01*
X165617111Y-58476777D01*
X165586201Y-58574344D01*
X165565266Y-58649043D01*
X165552374Y-58712588D01*
X165545591Y-58776690D01*
X165542986Y-58853064D01*
X165542611Y-58928289D01*
X165544067Y-59020158D01*
X165548098Y-59093867D01*
X165554203Y-59143029D01*
X165560898Y-59160920D01*
X165574821Y-59187504D01*
X165578606Y-59232630D01*
X165572651Y-59279817D01*
X165557354Y-59312585D01*
X165557241Y-59312698D01*
X165518764Y-59329942D01*
X165462302Y-59333547D01*
X165403584Y-59324046D01*
X165363815Y-59306175D01*
X165330054Y-59262706D01*
X165323074Y-59206156D01*
X165342571Y-59148018D01*
X165368889Y-59115204D01*
X165390083Y-59092721D01*
X165403479Y-59067821D01*
X165410849Y-59031937D01*
X165413967Y-58976502D01*
X165414606Y-58894326D01*
X165415602Y-58820481D01*
X165419804Y-58758209D01*
X165429032Y-58697986D01*
X165445105Y-58630289D01*
X165469844Y-58545595D01*
X165498745Y-58454065D01*
X165530392Y-58359234D01*
X165560858Y-58274814D01*
X165587386Y-58207965D01*
X165607221Y-58165849D01*
X165613036Y-58157092D01*
X165646551Y-58130192D01*
X165699841Y-58098723D01*
X165737510Y-58080348D01*
X165791220Y-58054260D01*
X165830129Y-58031446D01*
X165842692Y-58020677D01*
X165841993Y-57999347D01*
X165835139Y-57948731D01*
X165823356Y-57875366D01*
X165807869Y-57785787D01*
X165789905Y-57686530D01*
X165770689Y-57584129D01*
X165751446Y-57485121D01*
X165733403Y-57396040D01*
X165717784Y-57323423D01*
X165705816Y-57273805D01*
X165698885Y-57253863D01*
X165678714Y-57254157D01*
X165633122Y-57262197D01*
X165572434Y-57276134D01*
X165515139Y-57289510D01*
X165469260Y-57295924D01*
X165423239Y-57295102D01*
X165365513Y-57286771D01*
X165284524Y-57270658D01*
X165277368Y-57269166D01*
X165195508Y-57249521D01*
X165122345Y-57227404D01*
X165068725Y-57206295D01*
X165052181Y-57196884D01*
X164995263Y-57150684D01*
X164937114Y-57095310D01*
X164883972Y-57037811D01*
X164842076Y-56985241D01*
X164817663Y-56944651D01*
X164814165Y-56927809D01*
X164830676Y-56894223D01*
X164862370Y-56890415D01*
X164910414Y-56916824D01*
X164975973Y-56973888D01*
X164999737Y-56997566D01*
X165052755Y-57050696D01*
X165093805Y-57086259D01*
X165133631Y-57110005D01*
X165182978Y-57127682D01*
X165252590Y-57145041D01*
X165292073Y-57153984D01*
X165374405Y-57172016D01*
X165430957Y-57181983D01*
X165471546Y-57184209D01*
X165505992Y-57179014D01*
X165544113Y-57166721D01*
X165555272Y-57162612D01*
X165606071Y-57140044D01*
X165640262Y-57117917D01*
X165647643Y-57108604D01*
X165639719Y-57084007D01*
X165611119Y-57046906D01*
X165590628Y-57026322D01*
X165522959Y-56941895D01*
X165490249Y-56846999D01*
X165490431Y-56839438D01*
X165707190Y-56839438D01*
X165713947Y-56931203D01*
X165732672Y-57005494D01*
X165761044Y-57055344D01*
X165784523Y-57071679D01*
X165830953Y-57073753D01*
X165875453Y-57056002D01*
X165902633Y-57025407D01*
X165904844Y-57017104D01*
X165899619Y-56972880D01*
X165877647Y-56914338D01*
X165844479Y-56850681D01*
X165805663Y-56791111D01*
X165766750Y-56744831D01*
X165733289Y-56721044D01*
X165725477Y-56719667D01*
X165715939Y-56736474D01*
X165709402Y-56781052D01*
X165707190Y-56839438D01*
X165490431Y-56839438D01*
X165492756Y-56742725D01*
X165508802Y-56683027D01*
X165520475Y-56639232D01*
X165514166Y-56613892D01*
X165499659Y-56600564D01*
X165474686Y-56565102D01*
X165469465Y-56539358D01*
X165479097Y-56510234D01*
X165509551Y-56501460D01*
X165563161Y-56513431D01*
G37*
G36*
X158010961Y-56959749D02*
G01*
X158163994Y-56960775D01*
X158336808Y-56962354D01*
X158477076Y-56963927D01*
X158588823Y-56965753D01*
X158676073Y-56968089D01*
X158742852Y-56971192D01*
X158793186Y-56975318D01*
X158831099Y-56980725D01*
X158860617Y-56987670D01*
X158885766Y-56996410D01*
X158910570Y-57007203D01*
X158913742Y-57008661D01*
X159020563Y-57071578D01*
X159101337Y-57148209D01*
X159135045Y-57199230D01*
X159159830Y-57273578D01*
X159171589Y-57368419D01*
X159169593Y-57469806D01*
X159153925Y-57560848D01*
X159141186Y-57617757D01*
X159136742Y-57659917D01*
X159139692Y-57674873D01*
X159162451Y-57677796D01*
X159211872Y-57673984D01*
X159278836Y-57664286D01*
X159306636Y-57659301D01*
X159419499Y-57644417D01*
X159547597Y-57637849D01*
X159679729Y-57639286D01*
X159804691Y-57648416D01*
X159911281Y-57664929D01*
X159959241Y-57677435D01*
X160028746Y-57705574D01*
X160105946Y-57745412D01*
X160151094Y-57773169D01*
X160248347Y-57838616D01*
X160294016Y-57777450D01*
X160405895Y-57645617D01*
X160543301Y-57512292D01*
X160696469Y-57385576D01*
X160855635Y-57273568D01*
X161006022Y-57186885D01*
X161076133Y-57156031D01*
X161170864Y-57120551D01*
X161279200Y-57084050D01*
X161390127Y-57050131D01*
X161492628Y-57022397D01*
X161547003Y-57009912D01*
X161608000Y-57001019D01*
X161691130Y-56994116D01*
X161789532Y-56989222D01*
X161896344Y-56986352D01*
X162004703Y-56985524D01*
X162107748Y-56986755D01*
X162198617Y-56990062D01*
X162270447Y-56995463D01*
X162316378Y-57002973D01*
X162328070Y-57007973D01*
X162347126Y-57039486D01*
X162361955Y-57091369D01*
X162365408Y-57114024D01*
X162372959Y-57165738D01*
X162381197Y-57200217D01*
X162384381Y-57206553D01*
X162404494Y-57204368D01*
X162448875Y-57189793D01*
X162508614Y-57165828D01*
X162519777Y-57160983D01*
X162719254Y-57085420D01*
X162857268Y-57047168D01*
X163576809Y-57047168D01*
X163583263Y-57226290D01*
X163588479Y-57313557D01*
X163596600Y-57378125D01*
X163606787Y-57414098D01*
X163610693Y-57418847D01*
X163658136Y-57432508D01*
X163705247Y-57421826D01*
X163732338Y-57396095D01*
X163741043Y-57360770D01*
X163746277Y-57300277D01*
X163747173Y-57225929D01*
X163746696Y-57208658D01*
X163741387Y-57057968D01*
X163659098Y-57052568D01*
X163576809Y-57047168D01*
X162857268Y-57047168D01*
X162931359Y-57026633D01*
X163146621Y-56986288D01*
X163355570Y-56966052D01*
X163548734Y-56967592D01*
X163594985Y-56971741D01*
X163679919Y-56981820D01*
X163736658Y-56991596D01*
X163773465Y-57003671D01*
X163798604Y-57020644D01*
X163817739Y-57041828D01*
X163857739Y-57091992D01*
X163982428Y-57061901D01*
X164062044Y-57047946D01*
X164164362Y-57037466D01*
X164277899Y-57030881D01*
X164391169Y-57028613D01*
X164492687Y-57031083D01*
X164570969Y-57038712D01*
X164578444Y-57040030D01*
X164643260Y-57063163D01*
X164683236Y-57104824D01*
X164698735Y-57167228D01*
X164690118Y-57252588D01*
X164657745Y-57363118D01*
X164639248Y-57412288D01*
X164609265Y-57488277D01*
X164570322Y-57586902D01*
X164526910Y-57696791D01*
X164483521Y-57806572D01*
X164472224Y-57835146D01*
X164386138Y-58060583D01*
X164308566Y-58279189D01*
X164240972Y-58486167D01*
X164184818Y-58676720D01*
X164141567Y-58846049D01*
X164112683Y-58989357D01*
X164105627Y-59037167D01*
X164095678Y-59097673D01*
X164079341Y-59136082D01*
X164048169Y-59161520D01*
X163993710Y-59183114D01*
X163960826Y-59193553D01*
X163830254Y-59225025D01*
X163691245Y-59243053D01*
X163553510Y-59247489D01*
X163426761Y-59238184D01*
X163320710Y-59214990D01*
X163290749Y-59203767D01*
X163236166Y-59181930D01*
X163199299Y-59174789D01*
X163164800Y-59181412D01*
X163132764Y-59194202D01*
X163068567Y-59219494D01*
X163005369Y-59238507D01*
X162935744Y-59252371D01*
X162852270Y-59262219D01*
X162747522Y-59269182D01*
X162614076Y-59274394D01*
X162604942Y-59274677D01*
X162437630Y-59277071D01*
X162298378Y-59272212D01*
X162179193Y-59258975D01*
X162072079Y-59236233D01*
X161969041Y-59202862D01*
X161902298Y-59175733D01*
X161875869Y-59164271D01*
X162968240Y-59164271D01*
X162983226Y-59164793D01*
X162995746Y-59162094D01*
X163043084Y-59146574D01*
X163103400Y-59121588D01*
X163128762Y-59109707D01*
X163214183Y-59050888D01*
X163219174Y-59043986D01*
X163970504Y-59043986D01*
X163973825Y-59093613D01*
X163985761Y-59114839D01*
X163988256Y-59115204D01*
X164013402Y-59103395D01*
X164043717Y-59078029D01*
X164065355Y-59048521D01*
X164076187Y-59008223D01*
X164078855Y-58945713D01*
X164078596Y-58927165D01*
X164084107Y-58838292D01*
X164102096Y-58725297D01*
X164130283Y-58597520D01*
X164166387Y-58464301D01*
X164208126Y-58334982D01*
X164249341Y-58227953D01*
X164276711Y-58159660D01*
X164309733Y-58071728D01*
X164342776Y-57979308D01*
X164354725Y-57944512D01*
X164387255Y-57852862D01*
X164423337Y-57758136D01*
X164456809Y-57676313D01*
X164467403Y-57652281D01*
X164536779Y-57488699D01*
X164583881Y-57352563D01*
X164608642Y-57244187D01*
X164610996Y-57163890D01*
X164590877Y-57111988D01*
X164582568Y-57103685D01*
X164561513Y-57091314D01*
X164552966Y-57104626D01*
X164553854Y-57148704D01*
X164554023Y-57150918D01*
X164549344Y-57189577D01*
X164533497Y-57254142D01*
X164509088Y-57336639D01*
X164478724Y-57429094D01*
X164445012Y-57523535D01*
X164410557Y-57611987D01*
X164381165Y-57679676D01*
X164352210Y-57746359D01*
X164315973Y-57836485D01*
X164276835Y-57938836D01*
X164239175Y-58042191D01*
X164234803Y-58054584D01*
X164199413Y-58153985D01*
X164164143Y-58250737D01*
X164132702Y-58334811D01*
X164108799Y-58396176D01*
X164105534Y-58404153D01*
X164076197Y-58484992D01*
X164048563Y-58579329D01*
X164023620Y-58681179D01*
X164002356Y-58784554D01*
X163985757Y-58883471D01*
X163974811Y-58971943D01*
X163970504Y-59043986D01*
X163219174Y-59043986D01*
X163269657Y-58974173D01*
X163292814Y-58883075D01*
X163293367Y-58865631D01*
X163291612Y-58816098D01*
X163281768Y-58793040D01*
X163256972Y-58786379D01*
X163239151Y-58786046D01*
X163187031Y-58800327D01*
X163156493Y-58843569D01*
X163147075Y-58912032D01*
X163139940Y-58949836D01*
X163115325Y-58992441D01*
X163068412Y-59047412D01*
X163046034Y-59070769D01*
X162997218Y-59121664D01*
X162972095Y-59151363D01*
X162968240Y-59164271D01*
X161875869Y-59164271D01*
X161798149Y-59130565D01*
X161727435Y-59166583D01*
X161642538Y-59204982D01*
X161555001Y-59233311D01*
X161456472Y-59253241D01*
X161338599Y-59266441D01*
X161193031Y-59274580D01*
X161185719Y-59274853D01*
X160953768Y-59274864D01*
X160751588Y-59256264D01*
X160577073Y-59218362D01*
X160428112Y-59160471D01*
X160317832Y-59091437D01*
X161682951Y-59091437D01*
X161702373Y-59088860D01*
X161739012Y-59069487D01*
X161787036Y-59049519D01*
X161823634Y-59042705D01*
X161862353Y-59033371D01*
X161888789Y-59003239D01*
X161905943Y-58946825D01*
X161915384Y-58875013D01*
X161919738Y-58806848D01*
X161915902Y-58762638D01*
X161901979Y-58730311D01*
X161890099Y-58714161D01*
X161861769Y-58684989D01*
X161834377Y-58680378D01*
X161797714Y-58693021D01*
X161766835Y-58707775D01*
X161750312Y-58726281D01*
X161744097Y-58758876D01*
X161744138Y-58815900D01*
X161744480Y-58828910D01*
X161740387Y-58920117D01*
X161720229Y-58994414D01*
X161708995Y-59019199D01*
X161685877Y-59069421D01*
X161682951Y-59091437D01*
X160317832Y-59091437D01*
X160302598Y-59081901D01*
X160198423Y-58981964D01*
X160166654Y-58941867D01*
X160126586Y-58891212D01*
X160092874Y-58854976D01*
X160072737Y-58840908D01*
X160072592Y-58840906D01*
X160051236Y-58852558D01*
X160010544Y-58883737D01*
X159957691Y-58928774D01*
X159931448Y-58952421D01*
X159813814Y-59044076D01*
X159672609Y-59128423D01*
X159520828Y-59198669D01*
X159371471Y-59248023D01*
X159360594Y-59250726D01*
X159283031Y-59263628D01*
X159180553Y-59272537D01*
X159064618Y-59277268D01*
X158946687Y-59277631D01*
X158838219Y-59273441D01*
X158750671Y-59264509D01*
X158730876Y-59261014D01*
X158670950Y-59246889D01*
X158618515Y-59231315D01*
X158612014Y-59228963D01*
X158567057Y-59221923D01*
X158490947Y-59221813D01*
X158388438Y-59228615D01*
X158374289Y-59229923D01*
X158245457Y-59238708D01*
X158146670Y-59235305D01*
X158072542Y-59216604D01*
X158017691Y-59179495D01*
X157976731Y-59120866D01*
X157944279Y-59037608D01*
X157925696Y-58970782D01*
X157875351Y-58782283D01*
X157828763Y-58629144D01*
X157785574Y-58510386D01*
X157745427Y-58425027D01*
X157707964Y-58372087D01*
X157706948Y-58371059D01*
X157659993Y-58332509D01*
X157624241Y-58319951D01*
X157618131Y-58321221D01*
X157603649Y-58333134D01*
X157586073Y-58360852D01*
X157564011Y-58407761D01*
X157536069Y-58477251D01*
X157500854Y-58572710D01*
X157456974Y-58697528D01*
X157423997Y-58793511D01*
X157381830Y-58912312D01*
X157345509Y-59001692D01*
X157311531Y-59067588D01*
X157276389Y-59115938D01*
X157236579Y-59152676D01*
X157196181Y-59179368D01*
X157158846Y-59199362D01*
X157122432Y-59212499D01*
X157078009Y-59220193D01*
X157016645Y-59223856D01*
X156929412Y-59224903D01*
X156908375Y-59224923D01*
X156817176Y-59224455D01*
X156754996Y-59222171D01*
X156714285Y-59216753D01*
X156687492Y-59206880D01*
X156667066Y-59191233D01*
X156657043Y-59181004D01*
X156645875Y-59163182D01*
X156976574Y-59163182D01*
X156984486Y-59167503D01*
X157002799Y-59163797D01*
X157057281Y-59154839D01*
X157101612Y-59152026D01*
X157146489Y-59141282D01*
X157195014Y-59105980D01*
X157225046Y-59075588D01*
X157263718Y-59029614D01*
X157289265Y-58991411D01*
X157295383Y-58974764D01*
X157303212Y-58937897D01*
X157311263Y-58918375D01*
X157326312Y-58883159D01*
X157347047Y-58828631D01*
X157358992Y-58795189D01*
X157410795Y-58647234D01*
X157452347Y-58530419D01*
X157484984Y-58441198D01*
X157510042Y-58376023D01*
X157528855Y-58331344D01*
X157542761Y-58303615D01*
X157546097Y-58298191D01*
X157562154Y-58267063D01*
X157553081Y-58249105D01*
X157538730Y-58240459D01*
X157485671Y-58229652D01*
X157426803Y-58241392D01*
X157382016Y-58271374D01*
X157361565Y-58307000D01*
X157340020Y-58361027D01*
X157332836Y-58383742D01*
X157312512Y-58447763D01*
X157291000Y-58506982D01*
X157285281Y-58520891D01*
X157263838Y-58579759D01*
X157249863Y-58630610D01*
X157235398Y-58681734D01*
X157213060Y-58744904D01*
X157203940Y-58767759D01*
X157176226Y-58837526D01*
X157147142Y-58915128D01*
X157137721Y-58941481D01*
X157093762Y-59027983D01*
X157031371Y-59104116D01*
X156991470Y-59143581D01*
X156976574Y-59163182D01*
X156645875Y-59163182D01*
X156626765Y-59132686D01*
X156607733Y-59073152D01*
X156606767Y-59066713D01*
X156604344Y-59046680D01*
X156603376Y-59027610D01*
X156604950Y-59005759D01*
X156610155Y-58977383D01*
X156620078Y-58938739D01*
X156635807Y-58886082D01*
X156658430Y-58815669D01*
X156689034Y-58723756D01*
X156728708Y-58606598D01*
X156778538Y-58460452D01*
X156807855Y-58374599D01*
X156866949Y-58201638D01*
X158309816Y-58201638D01*
X158312156Y-58225490D01*
X158328298Y-58273398D01*
X158355194Y-58336957D01*
X158371142Y-58370788D01*
X158451926Y-58572590D01*
X158501035Y-58784068D01*
X158511919Y-58868335D01*
X158516260Y-58938310D01*
X158509651Y-58990850D01*
X158489003Y-59044237D01*
X158478706Y-59064916D01*
X158453965Y-59115034D01*
X158445717Y-59140924D01*
X158453028Y-59150514D01*
X158468477Y-59151777D01*
X158501347Y-59139987D01*
X158546466Y-59109987D01*
X158571138Y-59089175D01*
X158586003Y-59075551D01*
X159632764Y-59075551D01*
X159652528Y-59069864D01*
X159694647Y-59049273D01*
X159762576Y-59009505D01*
X159837882Y-58955665D01*
X159926454Y-58883244D01*
X160022877Y-58798002D01*
X160139596Y-58673673D01*
X160230006Y-58538196D01*
X160292109Y-58396564D01*
X160305044Y-58338475D01*
X160697699Y-58338475D01*
X160704530Y-58463772D01*
X160737356Y-58573630D01*
X160780227Y-58643836D01*
X160826529Y-58689584D01*
X160884337Y-58730755D01*
X160940878Y-58759316D01*
X160977174Y-58767691D01*
X160995613Y-58764387D01*
X160992937Y-58749582D01*
X160967319Y-58716106D01*
X160962585Y-58710458D01*
X160900459Y-58625381D01*
X160863209Y-58542083D01*
X160846055Y-58446938D01*
X160843598Y-58375862D01*
X160886203Y-58375862D01*
X160902054Y-58492736D01*
X160945048Y-58592915D01*
X161013539Y-58673295D01*
X161105878Y-58730773D01*
X161220420Y-58762246D01*
X161294373Y-58767358D01*
X161363045Y-58764780D01*
X161423127Y-58757698D01*
X161453203Y-58750373D01*
X161474603Y-58740479D01*
X161487971Y-58725483D01*
X161495148Y-58697729D01*
X161497975Y-58649558D01*
X161498290Y-58573313D01*
X161498251Y-58562936D01*
X161513842Y-58375845D01*
X162137991Y-58375845D01*
X162138821Y-58458915D01*
X162142645Y-58515168D01*
X162151460Y-58554350D01*
X162167261Y-58586203D01*
X162186708Y-58613524D01*
X162250549Y-58689830D01*
X162310394Y-58742695D01*
X162377590Y-58781880D01*
X162388184Y-58786809D01*
X162436196Y-58804955D01*
X162483207Y-58817139D01*
X162520395Y-58822080D01*
X162538937Y-58818499D01*
X162533562Y-58807895D01*
X162509213Y-58788861D01*
X162467543Y-58757599D01*
X162445406Y-58741277D01*
X162380204Y-58675634D01*
X162332476Y-58595993D01*
X162313689Y-58551279D01*
X162302381Y-58511714D01*
X162297593Y-58467287D01*
X162298366Y-58407992D01*
X162300873Y-58368722D01*
X162350886Y-58368722D01*
X162368716Y-58488920D01*
X162421888Y-58600976D01*
X162436038Y-58621516D01*
X162511340Y-58698677D01*
X162604789Y-58746342D01*
X162717603Y-58764743D01*
X162851001Y-58754113D01*
X162974261Y-58724597D01*
X163067733Y-58700372D01*
X163133831Y-58691955D01*
X163170329Y-58696038D01*
X163226370Y-58699707D01*
X163291261Y-58687698D01*
X163345299Y-58664242D01*
X163355798Y-58656202D01*
X163369672Y-58631968D01*
X163392974Y-58578270D01*
X163423836Y-58500431D01*
X163460389Y-58403771D01*
X163500765Y-58293612D01*
X163543093Y-58175274D01*
X163585507Y-58054080D01*
X163626136Y-57935350D01*
X163663113Y-57824406D01*
X163694568Y-57726569D01*
X163718633Y-57647161D01*
X163733439Y-57591502D01*
X163737260Y-57569991D01*
X163741387Y-57515132D01*
X163576809Y-57503934D01*
X163487482Y-57497038D01*
X163397956Y-57488777D01*
X163324608Y-57480692D01*
X163311142Y-57478936D01*
X163165509Y-57477211D01*
X163017523Y-57510284D01*
X162870460Y-57576819D01*
X162727601Y-57675476D01*
X162643215Y-57751556D01*
X162531417Y-57879486D01*
X162447490Y-58017508D01*
X162385825Y-58175556D01*
X162368117Y-58238796D01*
X162350886Y-58368722D01*
X162300873Y-58368722D01*
X162303740Y-58323818D01*
X162304897Y-58308248D01*
X162319533Y-58178142D01*
X162344831Y-58070512D01*
X162385619Y-57972468D01*
X162446730Y-57871119D01*
X162492968Y-57806308D01*
X162586337Y-57695839D01*
X162691147Y-57604319D01*
X162818264Y-57522714D01*
X162863634Y-57498156D01*
X162925189Y-57465405D01*
X162956926Y-57446272D01*
X162961721Y-57437979D01*
X162942449Y-57437747D01*
X162923946Y-57439881D01*
X162876551Y-57451759D01*
X162808693Y-57475944D01*
X162732416Y-57507986D01*
X162704508Y-57520926D01*
X162540757Y-57618920D01*
X162396633Y-57747473D01*
X162273753Y-57903802D01*
X162209964Y-58011775D01*
X162168534Y-58114782D01*
X162145795Y-58225572D01*
X162138081Y-58356895D01*
X162137991Y-58375845D01*
X161513842Y-58375845D01*
X161515371Y-58357492D01*
X161567159Y-58153986D01*
X161651791Y-57956784D01*
X161767444Y-57770253D01*
X161892147Y-57619763D01*
X161942372Y-57562016D01*
X161963565Y-57522422D01*
X161953909Y-57497087D01*
X161950350Y-57495828D01*
X162166361Y-57495828D01*
X162189907Y-57509839D01*
X162254321Y-57508575D01*
X162309111Y-57473352D01*
X162324622Y-57455558D01*
X162351756Y-57403664D01*
X162359528Y-57349546D01*
X162347441Y-57305773D01*
X162331187Y-57290107D01*
X162308820Y-57257981D01*
X162293207Y-57191109D01*
X162290042Y-57165765D01*
X162281558Y-57104141D01*
X162270323Y-57070300D01*
X162252391Y-57055470D01*
X162239014Y-57052347D01*
X162221238Y-57051761D01*
X162209372Y-57060296D01*
X162201759Y-57084295D01*
X162196744Y-57130099D01*
X162192672Y-57204052D01*
X162191275Y-57235212D01*
X162186503Y-57318682D01*
X162180324Y-57391762D01*
X162173679Y-57444552D01*
X162169597Y-57463176D01*
X162166361Y-57495828D01*
X161950350Y-57495828D01*
X161911586Y-57482115D01*
X161834780Y-57473612D01*
X161823600Y-57472870D01*
X161667722Y-57480732D01*
X161514550Y-57522226D01*
X161368152Y-57594434D01*
X161232598Y-57694441D01*
X161111955Y-57819331D01*
X161010292Y-57966185D01*
X160942518Y-58104438D01*
X160899142Y-58245395D01*
X160886203Y-58375862D01*
X160843598Y-58375862D01*
X160843421Y-58370756D01*
X160861695Y-58198857D01*
X160913269Y-58031318D01*
X160994903Y-57874031D01*
X161103357Y-57732891D01*
X161235390Y-57613792D01*
X161274811Y-57586079D01*
X161334323Y-57544525D01*
X161361828Y-57519897D01*
X161357502Y-57511752D01*
X161321525Y-57519647D01*
X161298528Y-57527123D01*
X161193094Y-57576563D01*
X161082606Y-57651396D01*
X160976651Y-57743502D01*
X160884818Y-57844760D01*
X160829444Y-57924392D01*
X160760529Y-58063340D01*
X160716489Y-58203183D01*
X160697699Y-58338475D01*
X160305044Y-58338475D01*
X160323905Y-58253770D01*
X160323397Y-58114811D01*
X160315153Y-58067719D01*
X160301386Y-58015807D01*
X160282803Y-57975801D01*
X160252449Y-57937920D01*
X160203367Y-57892384D01*
X160170632Y-57864531D01*
X160093372Y-57803291D01*
X160039786Y-57769413D01*
X160009500Y-57762704D01*
X160001791Y-57777452D01*
X160014046Y-57799813D01*
X160040310Y-57827740D01*
X160102429Y-57907427D01*
X160142847Y-58010485D01*
X160161328Y-58130672D01*
X160157635Y-58261749D01*
X160131532Y-58397475D01*
X160082783Y-58531608D01*
X160068116Y-58562024D01*
X159992921Y-58687008D01*
X159895372Y-58814468D01*
X159786124Y-58931132D01*
X159733693Y-58978523D01*
X159672485Y-59031440D01*
X159639129Y-59063263D01*
X159632764Y-59075551D01*
X158586003Y-59075551D01*
X158639444Y-59026573D01*
X158635166Y-58887227D01*
X158622024Y-58749281D01*
X158599020Y-58640542D01*
X158850470Y-58640542D01*
X158877536Y-58720232D01*
X158897081Y-58748070D01*
X158936118Y-58784260D01*
X158973523Y-58803419D01*
X158980823Y-58804332D01*
X159004462Y-58799848D01*
X159009268Y-58779495D01*
X159002056Y-58744901D01*
X158993956Y-58693085D01*
X158989330Y-58623335D01*
X158989158Y-58604285D01*
X159014318Y-58604285D01*
X159025800Y-58671134D01*
X159055191Y-58735440D01*
X159094910Y-58781371D01*
X159101178Y-58785629D01*
X159157910Y-58801164D01*
X159231205Y-58793663D01*
X159311071Y-58765242D01*
X159374526Y-58727759D01*
X159477221Y-58634216D01*
X159552004Y-58519623D01*
X159588964Y-58426205D01*
X159608603Y-58322932D01*
X159600353Y-58236390D01*
X159567997Y-58169891D01*
X159515315Y-58126745D01*
X159446087Y-58110265D01*
X159364095Y-58123763D01*
X159286781Y-58161537D01*
X159199607Y-58232120D01*
X159123000Y-58322753D01*
X159062787Y-58423963D01*
X159024797Y-58526279D01*
X159014318Y-58604285D01*
X158989158Y-58604285D01*
X158988899Y-58575469D01*
X159001787Y-58470870D01*
X159038824Y-58371015D01*
X159103592Y-58267649D01*
X159145390Y-58214592D01*
X159183801Y-58162815D01*
X159194561Y-58134408D01*
X159178734Y-58130093D01*
X159137384Y-58150589D01*
X159094123Y-58179868D01*
X159001485Y-58261202D01*
X158928813Y-58353666D01*
X158878096Y-58451530D01*
X158851319Y-58549065D01*
X158850470Y-58640542D01*
X158599020Y-58640542D01*
X158592876Y-58611499D01*
X158550717Y-58483228D01*
X158498539Y-58373813D01*
X158447520Y-58301453D01*
X158417187Y-58256855D01*
X158402588Y-58223735D01*
X158379306Y-58192625D01*
X158344360Y-58182337D01*
X158313463Y-58196615D01*
X158309816Y-58201638D01*
X156866949Y-58201638D01*
X156886644Y-58143993D01*
X156906418Y-58086202D01*
X158612014Y-58086202D01*
X158625287Y-58087423D01*
X158660216Y-58071098D01*
X158709460Y-58041973D01*
X158765680Y-58004793D01*
X158821537Y-57964305D01*
X158869693Y-57925253D01*
X158889742Y-57906604D01*
X158975884Y-57801295D01*
X159041804Y-57681498D01*
X159085489Y-57554666D01*
X159104926Y-57428252D01*
X159098101Y-57309706D01*
X159073234Y-57227459D01*
X159032405Y-57159197D01*
X158972852Y-57107508D01*
X158951337Y-57094174D01*
X158892800Y-57063660D01*
X158861387Y-57056210D01*
X158857699Y-57071554D01*
X158882341Y-57109425D01*
X158891608Y-57120734D01*
X158938893Y-57192112D01*
X158966260Y-57274295D01*
X158975879Y-57376026D01*
X158973904Y-57452347D01*
X158950480Y-57599309D01*
X158896490Y-57736755D01*
X158809752Y-57869204D01*
X158727649Y-57962116D01*
X158676738Y-58014866D01*
X158637262Y-58056859D01*
X158614948Y-58081949D01*
X158612014Y-58086202D01*
X156906418Y-58086202D01*
X156954564Y-57945490D01*
X156991174Y-57838739D01*
X157569681Y-57838739D01*
X157580611Y-57863648D01*
X157618219Y-57871672D01*
X157623026Y-57871719D01*
X157645322Y-57870316D01*
X157662845Y-57862384D01*
X157678788Y-57842338D01*
X157692608Y-57812620D01*
X157773195Y-57812620D01*
X157776107Y-57842241D01*
X157789715Y-57857749D01*
X157793691Y-57859608D01*
X157810078Y-57865796D01*
X157826796Y-57868814D01*
X157852220Y-57868358D01*
X157894722Y-57864124D01*
X157962677Y-57855810D01*
X157988834Y-57852530D01*
X158067865Y-57840050D01*
X158139682Y-57824234D01*
X158191167Y-57808073D01*
X158198649Y-57804674D01*
X158289836Y-57743801D01*
X158354399Y-57668946D01*
X158388337Y-57585497D01*
X158392575Y-57543470D01*
X158380552Y-57492304D01*
X158350838Y-57446040D01*
X158312971Y-57417544D01*
X158296571Y-57413957D01*
X158267899Y-57411359D01*
X158214422Y-57405108D01*
X158147567Y-57396542D01*
X158145707Y-57396294D01*
X158071743Y-57388997D01*
X158004000Y-57386664D01*
X157959895Y-57389479D01*
X157933851Y-57395943D01*
X157913807Y-57408827D01*
X157895824Y-57434522D01*
X157875963Y-57479420D01*
X157850284Y-57549910D01*
X157836461Y-57589714D01*
X157802590Y-57691293D01*
X157781762Y-57763950D01*
X157773195Y-57812620D01*
X157692608Y-57812620D01*
X157696340Y-57804594D01*
X157718692Y-57743567D01*
X157749035Y-57653673D01*
X157751032Y-57647682D01*
X157779159Y-57561588D01*
X157802442Y-57487100D01*
X157818660Y-57431564D01*
X157825590Y-57402325D01*
X157825693Y-57400814D01*
X157811222Y-57383157D01*
X157777805Y-57378781D01*
X157740433Y-57387336D01*
X157717705Y-57403326D01*
X157702645Y-57431922D01*
X157680421Y-57486432D01*
X157654158Y-57557672D01*
X157626976Y-57636459D01*
X157601998Y-57713610D01*
X157582346Y-57779940D01*
X157571142Y-57826267D01*
X157569681Y-57838739D01*
X156991174Y-57838739D01*
X157012498Y-57776559D01*
X157061327Y-57634670D01*
X157101932Y-57517292D01*
X157135195Y-57421894D01*
X157161998Y-57345944D01*
X157183222Y-57286913D01*
X157199749Y-57242268D01*
X157212460Y-57209480D01*
X157220396Y-57190269D01*
X157273194Y-57099918D01*
X157343270Y-57027094D01*
X157421904Y-56980424D01*
X157438064Y-56974936D01*
X157479977Y-56968751D01*
X157558326Y-56964137D01*
X157673008Y-56961098D01*
X157823921Y-56959634D01*
X158010961Y-56959749D01*
G37*
D13*
%TO.C,J1*%
X158883000Y-63290000D02*
X160213000Y-63290000D01*
X158883000Y-64620000D02*
X158883000Y-63290000D01*
X158883000Y-65890000D02*
X158883000Y-73570000D01*
X158883000Y-65890000D02*
X161543000Y-65890000D01*
X158883000Y-73570000D02*
X161543000Y-73570000D01*
X161543000Y-65890000D02*
X161543000Y-73570000D01*
%TD*%
M02*
