%TF.GenerationSoftware,KiCad,Pcbnew,8.0.4*%
%TF.CreationDate,2025-02-28T20:51:30+01:00*%
%TF.ProjectId,Lochraster,4c6f6368-7261-4737-9465-722e6b696361,rev?*%
%TF.SameCoordinates,Original*%
%TF.FileFunction,Copper,L1,Top*%
%TF.FilePolarity,Positive*%
%FSLAX46Y46*%
G04 Gerber Fmt 4.6, Leading zero omitted, Abs format (unit mm)*
G04 Created by KiCad (PCBNEW 8.0.4) date 2025-02-28 20:51:30*
%MOMM*%
%LPD*%
G01*
G04 APERTURE LIST*
%TA.AperFunction,WasherPad*%
%ADD10C,2.000000*%
%TD*%
%TA.AperFunction,ComponentPad*%
%ADD11R,1.700000X1.700000*%
%TD*%
%TA.AperFunction,ComponentPad*%
%ADD12O,1.700000X1.700000*%
%TD*%
%TA.AperFunction,ComponentPad*%
%ADD13O,1.727200X1.727200*%
%TD*%
%TA.AperFunction,ComponentPad*%
%ADD14R,1.727200X1.727200*%
%TD*%
%TA.AperFunction,ViaPad*%
%ADD15C,0.800000*%
%TD*%
%TA.AperFunction,Conductor*%
%ADD16C,1.000000*%
%TD*%
%TA.AperFunction,Conductor*%
%ADD17C,0.400000*%
%TD*%
G04 APERTURE END LIST*
D10*
%TO.P,REF\u002A\u002A,*%
%TO.N,*%
X195773000Y-62080000D03*
X195773000Y-64620000D03*
X195773000Y-67160000D03*
X195773000Y-69700000D03*
X195773000Y-72240000D03*
X195773000Y-74780000D03*
X195773000Y-77320000D03*
X195773000Y-79860000D03*
X195773000Y-82400000D03*
X195773000Y-84940000D03*
X195773000Y-87480000D03*
X195773000Y-90020000D03*
X195773000Y-92560000D03*
X195773000Y-95100000D03*
X195773000Y-97640000D03*
%TD*%
D11*
%TO.P,J6,1,Pin_1*%
%TO.N,Net-(J6-Pin_1)*%
X167833000Y-59545000D03*
D12*
%TO.P,J6,2,Pin_2*%
%TO.N,Net-(J6-Pin_2)*%
X170373000Y-59545000D03*
%TO.P,J6,3,Pin_3*%
%TO.N,Net-(J6-Pin_3)*%
X172913000Y-59545000D03*
%TO.P,J6,4,Pin_4*%
%TO.N,Net-(J6-Pin_4)*%
X175453000Y-59545000D03*
%TD*%
D11*
%TO.P,J7,1,Pin_1*%
%TO.N,Net-(J7-Pin_1)*%
X198313000Y-59570000D03*
D12*
%TO.P,J7,2,Pin_2*%
%TO.N,Net-(J7-Pin_2)*%
X195773000Y-59570000D03*
%TO.P,J7,3,Pin_3*%
%TO.N,Net-(J7-Pin_3)*%
X193233000Y-59570000D03*
%TO.P,J7,4,Pin_4*%
%TO.N,Net-(J7-Pin_4)*%
X190693000Y-59570000D03*
%TO.P,J7,5,Pin_5*%
%TO.N,Net-(J7-Pin_5)*%
X188153000Y-59570000D03*
%TO.P,J7,6,Pin_6*%
%TO.N,Net-(J7-Pin_6)*%
X185613000Y-59570000D03*
%TO.P,J7,7,Pin_7*%
%TO.N,Net-(J7-Pin_7)*%
X183073000Y-59570000D03*
%TO.P,J7,8,Pin_8*%
%TO.N,Net-(J7-Pin_8)*%
X180533000Y-59570000D03*
%TD*%
D10*
%TO.P,REF\u002A\u002A,*%
%TO.N,*%
X172913000Y-62080000D03*
X172913000Y-64620000D03*
X172913000Y-67160000D03*
X172913000Y-69700000D03*
X172913000Y-72240000D03*
X172913000Y-74780000D03*
X172913000Y-77320000D03*
X172913000Y-79860000D03*
X172913000Y-82400000D03*
X172913000Y-84940000D03*
X172913000Y-87480000D03*
X172913000Y-90020000D03*
X172913000Y-92560000D03*
X172913000Y-95100000D03*
X172913000Y-97640000D03*
%TD*%
%TO.P,REF\u002A\u002A,*%
%TO.N,*%
X177993000Y-62080000D03*
X177993000Y-64620000D03*
X177993000Y-67160000D03*
X177993000Y-69700000D03*
X177993000Y-72240000D03*
X177993000Y-74780000D03*
X177993000Y-77320000D03*
X177993000Y-79860000D03*
X177993000Y-82400000D03*
X177993000Y-84940000D03*
X177993000Y-87480000D03*
X177993000Y-90020000D03*
X177993000Y-92560000D03*
X177993000Y-95100000D03*
X177993000Y-97640000D03*
%TD*%
%TO.P,REF\u002A\u002A,*%
%TO.N,*%
X167833000Y-62080000D03*
X167833000Y-64620000D03*
X167833000Y-67160000D03*
X167833000Y-69700000D03*
X167833000Y-72240000D03*
X167833000Y-74780000D03*
X167833000Y-77320000D03*
X167833000Y-79860000D03*
X167833000Y-82400000D03*
X167833000Y-84940000D03*
X167833000Y-87480000D03*
X167833000Y-90020000D03*
X167833000Y-92560000D03*
X167833000Y-95100000D03*
X167833000Y-97640000D03*
%TD*%
%TO.P,REF\u002A\u002A,*%
%TO.N,*%
X198313000Y-62080000D03*
X198313000Y-64620000D03*
X198313000Y-67160000D03*
X198313000Y-69700000D03*
X198313000Y-72240000D03*
X198313000Y-74780000D03*
X198313000Y-77320000D03*
X198313000Y-79860000D03*
X198313000Y-82400000D03*
X198313000Y-84940000D03*
X198313000Y-87480000D03*
X198313000Y-90020000D03*
X198313000Y-92560000D03*
X198313000Y-95100000D03*
X198313000Y-97640000D03*
%TD*%
D11*
%TO.P,J2,1,Pin_1*%
%TO.N,Net-(J2-Pin_1)*%
X200853000Y-97670000D03*
D12*
%TO.P,J2,2,Pin_2*%
%TO.N,Net-(J2-Pin_2)*%
X203393000Y-97670000D03*
%TO.P,J2,3,Pin_3*%
%TO.N,Net-(J2-Pin_3)*%
X200853000Y-95130000D03*
%TO.P,J2,4,Pin_4*%
%TO.N,Net-(J2-Pin_4)*%
X203393000Y-95130000D03*
%TO.P,J2,5,Pin_5*%
%TO.N,Net-(J2-Pin_5)*%
X200853000Y-92590000D03*
%TO.P,J2,6,Pin_6*%
%TO.N,Net-(J2-Pin_6)*%
X203393000Y-92590000D03*
%TO.P,J2,7,Pin_7*%
%TO.N,Net-(J2-Pin_7)*%
X200853000Y-90050000D03*
%TO.P,J2,8,Pin_8*%
%TO.N,Net-(J2-Pin_8)*%
X203393000Y-90050000D03*
%TO.P,J2,9,Pin_9*%
%TO.N,Net-(J2-Pin_9)*%
X200853000Y-87510000D03*
%TO.P,J2,10,Pin_10*%
%TO.N,Net-(J2-Pin_10)*%
X203393000Y-87510000D03*
%TO.P,J2,11,Pin_11*%
%TO.N,Net-(J2-Pin_11)*%
X200853000Y-84970000D03*
%TO.P,J2,12,Pin_12*%
%TO.N,Net-(J2-Pin_12)*%
X203393000Y-84970000D03*
%TO.P,J2,13,Pin_13*%
%TO.N,Net-(J2-Pin_13)*%
X200853000Y-82430000D03*
%TO.P,J2,14,Pin_14*%
%TO.N,Net-(J2-Pin_14)*%
X203393000Y-82430000D03*
%TO.P,J2,15,Pin_15*%
%TO.N,Net-(J2-Pin_15)*%
X200853000Y-79890000D03*
%TO.P,J2,16,Pin_16*%
%TO.N,Net-(J2-Pin_16)*%
X203393000Y-79890000D03*
%TO.P,J2,17,Pin_17*%
%TO.N,Net-(J2-Pin_17)*%
X200853000Y-77350000D03*
%TO.P,J2,18,Pin_18*%
%TO.N,Net-(J2-Pin_18)*%
X203393000Y-77350000D03*
%TO.P,J2,19,Pin_19*%
%TO.N,Net-(J2-Pin_19)*%
X200853000Y-74810000D03*
%TO.P,J2,20,Pin_20*%
%TO.N,Net-(J2-Pin_20)*%
X203393000Y-74810000D03*
%TO.P,J2,21,Pin_21*%
%TO.N,Net-(J2-Pin_21)*%
X200853000Y-72270000D03*
%TO.P,J2,22,Pin_22*%
%TO.N,Net-(J2-Pin_22)*%
X203393000Y-72270000D03*
%TO.P,J2,23,Pin_23*%
%TO.N,Net-(J2-Pin_23)*%
X200853000Y-69730000D03*
%TO.P,J2,24,Pin_24*%
%TO.N,Net-(J2-Pin_24)*%
X203393000Y-69730000D03*
%TO.P,J2,25,Pin_25*%
%TO.N,Net-(J2-Pin_25)*%
X200853000Y-67190000D03*
%TO.P,J2,26,Pin_26*%
%TO.N,Net-(J2-Pin_26)*%
X203393000Y-67190000D03*
%TO.P,J2,27,Pin_27*%
%TO.N,Net-(J2-Pin_27)*%
X200853000Y-64650000D03*
%TO.P,J2,28,Pin_28*%
%TO.N,Net-(J2-Pin_28)*%
X203393000Y-64650000D03*
%TO.P,J2,29,Pin_29*%
%TO.N,Net-(J2-Pin_29)*%
X200853000Y-62110000D03*
%TO.P,J2,30,Pin_30*%
%TO.N,Net-(J2-Pin_30)*%
X203393000Y-62110000D03*
%TO.P,J2,31,Pin_31*%
%TO.N,Net-(J2-Pin_31)*%
X200853000Y-59570000D03*
%TO.P,J2,32,Pin_32*%
%TO.N,Net-(J2-Pin_32)*%
X203393000Y-59570000D03*
%TD*%
D10*
%TO.P,REF\u002A\u002A,*%
%TO.N,*%
X193233000Y-62080000D03*
X193233000Y-64620000D03*
X193233000Y-67160000D03*
X193233000Y-69700000D03*
X193233000Y-72240000D03*
X193233000Y-74780000D03*
X193233000Y-77320000D03*
X193233000Y-79860000D03*
X193233000Y-82400000D03*
X193233000Y-84940000D03*
X193233000Y-87480000D03*
X193233000Y-90020000D03*
X193233000Y-92560000D03*
X193233000Y-95100000D03*
X193233000Y-97640000D03*
%TD*%
D11*
%TO.P,J8,1,Pin_1*%
%TO.N,Net-(J1-Pin_4)*%
X162753000Y-97670000D03*
D12*
%TO.P,J8,2,Pin_2*%
%TO.N,Net-(J1-Pin_3)*%
X162753000Y-95130000D03*
%TO.P,J8,3,Pin_3*%
%TO.N,Net-(J1-Pin_2)*%
X162753000Y-92590000D03*
%TO.P,J8,4,Pin_4*%
%TO.N,Net-(J1-Pin_1)*%
X162753000Y-90050000D03*
%TD*%
D11*
%TO.P,J5,1,Pin_1*%
%TO.N,Net-(J5-Pin_1)*%
X185628000Y-100185000D03*
D12*
%TO.P,J5,2,Pin_2*%
%TO.N,Net-(J5-Pin_2)*%
X188168000Y-100185000D03*
%TO.P,J5,3,Pin_3*%
%TO.N,Net-(J5-Pin_3)*%
X190708000Y-100185000D03*
%TO.P,J5,4,Pin_4*%
%TO.N,Net-(J5-Pin_4)*%
X193248000Y-100185000D03*
%TO.P,J5,5,Pin_5*%
%TO.N,Net-(J5-Pin_5)*%
X195788000Y-100185000D03*
%TO.P,J5,6,Pin_6*%
%TO.N,Net-(J5-Pin_6)*%
X198328000Y-100185000D03*
%TO.P,J5,7,Pin_7*%
%TO.N,Net-(J5-Pin_7)*%
X200868000Y-100185000D03*
%TO.P,J5,8,Pin_8*%
%TO.N,Net-(J5-Pin_8)*%
X203408000Y-100185000D03*
%TD*%
D10*
%TO.P,REF\u002A\u002A,*%
%TO.N,*%
X188153000Y-62080000D03*
X188153000Y-64620000D03*
X188153000Y-67160000D03*
X188153000Y-69700000D03*
X188153000Y-72240000D03*
X188153000Y-74780000D03*
X188153000Y-77320000D03*
X188153000Y-79860000D03*
X188153000Y-82400000D03*
X188153000Y-84940000D03*
X188153000Y-87480000D03*
X188153000Y-90020000D03*
X188153000Y-92560000D03*
X188153000Y-95100000D03*
X188153000Y-97640000D03*
%TD*%
%TO.P,REF\u002A\u002A,*%
%TO.N,*%
X165293000Y-62080000D03*
X165293000Y-64620000D03*
X165293000Y-67160000D03*
X165293000Y-69700000D03*
X165293000Y-72240000D03*
X165293000Y-74780000D03*
X165293000Y-77320000D03*
X165293000Y-79860000D03*
X165293000Y-82400000D03*
X165293000Y-84940000D03*
X165293000Y-87480000D03*
X165293000Y-90020000D03*
X165293000Y-92560000D03*
X165293000Y-95100000D03*
X165293000Y-97640000D03*
%TD*%
D11*
%TO.P,J4,1,Pin_1*%
%TO.N,Net-(J4-Pin_1)*%
X165293000Y-100210000D03*
D12*
%TO.P,J4,2,Pin_2*%
%TO.N,Net-(J4-Pin_2)*%
X167833000Y-100210000D03*
%TO.P,J4,3,Pin_3*%
%TO.N,Net-(J4-Pin_3)*%
X170373000Y-100210000D03*
%TO.P,J4,4,Pin_4*%
%TO.N,Net-(J4-Pin_4)*%
X172913000Y-100210000D03*
%TO.P,J4,5,Pin_5*%
%TO.N,Net-(J4-Pin_5)*%
X175453000Y-100210000D03*
%TO.P,J4,6,Pin_6*%
%TO.N,Net-(J4-Pin_6)*%
X177993000Y-100210000D03*
%TO.P,J4,7,Pin_7*%
%TO.N,Net-(J4-Pin_7)*%
X180533000Y-100210000D03*
%TD*%
D11*
%TO.P,J9,1,Pin_1*%
%TO.N,Net-(J1-Pin_4)*%
X162753000Y-84970000D03*
D12*
%TO.P,J9,2,Pin_2*%
%TO.N,Net-(J1-Pin_3)*%
X162753000Y-82430000D03*
%TO.P,J9,3,Pin_3*%
%TO.N,Net-(J1-Pin_2)*%
X162753000Y-79890000D03*
%TO.P,J9,4,Pin_4*%
%TO.N,Net-(J1-Pin_1)*%
X162753000Y-77350000D03*
%TD*%
D10*
%TO.P,REF\u002A\u002A,*%
%TO.N,*%
X190693000Y-62080000D03*
X190693000Y-64620000D03*
X190693000Y-67160000D03*
X190693000Y-69700000D03*
X190693000Y-72240000D03*
X190693000Y-74780000D03*
X190693000Y-77320000D03*
X190693000Y-79860000D03*
X190693000Y-82400000D03*
X190693000Y-84940000D03*
X190693000Y-87480000D03*
X190693000Y-90020000D03*
X190693000Y-92560000D03*
X190693000Y-95100000D03*
X190693000Y-97640000D03*
%TD*%
%TO.P,REF\u002A\u002A,*%
%TO.N,*%
X170373000Y-62080000D03*
X170373000Y-64620000D03*
X170373000Y-67160000D03*
X170373000Y-69700000D03*
X170373000Y-72240000D03*
X170373000Y-74780000D03*
X170373000Y-77320000D03*
X170373000Y-79860000D03*
X170373000Y-82400000D03*
X170373000Y-84940000D03*
X170373000Y-87480000D03*
X170373000Y-90020000D03*
X170373000Y-92560000D03*
X170373000Y-95100000D03*
X170373000Y-97640000D03*
%TD*%
D11*
%TO.P,J1,1,Pin_1*%
%TO.N,Net-(J1-Pin_1)*%
X160213000Y-64620000D03*
D12*
%TO.P,J1,2,Pin_2*%
%TO.N,Net-(J1-Pin_2)*%
X160213000Y-67160000D03*
%TO.P,J1,3,Pin_3*%
%TO.N,Net-(J1-Pin_3)*%
X160213000Y-69700000D03*
%TO.P,J1,4,Pin_4*%
%TO.N,Net-(J1-Pin_4)*%
X160213000Y-72240000D03*
%TD*%
D10*
%TO.P,REF\u002A\u002A,*%
%TO.N,*%
X185613000Y-62080000D03*
X185613000Y-64620000D03*
X185613000Y-67160000D03*
X185613000Y-69700000D03*
X185613000Y-72240000D03*
X185613000Y-74780000D03*
X185613000Y-77320000D03*
X185613000Y-79860000D03*
X185613000Y-82400000D03*
X185613000Y-84940000D03*
X185613000Y-87480000D03*
X185613000Y-90020000D03*
X185613000Y-92560000D03*
X185613000Y-95100000D03*
X185613000Y-97640000D03*
%TD*%
%TO.P,REF\u002A\u002A,*%
%TO.N,*%
X180533000Y-62080000D03*
X180533000Y-64620000D03*
X180533000Y-67160000D03*
X180533000Y-69700000D03*
X180533000Y-72240000D03*
X180533000Y-74780000D03*
X180533000Y-77320000D03*
X180533000Y-79860000D03*
X180533000Y-82400000D03*
X180533000Y-84940000D03*
X180533000Y-87480000D03*
X180533000Y-90020000D03*
X180533000Y-92560000D03*
X180533000Y-95100000D03*
X180533000Y-97640000D03*
%TD*%
D11*
%TO.P,J3,1,Pin_1*%
%TO.N,Net-(J1-Pin_4)*%
X162753000Y-72270000D03*
D12*
%TO.P,J3,2,Pin_2*%
%TO.N,Net-(J1-Pin_3)*%
X162753000Y-69730000D03*
%TO.P,J3,3,Pin_3*%
%TO.N,Net-(J1-Pin_2)*%
X162753000Y-67190000D03*
%TO.P,J3,4,Pin_4*%
%TO.N,Net-(J1-Pin_1)*%
X162753000Y-64650000D03*
%TD*%
D13*
%TO.P,XA1,5V3,5V*%
%TO.N,unconnected-(XA1-5V-Pad5V3)*%
X205933000Y-54460000D03*
%TO.P,XA1,5V4,5V*%
%TO.N,unconnected-(XA1-5V-Pad5V4)*%
X208473000Y-54460000D03*
%TO.P,XA1,A1,A1*%
%TO.N,Net-(J4-Pin_1)*%
X165293000Y-102720000D03*
%TO.P,XA1,A2,A2*%
%TO.N,Net-(J4-Pin_2)*%
X167833000Y-102720000D03*
%TO.P,XA1,A3,A3*%
%TO.N,Net-(J4-Pin_3)*%
X170373000Y-102720000D03*
%TO.P,XA1,A4,A4*%
%TO.N,Net-(J4-Pin_4)*%
X172913000Y-102720000D03*
%TO.P,XA1,A5,A5*%
%TO.N,Net-(J4-Pin_5)*%
X175453000Y-102720000D03*
%TO.P,XA1,A6,A6*%
%TO.N,Net-(J4-Pin_6)*%
X177993000Y-102720000D03*
%TO.P,XA1,A7,A7*%
%TO.N,Net-(J4-Pin_7)*%
X180533000Y-102720000D03*
%TO.P,XA1,A8,A8*%
%TO.N,Net-(J5-Pin_1)*%
X185613000Y-102720000D03*
%TO.P,XA1,A9,A9*%
%TO.N,Net-(J5-Pin_2)*%
X188153000Y-102720000D03*
%TO.P,XA1,A10,A10*%
%TO.N,Net-(J5-Pin_3)*%
X190693000Y-102720000D03*
%TO.P,XA1,A11,A11*%
%TO.N,Net-(J5-Pin_4)*%
X193233000Y-102720000D03*
%TO.P,XA1,A12,A12*%
%TO.N,Net-(J5-Pin_5)*%
X195773000Y-102720000D03*
%TO.P,XA1,A13,A13*%
%TO.N,Net-(J5-Pin_6)*%
X198313000Y-102720000D03*
%TO.P,XA1,A14,A14*%
%TO.N,Net-(J5-Pin_7)*%
X200853000Y-102720000D03*
%TO.P,XA1,A15,A15*%
%TO.N,Net-(J5-Pin_8)*%
X203393000Y-102720000D03*
%TO.P,XA1,D0,D0/RX0*%
%TO.N,Net-(J6-Pin_4)*%
X175453000Y-54460000D03*
%TO.P,XA1,D1,D1/TX0*%
%TO.N,Net-(J6-Pin_3)*%
X172913000Y-54460000D03*
%TO.P,XA1,D2,D2_INT0*%
%TO.N,Net-(J6-Pin_2)*%
X170373000Y-54460000D03*
%TO.P,XA1,D3,D3_INT1*%
%TO.N,Net-(J6-Pin_1)*%
X167833000Y-54460000D03*
%TO.P,XA1,D14,D14/TX3*%
%TO.N,Net-(J7-Pin_8)*%
X180533000Y-54460000D03*
%TO.P,XA1,D15,D15/RX3*%
%TO.N,Net-(J7-Pin_7)*%
X183073000Y-54460000D03*
%TO.P,XA1,D16,D16/TX2*%
%TO.N,Net-(J7-Pin_6)*%
X185613000Y-54460000D03*
%TO.P,XA1,D17,D17/RX2*%
%TO.N,Net-(J7-Pin_5)*%
X188153000Y-54460000D03*
%TO.P,XA1,D18,D18/TX1*%
%TO.N,Net-(J7-Pin_4)*%
X190693000Y-54460000D03*
%TO.P,XA1,D19,D19/RX1*%
%TO.N,Net-(J7-Pin_3)*%
X193233000Y-54460000D03*
%TO.P,XA1,D20,D20/SDA*%
%TO.N,Net-(J7-Pin_2)*%
X195773000Y-54460000D03*
%TO.P,XA1,D21,D21/SCL*%
%TO.N,Net-(J7-Pin_1)*%
X198313000Y-54460000D03*
%TO.P,XA1,D22,D22*%
%TO.N,Net-(J2-Pin_32)*%
X205933000Y-57000000D03*
%TO.P,XA1,D23,D23*%
%TO.N,Net-(J2-Pin_31)*%
X208473000Y-57000000D03*
%TO.P,XA1,D24,D24*%
%TO.N,Net-(J2-Pin_30)*%
X205933000Y-59540000D03*
%TO.P,XA1,D25,D25*%
%TO.N,Net-(J2-Pin_29)*%
X208473000Y-59540000D03*
%TO.P,XA1,D26,D26*%
%TO.N,Net-(J2-Pin_28)*%
X205933000Y-62080000D03*
%TO.P,XA1,D27,D27*%
%TO.N,Net-(J2-Pin_27)*%
X208473000Y-62080000D03*
%TO.P,XA1,D28,D28*%
%TO.N,Net-(J2-Pin_26)*%
X205933000Y-64620000D03*
%TO.P,XA1,D29,D29*%
%TO.N,Net-(J2-Pin_25)*%
X208473000Y-64620000D03*
%TO.P,XA1,D30,D30*%
%TO.N,Net-(J2-Pin_24)*%
X205933000Y-67160000D03*
%TO.P,XA1,D31,D31*%
%TO.N,Net-(J2-Pin_23)*%
X208473000Y-67160000D03*
%TO.P,XA1,D32,D32*%
%TO.N,Net-(J2-Pin_22)*%
X205933000Y-69700000D03*
%TO.P,XA1,D33,D33*%
%TO.N,Net-(J2-Pin_21)*%
X208473000Y-69700000D03*
%TO.P,XA1,D34,D34*%
%TO.N,Net-(J2-Pin_20)*%
X205933000Y-72240000D03*
%TO.P,XA1,D35,D35*%
%TO.N,Net-(J2-Pin_19)*%
X208473000Y-72240000D03*
%TO.P,XA1,D36,D36*%
%TO.N,Net-(J2-Pin_18)*%
X205933000Y-74780000D03*
%TO.P,XA1,D37,D37*%
%TO.N,Net-(J2-Pin_17)*%
X208473000Y-74780000D03*
%TO.P,XA1,D38,D38*%
%TO.N,Net-(J2-Pin_16)*%
X205933000Y-77320000D03*
%TO.P,XA1,D39,D39*%
%TO.N,Net-(J2-Pin_15)*%
X208473000Y-77320000D03*
%TO.P,XA1,D40,D40*%
%TO.N,Net-(J2-Pin_14)*%
X205933000Y-79860000D03*
%TO.P,XA1,D41,D41*%
%TO.N,Net-(J2-Pin_13)*%
X208473000Y-79860000D03*
%TO.P,XA1,D42,D42*%
%TO.N,Net-(J2-Pin_12)*%
X205933000Y-82400000D03*
%TO.P,XA1,D43,D43*%
%TO.N,Net-(J2-Pin_11)*%
X208473000Y-82400000D03*
%TO.P,XA1,D44,D44*%
%TO.N,Net-(J2-Pin_10)*%
X205933000Y-84940000D03*
%TO.P,XA1,D45,D45*%
%TO.N,Net-(J2-Pin_9)*%
X208473000Y-84940000D03*
%TO.P,XA1,D46,D46*%
%TO.N,Net-(J2-Pin_8)*%
X205933000Y-87480000D03*
%TO.P,XA1,D47,D47*%
%TO.N,Net-(J2-Pin_7)*%
X208473000Y-87480000D03*
%TO.P,XA1,D48,D48*%
%TO.N,Net-(J2-Pin_6)*%
X205933000Y-90020000D03*
%TO.P,XA1,D49,D49*%
%TO.N,Net-(J2-Pin_5)*%
X208473000Y-90020000D03*
%TO.P,XA1,D50,D50_MISO*%
%TO.N,Net-(J2-Pin_4)*%
X205933000Y-92560000D03*
%TO.P,XA1,D51,D51_MOSI*%
%TO.N,Net-(J2-Pin_3)*%
X208473000Y-92560000D03*
%TO.P,XA1,D52,D52_SCK*%
%TO.N,Net-(J2-Pin_2)*%
X205933000Y-95100000D03*
%TO.P,XA1,D53,D53_CS*%
%TO.N,Net-(J2-Pin_1)*%
X208473000Y-95100000D03*
D14*
%TO.P,XA1,GND5,GND*%
%TO.N,unconnected-(XA1-GND-PadGND5)*%
X205933000Y-97640000D03*
%TO.P,XA1,GND6,GND*%
%TO.N,unconnected-(XA1-GND-PadGND6)*%
X208473000Y-97640000D03*
%TD*%
D10*
%TO.P,REF\u002A\u002A,*%
%TO.N,*%
X175453000Y-62080000D03*
X175453000Y-64620000D03*
X175453000Y-67160000D03*
X175453000Y-69700000D03*
X175453000Y-72240000D03*
X175453000Y-74780000D03*
X175453000Y-77320000D03*
X175453000Y-79860000D03*
X175453000Y-82400000D03*
X175453000Y-84940000D03*
X175453000Y-87480000D03*
X175453000Y-90020000D03*
X175453000Y-92560000D03*
X175453000Y-95100000D03*
X175453000Y-97640000D03*
%TD*%
%TO.P,REF\u002A\u002A,*%
%TO.N,*%
X183073000Y-62080000D03*
X183073000Y-64620000D03*
X183073000Y-67160000D03*
X183073000Y-69700000D03*
X183073000Y-72240000D03*
X183073000Y-74780000D03*
X183073000Y-77320000D03*
X183073000Y-79860000D03*
X183073000Y-82400000D03*
X183073000Y-84940000D03*
X183073000Y-87480000D03*
X183073000Y-90020000D03*
X183073000Y-92560000D03*
X183073000Y-95100000D03*
X183073000Y-97640000D03*
%TD*%
D15*
%TO.N,Net-(J1-Pin_1)*%
X156933000Y-90050000D03*
%TO.N,Net-(J1-Pin_2)*%
X159578000Y-92560000D03*
X160707001Y-76050000D03*
%TO.N,Net-(J1-Pin_3)*%
X158308000Y-95100000D03*
X158307502Y-82400000D03*
%TO.N,Net-(J1-Pin_4)*%
X157927000Y-63096000D03*
X160990676Y-81200500D03*
%TD*%
D16*
%TO.N,Net-(J1-Pin_1)*%
X162753000Y-64650000D02*
X160243000Y-64650000D01*
X159548000Y-77350000D02*
X159816650Y-77350000D01*
X160243000Y-64650000D02*
X160213000Y-64620000D01*
X157463499Y-67369501D02*
X157463499Y-74996849D01*
X157463499Y-74996849D02*
X158729825Y-76263175D01*
X160213000Y-64620000D02*
X157463499Y-67369501D01*
X159816650Y-77350000D02*
X162753000Y-77350000D01*
X158729825Y-76263175D02*
X159816650Y-77350000D01*
X156933000Y-90050000D02*
X156933000Y-79965000D01*
X156933000Y-79965000D02*
X159548000Y-77350000D01*
%TO.N,Net-(J1-Pin_2)*%
X160183000Y-79890000D02*
X159578000Y-80495000D01*
X159578000Y-80495000D02*
X159578000Y-92560000D01*
X160213000Y-67160000D02*
X158663000Y-68710000D01*
X158663000Y-74005999D02*
X160707001Y-76050000D01*
X160213000Y-67160000D02*
X162723000Y-67160000D01*
X162753000Y-79890000D02*
X160183000Y-79890000D01*
X158663000Y-68710000D02*
X158663000Y-74005999D01*
X162723000Y-67160000D02*
X162753000Y-67190000D01*
%TO.N,Net-(J1-Pin_3)*%
X162723000Y-69700000D02*
X162753000Y-69730000D01*
X160213000Y-69700000D02*
X162723000Y-69700000D01*
X158307502Y-95099502D02*
X158307502Y-82400000D01*
X158308000Y-95100000D02*
X158307502Y-95099502D01*
%TO.N,Net-(J1-Pin_4)*%
X162723000Y-72240000D02*
X162753000Y-72270000D01*
X160990676Y-83207676D02*
X160990676Y-81200500D01*
X162753000Y-84970000D02*
X160848000Y-86875000D01*
X160213000Y-72240000D02*
X162723000Y-72240000D01*
X162753000Y-84970000D02*
X160990676Y-83207676D01*
X160848000Y-95765000D02*
X162753000Y-97670000D01*
X160848000Y-86875000D02*
X160848000Y-95765000D01*
D17*
%TO.N,Net-(J2-Pin_1)*%
X204725800Y-96363600D02*
X207209400Y-96363600D01*
X202103000Y-96420000D02*
X204669400Y-96420000D01*
X200853000Y-97670000D02*
X202103000Y-96420000D01*
X204669400Y-96420000D02*
X204725800Y-96363600D01*
X207209400Y-96363600D02*
X208473000Y-95100000D01*
%TO.N,Net-(J2-Pin_3)*%
X207209400Y-93823600D02*
X208473000Y-92560000D01*
X204653001Y-93840000D02*
X204669401Y-93823600D01*
X204669401Y-93823600D02*
X207209400Y-93823600D01*
X200853000Y-95130000D02*
X202143000Y-93840000D01*
X202143000Y-93840000D02*
X204653001Y-93840000D01*
%TO.N,Net-(J2-Pin_5)*%
X207209400Y-91283600D02*
X208473000Y-90020000D01*
X200853000Y-92590000D02*
X202103000Y-91340000D01*
X205304400Y-91283600D02*
X207209400Y-91283600D01*
X202103000Y-91340000D02*
X205248000Y-91340000D01*
X205248000Y-91340000D02*
X205304400Y-91283600D01*
%TO.N,Net-(J2-Pin_7)*%
X205298000Y-88750000D02*
X207203000Y-88750000D01*
X200853000Y-90050000D02*
X202103000Y-88800000D01*
X207203000Y-88750000D02*
X208473000Y-87480000D01*
X205248000Y-88800000D02*
X205298000Y-88750000D01*
X202103000Y-88800000D02*
X205248000Y-88800000D01*
%TO.N,Net-(J2-Pin_9)*%
X205304400Y-86203600D02*
X207209400Y-86203600D01*
X207209400Y-86203600D02*
X208473000Y-84940000D01*
X200853000Y-87510000D02*
X202103000Y-86260000D01*
X202103000Y-86260000D02*
X205248000Y-86260000D01*
X205248000Y-86260000D02*
X205304400Y-86203600D01*
%TO.N,Net-(J2-Pin_11)*%
X204713001Y-83720000D02*
X204763001Y-83670000D01*
X204763001Y-83670000D02*
X207203000Y-83670000D01*
X207203000Y-83670000D02*
X208473000Y-82400000D01*
X200853000Y-84970000D02*
X202103000Y-83720000D01*
X202103000Y-83720000D02*
X204713001Y-83720000D01*
%TO.N,Net-(J2-Pin_13)*%
X200853000Y-82430000D02*
X202103000Y-81180000D01*
X202103000Y-81180000D02*
X205365999Y-81180000D01*
X207203000Y-81130000D02*
X208473000Y-79860000D01*
X205365999Y-81180000D02*
X205415999Y-81130000D01*
X205415999Y-81130000D02*
X207203000Y-81130000D01*
%TO.N,Net-(J2-Pin_15)*%
X205248000Y-78640000D02*
X205304400Y-78583600D01*
X205304400Y-78583600D02*
X207209400Y-78583600D01*
X200853000Y-79890000D02*
X202103000Y-78640000D01*
X207209400Y-78583600D02*
X208473000Y-77320000D01*
X202103000Y-78640000D02*
X205248000Y-78640000D01*
%TO.N,Net-(J2-Pin_17)*%
X207209400Y-76043600D02*
X208473000Y-74780000D01*
X200853000Y-77350000D02*
X202103000Y-76100000D01*
X205304400Y-76043600D02*
X207209400Y-76043600D01*
X202103000Y-76100000D02*
X205248000Y-76100000D01*
X205248000Y-76100000D02*
X205304400Y-76043600D01*
%TO.N,Net-(J2-Pin_19)*%
X205248000Y-73560000D02*
X205304400Y-73503600D01*
X200853000Y-74810000D02*
X202103000Y-73560000D01*
X202103000Y-73560000D02*
X205248000Y-73560000D01*
X205304400Y-73503600D02*
X207209400Y-73503600D01*
X207209400Y-73503600D02*
X208473000Y-72240000D01*
%TO.N,Net-(J2-Pin_21)*%
X200853000Y-72270000D02*
X202103000Y-71020000D01*
X207209400Y-70963600D02*
X208473000Y-69700000D01*
X205248000Y-71020000D02*
X205304400Y-70963600D01*
X202103000Y-71020000D02*
X205248000Y-71020000D01*
X205304400Y-70963600D02*
X207209400Y-70963600D01*
%TO.N,Net-(J2-Pin_23)*%
X205248000Y-68480000D02*
X205298000Y-68430000D01*
X200853000Y-69730000D02*
X202103000Y-68480000D01*
X205298000Y-68430000D02*
X207203000Y-68430000D01*
X202103000Y-68480000D02*
X205248000Y-68480000D01*
X207203000Y-68430000D02*
X208473000Y-67160000D01*
%TO.N,Net-(J2-Pin_25)*%
X200853000Y-67190000D02*
X202103000Y-65940000D01*
X205248000Y-65940000D02*
X205304400Y-65883600D01*
X207209400Y-65883600D02*
X208473000Y-64620000D01*
X202103000Y-65940000D02*
X205248000Y-65940000D01*
X205304400Y-65883600D02*
X207209400Y-65883600D01*
%TO.N,Net-(J2-Pin_27)*%
X207203000Y-63350000D02*
X208473000Y-62080000D01*
X205365999Y-63400000D02*
X205415999Y-63350000D01*
X202103000Y-63400000D02*
X205365999Y-63400000D01*
X205415999Y-63350000D02*
X207203000Y-63350000D01*
X200853000Y-64650000D02*
X202103000Y-63400000D01*
%TO.N,Net-(J2-Pin_29)*%
X205415999Y-60810000D02*
X207203000Y-60810000D01*
X207203000Y-60810000D02*
X208473000Y-59540000D01*
X200853000Y-62110000D02*
X202103000Y-60860000D01*
X202103000Y-60860000D02*
X205365999Y-60860000D01*
X205365999Y-60860000D02*
X205415999Y-60810000D01*
%TO.N,Net-(J2-Pin_31)*%
X207203000Y-58270000D02*
X208473000Y-57000000D01*
X200853000Y-59570000D02*
X202153000Y-58270000D01*
X202153000Y-58270000D02*
X207203000Y-58270000D01*
D16*
%TO.N,Net-(J4-Pin_1)*%
X165293000Y-100210000D02*
X165293000Y-102720000D01*
%TO.N,Net-(J4-Pin_2)*%
X167833000Y-100210000D02*
X167833000Y-102720000D01*
%TO.N,Net-(J4-Pin_3)*%
X170373000Y-100210000D02*
X170373000Y-102720000D01*
%TO.N,Net-(J4-Pin_4)*%
X172913000Y-100210000D02*
X172913000Y-102720000D01*
%TO.N,Net-(J4-Pin_5)*%
X175453000Y-100210000D02*
X175453000Y-102720000D01*
%TO.N,Net-(J4-Pin_6)*%
X177993000Y-100210000D02*
X177993000Y-102720000D01*
%TO.N,Net-(J4-Pin_7)*%
X180533000Y-100210000D02*
X180533000Y-102720000D01*
%TO.N,Net-(J5-Pin_1)*%
X185628000Y-100185000D02*
X185628000Y-102705000D01*
X185628000Y-102705000D02*
X185613000Y-102720000D01*
%TO.N,Net-(J5-Pin_2)*%
X188168000Y-100185000D02*
X188168000Y-102705000D01*
X188168000Y-102705000D02*
X188153000Y-102720000D01*
%TO.N,Net-(J5-Pin_3)*%
X190708000Y-100185000D02*
X190708000Y-102705000D01*
X190708000Y-102705000D02*
X190693000Y-102720000D01*
%TO.N,Net-(J5-Pin_4)*%
X193248000Y-102705000D02*
X193233000Y-102720000D01*
X193248000Y-100185000D02*
X193248000Y-102705000D01*
%TO.N,Net-(J5-Pin_5)*%
X195788000Y-100185000D02*
X195788000Y-102705000D01*
X195788000Y-102705000D02*
X195773000Y-102720000D01*
%TO.N,Net-(J5-Pin_6)*%
X198328000Y-100185000D02*
X198328000Y-102705000D01*
X198328000Y-102705000D02*
X198313000Y-102720000D01*
%TO.N,Net-(J5-Pin_7)*%
X200868000Y-102705000D02*
X200853000Y-102720000D01*
X200868000Y-100185000D02*
X200868000Y-102705000D01*
%TO.N,Net-(J5-Pin_8)*%
X203408000Y-102705000D02*
X203393000Y-102720000D01*
X203408000Y-100185000D02*
X203408000Y-102705000D01*
%TO.N,Net-(J6-Pin_1)*%
X167833000Y-59545000D02*
X167833000Y-54460000D01*
%TO.N,Net-(J6-Pin_2)*%
X170373000Y-59545000D02*
X170373000Y-54460000D01*
%TO.N,Net-(J6-Pin_3)*%
X172913000Y-59545000D02*
X172913000Y-54460000D01*
%TO.N,Net-(J6-Pin_4)*%
X175453000Y-59545000D02*
X175453000Y-54460000D01*
%TO.N,Net-(J7-Pin_1)*%
X198313000Y-54460000D02*
X198313000Y-59570000D01*
%TO.N,Net-(J7-Pin_2)*%
X195773000Y-54460000D02*
X195773000Y-59570000D01*
%TO.N,Net-(J7-Pin_3)*%
X193233000Y-54460000D02*
X193233000Y-59570000D01*
%TO.N,Net-(J7-Pin_4)*%
X190693000Y-54460000D02*
X190693000Y-59570000D01*
%TO.N,Net-(J7-Pin_5)*%
X188153000Y-54460000D02*
X188153000Y-59570000D01*
%TO.N,Net-(J7-Pin_6)*%
X185613000Y-54460000D02*
X185613000Y-59570000D01*
%TO.N,Net-(J7-Pin_7)*%
X183073000Y-54460000D02*
X183073000Y-59570000D01*
%TO.N,Net-(J7-Pin_8)*%
X180533000Y-54460000D02*
X180533000Y-59570000D01*
%TD*%
%TA.AperFunction,Conductor*%
%TO.N,Net-(J1-Pin_4)*%
G36*
X210956039Y-51939685D02*
G01*
X211001794Y-51992489D01*
X211013000Y-52044000D01*
X211013000Y-105136000D01*
X210993315Y-105203039D01*
X210940511Y-105248794D01*
X210889000Y-105260000D01*
X156527000Y-105260000D01*
X156459961Y-105240315D01*
X156414206Y-105187511D01*
X156403000Y-105136000D01*
X156403000Y-91098979D01*
X156422685Y-91031940D01*
X156475489Y-90986185D01*
X156544647Y-90976241D01*
X156574452Y-90984418D01*
X156578718Y-90986185D01*
X156641165Y-91012051D01*
X156641169Y-91012051D01*
X156641170Y-91012052D01*
X156834456Y-91050500D01*
X156834459Y-91050500D01*
X157031543Y-91050500D01*
X157124847Y-91031940D01*
X157158811Y-91025184D01*
X157228401Y-91031411D01*
X157283579Y-91074273D01*
X157306824Y-91140163D01*
X157307002Y-91146801D01*
X157307002Y-95198045D01*
X157321091Y-95268872D01*
X157321091Y-95268873D01*
X157345449Y-95391330D01*
X157345451Y-95391338D01*
X157360608Y-95427930D01*
X157360608Y-95427931D01*
X157420866Y-95573409D01*
X157420873Y-95573422D01*
X157530361Y-95737282D01*
X157530362Y-95737283D01*
X157530363Y-95737284D01*
X157600909Y-95807830D01*
X157670215Y-95877136D01*
X157670218Y-95877139D01*
X157670219Y-95877140D01*
X157834084Y-95986630D01*
X157834085Y-95986630D01*
X157834086Y-95986631D01*
X158016164Y-96062051D01*
X158209455Y-96100499D01*
X158209458Y-96100500D01*
X158209460Y-96100500D01*
X158406542Y-96100500D01*
X158406543Y-96100499D01*
X158599835Y-96062051D01*
X158781914Y-95986631D01*
X158945781Y-95877139D01*
X159085139Y-95737781D01*
X159194631Y-95573914D01*
X159270051Y-95391835D01*
X159308500Y-95198540D01*
X159308500Y-95001460D01*
X159308500Y-95000448D01*
X159308002Y-94990312D01*
X159308002Y-93677489D01*
X159327687Y-93610450D01*
X159380491Y-93564695D01*
X159449649Y-93554751D01*
X159456175Y-93555868D01*
X159479459Y-93560500D01*
X159676543Y-93560500D01*
X159806582Y-93534632D01*
X159869835Y-93522051D01*
X160051914Y-93446632D01*
X160215782Y-93337139D01*
X160355139Y-93197782D01*
X160464632Y-93033914D01*
X160540051Y-92851835D01*
X160578500Y-92658541D01*
X160578500Y-81014500D01*
X160598185Y-80947461D01*
X160650989Y-80901706D01*
X160702500Y-80890500D01*
X161792242Y-80890500D01*
X161859281Y-80910185D01*
X161879923Y-80926819D01*
X161881597Y-80928493D01*
X161881603Y-80928498D01*
X162067158Y-81058425D01*
X162110783Y-81113002D01*
X162117977Y-81182500D01*
X162086454Y-81244855D01*
X162067158Y-81261575D01*
X161881597Y-81391505D01*
X161714505Y-81558597D01*
X161578965Y-81752169D01*
X161578964Y-81752171D01*
X161479098Y-81966335D01*
X161479094Y-81966344D01*
X161417938Y-82194586D01*
X161417936Y-82194596D01*
X161397341Y-82429999D01*
X161397341Y-82430000D01*
X161417936Y-82665403D01*
X161417938Y-82665413D01*
X161479094Y-82893655D01*
X161479096Y-82893659D01*
X161479097Y-82893663D01*
X161552682Y-83051466D01*
X161578965Y-83107830D01*
X161578967Y-83107834D01*
X161687281Y-83262521D01*
X161714501Y-83301396D01*
X161714506Y-83301402D01*
X161836818Y-83423714D01*
X161870303Y-83485037D01*
X161865319Y-83554729D01*
X161823447Y-83610662D01*
X161792471Y-83627577D01*
X161660912Y-83676646D01*
X161660906Y-83676649D01*
X161545812Y-83762809D01*
X161545809Y-83762812D01*
X161459649Y-83877906D01*
X161459645Y-83877913D01*
X161409403Y-84012620D01*
X161409401Y-84012627D01*
X161403000Y-84072155D01*
X161403000Y-84720000D01*
X162319988Y-84720000D01*
X162287075Y-84777007D01*
X162253000Y-84904174D01*
X162253000Y-85035826D01*
X162287075Y-85162993D01*
X162319988Y-85220000D01*
X161403000Y-85220000D01*
X161403000Y-85867844D01*
X161409401Y-85927372D01*
X161409403Y-85927379D01*
X161459645Y-86062086D01*
X161459649Y-86062093D01*
X161545809Y-86177187D01*
X161545812Y-86177190D01*
X161660906Y-86263350D01*
X161660913Y-86263354D01*
X161795620Y-86313596D01*
X161795627Y-86313598D01*
X161855155Y-86319999D01*
X161855172Y-86320000D01*
X162503000Y-86320000D01*
X162503000Y-85403012D01*
X162560007Y-85435925D01*
X162687174Y-85470000D01*
X162818826Y-85470000D01*
X162945993Y-85435925D01*
X163003000Y-85403012D01*
X163003000Y-86320000D01*
X163650828Y-86320000D01*
X163650844Y-86319999D01*
X163710372Y-86313598D01*
X163710379Y-86313596D01*
X163845086Y-86263354D01*
X163845093Y-86263350D01*
X163960187Y-86177190D01*
X163960190Y-86177187D01*
X164046350Y-86062093D01*
X164050604Y-86054304D01*
X164052699Y-86055448D01*
X164086841Y-86009819D01*
X164152300Y-85985387D01*
X164220576Y-86000223D01*
X164252401Y-86025084D01*
X164273256Y-86047738D01*
X164356008Y-86112147D01*
X164396821Y-86168857D01*
X164400496Y-86238630D01*
X164365864Y-86299313D01*
X164356014Y-86307848D01*
X164312683Y-86341575D01*
X164273257Y-86372261D01*
X164104833Y-86555217D01*
X163968826Y-86763393D01*
X163868936Y-86991118D01*
X163807892Y-87232175D01*
X163807890Y-87232187D01*
X163787357Y-87479994D01*
X163787357Y-87480005D01*
X163807890Y-87727812D01*
X163807892Y-87727824D01*
X163868936Y-87968881D01*
X163968826Y-88196606D01*
X164104833Y-88404782D01*
X164104836Y-88404785D01*
X164273256Y-88587738D01*
X164356008Y-88652147D01*
X164396821Y-88708857D01*
X164400496Y-88778630D01*
X164365864Y-88839313D01*
X164356014Y-88847848D01*
X164319888Y-88875967D01*
X164273257Y-88912261D01*
X164104832Y-89095219D01*
X164025659Y-89216402D01*
X163972513Y-89261759D01*
X163903281Y-89271182D01*
X163839946Y-89241680D01*
X163820277Y-89219704D01*
X163791495Y-89178599D01*
X163791493Y-89178597D01*
X163791492Y-89178595D01*
X163624402Y-89011506D01*
X163624395Y-89011501D01*
X163430834Y-88875967D01*
X163430830Y-88875965D01*
X163430828Y-88875964D01*
X163216663Y-88776097D01*
X163216659Y-88776096D01*
X163216655Y-88776094D01*
X162988413Y-88714938D01*
X162988403Y-88714936D01*
X162753001Y-88694341D01*
X162752999Y-88694341D01*
X162517596Y-88714936D01*
X162517586Y-88714938D01*
X162289344Y-88776094D01*
X162289335Y-88776098D01*
X162075171Y-88875964D01*
X162075169Y-88875965D01*
X161881597Y-89011505D01*
X161714505Y-89178597D01*
X161578965Y-89372169D01*
X161578964Y-89372171D01*
X161479098Y-89586335D01*
X161479094Y-89586344D01*
X161417938Y-89814586D01*
X161417936Y-89814596D01*
X161397341Y-90049999D01*
X161397341Y-90050000D01*
X161417936Y-90285403D01*
X161417938Y-90285413D01*
X161479094Y-90513655D01*
X161479096Y-90513659D01*
X161479097Y-90513663D01*
X161552682Y-90671466D01*
X161578965Y-90727830D01*
X161578967Y-90727834D01*
X161687281Y-90882521D01*
X161714501Y-90921396D01*
X161714506Y-90921402D01*
X161881597Y-91088493D01*
X161881603Y-91088498D01*
X162067158Y-91218425D01*
X162110783Y-91273002D01*
X162117977Y-91342500D01*
X162086454Y-91404855D01*
X162067158Y-91421575D01*
X161881597Y-91551505D01*
X161714505Y-91718597D01*
X161578965Y-91912169D01*
X161578964Y-91912171D01*
X161479098Y-92126335D01*
X161479094Y-92126344D01*
X161417938Y-92354586D01*
X161417936Y-92354596D01*
X161397341Y-92589999D01*
X161397341Y-92590000D01*
X161417936Y-92825403D01*
X161417938Y-92825413D01*
X161479094Y-93053655D01*
X161479096Y-93053659D01*
X161479097Y-93053663D01*
X161552682Y-93211466D01*
X161578965Y-93267830D01*
X161578967Y-93267834D01*
X161687281Y-93422521D01*
X161714501Y-93461396D01*
X161714506Y-93461402D01*
X161881597Y-93628493D01*
X161881603Y-93628498D01*
X162067158Y-93758425D01*
X162110783Y-93813002D01*
X162117977Y-93882500D01*
X162086454Y-93944855D01*
X162067158Y-93961575D01*
X161881597Y-94091505D01*
X161714505Y-94258597D01*
X161578965Y-94452169D01*
X161578964Y-94452171D01*
X161479098Y-94666335D01*
X161479094Y-94666344D01*
X161417938Y-94894586D01*
X161417936Y-94894596D01*
X161397341Y-95129999D01*
X161397341Y-95130000D01*
X161417936Y-95365403D01*
X161417938Y-95365413D01*
X161479094Y-95593655D01*
X161479096Y-95593659D01*
X161479097Y-95593663D01*
X161578965Y-95807830D01*
X161714501Y-96001396D01*
X161714506Y-96001402D01*
X161836818Y-96123714D01*
X161870303Y-96185037D01*
X161865319Y-96254729D01*
X161823447Y-96310662D01*
X161792471Y-96327577D01*
X161660912Y-96376646D01*
X161660906Y-96376649D01*
X161545812Y-96462809D01*
X161545809Y-96462812D01*
X161459649Y-96577906D01*
X161459645Y-96577913D01*
X161409403Y-96712620D01*
X161409401Y-96712627D01*
X161403000Y-96772155D01*
X161403000Y-97420000D01*
X162319988Y-97420000D01*
X162287075Y-97477007D01*
X162253000Y-97604174D01*
X162253000Y-97735826D01*
X162287075Y-97862993D01*
X162319988Y-97920000D01*
X161403000Y-97920000D01*
X161403000Y-98567844D01*
X161409401Y-98627372D01*
X161409403Y-98627379D01*
X161459645Y-98762086D01*
X161459649Y-98762093D01*
X161545809Y-98877187D01*
X161545812Y-98877190D01*
X161660906Y-98963350D01*
X161660913Y-98963354D01*
X161795620Y-99013596D01*
X161795627Y-99013598D01*
X161855155Y-99019999D01*
X161855172Y-99020000D01*
X162503000Y-99020000D01*
X162503000Y-98103012D01*
X162560007Y-98135925D01*
X162687174Y-98170000D01*
X162818826Y-98170000D01*
X162945993Y-98135925D01*
X163003000Y-98103012D01*
X163003000Y-99020000D01*
X163650828Y-99020000D01*
X163650844Y-99019999D01*
X163710372Y-99013598D01*
X163710379Y-99013596D01*
X163836563Y-98966533D01*
X163906254Y-98961549D01*
X163967577Y-98995034D01*
X164001062Y-99056357D01*
X163996078Y-99126048D01*
X163948908Y-99252516D01*
X163942501Y-99312116D01*
X163942500Y-99312135D01*
X163942500Y-101107870D01*
X163942501Y-101107876D01*
X163948908Y-101167483D01*
X163999202Y-101302328D01*
X163999206Y-101302335D01*
X164085452Y-101417544D01*
X164085455Y-101417547D01*
X164200665Y-101503794D01*
X164200667Y-101503794D01*
X164200669Y-101503796D01*
X164211830Y-101507958D01*
X164267764Y-101549826D01*
X164292184Y-101615289D01*
X164292500Y-101624141D01*
X164292500Y-101744366D01*
X164272815Y-101811405D01*
X164259731Y-101828348D01*
X164212841Y-101879284D01*
X164089196Y-102068538D01*
X163998388Y-102275560D01*
X163942892Y-102494710D01*
X163924225Y-102719993D01*
X163924225Y-102720006D01*
X163942892Y-102945289D01*
X163998388Y-103164439D01*
X164089198Y-103371466D01*
X164212842Y-103560716D01*
X164212850Y-103560727D01*
X164365950Y-103727036D01*
X164365954Y-103727040D01*
X164544351Y-103865893D01*
X164743169Y-103973488D01*
X164743172Y-103973489D01*
X164956982Y-104046890D01*
X164956984Y-104046890D01*
X164956986Y-104046891D01*
X165179967Y-104084100D01*
X165179968Y-104084100D01*
X165406032Y-104084100D01*
X165406033Y-104084100D01*
X165629014Y-104046891D01*
X165842831Y-103973488D01*
X166041649Y-103865893D01*
X166220046Y-103727040D01*
X166373156Y-103560719D01*
X166459193Y-103429028D01*
X166512338Y-103383675D01*
X166581569Y-103374251D01*
X166644905Y-103403753D01*
X166666804Y-103429025D01*
X166752844Y-103560719D01*
X166752849Y-103560724D01*
X166752850Y-103560727D01*
X166905950Y-103727036D01*
X166905954Y-103727040D01*
X167084351Y-103865893D01*
X167283169Y-103973488D01*
X167283172Y-103973489D01*
X167496982Y-104046890D01*
X167496984Y-104046890D01*
X167496986Y-104046891D01*
X167719967Y-104084100D01*
X167719968Y-104084100D01*
X167946032Y-104084100D01*
X167946033Y-104084100D01*
X168169014Y-104046891D01*
X168382831Y-103973488D01*
X168581649Y-103865893D01*
X168760046Y-103727040D01*
X168913156Y-103560719D01*
X168999193Y-103429028D01*
X169052338Y-103383675D01*
X169121569Y-103374251D01*
X169184905Y-103403753D01*
X169206804Y-103429025D01*
X169292844Y-103560719D01*
X169292849Y-103560724D01*
X169292850Y-103560727D01*
X169445950Y-103727036D01*
X169445954Y-103727040D01*
X169624351Y-103865893D01*
X169823169Y-103973488D01*
X169823172Y-103973489D01*
X170036982Y-104046890D01*
X170036984Y-104046890D01*
X170036986Y-104046891D01*
X170259967Y-104084100D01*
X170259968Y-104084100D01*
X170486032Y-104084100D01*
X170486033Y-104084100D01*
X170709014Y-104046891D01*
X170922831Y-103973488D01*
X171121649Y-103865893D01*
X171300046Y-103727040D01*
X171453156Y-103560719D01*
X171539193Y-103429028D01*
X171592338Y-103383675D01*
X171661569Y-103374251D01*
X171724905Y-103403753D01*
X171746804Y-103429025D01*
X171832844Y-103560719D01*
X171832849Y-103560724D01*
X171832850Y-103560727D01*
X171985950Y-103727036D01*
X171985954Y-103727040D01*
X172164351Y-103865893D01*
X172363169Y-103973488D01*
X172363172Y-103973489D01*
X172576982Y-104046890D01*
X172576984Y-104046890D01*
X172576986Y-104046891D01*
X172799967Y-104084100D01*
X172799968Y-104084100D01*
X173026032Y-104084100D01*
X173026033Y-104084100D01*
X173249014Y-104046891D01*
X173462831Y-103973488D01*
X173661649Y-103865893D01*
X173840046Y-103727040D01*
X173993156Y-103560719D01*
X174079193Y-103429028D01*
X174132338Y-103383675D01*
X174201569Y-103374251D01*
X174264905Y-103403753D01*
X174286804Y-103429025D01*
X174372844Y-103560719D01*
X174372849Y-103560724D01*
X174372850Y-103560727D01*
X174525950Y-103727036D01*
X174525954Y-103727040D01*
X174704351Y-103865893D01*
X174903169Y-103973488D01*
X174903172Y-103973489D01*
X175116982Y-104046890D01*
X175116984Y-104046890D01*
X175116986Y-104046891D01*
X175339967Y-104084100D01*
X175339968Y-104084100D01*
X175566032Y-104084100D01*
X175566033Y-104084100D01*
X175789014Y-104046891D01*
X176002831Y-103973488D01*
X176201649Y-103865893D01*
X176380046Y-103727040D01*
X176533156Y-103560719D01*
X176619193Y-103429028D01*
X176672338Y-103383675D01*
X176741569Y-103374251D01*
X176804905Y-103403753D01*
X176826804Y-103429025D01*
X176912844Y-103560719D01*
X176912849Y-103560724D01*
X176912850Y-103560727D01*
X177065950Y-103727036D01*
X177065954Y-103727040D01*
X177244351Y-103865893D01*
X177443169Y-103973488D01*
X177443172Y-103973489D01*
X177656982Y-104046890D01*
X177656984Y-104046890D01*
X177656986Y-104046891D01*
X177879967Y-104084100D01*
X177879968Y-104084100D01*
X178106032Y-104084100D01*
X178106033Y-104084100D01*
X178329014Y-104046891D01*
X178542831Y-103973488D01*
X178741649Y-103865893D01*
X178920046Y-103727040D01*
X179073156Y-103560719D01*
X179159193Y-103429028D01*
X179212338Y-103383675D01*
X179281569Y-103374251D01*
X179344905Y-103403753D01*
X179366804Y-103429025D01*
X179452844Y-103560719D01*
X179452849Y-103560724D01*
X179452850Y-103560727D01*
X179605950Y-103727036D01*
X179605954Y-103727040D01*
X179784351Y-103865893D01*
X179983169Y-103973488D01*
X179983172Y-103973489D01*
X180196982Y-104046890D01*
X180196984Y-104046890D01*
X180196986Y-104046891D01*
X180419967Y-104084100D01*
X180419968Y-104084100D01*
X180646032Y-104084100D01*
X180646033Y-104084100D01*
X180869014Y-104046891D01*
X181082831Y-103973488D01*
X181281649Y-103865893D01*
X181460046Y-103727040D01*
X181613156Y-103560719D01*
X181736802Y-103371465D01*
X181827611Y-103164441D01*
X181883107Y-102945293D01*
X181901775Y-102720000D01*
X181901775Y-102719993D01*
X181883107Y-102494710D01*
X181883107Y-102494707D01*
X181827611Y-102275559D01*
X181736802Y-102068535D01*
X181613156Y-101879281D01*
X181566268Y-101828347D01*
X181535348Y-101765693D01*
X181533500Y-101744366D01*
X181533500Y-101170758D01*
X181553185Y-101103719D01*
X181569819Y-101083077D01*
X181570026Y-101082870D01*
X181571495Y-101081401D01*
X181707035Y-100887830D01*
X181806903Y-100673663D01*
X181868063Y-100445408D01*
X181888659Y-100210000D01*
X181868063Y-99974592D01*
X181806903Y-99746337D01*
X181707035Y-99532171D01*
X181701425Y-99524158D01*
X181571494Y-99338597D01*
X181404402Y-99171506D01*
X181404393Y-99171499D01*
X181329588Y-99119119D01*
X181285963Y-99064542D01*
X181278771Y-98995044D01*
X181310293Y-98932689D01*
X181341694Y-98908491D01*
X181356509Y-98900474D01*
X181552744Y-98747738D01*
X181711771Y-98574988D01*
X181771657Y-98538999D01*
X181841495Y-98541099D01*
X181894228Y-98574988D01*
X182053256Y-98747738D01*
X182249491Y-98900474D01*
X182278561Y-98916206D01*
X182437933Y-99002454D01*
X182468190Y-99018828D01*
X182703386Y-99099571D01*
X182948665Y-99140500D01*
X183197335Y-99140500D01*
X183442614Y-99099571D01*
X183677810Y-99018828D01*
X183896509Y-98900474D01*
X184092744Y-98747738D01*
X184251771Y-98574988D01*
X184311657Y-98538999D01*
X184381495Y-98541099D01*
X184434228Y-98574988D01*
X184541585Y-98691608D01*
X184554982Y-98706161D01*
X184585904Y-98768816D01*
X184578044Y-98838242D01*
X184538064Y-98889410D01*
X184420452Y-98977455D01*
X184334206Y-99092664D01*
X184334202Y-99092671D01*
X184283908Y-99227517D01*
X184277501Y-99287116D01*
X184277500Y-99287135D01*
X184277500Y-101082870D01*
X184277501Y-101082876D01*
X184283908Y-101142483D01*
X184334202Y-101277328D01*
X184334206Y-101277335D01*
X184420452Y-101392544D01*
X184420455Y-101392547D01*
X184535665Y-101478794D01*
X184535667Y-101478794D01*
X184535669Y-101478796D01*
X184546830Y-101482958D01*
X184602764Y-101524826D01*
X184627184Y-101590289D01*
X184627500Y-101599141D01*
X184627500Y-101728071D01*
X184607815Y-101795110D01*
X184594730Y-101812053D01*
X184532850Y-101879272D01*
X184532842Y-101879283D01*
X184409198Y-102068533D01*
X184318388Y-102275560D01*
X184262892Y-102494710D01*
X184244225Y-102719993D01*
X184244225Y-102720006D01*
X184262892Y-102945289D01*
X184318388Y-103164439D01*
X184409198Y-103371466D01*
X184532842Y-103560716D01*
X184532850Y-103560727D01*
X184685950Y-103727036D01*
X184685954Y-103727040D01*
X184864351Y-103865893D01*
X185063169Y-103973488D01*
X185063172Y-103973489D01*
X185276982Y-104046890D01*
X185276984Y-104046890D01*
X185276986Y-104046891D01*
X185499967Y-104084100D01*
X185499968Y-104084100D01*
X185726032Y-104084100D01*
X185726033Y-104084100D01*
X185949014Y-104046891D01*
X186162831Y-103973488D01*
X186361649Y-103865893D01*
X186540046Y-103727040D01*
X186693156Y-103560719D01*
X186779193Y-103429028D01*
X186832338Y-103383675D01*
X186901569Y-103374251D01*
X186964905Y-103403753D01*
X186986804Y-103429025D01*
X187072844Y-103560719D01*
X187072849Y-103560724D01*
X187072850Y-103560727D01*
X187225950Y-103727036D01*
X187225954Y-103727040D01*
X187404351Y-103865893D01*
X187603169Y-103973488D01*
X187603172Y-103973489D01*
X187816982Y-104046890D01*
X187816984Y-104046890D01*
X187816986Y-104046891D01*
X188039967Y-104084100D01*
X188039968Y-104084100D01*
X188266032Y-104084100D01*
X188266033Y-104084100D01*
X188489014Y-104046891D01*
X188702831Y-103973488D01*
X188901649Y-103865893D01*
X189080046Y-103727040D01*
X189233156Y-103560719D01*
X189319193Y-103429028D01*
X189372338Y-103383675D01*
X189441569Y-103374251D01*
X189504905Y-103403753D01*
X189526804Y-103429025D01*
X189612844Y-103560719D01*
X189612849Y-103560724D01*
X189612850Y-103560727D01*
X189765950Y-103727036D01*
X189765954Y-103727040D01*
X189944351Y-103865893D01*
X190143169Y-103973488D01*
X190143172Y-103973489D01*
X190356982Y-104046890D01*
X190356984Y-104046890D01*
X190356986Y-104046891D01*
X190579967Y-104084100D01*
X190579968Y-104084100D01*
X190806032Y-104084100D01*
X190806033Y-104084100D01*
X191029014Y-104046891D01*
X191242831Y-103973488D01*
X191441649Y-103865893D01*
X191620046Y-103727040D01*
X191773156Y-103560719D01*
X191859193Y-103429028D01*
X191912338Y-103383675D01*
X191981569Y-103374251D01*
X192044905Y-103403753D01*
X192066804Y-103429025D01*
X192152844Y-103560719D01*
X192152849Y-103560724D01*
X192152850Y-103560727D01*
X192305950Y-103727036D01*
X192305954Y-103727040D01*
X192484351Y-103865893D01*
X192683169Y-103973488D01*
X192683172Y-103973489D01*
X192896982Y-104046890D01*
X192896984Y-104046890D01*
X192896986Y-104046891D01*
X193119967Y-104084100D01*
X193119968Y-104084100D01*
X193346032Y-104084100D01*
X193346033Y-104084100D01*
X193569014Y-104046891D01*
X193782831Y-103973488D01*
X193981649Y-103865893D01*
X194160046Y-103727040D01*
X194313156Y-103560719D01*
X194399193Y-103429028D01*
X194452338Y-103383675D01*
X194521569Y-103374251D01*
X194584905Y-103403753D01*
X194606804Y-103429025D01*
X194692844Y-103560719D01*
X194692849Y-103560724D01*
X194692850Y-103560727D01*
X194845950Y-103727036D01*
X194845954Y-103727040D01*
X195024351Y-103865893D01*
X195223169Y-103973488D01*
X195223172Y-103973489D01*
X195436982Y-104046890D01*
X195436984Y-104046890D01*
X195436986Y-104046891D01*
X195659967Y-104084100D01*
X195659968Y-104084100D01*
X195886032Y-104084100D01*
X195886033Y-104084100D01*
X196109014Y-104046891D01*
X196322831Y-103973488D01*
X196521649Y-103865893D01*
X196700046Y-103727040D01*
X196853156Y-103560719D01*
X196939193Y-103429028D01*
X196992338Y-103383675D01*
X197061569Y-103374251D01*
X197124905Y-103403753D01*
X197146804Y-103429025D01*
X197232844Y-103560719D01*
X197232849Y-103560724D01*
X197232850Y-103560727D01*
X197385950Y-103727036D01*
X197385954Y-103727040D01*
X197564351Y-103865893D01*
X197763169Y-103973488D01*
X197763172Y-103973489D01*
X197976982Y-104046890D01*
X197976984Y-104046890D01*
X197976986Y-104046891D01*
X198199967Y-104084100D01*
X198199968Y-104084100D01*
X198426032Y-104084100D01*
X198426033Y-104084100D01*
X198649014Y-104046891D01*
X198862831Y-103973488D01*
X199061649Y-103865893D01*
X199240046Y-103727040D01*
X199393156Y-103560719D01*
X199479193Y-103429028D01*
X199532338Y-103383675D01*
X199601569Y-103374251D01*
X199664905Y-103403753D01*
X199686804Y-103429025D01*
X199772844Y-103560719D01*
X199772849Y-103560724D01*
X199772850Y-103560727D01*
X199925950Y-103727036D01*
X199925954Y-103727040D01*
X200104351Y-103865893D01*
X200303169Y-103973488D01*
X200303172Y-103973489D01*
X200516982Y-104046890D01*
X200516984Y-104046890D01*
X200516986Y-104046891D01*
X200739967Y-104084100D01*
X200739968Y-104084100D01*
X200966032Y-104084100D01*
X200966033Y-104084100D01*
X201189014Y-104046891D01*
X201402831Y-103973488D01*
X201601649Y-103865893D01*
X201780046Y-103727040D01*
X201933156Y-103560719D01*
X202019193Y-103429028D01*
X202072338Y-103383675D01*
X202141569Y-103374251D01*
X202204905Y-103403753D01*
X202226804Y-103429025D01*
X202312844Y-103560719D01*
X202312849Y-103560724D01*
X202312850Y-103560727D01*
X202465950Y-103727036D01*
X202465954Y-103727040D01*
X202644351Y-103865893D01*
X202843169Y-103973488D01*
X202843172Y-103973489D01*
X203056982Y-104046890D01*
X203056984Y-104046890D01*
X203056986Y-104046891D01*
X203279967Y-104084100D01*
X203279968Y-104084100D01*
X203506032Y-104084100D01*
X203506033Y-104084100D01*
X203729014Y-104046891D01*
X203942831Y-103973488D01*
X204141649Y-103865893D01*
X204320046Y-103727040D01*
X204473156Y-103560719D01*
X204596802Y-103371465D01*
X204687611Y-103164441D01*
X204743107Y-102945293D01*
X204761775Y-102720000D01*
X204761775Y-102719993D01*
X204751725Y-102598711D01*
X206622500Y-102598711D01*
X206622500Y-102841288D01*
X206654161Y-103081785D01*
X206716947Y-103316104D01*
X206744936Y-103383675D01*
X206809776Y-103540212D01*
X206931064Y-103750289D01*
X206931066Y-103750292D01*
X206931067Y-103750293D01*
X207078733Y-103942736D01*
X207078739Y-103942743D01*
X207250256Y-104114260D01*
X207250262Y-104114265D01*
X207442711Y-104261936D01*
X207652788Y-104383224D01*
X207876900Y-104476054D01*
X208111211Y-104538838D01*
X208291586Y-104562584D01*
X208351711Y-104570500D01*
X208351712Y-104570500D01*
X208594289Y-104570500D01*
X208642388Y-104564167D01*
X208834789Y-104538838D01*
X209069100Y-104476054D01*
X209293212Y-104383224D01*
X209503289Y-104261936D01*
X209695738Y-104114265D01*
X209867265Y-103942738D01*
X210014936Y-103750289D01*
X210136224Y-103540212D01*
X210229054Y-103316100D01*
X210291838Y-103081789D01*
X210323500Y-102841288D01*
X210323500Y-102598712D01*
X210291838Y-102358211D01*
X210229054Y-102123900D01*
X210136224Y-101899788D01*
X210014936Y-101689711D01*
X209888416Y-101524826D01*
X209867266Y-101497263D01*
X209867260Y-101497256D01*
X209695743Y-101325739D01*
X209695736Y-101325733D01*
X209503293Y-101178067D01*
X209503292Y-101178066D01*
X209503289Y-101178064D01*
X209331218Y-101078719D01*
X209293214Y-101056777D01*
X209293205Y-101056773D01*
X209069104Y-100963947D01*
X208834785Y-100901161D01*
X208594289Y-100869500D01*
X208594288Y-100869500D01*
X208351712Y-100869500D01*
X208351711Y-100869500D01*
X208111214Y-100901161D01*
X207876895Y-100963947D01*
X207652794Y-101056773D01*
X207652785Y-101056777D01*
X207442706Y-101178067D01*
X207250263Y-101325733D01*
X207250256Y-101325739D01*
X207078739Y-101497256D01*
X207078733Y-101497263D01*
X206931067Y-101689706D01*
X206809777Y-101899785D01*
X206809773Y-101899794D01*
X206716947Y-102123895D01*
X206654161Y-102358214D01*
X206622500Y-102598711D01*
X204751725Y-102598711D01*
X204743107Y-102494710D01*
X204743107Y-102494707D01*
X204687611Y-102275559D01*
X204596802Y-102068535D01*
X204588823Y-102056323D01*
X204486552Y-101899785D01*
X204473156Y-101879281D01*
X204465567Y-101871037D01*
X204441269Y-101844642D01*
X204410348Y-101781987D01*
X204408500Y-101760660D01*
X204408500Y-101145758D01*
X204428185Y-101078719D01*
X204444819Y-101058077D01*
X204446495Y-101056401D01*
X204582035Y-100862830D01*
X204681903Y-100648663D01*
X204743063Y-100420408D01*
X204763659Y-100185000D01*
X204743063Y-99949592D01*
X204681903Y-99721337D01*
X204582035Y-99507171D01*
X204576425Y-99499158D01*
X204446494Y-99313597D01*
X204279402Y-99146506D01*
X204279401Y-99146505D01*
X204104192Y-99023822D01*
X204060569Y-98969246D01*
X204053376Y-98899747D01*
X204084898Y-98837393D01*
X204104194Y-98820673D01*
X204264401Y-98708495D01*
X204380879Y-98592016D01*
X204442198Y-98558534D01*
X204511890Y-98563518D01*
X204567824Y-98605389D01*
X204584739Y-98636367D01*
X204625602Y-98745928D01*
X204625606Y-98745935D01*
X204711852Y-98861144D01*
X204711855Y-98861147D01*
X204827064Y-98947393D01*
X204827071Y-98947397D01*
X204961917Y-98997691D01*
X204961916Y-98997691D01*
X204968844Y-98998435D01*
X205021527Y-99004100D01*
X206844472Y-99004099D01*
X206904083Y-98997691D01*
X207038931Y-98947396D01*
X207128689Y-98880202D01*
X207194153Y-98855786D01*
X207262426Y-98870637D01*
X207277311Y-98880203D01*
X207367069Y-98947396D01*
X207367071Y-98947397D01*
X207501917Y-98997691D01*
X207501916Y-98997691D01*
X207508844Y-98998435D01*
X207561527Y-99004100D01*
X209384472Y-99004099D01*
X209444083Y-98997691D01*
X209578931Y-98947396D01*
X209694146Y-98861146D01*
X209780396Y-98745931D01*
X209830691Y-98611083D01*
X209837100Y-98551473D01*
X209837099Y-96728528D01*
X209830691Y-96668917D01*
X209798350Y-96582207D01*
X209780397Y-96534071D01*
X209780393Y-96534064D01*
X209694147Y-96418855D01*
X209694144Y-96418852D01*
X209578935Y-96332606D01*
X209578928Y-96332602D01*
X209464016Y-96289743D01*
X209408082Y-96247872D01*
X209383665Y-96182408D01*
X209398517Y-96114135D01*
X209416113Y-96089586D01*
X209553156Y-95940719D01*
X209676802Y-95751465D01*
X209767611Y-95544441D01*
X209823107Y-95325293D01*
X209833651Y-95198043D01*
X209841775Y-95100006D01*
X209841775Y-95099993D01*
X209823107Y-94874710D01*
X209823107Y-94874707D01*
X209767611Y-94655559D01*
X209676802Y-94448535D01*
X209553156Y-94259281D01*
X209553153Y-94259278D01*
X209553149Y-94259272D01*
X209400049Y-94092963D01*
X209400048Y-94092962D01*
X209400046Y-94092960D01*
X209221649Y-93954107D01*
X209221647Y-93954106D01*
X209221646Y-93954105D01*
X209221639Y-93954100D01*
X209193836Y-93939055D01*
X209144244Y-93889837D01*
X209129135Y-93821620D01*
X209153306Y-93756064D01*
X209193836Y-93720945D01*
X209221639Y-93705899D01*
X209221642Y-93705896D01*
X209221649Y-93705893D01*
X209400046Y-93567040D01*
X209553156Y-93400719D01*
X209676802Y-93211465D01*
X209767611Y-93004441D01*
X209823107Y-92785293D01*
X209833610Y-92658541D01*
X209841775Y-92560006D01*
X209841775Y-92559993D01*
X209823107Y-92334710D01*
X209823107Y-92334707D01*
X209767611Y-92115559D01*
X209676802Y-91908535D01*
X209553156Y-91719281D01*
X209553153Y-91719278D01*
X209553149Y-91719272D01*
X209400049Y-91552963D01*
X209400048Y-91552962D01*
X209400046Y-91552960D01*
X209221649Y-91414107D01*
X209221647Y-91414106D01*
X209221646Y-91414105D01*
X209221639Y-91414100D01*
X209193836Y-91399055D01*
X209144244Y-91349837D01*
X209129135Y-91281620D01*
X209153306Y-91216064D01*
X209193836Y-91180945D01*
X209221639Y-91165899D01*
X209221642Y-91165896D01*
X209221649Y-91165893D01*
X209400046Y-91027040D01*
X209553156Y-90860719D01*
X209676802Y-90671465D01*
X209767611Y-90464441D01*
X209823107Y-90245293D01*
X209831124Y-90148541D01*
X209841775Y-90020006D01*
X209841775Y-90019993D01*
X209823107Y-89794710D01*
X209823107Y-89794707D01*
X209767611Y-89575559D01*
X209676802Y-89368535D01*
X209553156Y-89179281D01*
X209553153Y-89179278D01*
X209553149Y-89179272D01*
X209400049Y-89012963D01*
X209400048Y-89012962D01*
X209400046Y-89012960D01*
X209221649Y-88874107D01*
X209221647Y-88874106D01*
X209221646Y-88874105D01*
X209221639Y-88874100D01*
X209193836Y-88859055D01*
X209144244Y-88809837D01*
X209129135Y-88741620D01*
X209153306Y-88676064D01*
X209193836Y-88640945D01*
X209221639Y-88625899D01*
X209221642Y-88625896D01*
X209221649Y-88625893D01*
X209400046Y-88487040D01*
X209553156Y-88320719D01*
X209676802Y-88131465D01*
X209767611Y-87924441D01*
X209823107Y-87705293D01*
X209841775Y-87480000D01*
X209841775Y-87479994D01*
X209841775Y-87479993D01*
X209823107Y-87254710D01*
X209823107Y-87254707D01*
X209767611Y-87035559D01*
X209676802Y-86828535D01*
X209553156Y-86639281D01*
X209553153Y-86639278D01*
X209553149Y-86639272D01*
X209400049Y-86472963D01*
X209400048Y-86472962D01*
X209400046Y-86472960D01*
X209221649Y-86334107D01*
X209221647Y-86334106D01*
X209221646Y-86334105D01*
X209221639Y-86334100D01*
X209193836Y-86319055D01*
X209144244Y-86269837D01*
X209129135Y-86201620D01*
X209153306Y-86136064D01*
X209193836Y-86100945D01*
X209221639Y-86085899D01*
X209221642Y-86085896D01*
X209221649Y-86085893D01*
X209400046Y-85947040D01*
X209553156Y-85780719D01*
X209676802Y-85591465D01*
X209767611Y-85384441D01*
X209823107Y-85165293D01*
X209841775Y-84940000D01*
X209841775Y-84939993D01*
X209825177Y-84739685D01*
X209823107Y-84714707D01*
X209767611Y-84495559D01*
X209676802Y-84288535D01*
X209553156Y-84099281D01*
X209553153Y-84099278D01*
X209553149Y-84099272D01*
X209400049Y-83932963D01*
X209400048Y-83932962D01*
X209400046Y-83932960D01*
X209221649Y-83794107D01*
X209221647Y-83794106D01*
X209221646Y-83794105D01*
X209221639Y-83794100D01*
X209193836Y-83779055D01*
X209144244Y-83729837D01*
X209129135Y-83661620D01*
X209153306Y-83596064D01*
X209193836Y-83560945D01*
X209221639Y-83545899D01*
X209221642Y-83545896D01*
X209221649Y-83545893D01*
X209400046Y-83407040D01*
X209553156Y-83240719D01*
X209676802Y-83051465D01*
X209767611Y-82844441D01*
X209823107Y-82625293D01*
X209830574Y-82535175D01*
X209841775Y-82400006D01*
X209841775Y-82399993D01*
X209823107Y-82174710D01*
X209823107Y-82174707D01*
X209767611Y-81955559D01*
X209676802Y-81748535D01*
X209553156Y-81559281D01*
X209553153Y-81559278D01*
X209553149Y-81559272D01*
X209400049Y-81392963D01*
X209400048Y-81392962D01*
X209400046Y-81392960D01*
X209221649Y-81254107D01*
X209221647Y-81254106D01*
X209221646Y-81254105D01*
X209221639Y-81254100D01*
X209193836Y-81239055D01*
X209144244Y-81189837D01*
X209129135Y-81121620D01*
X209153306Y-81056064D01*
X209193836Y-81020945D01*
X209221639Y-81005899D01*
X209221642Y-81005896D01*
X209221649Y-81005893D01*
X209400046Y-80867040D01*
X209553156Y-80700719D01*
X209676802Y-80511465D01*
X209767611Y-80304441D01*
X209823107Y-80085293D01*
X209841240Y-79866459D01*
X209841775Y-79860006D01*
X209841775Y-79859993D01*
X209823107Y-79634710D01*
X209823107Y-79634707D01*
X209767611Y-79415559D01*
X209676802Y-79208535D01*
X209553156Y-79019281D01*
X209553153Y-79019278D01*
X209553149Y-79019272D01*
X209400049Y-78852963D01*
X209400048Y-78852962D01*
X209400046Y-78852960D01*
X209221649Y-78714107D01*
X209221647Y-78714106D01*
X209221646Y-78714105D01*
X209221639Y-78714100D01*
X209193836Y-78699055D01*
X209144244Y-78649837D01*
X209129135Y-78581620D01*
X209153306Y-78516064D01*
X209193836Y-78480945D01*
X209221639Y-78465899D01*
X209221642Y-78465896D01*
X209221649Y-78465893D01*
X209400046Y-78327040D01*
X209553156Y-78160719D01*
X209676802Y-77971465D01*
X209767611Y-77764441D01*
X209823107Y-77545293D01*
X209841775Y-77320000D01*
X209841775Y-77319993D01*
X209823107Y-77094710D01*
X209823107Y-77094707D01*
X209767611Y-76875559D01*
X209676802Y-76668535D01*
X209553156Y-76479281D01*
X209553153Y-76479278D01*
X209553149Y-76479272D01*
X209400049Y-76312963D01*
X209400048Y-76312962D01*
X209400046Y-76312960D01*
X209221649Y-76174107D01*
X209221647Y-76174106D01*
X209221646Y-76174105D01*
X209221639Y-76174100D01*
X209193836Y-76159055D01*
X209144244Y-76109837D01*
X209129135Y-76041620D01*
X209153306Y-75976064D01*
X209193836Y-75940945D01*
X209221639Y-75925899D01*
X209221642Y-75925896D01*
X209221649Y-75925893D01*
X209400046Y-75787040D01*
X209553156Y-75620719D01*
X209676802Y-75431465D01*
X209767611Y-75224441D01*
X209823107Y-75005293D01*
X209841775Y-74780000D01*
X209841775Y-74779994D01*
X209841775Y-74779993D01*
X209823107Y-74554710D01*
X209823107Y-74554707D01*
X209767611Y-74335559D01*
X209676802Y-74128535D01*
X209553156Y-73939281D01*
X209553153Y-73939278D01*
X209553149Y-73939272D01*
X209400049Y-73772963D01*
X209400048Y-73772962D01*
X209400046Y-73772960D01*
X209221649Y-73634107D01*
X209221647Y-73634106D01*
X209221646Y-73634105D01*
X209221639Y-73634100D01*
X209193836Y-73619055D01*
X209144244Y-73569837D01*
X209129135Y-73501620D01*
X209153306Y-73436064D01*
X209193836Y-73400945D01*
X209221639Y-73385899D01*
X209221642Y-73385896D01*
X209221649Y-73385893D01*
X209400046Y-73247040D01*
X209553156Y-73080719D01*
X209676802Y-72891465D01*
X209767611Y-72684441D01*
X209823107Y-72465293D01*
X209841775Y-72240000D01*
X209841775Y-72239993D01*
X209825783Y-72047007D01*
X209823107Y-72014707D01*
X209767611Y-71795559D01*
X209676802Y-71588535D01*
X209553156Y-71399281D01*
X209553153Y-71399278D01*
X209553149Y-71399272D01*
X209400049Y-71232963D01*
X209400048Y-71232962D01*
X209400046Y-71232960D01*
X209221649Y-71094107D01*
X209221647Y-71094106D01*
X209221646Y-71094105D01*
X209221639Y-71094100D01*
X209193836Y-71079055D01*
X209144244Y-71029837D01*
X209129135Y-70961620D01*
X209153306Y-70896064D01*
X209193836Y-70860945D01*
X209221639Y-70845899D01*
X209221642Y-70845896D01*
X209221649Y-70845893D01*
X209400046Y-70707040D01*
X209553156Y-70540719D01*
X209676802Y-70351465D01*
X209767611Y-70144441D01*
X209823107Y-69925293D01*
X209841775Y-69700000D01*
X209841775Y-69699993D01*
X209823107Y-69474710D01*
X209823107Y-69474707D01*
X209767611Y-69255559D01*
X209676802Y-69048535D01*
X209553156Y-68859281D01*
X209553153Y-68859278D01*
X209553149Y-68859272D01*
X209400049Y-68692963D01*
X209400048Y-68692962D01*
X209400046Y-68692960D01*
X209221649Y-68554107D01*
X209221647Y-68554106D01*
X209221646Y-68554105D01*
X209221639Y-68554100D01*
X209193836Y-68539055D01*
X209144244Y-68489837D01*
X209129135Y-68421620D01*
X209153306Y-68356064D01*
X209193836Y-68320945D01*
X209221639Y-68305899D01*
X209221642Y-68305896D01*
X209221649Y-68305893D01*
X209400046Y-68167040D01*
X209553156Y-68000719D01*
X209676802Y-67811465D01*
X209767611Y-67604441D01*
X209823107Y-67385293D01*
X209841775Y-67160000D01*
X209841775Y-67159993D01*
X209823107Y-66934710D01*
X209823107Y-66934707D01*
X209767611Y-66715559D01*
X209676802Y-66508535D01*
X209553156Y-66319281D01*
X209553153Y-66319278D01*
X209553149Y-66319272D01*
X209400049Y-66152963D01*
X209400048Y-66152962D01*
X209400046Y-66152960D01*
X209221649Y-66014107D01*
X209221647Y-66014106D01*
X209221646Y-66014105D01*
X209221639Y-66014100D01*
X209193836Y-65999055D01*
X209144244Y-65949837D01*
X209129135Y-65881620D01*
X209153306Y-65816064D01*
X209193836Y-65780945D01*
X209221639Y-65765899D01*
X209221642Y-65765896D01*
X209221649Y-65765893D01*
X209400046Y-65627040D01*
X209553156Y-65460719D01*
X209676802Y-65271465D01*
X209767611Y-65064441D01*
X209823107Y-64845293D01*
X209841775Y-64620000D01*
X209841775Y-64619993D01*
X209823107Y-64394710D01*
X209823107Y-64394707D01*
X209767611Y-64175559D01*
X209676802Y-63968535D01*
X209553156Y-63779281D01*
X209553153Y-63779278D01*
X209553149Y-63779272D01*
X209400049Y-63612963D01*
X209400048Y-63612962D01*
X209400046Y-63612960D01*
X209221649Y-63474107D01*
X209221647Y-63474106D01*
X209221646Y-63474105D01*
X209221639Y-63474100D01*
X209193836Y-63459055D01*
X209144244Y-63409837D01*
X209129135Y-63341620D01*
X209153306Y-63276064D01*
X209193836Y-63240945D01*
X209221639Y-63225899D01*
X209221642Y-63225896D01*
X209221649Y-63225893D01*
X209400046Y-63087040D01*
X209553156Y-62920719D01*
X209676802Y-62731465D01*
X209767611Y-62524441D01*
X209823107Y-62305293D01*
X209841775Y-62080000D01*
X209841775Y-62079994D01*
X209841775Y-62079993D01*
X209823107Y-61854710D01*
X209823107Y-61854707D01*
X209767611Y-61635559D01*
X209676802Y-61428535D01*
X209553156Y-61239281D01*
X209553153Y-61239278D01*
X209553149Y-61239272D01*
X209400049Y-61072963D01*
X209400048Y-61072962D01*
X209400046Y-61072960D01*
X209221649Y-60934107D01*
X209221647Y-60934106D01*
X209221646Y-60934105D01*
X209221639Y-60934100D01*
X209193836Y-60919055D01*
X209144244Y-60869837D01*
X209129135Y-60801620D01*
X209153306Y-60736064D01*
X209193836Y-60700945D01*
X209221639Y-60685899D01*
X209221642Y-60685896D01*
X209221649Y-60685893D01*
X209400046Y-60547040D01*
X209553156Y-60380719D01*
X209676802Y-60191465D01*
X209767611Y-59984441D01*
X209823107Y-59765293D01*
X209830574Y-59675175D01*
X209841775Y-59540006D01*
X209841775Y-59539993D01*
X209823107Y-59314710D01*
X209823107Y-59314707D01*
X209767611Y-59095559D01*
X209676802Y-58888535D01*
X209673942Y-58884158D01*
X209553157Y-58699283D01*
X209553149Y-58699272D01*
X209400049Y-58532963D01*
X209400048Y-58532962D01*
X209400046Y-58532960D01*
X209221649Y-58394107D01*
X209221647Y-58394106D01*
X209221646Y-58394105D01*
X209221639Y-58394100D01*
X209193836Y-58379055D01*
X209144244Y-58329837D01*
X209129135Y-58261620D01*
X209153306Y-58196064D01*
X209193836Y-58160945D01*
X209221639Y-58145899D01*
X209221642Y-58145896D01*
X209221649Y-58145893D01*
X209400046Y-58007040D01*
X209553156Y-57840719D01*
X209676802Y-57651465D01*
X209767611Y-57444441D01*
X209823107Y-57225293D01*
X209841775Y-57000000D01*
X209841775Y-56999993D01*
X209823107Y-56774710D01*
X209823107Y-56774707D01*
X209767611Y-56555559D01*
X209676802Y-56348535D01*
X209651952Y-56310500D01*
X209553157Y-56159283D01*
X209553149Y-56159272D01*
X209400049Y-55992963D01*
X209400048Y-55992962D01*
X209400046Y-55992960D01*
X209221649Y-55854107D01*
X209221647Y-55854106D01*
X209221646Y-55854105D01*
X209221639Y-55854100D01*
X209193836Y-55839055D01*
X209144244Y-55789837D01*
X209129135Y-55721620D01*
X209153306Y-55656064D01*
X209193836Y-55620945D01*
X209221639Y-55605899D01*
X209221642Y-55605896D01*
X209221649Y-55605893D01*
X209400046Y-55467040D01*
X209499832Y-55358643D01*
X209553149Y-55300727D01*
X209553151Y-55300724D01*
X209553156Y-55300719D01*
X209676802Y-55111465D01*
X209767611Y-54904441D01*
X209823107Y-54685293D01*
X209841775Y-54460000D01*
X209841775Y-54459993D01*
X209823107Y-54234710D01*
X209823107Y-54234707D01*
X209767611Y-54015559D01*
X209676802Y-53808535D01*
X209553156Y-53619281D01*
X209553153Y-53619278D01*
X209553149Y-53619272D01*
X209400049Y-53452963D01*
X209400048Y-53452962D01*
X209400046Y-53452960D01*
X209221649Y-53314107D01*
X209195390Y-53299896D01*
X209022832Y-53206512D01*
X209022827Y-53206510D01*
X208809017Y-53133109D01*
X208641778Y-53105202D01*
X208586033Y-53095900D01*
X208359967Y-53095900D01*
X208315370Y-53103341D01*
X208136982Y-53133109D01*
X207923172Y-53206510D01*
X207923167Y-53206512D01*
X207724352Y-53314106D01*
X207545955Y-53452959D01*
X207545950Y-53452963D01*
X207392850Y-53619272D01*
X207392842Y-53619283D01*
X207306808Y-53750968D01*
X207253662Y-53796325D01*
X207184430Y-53805748D01*
X207121095Y-53776246D01*
X207099192Y-53750968D01*
X207013157Y-53619283D01*
X207013149Y-53619272D01*
X206860049Y-53452963D01*
X206860048Y-53452962D01*
X206860046Y-53452960D01*
X206681649Y-53314107D01*
X206655390Y-53299896D01*
X206482832Y-53206512D01*
X206482827Y-53206510D01*
X206269017Y-53133109D01*
X206101778Y-53105202D01*
X206046033Y-53095900D01*
X205819967Y-53095900D01*
X205775370Y-53103341D01*
X205596982Y-53133109D01*
X205383172Y-53206510D01*
X205383167Y-53206512D01*
X205184352Y-53314106D01*
X205005955Y-53452959D01*
X205005950Y-53452963D01*
X204852850Y-53619272D01*
X204852842Y-53619283D01*
X204729198Y-53808533D01*
X204638388Y-54015560D01*
X204582892Y-54234710D01*
X204564225Y-54459993D01*
X204564225Y-54460006D01*
X204582892Y-54685289D01*
X204638388Y-54904439D01*
X204729198Y-55111466D01*
X204852842Y-55300716D01*
X204852850Y-55300727D01*
X205005950Y-55467036D01*
X205005954Y-55467040D01*
X205184351Y-55605893D01*
X205212165Y-55620945D01*
X205261755Y-55670165D01*
X205276863Y-55738382D01*
X205252692Y-55803937D01*
X205212165Y-55839055D01*
X205184352Y-55854106D01*
X205005955Y-55992959D01*
X205005950Y-55992963D01*
X204852850Y-56159272D01*
X204852842Y-56159283D01*
X204729198Y-56348533D01*
X204638388Y-56555560D01*
X204582892Y-56774710D01*
X204564225Y-56999993D01*
X204564225Y-57000006D01*
X204582892Y-57225289D01*
X204630949Y-57415060D01*
X204628324Y-57484880D01*
X204588368Y-57542197D01*
X204523767Y-57568814D01*
X204510743Y-57569500D01*
X202084004Y-57569500D01*
X201948677Y-57596418D01*
X201948667Y-57596421D01*
X201821192Y-57649222D01*
X201706454Y-57725887D01*
X201224994Y-58207347D01*
X201163671Y-58240832D01*
X201105225Y-58239442D01*
X201088410Y-58234937D01*
X200853001Y-58214341D01*
X200852999Y-58214341D01*
X200617596Y-58234936D01*
X200617586Y-58234938D01*
X200389344Y-58296094D01*
X200389335Y-58296098D01*
X200175171Y-58395964D01*
X200175169Y-58395965D01*
X199981600Y-58531503D01*
X199859673Y-58653430D01*
X199798350Y-58686914D01*
X199728658Y-58681930D01*
X199672725Y-58640058D01*
X199655810Y-58609081D01*
X199606797Y-58477671D01*
X199606793Y-58477664D01*
X199520547Y-58362455D01*
X199520544Y-58362452D01*
X199405335Y-58276206D01*
X199405332Y-58276205D01*
X199405331Y-58276204D01*
X199394161Y-58272038D01*
X199338231Y-58230166D01*
X199313816Y-58164701D01*
X199313500Y-58155858D01*
X199313500Y-55435633D01*
X199333185Y-55368594D01*
X199346271Y-55351650D01*
X199393149Y-55300727D01*
X199393151Y-55300724D01*
X199393156Y-55300719D01*
X199516802Y-55111465D01*
X199607611Y-54904441D01*
X199663107Y-54685293D01*
X199681775Y-54460000D01*
X199681775Y-54459993D01*
X199671725Y-54338711D01*
X200272500Y-54338711D01*
X200272500Y-54581288D01*
X200304161Y-54821785D01*
X200366947Y-55056104D01*
X200394936Y-55123675D01*
X200459776Y-55280212D01*
X200581064Y-55490289D01*
X200581066Y-55490292D01*
X200581067Y-55490293D01*
X200728733Y-55682736D01*
X200728739Y-55682743D01*
X200900256Y-55854260D01*
X200900262Y-55854265D01*
X201092711Y-56001936D01*
X201302788Y-56123224D01*
X201526900Y-56216054D01*
X201761211Y-56278838D01*
X201941586Y-56302584D01*
X202001711Y-56310500D01*
X202001712Y-56310500D01*
X202244289Y-56310500D01*
X202292388Y-56304167D01*
X202484789Y-56278838D01*
X202719100Y-56216054D01*
X202943212Y-56123224D01*
X203153289Y-56001936D01*
X203345738Y-55854265D01*
X203517265Y-55682738D01*
X203664936Y-55490289D01*
X203786224Y-55280212D01*
X203879054Y-55056100D01*
X203941838Y-54821789D01*
X203973500Y-54581288D01*
X203973500Y-54338712D01*
X203941838Y-54098211D01*
X203879054Y-53863900D01*
X203786224Y-53639788D01*
X203664936Y-53429711D01*
X203517265Y-53237262D01*
X203517260Y-53237256D01*
X203345743Y-53065739D01*
X203345736Y-53065733D01*
X203153293Y-52918067D01*
X203153292Y-52918066D01*
X203153289Y-52918064D01*
X202943212Y-52796776D01*
X202943205Y-52796773D01*
X202719104Y-52703947D01*
X202484785Y-52641161D01*
X202244289Y-52609500D01*
X202244288Y-52609500D01*
X202001712Y-52609500D01*
X202001711Y-52609500D01*
X201761214Y-52641161D01*
X201526895Y-52703947D01*
X201302794Y-52796773D01*
X201302785Y-52796777D01*
X201092706Y-52918067D01*
X200900263Y-53065733D01*
X200900256Y-53065739D01*
X200728739Y-53237256D01*
X200728733Y-53237263D01*
X200581067Y-53429706D01*
X200459777Y-53639785D01*
X200459773Y-53639794D01*
X200366947Y-53863895D01*
X200304161Y-54098214D01*
X200272500Y-54338711D01*
X199671725Y-54338711D01*
X199663107Y-54234710D01*
X199663107Y-54234707D01*
X199607611Y-54015559D01*
X199516802Y-53808535D01*
X199393156Y-53619281D01*
X199393153Y-53619278D01*
X199393149Y-53619272D01*
X199240049Y-53452963D01*
X199240048Y-53452962D01*
X199240046Y-53452960D01*
X199061649Y-53314107D01*
X199035390Y-53299896D01*
X198862832Y-53206512D01*
X198862827Y-53206510D01*
X198649017Y-53133109D01*
X198481778Y-53105202D01*
X198426033Y-53095900D01*
X198199967Y-53095900D01*
X198155370Y-53103341D01*
X197976982Y-53133109D01*
X197763172Y-53206510D01*
X197763167Y-53206512D01*
X197564352Y-53314106D01*
X197385955Y-53452959D01*
X197385950Y-53452963D01*
X197232850Y-53619272D01*
X197232842Y-53619283D01*
X197146808Y-53750968D01*
X197093662Y-53796325D01*
X197024430Y-53805748D01*
X196961095Y-53776246D01*
X196939192Y-53750968D01*
X196853157Y-53619283D01*
X196853149Y-53619272D01*
X196700049Y-53452963D01*
X196700048Y-53452962D01*
X196700046Y-53452960D01*
X196521649Y-53314107D01*
X196495390Y-53299896D01*
X196322832Y-53206512D01*
X196322827Y-53206510D01*
X196109017Y-53133109D01*
X195941778Y-53105202D01*
X195886033Y-53095900D01*
X195659967Y-53095900D01*
X195615370Y-53103341D01*
X195436982Y-53133109D01*
X195223172Y-53206510D01*
X195223167Y-53206512D01*
X195024352Y-53314106D01*
X194845955Y-53452959D01*
X194845950Y-53452963D01*
X194692850Y-53619272D01*
X194692842Y-53619283D01*
X194606808Y-53750968D01*
X194553662Y-53796325D01*
X194484430Y-53805748D01*
X194421095Y-53776246D01*
X194399192Y-53750968D01*
X194313157Y-53619283D01*
X194313149Y-53619272D01*
X194160049Y-53452963D01*
X194160048Y-53452962D01*
X194160046Y-53452960D01*
X193981649Y-53314107D01*
X193955390Y-53299896D01*
X193782832Y-53206512D01*
X193782827Y-53206510D01*
X193569017Y-53133109D01*
X193401778Y-53105202D01*
X193346033Y-53095900D01*
X193119967Y-53095900D01*
X193075370Y-53103341D01*
X192896982Y-53133109D01*
X192683172Y-53206510D01*
X192683167Y-53206512D01*
X192484352Y-53314106D01*
X192305955Y-53452959D01*
X192305950Y-53452963D01*
X192152850Y-53619272D01*
X192152842Y-53619283D01*
X192066808Y-53750968D01*
X192013662Y-53796325D01*
X191944430Y-53805748D01*
X191881095Y-53776246D01*
X191859192Y-53750968D01*
X191773157Y-53619283D01*
X191773149Y-53619272D01*
X191620049Y-53452963D01*
X191620048Y-53452962D01*
X191620046Y-53452960D01*
X191441649Y-53314107D01*
X191415390Y-53299896D01*
X191242832Y-53206512D01*
X191242827Y-53206510D01*
X191029017Y-53133109D01*
X190861778Y-53105202D01*
X190806033Y-53095900D01*
X190579967Y-53095900D01*
X190535370Y-53103341D01*
X190356982Y-53133109D01*
X190143172Y-53206510D01*
X190143167Y-53206512D01*
X189944352Y-53314106D01*
X189765955Y-53452959D01*
X189765950Y-53452963D01*
X189612850Y-53619272D01*
X189612842Y-53619283D01*
X189526808Y-53750968D01*
X189473662Y-53796325D01*
X189404430Y-53805748D01*
X189341095Y-53776246D01*
X189319192Y-53750968D01*
X189233157Y-53619283D01*
X189233149Y-53619272D01*
X189080049Y-53452963D01*
X189080048Y-53452962D01*
X189080046Y-53452960D01*
X188901649Y-53314107D01*
X188875390Y-53299896D01*
X188702832Y-53206512D01*
X188702827Y-53206510D01*
X188489017Y-53133109D01*
X188321778Y-53105202D01*
X188266033Y-53095900D01*
X188039967Y-53095900D01*
X187995370Y-53103341D01*
X187816982Y-53133109D01*
X187603172Y-53206510D01*
X187603167Y-53206512D01*
X187404352Y-53314106D01*
X187225955Y-53452959D01*
X187225950Y-53452963D01*
X187072850Y-53619272D01*
X187072842Y-53619283D01*
X186986808Y-53750968D01*
X186933662Y-53796325D01*
X186864430Y-53805748D01*
X186801095Y-53776246D01*
X186779192Y-53750968D01*
X186693157Y-53619283D01*
X186693149Y-53619272D01*
X186540049Y-53452963D01*
X186540048Y-53452962D01*
X186540046Y-53452960D01*
X186361649Y-53314107D01*
X186335390Y-53299896D01*
X186162832Y-53206512D01*
X186162827Y-53206510D01*
X185949017Y-53133109D01*
X185781778Y-53105202D01*
X185726033Y-53095900D01*
X185499967Y-53095900D01*
X185455370Y-53103341D01*
X185276982Y-53133109D01*
X185063172Y-53206510D01*
X185063167Y-53206512D01*
X184864352Y-53314106D01*
X184685955Y-53452959D01*
X184685950Y-53452963D01*
X184532850Y-53619272D01*
X184532842Y-53619283D01*
X184446808Y-53750968D01*
X184393662Y-53796325D01*
X184324430Y-53805748D01*
X184261095Y-53776246D01*
X184239192Y-53750968D01*
X184153157Y-53619283D01*
X184153149Y-53619272D01*
X184000049Y-53452963D01*
X184000048Y-53452962D01*
X184000046Y-53452960D01*
X183821649Y-53314107D01*
X183795390Y-53299896D01*
X183622832Y-53206512D01*
X183622827Y-53206510D01*
X183409017Y-53133109D01*
X183241778Y-53105202D01*
X183186033Y-53095900D01*
X182959967Y-53095900D01*
X182915370Y-53103341D01*
X182736982Y-53133109D01*
X182523172Y-53206510D01*
X182523167Y-53206512D01*
X182324352Y-53314106D01*
X182145955Y-53452959D01*
X182145950Y-53452963D01*
X181992850Y-53619272D01*
X181992842Y-53619283D01*
X181906808Y-53750968D01*
X181853662Y-53796325D01*
X181784430Y-53805748D01*
X181721095Y-53776246D01*
X181699192Y-53750968D01*
X181613157Y-53619283D01*
X181613149Y-53619272D01*
X181460049Y-53452963D01*
X181460048Y-53452962D01*
X181460046Y-53452960D01*
X181281649Y-53314107D01*
X181255390Y-53299896D01*
X181082832Y-53206512D01*
X181082827Y-53206510D01*
X180869017Y-53133109D01*
X180701778Y-53105202D01*
X180646033Y-53095900D01*
X180419967Y-53095900D01*
X180375370Y-53103341D01*
X180196982Y-53133109D01*
X179983172Y-53206510D01*
X179983167Y-53206512D01*
X179784352Y-53314106D01*
X179605955Y-53452959D01*
X179605950Y-53452963D01*
X179452850Y-53619272D01*
X179452842Y-53619283D01*
X179329198Y-53808533D01*
X179238388Y-54015560D01*
X179182892Y-54234710D01*
X179164225Y-54459993D01*
X179164225Y-54460006D01*
X179182892Y-54685289D01*
X179238388Y-54904439D01*
X179329198Y-55111466D01*
X179452842Y-55300716D01*
X179452850Y-55300727D01*
X179499729Y-55351650D01*
X179530652Y-55414304D01*
X179532500Y-55435633D01*
X179532500Y-58609241D01*
X179512815Y-58676280D01*
X179496181Y-58696922D01*
X179494505Y-58698597D01*
X179358965Y-58892169D01*
X179358964Y-58892171D01*
X179259098Y-59106335D01*
X179259094Y-59106344D01*
X179197938Y-59334586D01*
X179197936Y-59334596D01*
X179177341Y-59569999D01*
X179177341Y-59570000D01*
X179197936Y-59805403D01*
X179197938Y-59805413D01*
X179259094Y-60033655D01*
X179259096Y-60033659D01*
X179259097Y-60033663D01*
X179342358Y-60212217D01*
X179358965Y-60247830D01*
X179358967Y-60247834D01*
X179467281Y-60402521D01*
X179494501Y-60441396D01*
X179494506Y-60441402D01*
X179661597Y-60608493D01*
X179661603Y-60608498D01*
X179692004Y-60629785D01*
X179735629Y-60684362D01*
X179742823Y-60753860D01*
X179711300Y-60816215D01*
X179697044Y-60829213D01*
X179513258Y-60972260D01*
X179354230Y-61145010D01*
X179294342Y-61181001D01*
X179224504Y-61178900D01*
X179171770Y-61145010D01*
X179105442Y-61072959D01*
X179012744Y-60972262D01*
X178816509Y-60819526D01*
X178816507Y-60819525D01*
X178816506Y-60819524D01*
X178597811Y-60701172D01*
X178597802Y-60701169D01*
X178362616Y-60620429D01*
X178117335Y-60579500D01*
X177868665Y-60579500D01*
X177623383Y-60620429D01*
X177388197Y-60701169D01*
X177388188Y-60701172D01*
X177169493Y-60819524D01*
X176973257Y-60972261D01*
X176814230Y-61145010D01*
X176754342Y-61181001D01*
X176684504Y-61178900D01*
X176631770Y-61145010D01*
X176565442Y-61072959D01*
X176472744Y-60972262D01*
X176276509Y-60819526D01*
X176276505Y-60819523D01*
X176272462Y-60816377D01*
X176273919Y-60814503D01*
X176234990Y-60768882D01*
X176225570Y-60699650D01*
X176255076Y-60636316D01*
X176277048Y-60616652D01*
X176288700Y-60608493D01*
X176324401Y-60583495D01*
X176491495Y-60416401D01*
X176627035Y-60222830D01*
X176726903Y-60008663D01*
X176788063Y-59780408D01*
X176808659Y-59545000D01*
X176788063Y-59309592D01*
X176726903Y-59081337D01*
X176627035Y-58867171D01*
X176621425Y-58859158D01*
X176491494Y-58673597D01*
X176489819Y-58671922D01*
X176489315Y-58671000D01*
X176488014Y-58669449D01*
X176488325Y-58669187D01*
X176456334Y-58610599D01*
X176453500Y-58584241D01*
X176453500Y-55435633D01*
X176473185Y-55368594D01*
X176486271Y-55351650D01*
X176533149Y-55300727D01*
X176533151Y-55300724D01*
X176533156Y-55300719D01*
X176656802Y-55111465D01*
X176747611Y-54904441D01*
X176803107Y-54685293D01*
X176821775Y-54460000D01*
X176821775Y-54459993D01*
X176803107Y-54234710D01*
X176803107Y-54234707D01*
X176747611Y-54015559D01*
X176656802Y-53808535D01*
X176533156Y-53619281D01*
X176533153Y-53619278D01*
X176533149Y-53619272D01*
X176380049Y-53452963D01*
X176380048Y-53452962D01*
X176380046Y-53452960D01*
X176201649Y-53314107D01*
X176175390Y-53299896D01*
X176002832Y-53206512D01*
X176002827Y-53206510D01*
X175789017Y-53133109D01*
X175621778Y-53105202D01*
X175566033Y-53095900D01*
X175339967Y-53095900D01*
X175295370Y-53103341D01*
X175116982Y-53133109D01*
X174903172Y-53206510D01*
X174903167Y-53206512D01*
X174704352Y-53314106D01*
X174525955Y-53452959D01*
X174525950Y-53452963D01*
X174372850Y-53619272D01*
X174372842Y-53619283D01*
X174286808Y-53750968D01*
X174233662Y-53796325D01*
X174164430Y-53805748D01*
X174101095Y-53776246D01*
X174079192Y-53750968D01*
X173993157Y-53619283D01*
X173993149Y-53619272D01*
X173840049Y-53452963D01*
X173840048Y-53452962D01*
X173840046Y-53452960D01*
X173661649Y-53314107D01*
X173635390Y-53299896D01*
X173462832Y-53206512D01*
X173462827Y-53206510D01*
X173249017Y-53133109D01*
X173081778Y-53105202D01*
X173026033Y-53095900D01*
X172799967Y-53095900D01*
X172755370Y-53103341D01*
X172576982Y-53133109D01*
X172363172Y-53206510D01*
X172363167Y-53206512D01*
X172164352Y-53314106D01*
X171985955Y-53452959D01*
X171985950Y-53452963D01*
X171832850Y-53619272D01*
X171832842Y-53619283D01*
X171746808Y-53750968D01*
X171693662Y-53796325D01*
X171624430Y-53805748D01*
X171561095Y-53776246D01*
X171539192Y-53750968D01*
X171453157Y-53619283D01*
X171453149Y-53619272D01*
X171300049Y-53452963D01*
X171300048Y-53452962D01*
X171300046Y-53452960D01*
X171121649Y-53314107D01*
X171095390Y-53299896D01*
X170922832Y-53206512D01*
X170922827Y-53206510D01*
X170709017Y-53133109D01*
X170541778Y-53105202D01*
X170486033Y-53095900D01*
X170259967Y-53095900D01*
X170215370Y-53103341D01*
X170036982Y-53133109D01*
X169823172Y-53206510D01*
X169823167Y-53206512D01*
X169624352Y-53314106D01*
X169445955Y-53452959D01*
X169445950Y-53452963D01*
X169292850Y-53619272D01*
X169292842Y-53619283D01*
X169206808Y-53750968D01*
X169153662Y-53796325D01*
X169084430Y-53805748D01*
X169021095Y-53776246D01*
X168999192Y-53750968D01*
X168913157Y-53619283D01*
X168913149Y-53619272D01*
X168760049Y-53452963D01*
X168760048Y-53452962D01*
X168760046Y-53452960D01*
X168581649Y-53314107D01*
X168555390Y-53299896D01*
X168382832Y-53206512D01*
X168382827Y-53206510D01*
X168169017Y-53133109D01*
X168001778Y-53105202D01*
X167946033Y-53095900D01*
X167719967Y-53095900D01*
X167675370Y-53103341D01*
X167496982Y-53133109D01*
X167283172Y-53206510D01*
X167283167Y-53206512D01*
X167084352Y-53314106D01*
X166905955Y-53452959D01*
X166905950Y-53452963D01*
X166752850Y-53619272D01*
X166752842Y-53619283D01*
X166629198Y-53808533D01*
X166538388Y-54015560D01*
X166482892Y-54234710D01*
X166464225Y-54459993D01*
X166464225Y-54460006D01*
X166482892Y-54685289D01*
X166538388Y-54904439D01*
X166629198Y-55111466D01*
X166752842Y-55300716D01*
X166752850Y-55300727D01*
X166799729Y-55351650D01*
X166830652Y-55414304D01*
X166832500Y-55435633D01*
X166832500Y-58130858D01*
X166812815Y-58197897D01*
X166760011Y-58243652D01*
X166751847Y-58247034D01*
X166740669Y-58251204D01*
X166740664Y-58251206D01*
X166625455Y-58337452D01*
X166625452Y-58337455D01*
X166539206Y-58452664D01*
X166539202Y-58452671D01*
X166488908Y-58587517D01*
X166482501Y-58647116D01*
X166482500Y-58647135D01*
X166482500Y-60442870D01*
X166482501Y-60442876D01*
X166488908Y-60502483D01*
X166539202Y-60637328D01*
X166539206Y-60637335D01*
X166600368Y-60719035D01*
X166625454Y-60752546D01*
X166740669Y-60838796D01*
X166740670Y-60838796D01*
X166746494Y-60843156D01*
X166788365Y-60899090D01*
X166793349Y-60968782D01*
X166763413Y-61026406D01*
X166654230Y-61145010D01*
X166594343Y-61181001D01*
X166524504Y-61178900D01*
X166471770Y-61145010D01*
X166405442Y-61072959D01*
X166312744Y-60972262D01*
X166116509Y-60819526D01*
X166116507Y-60819525D01*
X166116506Y-60819524D01*
X165897811Y-60701172D01*
X165897802Y-60701169D01*
X165662616Y-60620429D01*
X165417335Y-60579500D01*
X165168665Y-60579500D01*
X164923383Y-60620429D01*
X164688197Y-60701169D01*
X164688188Y-60701172D01*
X164469493Y-60819524D01*
X164273257Y-60972261D01*
X164104833Y-61155217D01*
X163968826Y-61363393D01*
X163868936Y-61591118D01*
X163807892Y-61832175D01*
X163807890Y-61832187D01*
X163787357Y-62079994D01*
X163787357Y-62080005D01*
X163807890Y-62327812D01*
X163807892Y-62327824D01*
X163868936Y-62568881D01*
X163968826Y-62796606D01*
X164104833Y-63004782D01*
X164104836Y-63004785D01*
X164273256Y-63187738D01*
X164356008Y-63252147D01*
X164396821Y-63308857D01*
X164400496Y-63378630D01*
X164365864Y-63439313D01*
X164356014Y-63447848D01*
X164273256Y-63512262D01*
X164259073Y-63527669D01*
X164104832Y-63695219D01*
X164025659Y-63816402D01*
X163972513Y-63861759D01*
X163903281Y-63871182D01*
X163839946Y-63841680D01*
X163820277Y-63819704D01*
X163791495Y-63778599D01*
X163791494Y-63778598D01*
X163791492Y-63778595D01*
X163624402Y-63611506D01*
X163624395Y-63611501D01*
X163430834Y-63475967D01*
X163430830Y-63475965D01*
X163430828Y-63475964D01*
X163216663Y-63376097D01*
X163216659Y-63376096D01*
X163216655Y-63376094D01*
X162988413Y-63314938D01*
X162988403Y-63314936D01*
X162753001Y-63294341D01*
X162752999Y-63294341D01*
X162517596Y-63314936D01*
X162517586Y-63314938D01*
X162289344Y-63376094D01*
X162289335Y-63376098D01*
X162075171Y-63475964D01*
X162075169Y-63475965D01*
X161881597Y-63611505D01*
X161879922Y-63613181D01*
X161879000Y-63613684D01*
X161877449Y-63614986D01*
X161877187Y-63614674D01*
X161818599Y-63646666D01*
X161792241Y-63649500D01*
X161638331Y-63649500D01*
X161571292Y-63629815D01*
X161525537Y-63577011D01*
X161522149Y-63568832D01*
X161506798Y-63527673D01*
X161506793Y-63527664D01*
X161420547Y-63412455D01*
X161420544Y-63412452D01*
X161305335Y-63326206D01*
X161305328Y-63326202D01*
X161170482Y-63275908D01*
X161170483Y-63275908D01*
X161110883Y-63269501D01*
X161110881Y-63269500D01*
X161110873Y-63269500D01*
X161110864Y-63269500D01*
X159315129Y-63269500D01*
X159315123Y-63269501D01*
X159255516Y-63275908D01*
X159120671Y-63326202D01*
X159120664Y-63326206D01*
X159005455Y-63412452D01*
X159005452Y-63412455D01*
X158919206Y-63527664D01*
X158919202Y-63527671D01*
X158868908Y-63662517D01*
X158862501Y-63722116D01*
X158862500Y-63722135D01*
X158862500Y-64504216D01*
X158842815Y-64571255D01*
X158826180Y-64591897D01*
X156825719Y-66592360D01*
X156825717Y-66592362D01*
X156777579Y-66640500D01*
X156686358Y-66731720D01*
X156630102Y-66815914D01*
X156576490Y-66860719D01*
X156507165Y-66869426D01*
X156444137Y-66839271D01*
X156407418Y-66779828D01*
X156403000Y-66747023D01*
X156403000Y-52044000D01*
X156422685Y-51976961D01*
X156475489Y-51931206D01*
X156527000Y-51920000D01*
X210889000Y-51920000D01*
X210956039Y-51939685D01*
G37*
%TD.AperFunction*%
%TA.AperFunction,Conductor*%
G36*
X160463000Y-73570633D02*
G01*
X160676483Y-73513433D01*
X160676492Y-73513429D01*
X160890578Y-73413600D01*
X161084078Y-73278108D01*
X161199692Y-73162494D01*
X161261015Y-73129009D01*
X161330707Y-73133993D01*
X161386641Y-73175864D01*
X161408050Y-73221657D01*
X161409401Y-73227373D01*
X161459645Y-73362086D01*
X161459649Y-73362093D01*
X161545809Y-73477187D01*
X161545812Y-73477190D01*
X161660906Y-73563350D01*
X161660913Y-73563354D01*
X161795620Y-73613596D01*
X161795627Y-73613598D01*
X161855155Y-73619999D01*
X161855172Y-73620000D01*
X162503000Y-73620000D01*
X162503000Y-72703012D01*
X162560007Y-72735925D01*
X162687174Y-72770000D01*
X162818826Y-72770000D01*
X162945993Y-72735925D01*
X163003000Y-72703012D01*
X163003000Y-73620000D01*
X163650828Y-73620000D01*
X163650844Y-73619999D01*
X163710372Y-73613598D01*
X163710379Y-73613596D01*
X163845086Y-73563354D01*
X163845093Y-73563350D01*
X163960187Y-73477190D01*
X163960190Y-73477187D01*
X164046350Y-73362093D01*
X164050604Y-73354304D01*
X164052699Y-73355448D01*
X164086841Y-73309819D01*
X164152300Y-73285387D01*
X164220576Y-73300223D01*
X164252401Y-73325084D01*
X164273256Y-73347738D01*
X164356008Y-73412147D01*
X164396821Y-73468857D01*
X164400496Y-73538630D01*
X164365864Y-73599313D01*
X164356014Y-73607848D01*
X164312683Y-73641575D01*
X164273257Y-73672261D01*
X164104833Y-73855217D01*
X163968826Y-74063393D01*
X163868936Y-74291118D01*
X163807892Y-74532175D01*
X163807890Y-74532187D01*
X163787357Y-74779994D01*
X163787357Y-74780005D01*
X163807890Y-75027812D01*
X163807892Y-75027824D01*
X163868936Y-75268881D01*
X163968826Y-75496606D01*
X164104833Y-75704782D01*
X164104836Y-75704785D01*
X164273256Y-75887738D01*
X164356008Y-75952147D01*
X164396821Y-76008857D01*
X164400496Y-76078630D01*
X164365864Y-76139313D01*
X164356014Y-76147848D01*
X164319888Y-76175967D01*
X164273257Y-76212261D01*
X164104832Y-76395219D01*
X164025659Y-76516402D01*
X163972513Y-76561759D01*
X163903281Y-76571182D01*
X163839946Y-76541680D01*
X163820277Y-76519704D01*
X163791495Y-76478599D01*
X163791494Y-76478598D01*
X163791492Y-76478595D01*
X163624402Y-76311506D01*
X163624395Y-76311501D01*
X163430834Y-76175967D01*
X163430830Y-76175965D01*
X163430828Y-76175964D01*
X163216663Y-76076097D01*
X163216659Y-76076096D01*
X163216655Y-76076094D01*
X162988413Y-76014938D01*
X162988403Y-76014936D01*
X162753001Y-75994341D01*
X162752999Y-75994341D01*
X162517596Y-76014936D01*
X162517586Y-76014938D01*
X162289344Y-76076094D01*
X162289335Y-76076098D01*
X162075171Y-76175964D01*
X162075169Y-76175965D01*
X161894661Y-76302357D01*
X161828454Y-76324684D01*
X161760687Y-76307673D01*
X161712875Y-76256725D01*
X161700197Y-76188015D01*
X161701917Y-76176609D01*
X161707501Y-76148540D01*
X161707501Y-75951460D01*
X161707501Y-75951457D01*
X161707500Y-75951455D01*
X161694826Y-75887738D01*
X161669052Y-75758164D01*
X161593632Y-75576086D01*
X161593630Y-75576083D01*
X161593628Y-75576079D01*
X161484140Y-75412219D01*
X161484137Y-75412215D01*
X159852495Y-73780574D01*
X159819010Y-73719251D01*
X159823994Y-73649559D01*
X159865866Y-73593626D01*
X159931330Y-73569209D01*
X159961147Y-73572056D01*
X159963000Y-73570634D01*
X159963000Y-72673012D01*
X160020007Y-72705925D01*
X160147174Y-72740000D01*
X160278826Y-72740000D01*
X160405993Y-72705925D01*
X160463000Y-72673012D01*
X160463000Y-73570633D01*
G37*
%TD.AperFunction*%
%TA.AperFunction,Conductor*%
G36*
X161591677Y-72009685D02*
G01*
X161604477Y-72020000D01*
X162319988Y-72020000D01*
X162287075Y-72077007D01*
X162253000Y-72204174D01*
X162253000Y-72335826D01*
X162287075Y-72462993D01*
X162319988Y-72520000D01*
X161441362Y-72520000D01*
X161374323Y-72500315D01*
X161361523Y-72490000D01*
X160646012Y-72490000D01*
X160678925Y-72432993D01*
X160713000Y-72305826D01*
X160713000Y-72174174D01*
X160678925Y-72047007D01*
X160646012Y-71990000D01*
X161524638Y-71990000D01*
X161591677Y-72009685D01*
G37*
%TD.AperFunction*%
%TD*%
M02*
