%TF.GenerationSoftware,KiCad,Pcbnew,8.0.4*%
%TF.CreationDate,2025-02-28T20:51:48+01:00*%
%TF.ProjectId,Lochraster,4c6f6368-7261-4737-9465-722e6b696361,rev?*%
%TF.SameCoordinates,Original*%
%TF.FileFunction,Drillmap*%
%TF.FilePolarity,Positive*%
%FSLAX45Y45*%
G04 Gerber Fmt 4.5, Leading zero omitted, Abs format (unit mm)*
G04 Created by KiCad (PCBNEW 8.0.4) date 2025-02-28 20:51:48*
%MOMM*%
%LPD*%
G01*
G04 APERTURE LIST*
%ADD10C,0.100000*%
%ADD11C,0.200000*%
%ADD12C,0.101600*%
%ADD13C,0.320000*%
G04 APERTURE END LIST*
D10*
X15640300Y-5192000D02*
X15640300Y-10526000D01*
X21101300Y-10526000D02*
X21101300Y-5192000D01*
X21101300Y-5192000D02*
X15640300Y-5192000D01*
D11*
D10*
X15673300Y-8985000D02*
X15713300Y-9025000D01*
X15713300Y-8985000D02*
X15673300Y-9025000D01*
X15772700Y-6289600D02*
X15812700Y-6329600D01*
X15812700Y-6289600D02*
X15772700Y-6329600D01*
X15810750Y-8220000D02*
X15850750Y-8260000D01*
X15850750Y-8220000D02*
X15810750Y-8260000D01*
X15810800Y-9490000D02*
X15850800Y-9530000D01*
X15850800Y-9490000D02*
X15810800Y-9530000D01*
X15937800Y-9236000D02*
X15977800Y-9276000D01*
X15977800Y-9236000D02*
X15937800Y-9276000D01*
X16050700Y-7585000D02*
X16090700Y-7625000D01*
X16090700Y-7585000D02*
X16050700Y-7625000D01*
X16079068Y-8100050D02*
X16119068Y-8140050D01*
X16119068Y-8100050D02*
X16079068Y-8140050D01*
X16071300Y-6462000D02*
G75*
G02*
X15971300Y-6462000I-50000J0D01*
G01*
X15971300Y-6462000D02*
G75*
G02*
X16071300Y-6462000I50000J0D01*
G01*
X16071300Y-6716000D02*
G75*
G02*
X15971300Y-6716000I-50000J0D01*
G01*
X15971300Y-6716000D02*
G75*
G02*
X16071300Y-6716000I50000J0D01*
G01*
X16071300Y-6970000D02*
G75*
G02*
X15971300Y-6970000I-50000J0D01*
G01*
X15971300Y-6970000D02*
G75*
G02*
X16071300Y-6970000I50000J0D01*
G01*
X16071300Y-7224000D02*
G75*
G02*
X15971300Y-7224000I-50000J0D01*
G01*
X15971300Y-7224000D02*
G75*
G02*
X16071300Y-7224000I50000J0D01*
G01*
X16325300Y-6465000D02*
G75*
G02*
X16225300Y-6465000I-50000J0D01*
G01*
X16225300Y-6465000D02*
G75*
G02*
X16325300Y-6465000I50000J0D01*
G01*
X16325300Y-6719000D02*
G75*
G02*
X16225300Y-6719000I-50000J0D01*
G01*
X16225300Y-6719000D02*
G75*
G02*
X16325300Y-6719000I50000J0D01*
G01*
X16325300Y-6973000D02*
G75*
G02*
X16225300Y-6973000I-50000J0D01*
G01*
X16225300Y-6973000D02*
G75*
G02*
X16325300Y-6973000I50000J0D01*
G01*
X16325300Y-7227000D02*
G75*
G02*
X16225300Y-7227000I-50000J0D01*
G01*
X16225300Y-7227000D02*
G75*
G02*
X16325300Y-7227000I50000J0D01*
G01*
X16325300Y-7735000D02*
G75*
G02*
X16225300Y-7735000I-50000J0D01*
G01*
X16225300Y-7735000D02*
G75*
G02*
X16325300Y-7735000I50000J0D01*
G01*
X16325300Y-7989000D02*
G75*
G02*
X16225300Y-7989000I-50000J0D01*
G01*
X16225300Y-7989000D02*
G75*
G02*
X16325300Y-7989000I50000J0D01*
G01*
X16325300Y-8243000D02*
G75*
G02*
X16225300Y-8243000I-50000J0D01*
G01*
X16225300Y-8243000D02*
G75*
G02*
X16325300Y-8243000I50000J0D01*
G01*
X16325300Y-8497000D02*
G75*
G02*
X16225300Y-8497000I-50000J0D01*
G01*
X16225300Y-8497000D02*
G75*
G02*
X16325300Y-8497000I50000J0D01*
G01*
X16325300Y-9005000D02*
G75*
G02*
X16225300Y-9005000I-50000J0D01*
G01*
X16225300Y-9005000D02*
G75*
G02*
X16325300Y-9005000I50000J0D01*
G01*
X16325300Y-9259000D02*
G75*
G02*
X16225300Y-9259000I-50000J0D01*
G01*
X16225300Y-9259000D02*
G75*
G02*
X16325300Y-9259000I50000J0D01*
G01*
X16325300Y-9513000D02*
G75*
G02*
X16225300Y-9513000I-50000J0D01*
G01*
X16225300Y-9513000D02*
G75*
G02*
X16325300Y-9513000I50000J0D01*
G01*
X16325300Y-9767000D02*
G75*
G02*
X16225300Y-9767000I-50000J0D01*
G01*
X16225300Y-9767000D02*
G75*
G02*
X16325300Y-9767000I50000J0D01*
G01*
X16579300Y-10021000D02*
G75*
G02*
X16479300Y-10021000I-50000J0D01*
G01*
X16479300Y-10021000D02*
G75*
G02*
X16579300Y-10021000I50000J0D01*
G01*
X16833300Y-5954500D02*
G75*
G02*
X16733300Y-5954500I-50000J0D01*
G01*
X16733300Y-5954500D02*
G75*
G02*
X16833300Y-5954500I50000J0D01*
G01*
X16833300Y-10021000D02*
G75*
G02*
X16733300Y-10021000I-50000J0D01*
G01*
X16733300Y-10021000D02*
G75*
G02*
X16833300Y-10021000I50000J0D01*
G01*
X17087300Y-5954500D02*
G75*
G02*
X16987300Y-5954500I-50000J0D01*
G01*
X16987300Y-5954500D02*
G75*
G02*
X17087300Y-5954500I50000J0D01*
G01*
X17087300Y-10021000D02*
G75*
G02*
X16987300Y-10021000I-50000J0D01*
G01*
X16987300Y-10021000D02*
G75*
G02*
X17087300Y-10021000I50000J0D01*
G01*
X17341300Y-5954500D02*
G75*
G02*
X17241300Y-5954500I-50000J0D01*
G01*
X17241300Y-5954500D02*
G75*
G02*
X17341300Y-5954500I50000J0D01*
G01*
X17341300Y-10021000D02*
G75*
G02*
X17241300Y-10021000I-50000J0D01*
G01*
X17241300Y-10021000D02*
G75*
G02*
X17341300Y-10021000I50000J0D01*
G01*
X17595300Y-5954500D02*
G75*
G02*
X17495300Y-5954500I-50000J0D01*
G01*
X17495300Y-5954500D02*
G75*
G02*
X17595300Y-5954500I50000J0D01*
G01*
X17595300Y-10021000D02*
G75*
G02*
X17495300Y-10021000I-50000J0D01*
G01*
X17495300Y-10021000D02*
G75*
G02*
X17595300Y-10021000I50000J0D01*
G01*
X17849300Y-10021000D02*
G75*
G02*
X17749300Y-10021000I-50000J0D01*
G01*
X17749300Y-10021000D02*
G75*
G02*
X17849300Y-10021000I50000J0D01*
G01*
X18103300Y-5957000D02*
G75*
G02*
X18003300Y-5957000I-50000J0D01*
G01*
X18003300Y-5957000D02*
G75*
G02*
X18103300Y-5957000I50000J0D01*
G01*
X18103300Y-10021000D02*
G75*
G02*
X18003300Y-10021000I-50000J0D01*
G01*
X18003300Y-10021000D02*
G75*
G02*
X18103300Y-10021000I50000J0D01*
G01*
X18357300Y-5957000D02*
G75*
G02*
X18257300Y-5957000I-50000J0D01*
G01*
X18257300Y-5957000D02*
G75*
G02*
X18357300Y-5957000I50000J0D01*
G01*
X18611300Y-5957000D02*
G75*
G02*
X18511300Y-5957000I-50000J0D01*
G01*
X18511300Y-5957000D02*
G75*
G02*
X18611300Y-5957000I50000J0D01*
G01*
X18612800Y-10018500D02*
G75*
G02*
X18512800Y-10018500I-50000J0D01*
G01*
X18512800Y-10018500D02*
G75*
G02*
X18612800Y-10018500I50000J0D01*
G01*
X18865300Y-5957000D02*
G75*
G02*
X18765300Y-5957000I-50000J0D01*
G01*
X18765300Y-5957000D02*
G75*
G02*
X18865300Y-5957000I50000J0D01*
G01*
X18866800Y-10018500D02*
G75*
G02*
X18766800Y-10018500I-50000J0D01*
G01*
X18766800Y-10018500D02*
G75*
G02*
X18866800Y-10018500I50000J0D01*
G01*
X19119300Y-5957000D02*
G75*
G02*
X19019300Y-5957000I-50000J0D01*
G01*
X19019300Y-5957000D02*
G75*
G02*
X19119300Y-5957000I50000J0D01*
G01*
X19120800Y-10018500D02*
G75*
G02*
X19020800Y-10018500I-50000J0D01*
G01*
X19020800Y-10018500D02*
G75*
G02*
X19120800Y-10018500I50000J0D01*
G01*
X19373300Y-5957000D02*
G75*
G02*
X19273300Y-5957000I-50000J0D01*
G01*
X19273300Y-5957000D02*
G75*
G02*
X19373300Y-5957000I50000J0D01*
G01*
X19374800Y-10018500D02*
G75*
G02*
X19274800Y-10018500I-50000J0D01*
G01*
X19274800Y-10018500D02*
G75*
G02*
X19374800Y-10018500I50000J0D01*
G01*
X19627300Y-5957000D02*
G75*
G02*
X19527300Y-5957000I-50000J0D01*
G01*
X19527300Y-5957000D02*
G75*
G02*
X19627300Y-5957000I50000J0D01*
G01*
X19628800Y-10018500D02*
G75*
G02*
X19528800Y-10018500I-50000J0D01*
G01*
X19528800Y-10018500D02*
G75*
G02*
X19628800Y-10018500I50000J0D01*
G01*
X19881300Y-5957000D02*
G75*
G02*
X19781300Y-5957000I-50000J0D01*
G01*
X19781300Y-5957000D02*
G75*
G02*
X19881300Y-5957000I50000J0D01*
G01*
X19882800Y-10018500D02*
G75*
G02*
X19782800Y-10018500I-50000J0D01*
G01*
X19782800Y-10018500D02*
G75*
G02*
X19882800Y-10018500I50000J0D01*
G01*
X20135300Y-5957000D02*
G75*
G02*
X20035300Y-5957000I-50000J0D01*
G01*
X20035300Y-5957000D02*
G75*
G02*
X20135300Y-5957000I50000J0D01*
G01*
X20135300Y-6211000D02*
G75*
G02*
X20035300Y-6211000I-50000J0D01*
G01*
X20035300Y-6211000D02*
G75*
G02*
X20135300Y-6211000I50000J0D01*
G01*
X20135300Y-6465000D02*
G75*
G02*
X20035300Y-6465000I-50000J0D01*
G01*
X20035300Y-6465000D02*
G75*
G02*
X20135300Y-6465000I50000J0D01*
G01*
X20135300Y-6719000D02*
G75*
G02*
X20035300Y-6719000I-50000J0D01*
G01*
X20035300Y-6719000D02*
G75*
G02*
X20135300Y-6719000I50000J0D01*
G01*
X20135300Y-6973000D02*
G75*
G02*
X20035300Y-6973000I-50000J0D01*
G01*
X20035300Y-6973000D02*
G75*
G02*
X20135300Y-6973000I50000J0D01*
G01*
X20135300Y-7227000D02*
G75*
G02*
X20035300Y-7227000I-50000J0D01*
G01*
X20035300Y-7227000D02*
G75*
G02*
X20135300Y-7227000I50000J0D01*
G01*
X20135300Y-7481000D02*
G75*
G02*
X20035300Y-7481000I-50000J0D01*
G01*
X20035300Y-7481000D02*
G75*
G02*
X20135300Y-7481000I50000J0D01*
G01*
X20135300Y-7735000D02*
G75*
G02*
X20035300Y-7735000I-50000J0D01*
G01*
X20035300Y-7735000D02*
G75*
G02*
X20135300Y-7735000I50000J0D01*
G01*
X20135300Y-7989000D02*
G75*
G02*
X20035300Y-7989000I-50000J0D01*
G01*
X20035300Y-7989000D02*
G75*
G02*
X20135300Y-7989000I50000J0D01*
G01*
X20135300Y-8243000D02*
G75*
G02*
X20035300Y-8243000I-50000J0D01*
G01*
X20035300Y-8243000D02*
G75*
G02*
X20135300Y-8243000I50000J0D01*
G01*
X20135300Y-8497000D02*
G75*
G02*
X20035300Y-8497000I-50000J0D01*
G01*
X20035300Y-8497000D02*
G75*
G02*
X20135300Y-8497000I50000J0D01*
G01*
X20135300Y-8751000D02*
G75*
G02*
X20035300Y-8751000I-50000J0D01*
G01*
X20035300Y-8751000D02*
G75*
G02*
X20135300Y-8751000I50000J0D01*
G01*
X20135300Y-9005000D02*
G75*
G02*
X20035300Y-9005000I-50000J0D01*
G01*
X20035300Y-9005000D02*
G75*
G02*
X20135300Y-9005000I50000J0D01*
G01*
X20135300Y-9259000D02*
G75*
G02*
X20035300Y-9259000I-50000J0D01*
G01*
X20035300Y-9259000D02*
G75*
G02*
X20135300Y-9259000I50000J0D01*
G01*
X20135300Y-9513000D02*
G75*
G02*
X20035300Y-9513000I-50000J0D01*
G01*
X20035300Y-9513000D02*
G75*
G02*
X20135300Y-9513000I50000J0D01*
G01*
X20135300Y-9767000D02*
G75*
G02*
X20035300Y-9767000I-50000J0D01*
G01*
X20035300Y-9767000D02*
G75*
G02*
X20135300Y-9767000I50000J0D01*
G01*
X20136800Y-10018500D02*
G75*
G02*
X20036800Y-10018500I-50000J0D01*
G01*
X20036800Y-10018500D02*
G75*
G02*
X20136800Y-10018500I50000J0D01*
G01*
X20389300Y-5957000D02*
G75*
G02*
X20289300Y-5957000I-50000J0D01*
G01*
X20289300Y-5957000D02*
G75*
G02*
X20389300Y-5957000I50000J0D01*
G01*
X20389300Y-6211000D02*
G75*
G02*
X20289300Y-6211000I-50000J0D01*
G01*
X20289300Y-6211000D02*
G75*
G02*
X20389300Y-6211000I50000J0D01*
G01*
X20389300Y-6465000D02*
G75*
G02*
X20289300Y-6465000I-50000J0D01*
G01*
X20289300Y-6465000D02*
G75*
G02*
X20389300Y-6465000I50000J0D01*
G01*
X20389300Y-6719000D02*
G75*
G02*
X20289300Y-6719000I-50000J0D01*
G01*
X20289300Y-6719000D02*
G75*
G02*
X20389300Y-6719000I50000J0D01*
G01*
X20389300Y-6973000D02*
G75*
G02*
X20289300Y-6973000I-50000J0D01*
G01*
X20289300Y-6973000D02*
G75*
G02*
X20389300Y-6973000I50000J0D01*
G01*
X20389300Y-7227000D02*
G75*
G02*
X20289300Y-7227000I-50000J0D01*
G01*
X20289300Y-7227000D02*
G75*
G02*
X20389300Y-7227000I50000J0D01*
G01*
X20389300Y-7481000D02*
G75*
G02*
X20289300Y-7481000I-50000J0D01*
G01*
X20289300Y-7481000D02*
G75*
G02*
X20389300Y-7481000I50000J0D01*
G01*
X20389300Y-7735000D02*
G75*
G02*
X20289300Y-7735000I-50000J0D01*
G01*
X20289300Y-7735000D02*
G75*
G02*
X20389300Y-7735000I50000J0D01*
G01*
X20389300Y-7989000D02*
G75*
G02*
X20289300Y-7989000I-50000J0D01*
G01*
X20289300Y-7989000D02*
G75*
G02*
X20389300Y-7989000I50000J0D01*
G01*
X20389300Y-8243000D02*
G75*
G02*
X20289300Y-8243000I-50000J0D01*
G01*
X20289300Y-8243000D02*
G75*
G02*
X20389300Y-8243000I50000J0D01*
G01*
X20389300Y-8497000D02*
G75*
G02*
X20289300Y-8497000I-50000J0D01*
G01*
X20289300Y-8497000D02*
G75*
G02*
X20389300Y-8497000I50000J0D01*
G01*
X20389300Y-8751000D02*
G75*
G02*
X20289300Y-8751000I-50000J0D01*
G01*
X20289300Y-8751000D02*
G75*
G02*
X20389300Y-8751000I50000J0D01*
G01*
X20389300Y-9005000D02*
G75*
G02*
X20289300Y-9005000I-50000J0D01*
G01*
X20289300Y-9005000D02*
G75*
G02*
X20389300Y-9005000I50000J0D01*
G01*
X20389300Y-9259000D02*
G75*
G02*
X20289300Y-9259000I-50000J0D01*
G01*
X20289300Y-9259000D02*
G75*
G02*
X20389300Y-9259000I50000J0D01*
G01*
X20389300Y-9513000D02*
G75*
G02*
X20289300Y-9513000I-50000J0D01*
G01*
X20289300Y-9513000D02*
G75*
G02*
X20389300Y-9513000I50000J0D01*
G01*
X20389300Y-9767000D02*
G75*
G02*
X20289300Y-9767000I-50000J0D01*
G01*
X20289300Y-9767000D02*
G75*
G02*
X20389300Y-9767000I50000J0D01*
G01*
X20390800Y-10018500D02*
G75*
G02*
X20290800Y-10018500I-50000J0D01*
G01*
X20290800Y-10018500D02*
G75*
G02*
X20390800Y-10018500I50000J0D01*
G01*
D12*
X16529300Y-10221200D02*
X16529300Y-10322800D01*
X16478500Y-10272000D02*
X16580100Y-10272000D01*
X16783300Y-5395200D02*
X16783300Y-5496800D01*
X16732500Y-5446000D02*
X16834100Y-5446000D01*
X16783300Y-10221200D02*
X16783300Y-10322800D01*
X16732500Y-10272000D02*
X16834100Y-10272000D01*
X17037300Y-5395200D02*
X17037300Y-5496800D01*
X16986500Y-5446000D02*
X17088100Y-5446000D01*
X17037300Y-10221200D02*
X17037300Y-10322800D01*
X16986500Y-10272000D02*
X17088100Y-10272000D01*
X17291300Y-5395200D02*
X17291300Y-5496800D01*
X17240500Y-5446000D02*
X17342100Y-5446000D01*
X17291300Y-10221200D02*
X17291300Y-10322800D01*
X17240500Y-10272000D02*
X17342100Y-10272000D01*
X17545300Y-5395200D02*
X17545300Y-5496800D01*
X17494500Y-5446000D02*
X17596100Y-5446000D01*
X17545300Y-10221200D02*
X17545300Y-10322800D01*
X17494500Y-10272000D02*
X17596100Y-10272000D01*
X17799300Y-10221200D02*
X17799300Y-10322800D01*
X17748500Y-10272000D02*
X17850100Y-10272000D01*
X18053300Y-5395200D02*
X18053300Y-5496800D01*
X18002500Y-5446000D02*
X18104100Y-5446000D01*
X18053300Y-10221200D02*
X18053300Y-10322800D01*
X18002500Y-10272000D02*
X18104100Y-10272000D01*
X18307300Y-5395200D02*
X18307300Y-5496800D01*
X18256500Y-5446000D02*
X18358100Y-5446000D01*
X18561300Y-5395200D02*
X18561300Y-5496800D01*
X18510500Y-5446000D02*
X18612100Y-5446000D01*
X18561300Y-10221200D02*
X18561300Y-10322800D01*
X18510500Y-10272000D02*
X18612100Y-10272000D01*
X18815300Y-5395200D02*
X18815300Y-5496800D01*
X18764500Y-5446000D02*
X18866100Y-5446000D01*
X18815300Y-10221200D02*
X18815300Y-10322800D01*
X18764500Y-10272000D02*
X18866100Y-10272000D01*
X19069300Y-5395200D02*
X19069300Y-5496800D01*
X19018500Y-5446000D02*
X19120100Y-5446000D01*
X19069300Y-10221200D02*
X19069300Y-10322800D01*
X19018500Y-10272000D02*
X19120100Y-10272000D01*
X19323300Y-5395200D02*
X19323300Y-5496800D01*
X19272500Y-5446000D02*
X19374100Y-5446000D01*
X19323300Y-10221200D02*
X19323300Y-10322800D01*
X19272500Y-10272000D02*
X19374100Y-10272000D01*
X19577300Y-5395200D02*
X19577300Y-5496800D01*
X19526500Y-5446000D02*
X19628100Y-5446000D01*
X19577300Y-10221200D02*
X19577300Y-10322800D01*
X19526500Y-10272000D02*
X19628100Y-10272000D01*
X19831300Y-5395200D02*
X19831300Y-5496800D01*
X19780500Y-5446000D02*
X19882100Y-5446000D01*
X19831300Y-10221200D02*
X19831300Y-10322800D01*
X19780500Y-10272000D02*
X19882100Y-10272000D01*
X20085300Y-10221200D02*
X20085300Y-10322800D01*
X20034500Y-10272000D02*
X20136100Y-10272000D01*
X20339300Y-10221200D02*
X20339300Y-10322800D01*
X20288500Y-10272000D02*
X20390100Y-10272000D01*
X20593300Y-5395200D02*
X20593300Y-5496800D01*
X20542500Y-5446000D02*
X20644100Y-5446000D01*
X20593300Y-5649200D02*
X20593300Y-5750800D01*
X20542500Y-5700000D02*
X20644100Y-5700000D01*
X20593300Y-5903200D02*
X20593300Y-6004800D01*
X20542500Y-5954000D02*
X20644100Y-5954000D01*
X20593300Y-6157200D02*
X20593300Y-6258800D01*
X20542500Y-6208000D02*
X20644100Y-6208000D01*
X20593300Y-6411200D02*
X20593300Y-6512800D01*
X20542500Y-6462000D02*
X20644100Y-6462000D01*
X20593300Y-6665200D02*
X20593300Y-6766800D01*
X20542500Y-6716000D02*
X20644100Y-6716000D01*
X20593300Y-6919200D02*
X20593300Y-7020800D01*
X20542500Y-6970000D02*
X20644100Y-6970000D01*
X20593300Y-7173200D02*
X20593300Y-7274800D01*
X20542500Y-7224000D02*
X20644100Y-7224000D01*
X20593300Y-7427200D02*
X20593300Y-7528800D01*
X20542500Y-7478000D02*
X20644100Y-7478000D01*
X20593300Y-7681200D02*
X20593300Y-7782800D01*
X20542500Y-7732000D02*
X20644100Y-7732000D01*
X20593300Y-7935200D02*
X20593300Y-8036800D01*
X20542500Y-7986000D02*
X20644100Y-7986000D01*
X20593300Y-8189200D02*
X20593300Y-8290800D01*
X20542500Y-8240000D02*
X20644100Y-8240000D01*
X20593300Y-8443200D02*
X20593300Y-8544800D01*
X20542500Y-8494000D02*
X20644100Y-8494000D01*
X20593300Y-8697200D02*
X20593300Y-8798800D01*
X20542500Y-8748000D02*
X20644100Y-8748000D01*
X20593300Y-8951200D02*
X20593300Y-9052800D01*
X20542500Y-9002000D02*
X20644100Y-9002000D01*
X20593300Y-9205200D02*
X20593300Y-9306800D01*
X20542500Y-9256000D02*
X20644100Y-9256000D01*
X20593300Y-9459200D02*
X20593300Y-9560800D01*
X20542500Y-9510000D02*
X20644100Y-9510000D01*
X20593300Y-9713200D02*
X20593300Y-9814800D01*
X20542500Y-9764000D02*
X20644100Y-9764000D01*
X20847300Y-5395200D02*
X20847300Y-5496800D01*
X20796500Y-5446000D02*
X20898100Y-5446000D01*
X20847300Y-5649200D02*
X20847300Y-5750800D01*
X20796500Y-5700000D02*
X20898100Y-5700000D01*
X20847300Y-5903200D02*
X20847300Y-6004800D01*
X20796500Y-5954000D02*
X20898100Y-5954000D01*
X20847300Y-6157200D02*
X20847300Y-6258800D01*
X20796500Y-6208000D02*
X20898100Y-6208000D01*
X20847300Y-6411200D02*
X20847300Y-6512800D01*
X20796500Y-6462000D02*
X20898100Y-6462000D01*
X20847300Y-6665200D02*
X20847300Y-6766800D01*
X20796500Y-6716000D02*
X20898100Y-6716000D01*
X20847300Y-6919200D02*
X20847300Y-7020800D01*
X20796500Y-6970000D02*
X20898100Y-6970000D01*
X20847300Y-7173200D02*
X20847300Y-7274800D01*
X20796500Y-7224000D02*
X20898100Y-7224000D01*
X20847300Y-7427200D02*
X20847300Y-7528800D01*
X20796500Y-7478000D02*
X20898100Y-7478000D01*
X20847300Y-7681200D02*
X20847300Y-7782800D01*
X20796500Y-7732000D02*
X20898100Y-7732000D01*
X20847300Y-7935200D02*
X20847300Y-8036800D01*
X20796500Y-7986000D02*
X20898100Y-7986000D01*
X20847300Y-8189200D02*
X20847300Y-8290800D01*
X20796500Y-8240000D02*
X20898100Y-8240000D01*
X20847300Y-8443200D02*
X20847300Y-8544800D01*
X20796500Y-8494000D02*
X20898100Y-8494000D01*
X20847300Y-8697200D02*
X20847300Y-8798800D01*
X20796500Y-8748000D02*
X20898100Y-8748000D01*
X20847300Y-8951200D02*
X20847300Y-9052800D01*
X20796500Y-9002000D02*
X20898100Y-9002000D01*
X20847300Y-9205200D02*
X20847300Y-9306800D01*
X20796500Y-9256000D02*
X20898100Y-9256000D01*
X20847300Y-9459200D02*
X20847300Y-9560800D01*
X20796500Y-9510000D02*
X20898100Y-9510000D01*
X20847300Y-9713200D02*
X20847300Y-9814800D01*
X20796500Y-9764000D02*
X20898100Y-9764000D01*
D10*
X16564656Y-6243356D02*
X16564656Y-6172644D01*
X16493944Y-6172644D01*
X16493944Y-6243356D01*
X16564656Y-6243356D01*
X16564656Y-6497356D02*
X16564656Y-6426644D01*
X16493944Y-6426644D01*
X16493944Y-6497356D01*
X16564656Y-6497356D01*
X16564656Y-6751356D02*
X16564656Y-6680644D01*
X16493944Y-6680644D01*
X16493944Y-6751356D01*
X16564656Y-6751356D01*
X16564656Y-7005356D02*
X16564656Y-6934644D01*
X16493944Y-6934644D01*
X16493944Y-7005356D01*
X16564656Y-7005356D01*
X16564656Y-7259356D02*
X16564656Y-7188644D01*
X16493944Y-7188644D01*
X16493944Y-7259356D01*
X16564656Y-7259356D01*
X16564656Y-7513356D02*
X16564656Y-7442644D01*
X16493944Y-7442644D01*
X16493944Y-7513356D01*
X16564656Y-7513356D01*
X16564656Y-7767356D02*
X16564656Y-7696644D01*
X16493944Y-7696644D01*
X16493944Y-7767356D01*
X16564656Y-7767356D01*
X16564656Y-8021356D02*
X16564656Y-7950644D01*
X16493944Y-7950644D01*
X16493944Y-8021356D01*
X16564656Y-8021356D01*
X16564656Y-8275356D02*
X16564656Y-8204644D01*
X16493944Y-8204644D01*
X16493944Y-8275356D01*
X16564656Y-8275356D01*
X16564656Y-8529356D02*
X16564656Y-8458644D01*
X16493944Y-8458644D01*
X16493944Y-8529356D01*
X16564656Y-8529356D01*
X16564656Y-8783356D02*
X16564656Y-8712644D01*
X16493944Y-8712644D01*
X16493944Y-8783356D01*
X16564656Y-8783356D01*
X16564656Y-9037356D02*
X16564656Y-8966644D01*
X16493944Y-8966644D01*
X16493944Y-9037356D01*
X16564656Y-9037356D01*
X16564656Y-9291356D02*
X16564656Y-9220644D01*
X16493944Y-9220644D01*
X16493944Y-9291356D01*
X16564656Y-9291356D01*
X16564656Y-9545356D02*
X16564656Y-9474644D01*
X16493944Y-9474644D01*
X16493944Y-9545356D01*
X16564656Y-9545356D01*
X16564656Y-9799356D02*
X16564656Y-9728644D01*
X16493944Y-9728644D01*
X16493944Y-9799356D01*
X16564656Y-9799356D01*
X16818656Y-6243356D02*
X16818656Y-6172644D01*
X16747944Y-6172644D01*
X16747944Y-6243356D01*
X16818656Y-6243356D01*
X16818656Y-6497356D02*
X16818656Y-6426644D01*
X16747944Y-6426644D01*
X16747944Y-6497356D01*
X16818656Y-6497356D01*
X16818656Y-6751356D02*
X16818656Y-6680644D01*
X16747944Y-6680644D01*
X16747944Y-6751356D01*
X16818656Y-6751356D01*
X16818656Y-7005356D02*
X16818656Y-6934644D01*
X16747944Y-6934644D01*
X16747944Y-7005356D01*
X16818656Y-7005356D01*
X16818656Y-7259356D02*
X16818656Y-7188644D01*
X16747944Y-7188644D01*
X16747944Y-7259356D01*
X16818656Y-7259356D01*
X16818656Y-7513356D02*
X16818656Y-7442644D01*
X16747944Y-7442644D01*
X16747944Y-7513356D01*
X16818656Y-7513356D01*
X16818656Y-7767356D02*
X16818656Y-7696644D01*
X16747944Y-7696644D01*
X16747944Y-7767356D01*
X16818656Y-7767356D01*
X16818656Y-8021356D02*
X16818656Y-7950644D01*
X16747944Y-7950644D01*
X16747944Y-8021356D01*
X16818656Y-8021356D01*
X16818656Y-8275356D02*
X16818656Y-8204644D01*
X16747944Y-8204644D01*
X16747944Y-8275356D01*
X16818656Y-8275356D01*
X16818656Y-8529356D02*
X16818656Y-8458644D01*
X16747944Y-8458644D01*
X16747944Y-8529356D01*
X16818656Y-8529356D01*
X16818656Y-8783356D02*
X16818656Y-8712644D01*
X16747944Y-8712644D01*
X16747944Y-8783356D01*
X16818656Y-8783356D01*
X16818656Y-9037356D02*
X16818656Y-8966644D01*
X16747944Y-8966644D01*
X16747944Y-9037356D01*
X16818656Y-9037356D01*
X16818656Y-9291356D02*
X16818656Y-9220644D01*
X16747944Y-9220644D01*
X16747944Y-9291356D01*
X16818656Y-9291356D01*
X16818656Y-9545356D02*
X16818656Y-9474644D01*
X16747944Y-9474644D01*
X16747944Y-9545356D01*
X16818656Y-9545356D01*
X16818656Y-9799356D02*
X16818656Y-9728644D01*
X16747944Y-9728644D01*
X16747944Y-9799356D01*
X16818656Y-9799356D01*
X17072656Y-6243356D02*
X17072656Y-6172644D01*
X17001944Y-6172644D01*
X17001944Y-6243356D01*
X17072656Y-6243356D01*
X17072656Y-6497356D02*
X17072656Y-6426644D01*
X17001944Y-6426644D01*
X17001944Y-6497356D01*
X17072656Y-6497356D01*
X17072656Y-6751356D02*
X17072656Y-6680644D01*
X17001944Y-6680644D01*
X17001944Y-6751356D01*
X17072656Y-6751356D01*
X17072656Y-7005356D02*
X17072656Y-6934644D01*
X17001944Y-6934644D01*
X17001944Y-7005356D01*
X17072656Y-7005356D01*
X17072656Y-7259356D02*
X17072656Y-7188644D01*
X17001944Y-7188644D01*
X17001944Y-7259356D01*
X17072656Y-7259356D01*
X17072656Y-7513356D02*
X17072656Y-7442644D01*
X17001944Y-7442644D01*
X17001944Y-7513356D01*
X17072656Y-7513356D01*
X17072656Y-7767356D02*
X17072656Y-7696644D01*
X17001944Y-7696644D01*
X17001944Y-7767356D01*
X17072656Y-7767356D01*
X17072656Y-8021356D02*
X17072656Y-7950644D01*
X17001944Y-7950644D01*
X17001944Y-8021356D01*
X17072656Y-8021356D01*
X17072656Y-8275356D02*
X17072656Y-8204644D01*
X17001944Y-8204644D01*
X17001944Y-8275356D01*
X17072656Y-8275356D01*
X17072656Y-8529356D02*
X17072656Y-8458644D01*
X17001944Y-8458644D01*
X17001944Y-8529356D01*
X17072656Y-8529356D01*
X17072656Y-8783356D02*
X17072656Y-8712644D01*
X17001944Y-8712644D01*
X17001944Y-8783356D01*
X17072656Y-8783356D01*
X17072656Y-9037356D02*
X17072656Y-8966644D01*
X17001944Y-8966644D01*
X17001944Y-9037356D01*
X17072656Y-9037356D01*
X17072656Y-9291356D02*
X17072656Y-9220644D01*
X17001944Y-9220644D01*
X17001944Y-9291356D01*
X17072656Y-9291356D01*
X17072656Y-9545356D02*
X17072656Y-9474644D01*
X17001944Y-9474644D01*
X17001944Y-9545356D01*
X17072656Y-9545356D01*
X17072656Y-9799356D02*
X17072656Y-9728644D01*
X17001944Y-9728644D01*
X17001944Y-9799356D01*
X17072656Y-9799356D01*
X17326656Y-6243356D02*
X17326656Y-6172644D01*
X17255944Y-6172644D01*
X17255944Y-6243356D01*
X17326656Y-6243356D01*
X17326656Y-6497356D02*
X17326656Y-6426644D01*
X17255944Y-6426644D01*
X17255944Y-6497356D01*
X17326656Y-6497356D01*
X17326656Y-6751356D02*
X17326656Y-6680644D01*
X17255944Y-6680644D01*
X17255944Y-6751356D01*
X17326656Y-6751356D01*
X17326656Y-7005356D02*
X17326656Y-6934644D01*
X17255944Y-6934644D01*
X17255944Y-7005356D01*
X17326656Y-7005356D01*
X17326656Y-7259356D02*
X17326656Y-7188644D01*
X17255944Y-7188644D01*
X17255944Y-7259356D01*
X17326656Y-7259356D01*
X17326656Y-7513356D02*
X17326656Y-7442644D01*
X17255944Y-7442644D01*
X17255944Y-7513356D01*
X17326656Y-7513356D01*
X17326656Y-7767356D02*
X17326656Y-7696644D01*
X17255944Y-7696644D01*
X17255944Y-7767356D01*
X17326656Y-7767356D01*
X17326656Y-8021356D02*
X17326656Y-7950644D01*
X17255944Y-7950644D01*
X17255944Y-8021356D01*
X17326656Y-8021356D01*
X17326656Y-8275356D02*
X17326656Y-8204644D01*
X17255944Y-8204644D01*
X17255944Y-8275356D01*
X17326656Y-8275356D01*
X17326656Y-8529356D02*
X17326656Y-8458644D01*
X17255944Y-8458644D01*
X17255944Y-8529356D01*
X17326656Y-8529356D01*
X17326656Y-8783356D02*
X17326656Y-8712644D01*
X17255944Y-8712644D01*
X17255944Y-8783356D01*
X17326656Y-8783356D01*
X17326656Y-9037356D02*
X17326656Y-8966644D01*
X17255944Y-8966644D01*
X17255944Y-9037356D01*
X17326656Y-9037356D01*
X17326656Y-9291356D02*
X17326656Y-9220644D01*
X17255944Y-9220644D01*
X17255944Y-9291356D01*
X17326656Y-9291356D01*
X17326656Y-9545356D02*
X17326656Y-9474644D01*
X17255944Y-9474644D01*
X17255944Y-9545356D01*
X17326656Y-9545356D01*
X17326656Y-9799356D02*
X17326656Y-9728644D01*
X17255944Y-9728644D01*
X17255944Y-9799356D01*
X17326656Y-9799356D01*
X17580656Y-6243356D02*
X17580656Y-6172644D01*
X17509944Y-6172644D01*
X17509944Y-6243356D01*
X17580656Y-6243356D01*
X17580656Y-6497356D02*
X17580656Y-6426644D01*
X17509944Y-6426644D01*
X17509944Y-6497356D01*
X17580656Y-6497356D01*
X17580656Y-6751356D02*
X17580656Y-6680644D01*
X17509944Y-6680644D01*
X17509944Y-6751356D01*
X17580656Y-6751356D01*
X17580656Y-7005356D02*
X17580656Y-6934644D01*
X17509944Y-6934644D01*
X17509944Y-7005356D01*
X17580656Y-7005356D01*
X17580656Y-7259356D02*
X17580656Y-7188644D01*
X17509944Y-7188644D01*
X17509944Y-7259356D01*
X17580656Y-7259356D01*
X17580656Y-7513356D02*
X17580656Y-7442644D01*
X17509944Y-7442644D01*
X17509944Y-7513356D01*
X17580656Y-7513356D01*
X17580656Y-7767356D02*
X17580656Y-7696644D01*
X17509944Y-7696644D01*
X17509944Y-7767356D01*
X17580656Y-7767356D01*
X17580656Y-8021356D02*
X17580656Y-7950644D01*
X17509944Y-7950644D01*
X17509944Y-8021356D01*
X17580656Y-8021356D01*
X17580656Y-8275356D02*
X17580656Y-8204644D01*
X17509944Y-8204644D01*
X17509944Y-8275356D01*
X17580656Y-8275356D01*
X17580656Y-8529356D02*
X17580656Y-8458644D01*
X17509944Y-8458644D01*
X17509944Y-8529356D01*
X17580656Y-8529356D01*
X17580656Y-8783356D02*
X17580656Y-8712644D01*
X17509944Y-8712644D01*
X17509944Y-8783356D01*
X17580656Y-8783356D01*
X17580656Y-9037356D02*
X17580656Y-8966644D01*
X17509944Y-8966644D01*
X17509944Y-9037356D01*
X17580656Y-9037356D01*
X17580656Y-9291356D02*
X17580656Y-9220644D01*
X17509944Y-9220644D01*
X17509944Y-9291356D01*
X17580656Y-9291356D01*
X17580656Y-9545356D02*
X17580656Y-9474644D01*
X17509944Y-9474644D01*
X17509944Y-9545356D01*
X17580656Y-9545356D01*
X17580656Y-9799356D02*
X17580656Y-9728644D01*
X17509944Y-9728644D01*
X17509944Y-9799356D01*
X17580656Y-9799356D01*
X17834656Y-6243356D02*
X17834656Y-6172644D01*
X17763944Y-6172644D01*
X17763944Y-6243356D01*
X17834656Y-6243356D01*
X17834656Y-6497356D02*
X17834656Y-6426644D01*
X17763944Y-6426644D01*
X17763944Y-6497356D01*
X17834656Y-6497356D01*
X17834656Y-6751356D02*
X17834656Y-6680644D01*
X17763944Y-6680644D01*
X17763944Y-6751356D01*
X17834656Y-6751356D01*
X17834656Y-7005356D02*
X17834656Y-6934644D01*
X17763944Y-6934644D01*
X17763944Y-7005356D01*
X17834656Y-7005356D01*
X17834656Y-7259356D02*
X17834656Y-7188644D01*
X17763944Y-7188644D01*
X17763944Y-7259356D01*
X17834656Y-7259356D01*
X17834656Y-7513356D02*
X17834656Y-7442644D01*
X17763944Y-7442644D01*
X17763944Y-7513356D01*
X17834656Y-7513356D01*
X17834656Y-7767356D02*
X17834656Y-7696644D01*
X17763944Y-7696644D01*
X17763944Y-7767356D01*
X17834656Y-7767356D01*
X17834656Y-8021356D02*
X17834656Y-7950644D01*
X17763944Y-7950644D01*
X17763944Y-8021356D01*
X17834656Y-8021356D01*
X17834656Y-8275356D02*
X17834656Y-8204644D01*
X17763944Y-8204644D01*
X17763944Y-8275356D01*
X17834656Y-8275356D01*
X17834656Y-8529356D02*
X17834656Y-8458644D01*
X17763944Y-8458644D01*
X17763944Y-8529356D01*
X17834656Y-8529356D01*
X17834656Y-8783356D02*
X17834656Y-8712644D01*
X17763944Y-8712644D01*
X17763944Y-8783356D01*
X17834656Y-8783356D01*
X17834656Y-9037356D02*
X17834656Y-8966644D01*
X17763944Y-8966644D01*
X17763944Y-9037356D01*
X17834656Y-9037356D01*
X17834656Y-9291356D02*
X17834656Y-9220644D01*
X17763944Y-9220644D01*
X17763944Y-9291356D01*
X17834656Y-9291356D01*
X17834656Y-9545356D02*
X17834656Y-9474644D01*
X17763944Y-9474644D01*
X17763944Y-9545356D01*
X17834656Y-9545356D01*
X17834656Y-9799356D02*
X17834656Y-9728644D01*
X17763944Y-9728644D01*
X17763944Y-9799356D01*
X17834656Y-9799356D01*
X18088656Y-6243356D02*
X18088656Y-6172644D01*
X18017944Y-6172644D01*
X18017944Y-6243356D01*
X18088656Y-6243356D01*
X18088656Y-6497356D02*
X18088656Y-6426644D01*
X18017944Y-6426644D01*
X18017944Y-6497356D01*
X18088656Y-6497356D01*
X18088656Y-6751356D02*
X18088656Y-6680644D01*
X18017944Y-6680644D01*
X18017944Y-6751356D01*
X18088656Y-6751356D01*
X18088656Y-7005356D02*
X18088656Y-6934644D01*
X18017944Y-6934644D01*
X18017944Y-7005356D01*
X18088656Y-7005356D01*
X18088656Y-7259356D02*
X18088656Y-7188644D01*
X18017944Y-7188644D01*
X18017944Y-7259356D01*
X18088656Y-7259356D01*
X18088656Y-7513356D02*
X18088656Y-7442644D01*
X18017944Y-7442644D01*
X18017944Y-7513356D01*
X18088656Y-7513356D01*
X18088656Y-7767356D02*
X18088656Y-7696644D01*
X18017944Y-7696644D01*
X18017944Y-7767356D01*
X18088656Y-7767356D01*
X18088656Y-8021356D02*
X18088656Y-7950644D01*
X18017944Y-7950644D01*
X18017944Y-8021356D01*
X18088656Y-8021356D01*
X18088656Y-8275356D02*
X18088656Y-8204644D01*
X18017944Y-8204644D01*
X18017944Y-8275356D01*
X18088656Y-8275356D01*
X18088656Y-8529356D02*
X18088656Y-8458644D01*
X18017944Y-8458644D01*
X18017944Y-8529356D01*
X18088656Y-8529356D01*
X18088656Y-8783356D02*
X18088656Y-8712644D01*
X18017944Y-8712644D01*
X18017944Y-8783356D01*
X18088656Y-8783356D01*
X18088656Y-9037356D02*
X18088656Y-8966644D01*
X18017944Y-8966644D01*
X18017944Y-9037356D01*
X18088656Y-9037356D01*
X18088656Y-9291356D02*
X18088656Y-9220644D01*
X18017944Y-9220644D01*
X18017944Y-9291356D01*
X18088656Y-9291356D01*
X18088656Y-9545356D02*
X18088656Y-9474644D01*
X18017944Y-9474644D01*
X18017944Y-9545356D01*
X18088656Y-9545356D01*
X18088656Y-9799356D02*
X18088656Y-9728644D01*
X18017944Y-9728644D01*
X18017944Y-9799356D01*
X18088656Y-9799356D01*
X18342656Y-6243356D02*
X18342656Y-6172644D01*
X18271944Y-6172644D01*
X18271944Y-6243356D01*
X18342656Y-6243356D01*
X18342656Y-6497356D02*
X18342656Y-6426644D01*
X18271944Y-6426644D01*
X18271944Y-6497356D01*
X18342656Y-6497356D01*
X18342656Y-6751356D02*
X18342656Y-6680644D01*
X18271944Y-6680644D01*
X18271944Y-6751356D01*
X18342656Y-6751356D01*
X18342656Y-7005356D02*
X18342656Y-6934644D01*
X18271944Y-6934644D01*
X18271944Y-7005356D01*
X18342656Y-7005356D01*
X18342656Y-7259356D02*
X18342656Y-7188644D01*
X18271944Y-7188644D01*
X18271944Y-7259356D01*
X18342656Y-7259356D01*
X18342656Y-7513356D02*
X18342656Y-7442644D01*
X18271944Y-7442644D01*
X18271944Y-7513356D01*
X18342656Y-7513356D01*
X18342656Y-7767356D02*
X18342656Y-7696644D01*
X18271944Y-7696644D01*
X18271944Y-7767356D01*
X18342656Y-7767356D01*
X18342656Y-8021356D02*
X18342656Y-7950644D01*
X18271944Y-7950644D01*
X18271944Y-8021356D01*
X18342656Y-8021356D01*
X18342656Y-8275356D02*
X18342656Y-8204644D01*
X18271944Y-8204644D01*
X18271944Y-8275356D01*
X18342656Y-8275356D01*
X18342656Y-8529356D02*
X18342656Y-8458644D01*
X18271944Y-8458644D01*
X18271944Y-8529356D01*
X18342656Y-8529356D01*
X18342656Y-8783356D02*
X18342656Y-8712644D01*
X18271944Y-8712644D01*
X18271944Y-8783356D01*
X18342656Y-8783356D01*
X18342656Y-9037356D02*
X18342656Y-8966644D01*
X18271944Y-8966644D01*
X18271944Y-9037356D01*
X18342656Y-9037356D01*
X18342656Y-9291356D02*
X18342656Y-9220644D01*
X18271944Y-9220644D01*
X18271944Y-9291356D01*
X18342656Y-9291356D01*
X18342656Y-9545356D02*
X18342656Y-9474644D01*
X18271944Y-9474644D01*
X18271944Y-9545356D01*
X18342656Y-9545356D01*
X18342656Y-9799356D02*
X18342656Y-9728644D01*
X18271944Y-9728644D01*
X18271944Y-9799356D01*
X18342656Y-9799356D01*
X18596656Y-6243356D02*
X18596656Y-6172644D01*
X18525944Y-6172644D01*
X18525944Y-6243356D01*
X18596656Y-6243356D01*
X18596656Y-6497356D02*
X18596656Y-6426644D01*
X18525944Y-6426644D01*
X18525944Y-6497356D01*
X18596656Y-6497356D01*
X18596656Y-6751356D02*
X18596656Y-6680644D01*
X18525944Y-6680644D01*
X18525944Y-6751356D01*
X18596656Y-6751356D01*
X18596656Y-7005356D02*
X18596656Y-6934644D01*
X18525944Y-6934644D01*
X18525944Y-7005356D01*
X18596656Y-7005356D01*
X18596656Y-7259356D02*
X18596656Y-7188644D01*
X18525944Y-7188644D01*
X18525944Y-7259356D01*
X18596656Y-7259356D01*
X18596656Y-7513356D02*
X18596656Y-7442644D01*
X18525944Y-7442644D01*
X18525944Y-7513356D01*
X18596656Y-7513356D01*
X18596656Y-7767356D02*
X18596656Y-7696644D01*
X18525944Y-7696644D01*
X18525944Y-7767356D01*
X18596656Y-7767356D01*
X18596656Y-8021356D02*
X18596656Y-7950644D01*
X18525944Y-7950644D01*
X18525944Y-8021356D01*
X18596656Y-8021356D01*
X18596656Y-8275356D02*
X18596656Y-8204644D01*
X18525944Y-8204644D01*
X18525944Y-8275356D01*
X18596656Y-8275356D01*
X18596656Y-8529356D02*
X18596656Y-8458644D01*
X18525944Y-8458644D01*
X18525944Y-8529356D01*
X18596656Y-8529356D01*
X18596656Y-8783356D02*
X18596656Y-8712644D01*
X18525944Y-8712644D01*
X18525944Y-8783356D01*
X18596656Y-8783356D01*
X18596656Y-9037356D02*
X18596656Y-8966644D01*
X18525944Y-8966644D01*
X18525944Y-9037356D01*
X18596656Y-9037356D01*
X18596656Y-9291356D02*
X18596656Y-9220644D01*
X18525944Y-9220644D01*
X18525944Y-9291356D01*
X18596656Y-9291356D01*
X18596656Y-9545356D02*
X18596656Y-9474644D01*
X18525944Y-9474644D01*
X18525944Y-9545356D01*
X18596656Y-9545356D01*
X18596656Y-9799356D02*
X18596656Y-9728644D01*
X18525944Y-9728644D01*
X18525944Y-9799356D01*
X18596656Y-9799356D01*
X18850656Y-6243356D02*
X18850656Y-6172644D01*
X18779944Y-6172644D01*
X18779944Y-6243356D01*
X18850656Y-6243356D01*
X18850656Y-6497356D02*
X18850656Y-6426644D01*
X18779944Y-6426644D01*
X18779944Y-6497356D01*
X18850656Y-6497356D01*
X18850656Y-6751356D02*
X18850656Y-6680644D01*
X18779944Y-6680644D01*
X18779944Y-6751356D01*
X18850656Y-6751356D01*
X18850656Y-7005356D02*
X18850656Y-6934644D01*
X18779944Y-6934644D01*
X18779944Y-7005356D01*
X18850656Y-7005356D01*
X18850656Y-7259356D02*
X18850656Y-7188644D01*
X18779944Y-7188644D01*
X18779944Y-7259356D01*
X18850656Y-7259356D01*
X18850656Y-7513356D02*
X18850656Y-7442644D01*
X18779944Y-7442644D01*
X18779944Y-7513356D01*
X18850656Y-7513356D01*
X18850656Y-7767356D02*
X18850656Y-7696644D01*
X18779944Y-7696644D01*
X18779944Y-7767356D01*
X18850656Y-7767356D01*
X18850656Y-8021356D02*
X18850656Y-7950644D01*
X18779944Y-7950644D01*
X18779944Y-8021356D01*
X18850656Y-8021356D01*
X18850656Y-8275356D02*
X18850656Y-8204644D01*
X18779944Y-8204644D01*
X18779944Y-8275356D01*
X18850656Y-8275356D01*
X18850656Y-8529356D02*
X18850656Y-8458644D01*
X18779944Y-8458644D01*
X18779944Y-8529356D01*
X18850656Y-8529356D01*
X18850656Y-8783356D02*
X18850656Y-8712644D01*
X18779944Y-8712644D01*
X18779944Y-8783356D01*
X18850656Y-8783356D01*
X18850656Y-9037356D02*
X18850656Y-8966644D01*
X18779944Y-8966644D01*
X18779944Y-9037356D01*
X18850656Y-9037356D01*
X18850656Y-9291356D02*
X18850656Y-9220644D01*
X18779944Y-9220644D01*
X18779944Y-9291356D01*
X18850656Y-9291356D01*
X18850656Y-9545356D02*
X18850656Y-9474644D01*
X18779944Y-9474644D01*
X18779944Y-9545356D01*
X18850656Y-9545356D01*
X18850656Y-9799356D02*
X18850656Y-9728644D01*
X18779944Y-9728644D01*
X18779944Y-9799356D01*
X18850656Y-9799356D01*
X19104656Y-6243356D02*
X19104656Y-6172644D01*
X19033944Y-6172644D01*
X19033944Y-6243356D01*
X19104656Y-6243356D01*
X19104656Y-6497356D02*
X19104656Y-6426644D01*
X19033944Y-6426644D01*
X19033944Y-6497356D01*
X19104656Y-6497356D01*
X19104656Y-6751356D02*
X19104656Y-6680644D01*
X19033944Y-6680644D01*
X19033944Y-6751356D01*
X19104656Y-6751356D01*
X19104656Y-7005356D02*
X19104656Y-6934644D01*
X19033944Y-6934644D01*
X19033944Y-7005356D01*
X19104656Y-7005356D01*
X19104656Y-7259356D02*
X19104656Y-7188644D01*
X19033944Y-7188644D01*
X19033944Y-7259356D01*
X19104656Y-7259356D01*
X19104656Y-7513356D02*
X19104656Y-7442644D01*
X19033944Y-7442644D01*
X19033944Y-7513356D01*
X19104656Y-7513356D01*
X19104656Y-7767356D02*
X19104656Y-7696644D01*
X19033944Y-7696644D01*
X19033944Y-7767356D01*
X19104656Y-7767356D01*
X19104656Y-8021356D02*
X19104656Y-7950644D01*
X19033944Y-7950644D01*
X19033944Y-8021356D01*
X19104656Y-8021356D01*
X19104656Y-8275356D02*
X19104656Y-8204644D01*
X19033944Y-8204644D01*
X19033944Y-8275356D01*
X19104656Y-8275356D01*
X19104656Y-8529356D02*
X19104656Y-8458644D01*
X19033944Y-8458644D01*
X19033944Y-8529356D01*
X19104656Y-8529356D01*
X19104656Y-8783356D02*
X19104656Y-8712644D01*
X19033944Y-8712644D01*
X19033944Y-8783356D01*
X19104656Y-8783356D01*
X19104656Y-9037356D02*
X19104656Y-8966644D01*
X19033944Y-8966644D01*
X19033944Y-9037356D01*
X19104656Y-9037356D01*
X19104656Y-9291356D02*
X19104656Y-9220644D01*
X19033944Y-9220644D01*
X19033944Y-9291356D01*
X19104656Y-9291356D01*
X19104656Y-9545356D02*
X19104656Y-9474644D01*
X19033944Y-9474644D01*
X19033944Y-9545356D01*
X19104656Y-9545356D01*
X19104656Y-9799356D02*
X19104656Y-9728644D01*
X19033944Y-9728644D01*
X19033944Y-9799356D01*
X19104656Y-9799356D01*
X19358656Y-6243356D02*
X19358656Y-6172644D01*
X19287944Y-6172644D01*
X19287944Y-6243356D01*
X19358656Y-6243356D01*
X19358656Y-6497356D02*
X19358656Y-6426644D01*
X19287944Y-6426644D01*
X19287944Y-6497356D01*
X19358656Y-6497356D01*
X19358656Y-6751356D02*
X19358656Y-6680644D01*
X19287944Y-6680644D01*
X19287944Y-6751356D01*
X19358656Y-6751356D01*
X19358656Y-7005356D02*
X19358656Y-6934644D01*
X19287944Y-6934644D01*
X19287944Y-7005356D01*
X19358656Y-7005356D01*
X19358656Y-7259356D02*
X19358656Y-7188644D01*
X19287944Y-7188644D01*
X19287944Y-7259356D01*
X19358656Y-7259356D01*
X19358656Y-7513356D02*
X19358656Y-7442644D01*
X19287944Y-7442644D01*
X19287944Y-7513356D01*
X19358656Y-7513356D01*
X19358656Y-7767356D02*
X19358656Y-7696644D01*
X19287944Y-7696644D01*
X19287944Y-7767356D01*
X19358656Y-7767356D01*
X19358656Y-8021356D02*
X19358656Y-7950644D01*
X19287944Y-7950644D01*
X19287944Y-8021356D01*
X19358656Y-8021356D01*
X19358656Y-8275356D02*
X19358656Y-8204644D01*
X19287944Y-8204644D01*
X19287944Y-8275356D01*
X19358656Y-8275356D01*
X19358656Y-8529356D02*
X19358656Y-8458644D01*
X19287944Y-8458644D01*
X19287944Y-8529356D01*
X19358656Y-8529356D01*
X19358656Y-8783356D02*
X19358656Y-8712644D01*
X19287944Y-8712644D01*
X19287944Y-8783356D01*
X19358656Y-8783356D01*
X19358656Y-9037356D02*
X19358656Y-8966644D01*
X19287944Y-8966644D01*
X19287944Y-9037356D01*
X19358656Y-9037356D01*
X19358656Y-9291356D02*
X19358656Y-9220644D01*
X19287944Y-9220644D01*
X19287944Y-9291356D01*
X19358656Y-9291356D01*
X19358656Y-9545356D02*
X19358656Y-9474644D01*
X19287944Y-9474644D01*
X19287944Y-9545356D01*
X19358656Y-9545356D01*
X19358656Y-9799356D02*
X19358656Y-9728644D01*
X19287944Y-9728644D01*
X19287944Y-9799356D01*
X19358656Y-9799356D01*
X19612656Y-6243356D02*
X19612656Y-6172644D01*
X19541944Y-6172644D01*
X19541944Y-6243356D01*
X19612656Y-6243356D01*
X19612656Y-6497356D02*
X19612656Y-6426644D01*
X19541944Y-6426644D01*
X19541944Y-6497356D01*
X19612656Y-6497356D01*
X19612656Y-6751356D02*
X19612656Y-6680644D01*
X19541944Y-6680644D01*
X19541944Y-6751356D01*
X19612656Y-6751356D01*
X19612656Y-7005356D02*
X19612656Y-6934644D01*
X19541944Y-6934644D01*
X19541944Y-7005356D01*
X19612656Y-7005356D01*
X19612656Y-7259356D02*
X19612656Y-7188644D01*
X19541944Y-7188644D01*
X19541944Y-7259356D01*
X19612656Y-7259356D01*
X19612656Y-7513356D02*
X19612656Y-7442644D01*
X19541944Y-7442644D01*
X19541944Y-7513356D01*
X19612656Y-7513356D01*
X19612656Y-7767356D02*
X19612656Y-7696644D01*
X19541944Y-7696644D01*
X19541944Y-7767356D01*
X19612656Y-7767356D01*
X19612656Y-8021356D02*
X19612656Y-7950644D01*
X19541944Y-7950644D01*
X19541944Y-8021356D01*
X19612656Y-8021356D01*
X19612656Y-8275356D02*
X19612656Y-8204644D01*
X19541944Y-8204644D01*
X19541944Y-8275356D01*
X19612656Y-8275356D01*
X19612656Y-8529356D02*
X19612656Y-8458644D01*
X19541944Y-8458644D01*
X19541944Y-8529356D01*
X19612656Y-8529356D01*
X19612656Y-8783356D02*
X19612656Y-8712644D01*
X19541944Y-8712644D01*
X19541944Y-8783356D01*
X19612656Y-8783356D01*
X19612656Y-9037356D02*
X19612656Y-8966644D01*
X19541944Y-8966644D01*
X19541944Y-9037356D01*
X19612656Y-9037356D01*
X19612656Y-9291356D02*
X19612656Y-9220644D01*
X19541944Y-9220644D01*
X19541944Y-9291356D01*
X19612656Y-9291356D01*
X19612656Y-9545356D02*
X19612656Y-9474644D01*
X19541944Y-9474644D01*
X19541944Y-9545356D01*
X19612656Y-9545356D01*
X19612656Y-9799356D02*
X19612656Y-9728644D01*
X19541944Y-9728644D01*
X19541944Y-9799356D01*
X19612656Y-9799356D01*
X19866656Y-6243356D02*
X19866656Y-6172644D01*
X19795944Y-6172644D01*
X19795944Y-6243356D01*
X19866656Y-6243356D01*
X19866656Y-6497356D02*
X19866656Y-6426644D01*
X19795944Y-6426644D01*
X19795944Y-6497356D01*
X19866656Y-6497356D01*
X19866656Y-6751356D02*
X19866656Y-6680644D01*
X19795944Y-6680644D01*
X19795944Y-6751356D01*
X19866656Y-6751356D01*
X19866656Y-7005356D02*
X19866656Y-6934644D01*
X19795944Y-6934644D01*
X19795944Y-7005356D01*
X19866656Y-7005356D01*
X19866656Y-7259356D02*
X19866656Y-7188644D01*
X19795944Y-7188644D01*
X19795944Y-7259356D01*
X19866656Y-7259356D01*
X19866656Y-7513356D02*
X19866656Y-7442644D01*
X19795944Y-7442644D01*
X19795944Y-7513356D01*
X19866656Y-7513356D01*
X19866656Y-7767356D02*
X19866656Y-7696644D01*
X19795944Y-7696644D01*
X19795944Y-7767356D01*
X19866656Y-7767356D01*
X19866656Y-8021356D02*
X19866656Y-7950644D01*
X19795944Y-7950644D01*
X19795944Y-8021356D01*
X19866656Y-8021356D01*
X19866656Y-8275356D02*
X19866656Y-8204644D01*
X19795944Y-8204644D01*
X19795944Y-8275356D01*
X19866656Y-8275356D01*
X19866656Y-8529356D02*
X19866656Y-8458644D01*
X19795944Y-8458644D01*
X19795944Y-8529356D01*
X19866656Y-8529356D01*
X19866656Y-8783356D02*
X19866656Y-8712644D01*
X19795944Y-8712644D01*
X19795944Y-8783356D01*
X19866656Y-8783356D01*
X19866656Y-9037356D02*
X19866656Y-8966644D01*
X19795944Y-8966644D01*
X19795944Y-9037356D01*
X19866656Y-9037356D01*
X19866656Y-9291356D02*
X19866656Y-9220644D01*
X19795944Y-9220644D01*
X19795944Y-9291356D01*
X19866656Y-9291356D01*
X19866656Y-9545356D02*
X19866656Y-9474644D01*
X19795944Y-9474644D01*
X19795944Y-9545356D01*
X19866656Y-9545356D01*
X19866656Y-9799356D02*
X19866656Y-9728644D01*
X19795944Y-9728644D01*
X19795944Y-9799356D01*
X19866656Y-9799356D01*
D13*
X20212300Y-5606000D02*
X20372300Y-5446000D01*
X20212300Y-5286000D01*
X20052300Y-5446000D01*
X20212300Y-5606000D01*
X20847300Y-10432000D02*
X21007300Y-10272000D01*
X20847300Y-10112000D01*
X20687300Y-10272000D01*
X20847300Y-10432000D01*
D11*
X15896077Y-10842484D02*
X15896077Y-10642484D01*
X15896077Y-10642484D02*
X15943696Y-10642484D01*
X15943696Y-10642484D02*
X15972267Y-10652008D01*
X15972267Y-10652008D02*
X15991315Y-10671055D01*
X15991315Y-10671055D02*
X16000839Y-10690103D01*
X16000839Y-10690103D02*
X16010362Y-10728198D01*
X16010362Y-10728198D02*
X16010362Y-10756770D01*
X16010362Y-10756770D02*
X16000839Y-10794865D01*
X16000839Y-10794865D02*
X15991315Y-10813912D01*
X15991315Y-10813912D02*
X15972267Y-10832960D01*
X15972267Y-10832960D02*
X15943696Y-10842484D01*
X15943696Y-10842484D02*
X15896077Y-10842484D01*
X16096077Y-10842484D02*
X16096077Y-10709150D01*
X16096077Y-10747246D02*
X16105601Y-10728198D01*
X16105601Y-10728198D02*
X16115124Y-10718674D01*
X16115124Y-10718674D02*
X16134172Y-10709150D01*
X16134172Y-10709150D02*
X16153220Y-10709150D01*
X16219886Y-10842484D02*
X16219886Y-10709150D01*
X16219886Y-10642484D02*
X16210362Y-10652008D01*
X16210362Y-10652008D02*
X16219886Y-10661531D01*
X16219886Y-10661531D02*
X16229410Y-10652008D01*
X16229410Y-10652008D02*
X16219886Y-10642484D01*
X16219886Y-10642484D02*
X16219886Y-10661531D01*
X16343696Y-10842484D02*
X16324648Y-10832960D01*
X16324648Y-10832960D02*
X16315124Y-10813912D01*
X16315124Y-10813912D02*
X16315124Y-10642484D01*
X16448458Y-10842484D02*
X16429410Y-10832960D01*
X16429410Y-10832960D02*
X16419886Y-10813912D01*
X16419886Y-10813912D02*
X16419886Y-10642484D01*
X16677029Y-10842484D02*
X16677029Y-10642484D01*
X16677029Y-10642484D02*
X16743696Y-10785341D01*
X16743696Y-10785341D02*
X16810363Y-10642484D01*
X16810363Y-10642484D02*
X16810363Y-10842484D01*
X16991315Y-10842484D02*
X16991315Y-10737722D01*
X16991315Y-10737722D02*
X16981791Y-10718674D01*
X16981791Y-10718674D02*
X16962744Y-10709150D01*
X16962744Y-10709150D02*
X16924648Y-10709150D01*
X16924648Y-10709150D02*
X16905601Y-10718674D01*
X16991315Y-10832960D02*
X16972267Y-10842484D01*
X16972267Y-10842484D02*
X16924648Y-10842484D01*
X16924648Y-10842484D02*
X16905601Y-10832960D01*
X16905601Y-10832960D02*
X16896077Y-10813912D01*
X16896077Y-10813912D02*
X16896077Y-10794865D01*
X16896077Y-10794865D02*
X16905601Y-10775817D01*
X16905601Y-10775817D02*
X16924648Y-10766293D01*
X16924648Y-10766293D02*
X16972267Y-10766293D01*
X16972267Y-10766293D02*
X16991315Y-10756770D01*
X17086553Y-10709150D02*
X17086553Y-10909150D01*
X17086553Y-10718674D02*
X17105601Y-10709150D01*
X17105601Y-10709150D02*
X17143696Y-10709150D01*
X17143696Y-10709150D02*
X17162744Y-10718674D01*
X17162744Y-10718674D02*
X17172267Y-10728198D01*
X17172267Y-10728198D02*
X17181791Y-10747246D01*
X17181791Y-10747246D02*
X17181791Y-10804389D01*
X17181791Y-10804389D02*
X17172267Y-10823436D01*
X17172267Y-10823436D02*
X17162744Y-10832960D01*
X17162744Y-10832960D02*
X17143696Y-10842484D01*
X17143696Y-10842484D02*
X17105601Y-10842484D01*
X17105601Y-10842484D02*
X17086553Y-10832960D01*
X17267505Y-10823436D02*
X17277029Y-10832960D01*
X17277029Y-10832960D02*
X17267505Y-10842484D01*
X17267505Y-10842484D02*
X17257982Y-10832960D01*
X17257982Y-10832960D02*
X17267505Y-10823436D01*
X17267505Y-10823436D02*
X17267505Y-10842484D01*
X17267505Y-10718674D02*
X17277029Y-10728198D01*
X17277029Y-10728198D02*
X17267505Y-10737722D01*
X17267505Y-10737722D02*
X17257982Y-10728198D01*
X17257982Y-10728198D02*
X17267505Y-10718674D01*
X17267505Y-10718674D02*
X17267505Y-10737722D01*
D10*
X15595300Y-11151000D02*
X15635300Y-11191000D01*
X15635300Y-11151000D02*
X15595300Y-11191000D01*
D11*
X15934172Y-11062484D02*
X15953220Y-11062484D01*
X15953220Y-11062484D02*
X15972267Y-11072008D01*
X15972267Y-11072008D02*
X15981791Y-11081531D01*
X15981791Y-11081531D02*
X15991315Y-11100579D01*
X15991315Y-11100579D02*
X16000839Y-11138674D01*
X16000839Y-11138674D02*
X16000839Y-11186293D01*
X16000839Y-11186293D02*
X15991315Y-11224388D01*
X15991315Y-11224388D02*
X15981791Y-11243436D01*
X15981791Y-11243436D02*
X15972267Y-11252960D01*
X15972267Y-11252960D02*
X15953220Y-11262484D01*
X15953220Y-11262484D02*
X15934172Y-11262484D01*
X15934172Y-11262484D02*
X15915124Y-11252960D01*
X15915124Y-11252960D02*
X15905601Y-11243436D01*
X15905601Y-11243436D02*
X15896077Y-11224388D01*
X15896077Y-11224388D02*
X15886553Y-11186293D01*
X15886553Y-11186293D02*
X15886553Y-11138674D01*
X15886553Y-11138674D02*
X15896077Y-11100579D01*
X15896077Y-11100579D02*
X15905601Y-11081531D01*
X15905601Y-11081531D02*
X15915124Y-11072008D01*
X15915124Y-11072008D02*
X15934172Y-11062484D01*
X16086553Y-11243436D02*
X16096077Y-11252960D01*
X16096077Y-11252960D02*
X16086553Y-11262484D01*
X16086553Y-11262484D02*
X16077029Y-11252960D01*
X16077029Y-11252960D02*
X16086553Y-11243436D01*
X16086553Y-11243436D02*
X16086553Y-11262484D01*
X16267505Y-11129150D02*
X16267505Y-11262484D01*
X16219886Y-11052960D02*
X16172267Y-11195817D01*
X16172267Y-11195817D02*
X16296077Y-11195817D01*
X16410362Y-11062484D02*
X16429410Y-11062484D01*
X16429410Y-11062484D02*
X16448458Y-11072008D01*
X16448458Y-11072008D02*
X16457982Y-11081531D01*
X16457982Y-11081531D02*
X16467505Y-11100579D01*
X16467505Y-11100579D02*
X16477029Y-11138674D01*
X16477029Y-11138674D02*
X16477029Y-11186293D01*
X16477029Y-11186293D02*
X16467505Y-11224388D01*
X16467505Y-11224388D02*
X16457982Y-11243436D01*
X16457982Y-11243436D02*
X16448458Y-11252960D01*
X16448458Y-11252960D02*
X16429410Y-11262484D01*
X16429410Y-11262484D02*
X16410362Y-11262484D01*
X16410362Y-11262484D02*
X16391315Y-11252960D01*
X16391315Y-11252960D02*
X16381791Y-11243436D01*
X16381791Y-11243436D02*
X16372267Y-11224388D01*
X16372267Y-11224388D02*
X16362743Y-11186293D01*
X16362743Y-11186293D02*
X16362743Y-11138674D01*
X16362743Y-11138674D02*
X16372267Y-11100579D01*
X16372267Y-11100579D02*
X16381791Y-11081531D01*
X16381791Y-11081531D02*
X16391315Y-11072008D01*
X16391315Y-11072008D02*
X16410362Y-11062484D01*
X16600839Y-11062484D02*
X16619886Y-11062484D01*
X16619886Y-11062484D02*
X16638934Y-11072008D01*
X16638934Y-11072008D02*
X16648458Y-11081531D01*
X16648458Y-11081531D02*
X16657982Y-11100579D01*
X16657982Y-11100579D02*
X16667505Y-11138674D01*
X16667505Y-11138674D02*
X16667505Y-11186293D01*
X16667505Y-11186293D02*
X16657982Y-11224388D01*
X16657982Y-11224388D02*
X16648458Y-11243436D01*
X16648458Y-11243436D02*
X16638934Y-11252960D01*
X16638934Y-11252960D02*
X16619886Y-11262484D01*
X16619886Y-11262484D02*
X16600839Y-11262484D01*
X16600839Y-11262484D02*
X16581791Y-11252960D01*
X16581791Y-11252960D02*
X16572267Y-11243436D01*
X16572267Y-11243436D02*
X16562743Y-11224388D01*
X16562743Y-11224388D02*
X16553220Y-11186293D01*
X16553220Y-11186293D02*
X16553220Y-11138674D01*
X16553220Y-11138674D02*
X16562743Y-11100579D01*
X16562743Y-11100579D02*
X16572267Y-11081531D01*
X16572267Y-11081531D02*
X16581791Y-11072008D01*
X16581791Y-11072008D02*
X16600839Y-11062484D01*
X16753220Y-11262484D02*
X16753220Y-11129150D01*
X16753220Y-11148198D02*
X16762743Y-11138674D01*
X16762743Y-11138674D02*
X16781791Y-11129150D01*
X16781791Y-11129150D02*
X16810363Y-11129150D01*
X16810363Y-11129150D02*
X16829410Y-11138674D01*
X16829410Y-11138674D02*
X16838934Y-11157722D01*
X16838934Y-11157722D02*
X16838934Y-11262484D01*
X16838934Y-11157722D02*
X16848458Y-11138674D01*
X16848458Y-11138674D02*
X16867505Y-11129150D01*
X16867505Y-11129150D02*
X16896077Y-11129150D01*
X16896077Y-11129150D02*
X16915125Y-11138674D01*
X16915125Y-11138674D02*
X16924648Y-11157722D01*
X16924648Y-11157722D02*
X16924648Y-11262484D01*
X17019886Y-11262484D02*
X17019886Y-11129150D01*
X17019886Y-11148198D02*
X17029410Y-11138674D01*
X17029410Y-11138674D02*
X17048458Y-11129150D01*
X17048458Y-11129150D02*
X17077029Y-11129150D01*
X17077029Y-11129150D02*
X17096077Y-11138674D01*
X17096077Y-11138674D02*
X17105601Y-11157722D01*
X17105601Y-11157722D02*
X17105601Y-11262484D01*
X17105601Y-11157722D02*
X17115125Y-11138674D01*
X17115125Y-11138674D02*
X17134172Y-11129150D01*
X17134172Y-11129150D02*
X17162744Y-11129150D01*
X17162744Y-11129150D02*
X17181791Y-11138674D01*
X17181791Y-11138674D02*
X17191315Y-11157722D01*
X17191315Y-11157722D02*
X17191315Y-11262484D01*
X17581791Y-11052960D02*
X17410363Y-11310103D01*
X17838934Y-11062484D02*
X17857982Y-11062484D01*
X17857982Y-11062484D02*
X17877029Y-11072008D01*
X17877029Y-11072008D02*
X17886553Y-11081531D01*
X17886553Y-11081531D02*
X17896077Y-11100579D01*
X17896077Y-11100579D02*
X17905601Y-11138674D01*
X17905601Y-11138674D02*
X17905601Y-11186293D01*
X17905601Y-11186293D02*
X17896077Y-11224388D01*
X17896077Y-11224388D02*
X17886553Y-11243436D01*
X17886553Y-11243436D02*
X17877029Y-11252960D01*
X17877029Y-11252960D02*
X17857982Y-11262484D01*
X17857982Y-11262484D02*
X17838934Y-11262484D01*
X17838934Y-11262484D02*
X17819887Y-11252960D01*
X17819887Y-11252960D02*
X17810363Y-11243436D01*
X17810363Y-11243436D02*
X17800839Y-11224388D01*
X17800839Y-11224388D02*
X17791315Y-11186293D01*
X17791315Y-11186293D02*
X17791315Y-11138674D01*
X17791315Y-11138674D02*
X17800839Y-11100579D01*
X17800839Y-11100579D02*
X17810363Y-11081531D01*
X17810363Y-11081531D02*
X17819887Y-11072008D01*
X17819887Y-11072008D02*
X17838934Y-11062484D01*
X17991315Y-11243436D02*
X18000839Y-11252960D01*
X18000839Y-11252960D02*
X17991315Y-11262484D01*
X17991315Y-11262484D02*
X17981791Y-11252960D01*
X17981791Y-11252960D02*
X17991315Y-11243436D01*
X17991315Y-11243436D02*
X17991315Y-11262484D01*
X18124648Y-11062484D02*
X18143696Y-11062484D01*
X18143696Y-11062484D02*
X18162744Y-11072008D01*
X18162744Y-11072008D02*
X18172268Y-11081531D01*
X18172268Y-11081531D02*
X18181791Y-11100579D01*
X18181791Y-11100579D02*
X18191315Y-11138674D01*
X18191315Y-11138674D02*
X18191315Y-11186293D01*
X18191315Y-11186293D02*
X18181791Y-11224388D01*
X18181791Y-11224388D02*
X18172268Y-11243436D01*
X18172268Y-11243436D02*
X18162744Y-11252960D01*
X18162744Y-11252960D02*
X18143696Y-11262484D01*
X18143696Y-11262484D02*
X18124648Y-11262484D01*
X18124648Y-11262484D02*
X18105601Y-11252960D01*
X18105601Y-11252960D02*
X18096077Y-11243436D01*
X18096077Y-11243436D02*
X18086553Y-11224388D01*
X18086553Y-11224388D02*
X18077029Y-11186293D01*
X18077029Y-11186293D02*
X18077029Y-11138674D01*
X18077029Y-11138674D02*
X18086553Y-11100579D01*
X18086553Y-11100579D02*
X18096077Y-11081531D01*
X18096077Y-11081531D02*
X18105601Y-11072008D01*
X18105601Y-11072008D02*
X18124648Y-11062484D01*
X18381791Y-11262484D02*
X18267506Y-11262484D01*
X18324648Y-11262484D02*
X18324648Y-11062484D01*
X18324648Y-11062484D02*
X18305601Y-11091055D01*
X18305601Y-11091055D02*
X18286553Y-11110103D01*
X18286553Y-11110103D02*
X18267506Y-11119627D01*
X18562744Y-11062484D02*
X18467506Y-11062484D01*
X18467506Y-11062484D02*
X18457982Y-11157722D01*
X18457982Y-11157722D02*
X18467506Y-11148198D01*
X18467506Y-11148198D02*
X18486553Y-11138674D01*
X18486553Y-11138674D02*
X18534172Y-11138674D01*
X18534172Y-11138674D02*
X18553220Y-11148198D01*
X18553220Y-11148198D02*
X18562744Y-11157722D01*
X18562744Y-11157722D02*
X18572268Y-11176770D01*
X18572268Y-11176770D02*
X18572268Y-11224388D01*
X18572268Y-11224388D02*
X18562744Y-11243436D01*
X18562744Y-11243436D02*
X18553220Y-11252960D01*
X18553220Y-11252960D02*
X18534172Y-11262484D01*
X18534172Y-11262484D02*
X18486553Y-11262484D01*
X18486553Y-11262484D02*
X18467506Y-11252960D01*
X18467506Y-11252960D02*
X18457982Y-11243436D01*
X18638934Y-11062484D02*
X18772268Y-11062484D01*
X18772268Y-11062484D02*
X18686553Y-11262484D01*
X18838934Y-11062484D02*
X18838934Y-11100579D01*
X18915125Y-11062484D02*
X18915125Y-11100579D01*
X19210363Y-11338674D02*
X19200839Y-11329150D01*
X19200839Y-11329150D02*
X19181791Y-11300579D01*
X19181791Y-11300579D02*
X19172268Y-11281531D01*
X19172268Y-11281531D02*
X19162744Y-11252960D01*
X19162744Y-11252960D02*
X19153220Y-11205341D01*
X19153220Y-11205341D02*
X19153220Y-11167246D01*
X19153220Y-11167246D02*
X19162744Y-11119627D01*
X19162744Y-11119627D02*
X19172268Y-11091055D01*
X19172268Y-11091055D02*
X19181791Y-11072008D01*
X19181791Y-11072008D02*
X19200839Y-11043436D01*
X19200839Y-11043436D02*
X19210363Y-11033912D01*
X19267506Y-11062484D02*
X19400839Y-11062484D01*
X19400839Y-11062484D02*
X19315125Y-11262484D01*
X19629411Y-11262484D02*
X19629411Y-11062484D01*
X19715125Y-11262484D02*
X19715125Y-11157722D01*
X19715125Y-11157722D02*
X19705601Y-11138674D01*
X19705601Y-11138674D02*
X19686553Y-11129150D01*
X19686553Y-11129150D02*
X19657982Y-11129150D01*
X19657982Y-11129150D02*
X19638934Y-11138674D01*
X19638934Y-11138674D02*
X19629411Y-11148198D01*
X19838934Y-11262484D02*
X19819887Y-11252960D01*
X19819887Y-11252960D02*
X19810363Y-11243436D01*
X19810363Y-11243436D02*
X19800839Y-11224388D01*
X19800839Y-11224388D02*
X19800839Y-11167246D01*
X19800839Y-11167246D02*
X19810363Y-11148198D01*
X19810363Y-11148198D02*
X19819887Y-11138674D01*
X19819887Y-11138674D02*
X19838934Y-11129150D01*
X19838934Y-11129150D02*
X19867506Y-11129150D01*
X19867506Y-11129150D02*
X19886553Y-11138674D01*
X19886553Y-11138674D02*
X19896077Y-11148198D01*
X19896077Y-11148198D02*
X19905601Y-11167246D01*
X19905601Y-11167246D02*
X19905601Y-11224388D01*
X19905601Y-11224388D02*
X19896077Y-11243436D01*
X19896077Y-11243436D02*
X19886553Y-11252960D01*
X19886553Y-11252960D02*
X19867506Y-11262484D01*
X19867506Y-11262484D02*
X19838934Y-11262484D01*
X20019887Y-11262484D02*
X20000839Y-11252960D01*
X20000839Y-11252960D02*
X19991315Y-11233912D01*
X19991315Y-11233912D02*
X19991315Y-11062484D01*
X20172268Y-11252960D02*
X20153220Y-11262484D01*
X20153220Y-11262484D02*
X20115125Y-11262484D01*
X20115125Y-11262484D02*
X20096077Y-11252960D01*
X20096077Y-11252960D02*
X20086553Y-11233912D01*
X20086553Y-11233912D02*
X20086553Y-11157722D01*
X20086553Y-11157722D02*
X20096077Y-11138674D01*
X20096077Y-11138674D02*
X20115125Y-11129150D01*
X20115125Y-11129150D02*
X20153220Y-11129150D01*
X20153220Y-11129150D02*
X20172268Y-11138674D01*
X20172268Y-11138674D02*
X20181792Y-11157722D01*
X20181792Y-11157722D02*
X20181792Y-11176770D01*
X20181792Y-11176770D02*
X20086553Y-11195817D01*
X20257982Y-11252960D02*
X20277030Y-11262484D01*
X20277030Y-11262484D02*
X20315125Y-11262484D01*
X20315125Y-11262484D02*
X20334173Y-11252960D01*
X20334173Y-11252960D02*
X20343696Y-11233912D01*
X20343696Y-11233912D02*
X20343696Y-11224388D01*
X20343696Y-11224388D02*
X20334173Y-11205341D01*
X20334173Y-11205341D02*
X20315125Y-11195817D01*
X20315125Y-11195817D02*
X20286553Y-11195817D01*
X20286553Y-11195817D02*
X20267506Y-11186293D01*
X20267506Y-11186293D02*
X20257982Y-11167246D01*
X20257982Y-11167246D02*
X20257982Y-11157722D01*
X20257982Y-11157722D02*
X20267506Y-11138674D01*
X20267506Y-11138674D02*
X20286553Y-11129150D01*
X20286553Y-11129150D02*
X20315125Y-11129150D01*
X20315125Y-11129150D02*
X20334173Y-11138674D01*
X20410363Y-11338674D02*
X20419887Y-11329150D01*
X20419887Y-11329150D02*
X20438934Y-11300579D01*
X20438934Y-11300579D02*
X20448458Y-11281531D01*
X20448458Y-11281531D02*
X20457982Y-11252960D01*
X20457982Y-11252960D02*
X20467506Y-11205341D01*
X20467506Y-11205341D02*
X20467506Y-11167246D01*
X20467506Y-11167246D02*
X20457982Y-11119627D01*
X20457982Y-11119627D02*
X20448458Y-11091055D01*
X20448458Y-11091055D02*
X20438934Y-11072008D01*
X20438934Y-11072008D02*
X20419887Y-11043436D01*
X20419887Y-11043436D02*
X20410363Y-11033912D01*
D10*
X15635300Y-11435000D02*
G75*
G02*
X15535300Y-11435000I-50000J0D01*
G01*
X15535300Y-11435000D02*
G75*
G02*
X15635300Y-11435000I50000J0D01*
G01*
D11*
X16000839Y-11526484D02*
X15886553Y-11526484D01*
X15943696Y-11526484D02*
X15943696Y-11326484D01*
X15943696Y-11326484D02*
X15924648Y-11355055D01*
X15924648Y-11355055D02*
X15905601Y-11374103D01*
X15905601Y-11374103D02*
X15886553Y-11383627D01*
X16086553Y-11507436D02*
X16096077Y-11516960D01*
X16096077Y-11516960D02*
X16086553Y-11526484D01*
X16086553Y-11526484D02*
X16077029Y-11516960D01*
X16077029Y-11516960D02*
X16086553Y-11507436D01*
X16086553Y-11507436D02*
X16086553Y-11526484D01*
X16219886Y-11326484D02*
X16238934Y-11326484D01*
X16238934Y-11326484D02*
X16257982Y-11336008D01*
X16257982Y-11336008D02*
X16267505Y-11345531D01*
X16267505Y-11345531D02*
X16277029Y-11364579D01*
X16277029Y-11364579D02*
X16286553Y-11402674D01*
X16286553Y-11402674D02*
X16286553Y-11450293D01*
X16286553Y-11450293D02*
X16277029Y-11488388D01*
X16277029Y-11488388D02*
X16267505Y-11507436D01*
X16267505Y-11507436D02*
X16257982Y-11516960D01*
X16257982Y-11516960D02*
X16238934Y-11526484D01*
X16238934Y-11526484D02*
X16219886Y-11526484D01*
X16219886Y-11526484D02*
X16200839Y-11516960D01*
X16200839Y-11516960D02*
X16191315Y-11507436D01*
X16191315Y-11507436D02*
X16181791Y-11488388D01*
X16181791Y-11488388D02*
X16172267Y-11450293D01*
X16172267Y-11450293D02*
X16172267Y-11402674D01*
X16172267Y-11402674D02*
X16181791Y-11364579D01*
X16181791Y-11364579D02*
X16191315Y-11345531D01*
X16191315Y-11345531D02*
X16200839Y-11336008D01*
X16200839Y-11336008D02*
X16219886Y-11326484D01*
X16410362Y-11326484D02*
X16429410Y-11326484D01*
X16429410Y-11326484D02*
X16448458Y-11336008D01*
X16448458Y-11336008D02*
X16457982Y-11345531D01*
X16457982Y-11345531D02*
X16467505Y-11364579D01*
X16467505Y-11364579D02*
X16477029Y-11402674D01*
X16477029Y-11402674D02*
X16477029Y-11450293D01*
X16477029Y-11450293D02*
X16467505Y-11488388D01*
X16467505Y-11488388D02*
X16457982Y-11507436D01*
X16457982Y-11507436D02*
X16448458Y-11516960D01*
X16448458Y-11516960D02*
X16429410Y-11526484D01*
X16429410Y-11526484D02*
X16410362Y-11526484D01*
X16410362Y-11526484D02*
X16391315Y-11516960D01*
X16391315Y-11516960D02*
X16381791Y-11507436D01*
X16381791Y-11507436D02*
X16372267Y-11488388D01*
X16372267Y-11488388D02*
X16362743Y-11450293D01*
X16362743Y-11450293D02*
X16362743Y-11402674D01*
X16362743Y-11402674D02*
X16372267Y-11364579D01*
X16372267Y-11364579D02*
X16381791Y-11345531D01*
X16381791Y-11345531D02*
X16391315Y-11336008D01*
X16391315Y-11336008D02*
X16410362Y-11326484D01*
X16600839Y-11326484D02*
X16619886Y-11326484D01*
X16619886Y-11326484D02*
X16638934Y-11336008D01*
X16638934Y-11336008D02*
X16648458Y-11345531D01*
X16648458Y-11345531D02*
X16657982Y-11364579D01*
X16657982Y-11364579D02*
X16667505Y-11402674D01*
X16667505Y-11402674D02*
X16667505Y-11450293D01*
X16667505Y-11450293D02*
X16657982Y-11488388D01*
X16657982Y-11488388D02*
X16648458Y-11507436D01*
X16648458Y-11507436D02*
X16638934Y-11516960D01*
X16638934Y-11516960D02*
X16619886Y-11526484D01*
X16619886Y-11526484D02*
X16600839Y-11526484D01*
X16600839Y-11526484D02*
X16581791Y-11516960D01*
X16581791Y-11516960D02*
X16572267Y-11507436D01*
X16572267Y-11507436D02*
X16562743Y-11488388D01*
X16562743Y-11488388D02*
X16553220Y-11450293D01*
X16553220Y-11450293D02*
X16553220Y-11402674D01*
X16553220Y-11402674D02*
X16562743Y-11364579D01*
X16562743Y-11364579D02*
X16572267Y-11345531D01*
X16572267Y-11345531D02*
X16581791Y-11336008D01*
X16581791Y-11336008D02*
X16600839Y-11326484D01*
X16753220Y-11526484D02*
X16753220Y-11393150D01*
X16753220Y-11412198D02*
X16762743Y-11402674D01*
X16762743Y-11402674D02*
X16781791Y-11393150D01*
X16781791Y-11393150D02*
X16810363Y-11393150D01*
X16810363Y-11393150D02*
X16829410Y-11402674D01*
X16829410Y-11402674D02*
X16838934Y-11421722D01*
X16838934Y-11421722D02*
X16838934Y-11526484D01*
X16838934Y-11421722D02*
X16848458Y-11402674D01*
X16848458Y-11402674D02*
X16867505Y-11393150D01*
X16867505Y-11393150D02*
X16896077Y-11393150D01*
X16896077Y-11393150D02*
X16915125Y-11402674D01*
X16915125Y-11402674D02*
X16924648Y-11421722D01*
X16924648Y-11421722D02*
X16924648Y-11526484D01*
X17019886Y-11526484D02*
X17019886Y-11393150D01*
X17019886Y-11412198D02*
X17029410Y-11402674D01*
X17029410Y-11402674D02*
X17048458Y-11393150D01*
X17048458Y-11393150D02*
X17077029Y-11393150D01*
X17077029Y-11393150D02*
X17096077Y-11402674D01*
X17096077Y-11402674D02*
X17105601Y-11421722D01*
X17105601Y-11421722D02*
X17105601Y-11526484D01*
X17105601Y-11421722D02*
X17115125Y-11402674D01*
X17115125Y-11402674D02*
X17134172Y-11393150D01*
X17134172Y-11393150D02*
X17162744Y-11393150D01*
X17162744Y-11393150D02*
X17181791Y-11402674D01*
X17181791Y-11402674D02*
X17191315Y-11421722D01*
X17191315Y-11421722D02*
X17191315Y-11526484D01*
X17581791Y-11316960D02*
X17410363Y-11574103D01*
X17838934Y-11326484D02*
X17857982Y-11326484D01*
X17857982Y-11326484D02*
X17877029Y-11336008D01*
X17877029Y-11336008D02*
X17886553Y-11345531D01*
X17886553Y-11345531D02*
X17896077Y-11364579D01*
X17896077Y-11364579D02*
X17905601Y-11402674D01*
X17905601Y-11402674D02*
X17905601Y-11450293D01*
X17905601Y-11450293D02*
X17896077Y-11488388D01*
X17896077Y-11488388D02*
X17886553Y-11507436D01*
X17886553Y-11507436D02*
X17877029Y-11516960D01*
X17877029Y-11516960D02*
X17857982Y-11526484D01*
X17857982Y-11526484D02*
X17838934Y-11526484D01*
X17838934Y-11526484D02*
X17819887Y-11516960D01*
X17819887Y-11516960D02*
X17810363Y-11507436D01*
X17810363Y-11507436D02*
X17800839Y-11488388D01*
X17800839Y-11488388D02*
X17791315Y-11450293D01*
X17791315Y-11450293D02*
X17791315Y-11402674D01*
X17791315Y-11402674D02*
X17800839Y-11364579D01*
X17800839Y-11364579D02*
X17810363Y-11345531D01*
X17810363Y-11345531D02*
X17819887Y-11336008D01*
X17819887Y-11336008D02*
X17838934Y-11326484D01*
X17991315Y-11507436D02*
X18000839Y-11516960D01*
X18000839Y-11516960D02*
X17991315Y-11526484D01*
X17991315Y-11526484D02*
X17981791Y-11516960D01*
X17981791Y-11516960D02*
X17991315Y-11507436D01*
X17991315Y-11507436D02*
X17991315Y-11526484D01*
X18124648Y-11326484D02*
X18143696Y-11326484D01*
X18143696Y-11326484D02*
X18162744Y-11336008D01*
X18162744Y-11336008D02*
X18172268Y-11345531D01*
X18172268Y-11345531D02*
X18181791Y-11364579D01*
X18181791Y-11364579D02*
X18191315Y-11402674D01*
X18191315Y-11402674D02*
X18191315Y-11450293D01*
X18191315Y-11450293D02*
X18181791Y-11488388D01*
X18181791Y-11488388D02*
X18172268Y-11507436D01*
X18172268Y-11507436D02*
X18162744Y-11516960D01*
X18162744Y-11516960D02*
X18143696Y-11526484D01*
X18143696Y-11526484D02*
X18124648Y-11526484D01*
X18124648Y-11526484D02*
X18105601Y-11516960D01*
X18105601Y-11516960D02*
X18096077Y-11507436D01*
X18096077Y-11507436D02*
X18086553Y-11488388D01*
X18086553Y-11488388D02*
X18077029Y-11450293D01*
X18077029Y-11450293D02*
X18077029Y-11402674D01*
X18077029Y-11402674D02*
X18086553Y-11364579D01*
X18086553Y-11364579D02*
X18096077Y-11345531D01*
X18096077Y-11345531D02*
X18105601Y-11336008D01*
X18105601Y-11336008D02*
X18124648Y-11326484D01*
X18257982Y-11326484D02*
X18381791Y-11326484D01*
X18381791Y-11326484D02*
X18315125Y-11402674D01*
X18315125Y-11402674D02*
X18343696Y-11402674D01*
X18343696Y-11402674D02*
X18362744Y-11412198D01*
X18362744Y-11412198D02*
X18372268Y-11421722D01*
X18372268Y-11421722D02*
X18381791Y-11440769D01*
X18381791Y-11440769D02*
X18381791Y-11488388D01*
X18381791Y-11488388D02*
X18372268Y-11507436D01*
X18372268Y-11507436D02*
X18362744Y-11516960D01*
X18362744Y-11516960D02*
X18343696Y-11526484D01*
X18343696Y-11526484D02*
X18286553Y-11526484D01*
X18286553Y-11526484D02*
X18267506Y-11516960D01*
X18267506Y-11516960D02*
X18257982Y-11507436D01*
X18477029Y-11526484D02*
X18515125Y-11526484D01*
X18515125Y-11526484D02*
X18534172Y-11516960D01*
X18534172Y-11516960D02*
X18543696Y-11507436D01*
X18543696Y-11507436D02*
X18562744Y-11478865D01*
X18562744Y-11478865D02*
X18572268Y-11440769D01*
X18572268Y-11440769D02*
X18572268Y-11364579D01*
X18572268Y-11364579D02*
X18562744Y-11345531D01*
X18562744Y-11345531D02*
X18553220Y-11336008D01*
X18553220Y-11336008D02*
X18534172Y-11326484D01*
X18534172Y-11326484D02*
X18496077Y-11326484D01*
X18496077Y-11326484D02*
X18477029Y-11336008D01*
X18477029Y-11336008D02*
X18467506Y-11345531D01*
X18467506Y-11345531D02*
X18457982Y-11364579D01*
X18457982Y-11364579D02*
X18457982Y-11412198D01*
X18457982Y-11412198D02*
X18467506Y-11431246D01*
X18467506Y-11431246D02*
X18477029Y-11440769D01*
X18477029Y-11440769D02*
X18496077Y-11450293D01*
X18496077Y-11450293D02*
X18534172Y-11450293D01*
X18534172Y-11450293D02*
X18553220Y-11440769D01*
X18553220Y-11440769D02*
X18562744Y-11431246D01*
X18562744Y-11431246D02*
X18572268Y-11412198D01*
X18743696Y-11393150D02*
X18743696Y-11526484D01*
X18696077Y-11316960D02*
X18648458Y-11459817D01*
X18648458Y-11459817D02*
X18772268Y-11459817D01*
X18838934Y-11326484D02*
X18838934Y-11364579D01*
X18915125Y-11326484D02*
X18915125Y-11364579D01*
X19210363Y-11602674D02*
X19200839Y-11593150D01*
X19200839Y-11593150D02*
X19181791Y-11564579D01*
X19181791Y-11564579D02*
X19172268Y-11545531D01*
X19172268Y-11545531D02*
X19162744Y-11516960D01*
X19162744Y-11516960D02*
X19153220Y-11469341D01*
X19153220Y-11469341D02*
X19153220Y-11431246D01*
X19153220Y-11431246D02*
X19162744Y-11383627D01*
X19162744Y-11383627D02*
X19172268Y-11355055D01*
X19172268Y-11355055D02*
X19181791Y-11336008D01*
X19181791Y-11336008D02*
X19200839Y-11307436D01*
X19200839Y-11307436D02*
X19210363Y-11297912D01*
X19267506Y-11326484D02*
X19400839Y-11326484D01*
X19400839Y-11326484D02*
X19315125Y-11526484D01*
X19572268Y-11326484D02*
X19477030Y-11326484D01*
X19477030Y-11326484D02*
X19467506Y-11421722D01*
X19467506Y-11421722D02*
X19477030Y-11412198D01*
X19477030Y-11412198D02*
X19496077Y-11402674D01*
X19496077Y-11402674D02*
X19543696Y-11402674D01*
X19543696Y-11402674D02*
X19562744Y-11412198D01*
X19562744Y-11412198D02*
X19572268Y-11421722D01*
X19572268Y-11421722D02*
X19581791Y-11440769D01*
X19581791Y-11440769D02*
X19581791Y-11488388D01*
X19581791Y-11488388D02*
X19572268Y-11507436D01*
X19572268Y-11507436D02*
X19562744Y-11516960D01*
X19562744Y-11516960D02*
X19543696Y-11526484D01*
X19543696Y-11526484D02*
X19496077Y-11526484D01*
X19496077Y-11526484D02*
X19477030Y-11516960D01*
X19477030Y-11516960D02*
X19467506Y-11507436D01*
X19819887Y-11526484D02*
X19819887Y-11326484D01*
X19905601Y-11526484D02*
X19905601Y-11421722D01*
X19905601Y-11421722D02*
X19896077Y-11402674D01*
X19896077Y-11402674D02*
X19877030Y-11393150D01*
X19877030Y-11393150D02*
X19848458Y-11393150D01*
X19848458Y-11393150D02*
X19829411Y-11402674D01*
X19829411Y-11402674D02*
X19819887Y-11412198D01*
X20029411Y-11526484D02*
X20010363Y-11516960D01*
X20010363Y-11516960D02*
X20000839Y-11507436D01*
X20000839Y-11507436D02*
X19991315Y-11488388D01*
X19991315Y-11488388D02*
X19991315Y-11431246D01*
X19991315Y-11431246D02*
X20000839Y-11412198D01*
X20000839Y-11412198D02*
X20010363Y-11402674D01*
X20010363Y-11402674D02*
X20029411Y-11393150D01*
X20029411Y-11393150D02*
X20057982Y-11393150D01*
X20057982Y-11393150D02*
X20077030Y-11402674D01*
X20077030Y-11402674D02*
X20086553Y-11412198D01*
X20086553Y-11412198D02*
X20096077Y-11431246D01*
X20096077Y-11431246D02*
X20096077Y-11488388D01*
X20096077Y-11488388D02*
X20086553Y-11507436D01*
X20086553Y-11507436D02*
X20077030Y-11516960D01*
X20077030Y-11516960D02*
X20057982Y-11526484D01*
X20057982Y-11526484D02*
X20029411Y-11526484D01*
X20210363Y-11526484D02*
X20191315Y-11516960D01*
X20191315Y-11516960D02*
X20181792Y-11497912D01*
X20181792Y-11497912D02*
X20181792Y-11326484D01*
X20362744Y-11516960D02*
X20343696Y-11526484D01*
X20343696Y-11526484D02*
X20305601Y-11526484D01*
X20305601Y-11526484D02*
X20286553Y-11516960D01*
X20286553Y-11516960D02*
X20277030Y-11497912D01*
X20277030Y-11497912D02*
X20277030Y-11421722D01*
X20277030Y-11421722D02*
X20286553Y-11402674D01*
X20286553Y-11402674D02*
X20305601Y-11393150D01*
X20305601Y-11393150D02*
X20343696Y-11393150D01*
X20343696Y-11393150D02*
X20362744Y-11402674D01*
X20362744Y-11402674D02*
X20372268Y-11421722D01*
X20372268Y-11421722D02*
X20372268Y-11440769D01*
X20372268Y-11440769D02*
X20277030Y-11459817D01*
X20448458Y-11516960D02*
X20467506Y-11526484D01*
X20467506Y-11526484D02*
X20505601Y-11526484D01*
X20505601Y-11526484D02*
X20524649Y-11516960D01*
X20524649Y-11516960D02*
X20534173Y-11497912D01*
X20534173Y-11497912D02*
X20534173Y-11488388D01*
X20534173Y-11488388D02*
X20524649Y-11469341D01*
X20524649Y-11469341D02*
X20505601Y-11459817D01*
X20505601Y-11459817D02*
X20477030Y-11459817D01*
X20477030Y-11459817D02*
X20457982Y-11450293D01*
X20457982Y-11450293D02*
X20448458Y-11431246D01*
X20448458Y-11431246D02*
X20448458Y-11421722D01*
X20448458Y-11421722D02*
X20457982Y-11402674D01*
X20457982Y-11402674D02*
X20477030Y-11393150D01*
X20477030Y-11393150D02*
X20505601Y-11393150D01*
X20505601Y-11393150D02*
X20524649Y-11402674D01*
X20600839Y-11602674D02*
X20610363Y-11593150D01*
X20610363Y-11593150D02*
X20629411Y-11564579D01*
X20629411Y-11564579D02*
X20638934Y-11545531D01*
X20638934Y-11545531D02*
X20648458Y-11516960D01*
X20648458Y-11516960D02*
X20657982Y-11469341D01*
X20657982Y-11469341D02*
X20657982Y-11431246D01*
X20657982Y-11431246D02*
X20648458Y-11383627D01*
X20648458Y-11383627D02*
X20638934Y-11355055D01*
X20638934Y-11355055D02*
X20629411Y-11336008D01*
X20629411Y-11336008D02*
X20610363Y-11307436D01*
X20610363Y-11307436D02*
X20600839Y-11297912D01*
D12*
X15584500Y-11648200D02*
X15584500Y-11749800D01*
X15533700Y-11699000D02*
X15635300Y-11699000D01*
D11*
X16000839Y-11790484D02*
X15886553Y-11790484D01*
X15943696Y-11790484D02*
X15943696Y-11590484D01*
X15943696Y-11590484D02*
X15924648Y-11619055D01*
X15924648Y-11619055D02*
X15905601Y-11638103D01*
X15905601Y-11638103D02*
X15886553Y-11647627D01*
X16086553Y-11771436D02*
X16096077Y-11780960D01*
X16096077Y-11780960D02*
X16086553Y-11790484D01*
X16086553Y-11790484D02*
X16077029Y-11780960D01*
X16077029Y-11780960D02*
X16086553Y-11771436D01*
X16086553Y-11771436D02*
X16086553Y-11790484D01*
X16219886Y-11590484D02*
X16238934Y-11590484D01*
X16238934Y-11590484D02*
X16257982Y-11600008D01*
X16257982Y-11600008D02*
X16267505Y-11609531D01*
X16267505Y-11609531D02*
X16277029Y-11628579D01*
X16277029Y-11628579D02*
X16286553Y-11666674D01*
X16286553Y-11666674D02*
X16286553Y-11714293D01*
X16286553Y-11714293D02*
X16277029Y-11752388D01*
X16277029Y-11752388D02*
X16267505Y-11771436D01*
X16267505Y-11771436D02*
X16257982Y-11780960D01*
X16257982Y-11780960D02*
X16238934Y-11790484D01*
X16238934Y-11790484D02*
X16219886Y-11790484D01*
X16219886Y-11790484D02*
X16200839Y-11780960D01*
X16200839Y-11780960D02*
X16191315Y-11771436D01*
X16191315Y-11771436D02*
X16181791Y-11752388D01*
X16181791Y-11752388D02*
X16172267Y-11714293D01*
X16172267Y-11714293D02*
X16172267Y-11666674D01*
X16172267Y-11666674D02*
X16181791Y-11628579D01*
X16181791Y-11628579D02*
X16191315Y-11609531D01*
X16191315Y-11609531D02*
X16200839Y-11600008D01*
X16200839Y-11600008D02*
X16219886Y-11590484D01*
X16477029Y-11790484D02*
X16362743Y-11790484D01*
X16419886Y-11790484D02*
X16419886Y-11590484D01*
X16419886Y-11590484D02*
X16400839Y-11619055D01*
X16400839Y-11619055D02*
X16381791Y-11638103D01*
X16381791Y-11638103D02*
X16362743Y-11647627D01*
X16648458Y-11590484D02*
X16610362Y-11590484D01*
X16610362Y-11590484D02*
X16591315Y-11600008D01*
X16591315Y-11600008D02*
X16581791Y-11609531D01*
X16581791Y-11609531D02*
X16562743Y-11638103D01*
X16562743Y-11638103D02*
X16553220Y-11676198D01*
X16553220Y-11676198D02*
X16553220Y-11752388D01*
X16553220Y-11752388D02*
X16562743Y-11771436D01*
X16562743Y-11771436D02*
X16572267Y-11780960D01*
X16572267Y-11780960D02*
X16591315Y-11790484D01*
X16591315Y-11790484D02*
X16629410Y-11790484D01*
X16629410Y-11790484D02*
X16648458Y-11780960D01*
X16648458Y-11780960D02*
X16657982Y-11771436D01*
X16657982Y-11771436D02*
X16667505Y-11752388D01*
X16667505Y-11752388D02*
X16667505Y-11704769D01*
X16667505Y-11704769D02*
X16657982Y-11685722D01*
X16657982Y-11685722D02*
X16648458Y-11676198D01*
X16648458Y-11676198D02*
X16629410Y-11666674D01*
X16629410Y-11666674D02*
X16591315Y-11666674D01*
X16591315Y-11666674D02*
X16572267Y-11676198D01*
X16572267Y-11676198D02*
X16562743Y-11685722D01*
X16562743Y-11685722D02*
X16553220Y-11704769D01*
X16753220Y-11790484D02*
X16753220Y-11657150D01*
X16753220Y-11676198D02*
X16762743Y-11666674D01*
X16762743Y-11666674D02*
X16781791Y-11657150D01*
X16781791Y-11657150D02*
X16810363Y-11657150D01*
X16810363Y-11657150D02*
X16829410Y-11666674D01*
X16829410Y-11666674D02*
X16838934Y-11685722D01*
X16838934Y-11685722D02*
X16838934Y-11790484D01*
X16838934Y-11685722D02*
X16848458Y-11666674D01*
X16848458Y-11666674D02*
X16867505Y-11657150D01*
X16867505Y-11657150D02*
X16896077Y-11657150D01*
X16896077Y-11657150D02*
X16915125Y-11666674D01*
X16915125Y-11666674D02*
X16924648Y-11685722D01*
X16924648Y-11685722D02*
X16924648Y-11790484D01*
X17019886Y-11790484D02*
X17019886Y-11657150D01*
X17019886Y-11676198D02*
X17029410Y-11666674D01*
X17029410Y-11666674D02*
X17048458Y-11657150D01*
X17048458Y-11657150D02*
X17077029Y-11657150D01*
X17077029Y-11657150D02*
X17096077Y-11666674D01*
X17096077Y-11666674D02*
X17105601Y-11685722D01*
X17105601Y-11685722D02*
X17105601Y-11790484D01*
X17105601Y-11685722D02*
X17115125Y-11666674D01*
X17115125Y-11666674D02*
X17134172Y-11657150D01*
X17134172Y-11657150D02*
X17162744Y-11657150D01*
X17162744Y-11657150D02*
X17181791Y-11666674D01*
X17181791Y-11666674D02*
X17191315Y-11685722D01*
X17191315Y-11685722D02*
X17191315Y-11790484D01*
X17581791Y-11580960D02*
X17410363Y-11838103D01*
X17838934Y-11590484D02*
X17857982Y-11590484D01*
X17857982Y-11590484D02*
X17877029Y-11600008D01*
X17877029Y-11600008D02*
X17886553Y-11609531D01*
X17886553Y-11609531D02*
X17896077Y-11628579D01*
X17896077Y-11628579D02*
X17905601Y-11666674D01*
X17905601Y-11666674D02*
X17905601Y-11714293D01*
X17905601Y-11714293D02*
X17896077Y-11752388D01*
X17896077Y-11752388D02*
X17886553Y-11771436D01*
X17886553Y-11771436D02*
X17877029Y-11780960D01*
X17877029Y-11780960D02*
X17857982Y-11790484D01*
X17857982Y-11790484D02*
X17838934Y-11790484D01*
X17838934Y-11790484D02*
X17819887Y-11780960D01*
X17819887Y-11780960D02*
X17810363Y-11771436D01*
X17810363Y-11771436D02*
X17800839Y-11752388D01*
X17800839Y-11752388D02*
X17791315Y-11714293D01*
X17791315Y-11714293D02*
X17791315Y-11666674D01*
X17791315Y-11666674D02*
X17800839Y-11628579D01*
X17800839Y-11628579D02*
X17810363Y-11609531D01*
X17810363Y-11609531D02*
X17819887Y-11600008D01*
X17819887Y-11600008D02*
X17838934Y-11590484D01*
X17991315Y-11771436D02*
X18000839Y-11780960D01*
X18000839Y-11780960D02*
X17991315Y-11790484D01*
X17991315Y-11790484D02*
X17981791Y-11780960D01*
X17981791Y-11780960D02*
X17991315Y-11771436D01*
X17991315Y-11771436D02*
X17991315Y-11790484D01*
X18124648Y-11590484D02*
X18143696Y-11590484D01*
X18143696Y-11590484D02*
X18162744Y-11600008D01*
X18162744Y-11600008D02*
X18172268Y-11609531D01*
X18172268Y-11609531D02*
X18181791Y-11628579D01*
X18181791Y-11628579D02*
X18191315Y-11666674D01*
X18191315Y-11666674D02*
X18191315Y-11714293D01*
X18191315Y-11714293D02*
X18181791Y-11752388D01*
X18181791Y-11752388D02*
X18172268Y-11771436D01*
X18172268Y-11771436D02*
X18162744Y-11780960D01*
X18162744Y-11780960D02*
X18143696Y-11790484D01*
X18143696Y-11790484D02*
X18124648Y-11790484D01*
X18124648Y-11790484D02*
X18105601Y-11780960D01*
X18105601Y-11780960D02*
X18096077Y-11771436D01*
X18096077Y-11771436D02*
X18086553Y-11752388D01*
X18086553Y-11752388D02*
X18077029Y-11714293D01*
X18077029Y-11714293D02*
X18077029Y-11666674D01*
X18077029Y-11666674D02*
X18086553Y-11628579D01*
X18086553Y-11628579D02*
X18096077Y-11609531D01*
X18096077Y-11609531D02*
X18105601Y-11600008D01*
X18105601Y-11600008D02*
X18124648Y-11590484D01*
X18362744Y-11657150D02*
X18362744Y-11790484D01*
X18315125Y-11580960D02*
X18267506Y-11723817D01*
X18267506Y-11723817D02*
X18391315Y-11723817D01*
X18505601Y-11590484D02*
X18524649Y-11590484D01*
X18524649Y-11590484D02*
X18543696Y-11600008D01*
X18543696Y-11600008D02*
X18553220Y-11609531D01*
X18553220Y-11609531D02*
X18562744Y-11628579D01*
X18562744Y-11628579D02*
X18572268Y-11666674D01*
X18572268Y-11666674D02*
X18572268Y-11714293D01*
X18572268Y-11714293D02*
X18562744Y-11752388D01*
X18562744Y-11752388D02*
X18553220Y-11771436D01*
X18553220Y-11771436D02*
X18543696Y-11780960D01*
X18543696Y-11780960D02*
X18524649Y-11790484D01*
X18524649Y-11790484D02*
X18505601Y-11790484D01*
X18505601Y-11790484D02*
X18486553Y-11780960D01*
X18486553Y-11780960D02*
X18477029Y-11771436D01*
X18477029Y-11771436D02*
X18467506Y-11752388D01*
X18467506Y-11752388D02*
X18457982Y-11714293D01*
X18457982Y-11714293D02*
X18457982Y-11666674D01*
X18457982Y-11666674D02*
X18467506Y-11628579D01*
X18467506Y-11628579D02*
X18477029Y-11609531D01*
X18477029Y-11609531D02*
X18486553Y-11600008D01*
X18486553Y-11600008D02*
X18505601Y-11590484D01*
X18696077Y-11590484D02*
X18715125Y-11590484D01*
X18715125Y-11590484D02*
X18734172Y-11600008D01*
X18734172Y-11600008D02*
X18743696Y-11609531D01*
X18743696Y-11609531D02*
X18753220Y-11628579D01*
X18753220Y-11628579D02*
X18762744Y-11666674D01*
X18762744Y-11666674D02*
X18762744Y-11714293D01*
X18762744Y-11714293D02*
X18753220Y-11752388D01*
X18753220Y-11752388D02*
X18743696Y-11771436D01*
X18743696Y-11771436D02*
X18734172Y-11780960D01*
X18734172Y-11780960D02*
X18715125Y-11790484D01*
X18715125Y-11790484D02*
X18696077Y-11790484D01*
X18696077Y-11790484D02*
X18677029Y-11780960D01*
X18677029Y-11780960D02*
X18667506Y-11771436D01*
X18667506Y-11771436D02*
X18657982Y-11752388D01*
X18657982Y-11752388D02*
X18648458Y-11714293D01*
X18648458Y-11714293D02*
X18648458Y-11666674D01*
X18648458Y-11666674D02*
X18657982Y-11628579D01*
X18657982Y-11628579D02*
X18667506Y-11609531D01*
X18667506Y-11609531D02*
X18677029Y-11600008D01*
X18677029Y-11600008D02*
X18696077Y-11590484D01*
X18838934Y-11590484D02*
X18838934Y-11628579D01*
X18915125Y-11590484D02*
X18915125Y-11628579D01*
X19210363Y-11866674D02*
X19200839Y-11857150D01*
X19200839Y-11857150D02*
X19181791Y-11828579D01*
X19181791Y-11828579D02*
X19172268Y-11809531D01*
X19172268Y-11809531D02*
X19162744Y-11780960D01*
X19162744Y-11780960D02*
X19153220Y-11733341D01*
X19153220Y-11733341D02*
X19153220Y-11695246D01*
X19153220Y-11695246D02*
X19162744Y-11647627D01*
X19162744Y-11647627D02*
X19172268Y-11619055D01*
X19172268Y-11619055D02*
X19181791Y-11600008D01*
X19181791Y-11600008D02*
X19200839Y-11571436D01*
X19200839Y-11571436D02*
X19210363Y-11561912D01*
X19372268Y-11590484D02*
X19334172Y-11590484D01*
X19334172Y-11590484D02*
X19315125Y-11600008D01*
X19315125Y-11600008D02*
X19305601Y-11609531D01*
X19305601Y-11609531D02*
X19286553Y-11638103D01*
X19286553Y-11638103D02*
X19277030Y-11676198D01*
X19277030Y-11676198D02*
X19277030Y-11752388D01*
X19277030Y-11752388D02*
X19286553Y-11771436D01*
X19286553Y-11771436D02*
X19296077Y-11780960D01*
X19296077Y-11780960D02*
X19315125Y-11790484D01*
X19315125Y-11790484D02*
X19353220Y-11790484D01*
X19353220Y-11790484D02*
X19372268Y-11780960D01*
X19372268Y-11780960D02*
X19381791Y-11771436D01*
X19381791Y-11771436D02*
X19391315Y-11752388D01*
X19391315Y-11752388D02*
X19391315Y-11704769D01*
X19391315Y-11704769D02*
X19381791Y-11685722D01*
X19381791Y-11685722D02*
X19372268Y-11676198D01*
X19372268Y-11676198D02*
X19353220Y-11666674D01*
X19353220Y-11666674D02*
X19315125Y-11666674D01*
X19315125Y-11666674D02*
X19296077Y-11676198D01*
X19296077Y-11676198D02*
X19286553Y-11685722D01*
X19286553Y-11685722D02*
X19277030Y-11704769D01*
X19457982Y-11590484D02*
X19581791Y-11590484D01*
X19581791Y-11590484D02*
X19515125Y-11666674D01*
X19515125Y-11666674D02*
X19543696Y-11666674D01*
X19543696Y-11666674D02*
X19562744Y-11676198D01*
X19562744Y-11676198D02*
X19572268Y-11685722D01*
X19572268Y-11685722D02*
X19581791Y-11704769D01*
X19581791Y-11704769D02*
X19581791Y-11752388D01*
X19581791Y-11752388D02*
X19572268Y-11771436D01*
X19572268Y-11771436D02*
X19562744Y-11780960D01*
X19562744Y-11780960D02*
X19543696Y-11790484D01*
X19543696Y-11790484D02*
X19486553Y-11790484D01*
X19486553Y-11790484D02*
X19467506Y-11780960D01*
X19467506Y-11780960D02*
X19457982Y-11771436D01*
X19819887Y-11790484D02*
X19819887Y-11590484D01*
X19905601Y-11790484D02*
X19905601Y-11685722D01*
X19905601Y-11685722D02*
X19896077Y-11666674D01*
X19896077Y-11666674D02*
X19877030Y-11657150D01*
X19877030Y-11657150D02*
X19848458Y-11657150D01*
X19848458Y-11657150D02*
X19829411Y-11666674D01*
X19829411Y-11666674D02*
X19819887Y-11676198D01*
X20029411Y-11790484D02*
X20010363Y-11780960D01*
X20010363Y-11780960D02*
X20000839Y-11771436D01*
X20000839Y-11771436D02*
X19991315Y-11752388D01*
X19991315Y-11752388D02*
X19991315Y-11695246D01*
X19991315Y-11695246D02*
X20000839Y-11676198D01*
X20000839Y-11676198D02*
X20010363Y-11666674D01*
X20010363Y-11666674D02*
X20029411Y-11657150D01*
X20029411Y-11657150D02*
X20057982Y-11657150D01*
X20057982Y-11657150D02*
X20077030Y-11666674D01*
X20077030Y-11666674D02*
X20086553Y-11676198D01*
X20086553Y-11676198D02*
X20096077Y-11695246D01*
X20096077Y-11695246D02*
X20096077Y-11752388D01*
X20096077Y-11752388D02*
X20086553Y-11771436D01*
X20086553Y-11771436D02*
X20077030Y-11780960D01*
X20077030Y-11780960D02*
X20057982Y-11790484D01*
X20057982Y-11790484D02*
X20029411Y-11790484D01*
X20210363Y-11790484D02*
X20191315Y-11780960D01*
X20191315Y-11780960D02*
X20181792Y-11761912D01*
X20181792Y-11761912D02*
X20181792Y-11590484D01*
X20362744Y-11780960D02*
X20343696Y-11790484D01*
X20343696Y-11790484D02*
X20305601Y-11790484D01*
X20305601Y-11790484D02*
X20286553Y-11780960D01*
X20286553Y-11780960D02*
X20277030Y-11761912D01*
X20277030Y-11761912D02*
X20277030Y-11685722D01*
X20277030Y-11685722D02*
X20286553Y-11666674D01*
X20286553Y-11666674D02*
X20305601Y-11657150D01*
X20305601Y-11657150D02*
X20343696Y-11657150D01*
X20343696Y-11657150D02*
X20362744Y-11666674D01*
X20362744Y-11666674D02*
X20372268Y-11685722D01*
X20372268Y-11685722D02*
X20372268Y-11704769D01*
X20372268Y-11704769D02*
X20277030Y-11723817D01*
X20448458Y-11780960D02*
X20467506Y-11790484D01*
X20467506Y-11790484D02*
X20505601Y-11790484D01*
X20505601Y-11790484D02*
X20524649Y-11780960D01*
X20524649Y-11780960D02*
X20534173Y-11761912D01*
X20534173Y-11761912D02*
X20534173Y-11752388D01*
X20534173Y-11752388D02*
X20524649Y-11733341D01*
X20524649Y-11733341D02*
X20505601Y-11723817D01*
X20505601Y-11723817D02*
X20477030Y-11723817D01*
X20477030Y-11723817D02*
X20457982Y-11714293D01*
X20457982Y-11714293D02*
X20448458Y-11695246D01*
X20448458Y-11695246D02*
X20448458Y-11685722D01*
X20448458Y-11685722D02*
X20457982Y-11666674D01*
X20457982Y-11666674D02*
X20477030Y-11657150D01*
X20477030Y-11657150D02*
X20505601Y-11657150D01*
X20505601Y-11657150D02*
X20524649Y-11666674D01*
X20600839Y-11866674D02*
X20610363Y-11857150D01*
X20610363Y-11857150D02*
X20629411Y-11828579D01*
X20629411Y-11828579D02*
X20638934Y-11809531D01*
X20638934Y-11809531D02*
X20648458Y-11780960D01*
X20648458Y-11780960D02*
X20657982Y-11733341D01*
X20657982Y-11733341D02*
X20657982Y-11695246D01*
X20657982Y-11695246D02*
X20648458Y-11647627D01*
X20648458Y-11647627D02*
X20638934Y-11619055D01*
X20638934Y-11619055D02*
X20629411Y-11600008D01*
X20629411Y-11600008D02*
X20610363Y-11571436D01*
X20610363Y-11571436D02*
X20600839Y-11561912D01*
D10*
X15620656Y-11998356D02*
X15620656Y-11927644D01*
X15549944Y-11927644D01*
X15549944Y-11998356D01*
X15620656Y-11998356D01*
D11*
X16000839Y-12054484D02*
X15886553Y-12054484D01*
X15943696Y-12054484D02*
X15943696Y-11854484D01*
X15943696Y-11854484D02*
X15924648Y-11883055D01*
X15924648Y-11883055D02*
X15905601Y-11902103D01*
X15905601Y-11902103D02*
X15886553Y-11911627D01*
X16086553Y-12035436D02*
X16096077Y-12044960D01*
X16096077Y-12044960D02*
X16086553Y-12054484D01*
X16086553Y-12054484D02*
X16077029Y-12044960D01*
X16077029Y-12044960D02*
X16086553Y-12035436D01*
X16086553Y-12035436D02*
X16086553Y-12054484D01*
X16219886Y-11854484D02*
X16238934Y-11854484D01*
X16238934Y-11854484D02*
X16257982Y-11864008D01*
X16257982Y-11864008D02*
X16267505Y-11873531D01*
X16267505Y-11873531D02*
X16277029Y-11892579D01*
X16277029Y-11892579D02*
X16286553Y-11930674D01*
X16286553Y-11930674D02*
X16286553Y-11978293D01*
X16286553Y-11978293D02*
X16277029Y-12016388D01*
X16277029Y-12016388D02*
X16267505Y-12035436D01*
X16267505Y-12035436D02*
X16257982Y-12044960D01*
X16257982Y-12044960D02*
X16238934Y-12054484D01*
X16238934Y-12054484D02*
X16219886Y-12054484D01*
X16219886Y-12054484D02*
X16200839Y-12044960D01*
X16200839Y-12044960D02*
X16191315Y-12035436D01*
X16191315Y-12035436D02*
X16181791Y-12016388D01*
X16181791Y-12016388D02*
X16172267Y-11978293D01*
X16172267Y-11978293D02*
X16172267Y-11930674D01*
X16172267Y-11930674D02*
X16181791Y-11892579D01*
X16181791Y-11892579D02*
X16191315Y-11873531D01*
X16191315Y-11873531D02*
X16200839Y-11864008D01*
X16200839Y-11864008D02*
X16219886Y-11854484D01*
X16410362Y-11854484D02*
X16429410Y-11854484D01*
X16429410Y-11854484D02*
X16448458Y-11864008D01*
X16448458Y-11864008D02*
X16457982Y-11873531D01*
X16457982Y-11873531D02*
X16467505Y-11892579D01*
X16467505Y-11892579D02*
X16477029Y-11930674D01*
X16477029Y-11930674D02*
X16477029Y-11978293D01*
X16477029Y-11978293D02*
X16467505Y-12016388D01*
X16467505Y-12016388D02*
X16457982Y-12035436D01*
X16457982Y-12035436D02*
X16448458Y-12044960D01*
X16448458Y-12044960D02*
X16429410Y-12054484D01*
X16429410Y-12054484D02*
X16410362Y-12054484D01*
X16410362Y-12054484D02*
X16391315Y-12044960D01*
X16391315Y-12044960D02*
X16381791Y-12035436D01*
X16381791Y-12035436D02*
X16372267Y-12016388D01*
X16372267Y-12016388D02*
X16362743Y-11978293D01*
X16362743Y-11978293D02*
X16362743Y-11930674D01*
X16362743Y-11930674D02*
X16372267Y-11892579D01*
X16372267Y-11892579D02*
X16381791Y-11873531D01*
X16381791Y-11873531D02*
X16391315Y-11864008D01*
X16391315Y-11864008D02*
X16410362Y-11854484D01*
X16600839Y-11854484D02*
X16619886Y-11854484D01*
X16619886Y-11854484D02*
X16638934Y-11864008D01*
X16638934Y-11864008D02*
X16648458Y-11873531D01*
X16648458Y-11873531D02*
X16657982Y-11892579D01*
X16657982Y-11892579D02*
X16667505Y-11930674D01*
X16667505Y-11930674D02*
X16667505Y-11978293D01*
X16667505Y-11978293D02*
X16657982Y-12016388D01*
X16657982Y-12016388D02*
X16648458Y-12035436D01*
X16648458Y-12035436D02*
X16638934Y-12044960D01*
X16638934Y-12044960D02*
X16619886Y-12054484D01*
X16619886Y-12054484D02*
X16600839Y-12054484D01*
X16600839Y-12054484D02*
X16581791Y-12044960D01*
X16581791Y-12044960D02*
X16572267Y-12035436D01*
X16572267Y-12035436D02*
X16562743Y-12016388D01*
X16562743Y-12016388D02*
X16553220Y-11978293D01*
X16553220Y-11978293D02*
X16553220Y-11930674D01*
X16553220Y-11930674D02*
X16562743Y-11892579D01*
X16562743Y-11892579D02*
X16572267Y-11873531D01*
X16572267Y-11873531D02*
X16581791Y-11864008D01*
X16581791Y-11864008D02*
X16600839Y-11854484D01*
X16753220Y-12054484D02*
X16753220Y-11921150D01*
X16753220Y-11940198D02*
X16762743Y-11930674D01*
X16762743Y-11930674D02*
X16781791Y-11921150D01*
X16781791Y-11921150D02*
X16810363Y-11921150D01*
X16810363Y-11921150D02*
X16829410Y-11930674D01*
X16829410Y-11930674D02*
X16838934Y-11949722D01*
X16838934Y-11949722D02*
X16838934Y-12054484D01*
X16838934Y-11949722D02*
X16848458Y-11930674D01*
X16848458Y-11930674D02*
X16867505Y-11921150D01*
X16867505Y-11921150D02*
X16896077Y-11921150D01*
X16896077Y-11921150D02*
X16915125Y-11930674D01*
X16915125Y-11930674D02*
X16924648Y-11949722D01*
X16924648Y-11949722D02*
X16924648Y-12054484D01*
X17019886Y-12054484D02*
X17019886Y-11921150D01*
X17019886Y-11940198D02*
X17029410Y-11930674D01*
X17029410Y-11930674D02*
X17048458Y-11921150D01*
X17048458Y-11921150D02*
X17077029Y-11921150D01*
X17077029Y-11921150D02*
X17096077Y-11930674D01*
X17096077Y-11930674D02*
X17105601Y-11949722D01*
X17105601Y-11949722D02*
X17105601Y-12054484D01*
X17105601Y-11949722D02*
X17115125Y-11930674D01*
X17115125Y-11930674D02*
X17134172Y-11921150D01*
X17134172Y-11921150D02*
X17162744Y-11921150D01*
X17162744Y-11921150D02*
X17181791Y-11930674D01*
X17181791Y-11930674D02*
X17191315Y-11949722D01*
X17191315Y-11949722D02*
X17191315Y-12054484D01*
X17581791Y-11844960D02*
X17410363Y-12102103D01*
X17838934Y-11854484D02*
X17857982Y-11854484D01*
X17857982Y-11854484D02*
X17877029Y-11864008D01*
X17877029Y-11864008D02*
X17886553Y-11873531D01*
X17886553Y-11873531D02*
X17896077Y-11892579D01*
X17896077Y-11892579D02*
X17905601Y-11930674D01*
X17905601Y-11930674D02*
X17905601Y-11978293D01*
X17905601Y-11978293D02*
X17896077Y-12016388D01*
X17896077Y-12016388D02*
X17886553Y-12035436D01*
X17886553Y-12035436D02*
X17877029Y-12044960D01*
X17877029Y-12044960D02*
X17857982Y-12054484D01*
X17857982Y-12054484D02*
X17838934Y-12054484D01*
X17838934Y-12054484D02*
X17819887Y-12044960D01*
X17819887Y-12044960D02*
X17810363Y-12035436D01*
X17810363Y-12035436D02*
X17800839Y-12016388D01*
X17800839Y-12016388D02*
X17791315Y-11978293D01*
X17791315Y-11978293D02*
X17791315Y-11930674D01*
X17791315Y-11930674D02*
X17800839Y-11892579D01*
X17800839Y-11892579D02*
X17810363Y-11873531D01*
X17810363Y-11873531D02*
X17819887Y-11864008D01*
X17819887Y-11864008D02*
X17838934Y-11854484D01*
X17991315Y-12035436D02*
X18000839Y-12044960D01*
X18000839Y-12044960D02*
X17991315Y-12054484D01*
X17991315Y-12054484D02*
X17981791Y-12044960D01*
X17981791Y-12044960D02*
X17991315Y-12035436D01*
X17991315Y-12035436D02*
X17991315Y-12054484D01*
X18124648Y-11854484D02*
X18143696Y-11854484D01*
X18143696Y-11854484D02*
X18162744Y-11864008D01*
X18162744Y-11864008D02*
X18172268Y-11873531D01*
X18172268Y-11873531D02*
X18181791Y-11892579D01*
X18181791Y-11892579D02*
X18191315Y-11930674D01*
X18191315Y-11930674D02*
X18191315Y-11978293D01*
X18191315Y-11978293D02*
X18181791Y-12016388D01*
X18181791Y-12016388D02*
X18172268Y-12035436D01*
X18172268Y-12035436D02*
X18162744Y-12044960D01*
X18162744Y-12044960D02*
X18143696Y-12054484D01*
X18143696Y-12054484D02*
X18124648Y-12054484D01*
X18124648Y-12054484D02*
X18105601Y-12044960D01*
X18105601Y-12044960D02*
X18096077Y-12035436D01*
X18096077Y-12035436D02*
X18086553Y-12016388D01*
X18086553Y-12016388D02*
X18077029Y-11978293D01*
X18077029Y-11978293D02*
X18077029Y-11930674D01*
X18077029Y-11930674D02*
X18086553Y-11892579D01*
X18086553Y-11892579D02*
X18096077Y-11873531D01*
X18096077Y-11873531D02*
X18105601Y-11864008D01*
X18105601Y-11864008D02*
X18124648Y-11854484D01*
X18257982Y-11854484D02*
X18381791Y-11854484D01*
X18381791Y-11854484D02*
X18315125Y-11930674D01*
X18315125Y-11930674D02*
X18343696Y-11930674D01*
X18343696Y-11930674D02*
X18362744Y-11940198D01*
X18362744Y-11940198D02*
X18372268Y-11949722D01*
X18372268Y-11949722D02*
X18381791Y-11968769D01*
X18381791Y-11968769D02*
X18381791Y-12016388D01*
X18381791Y-12016388D02*
X18372268Y-12035436D01*
X18372268Y-12035436D02*
X18362744Y-12044960D01*
X18362744Y-12044960D02*
X18343696Y-12054484D01*
X18343696Y-12054484D02*
X18286553Y-12054484D01*
X18286553Y-12054484D02*
X18267506Y-12044960D01*
X18267506Y-12044960D02*
X18257982Y-12035436D01*
X18477029Y-12054484D02*
X18515125Y-12054484D01*
X18515125Y-12054484D02*
X18534172Y-12044960D01*
X18534172Y-12044960D02*
X18543696Y-12035436D01*
X18543696Y-12035436D02*
X18562744Y-12006865D01*
X18562744Y-12006865D02*
X18572268Y-11968769D01*
X18572268Y-11968769D02*
X18572268Y-11892579D01*
X18572268Y-11892579D02*
X18562744Y-11873531D01*
X18562744Y-11873531D02*
X18553220Y-11864008D01*
X18553220Y-11864008D02*
X18534172Y-11854484D01*
X18534172Y-11854484D02*
X18496077Y-11854484D01*
X18496077Y-11854484D02*
X18477029Y-11864008D01*
X18477029Y-11864008D02*
X18467506Y-11873531D01*
X18467506Y-11873531D02*
X18457982Y-11892579D01*
X18457982Y-11892579D02*
X18457982Y-11940198D01*
X18457982Y-11940198D02*
X18467506Y-11959246D01*
X18467506Y-11959246D02*
X18477029Y-11968769D01*
X18477029Y-11968769D02*
X18496077Y-11978293D01*
X18496077Y-11978293D02*
X18534172Y-11978293D01*
X18534172Y-11978293D02*
X18553220Y-11968769D01*
X18553220Y-11968769D02*
X18562744Y-11959246D01*
X18562744Y-11959246D02*
X18572268Y-11940198D01*
X18743696Y-11921150D02*
X18743696Y-12054484D01*
X18696077Y-11844960D02*
X18648458Y-11987817D01*
X18648458Y-11987817D02*
X18772268Y-11987817D01*
X18838934Y-11854484D02*
X18838934Y-11892579D01*
X18915125Y-11854484D02*
X18915125Y-11892579D01*
X19210363Y-12130674D02*
X19200839Y-12121150D01*
X19200839Y-12121150D02*
X19181791Y-12092579D01*
X19181791Y-12092579D02*
X19172268Y-12073531D01*
X19172268Y-12073531D02*
X19162744Y-12044960D01*
X19162744Y-12044960D02*
X19153220Y-11997341D01*
X19153220Y-11997341D02*
X19153220Y-11959246D01*
X19153220Y-11959246D02*
X19162744Y-11911627D01*
X19162744Y-11911627D02*
X19172268Y-11883055D01*
X19172268Y-11883055D02*
X19181791Y-11864008D01*
X19181791Y-11864008D02*
X19200839Y-11835436D01*
X19200839Y-11835436D02*
X19210363Y-11825912D01*
X19277030Y-11873531D02*
X19286553Y-11864008D01*
X19286553Y-11864008D02*
X19305601Y-11854484D01*
X19305601Y-11854484D02*
X19353220Y-11854484D01*
X19353220Y-11854484D02*
X19372268Y-11864008D01*
X19372268Y-11864008D02*
X19381791Y-11873531D01*
X19381791Y-11873531D02*
X19391315Y-11892579D01*
X19391315Y-11892579D02*
X19391315Y-11911627D01*
X19391315Y-11911627D02*
X19381791Y-11940198D01*
X19381791Y-11940198D02*
X19267506Y-12054484D01*
X19267506Y-12054484D02*
X19391315Y-12054484D01*
X19581791Y-12054484D02*
X19467506Y-12054484D01*
X19524649Y-12054484D02*
X19524649Y-11854484D01*
X19524649Y-11854484D02*
X19505601Y-11883055D01*
X19505601Y-11883055D02*
X19486553Y-11902103D01*
X19486553Y-11902103D02*
X19467506Y-11911627D01*
X19705601Y-11854484D02*
X19724649Y-11854484D01*
X19724649Y-11854484D02*
X19743696Y-11864008D01*
X19743696Y-11864008D02*
X19753220Y-11873531D01*
X19753220Y-11873531D02*
X19762744Y-11892579D01*
X19762744Y-11892579D02*
X19772268Y-11930674D01*
X19772268Y-11930674D02*
X19772268Y-11978293D01*
X19772268Y-11978293D02*
X19762744Y-12016388D01*
X19762744Y-12016388D02*
X19753220Y-12035436D01*
X19753220Y-12035436D02*
X19743696Y-12044960D01*
X19743696Y-12044960D02*
X19724649Y-12054484D01*
X19724649Y-12054484D02*
X19705601Y-12054484D01*
X19705601Y-12054484D02*
X19686553Y-12044960D01*
X19686553Y-12044960D02*
X19677030Y-12035436D01*
X19677030Y-12035436D02*
X19667506Y-12016388D01*
X19667506Y-12016388D02*
X19657982Y-11978293D01*
X19657982Y-11978293D02*
X19657982Y-11930674D01*
X19657982Y-11930674D02*
X19667506Y-11892579D01*
X19667506Y-11892579D02*
X19677030Y-11873531D01*
X19677030Y-11873531D02*
X19686553Y-11864008D01*
X19686553Y-11864008D02*
X19705601Y-11854484D01*
X20010363Y-12054484D02*
X20010363Y-11854484D01*
X20096077Y-12054484D02*
X20096077Y-11949722D01*
X20096077Y-11949722D02*
X20086553Y-11930674D01*
X20086553Y-11930674D02*
X20067506Y-11921150D01*
X20067506Y-11921150D02*
X20038934Y-11921150D01*
X20038934Y-11921150D02*
X20019887Y-11930674D01*
X20019887Y-11930674D02*
X20010363Y-11940198D01*
X20219887Y-12054484D02*
X20200839Y-12044960D01*
X20200839Y-12044960D02*
X20191315Y-12035436D01*
X20191315Y-12035436D02*
X20181792Y-12016388D01*
X20181792Y-12016388D02*
X20181792Y-11959246D01*
X20181792Y-11959246D02*
X20191315Y-11940198D01*
X20191315Y-11940198D02*
X20200839Y-11930674D01*
X20200839Y-11930674D02*
X20219887Y-11921150D01*
X20219887Y-11921150D02*
X20248458Y-11921150D01*
X20248458Y-11921150D02*
X20267506Y-11930674D01*
X20267506Y-11930674D02*
X20277030Y-11940198D01*
X20277030Y-11940198D02*
X20286553Y-11959246D01*
X20286553Y-11959246D02*
X20286553Y-12016388D01*
X20286553Y-12016388D02*
X20277030Y-12035436D01*
X20277030Y-12035436D02*
X20267506Y-12044960D01*
X20267506Y-12044960D02*
X20248458Y-12054484D01*
X20248458Y-12054484D02*
X20219887Y-12054484D01*
X20400839Y-12054484D02*
X20381792Y-12044960D01*
X20381792Y-12044960D02*
X20372268Y-12025912D01*
X20372268Y-12025912D02*
X20372268Y-11854484D01*
X20553220Y-12044960D02*
X20534173Y-12054484D01*
X20534173Y-12054484D02*
X20496077Y-12054484D01*
X20496077Y-12054484D02*
X20477030Y-12044960D01*
X20477030Y-12044960D02*
X20467506Y-12025912D01*
X20467506Y-12025912D02*
X20467506Y-11949722D01*
X20467506Y-11949722D02*
X20477030Y-11930674D01*
X20477030Y-11930674D02*
X20496077Y-11921150D01*
X20496077Y-11921150D02*
X20534173Y-11921150D01*
X20534173Y-11921150D02*
X20553220Y-11930674D01*
X20553220Y-11930674D02*
X20562744Y-11949722D01*
X20562744Y-11949722D02*
X20562744Y-11968769D01*
X20562744Y-11968769D02*
X20467506Y-11987817D01*
X20638934Y-12044960D02*
X20657982Y-12054484D01*
X20657982Y-12054484D02*
X20696077Y-12054484D01*
X20696077Y-12054484D02*
X20715125Y-12044960D01*
X20715125Y-12044960D02*
X20724649Y-12025912D01*
X20724649Y-12025912D02*
X20724649Y-12016388D01*
X20724649Y-12016388D02*
X20715125Y-11997341D01*
X20715125Y-11997341D02*
X20696077Y-11987817D01*
X20696077Y-11987817D02*
X20667506Y-11987817D01*
X20667506Y-11987817D02*
X20648458Y-11978293D01*
X20648458Y-11978293D02*
X20638934Y-11959246D01*
X20638934Y-11959246D02*
X20638934Y-11949722D01*
X20638934Y-11949722D02*
X20648458Y-11930674D01*
X20648458Y-11930674D02*
X20667506Y-11921150D01*
X20667506Y-11921150D02*
X20696077Y-11921150D01*
X20696077Y-11921150D02*
X20715125Y-11930674D01*
X20791315Y-12130674D02*
X20800839Y-12121150D01*
X20800839Y-12121150D02*
X20819887Y-12092579D01*
X20819887Y-12092579D02*
X20829411Y-12073531D01*
X20829411Y-12073531D02*
X20838934Y-12044960D01*
X20838934Y-12044960D02*
X20848458Y-11997341D01*
X20848458Y-11997341D02*
X20848458Y-11959246D01*
X20848458Y-11959246D02*
X20838934Y-11911627D01*
X20838934Y-11911627D02*
X20829411Y-11883055D01*
X20829411Y-11883055D02*
X20819887Y-11864008D01*
X20819887Y-11864008D02*
X20800839Y-11835436D01*
X20800839Y-11835436D02*
X20791315Y-11825912D01*
X21153220Y-12130674D02*
X21143696Y-12121150D01*
X21143696Y-12121150D02*
X21124649Y-12092579D01*
X21124649Y-12092579D02*
X21115125Y-12073531D01*
X21115125Y-12073531D02*
X21105601Y-12044960D01*
X21105601Y-12044960D02*
X21096077Y-11997341D01*
X21096077Y-11997341D02*
X21096077Y-11959246D01*
X21096077Y-11959246D02*
X21105601Y-11911627D01*
X21105601Y-11911627D02*
X21115125Y-11883055D01*
X21115125Y-11883055D02*
X21124649Y-11864008D01*
X21124649Y-11864008D02*
X21143696Y-11835436D01*
X21143696Y-11835436D02*
X21153220Y-11825912D01*
X21229411Y-11921150D02*
X21229411Y-12054484D01*
X21229411Y-11940198D02*
X21238934Y-11930674D01*
X21238934Y-11930674D02*
X21257982Y-11921150D01*
X21257982Y-11921150D02*
X21286554Y-11921150D01*
X21286554Y-11921150D02*
X21305601Y-11930674D01*
X21305601Y-11930674D02*
X21315125Y-11949722D01*
X21315125Y-11949722D02*
X21315125Y-12054484D01*
X21438934Y-12054484D02*
X21419887Y-12044960D01*
X21419887Y-12044960D02*
X21410363Y-12035436D01*
X21410363Y-12035436D02*
X21400839Y-12016388D01*
X21400839Y-12016388D02*
X21400839Y-11959246D01*
X21400839Y-11959246D02*
X21410363Y-11940198D01*
X21410363Y-11940198D02*
X21419887Y-11930674D01*
X21419887Y-11930674D02*
X21438934Y-11921150D01*
X21438934Y-11921150D02*
X21467506Y-11921150D01*
X21467506Y-11921150D02*
X21486554Y-11930674D01*
X21486554Y-11930674D02*
X21496077Y-11940198D01*
X21496077Y-11940198D02*
X21505601Y-11959246D01*
X21505601Y-11959246D02*
X21505601Y-12016388D01*
X21505601Y-12016388D02*
X21496077Y-12035436D01*
X21496077Y-12035436D02*
X21486554Y-12044960D01*
X21486554Y-12044960D02*
X21467506Y-12054484D01*
X21467506Y-12054484D02*
X21438934Y-12054484D01*
X21562744Y-11921150D02*
X21638934Y-11921150D01*
X21591315Y-11854484D02*
X21591315Y-12025912D01*
X21591315Y-12025912D02*
X21600839Y-12044960D01*
X21600839Y-12044960D02*
X21619887Y-12054484D01*
X21619887Y-12054484D02*
X21638934Y-12054484D01*
X21857982Y-11921150D02*
X21857982Y-12121150D01*
X21857982Y-11930674D02*
X21877030Y-11921150D01*
X21877030Y-11921150D02*
X21915125Y-11921150D01*
X21915125Y-11921150D02*
X21934173Y-11930674D01*
X21934173Y-11930674D02*
X21943696Y-11940198D01*
X21943696Y-11940198D02*
X21953220Y-11959246D01*
X21953220Y-11959246D02*
X21953220Y-12016388D01*
X21953220Y-12016388D02*
X21943696Y-12035436D01*
X21943696Y-12035436D02*
X21934173Y-12044960D01*
X21934173Y-12044960D02*
X21915125Y-12054484D01*
X21915125Y-12054484D02*
X21877030Y-12054484D01*
X21877030Y-12054484D02*
X21857982Y-12044960D01*
X22067506Y-12054484D02*
X22048458Y-12044960D01*
X22048458Y-12044960D02*
X22038935Y-12025912D01*
X22038935Y-12025912D02*
X22038935Y-11854484D01*
X22229411Y-12054484D02*
X22229411Y-11949722D01*
X22229411Y-11949722D02*
X22219887Y-11930674D01*
X22219887Y-11930674D02*
X22200839Y-11921150D01*
X22200839Y-11921150D02*
X22162744Y-11921150D01*
X22162744Y-11921150D02*
X22143696Y-11930674D01*
X22229411Y-12044960D02*
X22210363Y-12054484D01*
X22210363Y-12054484D02*
X22162744Y-12054484D01*
X22162744Y-12054484D02*
X22143696Y-12044960D01*
X22143696Y-12044960D02*
X22134173Y-12025912D01*
X22134173Y-12025912D02*
X22134173Y-12006865D01*
X22134173Y-12006865D02*
X22143696Y-11987817D01*
X22143696Y-11987817D02*
X22162744Y-11978293D01*
X22162744Y-11978293D02*
X22210363Y-11978293D01*
X22210363Y-11978293D02*
X22229411Y-11968769D01*
X22296077Y-11921150D02*
X22372268Y-11921150D01*
X22324649Y-11854484D02*
X22324649Y-12025912D01*
X22324649Y-12025912D02*
X22334173Y-12044960D01*
X22334173Y-12044960D02*
X22353220Y-12054484D01*
X22353220Y-12054484D02*
X22372268Y-12054484D01*
X22515125Y-12044960D02*
X22496077Y-12054484D01*
X22496077Y-12054484D02*
X22457982Y-12054484D01*
X22457982Y-12054484D02*
X22438934Y-12044960D01*
X22438934Y-12044960D02*
X22429411Y-12025912D01*
X22429411Y-12025912D02*
X22429411Y-11949722D01*
X22429411Y-11949722D02*
X22438934Y-11930674D01*
X22438934Y-11930674D02*
X22457982Y-11921150D01*
X22457982Y-11921150D02*
X22496077Y-11921150D01*
X22496077Y-11921150D02*
X22515125Y-11930674D01*
X22515125Y-11930674D02*
X22524649Y-11949722D01*
X22524649Y-11949722D02*
X22524649Y-11968769D01*
X22524649Y-11968769D02*
X22429411Y-11987817D01*
X22696077Y-12054484D02*
X22696077Y-11854484D01*
X22696077Y-12044960D02*
X22677030Y-12054484D01*
X22677030Y-12054484D02*
X22638934Y-12054484D01*
X22638934Y-12054484D02*
X22619887Y-12044960D01*
X22619887Y-12044960D02*
X22610363Y-12035436D01*
X22610363Y-12035436D02*
X22600839Y-12016388D01*
X22600839Y-12016388D02*
X22600839Y-11959246D01*
X22600839Y-11959246D02*
X22610363Y-11940198D01*
X22610363Y-11940198D02*
X22619887Y-11930674D01*
X22619887Y-11930674D02*
X22638934Y-11921150D01*
X22638934Y-11921150D02*
X22677030Y-11921150D01*
X22677030Y-11921150D02*
X22696077Y-11930674D01*
X22772268Y-12130674D02*
X22781792Y-12121150D01*
X22781792Y-12121150D02*
X22800839Y-12092579D01*
X22800839Y-12092579D02*
X22810363Y-12073531D01*
X22810363Y-12073531D02*
X22819887Y-12044960D01*
X22819887Y-12044960D02*
X22829411Y-11997341D01*
X22829411Y-11997341D02*
X22829411Y-11959246D01*
X22829411Y-11959246D02*
X22819887Y-11911627D01*
X22819887Y-11911627D02*
X22810363Y-11883055D01*
X22810363Y-11883055D02*
X22800839Y-11864008D01*
X22800839Y-11864008D02*
X22781792Y-11835436D01*
X22781792Y-11835436D02*
X22772268Y-11825912D01*
X15535300Y-12327000D02*
X15635300Y-12227000D01*
X15535300Y-12127000D01*
X15435300Y-12227000D01*
X15535300Y-12327000D01*
X15877029Y-12118484D02*
X16000839Y-12118484D01*
X16000839Y-12118484D02*
X15934172Y-12194674D01*
X15934172Y-12194674D02*
X15962743Y-12194674D01*
X15962743Y-12194674D02*
X15981791Y-12204198D01*
X15981791Y-12204198D02*
X15991315Y-12213722D01*
X15991315Y-12213722D02*
X16000839Y-12232769D01*
X16000839Y-12232769D02*
X16000839Y-12280388D01*
X16000839Y-12280388D02*
X15991315Y-12299436D01*
X15991315Y-12299436D02*
X15981791Y-12308960D01*
X15981791Y-12308960D02*
X15962743Y-12318484D01*
X15962743Y-12318484D02*
X15905601Y-12318484D01*
X15905601Y-12318484D02*
X15886553Y-12308960D01*
X15886553Y-12308960D02*
X15877029Y-12299436D01*
X16086553Y-12299436D02*
X16096077Y-12308960D01*
X16096077Y-12308960D02*
X16086553Y-12318484D01*
X16086553Y-12318484D02*
X16077029Y-12308960D01*
X16077029Y-12308960D02*
X16086553Y-12299436D01*
X16086553Y-12299436D02*
X16086553Y-12318484D01*
X16172267Y-12137531D02*
X16181791Y-12128008D01*
X16181791Y-12128008D02*
X16200839Y-12118484D01*
X16200839Y-12118484D02*
X16248458Y-12118484D01*
X16248458Y-12118484D02*
X16267505Y-12128008D01*
X16267505Y-12128008D02*
X16277029Y-12137531D01*
X16277029Y-12137531D02*
X16286553Y-12156579D01*
X16286553Y-12156579D02*
X16286553Y-12175627D01*
X16286553Y-12175627D02*
X16277029Y-12204198D01*
X16277029Y-12204198D02*
X16162743Y-12318484D01*
X16162743Y-12318484D02*
X16286553Y-12318484D01*
X16410362Y-12118484D02*
X16429410Y-12118484D01*
X16429410Y-12118484D02*
X16448458Y-12128008D01*
X16448458Y-12128008D02*
X16457982Y-12137531D01*
X16457982Y-12137531D02*
X16467505Y-12156579D01*
X16467505Y-12156579D02*
X16477029Y-12194674D01*
X16477029Y-12194674D02*
X16477029Y-12242293D01*
X16477029Y-12242293D02*
X16467505Y-12280388D01*
X16467505Y-12280388D02*
X16457982Y-12299436D01*
X16457982Y-12299436D02*
X16448458Y-12308960D01*
X16448458Y-12308960D02*
X16429410Y-12318484D01*
X16429410Y-12318484D02*
X16410362Y-12318484D01*
X16410362Y-12318484D02*
X16391315Y-12308960D01*
X16391315Y-12308960D02*
X16381791Y-12299436D01*
X16381791Y-12299436D02*
X16372267Y-12280388D01*
X16372267Y-12280388D02*
X16362743Y-12242293D01*
X16362743Y-12242293D02*
X16362743Y-12194674D01*
X16362743Y-12194674D02*
X16372267Y-12156579D01*
X16372267Y-12156579D02*
X16381791Y-12137531D01*
X16381791Y-12137531D02*
X16391315Y-12128008D01*
X16391315Y-12128008D02*
X16410362Y-12118484D01*
X16600839Y-12118484D02*
X16619886Y-12118484D01*
X16619886Y-12118484D02*
X16638934Y-12128008D01*
X16638934Y-12128008D02*
X16648458Y-12137531D01*
X16648458Y-12137531D02*
X16657982Y-12156579D01*
X16657982Y-12156579D02*
X16667505Y-12194674D01*
X16667505Y-12194674D02*
X16667505Y-12242293D01*
X16667505Y-12242293D02*
X16657982Y-12280388D01*
X16657982Y-12280388D02*
X16648458Y-12299436D01*
X16648458Y-12299436D02*
X16638934Y-12308960D01*
X16638934Y-12308960D02*
X16619886Y-12318484D01*
X16619886Y-12318484D02*
X16600839Y-12318484D01*
X16600839Y-12318484D02*
X16581791Y-12308960D01*
X16581791Y-12308960D02*
X16572267Y-12299436D01*
X16572267Y-12299436D02*
X16562743Y-12280388D01*
X16562743Y-12280388D02*
X16553220Y-12242293D01*
X16553220Y-12242293D02*
X16553220Y-12194674D01*
X16553220Y-12194674D02*
X16562743Y-12156579D01*
X16562743Y-12156579D02*
X16572267Y-12137531D01*
X16572267Y-12137531D02*
X16581791Y-12128008D01*
X16581791Y-12128008D02*
X16600839Y-12118484D01*
X16753220Y-12318484D02*
X16753220Y-12185150D01*
X16753220Y-12204198D02*
X16762743Y-12194674D01*
X16762743Y-12194674D02*
X16781791Y-12185150D01*
X16781791Y-12185150D02*
X16810363Y-12185150D01*
X16810363Y-12185150D02*
X16829410Y-12194674D01*
X16829410Y-12194674D02*
X16838934Y-12213722D01*
X16838934Y-12213722D02*
X16838934Y-12318484D01*
X16838934Y-12213722D02*
X16848458Y-12194674D01*
X16848458Y-12194674D02*
X16867505Y-12185150D01*
X16867505Y-12185150D02*
X16896077Y-12185150D01*
X16896077Y-12185150D02*
X16915125Y-12194674D01*
X16915125Y-12194674D02*
X16924648Y-12213722D01*
X16924648Y-12213722D02*
X16924648Y-12318484D01*
X17019886Y-12318484D02*
X17019886Y-12185150D01*
X17019886Y-12204198D02*
X17029410Y-12194674D01*
X17029410Y-12194674D02*
X17048458Y-12185150D01*
X17048458Y-12185150D02*
X17077029Y-12185150D01*
X17077029Y-12185150D02*
X17096077Y-12194674D01*
X17096077Y-12194674D02*
X17105601Y-12213722D01*
X17105601Y-12213722D02*
X17105601Y-12318484D01*
X17105601Y-12213722D02*
X17115125Y-12194674D01*
X17115125Y-12194674D02*
X17134172Y-12185150D01*
X17134172Y-12185150D02*
X17162744Y-12185150D01*
X17162744Y-12185150D02*
X17181791Y-12194674D01*
X17181791Y-12194674D02*
X17191315Y-12213722D01*
X17191315Y-12213722D02*
X17191315Y-12318484D01*
X17581791Y-12108960D02*
X17410363Y-12366103D01*
X17838934Y-12118484D02*
X17857982Y-12118484D01*
X17857982Y-12118484D02*
X17877029Y-12128008D01*
X17877029Y-12128008D02*
X17886553Y-12137531D01*
X17886553Y-12137531D02*
X17896077Y-12156579D01*
X17896077Y-12156579D02*
X17905601Y-12194674D01*
X17905601Y-12194674D02*
X17905601Y-12242293D01*
X17905601Y-12242293D02*
X17896077Y-12280388D01*
X17896077Y-12280388D02*
X17886553Y-12299436D01*
X17886553Y-12299436D02*
X17877029Y-12308960D01*
X17877029Y-12308960D02*
X17857982Y-12318484D01*
X17857982Y-12318484D02*
X17838934Y-12318484D01*
X17838934Y-12318484D02*
X17819887Y-12308960D01*
X17819887Y-12308960D02*
X17810363Y-12299436D01*
X17810363Y-12299436D02*
X17800839Y-12280388D01*
X17800839Y-12280388D02*
X17791315Y-12242293D01*
X17791315Y-12242293D02*
X17791315Y-12194674D01*
X17791315Y-12194674D02*
X17800839Y-12156579D01*
X17800839Y-12156579D02*
X17810363Y-12137531D01*
X17810363Y-12137531D02*
X17819887Y-12128008D01*
X17819887Y-12128008D02*
X17838934Y-12118484D01*
X17991315Y-12299436D02*
X18000839Y-12308960D01*
X18000839Y-12308960D02*
X17991315Y-12318484D01*
X17991315Y-12318484D02*
X17981791Y-12308960D01*
X17981791Y-12308960D02*
X17991315Y-12299436D01*
X17991315Y-12299436D02*
X17991315Y-12318484D01*
X18191315Y-12318484D02*
X18077029Y-12318484D01*
X18134172Y-12318484D02*
X18134172Y-12118484D01*
X18134172Y-12118484D02*
X18115125Y-12147055D01*
X18115125Y-12147055D02*
X18096077Y-12166103D01*
X18096077Y-12166103D02*
X18077029Y-12175627D01*
X18267506Y-12137531D02*
X18277029Y-12128008D01*
X18277029Y-12128008D02*
X18296077Y-12118484D01*
X18296077Y-12118484D02*
X18343696Y-12118484D01*
X18343696Y-12118484D02*
X18362744Y-12128008D01*
X18362744Y-12128008D02*
X18372268Y-12137531D01*
X18372268Y-12137531D02*
X18381791Y-12156579D01*
X18381791Y-12156579D02*
X18381791Y-12175627D01*
X18381791Y-12175627D02*
X18372268Y-12204198D01*
X18372268Y-12204198D02*
X18257982Y-12318484D01*
X18257982Y-12318484D02*
X18381791Y-12318484D01*
X18553220Y-12118484D02*
X18515125Y-12118484D01*
X18515125Y-12118484D02*
X18496077Y-12128008D01*
X18496077Y-12128008D02*
X18486553Y-12137531D01*
X18486553Y-12137531D02*
X18467506Y-12166103D01*
X18467506Y-12166103D02*
X18457982Y-12204198D01*
X18457982Y-12204198D02*
X18457982Y-12280388D01*
X18457982Y-12280388D02*
X18467506Y-12299436D01*
X18467506Y-12299436D02*
X18477029Y-12308960D01*
X18477029Y-12308960D02*
X18496077Y-12318484D01*
X18496077Y-12318484D02*
X18534172Y-12318484D01*
X18534172Y-12318484D02*
X18553220Y-12308960D01*
X18553220Y-12308960D02*
X18562744Y-12299436D01*
X18562744Y-12299436D02*
X18572268Y-12280388D01*
X18572268Y-12280388D02*
X18572268Y-12232769D01*
X18572268Y-12232769D02*
X18562744Y-12213722D01*
X18562744Y-12213722D02*
X18553220Y-12204198D01*
X18553220Y-12204198D02*
X18534172Y-12194674D01*
X18534172Y-12194674D02*
X18496077Y-12194674D01*
X18496077Y-12194674D02*
X18477029Y-12204198D01*
X18477029Y-12204198D02*
X18467506Y-12213722D01*
X18467506Y-12213722D02*
X18457982Y-12232769D01*
X18696077Y-12118484D02*
X18715125Y-12118484D01*
X18715125Y-12118484D02*
X18734172Y-12128008D01*
X18734172Y-12128008D02*
X18743696Y-12137531D01*
X18743696Y-12137531D02*
X18753220Y-12156579D01*
X18753220Y-12156579D02*
X18762744Y-12194674D01*
X18762744Y-12194674D02*
X18762744Y-12242293D01*
X18762744Y-12242293D02*
X18753220Y-12280388D01*
X18753220Y-12280388D02*
X18743696Y-12299436D01*
X18743696Y-12299436D02*
X18734172Y-12308960D01*
X18734172Y-12308960D02*
X18715125Y-12318484D01*
X18715125Y-12318484D02*
X18696077Y-12318484D01*
X18696077Y-12318484D02*
X18677029Y-12308960D01*
X18677029Y-12308960D02*
X18667506Y-12299436D01*
X18667506Y-12299436D02*
X18657982Y-12280388D01*
X18657982Y-12280388D02*
X18648458Y-12242293D01*
X18648458Y-12242293D02*
X18648458Y-12194674D01*
X18648458Y-12194674D02*
X18657982Y-12156579D01*
X18657982Y-12156579D02*
X18667506Y-12137531D01*
X18667506Y-12137531D02*
X18677029Y-12128008D01*
X18677029Y-12128008D02*
X18696077Y-12118484D01*
X18838934Y-12118484D02*
X18838934Y-12156579D01*
X18915125Y-12118484D02*
X18915125Y-12156579D01*
X19210363Y-12394674D02*
X19200839Y-12385150D01*
X19200839Y-12385150D02*
X19181791Y-12356579D01*
X19181791Y-12356579D02*
X19172268Y-12337531D01*
X19172268Y-12337531D02*
X19162744Y-12308960D01*
X19162744Y-12308960D02*
X19153220Y-12261341D01*
X19153220Y-12261341D02*
X19153220Y-12223246D01*
X19153220Y-12223246D02*
X19162744Y-12175627D01*
X19162744Y-12175627D02*
X19172268Y-12147055D01*
X19172268Y-12147055D02*
X19181791Y-12128008D01*
X19181791Y-12128008D02*
X19200839Y-12099436D01*
X19200839Y-12099436D02*
X19210363Y-12089912D01*
X19277030Y-12137531D02*
X19286553Y-12128008D01*
X19286553Y-12128008D02*
X19305601Y-12118484D01*
X19305601Y-12118484D02*
X19353220Y-12118484D01*
X19353220Y-12118484D02*
X19372268Y-12128008D01*
X19372268Y-12128008D02*
X19381791Y-12137531D01*
X19381791Y-12137531D02*
X19391315Y-12156579D01*
X19391315Y-12156579D02*
X19391315Y-12175627D01*
X19391315Y-12175627D02*
X19381791Y-12204198D01*
X19381791Y-12204198D02*
X19267506Y-12318484D01*
X19267506Y-12318484D02*
X19391315Y-12318484D01*
X19629411Y-12318484D02*
X19629411Y-12118484D01*
X19715125Y-12318484D02*
X19715125Y-12213722D01*
X19715125Y-12213722D02*
X19705601Y-12194674D01*
X19705601Y-12194674D02*
X19686553Y-12185150D01*
X19686553Y-12185150D02*
X19657982Y-12185150D01*
X19657982Y-12185150D02*
X19638934Y-12194674D01*
X19638934Y-12194674D02*
X19629411Y-12204198D01*
X19838934Y-12318484D02*
X19819887Y-12308960D01*
X19819887Y-12308960D02*
X19810363Y-12299436D01*
X19810363Y-12299436D02*
X19800839Y-12280388D01*
X19800839Y-12280388D02*
X19800839Y-12223246D01*
X19800839Y-12223246D02*
X19810363Y-12204198D01*
X19810363Y-12204198D02*
X19819887Y-12194674D01*
X19819887Y-12194674D02*
X19838934Y-12185150D01*
X19838934Y-12185150D02*
X19867506Y-12185150D01*
X19867506Y-12185150D02*
X19886553Y-12194674D01*
X19886553Y-12194674D02*
X19896077Y-12204198D01*
X19896077Y-12204198D02*
X19905601Y-12223246D01*
X19905601Y-12223246D02*
X19905601Y-12280388D01*
X19905601Y-12280388D02*
X19896077Y-12299436D01*
X19896077Y-12299436D02*
X19886553Y-12308960D01*
X19886553Y-12308960D02*
X19867506Y-12318484D01*
X19867506Y-12318484D02*
X19838934Y-12318484D01*
X20019887Y-12318484D02*
X20000839Y-12308960D01*
X20000839Y-12308960D02*
X19991315Y-12289912D01*
X19991315Y-12289912D02*
X19991315Y-12118484D01*
X20172268Y-12308960D02*
X20153220Y-12318484D01*
X20153220Y-12318484D02*
X20115125Y-12318484D01*
X20115125Y-12318484D02*
X20096077Y-12308960D01*
X20096077Y-12308960D02*
X20086553Y-12289912D01*
X20086553Y-12289912D02*
X20086553Y-12213722D01*
X20086553Y-12213722D02*
X20096077Y-12194674D01*
X20096077Y-12194674D02*
X20115125Y-12185150D01*
X20115125Y-12185150D02*
X20153220Y-12185150D01*
X20153220Y-12185150D02*
X20172268Y-12194674D01*
X20172268Y-12194674D02*
X20181792Y-12213722D01*
X20181792Y-12213722D02*
X20181792Y-12232769D01*
X20181792Y-12232769D02*
X20086553Y-12251817D01*
X20257982Y-12308960D02*
X20277030Y-12318484D01*
X20277030Y-12318484D02*
X20315125Y-12318484D01*
X20315125Y-12318484D02*
X20334173Y-12308960D01*
X20334173Y-12308960D02*
X20343696Y-12289912D01*
X20343696Y-12289912D02*
X20343696Y-12280388D01*
X20343696Y-12280388D02*
X20334173Y-12261341D01*
X20334173Y-12261341D02*
X20315125Y-12251817D01*
X20315125Y-12251817D02*
X20286553Y-12251817D01*
X20286553Y-12251817D02*
X20267506Y-12242293D01*
X20267506Y-12242293D02*
X20257982Y-12223246D01*
X20257982Y-12223246D02*
X20257982Y-12213722D01*
X20257982Y-12213722D02*
X20267506Y-12194674D01*
X20267506Y-12194674D02*
X20286553Y-12185150D01*
X20286553Y-12185150D02*
X20315125Y-12185150D01*
X20315125Y-12185150D02*
X20334173Y-12194674D01*
X20410363Y-12394674D02*
X20419887Y-12385150D01*
X20419887Y-12385150D02*
X20438934Y-12356579D01*
X20438934Y-12356579D02*
X20448458Y-12337531D01*
X20448458Y-12337531D02*
X20457982Y-12308960D01*
X20457982Y-12308960D02*
X20467506Y-12261341D01*
X20467506Y-12261341D02*
X20467506Y-12223246D01*
X20467506Y-12223246D02*
X20457982Y-12175627D01*
X20457982Y-12175627D02*
X20448458Y-12147055D01*
X20448458Y-12147055D02*
X20438934Y-12128008D01*
X20438934Y-12128008D02*
X20419887Y-12099436D01*
X20419887Y-12099436D02*
X20410363Y-12089912D01*
X20772268Y-12394674D02*
X20762744Y-12385150D01*
X20762744Y-12385150D02*
X20743696Y-12356579D01*
X20743696Y-12356579D02*
X20734173Y-12337531D01*
X20734173Y-12337531D02*
X20724649Y-12308960D01*
X20724649Y-12308960D02*
X20715125Y-12261341D01*
X20715125Y-12261341D02*
X20715125Y-12223246D01*
X20715125Y-12223246D02*
X20724649Y-12175627D01*
X20724649Y-12175627D02*
X20734173Y-12147055D01*
X20734173Y-12147055D02*
X20743696Y-12128008D01*
X20743696Y-12128008D02*
X20762744Y-12099436D01*
X20762744Y-12099436D02*
X20772268Y-12089912D01*
X20848458Y-12185150D02*
X20848458Y-12318484D01*
X20848458Y-12204198D02*
X20857982Y-12194674D01*
X20857982Y-12194674D02*
X20877030Y-12185150D01*
X20877030Y-12185150D02*
X20905601Y-12185150D01*
X20905601Y-12185150D02*
X20924649Y-12194674D01*
X20924649Y-12194674D02*
X20934173Y-12213722D01*
X20934173Y-12213722D02*
X20934173Y-12318484D01*
X21057982Y-12318484D02*
X21038934Y-12308960D01*
X21038934Y-12308960D02*
X21029411Y-12299436D01*
X21029411Y-12299436D02*
X21019887Y-12280388D01*
X21019887Y-12280388D02*
X21019887Y-12223246D01*
X21019887Y-12223246D02*
X21029411Y-12204198D01*
X21029411Y-12204198D02*
X21038934Y-12194674D01*
X21038934Y-12194674D02*
X21057982Y-12185150D01*
X21057982Y-12185150D02*
X21086554Y-12185150D01*
X21086554Y-12185150D02*
X21105601Y-12194674D01*
X21105601Y-12194674D02*
X21115125Y-12204198D01*
X21115125Y-12204198D02*
X21124649Y-12223246D01*
X21124649Y-12223246D02*
X21124649Y-12280388D01*
X21124649Y-12280388D02*
X21115125Y-12299436D01*
X21115125Y-12299436D02*
X21105601Y-12308960D01*
X21105601Y-12308960D02*
X21086554Y-12318484D01*
X21086554Y-12318484D02*
X21057982Y-12318484D01*
X21181792Y-12185150D02*
X21257982Y-12185150D01*
X21210363Y-12118484D02*
X21210363Y-12289912D01*
X21210363Y-12289912D02*
X21219887Y-12308960D01*
X21219887Y-12308960D02*
X21238934Y-12318484D01*
X21238934Y-12318484D02*
X21257982Y-12318484D01*
X21477030Y-12185150D02*
X21477030Y-12385150D01*
X21477030Y-12194674D02*
X21496077Y-12185150D01*
X21496077Y-12185150D02*
X21534173Y-12185150D01*
X21534173Y-12185150D02*
X21553220Y-12194674D01*
X21553220Y-12194674D02*
X21562744Y-12204198D01*
X21562744Y-12204198D02*
X21572268Y-12223246D01*
X21572268Y-12223246D02*
X21572268Y-12280388D01*
X21572268Y-12280388D02*
X21562744Y-12299436D01*
X21562744Y-12299436D02*
X21553220Y-12308960D01*
X21553220Y-12308960D02*
X21534173Y-12318484D01*
X21534173Y-12318484D02*
X21496077Y-12318484D01*
X21496077Y-12318484D02*
X21477030Y-12308960D01*
X21686554Y-12318484D02*
X21667506Y-12308960D01*
X21667506Y-12308960D02*
X21657982Y-12289912D01*
X21657982Y-12289912D02*
X21657982Y-12118484D01*
X21848458Y-12318484D02*
X21848458Y-12213722D01*
X21848458Y-12213722D02*
X21838935Y-12194674D01*
X21838935Y-12194674D02*
X21819887Y-12185150D01*
X21819887Y-12185150D02*
X21781792Y-12185150D01*
X21781792Y-12185150D02*
X21762744Y-12194674D01*
X21848458Y-12308960D02*
X21829411Y-12318484D01*
X21829411Y-12318484D02*
X21781792Y-12318484D01*
X21781792Y-12318484D02*
X21762744Y-12308960D01*
X21762744Y-12308960D02*
X21753220Y-12289912D01*
X21753220Y-12289912D02*
X21753220Y-12270865D01*
X21753220Y-12270865D02*
X21762744Y-12251817D01*
X21762744Y-12251817D02*
X21781792Y-12242293D01*
X21781792Y-12242293D02*
X21829411Y-12242293D01*
X21829411Y-12242293D02*
X21848458Y-12232769D01*
X21915125Y-12185150D02*
X21991315Y-12185150D01*
X21943696Y-12118484D02*
X21943696Y-12289912D01*
X21943696Y-12289912D02*
X21953220Y-12308960D01*
X21953220Y-12308960D02*
X21972268Y-12318484D01*
X21972268Y-12318484D02*
X21991315Y-12318484D01*
X22134173Y-12308960D02*
X22115125Y-12318484D01*
X22115125Y-12318484D02*
X22077030Y-12318484D01*
X22077030Y-12318484D02*
X22057982Y-12308960D01*
X22057982Y-12308960D02*
X22048458Y-12289912D01*
X22048458Y-12289912D02*
X22048458Y-12213722D01*
X22048458Y-12213722D02*
X22057982Y-12194674D01*
X22057982Y-12194674D02*
X22077030Y-12185150D01*
X22077030Y-12185150D02*
X22115125Y-12185150D01*
X22115125Y-12185150D02*
X22134173Y-12194674D01*
X22134173Y-12194674D02*
X22143696Y-12213722D01*
X22143696Y-12213722D02*
X22143696Y-12232769D01*
X22143696Y-12232769D02*
X22048458Y-12251817D01*
X22315125Y-12318484D02*
X22315125Y-12118484D01*
X22315125Y-12308960D02*
X22296077Y-12318484D01*
X22296077Y-12318484D02*
X22257982Y-12318484D01*
X22257982Y-12318484D02*
X22238935Y-12308960D01*
X22238935Y-12308960D02*
X22229411Y-12299436D01*
X22229411Y-12299436D02*
X22219887Y-12280388D01*
X22219887Y-12280388D02*
X22219887Y-12223246D01*
X22219887Y-12223246D02*
X22229411Y-12204198D01*
X22229411Y-12204198D02*
X22238935Y-12194674D01*
X22238935Y-12194674D02*
X22257982Y-12185150D01*
X22257982Y-12185150D02*
X22296077Y-12185150D01*
X22296077Y-12185150D02*
X22315125Y-12194674D01*
X22391315Y-12394674D02*
X22400839Y-12385150D01*
X22400839Y-12385150D02*
X22419887Y-12356579D01*
X22419887Y-12356579D02*
X22429411Y-12337531D01*
X22429411Y-12337531D02*
X22438934Y-12308960D01*
X22438934Y-12308960D02*
X22448458Y-12261341D01*
X22448458Y-12261341D02*
X22448458Y-12223246D01*
X22448458Y-12223246D02*
X22438934Y-12175627D01*
X22438934Y-12175627D02*
X22429411Y-12147055D01*
X22429411Y-12147055D02*
X22419887Y-12128008D01*
X22419887Y-12128008D02*
X22400839Y-12099436D01*
X22400839Y-12099436D02*
X22391315Y-12089912D01*
M02*
