M48
; DRILL file {KiCad 7.0.2} date Thu Jul 27 18:48:29 2023
; FORMAT={-:-/ absolute / inch / decimal}
; #@! TF.CreationDate,2023-07-27T18:48:29+02:00
; #@! TF.GenerationSoftware,Kicad,Pcbnew,7.0.2
; #@! TF.FileFunction,Plated,1,2,PTH
FMAT,2
INCH
; #@! TA.AperFunction,Plated,PTH,ViaDrill
T1C0.0157
; #@! TA.AperFunction,Plated,PTH,ComponentDrill
T2C0.0394
; #@! TA.AperFunction,Plated,PTH,ComponentDrill
T3C0.0400
%
G90
G05
T1
X6.1785Y-3.5453
X6.2176Y-2.4841
X6.2326Y-3.2441
X6.2326Y-3.7441
X6.2826Y-3.6441
X6.327Y-2.9941
X6.3382Y-3.1969
T2
X6.3076Y-2.5441
X6.3076Y-2.6441
X6.3076Y-2.7441
X6.3076Y-2.8441
X6.4076Y-2.5453
X6.4076Y-2.6453
X6.4076Y-2.7453
X6.4076Y-2.8453
X6.4076Y-3.0453
X6.4076Y-3.1453
X6.4076Y-3.2453
X6.4076Y-3.3453
X6.4076Y-3.5453
X6.4076Y-3.6453
X6.4076Y-3.7453
X6.4076Y-3.8453
X6.5076Y-2.4441
X6.5076Y-2.5441
X6.5076Y-2.6441
X6.5076Y-2.7441
X6.5076Y-2.8441
X6.5076Y-2.9441
X6.5076Y-3.0441
X6.5076Y-3.1441
X6.5076Y-3.2441
X6.5076Y-3.3441
X6.5076Y-3.4441
X6.5076Y-3.5441
X6.5076Y-3.6441
X6.5076Y-3.7441
X6.5076Y-3.8441
X6.5076Y-3.9453
X6.6076Y-2.3443
X6.6076Y-2.4441
X6.6076Y-2.5441
X6.6076Y-2.6441
X6.6076Y-2.7441
X6.6076Y-2.8441
X6.6076Y-2.9441
X6.6076Y-3.0441
X6.6076Y-3.1441
X6.6076Y-3.2441
X6.6076Y-3.3441
X6.6076Y-3.4441
X6.6076Y-3.5441
X6.6076Y-3.6441
X6.6076Y-3.7441
X6.6076Y-3.8441
X6.6076Y-3.9453
X6.7076Y-2.3443
X6.7076Y-2.4441
X6.7076Y-2.5441
X6.7076Y-2.6441
X6.7076Y-2.7441
X6.7076Y-2.8441
X6.7076Y-2.9441
X6.7076Y-3.0441
X6.7076Y-3.1441
X6.7076Y-3.2441
X6.7076Y-3.3441
X6.7076Y-3.4441
X6.7076Y-3.5441
X6.7076Y-3.6441
X6.7076Y-3.7441
X6.7076Y-3.8441
X6.7076Y-3.9453
X6.8076Y-2.3443
X6.8076Y-2.4441
X6.8076Y-2.5441
X6.8076Y-2.6441
X6.8076Y-2.7441
X6.8076Y-2.8441
X6.8076Y-2.9441
X6.8076Y-3.0441
X6.8076Y-3.1441
X6.8076Y-3.2441
X6.8076Y-3.3441
X6.8076Y-3.4441
X6.8076Y-3.5441
X6.8076Y-3.6441
X6.8076Y-3.7441
X6.8076Y-3.8441
X6.8076Y-3.9453
X6.9076Y-2.3443
X6.9076Y-2.4441
X6.9076Y-2.5441
X6.9076Y-2.6441
X6.9076Y-2.7441
X6.9076Y-2.8441
X6.9076Y-2.9441
X6.9076Y-3.0441
X6.9076Y-3.1441
X6.9076Y-3.2441
X6.9076Y-3.3441
X6.9076Y-3.4441
X6.9076Y-3.5441
X6.9076Y-3.6441
X6.9076Y-3.7441
X6.9076Y-3.8441
X6.9076Y-3.9453
X7.0076Y-2.4441
X7.0076Y-2.5441
X7.0076Y-2.6441
X7.0076Y-2.7441
X7.0076Y-2.8441
X7.0076Y-2.9441
X7.0076Y-3.0441
X7.0076Y-3.1441
X7.0076Y-3.2441
X7.0076Y-3.3441
X7.0076Y-3.4441
X7.0076Y-3.5441
X7.0076Y-3.6441
X7.0076Y-3.7441
X7.0076Y-3.8441
X7.0076Y-3.9453
X7.1076Y-2.3453
X7.1076Y-2.4441
X7.1076Y-2.5441
X7.1076Y-2.6441
X7.1076Y-2.7441
X7.1076Y-2.8441
X7.1076Y-2.9441
X7.1076Y-3.0441
X7.1076Y-3.1441
X7.1076Y-3.2441
X7.1076Y-3.3441
X7.1076Y-3.4441
X7.1076Y-3.5441
X7.1076Y-3.6441
X7.1076Y-3.7441
X7.1076Y-3.8441
X7.1076Y-3.9453
X7.2076Y-2.3453
X7.2076Y-2.4441
X7.2076Y-2.5441
X7.2076Y-2.6441
X7.2076Y-2.7441
X7.2076Y-2.8441
X7.2076Y-2.9441
X7.2076Y-3.0441
X7.2076Y-3.1441
X7.2076Y-3.2441
X7.2076Y-3.3441
X7.2076Y-3.4441
X7.2076Y-3.5441
X7.2076Y-3.6441
X7.2076Y-3.7441
X7.2076Y-3.8441
X7.3076Y-2.3453
X7.3076Y-2.4441
X7.3076Y-2.5441
X7.3076Y-2.6441
X7.3076Y-2.7441
X7.3076Y-2.8441
X7.3076Y-2.9441
X7.3076Y-3.0441
X7.3076Y-3.1441
X7.3076Y-3.2441
X7.3076Y-3.3441
X7.3076Y-3.4441
X7.3076Y-3.5441
X7.3076Y-3.6441
X7.3076Y-3.7441
X7.3076Y-3.8441
X7.3082Y-3.9443
X7.4076Y-2.3453
X7.4076Y-2.4441
X7.4076Y-2.5441
X7.4076Y-2.6441
X7.4076Y-2.7441
X7.4076Y-2.8441
X7.4076Y-2.9441
X7.4076Y-3.0441
X7.4076Y-3.1441
X7.4076Y-3.2441
X7.4076Y-3.3441
X7.4076Y-3.4441
X7.4076Y-3.5441
X7.4076Y-3.6441
X7.4076Y-3.7441
X7.4076Y-3.8441
X7.4082Y-3.9443
X7.5076Y-2.3453
X7.5076Y-2.4441
X7.5076Y-2.5441
X7.5076Y-2.6441
X7.5076Y-2.7441
X7.5076Y-2.8441
X7.5076Y-2.9441
X7.5076Y-3.0441
X7.5076Y-3.1441
X7.5076Y-3.2441
X7.5076Y-3.3441
X7.5076Y-3.4441
X7.5076Y-3.5441
X7.5076Y-3.6441
X7.5076Y-3.7441
X7.5076Y-3.8441
X7.5082Y-3.9443
X7.6076Y-2.3453
X7.6076Y-2.4441
X7.6076Y-2.5441
X7.6076Y-2.6441
X7.6076Y-2.7441
X7.6076Y-2.8441
X7.6076Y-2.9441
X7.6076Y-3.0441
X7.6076Y-3.1441
X7.6076Y-3.2441
X7.6076Y-3.3441
X7.6076Y-3.4441
X7.6076Y-3.5441
X7.6076Y-3.6441
X7.6076Y-3.7441
X7.6076Y-3.8441
X7.6082Y-3.9443
X7.7076Y-2.3453
X7.7076Y-2.4441
X7.7076Y-2.5441
X7.7076Y-2.6441
X7.7076Y-2.7441
X7.7076Y-2.8441
X7.7076Y-2.9441
X7.7076Y-3.0441
X7.7076Y-3.1441
X7.7076Y-3.2441
X7.7076Y-3.3441
X7.7076Y-3.4441
X7.7076Y-3.5441
X7.7076Y-3.6441
X7.7076Y-3.7441
X7.7076Y-3.8441
X7.7082Y-3.9443
X7.8076Y-2.3453
X7.8076Y-2.4441
X7.8076Y-2.5441
X7.8076Y-2.6441
X7.8076Y-2.7441
X7.8076Y-2.8441
X7.8076Y-2.9441
X7.8076Y-3.0441
X7.8076Y-3.1441
X7.8076Y-3.2441
X7.8076Y-3.3441
X7.8076Y-3.4441
X7.8076Y-3.5441
X7.8076Y-3.6441
X7.8076Y-3.7441
X7.8076Y-3.8441
X7.8082Y-3.9443
X7.9076Y-2.3453
X7.9076Y-2.4453
X7.9076Y-2.5453
X7.9076Y-2.6453
X7.9076Y-2.7453
X7.9076Y-2.8453
X7.9076Y-2.9453
X7.9076Y-3.0453
X7.9076Y-3.1453
X7.9076Y-3.2453
X7.9076Y-3.3453
X7.9076Y-3.4453
X7.9076Y-3.5453
X7.9076Y-3.6453
X7.9076Y-3.7453
X7.9076Y-3.8453
X7.9082Y-3.9443
X8.0076Y-2.3453
X8.0076Y-2.4453
X8.0076Y-2.5453
X8.0076Y-2.6453
X8.0076Y-2.7453
X8.0076Y-2.8453
X8.0076Y-2.9453
X8.0076Y-3.0453
X8.0076Y-3.1453
X8.0076Y-3.2453
X8.0076Y-3.3453
X8.0076Y-3.4453
X8.0076Y-3.5453
X8.0076Y-3.6453
X8.0076Y-3.7453
X8.0076Y-3.8453
X8.0082Y-3.9443
T3
X6.5076Y-4.0441
X6.6076Y-2.1441
X6.6076Y-4.0441
X6.7076Y-2.1441
X6.7076Y-4.0441
X6.8076Y-2.1441
X6.8076Y-4.0441
X6.9076Y-2.1441
X6.9076Y-4.0441
X7.0076Y-4.0441
X7.1076Y-2.1441
X7.1076Y-4.0441
X7.2076Y-2.1441
X7.3076Y-2.1441
X7.3076Y-4.0441
X7.4076Y-2.1441
X7.4076Y-4.0441
X7.5076Y-2.1441
X7.5076Y-4.0441
X7.6076Y-2.1441
X7.6076Y-4.0441
X7.7076Y-2.1441
X7.7076Y-4.0441
X7.8076Y-2.1441
X7.8076Y-4.0441
X7.9076Y-4.0441
X8.0076Y-4.0441
X8.1076Y-2.1441
X8.1076Y-2.2441
X8.1076Y-2.3441
X8.1076Y-2.4441
X8.1076Y-2.5441
X8.1076Y-2.6441
X8.1076Y-2.7441
X8.1076Y-2.8441
X8.1076Y-2.9441
X8.1076Y-3.0441
X8.1076Y-3.1441
X8.1076Y-3.2441
X8.1076Y-3.3441
X8.1076Y-3.4441
X8.1076Y-3.5441
X8.1076Y-3.6441
X8.1076Y-3.7441
X8.1076Y-3.8441
X8.2076Y-2.1441
X8.2076Y-2.2441
X8.2076Y-2.3441
X8.2076Y-2.4441
X8.2076Y-2.5441
X8.2076Y-2.6441
X8.2076Y-2.7441
X8.2076Y-2.8441
X8.2076Y-2.9441
X8.2076Y-3.0441
X8.2076Y-3.1441
X8.2076Y-3.2441
X8.2076Y-3.3441
X8.2076Y-3.4441
X8.2076Y-3.5441
X8.2076Y-3.6441
X8.2076Y-3.7441
X8.2076Y-3.8441
T0
M30
