%TF.GenerationSoftware,KiCad,Pcbnew,8.0.4*%
%TF.CreationDate,2025-02-28T20:51:30+01:00*%
%TF.ProjectId,Lochraster,4c6f6368-7261-4737-9465-722e6b696361,rev?*%
%TF.SameCoordinates,Original*%
%TF.FileFunction,Soldermask,Top*%
%TF.FilePolarity,Negative*%
%FSLAX46Y46*%
G04 Gerber Fmt 4.6, Leading zero omitted, Abs format (unit mm)*
G04 Created by KiCad (PCBNEW 8.0.4) date 2025-02-28 20:51:30*
%MOMM*%
%LPD*%
G01*
G04 APERTURE LIST*
%ADD10C,2.000000*%
%ADD11R,1.700000X1.700000*%
%ADD12O,1.700000X1.700000*%
%ADD13C,3.200000*%
%ADD14O,1.727200X1.727200*%
%ADD15R,1.727200X1.727200*%
G04 APERTURE END LIST*
D10*
%TO.C,REF\u002A\u002A*%
X195773000Y-62080000D03*
X195773000Y-64620000D03*
X195773000Y-67160000D03*
X195773000Y-69700000D03*
X195773000Y-72240000D03*
X195773000Y-74780000D03*
X195773000Y-77320000D03*
X195773000Y-79860000D03*
X195773000Y-82400000D03*
X195773000Y-84940000D03*
X195773000Y-87480000D03*
X195773000Y-90020000D03*
X195773000Y-92560000D03*
X195773000Y-95100000D03*
X195773000Y-97640000D03*
%TD*%
D11*
%TO.C,J6*%
X167833000Y-59545000D03*
D12*
X170373000Y-59545000D03*
X172913000Y-59545000D03*
X175453000Y-59545000D03*
%TD*%
D11*
%TO.C,J7*%
X198313000Y-59570000D03*
D12*
X195773000Y-59570000D03*
X193233000Y-59570000D03*
X190693000Y-59570000D03*
X188153000Y-59570000D03*
X185613000Y-59570000D03*
X183073000Y-59570000D03*
X180533000Y-59570000D03*
%TD*%
D10*
%TO.C,REF\u002A\u002A*%
X172913000Y-62080000D03*
X172913000Y-64620000D03*
X172913000Y-67160000D03*
X172913000Y-69700000D03*
X172913000Y-72240000D03*
X172913000Y-74780000D03*
X172913000Y-77320000D03*
X172913000Y-79860000D03*
X172913000Y-82400000D03*
X172913000Y-84940000D03*
X172913000Y-87480000D03*
X172913000Y-90020000D03*
X172913000Y-92560000D03*
X172913000Y-95100000D03*
X172913000Y-97640000D03*
%TD*%
%TO.C,REF\u002A\u002A*%
X177993000Y-62080000D03*
X177993000Y-64620000D03*
X177993000Y-67160000D03*
X177993000Y-69700000D03*
X177993000Y-72240000D03*
X177993000Y-74780000D03*
X177993000Y-77320000D03*
X177993000Y-79860000D03*
X177993000Y-82400000D03*
X177993000Y-84940000D03*
X177993000Y-87480000D03*
X177993000Y-90020000D03*
X177993000Y-92560000D03*
X177993000Y-95100000D03*
X177993000Y-97640000D03*
%TD*%
%TO.C,REF\u002A\u002A*%
X167833000Y-62080000D03*
X167833000Y-64620000D03*
X167833000Y-67160000D03*
X167833000Y-69700000D03*
X167833000Y-72240000D03*
X167833000Y-74780000D03*
X167833000Y-77320000D03*
X167833000Y-79860000D03*
X167833000Y-82400000D03*
X167833000Y-84940000D03*
X167833000Y-87480000D03*
X167833000Y-90020000D03*
X167833000Y-92560000D03*
X167833000Y-95100000D03*
X167833000Y-97640000D03*
%TD*%
%TO.C,REF\u002A\u002A*%
X198313000Y-62080000D03*
X198313000Y-64620000D03*
X198313000Y-67160000D03*
X198313000Y-69700000D03*
X198313000Y-72240000D03*
X198313000Y-74780000D03*
X198313000Y-77320000D03*
X198313000Y-79860000D03*
X198313000Y-82400000D03*
X198313000Y-84940000D03*
X198313000Y-87480000D03*
X198313000Y-90020000D03*
X198313000Y-92560000D03*
X198313000Y-95100000D03*
X198313000Y-97640000D03*
%TD*%
D11*
%TO.C,J2*%
X200853000Y-97670000D03*
D12*
X203393000Y-97670000D03*
X200853000Y-95130000D03*
X203393000Y-95130000D03*
X200853000Y-92590000D03*
X203393000Y-92590000D03*
X200853000Y-90050000D03*
X203393000Y-90050000D03*
X200853000Y-87510000D03*
X203393000Y-87510000D03*
X200853000Y-84970000D03*
X203393000Y-84970000D03*
X200853000Y-82430000D03*
X203393000Y-82430000D03*
X200853000Y-79890000D03*
X203393000Y-79890000D03*
X200853000Y-77350000D03*
X203393000Y-77350000D03*
X200853000Y-74810000D03*
X203393000Y-74810000D03*
X200853000Y-72270000D03*
X203393000Y-72270000D03*
X200853000Y-69730000D03*
X203393000Y-69730000D03*
X200853000Y-67190000D03*
X203393000Y-67190000D03*
X200853000Y-64650000D03*
X203393000Y-64650000D03*
X200853000Y-62110000D03*
X203393000Y-62110000D03*
X200853000Y-59570000D03*
X203393000Y-59570000D03*
%TD*%
D10*
%TO.C,REF\u002A\u002A*%
X193233000Y-62080000D03*
X193233000Y-64620000D03*
X193233000Y-67160000D03*
X193233000Y-69700000D03*
X193233000Y-72240000D03*
X193233000Y-74780000D03*
X193233000Y-77320000D03*
X193233000Y-79860000D03*
X193233000Y-82400000D03*
X193233000Y-84940000D03*
X193233000Y-87480000D03*
X193233000Y-90020000D03*
X193233000Y-92560000D03*
X193233000Y-95100000D03*
X193233000Y-97640000D03*
%TD*%
D11*
%TO.C,J8*%
X162753000Y-97670000D03*
D12*
X162753000Y-95130000D03*
X162753000Y-92590000D03*
X162753000Y-90050000D03*
%TD*%
D11*
%TO.C,J5*%
X185628000Y-100185000D03*
D12*
X188168000Y-100185000D03*
X190708000Y-100185000D03*
X193248000Y-100185000D03*
X195788000Y-100185000D03*
X198328000Y-100185000D03*
X200868000Y-100185000D03*
X203408000Y-100185000D03*
%TD*%
D10*
%TO.C,REF\u002A\u002A*%
X188153000Y-62080000D03*
X188153000Y-64620000D03*
X188153000Y-67160000D03*
X188153000Y-69700000D03*
X188153000Y-72240000D03*
X188153000Y-74780000D03*
X188153000Y-77320000D03*
X188153000Y-79860000D03*
X188153000Y-82400000D03*
X188153000Y-84940000D03*
X188153000Y-87480000D03*
X188153000Y-90020000D03*
X188153000Y-92560000D03*
X188153000Y-95100000D03*
X188153000Y-97640000D03*
%TD*%
%TO.C,REF\u002A\u002A*%
X165293000Y-62080000D03*
X165293000Y-64620000D03*
X165293000Y-67160000D03*
X165293000Y-69700000D03*
X165293000Y-72240000D03*
X165293000Y-74780000D03*
X165293000Y-77320000D03*
X165293000Y-79860000D03*
X165293000Y-82400000D03*
X165293000Y-84940000D03*
X165293000Y-87480000D03*
X165293000Y-90020000D03*
X165293000Y-92560000D03*
X165293000Y-95100000D03*
X165293000Y-97640000D03*
%TD*%
D11*
%TO.C,J4*%
X165293000Y-100210000D03*
D12*
X167833000Y-100210000D03*
X170373000Y-100210000D03*
X172913000Y-100210000D03*
X175453000Y-100210000D03*
X177993000Y-100210000D03*
X180533000Y-100210000D03*
%TD*%
D11*
%TO.C,J9*%
X162753000Y-84970000D03*
D12*
X162753000Y-82430000D03*
X162753000Y-79890000D03*
X162753000Y-77350000D03*
%TD*%
D10*
%TO.C,REF\u002A\u002A*%
X190693000Y-62080000D03*
X190693000Y-64620000D03*
X190693000Y-67160000D03*
X190693000Y-69700000D03*
X190693000Y-72240000D03*
X190693000Y-74780000D03*
X190693000Y-77320000D03*
X190693000Y-79860000D03*
X190693000Y-82400000D03*
X190693000Y-84940000D03*
X190693000Y-87480000D03*
X190693000Y-90020000D03*
X190693000Y-92560000D03*
X190693000Y-95100000D03*
X190693000Y-97640000D03*
%TD*%
%TO.C,REF\u002A\u002A*%
X170373000Y-62080000D03*
X170373000Y-64620000D03*
X170373000Y-67160000D03*
X170373000Y-69700000D03*
X170373000Y-72240000D03*
X170373000Y-74780000D03*
X170373000Y-77320000D03*
X170373000Y-79860000D03*
X170373000Y-82400000D03*
X170373000Y-84940000D03*
X170373000Y-87480000D03*
X170373000Y-90020000D03*
X170373000Y-92560000D03*
X170373000Y-95100000D03*
X170373000Y-97640000D03*
%TD*%
D11*
%TO.C,J1*%
X160213000Y-64620000D03*
D12*
X160213000Y-67160000D03*
X160213000Y-69700000D03*
X160213000Y-72240000D03*
%TD*%
D10*
%TO.C,REF\u002A\u002A*%
X185613000Y-62080000D03*
X185613000Y-64620000D03*
X185613000Y-67160000D03*
X185613000Y-69700000D03*
X185613000Y-72240000D03*
X185613000Y-74780000D03*
X185613000Y-77320000D03*
X185613000Y-79860000D03*
X185613000Y-82400000D03*
X185613000Y-84940000D03*
X185613000Y-87480000D03*
X185613000Y-90020000D03*
X185613000Y-92560000D03*
X185613000Y-95100000D03*
X185613000Y-97640000D03*
%TD*%
%TO.C,REF\u002A\u002A*%
X180533000Y-62080000D03*
X180533000Y-64620000D03*
X180533000Y-67160000D03*
X180533000Y-69700000D03*
X180533000Y-72240000D03*
X180533000Y-74780000D03*
X180533000Y-77320000D03*
X180533000Y-79860000D03*
X180533000Y-82400000D03*
X180533000Y-84940000D03*
X180533000Y-87480000D03*
X180533000Y-90020000D03*
X180533000Y-92560000D03*
X180533000Y-95100000D03*
X180533000Y-97640000D03*
%TD*%
D11*
%TO.C,J3*%
X162753000Y-72270000D03*
D12*
X162753000Y-69730000D03*
X162753000Y-67190000D03*
X162753000Y-64650000D03*
%TD*%
D13*
%TO.C,XA1*%
X202123000Y-54460000D03*
X208473000Y-102720000D03*
D14*
X205933000Y-54460000D03*
X208473000Y-54460000D03*
X165293000Y-102720000D03*
X167833000Y-102720000D03*
X170373000Y-102720000D03*
X172913000Y-102720000D03*
X175453000Y-102720000D03*
X177993000Y-102720000D03*
X180533000Y-102720000D03*
X185613000Y-102720000D03*
X188153000Y-102720000D03*
X190693000Y-102720000D03*
X193233000Y-102720000D03*
X195773000Y-102720000D03*
X198313000Y-102720000D03*
X200853000Y-102720000D03*
X203393000Y-102720000D03*
X175453000Y-54460000D03*
X172913000Y-54460000D03*
X170373000Y-54460000D03*
X167833000Y-54460000D03*
X180533000Y-54460000D03*
X183073000Y-54460000D03*
X185613000Y-54460000D03*
X188153000Y-54460000D03*
X190693000Y-54460000D03*
X193233000Y-54460000D03*
X195773000Y-54460000D03*
X198313000Y-54460000D03*
X205933000Y-57000000D03*
X208473000Y-57000000D03*
X205933000Y-59540000D03*
X208473000Y-59540000D03*
X205933000Y-62080000D03*
X208473000Y-62080000D03*
X205933000Y-64620000D03*
X208473000Y-64620000D03*
X205933000Y-67160000D03*
X208473000Y-67160000D03*
X205933000Y-69700000D03*
X208473000Y-69700000D03*
X205933000Y-72240000D03*
X208473000Y-72240000D03*
X205933000Y-74780000D03*
X208473000Y-74780000D03*
X205933000Y-77320000D03*
X208473000Y-77320000D03*
X205933000Y-79860000D03*
X208473000Y-79860000D03*
X205933000Y-82400000D03*
X208473000Y-82400000D03*
X205933000Y-84940000D03*
X208473000Y-84940000D03*
X205933000Y-87480000D03*
X208473000Y-87480000D03*
X205933000Y-90020000D03*
X208473000Y-90020000D03*
X205933000Y-92560000D03*
X208473000Y-92560000D03*
X205933000Y-95100000D03*
X208473000Y-95100000D03*
D15*
X205933000Y-97640000D03*
X208473000Y-97640000D03*
%TD*%
D10*
%TO.C,REF\u002A\u002A*%
X175453000Y-62080000D03*
X175453000Y-64620000D03*
X175453000Y-67160000D03*
X175453000Y-69700000D03*
X175453000Y-72240000D03*
X175453000Y-74780000D03*
X175453000Y-77320000D03*
X175453000Y-79860000D03*
X175453000Y-82400000D03*
X175453000Y-84940000D03*
X175453000Y-87480000D03*
X175453000Y-90020000D03*
X175453000Y-92560000D03*
X175453000Y-95100000D03*
X175453000Y-97640000D03*
%TD*%
%TO.C,REF\u002A\u002A*%
X183073000Y-62080000D03*
X183073000Y-64620000D03*
X183073000Y-67160000D03*
X183073000Y-69700000D03*
X183073000Y-72240000D03*
X183073000Y-74780000D03*
X183073000Y-77320000D03*
X183073000Y-79860000D03*
X183073000Y-82400000D03*
X183073000Y-84940000D03*
X183073000Y-87480000D03*
X183073000Y-90020000D03*
X183073000Y-92560000D03*
X183073000Y-95100000D03*
X183073000Y-97640000D03*
%TD*%
M02*
