M48
; DRILL file {KiCad 8.0.4} date 2025-02-28T20:51:38+0100
; FORMAT={-:-/ absolute / metric / decimal}
; #@! TF.CreationDate,2025-02-28T20:51:38+01:00
; #@! TF.GenerationSoftware,Kicad,Pcbnew,8.0.4
; #@! TF.FileFunction,MixedPlating,1,2
FMAT,2
METRIC
; #@! TA.AperFunction,Plated,PTH,ViaDrill
T1C0.400
; #@! TA.AperFunction,Plated,PTH,ComponentDrill
T2C1.000
; #@! TA.AperFunction,Plated,PTH,ComponentDrill
T3C1.016
; #@! TA.AperFunction,NonPlated,NPTH,ComponentDrill
T4C1.000
; #@! TA.AperFunction,NonPlated,NPTH,ComponentDrill
T5C3.200
%
G90
G05
T1
X156.933Y-90.05
X157.927Y-63.096
X158.308Y-82.4
X158.308Y-95.1
X159.578Y-92.56
X160.707Y-76.05
X160.991Y-81.2
T2
X160.213Y-64.62
X160.213Y-67.16
X160.213Y-69.7
X160.213Y-72.24
X162.753Y-64.65
X162.753Y-67.19
X162.753Y-69.73
X162.753Y-72.27
X162.753Y-77.35
X162.753Y-79.89
X162.753Y-82.43
X162.753Y-84.97
X162.753Y-90.05
X162.753Y-92.59
X162.753Y-95.13
X162.753Y-97.67
X165.293Y-100.21
X167.833Y-59.545
X167.833Y-100.21
X170.373Y-59.545
X170.373Y-100.21
X172.913Y-59.545
X172.913Y-100.21
X175.453Y-59.545
X175.453Y-100.21
X177.993Y-100.21
X180.533Y-59.57
X180.533Y-100.21
X183.073Y-59.57
X185.613Y-59.57
X185.628Y-100.185
X188.153Y-59.57
X188.168Y-100.185
X190.693Y-59.57
X190.708Y-100.185
X193.233Y-59.57
X193.248Y-100.185
X195.773Y-59.57
X195.788Y-100.185
X198.313Y-59.57
X198.328Y-100.185
X200.853Y-59.57
X200.853Y-62.11
X200.853Y-64.65
X200.853Y-67.19
X200.853Y-69.73
X200.853Y-72.27
X200.853Y-74.81
X200.853Y-77.35
X200.853Y-79.89
X200.853Y-82.43
X200.853Y-84.97
X200.853Y-87.51
X200.853Y-90.05
X200.853Y-92.59
X200.853Y-95.13
X200.853Y-97.67
X200.868Y-100.185
X203.393Y-59.57
X203.393Y-62.11
X203.393Y-64.65
X203.393Y-67.19
X203.393Y-69.73
X203.393Y-72.27
X203.393Y-74.81
X203.393Y-77.35
X203.393Y-79.89
X203.393Y-82.43
X203.393Y-84.97
X203.393Y-87.51
X203.393Y-90.05
X203.393Y-92.59
X203.393Y-95.13
X203.393Y-97.67
X203.408Y-100.185
T3
X165.293Y-102.72
X167.833Y-54.46
X167.833Y-102.72
X170.373Y-54.46
X170.373Y-102.72
X172.913Y-54.46
X172.913Y-102.72
X175.453Y-54.46
X175.453Y-102.72
X177.993Y-102.72
X180.533Y-54.46
X180.533Y-102.72
X183.073Y-54.46
X185.613Y-54.46
X185.613Y-102.72
X188.153Y-54.46
X188.153Y-102.72
X190.693Y-54.46
X190.693Y-102.72
X193.233Y-54.46
X193.233Y-102.72
X195.773Y-54.46
X195.773Y-102.72
X198.313Y-54.46
X198.313Y-102.72
X200.853Y-102.72
X203.393Y-102.72
X205.933Y-54.46
X205.933Y-57.0
X205.933Y-59.54
X205.933Y-62.08
X205.933Y-64.62
X205.933Y-67.16
X205.933Y-69.7
X205.933Y-72.24
X205.933Y-74.78
X205.933Y-77.32
X205.933Y-79.86
X205.933Y-82.4
X205.933Y-84.94
X205.933Y-87.48
X205.933Y-90.02
X205.933Y-92.56
X205.933Y-95.1
X205.933Y-97.64
X208.473Y-54.46
X208.473Y-57.0
X208.473Y-59.54
X208.473Y-62.08
X208.473Y-64.62
X208.473Y-67.16
X208.473Y-69.7
X208.473Y-72.24
X208.473Y-74.78
X208.473Y-77.32
X208.473Y-79.86
X208.473Y-82.4
X208.473Y-84.94
X208.473Y-87.48
X208.473Y-90.02
X208.473Y-92.56
X208.473Y-95.1
X208.473Y-97.64
T4
X165.293Y-62.08
X165.293Y-64.62
X165.293Y-67.16
X165.293Y-69.7
X165.293Y-72.24
X165.293Y-74.78
X165.293Y-77.32
X165.293Y-79.86
X165.293Y-82.4
X165.293Y-84.94
X165.293Y-87.48
X165.293Y-90.02
X165.293Y-92.56
X165.293Y-95.1
X165.293Y-97.64
X167.833Y-62.08
X167.833Y-64.62
X167.833Y-67.16
X167.833Y-69.7
X167.833Y-72.24
X167.833Y-74.78
X167.833Y-77.32
X167.833Y-79.86
X167.833Y-82.4
X167.833Y-84.94
X167.833Y-87.48
X167.833Y-90.02
X167.833Y-92.56
X167.833Y-95.1
X167.833Y-97.64
X170.373Y-62.08
X170.373Y-64.62
X170.373Y-67.16
X170.373Y-69.7
X170.373Y-72.24
X170.373Y-74.78
X170.373Y-77.32
X170.373Y-79.86
X170.373Y-82.4
X170.373Y-84.94
X170.373Y-87.48
X170.373Y-90.02
X170.373Y-92.56
X170.373Y-95.1
X170.373Y-97.64
X172.913Y-62.08
X172.913Y-64.62
X172.913Y-67.16
X172.913Y-69.7
X172.913Y-72.24
X172.913Y-74.78
X172.913Y-77.32
X172.913Y-79.86
X172.913Y-82.4
X172.913Y-84.94
X172.913Y-87.48
X172.913Y-90.02
X172.913Y-92.56
X172.913Y-95.1
X172.913Y-97.64
X175.453Y-62.08
X175.453Y-64.62
X175.453Y-67.16
X175.453Y-69.7
X175.453Y-72.24
X175.453Y-74.78
X175.453Y-77.32
X175.453Y-79.86
X175.453Y-82.4
X175.453Y-84.94
X175.453Y-87.48
X175.453Y-90.02
X175.453Y-92.56
X175.453Y-95.1
X175.453Y-97.64
X177.993Y-62.08
X177.993Y-64.62
X177.993Y-67.16
X177.993Y-69.7
X177.993Y-72.24
X177.993Y-74.78
X177.993Y-77.32
X177.993Y-79.86
X177.993Y-82.4
X177.993Y-84.94
X177.993Y-87.48
X177.993Y-90.02
X177.993Y-92.56
X177.993Y-95.1
X177.993Y-97.64
X180.533Y-62.08
X180.533Y-64.62
X180.533Y-67.16
X180.533Y-69.7
X180.533Y-72.24
X180.533Y-74.78
X180.533Y-77.32
X180.533Y-79.86
X180.533Y-82.4
X180.533Y-84.94
X180.533Y-87.48
X180.533Y-90.02
X180.533Y-92.56
X180.533Y-95.1
X180.533Y-97.64
X183.073Y-62.08
X183.073Y-64.62
X183.073Y-67.16
X183.073Y-69.7
X183.073Y-72.24
X183.073Y-74.78
X183.073Y-77.32
X183.073Y-79.86
X183.073Y-82.4
X183.073Y-84.94
X183.073Y-87.48
X183.073Y-90.02
X183.073Y-92.56
X183.073Y-95.1
X183.073Y-97.64
X185.613Y-62.08
X185.613Y-64.62
X185.613Y-67.16
X185.613Y-69.7
X185.613Y-72.24
X185.613Y-74.78
X185.613Y-77.32
X185.613Y-79.86
X185.613Y-82.4
X185.613Y-84.94
X185.613Y-87.48
X185.613Y-90.02
X185.613Y-92.56
X185.613Y-95.1
X185.613Y-97.64
X188.153Y-62.08
X188.153Y-64.62
X188.153Y-67.16
X188.153Y-69.7
X188.153Y-72.24
X188.153Y-74.78
X188.153Y-77.32
X188.153Y-79.86
X188.153Y-82.4
X188.153Y-84.94
X188.153Y-87.48
X188.153Y-90.02
X188.153Y-92.56
X188.153Y-95.1
X188.153Y-97.64
X190.693Y-62.08
X190.693Y-64.62
X190.693Y-67.16
X190.693Y-69.7
X190.693Y-72.24
X190.693Y-74.78
X190.693Y-77.32
X190.693Y-79.86
X190.693Y-82.4
X190.693Y-84.94
X190.693Y-87.48
X190.693Y-90.02
X190.693Y-92.56
X190.693Y-95.1
X190.693Y-97.64
X193.233Y-62.08
X193.233Y-64.62
X193.233Y-67.16
X193.233Y-69.7
X193.233Y-72.24
X193.233Y-74.78
X193.233Y-77.32
X193.233Y-79.86
X193.233Y-82.4
X193.233Y-84.94
X193.233Y-87.48
X193.233Y-90.02
X193.233Y-92.56
X193.233Y-95.1
X193.233Y-97.64
X195.773Y-62.08
X195.773Y-64.62
X195.773Y-67.16
X195.773Y-69.7
X195.773Y-72.24
X195.773Y-74.78
X195.773Y-77.32
X195.773Y-79.86
X195.773Y-82.4
X195.773Y-84.94
X195.773Y-87.48
X195.773Y-90.02
X195.773Y-92.56
X195.773Y-95.1
X195.773Y-97.64
X198.313Y-62.08
X198.313Y-64.62
X198.313Y-67.16
X198.313Y-69.7
X198.313Y-72.24
X198.313Y-74.78
X198.313Y-77.32
X198.313Y-79.86
X198.313Y-82.4
X198.313Y-84.94
X198.313Y-87.48
X198.313Y-90.02
X198.313Y-92.56
X198.313Y-95.1
X198.313Y-97.64
T5
X202.123Y-54.46
X208.473Y-102.72
M30
