%TF.GenerationSoftware,KiCad,Pcbnew,7.0.2*%
%TF.CreationDate,2023-07-27T18:48:29+02:00*%
%TF.ProjectId,Lochraster,4c6f6368-7261-4737-9465-722e6b696361,rev?*%
%TF.SameCoordinates,Original*%
%TF.FileFunction,Copper,L2,Bot*%
%TF.FilePolarity,Positive*%
%FSLAX46Y46*%
G04 Gerber Fmt 4.6, Leading zero omitted, Abs format (unit mm)*
G04 Created by KiCad (PCBNEW 7.0.2) date 2023-07-27 18:48:29*
%MOMM*%
%LPD*%
G01*
G04 APERTURE LIST*
%TA.AperFunction,ComponentPad*%
%ADD10O,1.727200X1.727200*%
%TD*%
%TA.AperFunction,ComponentPad*%
%ADD11R,1.727200X1.727200*%
%TD*%
%TA.AperFunction,ComponentPad*%
%ADD12C,1.700000*%
%TD*%
%TA.AperFunction,ComponentPad*%
%ADD13O,1.700000X1.700000*%
%TD*%
%TA.AperFunction,ComponentPad*%
%ADD14R,1.700000X1.700000*%
%TD*%
%TA.AperFunction,ViaPad*%
%ADD15C,0.800000*%
%TD*%
%TA.AperFunction,Conductor*%
%ADD16C,1.000000*%
%TD*%
%TA.AperFunction,Conductor*%
%ADD17C,0.400000*%
%TD*%
G04 APERTURE END LIST*
D10*
%TO.P,XA1,5V3,5V*%
%TO.N,unconnected-(XA1-5V-Pad5V3)*%
X205933000Y-54460000D03*
%TO.P,XA1,5V4,5V*%
%TO.N,unconnected-(XA1-5V-Pad5V4)*%
X208473000Y-54460000D03*
%TO.P,XA1,A1,A1*%
%TO.N,Net-(J4-Pin_1)*%
X165293000Y-102720000D03*
%TO.P,XA1,A2,A2*%
%TO.N,Net-(J4-Pin_2)*%
X167833000Y-102720000D03*
%TO.P,XA1,A3,A3*%
%TO.N,Net-(J4-Pin_3)*%
X170373000Y-102720000D03*
%TO.P,XA1,A4,A4*%
%TO.N,Net-(J4-Pin_4)*%
X172913000Y-102720000D03*
%TO.P,XA1,A5,A5*%
%TO.N,Net-(J4-Pin_5)*%
X175453000Y-102720000D03*
%TO.P,XA1,A6,A6*%
%TO.N,Net-(J4-Pin_6)*%
X177993000Y-102720000D03*
%TO.P,XA1,A7,A7*%
%TO.N,Net-(J4-Pin_7)*%
X180533000Y-102720000D03*
%TO.P,XA1,A8,A8*%
%TO.N,Net-(J5-Pin_1)*%
X185613000Y-102720000D03*
%TO.P,XA1,A9,A9*%
%TO.N,Net-(J5-Pin_2)*%
X188153000Y-102720000D03*
%TO.P,XA1,A10,A10*%
%TO.N,Net-(J5-Pin_3)*%
X190693000Y-102720000D03*
%TO.P,XA1,A11,A11*%
%TO.N,Net-(J5-Pin_4)*%
X193233000Y-102720000D03*
%TO.P,XA1,A12,A12*%
%TO.N,Net-(J5-Pin_5)*%
X195773000Y-102720000D03*
%TO.P,XA1,A13,A13*%
%TO.N,Net-(J5-Pin_6)*%
X198313000Y-102720000D03*
%TO.P,XA1,A14,A14*%
%TO.N,Net-(J5-Pin_7)*%
X200853000Y-102720000D03*
%TO.P,XA1,A15,A15*%
%TO.N,Net-(J5-Pin_8)*%
X203393000Y-102720000D03*
%TO.P,XA1,D0,D0/RX0*%
%TO.N,Net-(J6-Pin_4)*%
X175453000Y-54460000D03*
%TO.P,XA1,D1,D1/TX0*%
%TO.N,Net-(J6-Pin_3)*%
X172913000Y-54460000D03*
%TO.P,XA1,D2,D2_INT0*%
%TO.N,Net-(J6-Pin_2)*%
X170373000Y-54460000D03*
%TO.P,XA1,D3,D3_INT1*%
%TO.N,Net-(J6-Pin_1)*%
X167833000Y-54460000D03*
%TO.P,XA1,D14,D14/TX3*%
%TO.N,Net-(J7-Pin_8)*%
X180533000Y-54460000D03*
%TO.P,XA1,D15,D15/RX3*%
%TO.N,Net-(J7-Pin_7)*%
X183073000Y-54460000D03*
%TO.P,XA1,D16,D16/TX2*%
%TO.N,Net-(J7-Pin_6)*%
X185613000Y-54460000D03*
%TO.P,XA1,D17,D17/RX2*%
%TO.N,Net-(J7-Pin_5)*%
X188153000Y-54460000D03*
%TO.P,XA1,D18,D18/TX1*%
%TO.N,Net-(J7-Pin_4)*%
X190693000Y-54460000D03*
%TO.P,XA1,D19,D19/RX1*%
%TO.N,Net-(J7-Pin_3)*%
X193233000Y-54460000D03*
%TO.P,XA1,D20,D20/SDA*%
%TO.N,Net-(J7-Pin_2)*%
X195773000Y-54460000D03*
%TO.P,XA1,D21,D21/SCL*%
%TO.N,Net-(J7-Pin_1)*%
X198313000Y-54460000D03*
%TO.P,XA1,D22,D22*%
%TO.N,Net-(J2-Pin_32)*%
X205933000Y-57000000D03*
%TO.P,XA1,D23,D23*%
%TO.N,Net-(J2-Pin_31)*%
X208473000Y-57000000D03*
%TO.P,XA1,D24,D24*%
%TO.N,Net-(J2-Pin_30)*%
X205933000Y-59540000D03*
%TO.P,XA1,D25,D25*%
%TO.N,Net-(J2-Pin_29)*%
X208473000Y-59540000D03*
%TO.P,XA1,D26,D26*%
%TO.N,Net-(J2-Pin_28)*%
X205933000Y-62080000D03*
%TO.P,XA1,D27,D27*%
%TO.N,Net-(J2-Pin_27)*%
X208473000Y-62080000D03*
%TO.P,XA1,D28,D28*%
%TO.N,Net-(J2-Pin_26)*%
X205933000Y-64620000D03*
%TO.P,XA1,D29,D29*%
%TO.N,Net-(J2-Pin_25)*%
X208473000Y-64620000D03*
%TO.P,XA1,D30,D30*%
%TO.N,Net-(J2-Pin_24)*%
X205933000Y-67160000D03*
%TO.P,XA1,D31,D31*%
%TO.N,Net-(J2-Pin_23)*%
X208473000Y-67160000D03*
%TO.P,XA1,D32,D32*%
%TO.N,Net-(J2-Pin_22)*%
X205933000Y-69700000D03*
%TO.P,XA1,D33,D33*%
%TO.N,Net-(J2-Pin_21)*%
X208473000Y-69700000D03*
%TO.P,XA1,D34,D34*%
%TO.N,Net-(J2-Pin_20)*%
X205933000Y-72240000D03*
%TO.P,XA1,D35,D35*%
%TO.N,Net-(J2-Pin_19)*%
X208473000Y-72240000D03*
%TO.P,XA1,D36,D36*%
%TO.N,Net-(J2-Pin_18)*%
X205933000Y-74780000D03*
%TO.P,XA1,D37,D37*%
%TO.N,Net-(J2-Pin_17)*%
X208473000Y-74780000D03*
%TO.P,XA1,D38,D38*%
%TO.N,Net-(J2-Pin_16)*%
X205933000Y-77320000D03*
%TO.P,XA1,D39,D39*%
%TO.N,Net-(J2-Pin_15)*%
X208473000Y-77320000D03*
%TO.P,XA1,D40,D40*%
%TO.N,Net-(J2-Pin_14)*%
X205933000Y-79860000D03*
%TO.P,XA1,D41,D41*%
%TO.N,Net-(J2-Pin_13)*%
X208473000Y-79860000D03*
%TO.P,XA1,D42,D42*%
%TO.N,Net-(J2-Pin_12)*%
X205933000Y-82400000D03*
%TO.P,XA1,D43,D43*%
%TO.N,Net-(J2-Pin_11)*%
X208473000Y-82400000D03*
%TO.P,XA1,D44,D44*%
%TO.N,Net-(J2-Pin_10)*%
X205933000Y-84940000D03*
%TO.P,XA1,D45,D45*%
%TO.N,Net-(J2-Pin_9)*%
X208473000Y-84940000D03*
%TO.P,XA1,D46,D46*%
%TO.N,Net-(J2-Pin_8)*%
X205933000Y-87480000D03*
%TO.P,XA1,D47,D47*%
%TO.N,Net-(J2-Pin_7)*%
X208473000Y-87480000D03*
%TO.P,XA1,D48,D48*%
%TO.N,Net-(J2-Pin_6)*%
X205933000Y-90020000D03*
%TO.P,XA1,D49,D49*%
%TO.N,Net-(J2-Pin_5)*%
X208473000Y-90020000D03*
%TO.P,XA1,D50,D50_MISO*%
%TO.N,Net-(J2-Pin_4)*%
X205933000Y-92560000D03*
%TO.P,XA1,D51,D51_MOSI*%
%TO.N,Net-(J2-Pin_3)*%
X208473000Y-92560000D03*
%TO.P,XA1,D52,D52_SCK*%
%TO.N,Net-(J2-Pin_2)*%
X205933000Y-95100000D03*
%TO.P,XA1,D53,D53_CS*%
%TO.N,Net-(J2-Pin_1)*%
X208473000Y-95100000D03*
D11*
%TO.P,XA1,GND5,GND*%
%TO.N,unconnected-(XA1-GND-PadGND5)*%
X205933000Y-97640000D03*
%TO.P,XA1,GND6,GND*%
%TO.N,unconnected-(XA1-GND-PadGND6)*%
X208473000Y-97640000D03*
%TD*%
D12*
%TO.P,REF\u002A\u002A,1*%
%TO.N,N/C*%
X195773000Y-62080000D03*
D13*
%TO.P,REF\u002A\u002A,2*%
X195773000Y-64620000D03*
%TO.P,REF\u002A\u002A,3*%
X195773000Y-67160000D03*
%TO.P,REF\u002A\u002A,4*%
X195773000Y-69700000D03*
%TO.P,REF\u002A\u002A,5*%
X195773000Y-72240000D03*
%TO.P,REF\u002A\u002A,6*%
X195773000Y-74780000D03*
%TO.P,REF\u002A\u002A,7*%
X195773000Y-77320000D03*
%TO.P,REF\u002A\u002A,8*%
X195773000Y-79860000D03*
%TO.P,REF\u002A\u002A,9*%
X195773000Y-82400000D03*
%TO.P,REF\u002A\u002A,10*%
X195773000Y-84940000D03*
%TO.P,REF\u002A\u002A,11*%
X195773000Y-87480000D03*
%TO.P,REF\u002A\u002A,12*%
X195773000Y-90020000D03*
%TO.P,REF\u002A\u002A,13*%
X195773000Y-92560000D03*
%TO.P,REF\u002A\u002A,14*%
X195773000Y-95100000D03*
%TO.P,REF\u002A\u002A,15*%
X195773000Y-97640000D03*
%TD*%
D14*
%TO.P,J6,1,Pin_1*%
%TO.N,Net-(J6-Pin_1)*%
X167833000Y-59545000D03*
D13*
%TO.P,J6,2,Pin_2*%
%TO.N,Net-(J6-Pin_2)*%
X170373000Y-59545000D03*
%TO.P,J6,3,Pin_3*%
%TO.N,Net-(J6-Pin_3)*%
X172913000Y-59545000D03*
%TO.P,J6,4,Pin_4*%
%TO.N,Net-(J6-Pin_4)*%
X175453000Y-59545000D03*
%TD*%
D14*
%TO.P,J7,1,Pin_1*%
%TO.N,Net-(J7-Pin_1)*%
X198313000Y-59570000D03*
D13*
%TO.P,J7,2,Pin_2*%
%TO.N,Net-(J7-Pin_2)*%
X195773000Y-59570000D03*
%TO.P,J7,3,Pin_3*%
%TO.N,Net-(J7-Pin_3)*%
X193233000Y-59570000D03*
%TO.P,J7,4,Pin_4*%
%TO.N,Net-(J7-Pin_4)*%
X190693000Y-59570000D03*
%TO.P,J7,5,Pin_5*%
%TO.N,Net-(J7-Pin_5)*%
X188153000Y-59570000D03*
%TO.P,J7,6,Pin_6*%
%TO.N,Net-(J7-Pin_6)*%
X185613000Y-59570000D03*
%TO.P,J7,7,Pin_7*%
%TO.N,Net-(J7-Pin_7)*%
X183073000Y-59570000D03*
%TO.P,J7,8,Pin_8*%
%TO.N,Net-(J7-Pin_8)*%
X180533000Y-59570000D03*
%TD*%
D12*
%TO.P,REF\u002A\u002A,1*%
%TO.N,N/C*%
X172913000Y-62080000D03*
D13*
%TO.P,REF\u002A\u002A,2*%
X172913000Y-64620000D03*
%TO.P,REF\u002A\u002A,3*%
X172913000Y-67160000D03*
%TO.P,REF\u002A\u002A,4*%
X172913000Y-69700000D03*
%TO.P,REF\u002A\u002A,5*%
X172913000Y-72240000D03*
%TO.P,REF\u002A\u002A,6*%
X172913000Y-74780000D03*
%TO.P,REF\u002A\u002A,7*%
X172913000Y-77320000D03*
%TO.P,REF\u002A\u002A,8*%
X172913000Y-79860000D03*
%TO.P,REF\u002A\u002A,9*%
X172913000Y-82400000D03*
%TO.P,REF\u002A\u002A,10*%
X172913000Y-84940000D03*
%TO.P,REF\u002A\u002A,11*%
X172913000Y-87480000D03*
%TO.P,REF\u002A\u002A,12*%
X172913000Y-90020000D03*
%TO.P,REF\u002A\u002A,13*%
X172913000Y-92560000D03*
%TO.P,REF\u002A\u002A,14*%
X172913000Y-95100000D03*
%TO.P,REF\u002A\u002A,15*%
X172913000Y-97640000D03*
%TD*%
D12*
%TO.P,REF\u002A\u002A,1*%
%TO.N,N/C*%
X177993000Y-62080000D03*
D13*
%TO.P,REF\u002A\u002A,2*%
X177993000Y-64620000D03*
%TO.P,REF\u002A\u002A,3*%
X177993000Y-67160000D03*
%TO.P,REF\u002A\u002A,4*%
X177993000Y-69700000D03*
%TO.P,REF\u002A\u002A,5*%
X177993000Y-72240000D03*
%TO.P,REF\u002A\u002A,6*%
X177993000Y-74780000D03*
%TO.P,REF\u002A\u002A,7*%
X177993000Y-77320000D03*
%TO.P,REF\u002A\u002A,8*%
X177993000Y-79860000D03*
%TO.P,REF\u002A\u002A,9*%
X177993000Y-82400000D03*
%TO.P,REF\u002A\u002A,10*%
X177993000Y-84940000D03*
%TO.P,REF\u002A\u002A,11*%
X177993000Y-87480000D03*
%TO.P,REF\u002A\u002A,12*%
X177993000Y-90020000D03*
%TO.P,REF\u002A\u002A,13*%
X177993000Y-92560000D03*
%TO.P,REF\u002A\u002A,14*%
X177993000Y-95100000D03*
%TO.P,REF\u002A\u002A,15*%
X177993000Y-97640000D03*
%TD*%
D12*
%TO.P,REF\u002A\u002A,1*%
%TO.N,N/C*%
X167833000Y-62080000D03*
D13*
%TO.P,REF\u002A\u002A,2*%
X167833000Y-64620000D03*
%TO.P,REF\u002A\u002A,3*%
X167833000Y-67160000D03*
%TO.P,REF\u002A\u002A,4*%
X167833000Y-69700000D03*
%TO.P,REF\u002A\u002A,5*%
X167833000Y-72240000D03*
%TO.P,REF\u002A\u002A,6*%
X167833000Y-74780000D03*
%TO.P,REF\u002A\u002A,7*%
X167833000Y-77320000D03*
%TO.P,REF\u002A\u002A,8*%
X167833000Y-79860000D03*
%TO.P,REF\u002A\u002A,9*%
X167833000Y-82400000D03*
%TO.P,REF\u002A\u002A,10*%
X167833000Y-84940000D03*
%TO.P,REF\u002A\u002A,11*%
X167833000Y-87480000D03*
%TO.P,REF\u002A\u002A,12*%
X167833000Y-90020000D03*
%TO.P,REF\u002A\u002A,13*%
X167833000Y-92560000D03*
%TO.P,REF\u002A\u002A,14*%
X167833000Y-95100000D03*
%TO.P,REF\u002A\u002A,15*%
X167833000Y-97640000D03*
%TD*%
D12*
%TO.P,REF\u002A\u002A,1*%
%TO.N,N/C*%
X198313000Y-62080000D03*
D13*
%TO.P,REF\u002A\u002A,2*%
X198313000Y-64620000D03*
%TO.P,REF\u002A\u002A,3*%
X198313000Y-67160000D03*
%TO.P,REF\u002A\u002A,4*%
X198313000Y-69700000D03*
%TO.P,REF\u002A\u002A,5*%
X198313000Y-72240000D03*
%TO.P,REF\u002A\u002A,6*%
X198313000Y-74780000D03*
%TO.P,REF\u002A\u002A,7*%
X198313000Y-77320000D03*
%TO.P,REF\u002A\u002A,8*%
X198313000Y-79860000D03*
%TO.P,REF\u002A\u002A,9*%
X198313000Y-82400000D03*
%TO.P,REF\u002A\u002A,10*%
X198313000Y-84940000D03*
%TO.P,REF\u002A\u002A,11*%
X198313000Y-87480000D03*
%TO.P,REF\u002A\u002A,12*%
X198313000Y-90020000D03*
%TO.P,REF\u002A\u002A,13*%
X198313000Y-92560000D03*
%TO.P,REF\u002A\u002A,14*%
X198313000Y-95100000D03*
%TO.P,REF\u002A\u002A,15*%
X198313000Y-97640000D03*
%TD*%
D14*
%TO.P,J2,1,Pin_1*%
%TO.N,Net-(J2-Pin_1)*%
X200853000Y-97670000D03*
D13*
%TO.P,J2,2,Pin_2*%
%TO.N,Net-(J2-Pin_2)*%
X203393000Y-97670000D03*
%TO.P,J2,3,Pin_3*%
%TO.N,Net-(J2-Pin_3)*%
X200853000Y-95130000D03*
%TO.P,J2,4,Pin_4*%
%TO.N,Net-(J2-Pin_4)*%
X203393000Y-95130000D03*
%TO.P,J2,5,Pin_5*%
%TO.N,Net-(J2-Pin_5)*%
X200853000Y-92590000D03*
%TO.P,J2,6,Pin_6*%
%TO.N,Net-(J2-Pin_6)*%
X203393000Y-92590000D03*
%TO.P,J2,7,Pin_7*%
%TO.N,Net-(J2-Pin_7)*%
X200853000Y-90050000D03*
%TO.P,J2,8,Pin_8*%
%TO.N,Net-(J2-Pin_8)*%
X203393000Y-90050000D03*
%TO.P,J2,9,Pin_9*%
%TO.N,Net-(J2-Pin_9)*%
X200853000Y-87510000D03*
%TO.P,J2,10,Pin_10*%
%TO.N,Net-(J2-Pin_10)*%
X203393000Y-87510000D03*
%TO.P,J2,11,Pin_11*%
%TO.N,Net-(J2-Pin_11)*%
X200853000Y-84970000D03*
%TO.P,J2,12,Pin_12*%
%TO.N,Net-(J2-Pin_12)*%
X203393000Y-84970000D03*
%TO.P,J2,13,Pin_13*%
%TO.N,Net-(J2-Pin_13)*%
X200853000Y-82430000D03*
%TO.P,J2,14,Pin_14*%
%TO.N,Net-(J2-Pin_14)*%
X203393000Y-82430000D03*
%TO.P,J2,15,Pin_15*%
%TO.N,Net-(J2-Pin_15)*%
X200853000Y-79890000D03*
%TO.P,J2,16,Pin_16*%
%TO.N,Net-(J2-Pin_16)*%
X203393000Y-79890000D03*
%TO.P,J2,17,Pin_17*%
%TO.N,Net-(J2-Pin_17)*%
X200853000Y-77350000D03*
%TO.P,J2,18,Pin_18*%
%TO.N,Net-(J2-Pin_18)*%
X203393000Y-77350000D03*
%TO.P,J2,19,Pin_19*%
%TO.N,Net-(J2-Pin_19)*%
X200853000Y-74810000D03*
%TO.P,J2,20,Pin_20*%
%TO.N,Net-(J2-Pin_20)*%
X203393000Y-74810000D03*
%TO.P,J2,21,Pin_21*%
%TO.N,Net-(J2-Pin_21)*%
X200853000Y-72270000D03*
%TO.P,J2,22,Pin_22*%
%TO.N,Net-(J2-Pin_22)*%
X203393000Y-72270000D03*
%TO.P,J2,23,Pin_23*%
%TO.N,Net-(J2-Pin_23)*%
X200853000Y-69730000D03*
%TO.P,J2,24,Pin_24*%
%TO.N,Net-(J2-Pin_24)*%
X203393000Y-69730000D03*
%TO.P,J2,25,Pin_25*%
%TO.N,Net-(J2-Pin_25)*%
X200853000Y-67190000D03*
%TO.P,J2,26,Pin_26*%
%TO.N,Net-(J2-Pin_26)*%
X203393000Y-67190000D03*
%TO.P,J2,27,Pin_27*%
%TO.N,Net-(J2-Pin_27)*%
X200853000Y-64650000D03*
%TO.P,J2,28,Pin_28*%
%TO.N,Net-(J2-Pin_28)*%
X203393000Y-64650000D03*
%TO.P,J2,29,Pin_29*%
%TO.N,Net-(J2-Pin_29)*%
X200853000Y-62110000D03*
%TO.P,J2,30,Pin_30*%
%TO.N,Net-(J2-Pin_30)*%
X203393000Y-62110000D03*
%TO.P,J2,31,Pin_31*%
%TO.N,Net-(J2-Pin_31)*%
X200853000Y-59570000D03*
%TO.P,J2,32,Pin_32*%
%TO.N,Net-(J2-Pin_32)*%
X203393000Y-59570000D03*
%TD*%
D12*
%TO.P,REF\u002A\u002A,1*%
%TO.N,N/C*%
X193233000Y-62080000D03*
D13*
%TO.P,REF\u002A\u002A,2*%
X193233000Y-64620000D03*
%TO.P,REF\u002A\u002A,3*%
X193233000Y-67160000D03*
%TO.P,REF\u002A\u002A,4*%
X193233000Y-69700000D03*
%TO.P,REF\u002A\u002A,5*%
X193233000Y-72240000D03*
%TO.P,REF\u002A\u002A,6*%
X193233000Y-74780000D03*
%TO.P,REF\u002A\u002A,7*%
X193233000Y-77320000D03*
%TO.P,REF\u002A\u002A,8*%
X193233000Y-79860000D03*
%TO.P,REF\u002A\u002A,9*%
X193233000Y-82400000D03*
%TO.P,REF\u002A\u002A,10*%
X193233000Y-84940000D03*
%TO.P,REF\u002A\u002A,11*%
X193233000Y-87480000D03*
%TO.P,REF\u002A\u002A,12*%
X193233000Y-90020000D03*
%TO.P,REF\u002A\u002A,13*%
X193233000Y-92560000D03*
%TO.P,REF\u002A\u002A,14*%
X193233000Y-95100000D03*
%TO.P,REF\u002A\u002A,15*%
X193233000Y-97640000D03*
%TD*%
D14*
%TO.P,J8,1,Pin_1*%
%TO.N,Net-(J1-Pin_4)*%
X162753000Y-97670000D03*
D13*
%TO.P,J8,2,Pin_2*%
%TO.N,Net-(J1-Pin_3)*%
X162753000Y-95130000D03*
%TO.P,J8,3,Pin_3*%
%TO.N,Net-(J1-Pin_2)*%
X162753000Y-92590000D03*
%TO.P,J8,4,Pin_4*%
%TO.N,Net-(J1-Pin_1)*%
X162753000Y-90050000D03*
%TD*%
D14*
%TO.P,J5,1,Pin_1*%
%TO.N,Net-(J5-Pin_1)*%
X185628000Y-100185000D03*
D13*
%TO.P,J5,2,Pin_2*%
%TO.N,Net-(J5-Pin_2)*%
X188168000Y-100185000D03*
%TO.P,J5,3,Pin_3*%
%TO.N,Net-(J5-Pin_3)*%
X190708000Y-100185000D03*
%TO.P,J5,4,Pin_4*%
%TO.N,Net-(J5-Pin_4)*%
X193248000Y-100185000D03*
%TO.P,J5,5,Pin_5*%
%TO.N,Net-(J5-Pin_5)*%
X195788000Y-100185000D03*
%TO.P,J5,6,Pin_6*%
%TO.N,Net-(J5-Pin_6)*%
X198328000Y-100185000D03*
%TO.P,J5,7,Pin_7*%
%TO.N,Net-(J5-Pin_7)*%
X200868000Y-100185000D03*
%TO.P,J5,8,Pin_8*%
%TO.N,Net-(J5-Pin_8)*%
X203408000Y-100185000D03*
%TD*%
D12*
%TO.P,REF\u002A\u002A,1*%
%TO.N,N/C*%
X188153000Y-62080000D03*
D13*
%TO.P,REF\u002A\u002A,2*%
X188153000Y-64620000D03*
%TO.P,REF\u002A\u002A,3*%
X188153000Y-67160000D03*
%TO.P,REF\u002A\u002A,4*%
X188153000Y-69700000D03*
%TO.P,REF\u002A\u002A,5*%
X188153000Y-72240000D03*
%TO.P,REF\u002A\u002A,6*%
X188153000Y-74780000D03*
%TO.P,REF\u002A\u002A,7*%
X188153000Y-77320000D03*
%TO.P,REF\u002A\u002A,8*%
X188153000Y-79860000D03*
%TO.P,REF\u002A\u002A,9*%
X188153000Y-82400000D03*
%TO.P,REF\u002A\u002A,10*%
X188153000Y-84940000D03*
%TO.P,REF\u002A\u002A,11*%
X188153000Y-87480000D03*
%TO.P,REF\u002A\u002A,12*%
X188153000Y-90020000D03*
%TO.P,REF\u002A\u002A,13*%
X188153000Y-92560000D03*
%TO.P,REF\u002A\u002A,14*%
X188153000Y-95100000D03*
%TO.P,REF\u002A\u002A,15*%
X188153000Y-97640000D03*
%TD*%
D12*
%TO.P,REF\u002A\u002A,1*%
%TO.N,N/C*%
X165293000Y-62080000D03*
D13*
%TO.P,REF\u002A\u002A,2*%
X165293000Y-64620000D03*
%TO.P,REF\u002A\u002A,3*%
X165293000Y-67160000D03*
%TO.P,REF\u002A\u002A,4*%
X165293000Y-69700000D03*
%TO.P,REF\u002A\u002A,5*%
X165293000Y-72240000D03*
%TO.P,REF\u002A\u002A,6*%
X165293000Y-74780000D03*
%TO.P,REF\u002A\u002A,7*%
X165293000Y-77320000D03*
%TO.P,REF\u002A\u002A,8*%
X165293000Y-79860000D03*
%TO.P,REF\u002A\u002A,9*%
X165293000Y-82400000D03*
%TO.P,REF\u002A\u002A,10*%
X165293000Y-84940000D03*
%TO.P,REF\u002A\u002A,11*%
X165293000Y-87480000D03*
%TO.P,REF\u002A\u002A,12*%
X165293000Y-90020000D03*
%TO.P,REF\u002A\u002A,13*%
X165293000Y-92560000D03*
%TO.P,REF\u002A\u002A,14*%
X165293000Y-95100000D03*
%TO.P,REF\u002A\u002A,15*%
X165293000Y-97640000D03*
%TD*%
D14*
%TO.P,J4,1,Pin_1*%
%TO.N,Net-(J4-Pin_1)*%
X165293000Y-100210000D03*
D13*
%TO.P,J4,2,Pin_2*%
%TO.N,Net-(J4-Pin_2)*%
X167833000Y-100210000D03*
%TO.P,J4,3,Pin_3*%
%TO.N,Net-(J4-Pin_3)*%
X170373000Y-100210000D03*
%TO.P,J4,4,Pin_4*%
%TO.N,Net-(J4-Pin_4)*%
X172913000Y-100210000D03*
%TO.P,J4,5,Pin_5*%
%TO.N,Net-(J4-Pin_5)*%
X175453000Y-100210000D03*
%TO.P,J4,6,Pin_6*%
%TO.N,Net-(J4-Pin_6)*%
X177993000Y-100210000D03*
%TO.P,J4,7,Pin_7*%
%TO.N,Net-(J4-Pin_7)*%
X180533000Y-100210000D03*
%TD*%
D14*
%TO.P,J9,1,Pin_1*%
%TO.N,Net-(J1-Pin_4)*%
X162753000Y-84970000D03*
D13*
%TO.P,J9,2,Pin_2*%
%TO.N,Net-(J1-Pin_3)*%
X162753000Y-82430000D03*
%TO.P,J9,3,Pin_3*%
%TO.N,Net-(J1-Pin_2)*%
X162753000Y-79890000D03*
%TO.P,J9,4,Pin_4*%
%TO.N,Net-(J1-Pin_1)*%
X162753000Y-77350000D03*
%TD*%
D12*
%TO.P,REF\u002A\u002A,1*%
%TO.N,N/C*%
X190693000Y-62080000D03*
D13*
%TO.P,REF\u002A\u002A,2*%
X190693000Y-64620000D03*
%TO.P,REF\u002A\u002A,3*%
X190693000Y-67160000D03*
%TO.P,REF\u002A\u002A,4*%
X190693000Y-69700000D03*
%TO.P,REF\u002A\u002A,5*%
X190693000Y-72240000D03*
%TO.P,REF\u002A\u002A,6*%
X190693000Y-74780000D03*
%TO.P,REF\u002A\u002A,7*%
X190693000Y-77320000D03*
%TO.P,REF\u002A\u002A,8*%
X190693000Y-79860000D03*
%TO.P,REF\u002A\u002A,9*%
X190693000Y-82400000D03*
%TO.P,REF\u002A\u002A,10*%
X190693000Y-84940000D03*
%TO.P,REF\u002A\u002A,11*%
X190693000Y-87480000D03*
%TO.P,REF\u002A\u002A,12*%
X190693000Y-90020000D03*
%TO.P,REF\u002A\u002A,13*%
X190693000Y-92560000D03*
%TO.P,REF\u002A\u002A,14*%
X190693000Y-95100000D03*
%TO.P,REF\u002A\u002A,15*%
X190693000Y-97640000D03*
%TD*%
D12*
%TO.P,REF\u002A\u002A,1*%
%TO.N,N/C*%
X170373000Y-62080000D03*
D13*
%TO.P,REF\u002A\u002A,2*%
X170373000Y-64620000D03*
%TO.P,REF\u002A\u002A,3*%
X170373000Y-67160000D03*
%TO.P,REF\u002A\u002A,4*%
X170373000Y-69700000D03*
%TO.P,REF\u002A\u002A,5*%
X170373000Y-72240000D03*
%TO.P,REF\u002A\u002A,6*%
X170373000Y-74780000D03*
%TO.P,REF\u002A\u002A,7*%
X170373000Y-77320000D03*
%TO.P,REF\u002A\u002A,8*%
X170373000Y-79860000D03*
%TO.P,REF\u002A\u002A,9*%
X170373000Y-82400000D03*
%TO.P,REF\u002A\u002A,10*%
X170373000Y-84940000D03*
%TO.P,REF\u002A\u002A,11*%
X170373000Y-87480000D03*
%TO.P,REF\u002A\u002A,12*%
X170373000Y-90020000D03*
%TO.P,REF\u002A\u002A,13*%
X170373000Y-92560000D03*
%TO.P,REF\u002A\u002A,14*%
X170373000Y-95100000D03*
%TO.P,REF\u002A\u002A,15*%
X170373000Y-97640000D03*
%TD*%
D14*
%TO.P,J1,1,Pin_1*%
%TO.N,Net-(J1-Pin_1)*%
X160213000Y-64620000D03*
D13*
%TO.P,J1,2,Pin_2*%
%TO.N,Net-(J1-Pin_2)*%
X160213000Y-67160000D03*
%TO.P,J1,3,Pin_3*%
%TO.N,Net-(J1-Pin_3)*%
X160213000Y-69700000D03*
%TO.P,J1,4,Pin_4*%
%TO.N,Net-(J1-Pin_4)*%
X160213000Y-72240000D03*
%TD*%
D12*
%TO.P,REF\u002A\u002A,1*%
%TO.N,N/C*%
X185613000Y-62080000D03*
D13*
%TO.P,REF\u002A\u002A,2*%
X185613000Y-64620000D03*
%TO.P,REF\u002A\u002A,3*%
X185613000Y-67160000D03*
%TO.P,REF\u002A\u002A,4*%
X185613000Y-69700000D03*
%TO.P,REF\u002A\u002A,5*%
X185613000Y-72240000D03*
%TO.P,REF\u002A\u002A,6*%
X185613000Y-74780000D03*
%TO.P,REF\u002A\u002A,7*%
X185613000Y-77320000D03*
%TO.P,REF\u002A\u002A,8*%
X185613000Y-79860000D03*
%TO.P,REF\u002A\u002A,9*%
X185613000Y-82400000D03*
%TO.P,REF\u002A\u002A,10*%
X185613000Y-84940000D03*
%TO.P,REF\u002A\u002A,11*%
X185613000Y-87480000D03*
%TO.P,REF\u002A\u002A,12*%
X185613000Y-90020000D03*
%TO.P,REF\u002A\u002A,13*%
X185613000Y-92560000D03*
%TO.P,REF\u002A\u002A,14*%
X185613000Y-95100000D03*
%TO.P,REF\u002A\u002A,15*%
X185613000Y-97640000D03*
%TD*%
D12*
%TO.P,REF\u002A\u002A,1*%
%TO.N,N/C*%
X180533000Y-62080000D03*
D13*
%TO.P,REF\u002A\u002A,2*%
X180533000Y-64620000D03*
%TO.P,REF\u002A\u002A,3*%
X180533000Y-67160000D03*
%TO.P,REF\u002A\u002A,4*%
X180533000Y-69700000D03*
%TO.P,REF\u002A\u002A,5*%
X180533000Y-72240000D03*
%TO.P,REF\u002A\u002A,6*%
X180533000Y-74780000D03*
%TO.P,REF\u002A\u002A,7*%
X180533000Y-77320000D03*
%TO.P,REF\u002A\u002A,8*%
X180533000Y-79860000D03*
%TO.P,REF\u002A\u002A,9*%
X180533000Y-82400000D03*
%TO.P,REF\u002A\u002A,10*%
X180533000Y-84940000D03*
%TO.P,REF\u002A\u002A,11*%
X180533000Y-87480000D03*
%TO.P,REF\u002A\u002A,12*%
X180533000Y-90020000D03*
%TO.P,REF\u002A\u002A,13*%
X180533000Y-92560000D03*
%TO.P,REF\u002A\u002A,14*%
X180533000Y-95100000D03*
%TO.P,REF\u002A\u002A,15*%
X180533000Y-97640000D03*
%TD*%
D14*
%TO.P,J3,1,Pin_1*%
%TO.N,Net-(J1-Pin_4)*%
X162753000Y-72270000D03*
D13*
%TO.P,J3,2,Pin_2*%
%TO.N,Net-(J1-Pin_3)*%
X162753000Y-69730000D03*
%TO.P,J3,3,Pin_3*%
%TO.N,Net-(J1-Pin_2)*%
X162753000Y-67190000D03*
%TO.P,J3,4,Pin_4*%
%TO.N,Net-(J1-Pin_1)*%
X162753000Y-64650000D03*
%TD*%
D12*
%TO.P,REF\u002A\u002A,1*%
%TO.N,N/C*%
X175453000Y-62080000D03*
D13*
%TO.P,REF\u002A\u002A,2*%
X175453000Y-64620000D03*
%TO.P,REF\u002A\u002A,3*%
X175453000Y-67160000D03*
%TO.P,REF\u002A\u002A,4*%
X175453000Y-69700000D03*
%TO.P,REF\u002A\u002A,5*%
X175453000Y-72240000D03*
%TO.P,REF\u002A\u002A,6*%
X175453000Y-74780000D03*
%TO.P,REF\u002A\u002A,7*%
X175453000Y-77320000D03*
%TO.P,REF\u002A\u002A,8*%
X175453000Y-79860000D03*
%TO.P,REF\u002A\u002A,9*%
X175453000Y-82400000D03*
%TO.P,REF\u002A\u002A,10*%
X175453000Y-84940000D03*
%TO.P,REF\u002A\u002A,11*%
X175453000Y-87480000D03*
%TO.P,REF\u002A\u002A,12*%
X175453000Y-90020000D03*
%TO.P,REF\u002A\u002A,13*%
X175453000Y-92560000D03*
%TO.P,REF\u002A\u002A,14*%
X175453000Y-95100000D03*
%TO.P,REF\u002A\u002A,15*%
X175453000Y-97640000D03*
%TD*%
D12*
%TO.P,REF\u002A\u002A,1*%
%TO.N,N/C*%
X183073000Y-62080000D03*
D13*
%TO.P,REF\u002A\u002A,2*%
X183073000Y-64620000D03*
%TO.P,REF\u002A\u002A,3*%
X183073000Y-67160000D03*
%TO.P,REF\u002A\u002A,4*%
X183073000Y-69700000D03*
%TO.P,REF\u002A\u002A,5*%
X183073000Y-72240000D03*
%TO.P,REF\u002A\u002A,6*%
X183073000Y-74780000D03*
%TO.P,REF\u002A\u002A,7*%
X183073000Y-77320000D03*
%TO.P,REF\u002A\u002A,8*%
X183073000Y-79860000D03*
%TO.P,REF\u002A\u002A,9*%
X183073000Y-82400000D03*
%TO.P,REF\u002A\u002A,10*%
X183073000Y-84940000D03*
%TO.P,REF\u002A\u002A,11*%
X183073000Y-87480000D03*
%TO.P,REF\u002A\u002A,12*%
X183073000Y-90020000D03*
%TO.P,REF\u002A\u002A,13*%
X183073000Y-92560000D03*
%TO.P,REF\u002A\u002A,14*%
X183073000Y-95100000D03*
%TO.P,REF\u002A\u002A,15*%
X183073000Y-97640000D03*
%TD*%
D15*
%TO.N,Net-(J1-Pin_1)*%
X156933000Y-90050000D03*
%TO.N,Net-(J1-Pin_2)*%
X159578000Y-92560000D03*
X160707001Y-76050000D03*
%TO.N,Net-(J1-Pin_3)*%
X158308000Y-95100000D03*
X158307502Y-82400000D03*
%TO.N,Net-(J1-Pin_4)*%
X157927000Y-63096000D03*
X160990676Y-81200500D03*
%TD*%
D16*
%TO.N,Net-(J1-Pin_1)*%
X162753000Y-90050000D02*
X156933000Y-90050000D01*
X156903000Y-90020000D02*
X156933000Y-90050000D01*
%TO.N,Net-(J1-Pin_2)*%
X159608000Y-92590000D02*
X159578000Y-92560000D01*
X162753000Y-79890000D02*
X160707001Y-77844001D01*
X160707001Y-77844001D02*
X160707001Y-76050000D01*
X162753000Y-92590000D02*
X159608000Y-92590000D01*
%TO.N,Net-(J1-Pin_3)*%
X162723000Y-82400000D02*
X158307502Y-82400000D01*
X160213000Y-69700000D02*
X158307501Y-71605499D01*
X162753000Y-95130000D02*
X158338000Y-95130000D01*
X162753000Y-82430000D02*
X162723000Y-82400000D01*
X158307501Y-71605499D02*
X158307502Y-82400000D01*
X158338000Y-95130000D02*
X158308000Y-95100000D01*
%TO.N,Net-(J1-Pin_4)*%
X159507501Y-72945499D02*
X159507501Y-79717325D01*
X160213000Y-72240000D02*
X159507501Y-72945499D01*
X159507501Y-79717325D02*
X160990676Y-81200500D01*
D17*
%TO.N,Net-(J2-Pin_2)*%
X203393000Y-97670000D02*
X203393000Y-97640000D01*
X203393000Y-97640000D02*
X205933000Y-95100000D01*
%TO.N,Net-(J2-Pin_4)*%
X203393000Y-95100000D02*
X205933000Y-92560000D01*
X203393000Y-95130000D02*
X203393000Y-95100000D01*
%TO.N,Net-(J2-Pin_6)*%
X203393000Y-92560000D02*
X205933000Y-90020000D01*
X203393000Y-92590000D02*
X203393000Y-92560000D01*
%TO.N,Net-(J2-Pin_8)*%
X203393000Y-90020000D02*
X205933000Y-87480000D01*
X203393000Y-90050000D02*
X203393000Y-90020000D01*
%TO.N,Net-(J2-Pin_10)*%
X203393000Y-87510000D02*
X203393000Y-87480000D01*
X203393000Y-87480000D02*
X205933000Y-84940000D01*
%TO.N,Net-(J2-Pin_12)*%
X203393000Y-84970000D02*
X203393000Y-84940000D01*
X203393000Y-84940000D02*
X205933000Y-82400000D01*
%TO.N,Net-(J2-Pin_14)*%
X203393000Y-82400000D02*
X205933000Y-79860000D01*
X203393000Y-82430000D02*
X203393000Y-82400000D01*
%TO.N,Net-(J2-Pin_16)*%
X203393000Y-79860000D02*
X205933000Y-77320000D01*
X203393000Y-79890000D02*
X203393000Y-79860000D01*
%TO.N,Net-(J2-Pin_18)*%
X203393000Y-77350000D02*
X203393000Y-77320000D01*
X203393000Y-77320000D02*
X205933000Y-74780000D01*
%TO.N,Net-(J2-Pin_20)*%
X203393000Y-74810000D02*
X203393000Y-74780000D01*
X203393000Y-74780000D02*
X205933000Y-72240000D01*
%TO.N,Net-(J2-Pin_22)*%
X203393000Y-72240000D02*
X205933000Y-69700000D01*
X203393000Y-72270000D02*
X203393000Y-72240000D01*
%TO.N,Net-(J2-Pin_24)*%
X203393000Y-69730000D02*
X203393000Y-69700000D01*
X203393000Y-69700000D02*
X205933000Y-67160000D01*
%TO.N,Net-(J2-Pin_26)*%
X203393000Y-67160000D02*
X205933000Y-64620000D01*
X203393000Y-67190000D02*
X203393000Y-67160000D01*
%TO.N,Net-(J2-Pin_28)*%
X205933000Y-62110000D02*
X205933000Y-62080000D01*
X203393000Y-64650000D02*
X205933000Y-62110000D01*
%TO.N,Net-(J2-Pin_30)*%
X203393000Y-62110000D02*
X203393000Y-62080000D01*
X203393000Y-62080000D02*
X205933000Y-59540000D01*
%TO.N,Net-(J2-Pin_32)*%
X203393000Y-59540000D02*
X205933000Y-57000000D01*
X203393000Y-59570000D02*
X203393000Y-59540000D01*
%TD*%
%TA.AperFunction,Conductor*%
%TO.N,Net-(J1-Pin_4)*%
G36*
X210955539Y-51940185D02*
G01*
X211001294Y-51992989D01*
X211012500Y-52044500D01*
X211012500Y-105136000D01*
X210992815Y-105203039D01*
X210940011Y-105248794D01*
X210888500Y-105260000D01*
X156527500Y-105260000D01*
X156460461Y-105240315D01*
X156414706Y-105187511D01*
X156403500Y-105136000D01*
X156403500Y-91103599D01*
X156423185Y-91036560D01*
X156475989Y-90990805D01*
X156545147Y-90980861D01*
X156561595Y-90984379D01*
X156589200Y-90992277D01*
X156603970Y-90997535D01*
X156631942Y-91009540D01*
X156631945Y-91009540D01*
X156631946Y-91009541D01*
X156689726Y-91021414D01*
X156698869Y-91023657D01*
X156755582Y-91039886D01*
X156785920Y-91042196D01*
X156801448Y-91044373D01*
X156831259Y-91050500D01*
X156890244Y-91050500D01*
X156899659Y-91050858D01*
X156903806Y-91051173D01*
X156958476Y-91055337D01*
X156985278Y-91051923D01*
X156988652Y-91051494D01*
X157004317Y-91050500D01*
X161792242Y-91050500D01*
X161859281Y-91070185D01*
X161879923Y-91086819D01*
X161881599Y-91088495D01*
X162067160Y-91218426D01*
X162110783Y-91273002D01*
X162117976Y-91342501D01*
X162086454Y-91404855D01*
X162067158Y-91421575D01*
X161924440Y-91521508D01*
X161881595Y-91551508D01*
X161879923Y-91553181D01*
X161876669Y-91554957D01*
X161872713Y-91557728D01*
X161872403Y-91557286D01*
X161818600Y-91586666D01*
X161792242Y-91589500D01*
X159840562Y-91589500D01*
X159806449Y-91584715D01*
X159791264Y-91580370D01*
X159755417Y-91570112D01*
X159581235Y-91556849D01*
X159552524Y-91554663D01*
X159552523Y-91554663D01*
X159552522Y-91554663D01*
X159350675Y-91580369D01*
X159350672Y-91580369D01*
X159350672Y-91580370D01*
X159158127Y-91646184D01*
X159158128Y-91646184D01*
X158982773Y-91749410D01*
X158831784Y-91885823D01*
X158711349Y-92049833D01*
X158626394Y-92234730D01*
X158580396Y-92432946D01*
X158575242Y-92636361D01*
X158611142Y-92836654D01*
X158686623Y-93025619D01*
X158798594Y-93195515D01*
X158798597Y-93195518D01*
X158798598Y-93195519D01*
X158890488Y-93287409D01*
X158892643Y-93289620D01*
X158952942Y-93353054D01*
X159001349Y-93386746D01*
X159008869Y-93392415D01*
X159054592Y-93429698D01*
X159081565Y-93443787D01*
X159094983Y-93451917D01*
X159119951Y-93469295D01*
X159163594Y-93488023D01*
X159174151Y-93492554D01*
X159182661Y-93496596D01*
X159234947Y-93523907D01*
X159234951Y-93523909D01*
X159264200Y-93532277D01*
X159278970Y-93537535D01*
X159306942Y-93549540D01*
X159306945Y-93549540D01*
X159306946Y-93549541D01*
X159364726Y-93561414D01*
X159373869Y-93563657D01*
X159430582Y-93579886D01*
X159460920Y-93582196D01*
X159476448Y-93584373D01*
X159506259Y-93590500D01*
X159565244Y-93590500D01*
X159574659Y-93590858D01*
X159578806Y-93591173D01*
X159633476Y-93595337D01*
X159660278Y-93591923D01*
X159663652Y-93591494D01*
X159679317Y-93590500D01*
X161792242Y-93590500D01*
X161859281Y-93610185D01*
X161879923Y-93626819D01*
X161881599Y-93628495D01*
X162067160Y-93758426D01*
X162110783Y-93813002D01*
X162117976Y-93882501D01*
X162086454Y-93944855D01*
X162067158Y-93961575D01*
X161924440Y-94061508D01*
X161881595Y-94091508D01*
X161879923Y-94093181D01*
X161876669Y-94094957D01*
X161872713Y-94097728D01*
X161872403Y-94097286D01*
X161818600Y-94126666D01*
X161792242Y-94129500D01*
X158570562Y-94129500D01*
X158536449Y-94124715D01*
X158521264Y-94120370D01*
X158485417Y-94110112D01*
X158311235Y-94096849D01*
X158282524Y-94094663D01*
X158282523Y-94094663D01*
X158282522Y-94094663D01*
X158080675Y-94120369D01*
X158080672Y-94120369D01*
X158080672Y-94120370D01*
X157888127Y-94186184D01*
X157888128Y-94186184D01*
X157712773Y-94289410D01*
X157561784Y-94425823D01*
X157441349Y-94589833D01*
X157356394Y-94774730D01*
X157310396Y-94972946D01*
X157305242Y-95176361D01*
X157341142Y-95376654D01*
X157416623Y-95565619D01*
X157528594Y-95735515D01*
X157528597Y-95735518D01*
X157528598Y-95735519D01*
X157620488Y-95827409D01*
X157622643Y-95829620D01*
X157682942Y-95893054D01*
X157731349Y-95926746D01*
X157738869Y-95932415D01*
X157784592Y-95969698D01*
X157811565Y-95983787D01*
X157824983Y-95991917D01*
X157849951Y-96009295D01*
X157893594Y-96028023D01*
X157904151Y-96032554D01*
X157912661Y-96036596D01*
X157964947Y-96063907D01*
X157964951Y-96063909D01*
X157994200Y-96072277D01*
X158008970Y-96077535D01*
X158036942Y-96089540D01*
X158036945Y-96089540D01*
X158036946Y-96089541D01*
X158094726Y-96101414D01*
X158103869Y-96103657D01*
X158160582Y-96119886D01*
X158190920Y-96122196D01*
X158206448Y-96124373D01*
X158236259Y-96130500D01*
X158295244Y-96130500D01*
X158304659Y-96130858D01*
X158308806Y-96131173D01*
X158363476Y-96135337D01*
X158390278Y-96131923D01*
X158393652Y-96131494D01*
X158409317Y-96130500D01*
X161633572Y-96130500D01*
X161700611Y-96150185D01*
X161746366Y-96202989D01*
X161756310Y-96272147D01*
X161727285Y-96335703D01*
X161676905Y-96370682D01*
X161660911Y-96376647D01*
X161545811Y-96462811D01*
X161459647Y-96577910D01*
X161409400Y-96712628D01*
X161403354Y-96768867D01*
X161403000Y-96775481D01*
X161403000Y-97420000D01*
X162319314Y-97420000D01*
X162293507Y-97460156D01*
X162253000Y-97598111D01*
X162253000Y-97741889D01*
X162293507Y-97879844D01*
X162319314Y-97920000D01*
X161403000Y-97920000D01*
X161403000Y-98564518D01*
X161403354Y-98571132D01*
X161409400Y-98627371D01*
X161459647Y-98762089D01*
X161545811Y-98877188D01*
X161660910Y-98963352D01*
X161795628Y-99013599D01*
X161851867Y-99019645D01*
X161858482Y-99020000D01*
X162503000Y-99020000D01*
X162503000Y-98105501D01*
X162610685Y-98154680D01*
X162717237Y-98170000D01*
X162788763Y-98170000D01*
X162895315Y-98154680D01*
X163003000Y-98105501D01*
X163003000Y-99020000D01*
X163647518Y-99020000D01*
X163654132Y-99019645D01*
X163710371Y-99013599D01*
X163836563Y-98966532D01*
X163906255Y-98961548D01*
X163967578Y-98995033D01*
X164001063Y-99056356D01*
X163996079Y-99126047D01*
X163948909Y-99252514D01*
X163947198Y-99268431D01*
X163942500Y-99312127D01*
X163942500Y-99315448D01*
X163942500Y-99315449D01*
X163942500Y-101104560D01*
X163942500Y-101104578D01*
X163942501Y-101107872D01*
X163942853Y-101111152D01*
X163942854Y-101111159D01*
X163948909Y-101167484D01*
X163950802Y-101172559D01*
X163999204Y-101302331D01*
X164085454Y-101417546D01*
X164200669Y-101503796D01*
X164294220Y-101538688D01*
X164350154Y-101580559D01*
X164374571Y-101646024D01*
X164359719Y-101714297D01*
X164342117Y-101738853D01*
X164212845Y-101879279D01*
X164089196Y-102068537D01*
X164023000Y-102219451D01*
X163998389Y-102275559D01*
X163942893Y-102494707D01*
X163942892Y-102494711D01*
X163924224Y-102719999D01*
X163942892Y-102945288D01*
X163942892Y-102945291D01*
X163942893Y-102945293D01*
X163971185Y-103057016D01*
X163998390Y-103164443D01*
X164089196Y-103371462D01*
X164212847Y-103560724D01*
X164365950Y-103727037D01*
X164365954Y-103727040D01*
X164544351Y-103865893D01*
X164743169Y-103973488D01*
X164956986Y-104046891D01*
X165179967Y-104084100D01*
X165179968Y-104084100D01*
X165406032Y-104084100D01*
X165406033Y-104084100D01*
X165629014Y-104046891D01*
X165842831Y-103973488D01*
X166041649Y-103865893D01*
X166220046Y-103727040D01*
X166373156Y-103560719D01*
X166459192Y-103429032D01*
X166512338Y-103383676D01*
X166581569Y-103374252D01*
X166644905Y-103403754D01*
X166666809Y-103429033D01*
X166752845Y-103560721D01*
X166905950Y-103727037D01*
X166905954Y-103727040D01*
X167084351Y-103865893D01*
X167283169Y-103973488D01*
X167496986Y-104046891D01*
X167719967Y-104084100D01*
X167719968Y-104084100D01*
X167946032Y-104084100D01*
X167946033Y-104084100D01*
X168169014Y-104046891D01*
X168382831Y-103973488D01*
X168581649Y-103865893D01*
X168760046Y-103727040D01*
X168913156Y-103560719D01*
X168999192Y-103429032D01*
X169052338Y-103383676D01*
X169121569Y-103374252D01*
X169184905Y-103403754D01*
X169206809Y-103429033D01*
X169292845Y-103560721D01*
X169445950Y-103727037D01*
X169445954Y-103727040D01*
X169624351Y-103865893D01*
X169823169Y-103973488D01*
X170036986Y-104046891D01*
X170259967Y-104084100D01*
X170259968Y-104084100D01*
X170486032Y-104084100D01*
X170486033Y-104084100D01*
X170709014Y-104046891D01*
X170922831Y-103973488D01*
X171121649Y-103865893D01*
X171300046Y-103727040D01*
X171453156Y-103560719D01*
X171539192Y-103429032D01*
X171592338Y-103383676D01*
X171661569Y-103374252D01*
X171724905Y-103403754D01*
X171746809Y-103429033D01*
X171832845Y-103560721D01*
X171985950Y-103727037D01*
X171985954Y-103727040D01*
X172164351Y-103865893D01*
X172363169Y-103973488D01*
X172576986Y-104046891D01*
X172799967Y-104084100D01*
X172799968Y-104084100D01*
X173026032Y-104084100D01*
X173026033Y-104084100D01*
X173249014Y-104046891D01*
X173462831Y-103973488D01*
X173661649Y-103865893D01*
X173840046Y-103727040D01*
X173840049Y-103727037D01*
X173993154Y-103560722D01*
X173993156Y-103560719D01*
X174079192Y-103429031D01*
X174132336Y-103383676D01*
X174201567Y-103374252D01*
X174264903Y-103403753D01*
X174286807Y-103429032D01*
X174372843Y-103560720D01*
X174525950Y-103727037D01*
X174525954Y-103727040D01*
X174704351Y-103865893D01*
X174903169Y-103973488D01*
X175116986Y-104046891D01*
X175339967Y-104084100D01*
X175339968Y-104084100D01*
X175566032Y-104084100D01*
X175566033Y-104084100D01*
X175789014Y-104046891D01*
X176002831Y-103973488D01*
X176201649Y-103865893D01*
X176380046Y-103727040D01*
X176380049Y-103727037D01*
X176533154Y-103560722D01*
X176533156Y-103560719D01*
X176619192Y-103429031D01*
X176672336Y-103383676D01*
X176741567Y-103374252D01*
X176804903Y-103403753D01*
X176826807Y-103429032D01*
X176912843Y-103560720D01*
X177065950Y-103727037D01*
X177065954Y-103727040D01*
X177244351Y-103865893D01*
X177443169Y-103973488D01*
X177656986Y-104046891D01*
X177879967Y-104084100D01*
X177879968Y-104084100D01*
X178106032Y-104084100D01*
X178106033Y-104084100D01*
X178329014Y-104046891D01*
X178542831Y-103973488D01*
X178741649Y-103865893D01*
X178920046Y-103727040D01*
X179073156Y-103560719D01*
X179159192Y-103429032D01*
X179212338Y-103383676D01*
X179281569Y-103374252D01*
X179344905Y-103403754D01*
X179366809Y-103429033D01*
X179452845Y-103560721D01*
X179605950Y-103727037D01*
X179605954Y-103727040D01*
X179784351Y-103865893D01*
X179983169Y-103973488D01*
X180196986Y-104046891D01*
X180419967Y-104084100D01*
X180419968Y-104084100D01*
X180646032Y-104084100D01*
X180646033Y-104084100D01*
X180869014Y-104046891D01*
X181082831Y-103973488D01*
X181281649Y-103865893D01*
X181460046Y-103727040D01*
X181497293Y-103686579D01*
X181613152Y-103560724D01*
X181613155Y-103560720D01*
X181613156Y-103560719D01*
X181736802Y-103371465D01*
X181827611Y-103164441D01*
X181883107Y-102945293D01*
X181901775Y-102720000D01*
X181883107Y-102494707D01*
X181827611Y-102275559D01*
X181736802Y-102068535D01*
X181613156Y-101879281D01*
X181613155Y-101879280D01*
X181613152Y-101879275D01*
X181460049Y-101712962D01*
X181281646Y-101574105D01*
X181265092Y-101565147D01*
X181215500Y-101515928D01*
X181200391Y-101447712D01*
X181224562Y-101382156D01*
X181252982Y-101354519D01*
X181404401Y-101248495D01*
X181571495Y-101081401D01*
X181707035Y-100887830D01*
X181806903Y-100673663D01*
X181868063Y-100445408D01*
X181888659Y-100210000D01*
X181868063Y-99974592D01*
X181806903Y-99746337D01*
X181707035Y-99532171D01*
X181571495Y-99338599D01*
X181404401Y-99171505D01*
X181210830Y-99035965D01*
X181210826Y-99035963D01*
X181201943Y-99029743D01*
X181203181Y-99027974D01*
X181161422Y-98991197D01*
X181142277Y-98924002D01*
X181162500Y-98857123D01*
X181203118Y-98821935D01*
X181201943Y-98820257D01*
X181210826Y-98814036D01*
X181210830Y-98814035D01*
X181404401Y-98678495D01*
X181571495Y-98511401D01*
X181701426Y-98325839D01*
X181756002Y-98282216D01*
X181825500Y-98275022D01*
X181887855Y-98306545D01*
X181904571Y-98325837D01*
X182034505Y-98511401D01*
X182201599Y-98678495D01*
X182395170Y-98814035D01*
X182609337Y-98913903D01*
X182837592Y-98975063D01*
X183073000Y-98995659D01*
X183308408Y-98975063D01*
X183536663Y-98913903D01*
X183750830Y-98814035D01*
X183944401Y-98678495D01*
X184111495Y-98511401D01*
X184241426Y-98325839D01*
X184296002Y-98282217D01*
X184365501Y-98275024D01*
X184427855Y-98306546D01*
X184444571Y-98325837D01*
X184574505Y-98511401D01*
X184574508Y-98511404D01*
X184704147Y-98641043D01*
X184737632Y-98702366D01*
X184732648Y-98772058D01*
X184690776Y-98827991D01*
X184659800Y-98844906D01*
X184535668Y-98891204D01*
X184420454Y-98977454D01*
X184334204Y-99092668D01*
X184292007Y-99205806D01*
X184283909Y-99227517D01*
X184277500Y-99287127D01*
X184277500Y-99290448D01*
X184277500Y-99290449D01*
X184277500Y-101079560D01*
X184277500Y-101079578D01*
X184277501Y-101082872D01*
X184277853Y-101086152D01*
X184277854Y-101086159D01*
X184283909Y-101142484D01*
X184309056Y-101209906D01*
X184334204Y-101277331D01*
X184420454Y-101392546D01*
X184535669Y-101478796D01*
X184635187Y-101515913D01*
X184691120Y-101557784D01*
X184715537Y-101623248D01*
X184700685Y-101691521D01*
X184683083Y-101716078D01*
X184532845Y-101879279D01*
X184409196Y-102068537D01*
X184343000Y-102219451D01*
X184318389Y-102275559D01*
X184262893Y-102494707D01*
X184262892Y-102494711D01*
X184244224Y-102719999D01*
X184262892Y-102945288D01*
X184262892Y-102945291D01*
X184262893Y-102945293D01*
X184291185Y-103057016D01*
X184318390Y-103164443D01*
X184409196Y-103371462D01*
X184532847Y-103560724D01*
X184685950Y-103727037D01*
X184685954Y-103727040D01*
X184864351Y-103865893D01*
X185063169Y-103973488D01*
X185276986Y-104046891D01*
X185499967Y-104084100D01*
X185499968Y-104084100D01*
X185726032Y-104084100D01*
X185726033Y-104084100D01*
X185949014Y-104046891D01*
X186162831Y-103973488D01*
X186361649Y-103865893D01*
X186540046Y-103727040D01*
X186693156Y-103560719D01*
X186779192Y-103429032D01*
X186832338Y-103383676D01*
X186901569Y-103374252D01*
X186964905Y-103403754D01*
X186986809Y-103429033D01*
X187072845Y-103560721D01*
X187225950Y-103727037D01*
X187225954Y-103727040D01*
X187404351Y-103865893D01*
X187603169Y-103973488D01*
X187816986Y-104046891D01*
X188039967Y-104084100D01*
X188039968Y-104084100D01*
X188266032Y-104084100D01*
X188266033Y-104084100D01*
X188489014Y-104046891D01*
X188702831Y-103973488D01*
X188901649Y-103865893D01*
X189080046Y-103727040D01*
X189233156Y-103560719D01*
X189319192Y-103429032D01*
X189372338Y-103383676D01*
X189441569Y-103374252D01*
X189504905Y-103403754D01*
X189526809Y-103429033D01*
X189612845Y-103560721D01*
X189765950Y-103727037D01*
X189765954Y-103727040D01*
X189944351Y-103865893D01*
X190143169Y-103973488D01*
X190356986Y-104046891D01*
X190579967Y-104084100D01*
X190579968Y-104084100D01*
X190806032Y-104084100D01*
X190806033Y-104084100D01*
X191029014Y-104046891D01*
X191242831Y-103973488D01*
X191441649Y-103865893D01*
X191620046Y-103727040D01*
X191773156Y-103560719D01*
X191859192Y-103429032D01*
X191912338Y-103383676D01*
X191981569Y-103374252D01*
X192044905Y-103403754D01*
X192066809Y-103429033D01*
X192152845Y-103560721D01*
X192305950Y-103727037D01*
X192305954Y-103727040D01*
X192484351Y-103865893D01*
X192683169Y-103973488D01*
X192896986Y-104046891D01*
X193119967Y-104084100D01*
X193119968Y-104084100D01*
X193346032Y-104084100D01*
X193346033Y-104084100D01*
X193569014Y-104046891D01*
X193782831Y-103973488D01*
X193981649Y-103865893D01*
X194160046Y-103727040D01*
X194160049Y-103727037D01*
X194313154Y-103560722D01*
X194313156Y-103560719D01*
X194399192Y-103429031D01*
X194452336Y-103383676D01*
X194521567Y-103374252D01*
X194584903Y-103403753D01*
X194606807Y-103429032D01*
X194692843Y-103560720D01*
X194845950Y-103727037D01*
X194845954Y-103727040D01*
X195024351Y-103865893D01*
X195223169Y-103973488D01*
X195436986Y-104046891D01*
X195659967Y-104084100D01*
X195659968Y-104084100D01*
X195886032Y-104084100D01*
X195886033Y-104084100D01*
X196109014Y-104046891D01*
X196322831Y-103973488D01*
X196521649Y-103865893D01*
X196700046Y-103727040D01*
X196700049Y-103727037D01*
X196853154Y-103560722D01*
X196853156Y-103560719D01*
X196939192Y-103429031D01*
X196992336Y-103383676D01*
X197061567Y-103374252D01*
X197124903Y-103403753D01*
X197146807Y-103429032D01*
X197232843Y-103560720D01*
X197385950Y-103727037D01*
X197385954Y-103727040D01*
X197564351Y-103865893D01*
X197763169Y-103973488D01*
X197976986Y-104046891D01*
X198199967Y-104084100D01*
X198199968Y-104084100D01*
X198426032Y-104084100D01*
X198426033Y-104084100D01*
X198649014Y-104046891D01*
X198862831Y-103973488D01*
X199061649Y-103865893D01*
X199240046Y-103727040D01*
X199393156Y-103560719D01*
X199479192Y-103429032D01*
X199532338Y-103383676D01*
X199601569Y-103374252D01*
X199664905Y-103403754D01*
X199686809Y-103429033D01*
X199772845Y-103560721D01*
X199925950Y-103727037D01*
X199925954Y-103727040D01*
X200104351Y-103865893D01*
X200303169Y-103973488D01*
X200516986Y-104046891D01*
X200739967Y-104084100D01*
X200739968Y-104084100D01*
X200966032Y-104084100D01*
X200966033Y-104084100D01*
X201189014Y-104046891D01*
X201402831Y-103973488D01*
X201601649Y-103865893D01*
X201780046Y-103727040D01*
X201933156Y-103560719D01*
X202019192Y-103429032D01*
X202072338Y-103383676D01*
X202141569Y-103374252D01*
X202204905Y-103403754D01*
X202226809Y-103429033D01*
X202312845Y-103560721D01*
X202465950Y-103727037D01*
X202465954Y-103727040D01*
X202644351Y-103865893D01*
X202843169Y-103973488D01*
X203056986Y-104046891D01*
X203279967Y-104084100D01*
X203279968Y-104084100D01*
X203506032Y-104084100D01*
X203506033Y-104084100D01*
X203729014Y-104046891D01*
X203942831Y-103973488D01*
X204141649Y-103865893D01*
X204320046Y-103727040D01*
X204357293Y-103686579D01*
X204473152Y-103560724D01*
X204473155Y-103560720D01*
X204473156Y-103560719D01*
X204596802Y-103371465D01*
X204687611Y-103164441D01*
X204743107Y-102945293D01*
X204756160Y-102787764D01*
X206618787Y-102787764D01*
X206648413Y-103057016D01*
X206682998Y-103189304D01*
X206716928Y-103319088D01*
X206819612Y-103560724D01*
X206822871Y-103568392D01*
X206963982Y-103799611D01*
X207137253Y-104007818D01*
X207137255Y-104007820D01*
X207338998Y-104188582D01*
X207564910Y-104338044D01*
X207671211Y-104387876D01*
X207810177Y-104453021D01*
X208069562Y-104531058D01*
X208069569Y-104531060D01*
X208337561Y-104570500D01*
X208337564Y-104570500D01*
X208538369Y-104570500D01*
X208540631Y-104570500D01*
X208743156Y-104555677D01*
X209007553Y-104496780D01*
X209260558Y-104400014D01*
X209496777Y-104267441D01*
X209711177Y-104101888D01*
X209899186Y-103906881D01*
X210056799Y-103686579D01*
X210180656Y-103445675D01*
X210268118Y-103189305D01*
X210317319Y-102922933D01*
X210327212Y-102652235D01*
X210297586Y-102382982D01*
X210229072Y-102120912D01*
X210123130Y-101871610D01*
X209995056Y-101661754D01*
X209982017Y-101640388D01*
X209808746Y-101432181D01*
X209764510Y-101392545D01*
X209607002Y-101251418D01*
X209381090Y-101101956D01*
X209381086Y-101101954D01*
X209135822Y-100986978D01*
X208876437Y-100908941D01*
X208876431Y-100908940D01*
X208608439Y-100869500D01*
X208405369Y-100869500D01*
X208403120Y-100869664D01*
X208403109Y-100869665D01*
X208202843Y-100884322D01*
X207938449Y-100943219D01*
X207685441Y-101039986D01*
X207449223Y-101172559D01*
X207234825Y-101338109D01*
X207046813Y-101533120D01*
X206889201Y-101753420D01*
X206765342Y-101994329D01*
X206677881Y-102250695D01*
X206628680Y-102517066D01*
X206618787Y-102787764D01*
X204756160Y-102787764D01*
X204761775Y-102720000D01*
X204743107Y-102494707D01*
X204687611Y-102275559D01*
X204596802Y-102068535D01*
X204473156Y-101879281D01*
X204473155Y-101879280D01*
X204473152Y-101879275D01*
X204320049Y-101712962D01*
X204234047Y-101646024D01*
X204141649Y-101574107D01*
X204113411Y-101558825D01*
X204063822Y-101509608D01*
X204048714Y-101441391D01*
X204072884Y-101375835D01*
X204101303Y-101348200D01*
X204279401Y-101223495D01*
X204446495Y-101056401D01*
X204582035Y-100862830D01*
X204681903Y-100648663D01*
X204743063Y-100420408D01*
X204763659Y-100185000D01*
X204743063Y-99949592D01*
X204681903Y-99721337D01*
X204582035Y-99507171D01*
X204446495Y-99313599D01*
X204279401Y-99146505D01*
X204104190Y-99023821D01*
X204060568Y-98969246D01*
X204053375Y-98899747D01*
X204084897Y-98837393D01*
X204104187Y-98820677D01*
X204264401Y-98708495D01*
X204380879Y-98592016D01*
X204442198Y-98558534D01*
X204511890Y-98563518D01*
X204567824Y-98605389D01*
X204584738Y-98636365D01*
X204625604Y-98745931D01*
X204711854Y-98861146D01*
X204827069Y-98947396D01*
X204961917Y-98997691D01*
X205021527Y-99004100D01*
X206844472Y-99004099D01*
X206904083Y-98997691D01*
X207038931Y-98947396D01*
X207128691Y-98880201D01*
X207194151Y-98855785D01*
X207262424Y-98870636D01*
X207277306Y-98880199D01*
X207367069Y-98947396D01*
X207501917Y-98997691D01*
X207561527Y-99004100D01*
X209384472Y-99004099D01*
X209444083Y-98997691D01*
X209578931Y-98947396D01*
X209694146Y-98861146D01*
X209780396Y-98745931D01*
X209830691Y-98611083D01*
X209837100Y-98551473D01*
X209837099Y-96728528D01*
X209830691Y-96668917D01*
X209780396Y-96534069D01*
X209694146Y-96418854D01*
X209578931Y-96332604D01*
X209519061Y-96310274D01*
X209464016Y-96289743D01*
X209408083Y-96247871D01*
X209383666Y-96182407D01*
X209398518Y-96114134D01*
X209416117Y-96089581D01*
X209553156Y-95940719D01*
X209676802Y-95751465D01*
X209767611Y-95544441D01*
X209823107Y-95325293D01*
X209841775Y-95100000D01*
X209823107Y-94874707D01*
X209767611Y-94655559D01*
X209683347Y-94463455D01*
X209676803Y-94448537D01*
X209676749Y-94448455D01*
X209553156Y-94259281D01*
X209553155Y-94259280D01*
X209553152Y-94259275D01*
X209400049Y-94092962D01*
X209346367Y-94051179D01*
X209221649Y-93954107D01*
X209193832Y-93939053D01*
X209144243Y-93889836D01*
X209129135Y-93821620D01*
X209153305Y-93756064D01*
X209193831Y-93720946D01*
X209221649Y-93705893D01*
X209400046Y-93567040D01*
X209427204Y-93537539D01*
X209553152Y-93400724D01*
X209553153Y-93400721D01*
X209553156Y-93400719D01*
X209676802Y-93211465D01*
X209767611Y-93004441D01*
X209823107Y-92785293D01*
X209841775Y-92560000D01*
X209823107Y-92334707D01*
X209767611Y-92115559D01*
X209676802Y-91908535D01*
X209553156Y-91719281D01*
X209553155Y-91719280D01*
X209553152Y-91719275D01*
X209400049Y-91552962D01*
X209221648Y-91414106D01*
X209193832Y-91399053D01*
X209144242Y-91349833D01*
X209129135Y-91281616D01*
X209153306Y-91216061D01*
X209193833Y-91180945D01*
X209221649Y-91165893D01*
X209400046Y-91027040D01*
X209427204Y-90997539D01*
X209553152Y-90860724D01*
X209553153Y-90860721D01*
X209553156Y-90860719D01*
X209676802Y-90671465D01*
X209767611Y-90464441D01*
X209823107Y-90245293D01*
X209841775Y-90020000D01*
X209823107Y-89794707D01*
X209767611Y-89575559D01*
X209683347Y-89383455D01*
X209676803Y-89368537D01*
X209676749Y-89368455D01*
X209553156Y-89179281D01*
X209553155Y-89179280D01*
X209553152Y-89179275D01*
X209400049Y-89012962D01*
X209331969Y-88959973D01*
X209221649Y-88874107D01*
X209193832Y-88859053D01*
X209144243Y-88809836D01*
X209129135Y-88741620D01*
X209153305Y-88676064D01*
X209193831Y-88640946D01*
X209221649Y-88625893D01*
X209400046Y-88487040D01*
X209400049Y-88487037D01*
X209553152Y-88320724D01*
X209553153Y-88320721D01*
X209553156Y-88320719D01*
X209676802Y-88131465D01*
X209767611Y-87924441D01*
X209823107Y-87705293D01*
X209841775Y-87480000D01*
X209823107Y-87254707D01*
X209767611Y-87035559D01*
X209676802Y-86828535D01*
X209553156Y-86639281D01*
X209553155Y-86639280D01*
X209553152Y-86639275D01*
X209400049Y-86472962D01*
X209346367Y-86431179D01*
X209221649Y-86334107D01*
X209193832Y-86319053D01*
X209144243Y-86269836D01*
X209129135Y-86201620D01*
X209153305Y-86136064D01*
X209193831Y-86100946D01*
X209221649Y-86085893D01*
X209400046Y-85947040D01*
X209469925Y-85871132D01*
X209553152Y-85780724D01*
X209553153Y-85780721D01*
X209553156Y-85780719D01*
X209676802Y-85591465D01*
X209767611Y-85384441D01*
X209823107Y-85165293D01*
X209841775Y-84940000D01*
X209823107Y-84714707D01*
X209767611Y-84495559D01*
X209683347Y-84303455D01*
X209676803Y-84288537D01*
X209676749Y-84288455D01*
X209553156Y-84099281D01*
X209553155Y-84099280D01*
X209553152Y-84099275D01*
X209400049Y-83932962D01*
X209329318Y-83877910D01*
X209221649Y-83794107D01*
X209193832Y-83779053D01*
X209144243Y-83729836D01*
X209129135Y-83661620D01*
X209153305Y-83596064D01*
X209193831Y-83560946D01*
X209221649Y-83545893D01*
X209400046Y-83407040D01*
X209428893Y-83375704D01*
X209553152Y-83240724D01*
X209553153Y-83240721D01*
X209553156Y-83240719D01*
X209676802Y-83051465D01*
X209767611Y-82844441D01*
X209823107Y-82625293D01*
X209841775Y-82400000D01*
X209823107Y-82174707D01*
X209767611Y-81955559D01*
X209676802Y-81748535D01*
X209553156Y-81559281D01*
X209553155Y-81559280D01*
X209553152Y-81559275D01*
X209400049Y-81392962D01*
X209315315Y-81327011D01*
X209221649Y-81254107D01*
X209193832Y-81239053D01*
X209144243Y-81189836D01*
X209129135Y-81121620D01*
X209153305Y-81056064D01*
X209193831Y-81020946D01*
X209221649Y-81005893D01*
X209400046Y-80867040D01*
X209400049Y-80867037D01*
X209553152Y-80700724D01*
X209553153Y-80700721D01*
X209553156Y-80700719D01*
X209676802Y-80511465D01*
X209767611Y-80304441D01*
X209823107Y-80085293D01*
X209841775Y-79860000D01*
X209823107Y-79634707D01*
X209767611Y-79415559D01*
X209683347Y-79223455D01*
X209676803Y-79208537D01*
X209676749Y-79208455D01*
X209553156Y-79019281D01*
X209553155Y-79019280D01*
X209553152Y-79019275D01*
X209400049Y-78852962D01*
X209221648Y-78714106D01*
X209193832Y-78699053D01*
X209144242Y-78649833D01*
X209129135Y-78581616D01*
X209153306Y-78516061D01*
X209193833Y-78480945D01*
X209221649Y-78465893D01*
X209400046Y-78327040D01*
X209455148Y-78267184D01*
X209553152Y-78160724D01*
X209553153Y-78160721D01*
X209553156Y-78160719D01*
X209676802Y-77971465D01*
X209767611Y-77764441D01*
X209823107Y-77545293D01*
X209841775Y-77320000D01*
X209823107Y-77094707D01*
X209767611Y-76875559D01*
X209676802Y-76668535D01*
X209553156Y-76479281D01*
X209553155Y-76479280D01*
X209553152Y-76479275D01*
X209400049Y-76312962D01*
X209346367Y-76271179D01*
X209221649Y-76174107D01*
X209193832Y-76159053D01*
X209144243Y-76109836D01*
X209129135Y-76041620D01*
X209153305Y-75976064D01*
X209193831Y-75940946D01*
X209221649Y-75925893D01*
X209400046Y-75787040D01*
X209435119Y-75748941D01*
X209553152Y-75620724D01*
X209553153Y-75620721D01*
X209553156Y-75620719D01*
X209676802Y-75431465D01*
X209767611Y-75224441D01*
X209823107Y-75005293D01*
X209841775Y-74780000D01*
X209823107Y-74554707D01*
X209767611Y-74335559D01*
X209683347Y-74143455D01*
X209676803Y-74128537D01*
X209676749Y-74128455D01*
X209553156Y-73939281D01*
X209553155Y-73939280D01*
X209553152Y-73939275D01*
X209400049Y-73772962D01*
X209346367Y-73731179D01*
X209221649Y-73634107D01*
X209193832Y-73619053D01*
X209144243Y-73569836D01*
X209129135Y-73501620D01*
X209153305Y-73436064D01*
X209193831Y-73400946D01*
X209221649Y-73385893D01*
X209400046Y-73247040D01*
X209431583Y-73212782D01*
X209553152Y-73080724D01*
X209553153Y-73080721D01*
X209553156Y-73080719D01*
X209676802Y-72891465D01*
X209767611Y-72684441D01*
X209823107Y-72465293D01*
X209841775Y-72240000D01*
X209823107Y-72014707D01*
X209767611Y-71795559D01*
X209676802Y-71588535D01*
X209553156Y-71399281D01*
X209553155Y-71399280D01*
X209553152Y-71399275D01*
X209400049Y-71232962D01*
X209332222Y-71180170D01*
X209221649Y-71094107D01*
X209193832Y-71079053D01*
X209144243Y-71029836D01*
X209129135Y-70961620D01*
X209153305Y-70896064D01*
X209193831Y-70860946D01*
X209221649Y-70845893D01*
X209400046Y-70707040D01*
X209400049Y-70707037D01*
X209553152Y-70540724D01*
X209553153Y-70540721D01*
X209553156Y-70540719D01*
X209676802Y-70351465D01*
X209767611Y-70144441D01*
X209823107Y-69925293D01*
X209841775Y-69700000D01*
X209823107Y-69474707D01*
X209767611Y-69255559D01*
X209683347Y-69063455D01*
X209676803Y-69048537D01*
X209676749Y-69048455D01*
X209553156Y-68859281D01*
X209553155Y-68859280D01*
X209553152Y-68859275D01*
X209400049Y-68692962D01*
X209346367Y-68651179D01*
X209221649Y-68554107D01*
X209193832Y-68539053D01*
X209144243Y-68489836D01*
X209129135Y-68421620D01*
X209153305Y-68356064D01*
X209193831Y-68320946D01*
X209221649Y-68305893D01*
X209400046Y-68167040D01*
X209400049Y-68167037D01*
X209553152Y-68000724D01*
X209553153Y-68000721D01*
X209553156Y-68000719D01*
X209676802Y-67811465D01*
X209767611Y-67604441D01*
X209823107Y-67385293D01*
X209841775Y-67160000D01*
X209823107Y-66934707D01*
X209767611Y-66715559D01*
X209676802Y-66508535D01*
X209553156Y-66319281D01*
X209553155Y-66319280D01*
X209553152Y-66319275D01*
X209400049Y-66152962D01*
X209293647Y-66070146D01*
X209221649Y-66014107D01*
X209193832Y-65999053D01*
X209144243Y-65949836D01*
X209129135Y-65881620D01*
X209153305Y-65816064D01*
X209193831Y-65780946D01*
X209221649Y-65765893D01*
X209400046Y-65627040D01*
X209445667Y-65577483D01*
X209553152Y-65460724D01*
X209553153Y-65460721D01*
X209553156Y-65460719D01*
X209676802Y-65271465D01*
X209767611Y-65064441D01*
X209823107Y-64845293D01*
X209841775Y-64620000D01*
X209823107Y-64394707D01*
X209767611Y-64175559D01*
X209683347Y-63983455D01*
X209676803Y-63968537D01*
X209676749Y-63968455D01*
X209553156Y-63779281D01*
X209553155Y-63779280D01*
X209553152Y-63779275D01*
X209400049Y-63612962D01*
X209346367Y-63571179D01*
X209221649Y-63474107D01*
X209193832Y-63459053D01*
X209144243Y-63409836D01*
X209129135Y-63341620D01*
X209153305Y-63276064D01*
X209193831Y-63240946D01*
X209221649Y-63225893D01*
X209400046Y-63087040D01*
X209400049Y-63087037D01*
X209553152Y-62920724D01*
X209553153Y-62920721D01*
X209553156Y-62920719D01*
X209676802Y-62731465D01*
X209767611Y-62524441D01*
X209823107Y-62305293D01*
X209841775Y-62080000D01*
X209823107Y-61854707D01*
X209767611Y-61635559D01*
X209683347Y-61443455D01*
X209676803Y-61428537D01*
X209676749Y-61428455D01*
X209553156Y-61239281D01*
X209553155Y-61239280D01*
X209553152Y-61239275D01*
X209400049Y-61072962D01*
X209321719Y-61011995D01*
X209221649Y-60934107D01*
X209193832Y-60919053D01*
X209144243Y-60869836D01*
X209129135Y-60801620D01*
X209153305Y-60736064D01*
X209193831Y-60700946D01*
X209221649Y-60685893D01*
X209400046Y-60547040D01*
X209400049Y-60547037D01*
X209553152Y-60380724D01*
X209553153Y-60380721D01*
X209553156Y-60380719D01*
X209676802Y-60191465D01*
X209767611Y-59984441D01*
X209823107Y-59765293D01*
X209841775Y-59540000D01*
X209823107Y-59314707D01*
X209767611Y-59095559D01*
X209678397Y-58892171D01*
X209676803Y-58888537D01*
X209673943Y-58884160D01*
X209553156Y-58699281D01*
X209553155Y-58699280D01*
X209553152Y-58699275D01*
X209400049Y-58532962D01*
X209329009Y-58477669D01*
X209221649Y-58394107D01*
X209193832Y-58379053D01*
X209144243Y-58329836D01*
X209129135Y-58261620D01*
X209153305Y-58196064D01*
X209193831Y-58160946D01*
X209221649Y-58145893D01*
X209400046Y-58007040D01*
X209400049Y-58007037D01*
X209553152Y-57840724D01*
X209553153Y-57840721D01*
X209553156Y-57840719D01*
X209676802Y-57651465D01*
X209767611Y-57444441D01*
X209823107Y-57225293D01*
X209841775Y-57000000D01*
X209823107Y-56774707D01*
X209767611Y-56555559D01*
X209676802Y-56348535D01*
X209553156Y-56159281D01*
X209553155Y-56159280D01*
X209553152Y-56159275D01*
X209400049Y-55992962D01*
X209317331Y-55928580D01*
X209221649Y-55854107D01*
X209193832Y-55839053D01*
X209144243Y-55789836D01*
X209129135Y-55721620D01*
X209153305Y-55656064D01*
X209193831Y-55620946D01*
X209221649Y-55605893D01*
X209400046Y-55467040D01*
X209437293Y-55426579D01*
X209553152Y-55300724D01*
X209553155Y-55300720D01*
X209553156Y-55300719D01*
X209676802Y-55111465D01*
X209767611Y-54904441D01*
X209823107Y-54685293D01*
X209841775Y-54460000D01*
X209823107Y-54234707D01*
X209767611Y-54015559D01*
X209676802Y-53808535D01*
X209553156Y-53619281D01*
X209553155Y-53619280D01*
X209553152Y-53619275D01*
X209400049Y-53452962D01*
X209221650Y-53314108D01*
X209221649Y-53314107D01*
X209022831Y-53206512D01*
X209022830Y-53206511D01*
X209022827Y-53206510D01*
X208809016Y-53133109D01*
X208660360Y-53108303D01*
X208586033Y-53095900D01*
X208359967Y-53095900D01*
X208304221Y-53105202D01*
X208136983Y-53133109D01*
X207923172Y-53206510D01*
X207724349Y-53314108D01*
X207545950Y-53452962D01*
X207392845Y-53619278D01*
X207306809Y-53750967D01*
X207253662Y-53796324D01*
X207184431Y-53805748D01*
X207121095Y-53776246D01*
X207099191Y-53750967D01*
X207013154Y-53619278D01*
X206860049Y-53452962D01*
X206681650Y-53314108D01*
X206681649Y-53314107D01*
X206482831Y-53206512D01*
X206482830Y-53206511D01*
X206482827Y-53206510D01*
X206269016Y-53133109D01*
X206120360Y-53108302D01*
X206046033Y-53095900D01*
X205819967Y-53095900D01*
X205764221Y-53105202D01*
X205596983Y-53133109D01*
X205383172Y-53206510D01*
X205184349Y-53314108D01*
X205005950Y-53452962D01*
X204852847Y-53619275D01*
X204729196Y-53808537D01*
X204663000Y-53959451D01*
X204638389Y-54015559D01*
X204582893Y-54234707D01*
X204582892Y-54234711D01*
X204564224Y-54460000D01*
X204582892Y-54685288D01*
X204582892Y-54685291D01*
X204582893Y-54685293D01*
X204611185Y-54797016D01*
X204638390Y-54904443D01*
X204729196Y-55111462D01*
X204852847Y-55300724D01*
X205005950Y-55467037D01*
X205005954Y-55467040D01*
X205184351Y-55605893D01*
X205184353Y-55605894D01*
X205212166Y-55620946D01*
X205261756Y-55670165D01*
X205276864Y-55738382D01*
X205252693Y-55803937D01*
X205212166Y-55839054D01*
X205184353Y-55854105D01*
X205005950Y-55992962D01*
X204852847Y-56159275D01*
X204729196Y-56348537D01*
X204638390Y-56555556D01*
X204582892Y-56774711D01*
X204564224Y-56999999D01*
X204582892Y-57225289D01*
X204592705Y-57264041D01*
X204590079Y-57333861D01*
X204560180Y-57382161D01*
X203741334Y-58201007D01*
X203680011Y-58234492D01*
X203639420Y-58233529D01*
X203639215Y-58235882D01*
X203393000Y-58214340D01*
X203157592Y-58234936D01*
X202929336Y-58296097D01*
X202715170Y-58395965D01*
X202521598Y-58531505D01*
X202354508Y-58698595D01*
X202354507Y-58698597D01*
X202354505Y-58698599D01*
X202306405Y-58767291D01*
X202224574Y-58884160D01*
X202169997Y-58927785D01*
X202100498Y-58934977D01*
X202038144Y-58903455D01*
X202021429Y-58884164D01*
X201891495Y-58698599D01*
X201724401Y-58531505D01*
X201530830Y-58395965D01*
X201316663Y-58296097D01*
X201250549Y-58278382D01*
X201088407Y-58234936D01*
X200853000Y-58214340D01*
X200617592Y-58234936D01*
X200389336Y-58296097D01*
X200175170Y-58395965D01*
X199981601Y-58531503D01*
X199859673Y-58653431D01*
X199798350Y-58686915D01*
X199728658Y-58681931D01*
X199672725Y-58640059D01*
X199655810Y-58609082D01*
X199646485Y-58584082D01*
X199606796Y-58477669D01*
X199520546Y-58362454D01*
X199405331Y-58276204D01*
X199270483Y-58225909D01*
X199210873Y-58219500D01*
X199207550Y-58219500D01*
X197418439Y-58219500D01*
X197418420Y-58219500D01*
X197415128Y-58219501D01*
X197411848Y-58219853D01*
X197411840Y-58219854D01*
X197355515Y-58225909D01*
X197220669Y-58276204D01*
X197105454Y-58362454D01*
X197019204Y-58477669D01*
X196970189Y-58609083D01*
X196928317Y-58665016D01*
X196862852Y-58689433D01*
X196794580Y-58674581D01*
X196766326Y-58653430D01*
X196644404Y-58531508D01*
X196644403Y-58531507D01*
X196644401Y-58531505D01*
X196450830Y-58395965D01*
X196236663Y-58296097D01*
X196170549Y-58278382D01*
X196008407Y-58234936D01*
X195772999Y-58214340D01*
X195537592Y-58234936D01*
X195309336Y-58296097D01*
X195095170Y-58395965D01*
X194901598Y-58531505D01*
X194734505Y-58698598D01*
X194604575Y-58884159D01*
X194549998Y-58927784D01*
X194480500Y-58934978D01*
X194418145Y-58903455D01*
X194401425Y-58884159D01*
X194364180Y-58830967D01*
X194271495Y-58698599D01*
X194104401Y-58531505D01*
X193910830Y-58395965D01*
X193696663Y-58296097D01*
X193630549Y-58278382D01*
X193468407Y-58234936D01*
X193233000Y-58214340D01*
X192997592Y-58234936D01*
X192769336Y-58296097D01*
X192555170Y-58395965D01*
X192361598Y-58531505D01*
X192194508Y-58698595D01*
X192194507Y-58698597D01*
X192194505Y-58698599D01*
X192146405Y-58767291D01*
X192064574Y-58884160D01*
X192009997Y-58927785D01*
X191940498Y-58934977D01*
X191878144Y-58903455D01*
X191861429Y-58884164D01*
X191731495Y-58698599D01*
X191564401Y-58531505D01*
X191370830Y-58395965D01*
X191156663Y-58296097D01*
X191090549Y-58278382D01*
X190928407Y-58234936D01*
X190693000Y-58214340D01*
X190457592Y-58234936D01*
X190229336Y-58296097D01*
X190015170Y-58395965D01*
X189821598Y-58531505D01*
X189654505Y-58698598D01*
X189524575Y-58884159D01*
X189469998Y-58927784D01*
X189400500Y-58934978D01*
X189338145Y-58903455D01*
X189321425Y-58884159D01*
X189284180Y-58830967D01*
X189191495Y-58698599D01*
X189024401Y-58531505D01*
X188830830Y-58395965D01*
X188616663Y-58296097D01*
X188550549Y-58278382D01*
X188388407Y-58234936D01*
X188152999Y-58214340D01*
X187917592Y-58234936D01*
X187689336Y-58296097D01*
X187475170Y-58395965D01*
X187281598Y-58531505D01*
X187114505Y-58698598D01*
X186984575Y-58884159D01*
X186929998Y-58927784D01*
X186860500Y-58934978D01*
X186798145Y-58903455D01*
X186781425Y-58884159D01*
X186744180Y-58830967D01*
X186651495Y-58698599D01*
X186484401Y-58531505D01*
X186290830Y-58395965D01*
X186076663Y-58296097D01*
X186010549Y-58278382D01*
X185848407Y-58234936D01*
X185612999Y-58214340D01*
X185377592Y-58234936D01*
X185149336Y-58296097D01*
X184935170Y-58395965D01*
X184741598Y-58531505D01*
X184574505Y-58698598D01*
X184444575Y-58884159D01*
X184389998Y-58927784D01*
X184320500Y-58934978D01*
X184258145Y-58903455D01*
X184241425Y-58884159D01*
X184204180Y-58830967D01*
X184111495Y-58698599D01*
X183944401Y-58531505D01*
X183750830Y-58395965D01*
X183536663Y-58296097D01*
X183470549Y-58278382D01*
X183308407Y-58234936D01*
X183073000Y-58214340D01*
X182837592Y-58234936D01*
X182609336Y-58296097D01*
X182395170Y-58395965D01*
X182201598Y-58531505D01*
X182034508Y-58698595D01*
X182034507Y-58698597D01*
X182034505Y-58698599D01*
X181986405Y-58767291D01*
X181904574Y-58884160D01*
X181849997Y-58927785D01*
X181780498Y-58934977D01*
X181718144Y-58903455D01*
X181701429Y-58884164D01*
X181571495Y-58698599D01*
X181404401Y-58531505D01*
X181210830Y-58395965D01*
X180996663Y-58296097D01*
X180930549Y-58278382D01*
X180768407Y-58234936D01*
X180533000Y-58214340D01*
X180297592Y-58234936D01*
X180069336Y-58296097D01*
X179855170Y-58395965D01*
X179661598Y-58531505D01*
X179494505Y-58698598D01*
X179358965Y-58892170D01*
X179259097Y-59106336D01*
X179197936Y-59334592D01*
X179177340Y-59570000D01*
X179197936Y-59805407D01*
X179242709Y-59972501D01*
X179259097Y-60033663D01*
X179358965Y-60247830D01*
X179494505Y-60441401D01*
X179661599Y-60608495D01*
X179825738Y-60723426D01*
X179869361Y-60778002D01*
X179876554Y-60847501D01*
X179845032Y-60909855D01*
X179825738Y-60926574D01*
X179804315Y-60941575D01*
X179661595Y-61041508D01*
X179494505Y-61208598D01*
X179364575Y-61394159D01*
X179309998Y-61437784D01*
X179240500Y-61444978D01*
X179178145Y-61413455D01*
X179161425Y-61394159D01*
X179145186Y-61370967D01*
X179031495Y-61208599D01*
X178864401Y-61041505D01*
X178670830Y-60905965D01*
X178456663Y-60806097D01*
X178351810Y-60778002D01*
X178228407Y-60744936D01*
X177993000Y-60724340D01*
X177757592Y-60744936D01*
X177529336Y-60806097D01*
X177315170Y-60905965D01*
X177121598Y-61041505D01*
X176954505Y-61208598D01*
X176824575Y-61394159D01*
X176769998Y-61437784D01*
X176700500Y-61444978D01*
X176638145Y-61413455D01*
X176621425Y-61394159D01*
X176605186Y-61370967D01*
X176491495Y-61208599D01*
X176324401Y-61041505D01*
X176142409Y-60914072D01*
X176098787Y-60859498D01*
X176091594Y-60789999D01*
X176123116Y-60727645D01*
X176142405Y-60710929D01*
X176324401Y-60583495D01*
X176491495Y-60416401D01*
X176627035Y-60222830D01*
X176726903Y-60008663D01*
X176788063Y-59780408D01*
X176808659Y-59545000D01*
X176788063Y-59309592D01*
X176726903Y-59081337D01*
X176627035Y-58867171D01*
X176491495Y-58673599D01*
X176324401Y-58506505D01*
X176130830Y-58370965D01*
X175916663Y-58271097D01*
X175844014Y-58251631D01*
X175688407Y-58209936D01*
X175453000Y-58189340D01*
X175217592Y-58209936D01*
X174989336Y-58271097D01*
X174775170Y-58370965D01*
X174581598Y-58506505D01*
X174414505Y-58673598D01*
X174284575Y-58859159D01*
X174229998Y-58902784D01*
X174160500Y-58909978D01*
X174098145Y-58878455D01*
X174081425Y-58859159D01*
X174061685Y-58830967D01*
X173951495Y-58673599D01*
X173784401Y-58506505D01*
X173590830Y-58370965D01*
X173376663Y-58271097D01*
X173304014Y-58251631D01*
X173148407Y-58209936D01*
X172913000Y-58189340D01*
X172677592Y-58209936D01*
X172449336Y-58271097D01*
X172235170Y-58370965D01*
X172041598Y-58506505D01*
X171874505Y-58673598D01*
X171744575Y-58859159D01*
X171689998Y-58902784D01*
X171620500Y-58909978D01*
X171558145Y-58878455D01*
X171541425Y-58859159D01*
X171521685Y-58830967D01*
X171411495Y-58673599D01*
X171244401Y-58506505D01*
X171050830Y-58370965D01*
X170836663Y-58271097D01*
X170764014Y-58251631D01*
X170608407Y-58209936D01*
X170373000Y-58189340D01*
X170137592Y-58209936D01*
X169909336Y-58271097D01*
X169695170Y-58370965D01*
X169501601Y-58506503D01*
X169379673Y-58628431D01*
X169318350Y-58661915D01*
X169248658Y-58656931D01*
X169192725Y-58615059D01*
X169175810Y-58584082D01*
X169156743Y-58532962D01*
X169126796Y-58452669D01*
X169040546Y-58337454D01*
X168925331Y-58251204D01*
X168790483Y-58200909D01*
X168730873Y-58194500D01*
X168727550Y-58194500D01*
X166938439Y-58194500D01*
X166938420Y-58194500D01*
X166935128Y-58194501D01*
X166931848Y-58194853D01*
X166931840Y-58194854D01*
X166875515Y-58200909D01*
X166740669Y-58251204D01*
X166625454Y-58337454D01*
X166539204Y-58452668D01*
X166509257Y-58532962D01*
X166488909Y-58587517D01*
X166482500Y-58647127D01*
X166482500Y-58650448D01*
X166482500Y-58650449D01*
X166482500Y-60439560D01*
X166482500Y-60439578D01*
X166482501Y-60442872D01*
X166482853Y-60446152D01*
X166482854Y-60446159D01*
X166488909Y-60502484D01*
X166505528Y-60547040D01*
X166539204Y-60637331D01*
X166625454Y-60752546D01*
X166740669Y-60838796D01*
X166807695Y-60863795D01*
X166868441Y-60886452D01*
X166924374Y-60928324D01*
X166948791Y-60993788D01*
X166933939Y-61062061D01*
X166912789Y-61090315D01*
X166794503Y-61208601D01*
X166664575Y-61394159D01*
X166609998Y-61437784D01*
X166540500Y-61444978D01*
X166478145Y-61413455D01*
X166461425Y-61394159D01*
X166445186Y-61370967D01*
X166331495Y-61208599D01*
X166164401Y-61041505D01*
X165970830Y-60905965D01*
X165756663Y-60806097D01*
X165651810Y-60778002D01*
X165528407Y-60744936D01*
X165293000Y-60724340D01*
X165057592Y-60744936D01*
X164829336Y-60806097D01*
X164615170Y-60905965D01*
X164421598Y-61041505D01*
X164254505Y-61208598D01*
X164118965Y-61402170D01*
X164019097Y-61616336D01*
X163957936Y-61844592D01*
X163937340Y-62080000D01*
X163957936Y-62315407D01*
X164002709Y-62482501D01*
X164019097Y-62543663D01*
X164118965Y-62757830D01*
X164254505Y-62951401D01*
X164421599Y-63118495D01*
X164607160Y-63248426D01*
X164650783Y-63303002D01*
X164657976Y-63372501D01*
X164626454Y-63434855D01*
X164607159Y-63451575D01*
X164421595Y-63581508D01*
X164254508Y-63748595D01*
X164254507Y-63748597D01*
X164254505Y-63748599D01*
X164233021Y-63779281D01*
X164114071Y-63949160D01*
X164059494Y-63992784D01*
X163989995Y-63999977D01*
X163927641Y-63968455D01*
X163910925Y-63949164D01*
X163791495Y-63778599D01*
X163624401Y-63611505D01*
X163430830Y-63475965D01*
X163216663Y-63376097D01*
X163147257Y-63357500D01*
X162988407Y-63314936D01*
X162753000Y-63294340D01*
X162517592Y-63314936D01*
X162289336Y-63376097D01*
X162075170Y-63475965D01*
X161881601Y-63611503D01*
X161766906Y-63726198D01*
X161705583Y-63759682D01*
X161635891Y-63754698D01*
X161579958Y-63712826D01*
X161565475Y-63676012D01*
X161562534Y-63677110D01*
X161538066Y-63611508D01*
X161506796Y-63527669D01*
X161420546Y-63412454D01*
X161305331Y-63326204D01*
X161170483Y-63275909D01*
X161110873Y-63269500D01*
X161107550Y-63269500D01*
X159318439Y-63269500D01*
X159318420Y-63269500D01*
X159315128Y-63269501D01*
X159311848Y-63269853D01*
X159311840Y-63269854D01*
X159255515Y-63275909D01*
X159120669Y-63326204D01*
X159005454Y-63412454D01*
X158919204Y-63527668D01*
X158887392Y-63612962D01*
X158868909Y-63662517D01*
X158862500Y-63722127D01*
X158862500Y-63725448D01*
X158862500Y-63725449D01*
X158862500Y-65514560D01*
X158862500Y-65514578D01*
X158862501Y-65517872D01*
X158862853Y-65521152D01*
X158862854Y-65521159D01*
X158868909Y-65577484D01*
X158894056Y-65644906D01*
X158919204Y-65712331D01*
X159005454Y-65827546D01*
X159120669Y-65913796D01*
X159232907Y-65955658D01*
X159252082Y-65962810D01*
X159308016Y-66004681D01*
X159332433Y-66070146D01*
X159317581Y-66138419D01*
X159296431Y-66166673D01*
X159174503Y-66288601D01*
X159038965Y-66482170D01*
X158939097Y-66696336D01*
X158877936Y-66924592D01*
X158857340Y-67160000D01*
X158877936Y-67395407D01*
X158922709Y-67562502D01*
X158939097Y-67623663D01*
X159038965Y-67837830D01*
X159174505Y-68031401D01*
X159341599Y-68198495D01*
X159527160Y-68328426D01*
X159570783Y-68383002D01*
X159577976Y-68452501D01*
X159546454Y-68514855D01*
X159527159Y-68531575D01*
X159341595Y-68661508D01*
X159174505Y-68828598D01*
X159038965Y-69022170D01*
X158939097Y-69236336D01*
X158877936Y-69464592D01*
X158866955Y-69590097D01*
X158841502Y-69655166D01*
X158831108Y-69666970D01*
X157610147Y-70887931D01*
X157607900Y-70890122D01*
X157544449Y-70950438D01*
X157510745Y-70998861D01*
X157505074Y-71006381D01*
X157467802Y-71052092D01*
X157453711Y-71079065D01*
X157445583Y-71092482D01*
X157428206Y-71117449D01*
X157404940Y-71171664D01*
X157400900Y-71180170D01*
X157373591Y-71232451D01*
X157365221Y-71261700D01*
X157359960Y-71276477D01*
X157347961Y-71304441D01*
X157336088Y-71362212D01*
X157333843Y-71371359D01*
X157317614Y-71428079D01*
X157315303Y-71458424D01*
X157313123Y-71473965D01*
X157307001Y-71503757D01*
X157307001Y-71562739D01*
X157306643Y-71572153D01*
X157302164Y-71630976D01*
X157306007Y-71661150D01*
X157307001Y-71676816D01*
X157307001Y-82371501D01*
X157306842Y-82377779D01*
X157303133Y-82450937D01*
X157314222Y-82523324D01*
X157315016Y-82529554D01*
X157322428Y-82602440D01*
X157327251Y-82617812D01*
X157331505Y-82636143D01*
X157333946Y-82652071D01*
X157333947Y-82652073D01*
X157359384Y-82720759D01*
X157361413Y-82726696D01*
X157383343Y-82796588D01*
X157391161Y-82810674D01*
X157399020Y-82827779D01*
X157404614Y-82842884D01*
X157405586Y-82844443D01*
X157441481Y-82902032D01*
X157443366Y-82905055D01*
X157446553Y-82910470D01*
X157482093Y-82974502D01*
X157492578Y-82986715D01*
X157503726Y-83001896D01*
X157512249Y-83015571D01*
X157562722Y-83068668D01*
X157566933Y-83073329D01*
X157603429Y-83115841D01*
X157614636Y-83128895D01*
X157627376Y-83138756D01*
X157641344Y-83151377D01*
X157652444Y-83163054D01*
X157712552Y-83204890D01*
X157717618Y-83208610D01*
X157775539Y-83253445D01*
X157775542Y-83253446D01*
X157775544Y-83253448D01*
X157790011Y-83260544D01*
X157806235Y-83270095D01*
X157819451Y-83279294D01*
X157819452Y-83279294D01*
X157819453Y-83279295D01*
X157886765Y-83308181D01*
X157892464Y-83310800D01*
X157958229Y-83343060D01*
X157973813Y-83347094D01*
X157991638Y-83353186D01*
X158006444Y-83359540D01*
X158006447Y-83359540D01*
X158006448Y-83359541D01*
X158033389Y-83365076D01*
X158078202Y-83374285D01*
X158084281Y-83375695D01*
X158155217Y-83394063D01*
X158171309Y-83394879D01*
X158189985Y-83397258D01*
X158205760Y-83400500D01*
X158205761Y-83400500D01*
X158279001Y-83400500D01*
X158285280Y-83400658D01*
X158310344Y-83401930D01*
X158358437Y-83404369D01*
X158358437Y-83404368D01*
X158358438Y-83404369D01*
X158374359Y-83401929D01*
X158393137Y-83400500D01*
X161714005Y-83400500D01*
X161781044Y-83420185D01*
X161826799Y-83472989D01*
X161836743Y-83542147D01*
X161807718Y-83605703D01*
X161757339Y-83640682D01*
X161660910Y-83676647D01*
X161545811Y-83762811D01*
X161459647Y-83877910D01*
X161409400Y-84012628D01*
X161403354Y-84068867D01*
X161403000Y-84075481D01*
X161403000Y-84720000D01*
X162319314Y-84720000D01*
X162293507Y-84760156D01*
X162253000Y-84898111D01*
X162253000Y-85041889D01*
X162293507Y-85179844D01*
X162319314Y-85220000D01*
X161403000Y-85220000D01*
X161403000Y-85864518D01*
X161403354Y-85871132D01*
X161409400Y-85927371D01*
X161459647Y-86062089D01*
X161545811Y-86177188D01*
X161660910Y-86263352D01*
X161795628Y-86313599D01*
X161851867Y-86319645D01*
X161858482Y-86320000D01*
X162503000Y-86320000D01*
X162503000Y-85405501D01*
X162610685Y-85454680D01*
X162717237Y-85470000D01*
X162788763Y-85470000D01*
X162895315Y-85454680D01*
X163003000Y-85405501D01*
X163003000Y-86320000D01*
X163647518Y-86320000D01*
X163654132Y-86319645D01*
X163710371Y-86313599D01*
X163845089Y-86263352D01*
X163960188Y-86177188D01*
X164046352Y-86062089D01*
X164102041Y-85912782D01*
X164105324Y-85914006D01*
X164122218Y-85873222D01*
X164179610Y-85833374D01*
X164249436Y-85830880D01*
X164306451Y-85863347D01*
X164421599Y-85978495D01*
X164607160Y-86108426D01*
X164650783Y-86163002D01*
X164657976Y-86232501D01*
X164626454Y-86294855D01*
X164607159Y-86311575D01*
X164421595Y-86441508D01*
X164254505Y-86608598D01*
X164118965Y-86802170D01*
X164019097Y-87016336D01*
X163957936Y-87244592D01*
X163937340Y-87479999D01*
X163957936Y-87715407D01*
X164002709Y-87882501D01*
X164019097Y-87943663D01*
X164118965Y-88157830D01*
X164254505Y-88351401D01*
X164421599Y-88518495D01*
X164607160Y-88648426D01*
X164650783Y-88703002D01*
X164657976Y-88772501D01*
X164626454Y-88834855D01*
X164607159Y-88851575D01*
X164421595Y-88981508D01*
X164254508Y-89148595D01*
X164254507Y-89148597D01*
X164254505Y-89148599D01*
X164233021Y-89179281D01*
X164114071Y-89349160D01*
X164059494Y-89392784D01*
X163989995Y-89399977D01*
X163927641Y-89368455D01*
X163910925Y-89349164D01*
X163791495Y-89178599D01*
X163624401Y-89011505D01*
X163430830Y-88875965D01*
X163216663Y-88776097D01*
X163147257Y-88757500D01*
X162988407Y-88714936D01*
X162753000Y-88694340D01*
X162517592Y-88714936D01*
X162289336Y-88776097D01*
X162075170Y-88875965D01*
X161881598Y-89011505D01*
X161879923Y-89013181D01*
X161876665Y-89014959D01*
X161872712Y-89017728D01*
X161872403Y-89017287D01*
X161818600Y-89046666D01*
X161792242Y-89049500D01*
X157165562Y-89049500D01*
X157131449Y-89044715D01*
X157116264Y-89040370D01*
X157080417Y-89030112D01*
X156906235Y-89016849D01*
X156877524Y-89014663D01*
X156877523Y-89014663D01*
X156877522Y-89014663D01*
X156675673Y-89040369D01*
X156567606Y-89077308D01*
X156497803Y-89080364D01*
X156437429Y-89045197D01*
X156405652Y-88982972D01*
X156403500Y-88959973D01*
X156403500Y-54459999D01*
X166464224Y-54459999D01*
X166482892Y-54685288D01*
X166482892Y-54685291D01*
X166482893Y-54685293D01*
X166511185Y-54797016D01*
X166538390Y-54904443D01*
X166629196Y-55111462D01*
X166752847Y-55300724D01*
X166905950Y-55467037D01*
X166905954Y-55467040D01*
X167084351Y-55605893D01*
X167283169Y-55713488D01*
X167496986Y-55786891D01*
X167719967Y-55824100D01*
X167719968Y-55824100D01*
X167946032Y-55824100D01*
X167946033Y-55824100D01*
X168169014Y-55786891D01*
X168382831Y-55713488D01*
X168581649Y-55605893D01*
X168760046Y-55467040D01*
X168913156Y-55300719D01*
X168999192Y-55169032D01*
X169052338Y-55123676D01*
X169121569Y-55114252D01*
X169184905Y-55143754D01*
X169206809Y-55169033D01*
X169292845Y-55300721D01*
X169445950Y-55467037D01*
X169445954Y-55467040D01*
X169624351Y-55605893D01*
X169823169Y-55713488D01*
X170036986Y-55786891D01*
X170259967Y-55824100D01*
X170259968Y-55824100D01*
X170486032Y-55824100D01*
X170486033Y-55824100D01*
X170709014Y-55786891D01*
X170922831Y-55713488D01*
X171121649Y-55605893D01*
X171300046Y-55467040D01*
X171453156Y-55300719D01*
X171539192Y-55169032D01*
X171592338Y-55123676D01*
X171661569Y-55114252D01*
X171724905Y-55143754D01*
X171746809Y-55169033D01*
X171832845Y-55300721D01*
X171985950Y-55467037D01*
X171985954Y-55467040D01*
X172164351Y-55605893D01*
X172363169Y-55713488D01*
X172576986Y-55786891D01*
X172799967Y-55824100D01*
X172799968Y-55824100D01*
X173026032Y-55824100D01*
X173026033Y-55824100D01*
X173249014Y-55786891D01*
X173462831Y-55713488D01*
X173661649Y-55605893D01*
X173840046Y-55467040D01*
X173993156Y-55300719D01*
X174079192Y-55169032D01*
X174132338Y-55123676D01*
X174201569Y-55114252D01*
X174264905Y-55143754D01*
X174286809Y-55169033D01*
X174372845Y-55300721D01*
X174525950Y-55467037D01*
X174525954Y-55467040D01*
X174704351Y-55605893D01*
X174903169Y-55713488D01*
X175116986Y-55786891D01*
X175339967Y-55824100D01*
X175339968Y-55824100D01*
X175566032Y-55824100D01*
X175566033Y-55824100D01*
X175789014Y-55786891D01*
X176002831Y-55713488D01*
X176201649Y-55605893D01*
X176380046Y-55467040D01*
X176417293Y-55426579D01*
X176533152Y-55300724D01*
X176533155Y-55300720D01*
X176533156Y-55300719D01*
X176656802Y-55111465D01*
X176747611Y-54904441D01*
X176803107Y-54685293D01*
X176821775Y-54460000D01*
X176821775Y-54459999D01*
X179164224Y-54459999D01*
X179182892Y-54685288D01*
X179182892Y-54685291D01*
X179182893Y-54685293D01*
X179211185Y-54797016D01*
X179238390Y-54904443D01*
X179329196Y-55111462D01*
X179452847Y-55300724D01*
X179605950Y-55467037D01*
X179605954Y-55467040D01*
X179784351Y-55605893D01*
X179983169Y-55713488D01*
X180196986Y-55786891D01*
X180419967Y-55824100D01*
X180419968Y-55824100D01*
X180646032Y-55824100D01*
X180646033Y-55824100D01*
X180869014Y-55786891D01*
X181082831Y-55713488D01*
X181281649Y-55605893D01*
X181460046Y-55467040D01*
X181613156Y-55300719D01*
X181699192Y-55169032D01*
X181752338Y-55123676D01*
X181821569Y-55114252D01*
X181884905Y-55143754D01*
X181906809Y-55169033D01*
X181992845Y-55300721D01*
X182145950Y-55467037D01*
X182145954Y-55467040D01*
X182324351Y-55605893D01*
X182523169Y-55713488D01*
X182736986Y-55786891D01*
X182959967Y-55824100D01*
X182959968Y-55824100D01*
X183186032Y-55824100D01*
X183186033Y-55824100D01*
X183409014Y-55786891D01*
X183622831Y-55713488D01*
X183821649Y-55605893D01*
X184000046Y-55467040D01*
X184153156Y-55300719D01*
X184239192Y-55169032D01*
X184292338Y-55123676D01*
X184361569Y-55114252D01*
X184424905Y-55143754D01*
X184446809Y-55169033D01*
X184532845Y-55300721D01*
X184685950Y-55467037D01*
X184685954Y-55467040D01*
X184864351Y-55605893D01*
X185063169Y-55713488D01*
X185276986Y-55786891D01*
X185499967Y-55824100D01*
X185499968Y-55824100D01*
X185726032Y-55824100D01*
X185726033Y-55824100D01*
X185949014Y-55786891D01*
X186162831Y-55713488D01*
X186361649Y-55605893D01*
X186540046Y-55467040D01*
X186693156Y-55300719D01*
X186779192Y-55169032D01*
X186832338Y-55123676D01*
X186901569Y-55114252D01*
X186964905Y-55143754D01*
X186986809Y-55169033D01*
X187072845Y-55300721D01*
X187225950Y-55467037D01*
X187225954Y-55467040D01*
X187404351Y-55605893D01*
X187603169Y-55713488D01*
X187816986Y-55786891D01*
X188039967Y-55824100D01*
X188039968Y-55824100D01*
X188266032Y-55824100D01*
X188266033Y-55824100D01*
X188489014Y-55786891D01*
X188702831Y-55713488D01*
X188901649Y-55605893D01*
X189080046Y-55467040D01*
X189233156Y-55300719D01*
X189319192Y-55169032D01*
X189372338Y-55123676D01*
X189441569Y-55114252D01*
X189504905Y-55143754D01*
X189526809Y-55169033D01*
X189612845Y-55300721D01*
X189765950Y-55467037D01*
X189765954Y-55467040D01*
X189944351Y-55605893D01*
X190143169Y-55713488D01*
X190356986Y-55786891D01*
X190579967Y-55824100D01*
X190579968Y-55824100D01*
X190806032Y-55824100D01*
X190806033Y-55824100D01*
X191029014Y-55786891D01*
X191242831Y-55713488D01*
X191441649Y-55605893D01*
X191620046Y-55467040D01*
X191773156Y-55300719D01*
X191859192Y-55169032D01*
X191912338Y-55123676D01*
X191981569Y-55114252D01*
X192044905Y-55143754D01*
X192066809Y-55169033D01*
X192152845Y-55300721D01*
X192305950Y-55467037D01*
X192305954Y-55467040D01*
X192484351Y-55605893D01*
X192683169Y-55713488D01*
X192896986Y-55786891D01*
X193119967Y-55824100D01*
X193119968Y-55824100D01*
X193346032Y-55824100D01*
X193346033Y-55824100D01*
X193569014Y-55786891D01*
X193782831Y-55713488D01*
X193981649Y-55605893D01*
X194160046Y-55467040D01*
X194160049Y-55467037D01*
X194313154Y-55300722D01*
X194313156Y-55300719D01*
X194399192Y-55169031D01*
X194452336Y-55123676D01*
X194521567Y-55114252D01*
X194584903Y-55143753D01*
X194606807Y-55169032D01*
X194692843Y-55300720D01*
X194845950Y-55467037D01*
X194845954Y-55467040D01*
X195024351Y-55605893D01*
X195223169Y-55713488D01*
X195436986Y-55786891D01*
X195659967Y-55824100D01*
X195659968Y-55824100D01*
X195886032Y-55824100D01*
X195886033Y-55824100D01*
X196109014Y-55786891D01*
X196322831Y-55713488D01*
X196521649Y-55605893D01*
X196700046Y-55467040D01*
X196853156Y-55300719D01*
X196939192Y-55169032D01*
X196992338Y-55123676D01*
X197061569Y-55114252D01*
X197124905Y-55143754D01*
X197146809Y-55169033D01*
X197232845Y-55300721D01*
X197385950Y-55467037D01*
X197385954Y-55467040D01*
X197564351Y-55605893D01*
X197763169Y-55713488D01*
X197976986Y-55786891D01*
X198199967Y-55824100D01*
X198199968Y-55824100D01*
X198426032Y-55824100D01*
X198426033Y-55824100D01*
X198649014Y-55786891D01*
X198862831Y-55713488D01*
X199061649Y-55605893D01*
X199240046Y-55467040D01*
X199277293Y-55426579D01*
X199393152Y-55300724D01*
X199393155Y-55300720D01*
X199393156Y-55300719D01*
X199516802Y-55111465D01*
X199607611Y-54904441D01*
X199663107Y-54685293D01*
X199676160Y-54527764D01*
X200268787Y-54527764D01*
X200298413Y-54797016D01*
X200332998Y-54929304D01*
X200366928Y-55059088D01*
X200469612Y-55300724D01*
X200472871Y-55308392D01*
X200613982Y-55539611D01*
X200786166Y-55746512D01*
X200787255Y-55747820D01*
X200988998Y-55928582D01*
X201214910Y-56078044D01*
X201321211Y-56127876D01*
X201460177Y-56193021D01*
X201719562Y-56271058D01*
X201719569Y-56271060D01*
X201987561Y-56310500D01*
X201987564Y-56310500D01*
X202188369Y-56310500D01*
X202190631Y-56310500D01*
X202393156Y-56295677D01*
X202657553Y-56236780D01*
X202910558Y-56140014D01*
X203146777Y-56007441D01*
X203361177Y-55841888D01*
X203549186Y-55646881D01*
X203706799Y-55426579D01*
X203830656Y-55185675D01*
X203918118Y-54929305D01*
X203967319Y-54662933D01*
X203977212Y-54392235D01*
X203947586Y-54122982D01*
X203879072Y-53860912D01*
X203773130Y-53611610D01*
X203632018Y-53380390D01*
X203632017Y-53380388D01*
X203458746Y-53172181D01*
X203353759Y-53078112D01*
X203257002Y-52991418D01*
X203031090Y-52841956D01*
X203031086Y-52841954D01*
X202785822Y-52726978D01*
X202526437Y-52648941D01*
X202526431Y-52648940D01*
X202258439Y-52609500D01*
X202055369Y-52609500D01*
X202053120Y-52609664D01*
X202053109Y-52609665D01*
X201852843Y-52624322D01*
X201588449Y-52683219D01*
X201335441Y-52779986D01*
X201099223Y-52912559D01*
X200884825Y-53078109D01*
X200696813Y-53273120D01*
X200539201Y-53493420D01*
X200415342Y-53734329D01*
X200327881Y-53990695D01*
X200278680Y-54257066D01*
X200268787Y-54527764D01*
X199676160Y-54527764D01*
X199681775Y-54460000D01*
X199663107Y-54234707D01*
X199607611Y-54015559D01*
X199516802Y-53808535D01*
X199393156Y-53619281D01*
X199393155Y-53619280D01*
X199393152Y-53619275D01*
X199240049Y-53452962D01*
X199061650Y-53314108D01*
X199061649Y-53314107D01*
X198862831Y-53206512D01*
X198862830Y-53206511D01*
X198862827Y-53206510D01*
X198649016Y-53133109D01*
X198500360Y-53108303D01*
X198426033Y-53095900D01*
X198199967Y-53095900D01*
X198144221Y-53105202D01*
X197976983Y-53133109D01*
X197763172Y-53206510D01*
X197564349Y-53314108D01*
X197385950Y-53452962D01*
X197232845Y-53619278D01*
X197146809Y-53750967D01*
X197093662Y-53796324D01*
X197024431Y-53805748D01*
X196961095Y-53776246D01*
X196939191Y-53750967D01*
X196853154Y-53619278D01*
X196700049Y-53452962D01*
X196521650Y-53314108D01*
X196521649Y-53314107D01*
X196322831Y-53206512D01*
X196322830Y-53206511D01*
X196322827Y-53206510D01*
X196109016Y-53133109D01*
X195960360Y-53108302D01*
X195886033Y-53095900D01*
X195659967Y-53095900D01*
X195604221Y-53105202D01*
X195436983Y-53133109D01*
X195223172Y-53206510D01*
X195024349Y-53314108D01*
X194845950Y-53452962D01*
X194692843Y-53619279D01*
X194606807Y-53750968D01*
X194553661Y-53796324D01*
X194484430Y-53805748D01*
X194421094Y-53776246D01*
X194399193Y-53750971D01*
X194348244Y-53672988D01*
X194313154Y-53619277D01*
X194160049Y-53452962D01*
X193981650Y-53314108D01*
X193981649Y-53314107D01*
X193782831Y-53206512D01*
X193782830Y-53206511D01*
X193782827Y-53206510D01*
X193569016Y-53133109D01*
X193420359Y-53108303D01*
X193346033Y-53095900D01*
X193119967Y-53095900D01*
X193064221Y-53105202D01*
X192896983Y-53133109D01*
X192683172Y-53206510D01*
X192484349Y-53314108D01*
X192305950Y-53452962D01*
X192152843Y-53619279D01*
X192066807Y-53750968D01*
X192013661Y-53796324D01*
X191944430Y-53805748D01*
X191881094Y-53776246D01*
X191859193Y-53750971D01*
X191808244Y-53672988D01*
X191773154Y-53619277D01*
X191620049Y-53452962D01*
X191441650Y-53314108D01*
X191441649Y-53314107D01*
X191242831Y-53206512D01*
X191242830Y-53206511D01*
X191242827Y-53206510D01*
X191029016Y-53133109D01*
X190880360Y-53108302D01*
X190806033Y-53095900D01*
X190579967Y-53095900D01*
X190524221Y-53105202D01*
X190356983Y-53133109D01*
X190143172Y-53206510D01*
X189944349Y-53314108D01*
X189765950Y-53452962D01*
X189612843Y-53619279D01*
X189526807Y-53750968D01*
X189473661Y-53796324D01*
X189404430Y-53805748D01*
X189341094Y-53776246D01*
X189319193Y-53750971D01*
X189268244Y-53672988D01*
X189233154Y-53619277D01*
X189080049Y-53452962D01*
X188901650Y-53314108D01*
X188901649Y-53314107D01*
X188702831Y-53206512D01*
X188702830Y-53206511D01*
X188702827Y-53206510D01*
X188489016Y-53133109D01*
X188340360Y-53108303D01*
X188266033Y-53095900D01*
X188039967Y-53095900D01*
X187984221Y-53105202D01*
X187816983Y-53133109D01*
X187603172Y-53206510D01*
X187404349Y-53314108D01*
X187225950Y-53452962D01*
X187072845Y-53619278D01*
X186986809Y-53750967D01*
X186933662Y-53796324D01*
X186864431Y-53805748D01*
X186801095Y-53776246D01*
X186779191Y-53750967D01*
X186693154Y-53619278D01*
X186540049Y-53452962D01*
X186361650Y-53314108D01*
X186361649Y-53314107D01*
X186162831Y-53206512D01*
X186162830Y-53206511D01*
X186162827Y-53206510D01*
X185949016Y-53133109D01*
X185800360Y-53108302D01*
X185726033Y-53095900D01*
X185499967Y-53095900D01*
X185444221Y-53105202D01*
X185276983Y-53133109D01*
X185063172Y-53206510D01*
X184864349Y-53314108D01*
X184685950Y-53452962D01*
X184532845Y-53619278D01*
X184446809Y-53750967D01*
X184393662Y-53796324D01*
X184324431Y-53805748D01*
X184261095Y-53776246D01*
X184239191Y-53750967D01*
X184153154Y-53619278D01*
X184000049Y-53452962D01*
X183821650Y-53314108D01*
X183821649Y-53314107D01*
X183622831Y-53206512D01*
X183622830Y-53206511D01*
X183622827Y-53206510D01*
X183409016Y-53133109D01*
X183260359Y-53108303D01*
X183186033Y-53095900D01*
X182959967Y-53095900D01*
X182904221Y-53105202D01*
X182736983Y-53133109D01*
X182523172Y-53206510D01*
X182324349Y-53314108D01*
X182145950Y-53452962D01*
X181992845Y-53619278D01*
X181906809Y-53750967D01*
X181853662Y-53796324D01*
X181784431Y-53805748D01*
X181721095Y-53776246D01*
X181699191Y-53750967D01*
X181613154Y-53619278D01*
X181460049Y-53452962D01*
X181281650Y-53314108D01*
X181281649Y-53314107D01*
X181082831Y-53206512D01*
X181082830Y-53206511D01*
X181082827Y-53206510D01*
X180869016Y-53133109D01*
X180720360Y-53108302D01*
X180646033Y-53095900D01*
X180419967Y-53095900D01*
X180364221Y-53105202D01*
X180196983Y-53133109D01*
X179983172Y-53206510D01*
X179784349Y-53314108D01*
X179605950Y-53452962D01*
X179452847Y-53619275D01*
X179329196Y-53808537D01*
X179263000Y-53959451D01*
X179238389Y-54015559D01*
X179182893Y-54234707D01*
X179182892Y-54234711D01*
X179164224Y-54459999D01*
X176821775Y-54459999D01*
X176803107Y-54234707D01*
X176747611Y-54015559D01*
X176656802Y-53808535D01*
X176533156Y-53619281D01*
X176533155Y-53619280D01*
X176533152Y-53619275D01*
X176380049Y-53452962D01*
X176201650Y-53314108D01*
X176201649Y-53314107D01*
X176002831Y-53206512D01*
X176002830Y-53206511D01*
X176002827Y-53206510D01*
X175789016Y-53133109D01*
X175640360Y-53108302D01*
X175566033Y-53095900D01*
X175339967Y-53095900D01*
X175284221Y-53105202D01*
X175116983Y-53133109D01*
X174903172Y-53206510D01*
X174704349Y-53314108D01*
X174525950Y-53452962D01*
X174372845Y-53619278D01*
X174286809Y-53750967D01*
X174233662Y-53796324D01*
X174164431Y-53805748D01*
X174101095Y-53776246D01*
X174079191Y-53750967D01*
X173993154Y-53619278D01*
X173840049Y-53452962D01*
X173661650Y-53314108D01*
X173661649Y-53314107D01*
X173462831Y-53206512D01*
X173462830Y-53206511D01*
X173462827Y-53206510D01*
X173249016Y-53133109D01*
X173100359Y-53108303D01*
X173026033Y-53095900D01*
X172799967Y-53095900D01*
X172744221Y-53105202D01*
X172576983Y-53133109D01*
X172363172Y-53206510D01*
X172164349Y-53314108D01*
X171985950Y-53452962D01*
X171832845Y-53619278D01*
X171746809Y-53750967D01*
X171693662Y-53796324D01*
X171624431Y-53805748D01*
X171561095Y-53776246D01*
X171539191Y-53750967D01*
X171453154Y-53619278D01*
X171300049Y-53452962D01*
X171121650Y-53314108D01*
X171121649Y-53314107D01*
X170922831Y-53206512D01*
X170922830Y-53206511D01*
X170922827Y-53206510D01*
X170709016Y-53133109D01*
X170560360Y-53108302D01*
X170486033Y-53095900D01*
X170259967Y-53095900D01*
X170204221Y-53105202D01*
X170036983Y-53133109D01*
X169823172Y-53206510D01*
X169624349Y-53314108D01*
X169445950Y-53452962D01*
X169292845Y-53619278D01*
X169206809Y-53750967D01*
X169153662Y-53796324D01*
X169084431Y-53805748D01*
X169021095Y-53776246D01*
X168999191Y-53750967D01*
X168913154Y-53619278D01*
X168760049Y-53452962D01*
X168581650Y-53314108D01*
X168581649Y-53314107D01*
X168382831Y-53206512D01*
X168382830Y-53206511D01*
X168382827Y-53206510D01*
X168169016Y-53133109D01*
X168020360Y-53108303D01*
X167946033Y-53095900D01*
X167719967Y-53095900D01*
X167664221Y-53105202D01*
X167496983Y-53133109D01*
X167283172Y-53206510D01*
X167084349Y-53314108D01*
X166905950Y-53452962D01*
X166752847Y-53619275D01*
X166629196Y-53808537D01*
X166563000Y-53959451D01*
X166538389Y-54015559D01*
X166482893Y-54234707D01*
X166482892Y-54234711D01*
X166464224Y-54459999D01*
X156403500Y-54459999D01*
X156403500Y-52044500D01*
X156423185Y-51977461D01*
X156475989Y-51931706D01*
X156527500Y-51920500D01*
X210888500Y-51920500D01*
X210955539Y-51940185D01*
G37*
%TD.AperFunction*%
%TA.AperFunction,Conductor*%
G36*
X160463000Y-73570633D02*
G01*
X160676490Y-73513430D01*
X160890576Y-73413600D01*
X161084077Y-73278109D01*
X161199479Y-73162707D01*
X161260802Y-73129222D01*
X161330494Y-73134206D01*
X161386428Y-73176077D01*
X161401265Y-73213786D01*
X161403959Y-73212782D01*
X161459647Y-73362089D01*
X161545811Y-73477188D01*
X161660910Y-73563352D01*
X161795628Y-73613599D01*
X161851867Y-73619645D01*
X161858482Y-73620000D01*
X162503000Y-73620000D01*
X162503000Y-72705501D01*
X162610685Y-72754680D01*
X162717237Y-72770000D01*
X162788763Y-72770000D01*
X162895315Y-72754680D01*
X163003000Y-72705501D01*
X163003000Y-73620000D01*
X163647518Y-73620000D01*
X163654132Y-73619645D01*
X163710371Y-73613599D01*
X163845089Y-73563352D01*
X163960188Y-73477188D01*
X164046352Y-73362089D01*
X164102041Y-73212782D01*
X164105324Y-73214006D01*
X164122218Y-73173222D01*
X164179610Y-73133374D01*
X164249436Y-73130880D01*
X164306451Y-73163347D01*
X164421599Y-73278495D01*
X164607160Y-73408426D01*
X164650783Y-73463002D01*
X164657976Y-73532501D01*
X164626454Y-73594855D01*
X164607159Y-73611575D01*
X164421595Y-73741508D01*
X164254505Y-73908598D01*
X164118965Y-74102170D01*
X164019097Y-74316336D01*
X163957936Y-74544592D01*
X163937340Y-74779999D01*
X163957936Y-75015407D01*
X163993227Y-75147113D01*
X164019097Y-75243663D01*
X164118965Y-75457830D01*
X164254505Y-75651401D01*
X164421599Y-75818495D01*
X164607160Y-75948426D01*
X164650783Y-76003002D01*
X164657976Y-76072501D01*
X164626454Y-76134855D01*
X164607159Y-76151575D01*
X164421595Y-76281508D01*
X164254508Y-76448595D01*
X164254505Y-76448598D01*
X164254505Y-76448599D01*
X164194916Y-76533700D01*
X164114071Y-76649160D01*
X164059494Y-76692784D01*
X163989995Y-76699977D01*
X163927641Y-76668455D01*
X163910925Y-76649164D01*
X163791495Y-76478599D01*
X163624401Y-76311505D01*
X163430830Y-76175965D01*
X163216663Y-76076097D01*
X163147257Y-76057500D01*
X162988407Y-76014936D01*
X162753000Y-75994340D01*
X162517592Y-76014936D01*
X162289336Y-76076097D01*
X162075170Y-76175965D01*
X161902624Y-76296783D01*
X161836418Y-76319110D01*
X161768651Y-76302100D01*
X161720838Y-76251152D01*
X161707501Y-76195208D01*
X161707501Y-76002399D01*
X161707501Y-75999258D01*
X161692075Y-75847562D01*
X161631160Y-75653412D01*
X161532410Y-75475498D01*
X161399867Y-75321105D01*
X161238959Y-75196552D01*
X161238958Y-75196551D01*
X161056273Y-75106940D01*
X160990610Y-75089938D01*
X160859286Y-75055937D01*
X160838672Y-75054891D01*
X160656063Y-75045630D01*
X160454929Y-75076443D01*
X160264114Y-75147113D01*
X160091432Y-75254745D01*
X160062727Y-75282032D01*
X159943948Y-75394941D01*
X159919531Y-75430022D01*
X159827706Y-75561950D01*
X159747461Y-75748941D01*
X159733168Y-75818493D01*
X159711098Y-75925892D01*
X159706501Y-75948260D01*
X159706501Y-77829722D01*
X159706461Y-77832864D01*
X159704243Y-77920363D01*
X159714649Y-77978421D01*
X159715958Y-77987750D01*
X159721927Y-78046439D01*
X159731034Y-78075468D01*
X159734773Y-78090703D01*
X159740142Y-78120653D01*
X159762021Y-78175426D01*
X159765181Y-78184301D01*
X159776822Y-78221404D01*
X159782842Y-78240589D01*
X159797608Y-78267192D01*
X159804338Y-78281365D01*
X159815623Y-78309618D01*
X159848081Y-78358868D01*
X159852962Y-78366924D01*
X159881591Y-78418502D01*
X159901405Y-78441582D01*
X159910857Y-78454117D01*
X159918617Y-78465892D01*
X159927600Y-78479521D01*
X159969301Y-78521222D01*
X159975706Y-78528133D01*
X160014131Y-78572892D01*
X160014132Y-78572893D01*
X160014135Y-78572896D01*
X160038199Y-78591523D01*
X160049969Y-78601890D01*
X161371108Y-79923029D01*
X161404593Y-79984352D01*
X161406955Y-79999902D01*
X161417936Y-80125407D01*
X161462709Y-80292502D01*
X161479097Y-80353663D01*
X161578965Y-80567830D01*
X161714505Y-80761401D01*
X161881599Y-80928495D01*
X162067160Y-81058426D01*
X162110783Y-81113002D01*
X162117976Y-81182501D01*
X162086454Y-81244855D01*
X162067158Y-81261575D01*
X161902205Y-81377076D01*
X161836003Y-81399402D01*
X161831085Y-81399500D01*
X159432002Y-81399500D01*
X159364963Y-81379815D01*
X159319208Y-81327011D01*
X159308002Y-81275500D01*
X159308002Y-77545288D01*
X159308001Y-73492559D01*
X159327686Y-73425521D01*
X159380490Y-73379766D01*
X159449648Y-73369822D01*
X159503125Y-73390986D01*
X159535419Y-73413598D01*
X159749509Y-73513430D01*
X159963000Y-73570634D01*
X159963000Y-72675501D01*
X160070685Y-72724680D01*
X160177237Y-72740000D01*
X160248763Y-72740000D01*
X160355315Y-72724680D01*
X160463000Y-72675501D01*
X160463000Y-73570633D01*
G37*
%TD.AperFunction*%
%TA.AperFunction,Conductor*%
G36*
X161588677Y-72009685D02*
G01*
X161601477Y-72020000D01*
X162319314Y-72020000D01*
X162293507Y-72060156D01*
X162253000Y-72198111D01*
X162253000Y-72341889D01*
X162293507Y-72479844D01*
X162319314Y-72520000D01*
X161444362Y-72520000D01*
X161377323Y-72500315D01*
X161364523Y-72490000D01*
X160646686Y-72490000D01*
X160672493Y-72449844D01*
X160713000Y-72311889D01*
X160713000Y-72168111D01*
X160672493Y-72030156D01*
X160646686Y-71990000D01*
X161521638Y-71990000D01*
X161588677Y-72009685D01*
G37*
%TD.AperFunction*%
%TD*%
M02*
