%TF.GenerationSoftware,KiCad,Pcbnew,7.0.2*%
%TF.CreationDate,2023-07-27T18:48:29+02:00*%
%TF.ProjectId,Lochraster,4c6f6368-7261-4737-9465-722e6b696361,rev?*%
%TF.SameCoordinates,Original*%
%TF.FileFunction,Legend,Bot*%
%TF.FilePolarity,Positive*%
%FSLAX46Y46*%
G04 Gerber Fmt 4.6, Leading zero omitted, Abs format (unit mm)*
G04 Created by KiCad (PCBNEW 7.0.2) date 2023-07-27 18:48:29*
%MOMM*%
%LPD*%
G01*
G04 APERTURE LIST*
%ADD10C,0.150000*%
%ADD11C,0.100000*%
%ADD12C,3.200000*%
%ADD13O,1.727200X1.727200*%
%ADD14R,1.727200X1.727200*%
%ADD15C,1.700000*%
%ADD16O,1.700000X1.700000*%
%ADD17R,1.700000X1.700000*%
G04 APERTURE END LIST*
D10*
X164023000Y-60810000D02*
X199583000Y-60810000D01*
X164023000Y-98910000D02*
X164023000Y-60810000D01*
X199583000Y-60810000D02*
X199583000Y-98910000D01*
X199583000Y-98910000D02*
X164023000Y-98910000D01*
D11*
X170745684Y-101516030D02*
X170507589Y-101516030D01*
X170793303Y-101658887D02*
X170626637Y-101158887D01*
X170626637Y-101158887D02*
X170459970Y-101658887D01*
X170340923Y-101158887D02*
X170031399Y-101158887D01*
X170031399Y-101158887D02*
X170198066Y-101349363D01*
X170198066Y-101349363D02*
X170126637Y-101349363D01*
X170126637Y-101349363D02*
X170079018Y-101373173D01*
X170079018Y-101373173D02*
X170055209Y-101396982D01*
X170055209Y-101396982D02*
X170031399Y-101444601D01*
X170031399Y-101444601D02*
X170031399Y-101563649D01*
X170031399Y-101563649D02*
X170055209Y-101611268D01*
X170055209Y-101611268D02*
X170079018Y-101635078D01*
X170079018Y-101635078D02*
X170126637Y-101658887D01*
X170126637Y-101658887D02*
X170269494Y-101658887D01*
X170269494Y-101658887D02*
X170317113Y-101635078D01*
X170317113Y-101635078D02*
X170340923Y-101611268D01*
X191391332Y-58208809D02*
X191391332Y-57708809D01*
X191391332Y-57708809D02*
X191272284Y-57708809D01*
X191272284Y-57708809D02*
X191200856Y-57732619D01*
X191200856Y-57732619D02*
X191153237Y-57780238D01*
X191153237Y-57780238D02*
X191129427Y-57827857D01*
X191129427Y-57827857D02*
X191105618Y-57923095D01*
X191105618Y-57923095D02*
X191105618Y-57994523D01*
X191105618Y-57994523D02*
X191129427Y-58089761D01*
X191129427Y-58089761D02*
X191153237Y-58137380D01*
X191153237Y-58137380D02*
X191200856Y-58185000D01*
X191200856Y-58185000D02*
X191272284Y-58208809D01*
X191272284Y-58208809D02*
X191391332Y-58208809D01*
X190629427Y-58208809D02*
X190915141Y-58208809D01*
X190772284Y-58208809D02*
X190772284Y-57708809D01*
X190772284Y-57708809D02*
X190819903Y-57780238D01*
X190819903Y-57780238D02*
X190867522Y-57827857D01*
X190867522Y-57827857D02*
X190915141Y-57851666D01*
X190343713Y-57923095D02*
X190391332Y-57899285D01*
X190391332Y-57899285D02*
X190415142Y-57875476D01*
X190415142Y-57875476D02*
X190438951Y-57827857D01*
X190438951Y-57827857D02*
X190438951Y-57804047D01*
X190438951Y-57804047D02*
X190415142Y-57756428D01*
X190415142Y-57756428D02*
X190391332Y-57732619D01*
X190391332Y-57732619D02*
X190343713Y-57708809D01*
X190343713Y-57708809D02*
X190248475Y-57708809D01*
X190248475Y-57708809D02*
X190200856Y-57732619D01*
X190200856Y-57732619D02*
X190177047Y-57756428D01*
X190177047Y-57756428D02*
X190153237Y-57804047D01*
X190153237Y-57804047D02*
X190153237Y-57827857D01*
X190153237Y-57827857D02*
X190177047Y-57875476D01*
X190177047Y-57875476D02*
X190200856Y-57899285D01*
X190200856Y-57899285D02*
X190248475Y-57923095D01*
X190248475Y-57923095D02*
X190343713Y-57923095D01*
X190343713Y-57923095D02*
X190391332Y-57946904D01*
X190391332Y-57946904D02*
X190415142Y-57970714D01*
X190415142Y-57970714D02*
X190438951Y-58018333D01*
X190438951Y-58018333D02*
X190438951Y-58113571D01*
X190438951Y-58113571D02*
X190415142Y-58161190D01*
X190415142Y-58161190D02*
X190391332Y-58185000D01*
X190391332Y-58185000D02*
X190343713Y-58208809D01*
X190343713Y-58208809D02*
X190248475Y-58208809D01*
X190248475Y-58208809D02*
X190200856Y-58185000D01*
X190200856Y-58185000D02*
X190177047Y-58161190D01*
X190177047Y-58161190D02*
X190153237Y-58113571D01*
X190153237Y-58113571D02*
X190153237Y-58018333D01*
X190153237Y-58018333D02*
X190177047Y-57970714D01*
X190177047Y-57970714D02*
X190200856Y-57946904D01*
X190200856Y-57946904D02*
X190248475Y-57923095D01*
X205305494Y-83862809D02*
X205305494Y-83362809D01*
X205305494Y-83362809D02*
X205186446Y-83362809D01*
X205186446Y-83362809D02*
X205115018Y-83386619D01*
X205115018Y-83386619D02*
X205067399Y-83434238D01*
X205067399Y-83434238D02*
X205043589Y-83481857D01*
X205043589Y-83481857D02*
X205019780Y-83577095D01*
X205019780Y-83577095D02*
X205019780Y-83648523D01*
X205019780Y-83648523D02*
X205043589Y-83743761D01*
X205043589Y-83743761D02*
X205067399Y-83791380D01*
X205067399Y-83791380D02*
X205115018Y-83839000D01*
X205115018Y-83839000D02*
X205186446Y-83862809D01*
X205186446Y-83862809D02*
X205305494Y-83862809D01*
X204591208Y-83529476D02*
X204591208Y-83862809D01*
X204710256Y-83339000D02*
X204829303Y-83696142D01*
X204829303Y-83696142D02*
X204519780Y-83696142D01*
X204353113Y-83410428D02*
X204329304Y-83386619D01*
X204329304Y-83386619D02*
X204281685Y-83362809D01*
X204281685Y-83362809D02*
X204162637Y-83362809D01*
X204162637Y-83362809D02*
X204115018Y-83386619D01*
X204115018Y-83386619D02*
X204091209Y-83410428D01*
X204091209Y-83410428D02*
X204067399Y-83458047D01*
X204067399Y-83458047D02*
X204067399Y-83505666D01*
X204067399Y-83505666D02*
X204091209Y-83577095D01*
X204091209Y-83577095D02*
X204376923Y-83862809D01*
X204376923Y-83862809D02*
X204067399Y-83862809D01*
X202511494Y-71178887D02*
X202511494Y-70678887D01*
X202511494Y-70678887D02*
X202392446Y-70678887D01*
X202392446Y-70678887D02*
X202321018Y-70702697D01*
X202321018Y-70702697D02*
X202273399Y-70750316D01*
X202273399Y-70750316D02*
X202249589Y-70797935D01*
X202249589Y-70797935D02*
X202225780Y-70893173D01*
X202225780Y-70893173D02*
X202225780Y-70964601D01*
X202225780Y-70964601D02*
X202249589Y-71059839D01*
X202249589Y-71059839D02*
X202273399Y-71107458D01*
X202273399Y-71107458D02*
X202321018Y-71155078D01*
X202321018Y-71155078D02*
X202392446Y-71178887D01*
X202392446Y-71178887D02*
X202511494Y-71178887D01*
X202059113Y-70678887D02*
X201749589Y-70678887D01*
X201749589Y-70678887D02*
X201916256Y-70869363D01*
X201916256Y-70869363D02*
X201844827Y-70869363D01*
X201844827Y-70869363D02*
X201797208Y-70893173D01*
X201797208Y-70893173D02*
X201773399Y-70916982D01*
X201773399Y-70916982D02*
X201749589Y-70964601D01*
X201749589Y-70964601D02*
X201749589Y-71083649D01*
X201749589Y-71083649D02*
X201773399Y-71131268D01*
X201773399Y-71131268D02*
X201797208Y-71155078D01*
X201797208Y-71155078D02*
X201844827Y-71178887D01*
X201844827Y-71178887D02*
X201987684Y-71178887D01*
X201987684Y-71178887D02*
X202035303Y-71155078D01*
X202035303Y-71155078D02*
X202059113Y-71131268D01*
X201582923Y-70678887D02*
X201273399Y-70678887D01*
X201273399Y-70678887D02*
X201440066Y-70869363D01*
X201440066Y-70869363D02*
X201368637Y-70869363D01*
X201368637Y-70869363D02*
X201321018Y-70893173D01*
X201321018Y-70893173D02*
X201297209Y-70916982D01*
X201297209Y-70916982D02*
X201273399Y-70964601D01*
X201273399Y-70964601D02*
X201273399Y-71083649D01*
X201273399Y-71083649D02*
X201297209Y-71131268D01*
X201297209Y-71131268D02*
X201321018Y-71155078D01*
X201321018Y-71155078D02*
X201368637Y-71178887D01*
X201368637Y-71178887D02*
X201511494Y-71178887D01*
X201511494Y-71178887D02*
X201559113Y-71155078D01*
X201559113Y-71155078D02*
X201582923Y-71131268D01*
X178294522Y-101499952D02*
X178056427Y-101499952D01*
X178342141Y-101642809D02*
X178175475Y-101142809D01*
X178175475Y-101142809D02*
X178008808Y-101642809D01*
X177627856Y-101142809D02*
X177723094Y-101142809D01*
X177723094Y-101142809D02*
X177770713Y-101166619D01*
X177770713Y-101166619D02*
X177794523Y-101190428D01*
X177794523Y-101190428D02*
X177842142Y-101261857D01*
X177842142Y-101261857D02*
X177865951Y-101357095D01*
X177865951Y-101357095D02*
X177865951Y-101547571D01*
X177865951Y-101547571D02*
X177842142Y-101595190D01*
X177842142Y-101595190D02*
X177818332Y-101619000D01*
X177818332Y-101619000D02*
X177770713Y-101642809D01*
X177770713Y-101642809D02*
X177675475Y-101642809D01*
X177675475Y-101642809D02*
X177627856Y-101619000D01*
X177627856Y-101619000D02*
X177604047Y-101595190D01*
X177604047Y-101595190D02*
X177580237Y-101547571D01*
X177580237Y-101547571D02*
X177580237Y-101428523D01*
X177580237Y-101428523D02*
X177604047Y-101380904D01*
X177604047Y-101380904D02*
X177627856Y-101357095D01*
X177627856Y-101357095D02*
X177675475Y-101333285D01*
X177675475Y-101333285D02*
X177770713Y-101333285D01*
X177770713Y-101333285D02*
X177818332Y-101357095D01*
X177818332Y-101357095D02*
X177842142Y-101380904D01*
X177842142Y-101380904D02*
X177865951Y-101428523D01*
X199090712Y-101499952D02*
X198852617Y-101499952D01*
X199138331Y-101642809D02*
X198971665Y-101142809D01*
X198971665Y-101142809D02*
X198804998Y-101642809D01*
X198376427Y-101642809D02*
X198662141Y-101642809D01*
X198519284Y-101642809D02*
X198519284Y-101142809D01*
X198519284Y-101142809D02*
X198566903Y-101214238D01*
X198566903Y-101214238D02*
X198614522Y-101261857D01*
X198614522Y-101261857D02*
X198662141Y-101285666D01*
X198209761Y-101142809D02*
X197900237Y-101142809D01*
X197900237Y-101142809D02*
X198066904Y-101333285D01*
X198066904Y-101333285D02*
X197995475Y-101333285D01*
X197995475Y-101333285D02*
X197947856Y-101357095D01*
X197947856Y-101357095D02*
X197924047Y-101380904D01*
X197924047Y-101380904D02*
X197900237Y-101428523D01*
X197900237Y-101428523D02*
X197900237Y-101547571D01*
X197900237Y-101547571D02*
X197924047Y-101595190D01*
X197924047Y-101595190D02*
X197947856Y-101619000D01*
X197947856Y-101619000D02*
X197995475Y-101642809D01*
X197995475Y-101642809D02*
X198138332Y-101642809D01*
X198138332Y-101642809D02*
X198185951Y-101619000D01*
X198185951Y-101619000D02*
X198209761Y-101595190D01*
X158180857Y-71702619D02*
X158228476Y-71678809D01*
X158228476Y-71678809D02*
X158299905Y-71678809D01*
X158299905Y-71678809D02*
X158371333Y-71702619D01*
X158371333Y-71702619D02*
X158418952Y-71750238D01*
X158418952Y-71750238D02*
X158442762Y-71797857D01*
X158442762Y-71797857D02*
X158466571Y-71893095D01*
X158466571Y-71893095D02*
X158466571Y-71964523D01*
X158466571Y-71964523D02*
X158442762Y-72059761D01*
X158442762Y-72059761D02*
X158418952Y-72107380D01*
X158418952Y-72107380D02*
X158371333Y-72155000D01*
X158371333Y-72155000D02*
X158299905Y-72178809D01*
X158299905Y-72178809D02*
X158252286Y-72178809D01*
X158252286Y-72178809D02*
X158180857Y-72155000D01*
X158180857Y-72155000D02*
X158157048Y-72131190D01*
X158157048Y-72131190D02*
X158157048Y-71964523D01*
X158157048Y-71964523D02*
X158252286Y-71964523D01*
X157942762Y-72178809D02*
X157942762Y-71678809D01*
X157942762Y-71678809D02*
X157657048Y-72178809D01*
X157657048Y-72178809D02*
X157657048Y-71678809D01*
X157418952Y-72178809D02*
X157418952Y-71678809D01*
X157418952Y-71678809D02*
X157299904Y-71678809D01*
X157299904Y-71678809D02*
X157228476Y-71702619D01*
X157228476Y-71702619D02*
X157180857Y-71750238D01*
X157180857Y-71750238D02*
X157157047Y-71797857D01*
X157157047Y-71797857D02*
X157133238Y-71893095D01*
X157133238Y-71893095D02*
X157133238Y-71964523D01*
X157133238Y-71964523D02*
X157157047Y-72059761D01*
X157157047Y-72059761D02*
X157180857Y-72107380D01*
X157180857Y-72107380D02*
X157228476Y-72155000D01*
X157228476Y-72155000D02*
X157299904Y-72178809D01*
X157299904Y-72178809D02*
X157418952Y-72178809D01*
X168205684Y-101516030D02*
X167967589Y-101516030D01*
X168253303Y-101658887D02*
X168086637Y-101158887D01*
X168086637Y-101158887D02*
X167919970Y-101658887D01*
X167777113Y-101206506D02*
X167753304Y-101182697D01*
X167753304Y-101182697D02*
X167705685Y-101158887D01*
X167705685Y-101158887D02*
X167586637Y-101158887D01*
X167586637Y-101158887D02*
X167539018Y-101182697D01*
X167539018Y-101182697D02*
X167515209Y-101206506D01*
X167515209Y-101206506D02*
X167491399Y-101254125D01*
X167491399Y-101254125D02*
X167491399Y-101301744D01*
X167491399Y-101301744D02*
X167515209Y-101373173D01*
X167515209Y-101373173D02*
X167800923Y-101658887D01*
X167800923Y-101658887D02*
X167491399Y-101658887D01*
X202511494Y-91498887D02*
X202511494Y-90998887D01*
X202511494Y-90998887D02*
X202392446Y-90998887D01*
X202392446Y-90998887D02*
X202321018Y-91022697D01*
X202321018Y-91022697D02*
X202273399Y-91070316D01*
X202273399Y-91070316D02*
X202249589Y-91117935D01*
X202249589Y-91117935D02*
X202225780Y-91213173D01*
X202225780Y-91213173D02*
X202225780Y-91284601D01*
X202225780Y-91284601D02*
X202249589Y-91379839D01*
X202249589Y-91379839D02*
X202273399Y-91427458D01*
X202273399Y-91427458D02*
X202321018Y-91475078D01*
X202321018Y-91475078D02*
X202392446Y-91498887D01*
X202392446Y-91498887D02*
X202511494Y-91498887D01*
X201797208Y-91165554D02*
X201797208Y-91498887D01*
X201916256Y-90975078D02*
X202035303Y-91332220D01*
X202035303Y-91332220D02*
X201725780Y-91332220D01*
X201511494Y-91498887D02*
X201416256Y-91498887D01*
X201416256Y-91498887D02*
X201368637Y-91475078D01*
X201368637Y-91475078D02*
X201344828Y-91451268D01*
X201344828Y-91451268D02*
X201297209Y-91379839D01*
X201297209Y-91379839D02*
X201273399Y-91284601D01*
X201273399Y-91284601D02*
X201273399Y-91094125D01*
X201273399Y-91094125D02*
X201297209Y-91046506D01*
X201297209Y-91046506D02*
X201321018Y-91022697D01*
X201321018Y-91022697D02*
X201368637Y-90998887D01*
X201368637Y-90998887D02*
X201463875Y-90998887D01*
X201463875Y-90998887D02*
X201511494Y-91022697D01*
X201511494Y-91022697D02*
X201535304Y-91046506D01*
X201535304Y-91046506D02*
X201559113Y-91094125D01*
X201559113Y-91094125D02*
X201559113Y-91213173D01*
X201559113Y-91213173D02*
X201535304Y-91260792D01*
X201535304Y-91260792D02*
X201511494Y-91284601D01*
X201511494Y-91284601D02*
X201463875Y-91308411D01*
X201463875Y-91308411D02*
X201368637Y-91308411D01*
X201368637Y-91308411D02*
X201321018Y-91284601D01*
X201321018Y-91284601D02*
X201297209Y-91260792D01*
X201297209Y-91260792D02*
X201273399Y-91213173D01*
X160720857Y-84402619D02*
X160768476Y-84378809D01*
X160768476Y-84378809D02*
X160839905Y-84378809D01*
X160839905Y-84378809D02*
X160911333Y-84402619D01*
X160911333Y-84402619D02*
X160958952Y-84450238D01*
X160958952Y-84450238D02*
X160982762Y-84497857D01*
X160982762Y-84497857D02*
X161006571Y-84593095D01*
X161006571Y-84593095D02*
X161006571Y-84664523D01*
X161006571Y-84664523D02*
X160982762Y-84759761D01*
X160982762Y-84759761D02*
X160958952Y-84807380D01*
X160958952Y-84807380D02*
X160911333Y-84855000D01*
X160911333Y-84855000D02*
X160839905Y-84878809D01*
X160839905Y-84878809D02*
X160792286Y-84878809D01*
X160792286Y-84878809D02*
X160720857Y-84855000D01*
X160720857Y-84855000D02*
X160697048Y-84831190D01*
X160697048Y-84831190D02*
X160697048Y-84664523D01*
X160697048Y-84664523D02*
X160792286Y-84664523D01*
X160482762Y-84878809D02*
X160482762Y-84378809D01*
X160482762Y-84378809D02*
X160197048Y-84878809D01*
X160197048Y-84878809D02*
X160197048Y-84378809D01*
X159958952Y-84878809D02*
X159958952Y-84378809D01*
X159958952Y-84378809D02*
X159839904Y-84378809D01*
X159839904Y-84378809D02*
X159768476Y-84402619D01*
X159768476Y-84402619D02*
X159720857Y-84450238D01*
X159720857Y-84450238D02*
X159697047Y-84497857D01*
X159697047Y-84497857D02*
X159673238Y-84593095D01*
X159673238Y-84593095D02*
X159673238Y-84664523D01*
X159673238Y-84664523D02*
X159697047Y-84759761D01*
X159697047Y-84759761D02*
X159720857Y-84807380D01*
X159720857Y-84807380D02*
X159768476Y-84855000D01*
X159768476Y-84855000D02*
X159839904Y-84878809D01*
X159839904Y-84878809D02*
X159958952Y-84878809D01*
X185914522Y-101499952D02*
X185676427Y-101499952D01*
X185962141Y-101642809D02*
X185795475Y-101142809D01*
X185795475Y-101142809D02*
X185628808Y-101642809D01*
X185390713Y-101357095D02*
X185438332Y-101333285D01*
X185438332Y-101333285D02*
X185462142Y-101309476D01*
X185462142Y-101309476D02*
X185485951Y-101261857D01*
X185485951Y-101261857D02*
X185485951Y-101238047D01*
X185485951Y-101238047D02*
X185462142Y-101190428D01*
X185462142Y-101190428D02*
X185438332Y-101166619D01*
X185438332Y-101166619D02*
X185390713Y-101142809D01*
X185390713Y-101142809D02*
X185295475Y-101142809D01*
X185295475Y-101142809D02*
X185247856Y-101166619D01*
X185247856Y-101166619D02*
X185224047Y-101190428D01*
X185224047Y-101190428D02*
X185200237Y-101238047D01*
X185200237Y-101238047D02*
X185200237Y-101261857D01*
X185200237Y-101261857D02*
X185224047Y-101309476D01*
X185224047Y-101309476D02*
X185247856Y-101333285D01*
X185247856Y-101333285D02*
X185295475Y-101357095D01*
X185295475Y-101357095D02*
X185390713Y-101357095D01*
X185390713Y-101357095D02*
X185438332Y-101380904D01*
X185438332Y-101380904D02*
X185462142Y-101404714D01*
X185462142Y-101404714D02*
X185485951Y-101452333D01*
X185485951Y-101452333D02*
X185485951Y-101547571D01*
X185485951Y-101547571D02*
X185462142Y-101595190D01*
X185462142Y-101595190D02*
X185438332Y-101619000D01*
X185438332Y-101619000D02*
X185390713Y-101642809D01*
X185390713Y-101642809D02*
X185295475Y-101642809D01*
X185295475Y-101642809D02*
X185247856Y-101619000D01*
X185247856Y-101619000D02*
X185224047Y-101595190D01*
X185224047Y-101595190D02*
X185200237Y-101547571D01*
X185200237Y-101547571D02*
X185200237Y-101452333D01*
X185200237Y-101452333D02*
X185224047Y-101404714D01*
X185224047Y-101404714D02*
X185247856Y-101380904D01*
X185247856Y-101380904D02*
X185295475Y-101357095D01*
X202511494Y-78782809D02*
X202511494Y-78282809D01*
X202511494Y-78282809D02*
X202392446Y-78282809D01*
X202392446Y-78282809D02*
X202321018Y-78306619D01*
X202321018Y-78306619D02*
X202273399Y-78354238D01*
X202273399Y-78354238D02*
X202249589Y-78401857D01*
X202249589Y-78401857D02*
X202225780Y-78497095D01*
X202225780Y-78497095D02*
X202225780Y-78568523D01*
X202225780Y-78568523D02*
X202249589Y-78663761D01*
X202249589Y-78663761D02*
X202273399Y-78711380D01*
X202273399Y-78711380D02*
X202321018Y-78759000D01*
X202321018Y-78759000D02*
X202392446Y-78782809D01*
X202392446Y-78782809D02*
X202511494Y-78782809D01*
X202059113Y-78282809D02*
X201749589Y-78282809D01*
X201749589Y-78282809D02*
X201916256Y-78473285D01*
X201916256Y-78473285D02*
X201844827Y-78473285D01*
X201844827Y-78473285D02*
X201797208Y-78497095D01*
X201797208Y-78497095D02*
X201773399Y-78520904D01*
X201773399Y-78520904D02*
X201749589Y-78568523D01*
X201749589Y-78568523D02*
X201749589Y-78687571D01*
X201749589Y-78687571D02*
X201773399Y-78735190D01*
X201773399Y-78735190D02*
X201797208Y-78759000D01*
X201797208Y-78759000D02*
X201844827Y-78782809D01*
X201844827Y-78782809D02*
X201987684Y-78782809D01*
X201987684Y-78782809D02*
X202035303Y-78759000D01*
X202035303Y-78759000D02*
X202059113Y-78735190D01*
X201511494Y-78782809D02*
X201416256Y-78782809D01*
X201416256Y-78782809D02*
X201368637Y-78759000D01*
X201368637Y-78759000D02*
X201344828Y-78735190D01*
X201344828Y-78735190D02*
X201297209Y-78663761D01*
X201297209Y-78663761D02*
X201273399Y-78568523D01*
X201273399Y-78568523D02*
X201273399Y-78378047D01*
X201273399Y-78378047D02*
X201297209Y-78330428D01*
X201297209Y-78330428D02*
X201321018Y-78306619D01*
X201321018Y-78306619D02*
X201368637Y-78282809D01*
X201368637Y-78282809D02*
X201463875Y-78282809D01*
X201463875Y-78282809D02*
X201511494Y-78306619D01*
X201511494Y-78306619D02*
X201535304Y-78330428D01*
X201535304Y-78330428D02*
X201559113Y-78378047D01*
X201559113Y-78378047D02*
X201559113Y-78497095D01*
X201559113Y-78497095D02*
X201535304Y-78544714D01*
X201535304Y-78544714D02*
X201511494Y-78568523D01*
X201511494Y-78568523D02*
X201463875Y-78592333D01*
X201463875Y-78592333D02*
X201368637Y-78592333D01*
X201368637Y-78592333D02*
X201321018Y-78568523D01*
X201321018Y-78568523D02*
X201297209Y-78544714D01*
X201297209Y-78544714D02*
X201273399Y-78497095D01*
X165665684Y-101516030D02*
X165427589Y-101516030D01*
X165713303Y-101658887D02*
X165546637Y-101158887D01*
X165546637Y-101158887D02*
X165379970Y-101658887D01*
X164951399Y-101658887D02*
X165237113Y-101658887D01*
X165094256Y-101658887D02*
X165094256Y-101158887D01*
X165094256Y-101158887D02*
X165141875Y-101230316D01*
X165141875Y-101230316D02*
X165189494Y-101277935D01*
X165189494Y-101277935D02*
X165237113Y-101301744D01*
X175754522Y-101499952D02*
X175516427Y-101499952D01*
X175802141Y-101642809D02*
X175635475Y-101142809D01*
X175635475Y-101142809D02*
X175468808Y-101642809D01*
X175064047Y-101142809D02*
X175302142Y-101142809D01*
X175302142Y-101142809D02*
X175325951Y-101380904D01*
X175325951Y-101380904D02*
X175302142Y-101357095D01*
X175302142Y-101357095D02*
X175254523Y-101333285D01*
X175254523Y-101333285D02*
X175135475Y-101333285D01*
X175135475Y-101333285D02*
X175087856Y-101357095D01*
X175087856Y-101357095D02*
X175064047Y-101380904D01*
X175064047Y-101380904D02*
X175040237Y-101428523D01*
X175040237Y-101428523D02*
X175040237Y-101547571D01*
X175040237Y-101547571D02*
X175064047Y-101595190D01*
X175064047Y-101595190D02*
X175087856Y-101619000D01*
X175087856Y-101619000D02*
X175135475Y-101642809D01*
X175135475Y-101642809D02*
X175254523Y-101642809D01*
X175254523Y-101642809D02*
X175302142Y-101619000D01*
X175302142Y-101619000D02*
X175325951Y-101595190D01*
X202582656Y-83878887D02*
X202582656Y-83378887D01*
X202582656Y-83378887D02*
X202463608Y-83378887D01*
X202463608Y-83378887D02*
X202392180Y-83402697D01*
X202392180Y-83402697D02*
X202344561Y-83450316D01*
X202344561Y-83450316D02*
X202320751Y-83497935D01*
X202320751Y-83497935D02*
X202296942Y-83593173D01*
X202296942Y-83593173D02*
X202296942Y-83664601D01*
X202296942Y-83664601D02*
X202320751Y-83759839D01*
X202320751Y-83759839D02*
X202344561Y-83807458D01*
X202344561Y-83807458D02*
X202392180Y-83855078D01*
X202392180Y-83855078D02*
X202463608Y-83878887D01*
X202463608Y-83878887D02*
X202582656Y-83878887D01*
X201868370Y-83545554D02*
X201868370Y-83878887D01*
X201987418Y-83355078D02*
X202106465Y-83712220D01*
X202106465Y-83712220D02*
X201796942Y-83712220D01*
X201654085Y-83378887D02*
X201344561Y-83378887D01*
X201344561Y-83378887D02*
X201511228Y-83569363D01*
X201511228Y-83569363D02*
X201439799Y-83569363D01*
X201439799Y-83569363D02*
X201392180Y-83593173D01*
X201392180Y-83593173D02*
X201368371Y-83616982D01*
X201368371Y-83616982D02*
X201344561Y-83664601D01*
X201344561Y-83664601D02*
X201344561Y-83783649D01*
X201344561Y-83783649D02*
X201368371Y-83831268D01*
X201368371Y-83831268D02*
X201392180Y-83855078D01*
X201392180Y-83855078D02*
X201439799Y-83878887D01*
X201439799Y-83878887D02*
X201582656Y-83878887D01*
X201582656Y-83878887D02*
X201630275Y-83855078D01*
X201630275Y-83855078D02*
X201654085Y-83831268D01*
X188454522Y-101499952D02*
X188216427Y-101499952D01*
X188502141Y-101642809D02*
X188335475Y-101142809D01*
X188335475Y-101142809D02*
X188168808Y-101642809D01*
X187978332Y-101642809D02*
X187883094Y-101642809D01*
X187883094Y-101642809D02*
X187835475Y-101619000D01*
X187835475Y-101619000D02*
X187811666Y-101595190D01*
X187811666Y-101595190D02*
X187764047Y-101523761D01*
X187764047Y-101523761D02*
X187740237Y-101428523D01*
X187740237Y-101428523D02*
X187740237Y-101238047D01*
X187740237Y-101238047D02*
X187764047Y-101190428D01*
X187764047Y-101190428D02*
X187787856Y-101166619D01*
X187787856Y-101166619D02*
X187835475Y-101142809D01*
X187835475Y-101142809D02*
X187930713Y-101142809D01*
X187930713Y-101142809D02*
X187978332Y-101166619D01*
X187978332Y-101166619D02*
X188002142Y-101190428D01*
X188002142Y-101190428D02*
X188025951Y-101238047D01*
X188025951Y-101238047D02*
X188025951Y-101357095D01*
X188025951Y-101357095D02*
X188002142Y-101404714D01*
X188002142Y-101404714D02*
X187978332Y-101428523D01*
X187978332Y-101428523D02*
X187930713Y-101452333D01*
X187930713Y-101452333D02*
X187835475Y-101452333D01*
X187835475Y-101452333D02*
X187787856Y-101428523D01*
X187787856Y-101428523D02*
X187764047Y-101404714D01*
X187764047Y-101404714D02*
X187740237Y-101357095D01*
X205305494Y-94022809D02*
X205305494Y-93522809D01*
X205305494Y-93522809D02*
X205186446Y-93522809D01*
X205186446Y-93522809D02*
X205115018Y-93546619D01*
X205115018Y-93546619D02*
X205067399Y-93594238D01*
X205067399Y-93594238D02*
X205043589Y-93641857D01*
X205043589Y-93641857D02*
X205019780Y-93737095D01*
X205019780Y-93737095D02*
X205019780Y-93808523D01*
X205019780Y-93808523D02*
X205043589Y-93903761D01*
X205043589Y-93903761D02*
X205067399Y-93951380D01*
X205067399Y-93951380D02*
X205115018Y-93999000D01*
X205115018Y-93999000D02*
X205186446Y-94022809D01*
X205186446Y-94022809D02*
X205305494Y-94022809D01*
X204567399Y-93522809D02*
X204805494Y-93522809D01*
X204805494Y-93522809D02*
X204829303Y-93760904D01*
X204829303Y-93760904D02*
X204805494Y-93737095D01*
X204805494Y-93737095D02*
X204757875Y-93713285D01*
X204757875Y-93713285D02*
X204638827Y-93713285D01*
X204638827Y-93713285D02*
X204591208Y-93737095D01*
X204591208Y-93737095D02*
X204567399Y-93760904D01*
X204567399Y-93760904D02*
X204543589Y-93808523D01*
X204543589Y-93808523D02*
X204543589Y-93927571D01*
X204543589Y-93927571D02*
X204567399Y-93975190D01*
X204567399Y-93975190D02*
X204591208Y-93999000D01*
X204591208Y-93999000D02*
X204638827Y-94022809D01*
X204638827Y-94022809D02*
X204757875Y-94022809D01*
X204757875Y-94022809D02*
X204805494Y-93999000D01*
X204805494Y-93999000D02*
X204829303Y-93975190D01*
X204234066Y-93522809D02*
X204186447Y-93522809D01*
X204186447Y-93522809D02*
X204138828Y-93546619D01*
X204138828Y-93546619D02*
X204115018Y-93570428D01*
X204115018Y-93570428D02*
X204091209Y-93618047D01*
X204091209Y-93618047D02*
X204067399Y-93713285D01*
X204067399Y-93713285D02*
X204067399Y-93832333D01*
X204067399Y-93832333D02*
X204091209Y-93927571D01*
X204091209Y-93927571D02*
X204115018Y-93975190D01*
X204115018Y-93975190D02*
X204138828Y-93999000D01*
X204138828Y-93999000D02*
X204186447Y-94022809D01*
X204186447Y-94022809D02*
X204234066Y-94022809D01*
X204234066Y-94022809D02*
X204281685Y-93999000D01*
X204281685Y-93999000D02*
X204305494Y-93975190D01*
X204305494Y-93975190D02*
X204329304Y-93927571D01*
X204329304Y-93927571D02*
X204353113Y-93832333D01*
X204353113Y-93832333D02*
X204353113Y-93713285D01*
X204353113Y-93713285D02*
X204329304Y-93618047D01*
X204329304Y-93618047D02*
X204305494Y-93570428D01*
X204305494Y-93570428D02*
X204281685Y-93546619D01*
X204281685Y-93546619D02*
X204234066Y-93522809D01*
X205305494Y-96562809D02*
X205305494Y-96062809D01*
X205305494Y-96062809D02*
X205186446Y-96062809D01*
X205186446Y-96062809D02*
X205115018Y-96086619D01*
X205115018Y-96086619D02*
X205067399Y-96134238D01*
X205067399Y-96134238D02*
X205043589Y-96181857D01*
X205043589Y-96181857D02*
X205019780Y-96277095D01*
X205019780Y-96277095D02*
X205019780Y-96348523D01*
X205019780Y-96348523D02*
X205043589Y-96443761D01*
X205043589Y-96443761D02*
X205067399Y-96491380D01*
X205067399Y-96491380D02*
X205115018Y-96539000D01*
X205115018Y-96539000D02*
X205186446Y-96562809D01*
X205186446Y-96562809D02*
X205305494Y-96562809D01*
X204567399Y-96062809D02*
X204805494Y-96062809D01*
X204805494Y-96062809D02*
X204829303Y-96300904D01*
X204829303Y-96300904D02*
X204805494Y-96277095D01*
X204805494Y-96277095D02*
X204757875Y-96253285D01*
X204757875Y-96253285D02*
X204638827Y-96253285D01*
X204638827Y-96253285D02*
X204591208Y-96277095D01*
X204591208Y-96277095D02*
X204567399Y-96300904D01*
X204567399Y-96300904D02*
X204543589Y-96348523D01*
X204543589Y-96348523D02*
X204543589Y-96467571D01*
X204543589Y-96467571D02*
X204567399Y-96515190D01*
X204567399Y-96515190D02*
X204591208Y-96539000D01*
X204591208Y-96539000D02*
X204638827Y-96562809D01*
X204638827Y-96562809D02*
X204757875Y-96562809D01*
X204757875Y-96562809D02*
X204805494Y-96539000D01*
X204805494Y-96539000D02*
X204829303Y-96515190D01*
X204353113Y-96110428D02*
X204329304Y-96086619D01*
X204329304Y-96086619D02*
X204281685Y-96062809D01*
X204281685Y-96062809D02*
X204162637Y-96062809D01*
X204162637Y-96062809D02*
X204115018Y-96086619D01*
X204115018Y-96086619D02*
X204091209Y-96110428D01*
X204091209Y-96110428D02*
X204067399Y-96158047D01*
X204067399Y-96158047D02*
X204067399Y-96205666D01*
X204067399Y-96205666D02*
X204091209Y-96277095D01*
X204091209Y-96277095D02*
X204376923Y-96562809D01*
X204376923Y-96562809D02*
X204067399Y-96562809D01*
X205163170Y-61002809D02*
X205163170Y-60502809D01*
X205163170Y-60502809D02*
X205044122Y-60502809D01*
X205044122Y-60502809D02*
X204972694Y-60526619D01*
X204972694Y-60526619D02*
X204925075Y-60574238D01*
X204925075Y-60574238D02*
X204901265Y-60621857D01*
X204901265Y-60621857D02*
X204877456Y-60717095D01*
X204877456Y-60717095D02*
X204877456Y-60788523D01*
X204877456Y-60788523D02*
X204901265Y-60883761D01*
X204901265Y-60883761D02*
X204925075Y-60931380D01*
X204925075Y-60931380D02*
X204972694Y-60979000D01*
X204972694Y-60979000D02*
X205044122Y-61002809D01*
X205044122Y-61002809D02*
X205163170Y-61002809D01*
X204686979Y-60550428D02*
X204663170Y-60526619D01*
X204663170Y-60526619D02*
X204615551Y-60502809D01*
X204615551Y-60502809D02*
X204496503Y-60502809D01*
X204496503Y-60502809D02*
X204448884Y-60526619D01*
X204448884Y-60526619D02*
X204425075Y-60550428D01*
X204425075Y-60550428D02*
X204401265Y-60598047D01*
X204401265Y-60598047D02*
X204401265Y-60645666D01*
X204401265Y-60645666D02*
X204425075Y-60717095D01*
X204425075Y-60717095D02*
X204710789Y-61002809D01*
X204710789Y-61002809D02*
X204401265Y-61002809D01*
X203972694Y-60669476D02*
X203972694Y-61002809D01*
X204091742Y-60479000D02*
X204210789Y-60836142D01*
X204210789Y-60836142D02*
X203901266Y-60836142D01*
X202511494Y-81338887D02*
X202511494Y-80838887D01*
X202511494Y-80838887D02*
X202392446Y-80838887D01*
X202392446Y-80838887D02*
X202321018Y-80862697D01*
X202321018Y-80862697D02*
X202273399Y-80910316D01*
X202273399Y-80910316D02*
X202249589Y-80957935D01*
X202249589Y-80957935D02*
X202225780Y-81053173D01*
X202225780Y-81053173D02*
X202225780Y-81124601D01*
X202225780Y-81124601D02*
X202249589Y-81219839D01*
X202249589Y-81219839D02*
X202273399Y-81267458D01*
X202273399Y-81267458D02*
X202321018Y-81315078D01*
X202321018Y-81315078D02*
X202392446Y-81338887D01*
X202392446Y-81338887D02*
X202511494Y-81338887D01*
X201797208Y-81005554D02*
X201797208Y-81338887D01*
X201916256Y-80815078D02*
X202035303Y-81172220D01*
X202035303Y-81172220D02*
X201725780Y-81172220D01*
X201273399Y-81338887D02*
X201559113Y-81338887D01*
X201416256Y-81338887D02*
X201416256Y-80838887D01*
X201416256Y-80838887D02*
X201463875Y-80910316D01*
X201463875Y-80910316D02*
X201511494Y-80957935D01*
X201511494Y-80957935D02*
X201559113Y-80981744D01*
X161125617Y-94538809D02*
X160816093Y-94538809D01*
X160816093Y-94538809D02*
X160982760Y-94729285D01*
X160982760Y-94729285D02*
X160911331Y-94729285D01*
X160911331Y-94729285D02*
X160863712Y-94753095D01*
X160863712Y-94753095D02*
X160839903Y-94776904D01*
X160839903Y-94776904D02*
X160816093Y-94824523D01*
X160816093Y-94824523D02*
X160816093Y-94943571D01*
X160816093Y-94943571D02*
X160839903Y-94991190D01*
X160839903Y-94991190D02*
X160863712Y-95015000D01*
X160863712Y-95015000D02*
X160911331Y-95038809D01*
X160911331Y-95038809D02*
X161054188Y-95038809D01*
X161054188Y-95038809D02*
X161101807Y-95015000D01*
X161101807Y-95015000D02*
X161125617Y-94991190D01*
X160577998Y-95015000D02*
X160577998Y-95038809D01*
X160577998Y-95038809D02*
X160601808Y-95086428D01*
X160601808Y-95086428D02*
X160625617Y-95110238D01*
X160411332Y-94538809D02*
X160101808Y-94538809D01*
X160101808Y-94538809D02*
X160268475Y-94729285D01*
X160268475Y-94729285D02*
X160197046Y-94729285D01*
X160197046Y-94729285D02*
X160149427Y-94753095D01*
X160149427Y-94753095D02*
X160125618Y-94776904D01*
X160125618Y-94776904D02*
X160101808Y-94824523D01*
X160101808Y-94824523D02*
X160101808Y-94943571D01*
X160101808Y-94943571D02*
X160125618Y-94991190D01*
X160125618Y-94991190D02*
X160149427Y-95015000D01*
X160149427Y-95015000D02*
X160197046Y-95038809D01*
X160197046Y-95038809D02*
X160339903Y-95038809D01*
X160339903Y-95038809D02*
X160387522Y-95015000D01*
X160387522Y-95015000D02*
X160411332Y-94991190D01*
X159958951Y-94538809D02*
X159792285Y-95038809D01*
X159792285Y-95038809D02*
X159625618Y-94538809D01*
X180834522Y-101499952D02*
X180596427Y-101499952D01*
X180882141Y-101642809D02*
X180715475Y-101142809D01*
X180715475Y-101142809D02*
X180548808Y-101642809D01*
X180429761Y-101142809D02*
X180096428Y-101142809D01*
X180096428Y-101142809D02*
X180310713Y-101642809D01*
X175857980Y-58192731D02*
X175857980Y-57692731D01*
X175857980Y-57692731D02*
X175738932Y-57692731D01*
X175738932Y-57692731D02*
X175667504Y-57716541D01*
X175667504Y-57716541D02*
X175619885Y-57764160D01*
X175619885Y-57764160D02*
X175596075Y-57811779D01*
X175596075Y-57811779D02*
X175572266Y-57907017D01*
X175572266Y-57907017D02*
X175572266Y-57978445D01*
X175572266Y-57978445D02*
X175596075Y-58073683D01*
X175596075Y-58073683D02*
X175619885Y-58121302D01*
X175619885Y-58121302D02*
X175667504Y-58168922D01*
X175667504Y-58168922D02*
X175738932Y-58192731D01*
X175738932Y-58192731D02*
X175857980Y-58192731D01*
X175262742Y-57692731D02*
X175215123Y-57692731D01*
X175215123Y-57692731D02*
X175167504Y-57716541D01*
X175167504Y-57716541D02*
X175143694Y-57740350D01*
X175143694Y-57740350D02*
X175119885Y-57787969D01*
X175119885Y-57787969D02*
X175096075Y-57883207D01*
X175096075Y-57883207D02*
X175096075Y-58002255D01*
X175096075Y-58002255D02*
X175119885Y-58097493D01*
X175119885Y-58097493D02*
X175143694Y-58145112D01*
X175143694Y-58145112D02*
X175167504Y-58168922D01*
X175167504Y-58168922D02*
X175215123Y-58192731D01*
X175215123Y-58192731D02*
X175262742Y-58192731D01*
X175262742Y-58192731D02*
X175310361Y-58168922D01*
X175310361Y-58168922D02*
X175334170Y-58145112D01*
X175334170Y-58145112D02*
X175357980Y-58097493D01*
X175357980Y-58097493D02*
X175381789Y-58002255D01*
X175381789Y-58002255D02*
X175381789Y-57883207D01*
X175381789Y-57883207D02*
X175357980Y-57787969D01*
X175357980Y-57787969D02*
X175334170Y-57740350D01*
X175334170Y-57740350D02*
X175310361Y-57716541D01*
X175310361Y-57716541D02*
X175262742Y-57692731D01*
X202511494Y-66098887D02*
X202511494Y-65598887D01*
X202511494Y-65598887D02*
X202392446Y-65598887D01*
X202392446Y-65598887D02*
X202321018Y-65622697D01*
X202321018Y-65622697D02*
X202273399Y-65670316D01*
X202273399Y-65670316D02*
X202249589Y-65717935D01*
X202249589Y-65717935D02*
X202225780Y-65813173D01*
X202225780Y-65813173D02*
X202225780Y-65884601D01*
X202225780Y-65884601D02*
X202249589Y-65979839D01*
X202249589Y-65979839D02*
X202273399Y-66027458D01*
X202273399Y-66027458D02*
X202321018Y-66075078D01*
X202321018Y-66075078D02*
X202392446Y-66098887D01*
X202392446Y-66098887D02*
X202511494Y-66098887D01*
X202035303Y-65646506D02*
X202011494Y-65622697D01*
X202011494Y-65622697D02*
X201963875Y-65598887D01*
X201963875Y-65598887D02*
X201844827Y-65598887D01*
X201844827Y-65598887D02*
X201797208Y-65622697D01*
X201797208Y-65622697D02*
X201773399Y-65646506D01*
X201773399Y-65646506D02*
X201749589Y-65694125D01*
X201749589Y-65694125D02*
X201749589Y-65741744D01*
X201749589Y-65741744D02*
X201773399Y-65813173D01*
X201773399Y-65813173D02*
X202059113Y-66098887D01*
X202059113Y-66098887D02*
X201749589Y-66098887D01*
X201511494Y-66098887D02*
X201416256Y-66098887D01*
X201416256Y-66098887D02*
X201368637Y-66075078D01*
X201368637Y-66075078D02*
X201344828Y-66051268D01*
X201344828Y-66051268D02*
X201297209Y-65979839D01*
X201297209Y-65979839D02*
X201273399Y-65884601D01*
X201273399Y-65884601D02*
X201273399Y-65694125D01*
X201273399Y-65694125D02*
X201297209Y-65646506D01*
X201297209Y-65646506D02*
X201321018Y-65622697D01*
X201321018Y-65622697D02*
X201368637Y-65598887D01*
X201368637Y-65598887D02*
X201463875Y-65598887D01*
X201463875Y-65598887D02*
X201511494Y-65622697D01*
X201511494Y-65622697D02*
X201535304Y-65646506D01*
X201535304Y-65646506D02*
X201559113Y-65694125D01*
X201559113Y-65694125D02*
X201559113Y-65813173D01*
X201559113Y-65813173D02*
X201535304Y-65860792D01*
X201535304Y-65860792D02*
X201511494Y-65884601D01*
X201511494Y-65884601D02*
X201463875Y-65908411D01*
X201463875Y-65908411D02*
X201368637Y-65908411D01*
X201368637Y-65908411D02*
X201321018Y-65884601D01*
X201321018Y-65884601D02*
X201297209Y-65860792D01*
X201297209Y-65860792D02*
X201273399Y-65813173D01*
X202582656Y-96578887D02*
X202582656Y-96078887D01*
X202582656Y-96078887D02*
X202463608Y-96078887D01*
X202463608Y-96078887D02*
X202392180Y-96102697D01*
X202392180Y-96102697D02*
X202344561Y-96150316D01*
X202344561Y-96150316D02*
X202320751Y-96197935D01*
X202320751Y-96197935D02*
X202296942Y-96293173D01*
X202296942Y-96293173D02*
X202296942Y-96364601D01*
X202296942Y-96364601D02*
X202320751Y-96459839D01*
X202320751Y-96459839D02*
X202344561Y-96507458D01*
X202344561Y-96507458D02*
X202392180Y-96555078D01*
X202392180Y-96555078D02*
X202463608Y-96578887D01*
X202463608Y-96578887D02*
X202582656Y-96578887D01*
X201844561Y-96078887D02*
X202082656Y-96078887D01*
X202082656Y-96078887D02*
X202106465Y-96316982D01*
X202106465Y-96316982D02*
X202082656Y-96293173D01*
X202082656Y-96293173D02*
X202035037Y-96269363D01*
X202035037Y-96269363D02*
X201915989Y-96269363D01*
X201915989Y-96269363D02*
X201868370Y-96293173D01*
X201868370Y-96293173D02*
X201844561Y-96316982D01*
X201844561Y-96316982D02*
X201820751Y-96364601D01*
X201820751Y-96364601D02*
X201820751Y-96483649D01*
X201820751Y-96483649D02*
X201844561Y-96531268D01*
X201844561Y-96531268D02*
X201868370Y-96555078D01*
X201868370Y-96555078D02*
X201915989Y-96578887D01*
X201915989Y-96578887D02*
X202035037Y-96578887D01*
X202035037Y-96578887D02*
X202082656Y-96555078D01*
X202082656Y-96555078D02*
X202106465Y-96531268D01*
X201654085Y-96078887D02*
X201344561Y-96078887D01*
X201344561Y-96078887D02*
X201511228Y-96269363D01*
X201511228Y-96269363D02*
X201439799Y-96269363D01*
X201439799Y-96269363D02*
X201392180Y-96293173D01*
X201392180Y-96293173D02*
X201368371Y-96316982D01*
X201368371Y-96316982D02*
X201344561Y-96364601D01*
X201344561Y-96364601D02*
X201344561Y-96483649D01*
X201344561Y-96483649D02*
X201368371Y-96531268D01*
X201368371Y-96531268D02*
X201392180Y-96555078D01*
X201392180Y-96555078D02*
X201439799Y-96578887D01*
X201439799Y-96578887D02*
X201582656Y-96578887D01*
X201582656Y-96578887D02*
X201630275Y-96555078D01*
X201630275Y-96555078D02*
X201654085Y-96531268D01*
X202511494Y-68622809D02*
X202511494Y-68122809D01*
X202511494Y-68122809D02*
X202392446Y-68122809D01*
X202392446Y-68122809D02*
X202321018Y-68146619D01*
X202321018Y-68146619D02*
X202273399Y-68194238D01*
X202273399Y-68194238D02*
X202249589Y-68241857D01*
X202249589Y-68241857D02*
X202225780Y-68337095D01*
X202225780Y-68337095D02*
X202225780Y-68408523D01*
X202225780Y-68408523D02*
X202249589Y-68503761D01*
X202249589Y-68503761D02*
X202273399Y-68551380D01*
X202273399Y-68551380D02*
X202321018Y-68599000D01*
X202321018Y-68599000D02*
X202392446Y-68622809D01*
X202392446Y-68622809D02*
X202511494Y-68622809D01*
X202059113Y-68122809D02*
X201749589Y-68122809D01*
X201749589Y-68122809D02*
X201916256Y-68313285D01*
X201916256Y-68313285D02*
X201844827Y-68313285D01*
X201844827Y-68313285D02*
X201797208Y-68337095D01*
X201797208Y-68337095D02*
X201773399Y-68360904D01*
X201773399Y-68360904D02*
X201749589Y-68408523D01*
X201749589Y-68408523D02*
X201749589Y-68527571D01*
X201749589Y-68527571D02*
X201773399Y-68575190D01*
X201773399Y-68575190D02*
X201797208Y-68599000D01*
X201797208Y-68599000D02*
X201844827Y-68622809D01*
X201844827Y-68622809D02*
X201987684Y-68622809D01*
X201987684Y-68622809D02*
X202035303Y-68599000D01*
X202035303Y-68599000D02*
X202059113Y-68575190D01*
X201273399Y-68622809D02*
X201559113Y-68622809D01*
X201416256Y-68622809D02*
X201416256Y-68122809D01*
X201416256Y-68122809D02*
X201463875Y-68194238D01*
X201463875Y-68194238D02*
X201511494Y-68241857D01*
X201511494Y-68241857D02*
X201559113Y-68265666D01*
X202511494Y-88942809D02*
X202511494Y-88442809D01*
X202511494Y-88442809D02*
X202392446Y-88442809D01*
X202392446Y-88442809D02*
X202321018Y-88466619D01*
X202321018Y-88466619D02*
X202273399Y-88514238D01*
X202273399Y-88514238D02*
X202249589Y-88561857D01*
X202249589Y-88561857D02*
X202225780Y-88657095D01*
X202225780Y-88657095D02*
X202225780Y-88728523D01*
X202225780Y-88728523D02*
X202249589Y-88823761D01*
X202249589Y-88823761D02*
X202273399Y-88871380D01*
X202273399Y-88871380D02*
X202321018Y-88919000D01*
X202321018Y-88919000D02*
X202392446Y-88942809D01*
X202392446Y-88942809D02*
X202511494Y-88942809D01*
X201797208Y-88609476D02*
X201797208Y-88942809D01*
X201916256Y-88419000D02*
X202035303Y-88776142D01*
X202035303Y-88776142D02*
X201725780Y-88776142D01*
X201582923Y-88442809D02*
X201249590Y-88442809D01*
X201249590Y-88442809D02*
X201463875Y-88942809D01*
X157585618Y-66598809D02*
X157823713Y-66598809D01*
X157823713Y-66598809D02*
X157847522Y-66836904D01*
X157847522Y-66836904D02*
X157823713Y-66813095D01*
X157823713Y-66813095D02*
X157776094Y-66789285D01*
X157776094Y-66789285D02*
X157657046Y-66789285D01*
X157657046Y-66789285D02*
X157609427Y-66813095D01*
X157609427Y-66813095D02*
X157585618Y-66836904D01*
X157585618Y-66836904D02*
X157561808Y-66884523D01*
X157561808Y-66884523D02*
X157561808Y-67003571D01*
X157561808Y-67003571D02*
X157585618Y-67051190D01*
X157585618Y-67051190D02*
X157609427Y-67075000D01*
X157609427Y-67075000D02*
X157657046Y-67098809D01*
X157657046Y-67098809D02*
X157776094Y-67098809D01*
X157776094Y-67098809D02*
X157823713Y-67075000D01*
X157823713Y-67075000D02*
X157847522Y-67051190D01*
X157418951Y-66598809D02*
X157252285Y-67098809D01*
X157252285Y-67098809D02*
X157085618Y-66598809D01*
X199011332Y-58208809D02*
X199011332Y-57708809D01*
X199011332Y-57708809D02*
X198892284Y-57708809D01*
X198892284Y-57708809D02*
X198820856Y-57732619D01*
X198820856Y-57732619D02*
X198773237Y-57780238D01*
X198773237Y-57780238D02*
X198749427Y-57827857D01*
X198749427Y-57827857D02*
X198725618Y-57923095D01*
X198725618Y-57923095D02*
X198725618Y-57994523D01*
X198725618Y-57994523D02*
X198749427Y-58089761D01*
X198749427Y-58089761D02*
X198773237Y-58137380D01*
X198773237Y-58137380D02*
X198820856Y-58185000D01*
X198820856Y-58185000D02*
X198892284Y-58208809D01*
X198892284Y-58208809D02*
X199011332Y-58208809D01*
X198535141Y-57756428D02*
X198511332Y-57732619D01*
X198511332Y-57732619D02*
X198463713Y-57708809D01*
X198463713Y-57708809D02*
X198344665Y-57708809D01*
X198344665Y-57708809D02*
X198297046Y-57732619D01*
X198297046Y-57732619D02*
X198273237Y-57756428D01*
X198273237Y-57756428D02*
X198249427Y-57804047D01*
X198249427Y-57804047D02*
X198249427Y-57851666D01*
X198249427Y-57851666D02*
X198273237Y-57923095D01*
X198273237Y-57923095D02*
X198558951Y-58208809D01*
X198558951Y-58208809D02*
X198249427Y-58208809D01*
X197773237Y-58208809D02*
X198058951Y-58208809D01*
X197916094Y-58208809D02*
X197916094Y-57708809D01*
X197916094Y-57708809D02*
X197963713Y-57780238D01*
X197963713Y-57780238D02*
X198011332Y-57827857D01*
X198011332Y-57827857D02*
X198058951Y-57851666D01*
X173135142Y-58208809D02*
X173135142Y-57708809D01*
X173135142Y-57708809D02*
X173016094Y-57708809D01*
X173016094Y-57708809D02*
X172944666Y-57732619D01*
X172944666Y-57732619D02*
X172897047Y-57780238D01*
X172897047Y-57780238D02*
X172873237Y-57827857D01*
X172873237Y-57827857D02*
X172849428Y-57923095D01*
X172849428Y-57923095D02*
X172849428Y-57994523D01*
X172849428Y-57994523D02*
X172873237Y-58089761D01*
X172873237Y-58089761D02*
X172897047Y-58137380D01*
X172897047Y-58137380D02*
X172944666Y-58185000D01*
X172944666Y-58185000D02*
X173016094Y-58208809D01*
X173016094Y-58208809D02*
X173135142Y-58208809D01*
X172373237Y-58208809D02*
X172658951Y-58208809D01*
X172516094Y-58208809D02*
X172516094Y-57708809D01*
X172516094Y-57708809D02*
X172563713Y-57780238D01*
X172563713Y-57780238D02*
X172611332Y-57827857D01*
X172611332Y-57827857D02*
X172658951Y-57851666D01*
X205051494Y-68622809D02*
X205051494Y-68122809D01*
X205051494Y-68122809D02*
X204932446Y-68122809D01*
X204932446Y-68122809D02*
X204861018Y-68146619D01*
X204861018Y-68146619D02*
X204813399Y-68194238D01*
X204813399Y-68194238D02*
X204789589Y-68241857D01*
X204789589Y-68241857D02*
X204765780Y-68337095D01*
X204765780Y-68337095D02*
X204765780Y-68408523D01*
X204765780Y-68408523D02*
X204789589Y-68503761D01*
X204789589Y-68503761D02*
X204813399Y-68551380D01*
X204813399Y-68551380D02*
X204861018Y-68599000D01*
X204861018Y-68599000D02*
X204932446Y-68622809D01*
X204932446Y-68622809D02*
X205051494Y-68622809D01*
X204599113Y-68122809D02*
X204289589Y-68122809D01*
X204289589Y-68122809D02*
X204456256Y-68313285D01*
X204456256Y-68313285D02*
X204384827Y-68313285D01*
X204384827Y-68313285D02*
X204337208Y-68337095D01*
X204337208Y-68337095D02*
X204313399Y-68360904D01*
X204313399Y-68360904D02*
X204289589Y-68408523D01*
X204289589Y-68408523D02*
X204289589Y-68527571D01*
X204289589Y-68527571D02*
X204313399Y-68575190D01*
X204313399Y-68575190D02*
X204337208Y-68599000D01*
X204337208Y-68599000D02*
X204384827Y-68622809D01*
X204384827Y-68622809D02*
X204527684Y-68622809D01*
X204527684Y-68622809D02*
X204575303Y-68599000D01*
X204575303Y-68599000D02*
X204599113Y-68575190D01*
X203980066Y-68122809D02*
X203932447Y-68122809D01*
X203932447Y-68122809D02*
X203884828Y-68146619D01*
X203884828Y-68146619D02*
X203861018Y-68170428D01*
X203861018Y-68170428D02*
X203837209Y-68218047D01*
X203837209Y-68218047D02*
X203813399Y-68313285D01*
X203813399Y-68313285D02*
X203813399Y-68432333D01*
X203813399Y-68432333D02*
X203837209Y-68527571D01*
X203837209Y-68527571D02*
X203861018Y-68575190D01*
X203861018Y-68575190D02*
X203884828Y-68599000D01*
X203884828Y-68599000D02*
X203932447Y-68622809D01*
X203932447Y-68622809D02*
X203980066Y-68622809D01*
X203980066Y-68622809D02*
X204027685Y-68599000D01*
X204027685Y-68599000D02*
X204051494Y-68575190D01*
X204051494Y-68575190D02*
X204075304Y-68527571D01*
X204075304Y-68527571D02*
X204099113Y-68432333D01*
X204099113Y-68432333D02*
X204099113Y-68313285D01*
X204099113Y-68313285D02*
X204075304Y-68218047D01*
X204075304Y-68218047D02*
X204051494Y-68170428D01*
X204051494Y-68170428D02*
X204027685Y-68146619D01*
X204027685Y-68146619D02*
X203980066Y-68122809D01*
X183771332Y-58208809D02*
X183771332Y-57708809D01*
X183771332Y-57708809D02*
X183652284Y-57708809D01*
X183652284Y-57708809D02*
X183580856Y-57732619D01*
X183580856Y-57732619D02*
X183533237Y-57780238D01*
X183533237Y-57780238D02*
X183509427Y-57827857D01*
X183509427Y-57827857D02*
X183485618Y-57923095D01*
X183485618Y-57923095D02*
X183485618Y-57994523D01*
X183485618Y-57994523D02*
X183509427Y-58089761D01*
X183509427Y-58089761D02*
X183533237Y-58137380D01*
X183533237Y-58137380D02*
X183580856Y-58185000D01*
X183580856Y-58185000D02*
X183652284Y-58208809D01*
X183652284Y-58208809D02*
X183771332Y-58208809D01*
X183009427Y-58208809D02*
X183295141Y-58208809D01*
X183152284Y-58208809D02*
X183152284Y-57708809D01*
X183152284Y-57708809D02*
X183199903Y-57780238D01*
X183199903Y-57780238D02*
X183247522Y-57827857D01*
X183247522Y-57827857D02*
X183295141Y-57851666D01*
X182557047Y-57708809D02*
X182795142Y-57708809D01*
X182795142Y-57708809D02*
X182818951Y-57946904D01*
X182818951Y-57946904D02*
X182795142Y-57923095D01*
X182795142Y-57923095D02*
X182747523Y-57899285D01*
X182747523Y-57899285D02*
X182628475Y-57899285D01*
X182628475Y-57899285D02*
X182580856Y-57923095D01*
X182580856Y-57923095D02*
X182557047Y-57946904D01*
X182557047Y-57946904D02*
X182533237Y-57994523D01*
X182533237Y-57994523D02*
X182533237Y-58113571D01*
X182533237Y-58113571D02*
X182557047Y-58161190D01*
X182557047Y-58161190D02*
X182580856Y-58185000D01*
X182580856Y-58185000D02*
X182628475Y-58208809D01*
X182628475Y-58208809D02*
X182747523Y-58208809D01*
X182747523Y-58208809D02*
X182795142Y-58185000D01*
X182795142Y-58185000D02*
X182818951Y-58161190D01*
X196471332Y-58208809D02*
X196471332Y-57708809D01*
X196471332Y-57708809D02*
X196352284Y-57708809D01*
X196352284Y-57708809D02*
X196280856Y-57732619D01*
X196280856Y-57732619D02*
X196233237Y-57780238D01*
X196233237Y-57780238D02*
X196209427Y-57827857D01*
X196209427Y-57827857D02*
X196185618Y-57923095D01*
X196185618Y-57923095D02*
X196185618Y-57994523D01*
X196185618Y-57994523D02*
X196209427Y-58089761D01*
X196209427Y-58089761D02*
X196233237Y-58137380D01*
X196233237Y-58137380D02*
X196280856Y-58185000D01*
X196280856Y-58185000D02*
X196352284Y-58208809D01*
X196352284Y-58208809D02*
X196471332Y-58208809D01*
X195995141Y-57756428D02*
X195971332Y-57732619D01*
X195971332Y-57732619D02*
X195923713Y-57708809D01*
X195923713Y-57708809D02*
X195804665Y-57708809D01*
X195804665Y-57708809D02*
X195757046Y-57732619D01*
X195757046Y-57732619D02*
X195733237Y-57756428D01*
X195733237Y-57756428D02*
X195709427Y-57804047D01*
X195709427Y-57804047D02*
X195709427Y-57851666D01*
X195709427Y-57851666D02*
X195733237Y-57923095D01*
X195733237Y-57923095D02*
X196018951Y-58208809D01*
X196018951Y-58208809D02*
X195709427Y-58208809D01*
X195399904Y-57708809D02*
X195352285Y-57708809D01*
X195352285Y-57708809D02*
X195304666Y-57732619D01*
X195304666Y-57732619D02*
X195280856Y-57756428D01*
X195280856Y-57756428D02*
X195257047Y-57804047D01*
X195257047Y-57804047D02*
X195233237Y-57899285D01*
X195233237Y-57899285D02*
X195233237Y-58018333D01*
X195233237Y-58018333D02*
X195257047Y-58113571D01*
X195257047Y-58113571D02*
X195280856Y-58161190D01*
X195280856Y-58161190D02*
X195304666Y-58185000D01*
X195304666Y-58185000D02*
X195352285Y-58208809D01*
X195352285Y-58208809D02*
X195399904Y-58208809D01*
X195399904Y-58208809D02*
X195447523Y-58185000D01*
X195447523Y-58185000D02*
X195471332Y-58161190D01*
X195471332Y-58161190D02*
X195495142Y-58113571D01*
X195495142Y-58113571D02*
X195518951Y-58018333D01*
X195518951Y-58018333D02*
X195518951Y-57899285D01*
X195518951Y-57899285D02*
X195495142Y-57804047D01*
X195495142Y-57804047D02*
X195471332Y-57756428D01*
X195471332Y-57756428D02*
X195447523Y-57732619D01*
X195447523Y-57732619D02*
X195399904Y-57708809D01*
X202582656Y-73718887D02*
X202582656Y-73218887D01*
X202582656Y-73218887D02*
X202463608Y-73218887D01*
X202463608Y-73218887D02*
X202392180Y-73242697D01*
X202392180Y-73242697D02*
X202344561Y-73290316D01*
X202344561Y-73290316D02*
X202320751Y-73337935D01*
X202320751Y-73337935D02*
X202296942Y-73433173D01*
X202296942Y-73433173D02*
X202296942Y-73504601D01*
X202296942Y-73504601D02*
X202320751Y-73599839D01*
X202320751Y-73599839D02*
X202344561Y-73647458D01*
X202344561Y-73647458D02*
X202392180Y-73695078D01*
X202392180Y-73695078D02*
X202463608Y-73718887D01*
X202463608Y-73718887D02*
X202582656Y-73718887D01*
X202130275Y-73218887D02*
X201820751Y-73218887D01*
X201820751Y-73218887D02*
X201987418Y-73409363D01*
X201987418Y-73409363D02*
X201915989Y-73409363D01*
X201915989Y-73409363D02*
X201868370Y-73433173D01*
X201868370Y-73433173D02*
X201844561Y-73456982D01*
X201844561Y-73456982D02*
X201820751Y-73504601D01*
X201820751Y-73504601D02*
X201820751Y-73623649D01*
X201820751Y-73623649D02*
X201844561Y-73671268D01*
X201844561Y-73671268D02*
X201868370Y-73695078D01*
X201868370Y-73695078D02*
X201915989Y-73718887D01*
X201915989Y-73718887D02*
X202058846Y-73718887D01*
X202058846Y-73718887D02*
X202106465Y-73695078D01*
X202106465Y-73695078D02*
X202130275Y-73671268D01*
X201368371Y-73218887D02*
X201606466Y-73218887D01*
X201606466Y-73218887D02*
X201630275Y-73456982D01*
X201630275Y-73456982D02*
X201606466Y-73433173D01*
X201606466Y-73433173D02*
X201558847Y-73409363D01*
X201558847Y-73409363D02*
X201439799Y-73409363D01*
X201439799Y-73409363D02*
X201392180Y-73433173D01*
X201392180Y-73433173D02*
X201368371Y-73456982D01*
X201368371Y-73456982D02*
X201344561Y-73504601D01*
X201344561Y-73504601D02*
X201344561Y-73623649D01*
X201344561Y-73623649D02*
X201368371Y-73671268D01*
X201368371Y-73671268D02*
X201392180Y-73695078D01*
X201392180Y-73695078D02*
X201439799Y-73718887D01*
X201439799Y-73718887D02*
X201558847Y-73718887D01*
X201558847Y-73718887D02*
X201606466Y-73695078D01*
X201606466Y-73695078D02*
X201630275Y-73671268D01*
X161125617Y-81838809D02*
X160816093Y-81838809D01*
X160816093Y-81838809D02*
X160982760Y-82029285D01*
X160982760Y-82029285D02*
X160911331Y-82029285D01*
X160911331Y-82029285D02*
X160863712Y-82053095D01*
X160863712Y-82053095D02*
X160839903Y-82076904D01*
X160839903Y-82076904D02*
X160816093Y-82124523D01*
X160816093Y-82124523D02*
X160816093Y-82243571D01*
X160816093Y-82243571D02*
X160839903Y-82291190D01*
X160839903Y-82291190D02*
X160863712Y-82315000D01*
X160863712Y-82315000D02*
X160911331Y-82338809D01*
X160911331Y-82338809D02*
X161054188Y-82338809D01*
X161054188Y-82338809D02*
X161101807Y-82315000D01*
X161101807Y-82315000D02*
X161125617Y-82291190D01*
X160577998Y-82315000D02*
X160577998Y-82338809D01*
X160577998Y-82338809D02*
X160601808Y-82386428D01*
X160601808Y-82386428D02*
X160625617Y-82410238D01*
X160411332Y-81838809D02*
X160101808Y-81838809D01*
X160101808Y-81838809D02*
X160268475Y-82029285D01*
X160268475Y-82029285D02*
X160197046Y-82029285D01*
X160197046Y-82029285D02*
X160149427Y-82053095D01*
X160149427Y-82053095D02*
X160125618Y-82076904D01*
X160125618Y-82076904D02*
X160101808Y-82124523D01*
X160101808Y-82124523D02*
X160101808Y-82243571D01*
X160101808Y-82243571D02*
X160125618Y-82291190D01*
X160125618Y-82291190D02*
X160149427Y-82315000D01*
X160149427Y-82315000D02*
X160197046Y-82338809D01*
X160197046Y-82338809D02*
X160339903Y-82338809D01*
X160339903Y-82338809D02*
X160387522Y-82315000D01*
X160387522Y-82315000D02*
X160411332Y-82291190D01*
X159958951Y-81838809D02*
X159792285Y-82338809D01*
X159792285Y-82338809D02*
X159625618Y-81838809D01*
X191470712Y-101499952D02*
X191232617Y-101499952D01*
X191518331Y-101642809D02*
X191351665Y-101142809D01*
X191351665Y-101142809D02*
X191184998Y-101642809D01*
X190756427Y-101642809D02*
X191042141Y-101642809D01*
X190899284Y-101642809D02*
X190899284Y-101142809D01*
X190899284Y-101142809D02*
X190946903Y-101214238D01*
X190946903Y-101214238D02*
X190994522Y-101261857D01*
X190994522Y-101261857D02*
X191042141Y-101285666D01*
X190446904Y-101142809D02*
X190399285Y-101142809D01*
X190399285Y-101142809D02*
X190351666Y-101166619D01*
X190351666Y-101166619D02*
X190327856Y-101190428D01*
X190327856Y-101190428D02*
X190304047Y-101238047D01*
X190304047Y-101238047D02*
X190280237Y-101333285D01*
X190280237Y-101333285D02*
X190280237Y-101452333D01*
X190280237Y-101452333D02*
X190304047Y-101547571D01*
X190304047Y-101547571D02*
X190327856Y-101595190D01*
X190327856Y-101595190D02*
X190351666Y-101619000D01*
X190351666Y-101619000D02*
X190399285Y-101642809D01*
X190399285Y-101642809D02*
X190446904Y-101642809D01*
X190446904Y-101642809D02*
X190494523Y-101619000D01*
X190494523Y-101619000D02*
X190518332Y-101595190D01*
X190518332Y-101595190D02*
X190542142Y-101547571D01*
X190542142Y-101547571D02*
X190565951Y-101452333D01*
X190565951Y-101452333D02*
X190565951Y-101333285D01*
X190565951Y-101333285D02*
X190542142Y-101238047D01*
X190542142Y-101238047D02*
X190518332Y-101190428D01*
X190518332Y-101190428D02*
X190494523Y-101166619D01*
X190494523Y-101166619D02*
X190446904Y-101142809D01*
X205305494Y-73702809D02*
X205305494Y-73202809D01*
X205305494Y-73202809D02*
X205186446Y-73202809D01*
X205186446Y-73202809D02*
X205115018Y-73226619D01*
X205115018Y-73226619D02*
X205067399Y-73274238D01*
X205067399Y-73274238D02*
X205043589Y-73321857D01*
X205043589Y-73321857D02*
X205019780Y-73417095D01*
X205019780Y-73417095D02*
X205019780Y-73488523D01*
X205019780Y-73488523D02*
X205043589Y-73583761D01*
X205043589Y-73583761D02*
X205067399Y-73631380D01*
X205067399Y-73631380D02*
X205115018Y-73679000D01*
X205115018Y-73679000D02*
X205186446Y-73702809D01*
X205186446Y-73702809D02*
X205305494Y-73702809D01*
X204853113Y-73202809D02*
X204543589Y-73202809D01*
X204543589Y-73202809D02*
X204710256Y-73393285D01*
X204710256Y-73393285D02*
X204638827Y-73393285D01*
X204638827Y-73393285D02*
X204591208Y-73417095D01*
X204591208Y-73417095D02*
X204567399Y-73440904D01*
X204567399Y-73440904D02*
X204543589Y-73488523D01*
X204543589Y-73488523D02*
X204543589Y-73607571D01*
X204543589Y-73607571D02*
X204567399Y-73655190D01*
X204567399Y-73655190D02*
X204591208Y-73679000D01*
X204591208Y-73679000D02*
X204638827Y-73702809D01*
X204638827Y-73702809D02*
X204781684Y-73702809D01*
X204781684Y-73702809D02*
X204829303Y-73679000D01*
X204829303Y-73679000D02*
X204853113Y-73655190D01*
X204115018Y-73369476D02*
X204115018Y-73702809D01*
X204234066Y-73179000D02*
X204353113Y-73536142D01*
X204353113Y-73536142D02*
X204043590Y-73536142D01*
X160577998Y-89958809D02*
X160863712Y-89958809D01*
X160720855Y-89958809D02*
X160720855Y-89458809D01*
X160720855Y-89458809D02*
X160768474Y-89530238D01*
X160768474Y-89530238D02*
X160816093Y-89577857D01*
X160816093Y-89577857D02*
X160863712Y-89601666D01*
X160387522Y-89506428D02*
X160363713Y-89482619D01*
X160363713Y-89482619D02*
X160316094Y-89458809D01*
X160316094Y-89458809D02*
X160197046Y-89458809D01*
X160197046Y-89458809D02*
X160149427Y-89482619D01*
X160149427Y-89482619D02*
X160125618Y-89506428D01*
X160125618Y-89506428D02*
X160101808Y-89554047D01*
X160101808Y-89554047D02*
X160101808Y-89601666D01*
X160101808Y-89601666D02*
X160125618Y-89673095D01*
X160125618Y-89673095D02*
X160411332Y-89958809D01*
X160411332Y-89958809D02*
X160101808Y-89958809D01*
X159958951Y-89458809D02*
X159792285Y-89958809D01*
X159792285Y-89958809D02*
X159625618Y-89458809D01*
X202582656Y-86418887D02*
X202582656Y-85918887D01*
X202582656Y-85918887D02*
X202463608Y-85918887D01*
X202463608Y-85918887D02*
X202392180Y-85942697D01*
X202392180Y-85942697D02*
X202344561Y-85990316D01*
X202344561Y-85990316D02*
X202320751Y-86037935D01*
X202320751Y-86037935D02*
X202296942Y-86133173D01*
X202296942Y-86133173D02*
X202296942Y-86204601D01*
X202296942Y-86204601D02*
X202320751Y-86299839D01*
X202320751Y-86299839D02*
X202344561Y-86347458D01*
X202344561Y-86347458D02*
X202392180Y-86395078D01*
X202392180Y-86395078D02*
X202463608Y-86418887D01*
X202463608Y-86418887D02*
X202582656Y-86418887D01*
X201868370Y-86085554D02*
X201868370Y-86418887D01*
X201987418Y-85895078D02*
X202106465Y-86252220D01*
X202106465Y-86252220D02*
X201796942Y-86252220D01*
X201368371Y-85918887D02*
X201606466Y-85918887D01*
X201606466Y-85918887D02*
X201630275Y-86156982D01*
X201630275Y-86156982D02*
X201606466Y-86133173D01*
X201606466Y-86133173D02*
X201558847Y-86109363D01*
X201558847Y-86109363D02*
X201439799Y-86109363D01*
X201439799Y-86109363D02*
X201392180Y-86133173D01*
X201392180Y-86133173D02*
X201368371Y-86156982D01*
X201368371Y-86156982D02*
X201344561Y-86204601D01*
X201344561Y-86204601D02*
X201344561Y-86323649D01*
X201344561Y-86323649D02*
X201368371Y-86371268D01*
X201368371Y-86371268D02*
X201392180Y-86395078D01*
X201392180Y-86395078D02*
X201439799Y-86418887D01*
X201439799Y-86418887D02*
X201558847Y-86418887D01*
X201558847Y-86418887D02*
X201606466Y-86395078D01*
X201606466Y-86395078D02*
X201630275Y-86371268D01*
X204980332Y-58462809D02*
X204980332Y-57962809D01*
X204980332Y-57962809D02*
X204861284Y-57962809D01*
X204861284Y-57962809D02*
X204789856Y-57986619D01*
X204789856Y-57986619D02*
X204742237Y-58034238D01*
X204742237Y-58034238D02*
X204718427Y-58081857D01*
X204718427Y-58081857D02*
X204694618Y-58177095D01*
X204694618Y-58177095D02*
X204694618Y-58248523D01*
X204694618Y-58248523D02*
X204718427Y-58343761D01*
X204718427Y-58343761D02*
X204742237Y-58391380D01*
X204742237Y-58391380D02*
X204789856Y-58439000D01*
X204789856Y-58439000D02*
X204861284Y-58462809D01*
X204861284Y-58462809D02*
X204980332Y-58462809D01*
X204504141Y-58010428D02*
X204480332Y-57986619D01*
X204480332Y-57986619D02*
X204432713Y-57962809D01*
X204432713Y-57962809D02*
X204313665Y-57962809D01*
X204313665Y-57962809D02*
X204266046Y-57986619D01*
X204266046Y-57986619D02*
X204242237Y-58010428D01*
X204242237Y-58010428D02*
X204218427Y-58058047D01*
X204218427Y-58058047D02*
X204218427Y-58105666D01*
X204218427Y-58105666D02*
X204242237Y-58177095D01*
X204242237Y-58177095D02*
X204527951Y-58462809D01*
X204527951Y-58462809D02*
X204218427Y-58462809D01*
X204027951Y-58010428D02*
X204004142Y-57986619D01*
X204004142Y-57986619D02*
X203956523Y-57962809D01*
X203956523Y-57962809D02*
X203837475Y-57962809D01*
X203837475Y-57962809D02*
X203789856Y-57986619D01*
X203789856Y-57986619D02*
X203766047Y-58010428D01*
X203766047Y-58010428D02*
X203742237Y-58058047D01*
X203742237Y-58058047D02*
X203742237Y-58105666D01*
X203742237Y-58105666D02*
X203766047Y-58177095D01*
X203766047Y-58177095D02*
X204051761Y-58462809D01*
X204051761Y-58462809D02*
X203742237Y-58462809D01*
X194010712Y-101499952D02*
X193772617Y-101499952D01*
X194058331Y-101642809D02*
X193891665Y-101142809D01*
X193891665Y-101142809D02*
X193724998Y-101642809D01*
X193296427Y-101642809D02*
X193582141Y-101642809D01*
X193439284Y-101642809D02*
X193439284Y-101142809D01*
X193439284Y-101142809D02*
X193486903Y-101214238D01*
X193486903Y-101214238D02*
X193534522Y-101261857D01*
X193534522Y-101261857D02*
X193582141Y-101285666D01*
X192820237Y-101642809D02*
X193105951Y-101642809D01*
X192963094Y-101642809D02*
X192963094Y-101142809D01*
X192963094Y-101142809D02*
X193010713Y-101214238D01*
X193010713Y-101214238D02*
X193058332Y-101261857D01*
X193058332Y-101261857D02*
X193105951Y-101285666D01*
X205234332Y-81322809D02*
X205234332Y-80822809D01*
X205234332Y-80822809D02*
X205115284Y-80822809D01*
X205115284Y-80822809D02*
X205043856Y-80846619D01*
X205043856Y-80846619D02*
X204996237Y-80894238D01*
X204996237Y-80894238D02*
X204972427Y-80941857D01*
X204972427Y-80941857D02*
X204948618Y-81037095D01*
X204948618Y-81037095D02*
X204948618Y-81108523D01*
X204948618Y-81108523D02*
X204972427Y-81203761D01*
X204972427Y-81203761D02*
X204996237Y-81251380D01*
X204996237Y-81251380D02*
X205043856Y-81299000D01*
X205043856Y-81299000D02*
X205115284Y-81322809D01*
X205115284Y-81322809D02*
X205234332Y-81322809D01*
X204520046Y-80989476D02*
X204520046Y-81322809D01*
X204639094Y-80799000D02*
X204758141Y-81156142D01*
X204758141Y-81156142D02*
X204448618Y-81156142D01*
X204162904Y-80822809D02*
X204115285Y-80822809D01*
X204115285Y-80822809D02*
X204067666Y-80846619D01*
X204067666Y-80846619D02*
X204043856Y-80870428D01*
X204043856Y-80870428D02*
X204020047Y-80918047D01*
X204020047Y-80918047D02*
X203996237Y-81013285D01*
X203996237Y-81013285D02*
X203996237Y-81132333D01*
X203996237Y-81132333D02*
X204020047Y-81227571D01*
X204020047Y-81227571D02*
X204043856Y-81275190D01*
X204043856Y-81275190D02*
X204067666Y-81299000D01*
X204067666Y-81299000D02*
X204115285Y-81322809D01*
X204115285Y-81322809D02*
X204162904Y-81322809D01*
X204162904Y-81322809D02*
X204210523Y-81299000D01*
X204210523Y-81299000D02*
X204234332Y-81275190D01*
X204234332Y-81275190D02*
X204258142Y-81227571D01*
X204258142Y-81227571D02*
X204281951Y-81132333D01*
X204281951Y-81132333D02*
X204281951Y-81013285D01*
X204281951Y-81013285D02*
X204258142Y-80918047D01*
X204258142Y-80918047D02*
X204234332Y-80870428D01*
X204234332Y-80870428D02*
X204210523Y-80846619D01*
X204210523Y-80846619D02*
X204162904Y-80822809D01*
X205234332Y-71162809D02*
X205234332Y-70662809D01*
X205234332Y-70662809D02*
X205115284Y-70662809D01*
X205115284Y-70662809D02*
X205043856Y-70686619D01*
X205043856Y-70686619D02*
X204996237Y-70734238D01*
X204996237Y-70734238D02*
X204972427Y-70781857D01*
X204972427Y-70781857D02*
X204948618Y-70877095D01*
X204948618Y-70877095D02*
X204948618Y-70948523D01*
X204948618Y-70948523D02*
X204972427Y-71043761D01*
X204972427Y-71043761D02*
X204996237Y-71091380D01*
X204996237Y-71091380D02*
X205043856Y-71139000D01*
X205043856Y-71139000D02*
X205115284Y-71162809D01*
X205115284Y-71162809D02*
X205234332Y-71162809D01*
X204781951Y-70662809D02*
X204472427Y-70662809D01*
X204472427Y-70662809D02*
X204639094Y-70853285D01*
X204639094Y-70853285D02*
X204567665Y-70853285D01*
X204567665Y-70853285D02*
X204520046Y-70877095D01*
X204520046Y-70877095D02*
X204496237Y-70900904D01*
X204496237Y-70900904D02*
X204472427Y-70948523D01*
X204472427Y-70948523D02*
X204472427Y-71067571D01*
X204472427Y-71067571D02*
X204496237Y-71115190D01*
X204496237Y-71115190D02*
X204520046Y-71139000D01*
X204520046Y-71139000D02*
X204567665Y-71162809D01*
X204567665Y-71162809D02*
X204710522Y-71162809D01*
X204710522Y-71162809D02*
X204758141Y-71139000D01*
X204758141Y-71139000D02*
X204781951Y-71115190D01*
X204281951Y-70710428D02*
X204258142Y-70686619D01*
X204258142Y-70686619D02*
X204210523Y-70662809D01*
X204210523Y-70662809D02*
X204091475Y-70662809D01*
X204091475Y-70662809D02*
X204043856Y-70686619D01*
X204043856Y-70686619D02*
X204020047Y-70710428D01*
X204020047Y-70710428D02*
X203996237Y-70758047D01*
X203996237Y-70758047D02*
X203996237Y-70805666D01*
X203996237Y-70805666D02*
X204020047Y-70877095D01*
X204020047Y-70877095D02*
X204305761Y-71162809D01*
X204305761Y-71162809D02*
X203996237Y-71162809D01*
X205051494Y-88942809D02*
X205051494Y-88442809D01*
X205051494Y-88442809D02*
X204932446Y-88442809D01*
X204932446Y-88442809D02*
X204861018Y-88466619D01*
X204861018Y-88466619D02*
X204813399Y-88514238D01*
X204813399Y-88514238D02*
X204789589Y-88561857D01*
X204789589Y-88561857D02*
X204765780Y-88657095D01*
X204765780Y-88657095D02*
X204765780Y-88728523D01*
X204765780Y-88728523D02*
X204789589Y-88823761D01*
X204789589Y-88823761D02*
X204813399Y-88871380D01*
X204813399Y-88871380D02*
X204861018Y-88919000D01*
X204861018Y-88919000D02*
X204932446Y-88942809D01*
X204932446Y-88942809D02*
X205051494Y-88942809D01*
X204337208Y-88609476D02*
X204337208Y-88942809D01*
X204456256Y-88419000D02*
X204575303Y-88776142D01*
X204575303Y-88776142D02*
X204265780Y-88776142D01*
X203861018Y-88442809D02*
X203956256Y-88442809D01*
X203956256Y-88442809D02*
X204003875Y-88466619D01*
X204003875Y-88466619D02*
X204027685Y-88490428D01*
X204027685Y-88490428D02*
X204075304Y-88561857D01*
X204075304Y-88561857D02*
X204099113Y-88657095D01*
X204099113Y-88657095D02*
X204099113Y-88847571D01*
X204099113Y-88847571D02*
X204075304Y-88895190D01*
X204075304Y-88895190D02*
X204051494Y-88919000D01*
X204051494Y-88919000D02*
X204003875Y-88942809D01*
X204003875Y-88942809D02*
X203908637Y-88942809D01*
X203908637Y-88942809D02*
X203861018Y-88919000D01*
X203861018Y-88919000D02*
X203837209Y-88895190D01*
X203837209Y-88895190D02*
X203813399Y-88847571D01*
X203813399Y-88847571D02*
X203813399Y-88728523D01*
X203813399Y-88728523D02*
X203837209Y-88680904D01*
X203837209Y-88680904D02*
X203861018Y-88657095D01*
X203861018Y-88657095D02*
X203908637Y-88633285D01*
X203908637Y-88633285D02*
X204003875Y-88633285D01*
X204003875Y-88633285D02*
X204051494Y-88657095D01*
X204051494Y-88657095D02*
X204075304Y-88680904D01*
X204075304Y-88680904D02*
X204099113Y-88728523D01*
X160125618Y-79298809D02*
X160363713Y-79298809D01*
X160363713Y-79298809D02*
X160387522Y-79536904D01*
X160387522Y-79536904D02*
X160363713Y-79513095D01*
X160363713Y-79513095D02*
X160316094Y-79489285D01*
X160316094Y-79489285D02*
X160197046Y-79489285D01*
X160197046Y-79489285D02*
X160149427Y-79513095D01*
X160149427Y-79513095D02*
X160125618Y-79536904D01*
X160125618Y-79536904D02*
X160101808Y-79584523D01*
X160101808Y-79584523D02*
X160101808Y-79703571D01*
X160101808Y-79703571D02*
X160125618Y-79751190D01*
X160125618Y-79751190D02*
X160149427Y-79775000D01*
X160149427Y-79775000D02*
X160197046Y-79798809D01*
X160197046Y-79798809D02*
X160316094Y-79798809D01*
X160316094Y-79798809D02*
X160363713Y-79775000D01*
X160363713Y-79775000D02*
X160387522Y-79751190D01*
X159958951Y-79298809D02*
X159792285Y-79798809D01*
X159792285Y-79798809D02*
X159625618Y-79298809D01*
X158037998Y-64558809D02*
X158323712Y-64558809D01*
X158180855Y-64558809D02*
X158180855Y-64058809D01*
X158180855Y-64058809D02*
X158228474Y-64130238D01*
X158228474Y-64130238D02*
X158276093Y-64177857D01*
X158276093Y-64177857D02*
X158323712Y-64201666D01*
X157847522Y-64106428D02*
X157823713Y-64082619D01*
X157823713Y-64082619D02*
X157776094Y-64058809D01*
X157776094Y-64058809D02*
X157657046Y-64058809D01*
X157657046Y-64058809D02*
X157609427Y-64082619D01*
X157609427Y-64082619D02*
X157585618Y-64106428D01*
X157585618Y-64106428D02*
X157561808Y-64154047D01*
X157561808Y-64154047D02*
X157561808Y-64201666D01*
X157561808Y-64201666D02*
X157585618Y-64273095D01*
X157585618Y-64273095D02*
X157871332Y-64558809D01*
X157871332Y-64558809D02*
X157561808Y-64558809D01*
X157418951Y-64058809D02*
X157252285Y-64558809D01*
X157252285Y-64558809D02*
X157085618Y-64058809D01*
X205051494Y-78782809D02*
X205051494Y-78282809D01*
X205051494Y-78282809D02*
X204932446Y-78282809D01*
X204932446Y-78282809D02*
X204861018Y-78306619D01*
X204861018Y-78306619D02*
X204813399Y-78354238D01*
X204813399Y-78354238D02*
X204789589Y-78401857D01*
X204789589Y-78401857D02*
X204765780Y-78497095D01*
X204765780Y-78497095D02*
X204765780Y-78568523D01*
X204765780Y-78568523D02*
X204789589Y-78663761D01*
X204789589Y-78663761D02*
X204813399Y-78711380D01*
X204813399Y-78711380D02*
X204861018Y-78759000D01*
X204861018Y-78759000D02*
X204932446Y-78782809D01*
X204932446Y-78782809D02*
X205051494Y-78782809D01*
X204599113Y-78282809D02*
X204289589Y-78282809D01*
X204289589Y-78282809D02*
X204456256Y-78473285D01*
X204456256Y-78473285D02*
X204384827Y-78473285D01*
X204384827Y-78473285D02*
X204337208Y-78497095D01*
X204337208Y-78497095D02*
X204313399Y-78520904D01*
X204313399Y-78520904D02*
X204289589Y-78568523D01*
X204289589Y-78568523D02*
X204289589Y-78687571D01*
X204289589Y-78687571D02*
X204313399Y-78735190D01*
X204313399Y-78735190D02*
X204337208Y-78759000D01*
X204337208Y-78759000D02*
X204384827Y-78782809D01*
X204384827Y-78782809D02*
X204527684Y-78782809D01*
X204527684Y-78782809D02*
X204575303Y-78759000D01*
X204575303Y-78759000D02*
X204599113Y-78735190D01*
X204003875Y-78497095D02*
X204051494Y-78473285D01*
X204051494Y-78473285D02*
X204075304Y-78449476D01*
X204075304Y-78449476D02*
X204099113Y-78401857D01*
X204099113Y-78401857D02*
X204099113Y-78378047D01*
X204099113Y-78378047D02*
X204075304Y-78330428D01*
X204075304Y-78330428D02*
X204051494Y-78306619D01*
X204051494Y-78306619D02*
X204003875Y-78282809D01*
X204003875Y-78282809D02*
X203908637Y-78282809D01*
X203908637Y-78282809D02*
X203861018Y-78306619D01*
X203861018Y-78306619D02*
X203837209Y-78330428D01*
X203837209Y-78330428D02*
X203813399Y-78378047D01*
X203813399Y-78378047D02*
X203813399Y-78401857D01*
X203813399Y-78401857D02*
X203837209Y-78449476D01*
X203837209Y-78449476D02*
X203861018Y-78473285D01*
X203861018Y-78473285D02*
X203908637Y-78497095D01*
X203908637Y-78497095D02*
X204003875Y-78497095D01*
X204003875Y-78497095D02*
X204051494Y-78520904D01*
X204051494Y-78520904D02*
X204075304Y-78544714D01*
X204075304Y-78544714D02*
X204099113Y-78592333D01*
X204099113Y-78592333D02*
X204099113Y-78687571D01*
X204099113Y-78687571D02*
X204075304Y-78735190D01*
X204075304Y-78735190D02*
X204051494Y-78759000D01*
X204051494Y-78759000D02*
X204003875Y-78782809D01*
X204003875Y-78782809D02*
X203908637Y-78782809D01*
X203908637Y-78782809D02*
X203861018Y-78759000D01*
X203861018Y-78759000D02*
X203837209Y-78735190D01*
X203837209Y-78735190D02*
X203813399Y-78687571D01*
X203813399Y-78687571D02*
X203813399Y-78592333D01*
X203813399Y-78592333D02*
X203837209Y-78544714D01*
X203837209Y-78544714D02*
X203861018Y-78520904D01*
X203861018Y-78520904D02*
X203908637Y-78497095D01*
X205305494Y-76242809D02*
X205305494Y-75742809D01*
X205305494Y-75742809D02*
X205186446Y-75742809D01*
X205186446Y-75742809D02*
X205115018Y-75766619D01*
X205115018Y-75766619D02*
X205067399Y-75814238D01*
X205067399Y-75814238D02*
X205043589Y-75861857D01*
X205043589Y-75861857D02*
X205019780Y-75957095D01*
X205019780Y-75957095D02*
X205019780Y-76028523D01*
X205019780Y-76028523D02*
X205043589Y-76123761D01*
X205043589Y-76123761D02*
X205067399Y-76171380D01*
X205067399Y-76171380D02*
X205115018Y-76219000D01*
X205115018Y-76219000D02*
X205186446Y-76242809D01*
X205186446Y-76242809D02*
X205305494Y-76242809D01*
X204853113Y-75742809D02*
X204543589Y-75742809D01*
X204543589Y-75742809D02*
X204710256Y-75933285D01*
X204710256Y-75933285D02*
X204638827Y-75933285D01*
X204638827Y-75933285D02*
X204591208Y-75957095D01*
X204591208Y-75957095D02*
X204567399Y-75980904D01*
X204567399Y-75980904D02*
X204543589Y-76028523D01*
X204543589Y-76028523D02*
X204543589Y-76147571D01*
X204543589Y-76147571D02*
X204567399Y-76195190D01*
X204567399Y-76195190D02*
X204591208Y-76219000D01*
X204591208Y-76219000D02*
X204638827Y-76242809D01*
X204638827Y-76242809D02*
X204781684Y-76242809D01*
X204781684Y-76242809D02*
X204829303Y-76219000D01*
X204829303Y-76219000D02*
X204853113Y-76195190D01*
X204115018Y-75742809D02*
X204210256Y-75742809D01*
X204210256Y-75742809D02*
X204257875Y-75766619D01*
X204257875Y-75766619D02*
X204281685Y-75790428D01*
X204281685Y-75790428D02*
X204329304Y-75861857D01*
X204329304Y-75861857D02*
X204353113Y-75957095D01*
X204353113Y-75957095D02*
X204353113Y-76147571D01*
X204353113Y-76147571D02*
X204329304Y-76195190D01*
X204329304Y-76195190D02*
X204305494Y-76219000D01*
X204305494Y-76219000D02*
X204257875Y-76242809D01*
X204257875Y-76242809D02*
X204162637Y-76242809D01*
X204162637Y-76242809D02*
X204115018Y-76219000D01*
X204115018Y-76219000D02*
X204091209Y-76195190D01*
X204091209Y-76195190D02*
X204067399Y-76147571D01*
X204067399Y-76147571D02*
X204067399Y-76028523D01*
X204067399Y-76028523D02*
X204091209Y-75980904D01*
X204091209Y-75980904D02*
X204115018Y-75957095D01*
X204115018Y-75957095D02*
X204162637Y-75933285D01*
X204162637Y-75933285D02*
X204257875Y-75933285D01*
X204257875Y-75933285D02*
X204305494Y-75957095D01*
X204305494Y-75957095D02*
X204329304Y-75980904D01*
X204329304Y-75980904D02*
X204353113Y-76028523D01*
X160720857Y-97102619D02*
X160768476Y-97078809D01*
X160768476Y-97078809D02*
X160839905Y-97078809D01*
X160839905Y-97078809D02*
X160911333Y-97102619D01*
X160911333Y-97102619D02*
X160958952Y-97150238D01*
X160958952Y-97150238D02*
X160982762Y-97197857D01*
X160982762Y-97197857D02*
X161006571Y-97293095D01*
X161006571Y-97293095D02*
X161006571Y-97364523D01*
X161006571Y-97364523D02*
X160982762Y-97459761D01*
X160982762Y-97459761D02*
X160958952Y-97507380D01*
X160958952Y-97507380D02*
X160911333Y-97555000D01*
X160911333Y-97555000D02*
X160839905Y-97578809D01*
X160839905Y-97578809D02*
X160792286Y-97578809D01*
X160792286Y-97578809D02*
X160720857Y-97555000D01*
X160720857Y-97555000D02*
X160697048Y-97531190D01*
X160697048Y-97531190D02*
X160697048Y-97364523D01*
X160697048Y-97364523D02*
X160792286Y-97364523D01*
X160482762Y-97578809D02*
X160482762Y-97078809D01*
X160482762Y-97078809D02*
X160197048Y-97578809D01*
X160197048Y-97578809D02*
X160197048Y-97078809D01*
X159958952Y-97578809D02*
X159958952Y-97078809D01*
X159958952Y-97078809D02*
X159839904Y-97078809D01*
X159839904Y-97078809D02*
X159768476Y-97102619D01*
X159768476Y-97102619D02*
X159720857Y-97150238D01*
X159720857Y-97150238D02*
X159697047Y-97197857D01*
X159697047Y-97197857D02*
X159673238Y-97293095D01*
X159673238Y-97293095D02*
X159673238Y-97364523D01*
X159673238Y-97364523D02*
X159697047Y-97459761D01*
X159697047Y-97459761D02*
X159720857Y-97507380D01*
X159720857Y-97507380D02*
X159768476Y-97555000D01*
X159768476Y-97555000D02*
X159839904Y-97578809D01*
X159839904Y-97578809D02*
X159958952Y-97578809D01*
X193931332Y-58208809D02*
X193931332Y-57708809D01*
X193931332Y-57708809D02*
X193812284Y-57708809D01*
X193812284Y-57708809D02*
X193740856Y-57732619D01*
X193740856Y-57732619D02*
X193693237Y-57780238D01*
X193693237Y-57780238D02*
X193669427Y-57827857D01*
X193669427Y-57827857D02*
X193645618Y-57923095D01*
X193645618Y-57923095D02*
X193645618Y-57994523D01*
X193645618Y-57994523D02*
X193669427Y-58089761D01*
X193669427Y-58089761D02*
X193693237Y-58137380D01*
X193693237Y-58137380D02*
X193740856Y-58185000D01*
X193740856Y-58185000D02*
X193812284Y-58208809D01*
X193812284Y-58208809D02*
X193931332Y-58208809D01*
X193169427Y-58208809D02*
X193455141Y-58208809D01*
X193312284Y-58208809D02*
X193312284Y-57708809D01*
X193312284Y-57708809D02*
X193359903Y-57780238D01*
X193359903Y-57780238D02*
X193407522Y-57827857D01*
X193407522Y-57827857D02*
X193455141Y-57851666D01*
X192931332Y-58208809D02*
X192836094Y-58208809D01*
X192836094Y-58208809D02*
X192788475Y-58185000D01*
X192788475Y-58185000D02*
X192764666Y-58161190D01*
X192764666Y-58161190D02*
X192717047Y-58089761D01*
X192717047Y-58089761D02*
X192693237Y-57994523D01*
X192693237Y-57994523D02*
X192693237Y-57804047D01*
X192693237Y-57804047D02*
X192717047Y-57756428D01*
X192717047Y-57756428D02*
X192740856Y-57732619D01*
X192740856Y-57732619D02*
X192788475Y-57708809D01*
X192788475Y-57708809D02*
X192883713Y-57708809D01*
X192883713Y-57708809D02*
X192931332Y-57732619D01*
X192931332Y-57732619D02*
X192955142Y-57756428D01*
X192955142Y-57756428D02*
X192978951Y-57804047D01*
X192978951Y-57804047D02*
X192978951Y-57923095D01*
X192978951Y-57923095D02*
X192955142Y-57970714D01*
X192955142Y-57970714D02*
X192931332Y-57994523D01*
X192931332Y-57994523D02*
X192883713Y-58018333D01*
X192883713Y-58018333D02*
X192788475Y-58018333D01*
X192788475Y-58018333D02*
X192740856Y-57994523D01*
X192740856Y-57994523D02*
X192717047Y-57970714D01*
X192717047Y-57970714D02*
X192693237Y-57923095D01*
X201630712Y-101499952D02*
X201392617Y-101499952D01*
X201678331Y-101642809D02*
X201511665Y-101142809D01*
X201511665Y-101142809D02*
X201344998Y-101642809D01*
X200916427Y-101642809D02*
X201202141Y-101642809D01*
X201059284Y-101642809D02*
X201059284Y-101142809D01*
X201059284Y-101142809D02*
X201106903Y-101214238D01*
X201106903Y-101214238D02*
X201154522Y-101261857D01*
X201154522Y-101261857D02*
X201202141Y-101285666D01*
X200487856Y-101309476D02*
X200487856Y-101642809D01*
X200606904Y-101119000D02*
X200725951Y-101476142D01*
X200725951Y-101476142D02*
X200416428Y-101476142D01*
X202582656Y-76258887D02*
X202582656Y-75758887D01*
X202582656Y-75758887D02*
X202463608Y-75758887D01*
X202463608Y-75758887D02*
X202392180Y-75782697D01*
X202392180Y-75782697D02*
X202344561Y-75830316D01*
X202344561Y-75830316D02*
X202320751Y-75877935D01*
X202320751Y-75877935D02*
X202296942Y-75973173D01*
X202296942Y-75973173D02*
X202296942Y-76044601D01*
X202296942Y-76044601D02*
X202320751Y-76139839D01*
X202320751Y-76139839D02*
X202344561Y-76187458D01*
X202344561Y-76187458D02*
X202392180Y-76235078D01*
X202392180Y-76235078D02*
X202463608Y-76258887D01*
X202463608Y-76258887D02*
X202582656Y-76258887D01*
X202130275Y-75758887D02*
X201820751Y-75758887D01*
X201820751Y-75758887D02*
X201987418Y-75949363D01*
X201987418Y-75949363D02*
X201915989Y-75949363D01*
X201915989Y-75949363D02*
X201868370Y-75973173D01*
X201868370Y-75973173D02*
X201844561Y-75996982D01*
X201844561Y-75996982D02*
X201820751Y-76044601D01*
X201820751Y-76044601D02*
X201820751Y-76163649D01*
X201820751Y-76163649D02*
X201844561Y-76211268D01*
X201844561Y-76211268D02*
X201868370Y-76235078D01*
X201868370Y-76235078D02*
X201915989Y-76258887D01*
X201915989Y-76258887D02*
X202058846Y-76258887D01*
X202058846Y-76258887D02*
X202106465Y-76235078D01*
X202106465Y-76235078D02*
X202130275Y-76211268D01*
X201654085Y-75758887D02*
X201320752Y-75758887D01*
X201320752Y-75758887D02*
X201535037Y-76258887D01*
X205234332Y-63542809D02*
X205234332Y-63042809D01*
X205234332Y-63042809D02*
X205115284Y-63042809D01*
X205115284Y-63042809D02*
X205043856Y-63066619D01*
X205043856Y-63066619D02*
X204996237Y-63114238D01*
X204996237Y-63114238D02*
X204972427Y-63161857D01*
X204972427Y-63161857D02*
X204948618Y-63257095D01*
X204948618Y-63257095D02*
X204948618Y-63328523D01*
X204948618Y-63328523D02*
X204972427Y-63423761D01*
X204972427Y-63423761D02*
X204996237Y-63471380D01*
X204996237Y-63471380D02*
X205043856Y-63519000D01*
X205043856Y-63519000D02*
X205115284Y-63542809D01*
X205115284Y-63542809D02*
X205234332Y-63542809D01*
X204758141Y-63090428D02*
X204734332Y-63066619D01*
X204734332Y-63066619D02*
X204686713Y-63042809D01*
X204686713Y-63042809D02*
X204567665Y-63042809D01*
X204567665Y-63042809D02*
X204520046Y-63066619D01*
X204520046Y-63066619D02*
X204496237Y-63090428D01*
X204496237Y-63090428D02*
X204472427Y-63138047D01*
X204472427Y-63138047D02*
X204472427Y-63185666D01*
X204472427Y-63185666D02*
X204496237Y-63257095D01*
X204496237Y-63257095D02*
X204781951Y-63542809D01*
X204781951Y-63542809D02*
X204472427Y-63542809D01*
X204043856Y-63042809D02*
X204139094Y-63042809D01*
X204139094Y-63042809D02*
X204186713Y-63066619D01*
X204186713Y-63066619D02*
X204210523Y-63090428D01*
X204210523Y-63090428D02*
X204258142Y-63161857D01*
X204258142Y-63161857D02*
X204281951Y-63257095D01*
X204281951Y-63257095D02*
X204281951Y-63447571D01*
X204281951Y-63447571D02*
X204258142Y-63495190D01*
X204258142Y-63495190D02*
X204234332Y-63519000D01*
X204234332Y-63519000D02*
X204186713Y-63542809D01*
X204186713Y-63542809D02*
X204091475Y-63542809D01*
X204091475Y-63542809D02*
X204043856Y-63519000D01*
X204043856Y-63519000D02*
X204020047Y-63495190D01*
X204020047Y-63495190D02*
X203996237Y-63447571D01*
X203996237Y-63447571D02*
X203996237Y-63328523D01*
X203996237Y-63328523D02*
X204020047Y-63280904D01*
X204020047Y-63280904D02*
X204043856Y-63257095D01*
X204043856Y-63257095D02*
X204091475Y-63233285D01*
X204091475Y-63233285D02*
X204186713Y-63233285D01*
X204186713Y-63233285D02*
X204234332Y-63257095D01*
X204234332Y-63257095D02*
X204258142Y-63280904D01*
X204258142Y-63280904D02*
X204281951Y-63328523D01*
X160125618Y-91998809D02*
X160363713Y-91998809D01*
X160363713Y-91998809D02*
X160387522Y-92236904D01*
X160387522Y-92236904D02*
X160363713Y-92213095D01*
X160363713Y-92213095D02*
X160316094Y-92189285D01*
X160316094Y-92189285D02*
X160197046Y-92189285D01*
X160197046Y-92189285D02*
X160149427Y-92213095D01*
X160149427Y-92213095D02*
X160125618Y-92236904D01*
X160125618Y-92236904D02*
X160101808Y-92284523D01*
X160101808Y-92284523D02*
X160101808Y-92403571D01*
X160101808Y-92403571D02*
X160125618Y-92451190D01*
X160125618Y-92451190D02*
X160149427Y-92475000D01*
X160149427Y-92475000D02*
X160197046Y-92498809D01*
X160197046Y-92498809D02*
X160316094Y-92498809D01*
X160316094Y-92498809D02*
X160363713Y-92475000D01*
X160363713Y-92475000D02*
X160387522Y-92451190D01*
X159958951Y-91998809D02*
X159792285Y-92498809D01*
X159792285Y-92498809D02*
X159625618Y-91998809D01*
X158585617Y-69138809D02*
X158276093Y-69138809D01*
X158276093Y-69138809D02*
X158442760Y-69329285D01*
X158442760Y-69329285D02*
X158371331Y-69329285D01*
X158371331Y-69329285D02*
X158323712Y-69353095D01*
X158323712Y-69353095D02*
X158299903Y-69376904D01*
X158299903Y-69376904D02*
X158276093Y-69424523D01*
X158276093Y-69424523D02*
X158276093Y-69543571D01*
X158276093Y-69543571D02*
X158299903Y-69591190D01*
X158299903Y-69591190D02*
X158323712Y-69615000D01*
X158323712Y-69615000D02*
X158371331Y-69638809D01*
X158371331Y-69638809D02*
X158514188Y-69638809D01*
X158514188Y-69638809D02*
X158561807Y-69615000D01*
X158561807Y-69615000D02*
X158585617Y-69591190D01*
X158037998Y-69615000D02*
X158037998Y-69638809D01*
X158037998Y-69638809D02*
X158061808Y-69686428D01*
X158061808Y-69686428D02*
X158085617Y-69710238D01*
X157871332Y-69138809D02*
X157561808Y-69138809D01*
X157561808Y-69138809D02*
X157728475Y-69329285D01*
X157728475Y-69329285D02*
X157657046Y-69329285D01*
X157657046Y-69329285D02*
X157609427Y-69353095D01*
X157609427Y-69353095D02*
X157585618Y-69376904D01*
X157585618Y-69376904D02*
X157561808Y-69424523D01*
X157561808Y-69424523D02*
X157561808Y-69543571D01*
X157561808Y-69543571D02*
X157585618Y-69591190D01*
X157585618Y-69591190D02*
X157609427Y-69615000D01*
X157609427Y-69615000D02*
X157657046Y-69638809D01*
X157657046Y-69638809D02*
X157799903Y-69638809D01*
X157799903Y-69638809D02*
X157847522Y-69615000D01*
X157847522Y-69615000D02*
X157871332Y-69591190D01*
X157418951Y-69138809D02*
X157252285Y-69638809D01*
X157252285Y-69638809D02*
X157085618Y-69138809D01*
X186311332Y-58208809D02*
X186311332Y-57708809D01*
X186311332Y-57708809D02*
X186192284Y-57708809D01*
X186192284Y-57708809D02*
X186120856Y-57732619D01*
X186120856Y-57732619D02*
X186073237Y-57780238D01*
X186073237Y-57780238D02*
X186049427Y-57827857D01*
X186049427Y-57827857D02*
X186025618Y-57923095D01*
X186025618Y-57923095D02*
X186025618Y-57994523D01*
X186025618Y-57994523D02*
X186049427Y-58089761D01*
X186049427Y-58089761D02*
X186073237Y-58137380D01*
X186073237Y-58137380D02*
X186120856Y-58185000D01*
X186120856Y-58185000D02*
X186192284Y-58208809D01*
X186192284Y-58208809D02*
X186311332Y-58208809D01*
X185549427Y-58208809D02*
X185835141Y-58208809D01*
X185692284Y-58208809D02*
X185692284Y-57708809D01*
X185692284Y-57708809D02*
X185739903Y-57780238D01*
X185739903Y-57780238D02*
X185787522Y-57827857D01*
X185787522Y-57827857D02*
X185835141Y-57851666D01*
X185120856Y-57708809D02*
X185216094Y-57708809D01*
X185216094Y-57708809D02*
X185263713Y-57732619D01*
X185263713Y-57732619D02*
X185287523Y-57756428D01*
X185287523Y-57756428D02*
X185335142Y-57827857D01*
X185335142Y-57827857D02*
X185358951Y-57923095D01*
X185358951Y-57923095D02*
X185358951Y-58113571D01*
X185358951Y-58113571D02*
X185335142Y-58161190D01*
X185335142Y-58161190D02*
X185311332Y-58185000D01*
X185311332Y-58185000D02*
X185263713Y-58208809D01*
X185263713Y-58208809D02*
X185168475Y-58208809D01*
X185168475Y-58208809D02*
X185120856Y-58185000D01*
X185120856Y-58185000D02*
X185097047Y-58161190D01*
X185097047Y-58161190D02*
X185073237Y-58113571D01*
X185073237Y-58113571D02*
X185073237Y-57994523D01*
X185073237Y-57994523D02*
X185097047Y-57946904D01*
X185097047Y-57946904D02*
X185120856Y-57923095D01*
X185120856Y-57923095D02*
X185168475Y-57899285D01*
X185168475Y-57899285D02*
X185263713Y-57899285D01*
X185263713Y-57899285D02*
X185311332Y-57923095D01*
X185311332Y-57923095D02*
X185335142Y-57946904D01*
X185335142Y-57946904D02*
X185358951Y-57994523D01*
X202582656Y-94038887D02*
X202582656Y-93538887D01*
X202582656Y-93538887D02*
X202463608Y-93538887D01*
X202463608Y-93538887D02*
X202392180Y-93562697D01*
X202392180Y-93562697D02*
X202344561Y-93610316D01*
X202344561Y-93610316D02*
X202320751Y-93657935D01*
X202320751Y-93657935D02*
X202296942Y-93753173D01*
X202296942Y-93753173D02*
X202296942Y-93824601D01*
X202296942Y-93824601D02*
X202320751Y-93919839D01*
X202320751Y-93919839D02*
X202344561Y-93967458D01*
X202344561Y-93967458D02*
X202392180Y-94015078D01*
X202392180Y-94015078D02*
X202463608Y-94038887D01*
X202463608Y-94038887D02*
X202582656Y-94038887D01*
X201844561Y-93538887D02*
X202082656Y-93538887D01*
X202082656Y-93538887D02*
X202106465Y-93776982D01*
X202106465Y-93776982D02*
X202082656Y-93753173D01*
X202082656Y-93753173D02*
X202035037Y-93729363D01*
X202035037Y-93729363D02*
X201915989Y-93729363D01*
X201915989Y-93729363D02*
X201868370Y-93753173D01*
X201868370Y-93753173D02*
X201844561Y-93776982D01*
X201844561Y-93776982D02*
X201820751Y-93824601D01*
X201820751Y-93824601D02*
X201820751Y-93943649D01*
X201820751Y-93943649D02*
X201844561Y-93991268D01*
X201844561Y-93991268D02*
X201868370Y-94015078D01*
X201868370Y-94015078D02*
X201915989Y-94038887D01*
X201915989Y-94038887D02*
X202035037Y-94038887D01*
X202035037Y-94038887D02*
X202082656Y-94015078D01*
X202082656Y-94015078D02*
X202106465Y-93991268D01*
X201344561Y-94038887D02*
X201630275Y-94038887D01*
X201487418Y-94038887D02*
X201487418Y-93538887D01*
X201487418Y-93538887D02*
X201535037Y-93610316D01*
X201535037Y-93610316D02*
X201582656Y-93657935D01*
X201582656Y-93657935D02*
X201630275Y-93681744D01*
X173468522Y-101499952D02*
X173230427Y-101499952D01*
X173516141Y-101642809D02*
X173349475Y-101142809D01*
X173349475Y-101142809D02*
X173182808Y-101642809D01*
X172801856Y-101309476D02*
X172801856Y-101642809D01*
X172920904Y-101119000D02*
X173039951Y-101476142D01*
X173039951Y-101476142D02*
X172730428Y-101476142D01*
X160577998Y-77258809D02*
X160863712Y-77258809D01*
X160720855Y-77258809D02*
X160720855Y-76758809D01*
X160720855Y-76758809D02*
X160768474Y-76830238D01*
X160768474Y-76830238D02*
X160816093Y-76877857D01*
X160816093Y-76877857D02*
X160863712Y-76901666D01*
X160387522Y-76806428D02*
X160363713Y-76782619D01*
X160363713Y-76782619D02*
X160316094Y-76758809D01*
X160316094Y-76758809D02*
X160197046Y-76758809D01*
X160197046Y-76758809D02*
X160149427Y-76782619D01*
X160149427Y-76782619D02*
X160125618Y-76806428D01*
X160125618Y-76806428D02*
X160101808Y-76854047D01*
X160101808Y-76854047D02*
X160101808Y-76901666D01*
X160101808Y-76901666D02*
X160125618Y-76973095D01*
X160125618Y-76973095D02*
X160411332Y-77258809D01*
X160411332Y-77258809D02*
X160101808Y-77258809D01*
X159958951Y-76758809D02*
X159792285Y-77258809D01*
X159792285Y-77258809D02*
X159625618Y-76758809D01*
X202511494Y-63558887D02*
X202511494Y-63058887D01*
X202511494Y-63058887D02*
X202392446Y-63058887D01*
X202392446Y-63058887D02*
X202321018Y-63082697D01*
X202321018Y-63082697D02*
X202273399Y-63130316D01*
X202273399Y-63130316D02*
X202249589Y-63177935D01*
X202249589Y-63177935D02*
X202225780Y-63273173D01*
X202225780Y-63273173D02*
X202225780Y-63344601D01*
X202225780Y-63344601D02*
X202249589Y-63439839D01*
X202249589Y-63439839D02*
X202273399Y-63487458D01*
X202273399Y-63487458D02*
X202321018Y-63535078D01*
X202321018Y-63535078D02*
X202392446Y-63558887D01*
X202392446Y-63558887D02*
X202511494Y-63558887D01*
X202035303Y-63106506D02*
X202011494Y-63082697D01*
X202011494Y-63082697D02*
X201963875Y-63058887D01*
X201963875Y-63058887D02*
X201844827Y-63058887D01*
X201844827Y-63058887D02*
X201797208Y-63082697D01*
X201797208Y-63082697D02*
X201773399Y-63106506D01*
X201773399Y-63106506D02*
X201749589Y-63154125D01*
X201749589Y-63154125D02*
X201749589Y-63201744D01*
X201749589Y-63201744D02*
X201773399Y-63273173D01*
X201773399Y-63273173D02*
X202059113Y-63558887D01*
X202059113Y-63558887D02*
X201749589Y-63558887D01*
X201582923Y-63058887D02*
X201249590Y-63058887D01*
X201249590Y-63058887D02*
X201463875Y-63558887D01*
X202440332Y-58462809D02*
X202440332Y-57962809D01*
X202440332Y-57962809D02*
X202321284Y-57962809D01*
X202321284Y-57962809D02*
X202249856Y-57986619D01*
X202249856Y-57986619D02*
X202202237Y-58034238D01*
X202202237Y-58034238D02*
X202178427Y-58081857D01*
X202178427Y-58081857D02*
X202154618Y-58177095D01*
X202154618Y-58177095D02*
X202154618Y-58248523D01*
X202154618Y-58248523D02*
X202178427Y-58343761D01*
X202178427Y-58343761D02*
X202202237Y-58391380D01*
X202202237Y-58391380D02*
X202249856Y-58439000D01*
X202249856Y-58439000D02*
X202321284Y-58462809D01*
X202321284Y-58462809D02*
X202440332Y-58462809D01*
X201964141Y-58010428D02*
X201940332Y-57986619D01*
X201940332Y-57986619D02*
X201892713Y-57962809D01*
X201892713Y-57962809D02*
X201773665Y-57962809D01*
X201773665Y-57962809D02*
X201726046Y-57986619D01*
X201726046Y-57986619D02*
X201702237Y-58010428D01*
X201702237Y-58010428D02*
X201678427Y-58058047D01*
X201678427Y-58058047D02*
X201678427Y-58105666D01*
X201678427Y-58105666D02*
X201702237Y-58177095D01*
X201702237Y-58177095D02*
X201987951Y-58462809D01*
X201987951Y-58462809D02*
X201678427Y-58462809D01*
X201511761Y-57962809D02*
X201202237Y-57962809D01*
X201202237Y-57962809D02*
X201368904Y-58153285D01*
X201368904Y-58153285D02*
X201297475Y-58153285D01*
X201297475Y-58153285D02*
X201249856Y-58177095D01*
X201249856Y-58177095D02*
X201226047Y-58200904D01*
X201226047Y-58200904D02*
X201202237Y-58248523D01*
X201202237Y-58248523D02*
X201202237Y-58367571D01*
X201202237Y-58367571D02*
X201226047Y-58415190D01*
X201226047Y-58415190D02*
X201249856Y-58439000D01*
X201249856Y-58439000D02*
X201297475Y-58462809D01*
X201297475Y-58462809D02*
X201440332Y-58462809D01*
X201440332Y-58462809D02*
X201487951Y-58439000D01*
X201487951Y-58439000D02*
X201511761Y-58415190D01*
X196550712Y-101499952D02*
X196312617Y-101499952D01*
X196598331Y-101642809D02*
X196431665Y-101142809D01*
X196431665Y-101142809D02*
X196264998Y-101642809D01*
X195836427Y-101642809D02*
X196122141Y-101642809D01*
X195979284Y-101642809D02*
X195979284Y-101142809D01*
X195979284Y-101142809D02*
X196026903Y-101214238D01*
X196026903Y-101214238D02*
X196074522Y-101261857D01*
X196074522Y-101261857D02*
X196122141Y-101285666D01*
X195645951Y-101190428D02*
X195622142Y-101166619D01*
X195622142Y-101166619D02*
X195574523Y-101142809D01*
X195574523Y-101142809D02*
X195455475Y-101142809D01*
X195455475Y-101142809D02*
X195407856Y-101166619D01*
X195407856Y-101166619D02*
X195384047Y-101190428D01*
X195384047Y-101190428D02*
X195360237Y-101238047D01*
X195360237Y-101238047D02*
X195360237Y-101285666D01*
X195360237Y-101285666D02*
X195384047Y-101357095D01*
X195384047Y-101357095D02*
X195669761Y-101642809D01*
X195669761Y-101642809D02*
X195360237Y-101642809D01*
X205234332Y-91482809D02*
X205234332Y-90982809D01*
X205234332Y-90982809D02*
X205115284Y-90982809D01*
X205115284Y-90982809D02*
X205043856Y-91006619D01*
X205043856Y-91006619D02*
X204996237Y-91054238D01*
X204996237Y-91054238D02*
X204972427Y-91101857D01*
X204972427Y-91101857D02*
X204948618Y-91197095D01*
X204948618Y-91197095D02*
X204948618Y-91268523D01*
X204948618Y-91268523D02*
X204972427Y-91363761D01*
X204972427Y-91363761D02*
X204996237Y-91411380D01*
X204996237Y-91411380D02*
X205043856Y-91459000D01*
X205043856Y-91459000D02*
X205115284Y-91482809D01*
X205115284Y-91482809D02*
X205234332Y-91482809D01*
X204520046Y-91149476D02*
X204520046Y-91482809D01*
X204639094Y-90959000D02*
X204758141Y-91316142D01*
X204758141Y-91316142D02*
X204448618Y-91316142D01*
X204186713Y-91197095D02*
X204234332Y-91173285D01*
X204234332Y-91173285D02*
X204258142Y-91149476D01*
X204258142Y-91149476D02*
X204281951Y-91101857D01*
X204281951Y-91101857D02*
X204281951Y-91078047D01*
X204281951Y-91078047D02*
X204258142Y-91030428D01*
X204258142Y-91030428D02*
X204234332Y-91006619D01*
X204234332Y-91006619D02*
X204186713Y-90982809D01*
X204186713Y-90982809D02*
X204091475Y-90982809D01*
X204091475Y-90982809D02*
X204043856Y-91006619D01*
X204043856Y-91006619D02*
X204020047Y-91030428D01*
X204020047Y-91030428D02*
X203996237Y-91078047D01*
X203996237Y-91078047D02*
X203996237Y-91101857D01*
X203996237Y-91101857D02*
X204020047Y-91149476D01*
X204020047Y-91149476D02*
X204043856Y-91173285D01*
X204043856Y-91173285D02*
X204091475Y-91197095D01*
X204091475Y-91197095D02*
X204186713Y-91197095D01*
X204186713Y-91197095D02*
X204234332Y-91220904D01*
X204234332Y-91220904D02*
X204258142Y-91244714D01*
X204258142Y-91244714D02*
X204281951Y-91292333D01*
X204281951Y-91292333D02*
X204281951Y-91387571D01*
X204281951Y-91387571D02*
X204258142Y-91435190D01*
X204258142Y-91435190D02*
X204234332Y-91459000D01*
X204234332Y-91459000D02*
X204186713Y-91482809D01*
X204186713Y-91482809D02*
X204091475Y-91482809D01*
X204091475Y-91482809D02*
X204043856Y-91459000D01*
X204043856Y-91459000D02*
X204020047Y-91435190D01*
X204020047Y-91435190D02*
X203996237Y-91387571D01*
X203996237Y-91387571D02*
X203996237Y-91292333D01*
X203996237Y-91292333D02*
X204020047Y-91244714D01*
X204020047Y-91244714D02*
X204043856Y-91220904D01*
X204043856Y-91220904D02*
X204091475Y-91197095D01*
X205234332Y-66082809D02*
X205234332Y-65582809D01*
X205234332Y-65582809D02*
X205115284Y-65582809D01*
X205115284Y-65582809D02*
X205043856Y-65606619D01*
X205043856Y-65606619D02*
X204996237Y-65654238D01*
X204996237Y-65654238D02*
X204972427Y-65701857D01*
X204972427Y-65701857D02*
X204948618Y-65797095D01*
X204948618Y-65797095D02*
X204948618Y-65868523D01*
X204948618Y-65868523D02*
X204972427Y-65963761D01*
X204972427Y-65963761D02*
X204996237Y-66011380D01*
X204996237Y-66011380D02*
X205043856Y-66059000D01*
X205043856Y-66059000D02*
X205115284Y-66082809D01*
X205115284Y-66082809D02*
X205234332Y-66082809D01*
X204758141Y-65630428D02*
X204734332Y-65606619D01*
X204734332Y-65606619D02*
X204686713Y-65582809D01*
X204686713Y-65582809D02*
X204567665Y-65582809D01*
X204567665Y-65582809D02*
X204520046Y-65606619D01*
X204520046Y-65606619D02*
X204496237Y-65630428D01*
X204496237Y-65630428D02*
X204472427Y-65678047D01*
X204472427Y-65678047D02*
X204472427Y-65725666D01*
X204472427Y-65725666D02*
X204496237Y-65797095D01*
X204496237Y-65797095D02*
X204781951Y-66082809D01*
X204781951Y-66082809D02*
X204472427Y-66082809D01*
X204186713Y-65797095D02*
X204234332Y-65773285D01*
X204234332Y-65773285D02*
X204258142Y-65749476D01*
X204258142Y-65749476D02*
X204281951Y-65701857D01*
X204281951Y-65701857D02*
X204281951Y-65678047D01*
X204281951Y-65678047D02*
X204258142Y-65630428D01*
X204258142Y-65630428D02*
X204234332Y-65606619D01*
X204234332Y-65606619D02*
X204186713Y-65582809D01*
X204186713Y-65582809D02*
X204091475Y-65582809D01*
X204091475Y-65582809D02*
X204043856Y-65606619D01*
X204043856Y-65606619D02*
X204020047Y-65630428D01*
X204020047Y-65630428D02*
X203996237Y-65678047D01*
X203996237Y-65678047D02*
X203996237Y-65701857D01*
X203996237Y-65701857D02*
X204020047Y-65749476D01*
X204020047Y-65749476D02*
X204043856Y-65773285D01*
X204043856Y-65773285D02*
X204091475Y-65797095D01*
X204091475Y-65797095D02*
X204186713Y-65797095D01*
X204186713Y-65797095D02*
X204234332Y-65820904D01*
X204234332Y-65820904D02*
X204258142Y-65844714D01*
X204258142Y-65844714D02*
X204281951Y-65892333D01*
X204281951Y-65892333D02*
X204281951Y-65987571D01*
X204281951Y-65987571D02*
X204258142Y-66035190D01*
X204258142Y-66035190D02*
X204234332Y-66059000D01*
X204234332Y-66059000D02*
X204186713Y-66082809D01*
X204186713Y-66082809D02*
X204091475Y-66082809D01*
X204091475Y-66082809D02*
X204043856Y-66059000D01*
X204043856Y-66059000D02*
X204020047Y-66035190D01*
X204020047Y-66035190D02*
X203996237Y-65987571D01*
X203996237Y-65987571D02*
X203996237Y-65892333D01*
X203996237Y-65892333D02*
X204020047Y-65844714D01*
X204020047Y-65844714D02*
X204043856Y-65820904D01*
X204043856Y-65820904D02*
X204091475Y-65797095D01*
X205305494Y-86402809D02*
X205305494Y-85902809D01*
X205305494Y-85902809D02*
X205186446Y-85902809D01*
X205186446Y-85902809D02*
X205115018Y-85926619D01*
X205115018Y-85926619D02*
X205067399Y-85974238D01*
X205067399Y-85974238D02*
X205043589Y-86021857D01*
X205043589Y-86021857D02*
X205019780Y-86117095D01*
X205019780Y-86117095D02*
X205019780Y-86188523D01*
X205019780Y-86188523D02*
X205043589Y-86283761D01*
X205043589Y-86283761D02*
X205067399Y-86331380D01*
X205067399Y-86331380D02*
X205115018Y-86379000D01*
X205115018Y-86379000D02*
X205186446Y-86402809D01*
X205186446Y-86402809D02*
X205305494Y-86402809D01*
X204591208Y-86069476D02*
X204591208Y-86402809D01*
X204710256Y-85879000D02*
X204829303Y-86236142D01*
X204829303Y-86236142D02*
X204519780Y-86236142D01*
X204115018Y-86069476D02*
X204115018Y-86402809D01*
X204234066Y-85879000D02*
X204353113Y-86236142D01*
X204353113Y-86236142D02*
X204043590Y-86236142D01*
X170595142Y-58208809D02*
X170595142Y-57708809D01*
X170595142Y-57708809D02*
X170476094Y-57708809D01*
X170476094Y-57708809D02*
X170404666Y-57732619D01*
X170404666Y-57732619D02*
X170357047Y-57780238D01*
X170357047Y-57780238D02*
X170333237Y-57827857D01*
X170333237Y-57827857D02*
X170309428Y-57923095D01*
X170309428Y-57923095D02*
X170309428Y-57994523D01*
X170309428Y-57994523D02*
X170333237Y-58089761D01*
X170333237Y-58089761D02*
X170357047Y-58137380D01*
X170357047Y-58137380D02*
X170404666Y-58185000D01*
X170404666Y-58185000D02*
X170476094Y-58208809D01*
X170476094Y-58208809D02*
X170595142Y-58208809D01*
X170118951Y-57756428D02*
X170095142Y-57732619D01*
X170095142Y-57732619D02*
X170047523Y-57708809D01*
X170047523Y-57708809D02*
X169928475Y-57708809D01*
X169928475Y-57708809D02*
X169880856Y-57732619D01*
X169880856Y-57732619D02*
X169857047Y-57756428D01*
X169857047Y-57756428D02*
X169833237Y-57804047D01*
X169833237Y-57804047D02*
X169833237Y-57851666D01*
X169833237Y-57851666D02*
X169857047Y-57923095D01*
X169857047Y-57923095D02*
X170142761Y-58208809D01*
X170142761Y-58208809D02*
X169833237Y-58208809D01*
X204170712Y-101499952D02*
X203932617Y-101499952D01*
X204218331Y-101642809D02*
X204051665Y-101142809D01*
X204051665Y-101142809D02*
X203884998Y-101642809D01*
X203456427Y-101642809D02*
X203742141Y-101642809D01*
X203599284Y-101642809D02*
X203599284Y-101142809D01*
X203599284Y-101142809D02*
X203646903Y-101214238D01*
X203646903Y-101214238D02*
X203694522Y-101261857D01*
X203694522Y-101261857D02*
X203742141Y-101285666D01*
X203004047Y-101142809D02*
X203242142Y-101142809D01*
X203242142Y-101142809D02*
X203265951Y-101380904D01*
X203265951Y-101380904D02*
X203242142Y-101357095D01*
X203242142Y-101357095D02*
X203194523Y-101333285D01*
X203194523Y-101333285D02*
X203075475Y-101333285D01*
X203075475Y-101333285D02*
X203027856Y-101357095D01*
X203027856Y-101357095D02*
X203004047Y-101380904D01*
X203004047Y-101380904D02*
X202980237Y-101428523D01*
X202980237Y-101428523D02*
X202980237Y-101547571D01*
X202980237Y-101547571D02*
X203004047Y-101595190D01*
X203004047Y-101595190D02*
X203027856Y-101619000D01*
X203027856Y-101619000D02*
X203075475Y-101642809D01*
X203075475Y-101642809D02*
X203194523Y-101642809D01*
X203194523Y-101642809D02*
X203242142Y-101619000D01*
X203242142Y-101619000D02*
X203265951Y-101595190D01*
X188851332Y-58208809D02*
X188851332Y-57708809D01*
X188851332Y-57708809D02*
X188732284Y-57708809D01*
X188732284Y-57708809D02*
X188660856Y-57732619D01*
X188660856Y-57732619D02*
X188613237Y-57780238D01*
X188613237Y-57780238D02*
X188589427Y-57827857D01*
X188589427Y-57827857D02*
X188565618Y-57923095D01*
X188565618Y-57923095D02*
X188565618Y-57994523D01*
X188565618Y-57994523D02*
X188589427Y-58089761D01*
X188589427Y-58089761D02*
X188613237Y-58137380D01*
X188613237Y-58137380D02*
X188660856Y-58185000D01*
X188660856Y-58185000D02*
X188732284Y-58208809D01*
X188732284Y-58208809D02*
X188851332Y-58208809D01*
X188089427Y-58208809D02*
X188375141Y-58208809D01*
X188232284Y-58208809D02*
X188232284Y-57708809D01*
X188232284Y-57708809D02*
X188279903Y-57780238D01*
X188279903Y-57780238D02*
X188327522Y-57827857D01*
X188327522Y-57827857D02*
X188375141Y-57851666D01*
X187922761Y-57708809D02*
X187589428Y-57708809D01*
X187589428Y-57708809D02*
X187803713Y-58208809D01*
X168055142Y-58208809D02*
X168055142Y-57708809D01*
X168055142Y-57708809D02*
X167936094Y-57708809D01*
X167936094Y-57708809D02*
X167864666Y-57732619D01*
X167864666Y-57732619D02*
X167817047Y-57780238D01*
X167817047Y-57780238D02*
X167793237Y-57827857D01*
X167793237Y-57827857D02*
X167769428Y-57923095D01*
X167769428Y-57923095D02*
X167769428Y-57994523D01*
X167769428Y-57994523D02*
X167793237Y-58089761D01*
X167793237Y-58089761D02*
X167817047Y-58137380D01*
X167817047Y-58137380D02*
X167864666Y-58185000D01*
X167864666Y-58185000D02*
X167936094Y-58208809D01*
X167936094Y-58208809D02*
X168055142Y-58208809D01*
X167602761Y-57708809D02*
X167293237Y-57708809D01*
X167293237Y-57708809D02*
X167459904Y-57899285D01*
X167459904Y-57899285D02*
X167388475Y-57899285D01*
X167388475Y-57899285D02*
X167340856Y-57923095D01*
X167340856Y-57923095D02*
X167317047Y-57946904D01*
X167317047Y-57946904D02*
X167293237Y-57994523D01*
X167293237Y-57994523D02*
X167293237Y-58113571D01*
X167293237Y-58113571D02*
X167317047Y-58161190D01*
X167317047Y-58161190D02*
X167340856Y-58185000D01*
X167340856Y-58185000D02*
X167388475Y-58208809D01*
X167388475Y-58208809D02*
X167531332Y-58208809D01*
X167531332Y-58208809D02*
X167578951Y-58185000D01*
X167578951Y-58185000D02*
X167602761Y-58161190D01*
X181231332Y-58208809D02*
X181231332Y-57708809D01*
X181231332Y-57708809D02*
X181112284Y-57708809D01*
X181112284Y-57708809D02*
X181040856Y-57732619D01*
X181040856Y-57732619D02*
X180993237Y-57780238D01*
X180993237Y-57780238D02*
X180969427Y-57827857D01*
X180969427Y-57827857D02*
X180945618Y-57923095D01*
X180945618Y-57923095D02*
X180945618Y-57994523D01*
X180945618Y-57994523D02*
X180969427Y-58089761D01*
X180969427Y-58089761D02*
X180993237Y-58137380D01*
X180993237Y-58137380D02*
X181040856Y-58185000D01*
X181040856Y-58185000D02*
X181112284Y-58208809D01*
X181112284Y-58208809D02*
X181231332Y-58208809D01*
X180469427Y-58208809D02*
X180755141Y-58208809D01*
X180612284Y-58208809D02*
X180612284Y-57708809D01*
X180612284Y-57708809D02*
X180659903Y-57780238D01*
X180659903Y-57780238D02*
X180707522Y-57827857D01*
X180707522Y-57827857D02*
X180755141Y-57851666D01*
X180040856Y-57875476D02*
X180040856Y-58208809D01*
X180159904Y-57685000D02*
X180278951Y-58042142D01*
X180278951Y-58042142D02*
X179969428Y-58042142D01*
X202440332Y-61018887D02*
X202440332Y-60518887D01*
X202440332Y-60518887D02*
X202321284Y-60518887D01*
X202321284Y-60518887D02*
X202249856Y-60542697D01*
X202249856Y-60542697D02*
X202202237Y-60590316D01*
X202202237Y-60590316D02*
X202178427Y-60637935D01*
X202178427Y-60637935D02*
X202154618Y-60733173D01*
X202154618Y-60733173D02*
X202154618Y-60804601D01*
X202154618Y-60804601D02*
X202178427Y-60899839D01*
X202178427Y-60899839D02*
X202202237Y-60947458D01*
X202202237Y-60947458D02*
X202249856Y-60995078D01*
X202249856Y-60995078D02*
X202321284Y-61018887D01*
X202321284Y-61018887D02*
X202440332Y-61018887D01*
X201964141Y-60566506D02*
X201940332Y-60542697D01*
X201940332Y-60542697D02*
X201892713Y-60518887D01*
X201892713Y-60518887D02*
X201773665Y-60518887D01*
X201773665Y-60518887D02*
X201726046Y-60542697D01*
X201726046Y-60542697D02*
X201702237Y-60566506D01*
X201702237Y-60566506D02*
X201678427Y-60614125D01*
X201678427Y-60614125D02*
X201678427Y-60661744D01*
X201678427Y-60661744D02*
X201702237Y-60733173D01*
X201702237Y-60733173D02*
X201987951Y-61018887D01*
X201987951Y-61018887D02*
X201678427Y-61018887D01*
X201226047Y-60518887D02*
X201464142Y-60518887D01*
X201464142Y-60518887D02*
X201487951Y-60756982D01*
X201487951Y-60756982D02*
X201464142Y-60733173D01*
X201464142Y-60733173D02*
X201416523Y-60709363D01*
X201416523Y-60709363D02*
X201297475Y-60709363D01*
X201297475Y-60709363D02*
X201249856Y-60733173D01*
X201249856Y-60733173D02*
X201226047Y-60756982D01*
X201226047Y-60756982D02*
X201202237Y-60804601D01*
X201202237Y-60804601D02*
X201202237Y-60923649D01*
X201202237Y-60923649D02*
X201226047Y-60971268D01*
X201226047Y-60971268D02*
X201249856Y-60995078D01*
X201249856Y-60995078D02*
X201297475Y-61018887D01*
X201297475Y-61018887D02*
X201416523Y-61018887D01*
X201416523Y-61018887D02*
X201464142Y-60995078D01*
X201464142Y-60995078D02*
X201487951Y-60971268D01*
%LPC*%
D12*
%TO.C,XA1*%
X202123000Y-54460000D03*
X208473000Y-102720000D03*
D13*
X205933000Y-54460000D03*
X208473000Y-54460000D03*
X165293000Y-102720000D03*
X167833000Y-102720000D03*
X170373000Y-102720000D03*
X172913000Y-102720000D03*
X175453000Y-102720000D03*
X177993000Y-102720000D03*
X180533000Y-102720000D03*
X185613000Y-102720000D03*
X188153000Y-102720000D03*
X190693000Y-102720000D03*
X193233000Y-102720000D03*
X195773000Y-102720000D03*
X198313000Y-102720000D03*
X200853000Y-102720000D03*
X203393000Y-102720000D03*
X175453000Y-54460000D03*
X172913000Y-54460000D03*
X170373000Y-54460000D03*
X167833000Y-54460000D03*
X180533000Y-54460000D03*
X183073000Y-54460000D03*
X185613000Y-54460000D03*
X188153000Y-54460000D03*
X190693000Y-54460000D03*
X193233000Y-54460000D03*
X195773000Y-54460000D03*
X198313000Y-54460000D03*
X205933000Y-57000000D03*
X208473000Y-57000000D03*
X205933000Y-59540000D03*
X208473000Y-59540000D03*
X205933000Y-62080000D03*
X208473000Y-62080000D03*
X205933000Y-64620000D03*
X208473000Y-64620000D03*
X205933000Y-67160000D03*
X208473000Y-67160000D03*
X205933000Y-69700000D03*
X208473000Y-69700000D03*
X205933000Y-72240000D03*
X208473000Y-72240000D03*
X205933000Y-74780000D03*
X208473000Y-74780000D03*
X205933000Y-77320000D03*
X208473000Y-77320000D03*
X205933000Y-79860000D03*
X208473000Y-79860000D03*
X205933000Y-82400000D03*
X208473000Y-82400000D03*
X205933000Y-84940000D03*
X208473000Y-84940000D03*
X205933000Y-87480000D03*
X208473000Y-87480000D03*
X205933000Y-90020000D03*
X208473000Y-90020000D03*
X205933000Y-92560000D03*
X208473000Y-92560000D03*
X205933000Y-95100000D03*
X208473000Y-95100000D03*
D14*
X205933000Y-97640000D03*
X208473000Y-97640000D03*
%TD*%
D15*
%TO.C,REF\u002A\u002A*%
X195773000Y-62080000D03*
D16*
X195773000Y-64620000D03*
X195773000Y-67160000D03*
X195773000Y-69700000D03*
X195773000Y-72240000D03*
X195773000Y-74780000D03*
X195773000Y-77320000D03*
X195773000Y-79860000D03*
X195773000Y-82400000D03*
X195773000Y-84940000D03*
X195773000Y-87480000D03*
X195773000Y-90020000D03*
X195773000Y-92560000D03*
X195773000Y-95100000D03*
X195773000Y-97640000D03*
%TD*%
D17*
%TO.C,J6*%
X167833000Y-59545000D03*
D16*
X170373000Y-59545000D03*
X172913000Y-59545000D03*
X175453000Y-59545000D03*
%TD*%
D17*
%TO.C,J7*%
X198313000Y-59570000D03*
D16*
X195773000Y-59570000D03*
X193233000Y-59570000D03*
X190693000Y-59570000D03*
X188153000Y-59570000D03*
X185613000Y-59570000D03*
X183073000Y-59570000D03*
X180533000Y-59570000D03*
%TD*%
D15*
%TO.C,REF\u002A\u002A*%
X172913000Y-62080000D03*
D16*
X172913000Y-64620000D03*
X172913000Y-67160000D03*
X172913000Y-69700000D03*
X172913000Y-72240000D03*
X172913000Y-74780000D03*
X172913000Y-77320000D03*
X172913000Y-79860000D03*
X172913000Y-82400000D03*
X172913000Y-84940000D03*
X172913000Y-87480000D03*
X172913000Y-90020000D03*
X172913000Y-92560000D03*
X172913000Y-95100000D03*
X172913000Y-97640000D03*
%TD*%
D15*
%TO.C,REF\u002A\u002A*%
X177993000Y-62080000D03*
D16*
X177993000Y-64620000D03*
X177993000Y-67160000D03*
X177993000Y-69700000D03*
X177993000Y-72240000D03*
X177993000Y-74780000D03*
X177993000Y-77320000D03*
X177993000Y-79860000D03*
X177993000Y-82400000D03*
X177993000Y-84940000D03*
X177993000Y-87480000D03*
X177993000Y-90020000D03*
X177993000Y-92560000D03*
X177993000Y-95100000D03*
X177993000Y-97640000D03*
%TD*%
D15*
%TO.C,REF\u002A\u002A*%
X167833000Y-62080000D03*
D16*
X167833000Y-64620000D03*
X167833000Y-67160000D03*
X167833000Y-69700000D03*
X167833000Y-72240000D03*
X167833000Y-74780000D03*
X167833000Y-77320000D03*
X167833000Y-79860000D03*
X167833000Y-82400000D03*
X167833000Y-84940000D03*
X167833000Y-87480000D03*
X167833000Y-90020000D03*
X167833000Y-92560000D03*
X167833000Y-95100000D03*
X167833000Y-97640000D03*
%TD*%
D15*
%TO.C,REF\u002A\u002A*%
X198313000Y-62080000D03*
D16*
X198313000Y-64620000D03*
X198313000Y-67160000D03*
X198313000Y-69700000D03*
X198313000Y-72240000D03*
X198313000Y-74780000D03*
X198313000Y-77320000D03*
X198313000Y-79860000D03*
X198313000Y-82400000D03*
X198313000Y-84940000D03*
X198313000Y-87480000D03*
X198313000Y-90020000D03*
X198313000Y-92560000D03*
X198313000Y-95100000D03*
X198313000Y-97640000D03*
%TD*%
D17*
%TO.C,J2*%
X200853000Y-97670000D03*
D16*
X203393000Y-97670000D03*
X200853000Y-95130000D03*
X203393000Y-95130000D03*
X200853000Y-92590000D03*
X203393000Y-92590000D03*
X200853000Y-90050000D03*
X203393000Y-90050000D03*
X200853000Y-87510000D03*
X203393000Y-87510000D03*
X200853000Y-84970000D03*
X203393000Y-84970000D03*
X200853000Y-82430000D03*
X203393000Y-82430000D03*
X200853000Y-79890000D03*
X203393000Y-79890000D03*
X200853000Y-77350000D03*
X203393000Y-77350000D03*
X200853000Y-74810000D03*
X203393000Y-74810000D03*
X200853000Y-72270000D03*
X203393000Y-72270000D03*
X200853000Y-69730000D03*
X203393000Y-69730000D03*
X200853000Y-67190000D03*
X203393000Y-67190000D03*
X200853000Y-64650000D03*
X203393000Y-64650000D03*
X200853000Y-62110000D03*
X203393000Y-62110000D03*
X200853000Y-59570000D03*
X203393000Y-59570000D03*
%TD*%
D15*
%TO.C,REF\u002A\u002A*%
X193233000Y-62080000D03*
D16*
X193233000Y-64620000D03*
X193233000Y-67160000D03*
X193233000Y-69700000D03*
X193233000Y-72240000D03*
X193233000Y-74780000D03*
X193233000Y-77320000D03*
X193233000Y-79860000D03*
X193233000Y-82400000D03*
X193233000Y-84940000D03*
X193233000Y-87480000D03*
X193233000Y-90020000D03*
X193233000Y-92560000D03*
X193233000Y-95100000D03*
X193233000Y-97640000D03*
%TD*%
D17*
%TO.C,J8*%
X162753000Y-97670000D03*
D16*
X162753000Y-95130000D03*
X162753000Y-92590000D03*
X162753000Y-90050000D03*
%TD*%
D17*
%TO.C,J5*%
X185628000Y-100185000D03*
D16*
X188168000Y-100185000D03*
X190708000Y-100185000D03*
X193248000Y-100185000D03*
X195788000Y-100185000D03*
X198328000Y-100185000D03*
X200868000Y-100185000D03*
X203408000Y-100185000D03*
%TD*%
D15*
%TO.C,REF\u002A\u002A*%
X188153000Y-62080000D03*
D16*
X188153000Y-64620000D03*
X188153000Y-67160000D03*
X188153000Y-69700000D03*
X188153000Y-72240000D03*
X188153000Y-74780000D03*
X188153000Y-77320000D03*
X188153000Y-79860000D03*
X188153000Y-82400000D03*
X188153000Y-84940000D03*
X188153000Y-87480000D03*
X188153000Y-90020000D03*
X188153000Y-92560000D03*
X188153000Y-95100000D03*
X188153000Y-97640000D03*
%TD*%
D15*
%TO.C,REF\u002A\u002A*%
X165293000Y-62080000D03*
D16*
X165293000Y-64620000D03*
X165293000Y-67160000D03*
X165293000Y-69700000D03*
X165293000Y-72240000D03*
X165293000Y-74780000D03*
X165293000Y-77320000D03*
X165293000Y-79860000D03*
X165293000Y-82400000D03*
X165293000Y-84940000D03*
X165293000Y-87480000D03*
X165293000Y-90020000D03*
X165293000Y-92560000D03*
X165293000Y-95100000D03*
X165293000Y-97640000D03*
%TD*%
D17*
%TO.C,J4*%
X165293000Y-100210000D03*
D16*
X167833000Y-100210000D03*
X170373000Y-100210000D03*
X172913000Y-100210000D03*
X175453000Y-100210000D03*
X177993000Y-100210000D03*
X180533000Y-100210000D03*
%TD*%
D17*
%TO.C,J9*%
X162753000Y-84970000D03*
D16*
X162753000Y-82430000D03*
X162753000Y-79890000D03*
X162753000Y-77350000D03*
%TD*%
D15*
%TO.C,REF\u002A\u002A*%
X190693000Y-62080000D03*
D16*
X190693000Y-64620000D03*
X190693000Y-67160000D03*
X190693000Y-69700000D03*
X190693000Y-72240000D03*
X190693000Y-74780000D03*
X190693000Y-77320000D03*
X190693000Y-79860000D03*
X190693000Y-82400000D03*
X190693000Y-84940000D03*
X190693000Y-87480000D03*
X190693000Y-90020000D03*
X190693000Y-92560000D03*
X190693000Y-95100000D03*
X190693000Y-97640000D03*
%TD*%
D15*
%TO.C,REF\u002A\u002A*%
X170373000Y-62080000D03*
D16*
X170373000Y-64620000D03*
X170373000Y-67160000D03*
X170373000Y-69700000D03*
X170373000Y-72240000D03*
X170373000Y-74780000D03*
X170373000Y-77320000D03*
X170373000Y-79860000D03*
X170373000Y-82400000D03*
X170373000Y-84940000D03*
X170373000Y-87480000D03*
X170373000Y-90020000D03*
X170373000Y-92560000D03*
X170373000Y-95100000D03*
X170373000Y-97640000D03*
%TD*%
D17*
%TO.C,J1*%
X160213000Y-64620000D03*
D16*
X160213000Y-67160000D03*
X160213000Y-69700000D03*
X160213000Y-72240000D03*
%TD*%
D15*
%TO.C,REF\u002A\u002A*%
X185613000Y-62080000D03*
D16*
X185613000Y-64620000D03*
X185613000Y-67160000D03*
X185613000Y-69700000D03*
X185613000Y-72240000D03*
X185613000Y-74780000D03*
X185613000Y-77320000D03*
X185613000Y-79860000D03*
X185613000Y-82400000D03*
X185613000Y-84940000D03*
X185613000Y-87480000D03*
X185613000Y-90020000D03*
X185613000Y-92560000D03*
X185613000Y-95100000D03*
X185613000Y-97640000D03*
%TD*%
D15*
%TO.C,REF\u002A\u002A*%
X180533000Y-62080000D03*
D16*
X180533000Y-64620000D03*
X180533000Y-67160000D03*
X180533000Y-69700000D03*
X180533000Y-72240000D03*
X180533000Y-74780000D03*
X180533000Y-77320000D03*
X180533000Y-79860000D03*
X180533000Y-82400000D03*
X180533000Y-84940000D03*
X180533000Y-87480000D03*
X180533000Y-90020000D03*
X180533000Y-92560000D03*
X180533000Y-95100000D03*
X180533000Y-97640000D03*
%TD*%
D17*
%TO.C,J3*%
X162753000Y-72270000D03*
D16*
X162753000Y-69730000D03*
X162753000Y-67190000D03*
X162753000Y-64650000D03*
%TD*%
D15*
%TO.C,REF\u002A\u002A*%
X175453000Y-62080000D03*
D16*
X175453000Y-64620000D03*
X175453000Y-67160000D03*
X175453000Y-69700000D03*
X175453000Y-72240000D03*
X175453000Y-74780000D03*
X175453000Y-77320000D03*
X175453000Y-79860000D03*
X175453000Y-82400000D03*
X175453000Y-84940000D03*
X175453000Y-87480000D03*
X175453000Y-90020000D03*
X175453000Y-92560000D03*
X175453000Y-95100000D03*
X175453000Y-97640000D03*
%TD*%
D15*
%TO.C,REF\u002A\u002A*%
X183073000Y-62080000D03*
D16*
X183073000Y-64620000D03*
X183073000Y-67160000D03*
X183073000Y-69700000D03*
X183073000Y-72240000D03*
X183073000Y-74780000D03*
X183073000Y-77320000D03*
X183073000Y-79860000D03*
X183073000Y-82400000D03*
X183073000Y-84940000D03*
X183073000Y-87480000D03*
X183073000Y-90020000D03*
X183073000Y-92560000D03*
X183073000Y-95100000D03*
X183073000Y-97640000D03*
%TD*%
%LPD*%
M02*
