%TF.GenerationSoftware,KiCad,Pcbnew,7.0.2*%
%TF.CreationDate,2023-07-18T21:54:39+02:00*%
%TF.ProjectId,RocciShield,526f6363-6953-4686-9965-6c642e6b6963,rev?*%
%TF.SameCoordinates,Original*%
%TF.FileFunction,Soldermask,Top*%
%TF.FilePolarity,Negative*%
%FSLAX46Y46*%
G04 Gerber Fmt 4.6, Leading zero omitted, Abs format (unit mm)*
G04 Created by KiCad (PCBNEW 7.0.2) date 2023-07-18 21:54:39*
%MOMM*%
%LPD*%
G01*
G04 APERTURE LIST*
G04 Aperture macros list*
%AMRoundRect*
0 Rectangle with rounded corners*
0 $1 Rounding radius*
0 $2 $3 $4 $5 $6 $7 $8 $9 X,Y pos of 4 corners*
0 Add a 4 corners polygon primitive as box body*
4,1,4,$2,$3,$4,$5,$6,$7,$8,$9,$2,$3,0*
0 Add four circle primitives for the rounded corners*
1,1,$1+$1,$2,$3*
1,1,$1+$1,$4,$5*
1,1,$1+$1,$6,$7*
1,1,$1+$1,$8,$9*
0 Add four rect primitives between the rounded corners*
20,1,$1+$1,$2,$3,$4,$5,0*
20,1,$1+$1,$4,$5,$6,$7,0*
20,1,$1+$1,$6,$7,$8,$9,0*
20,1,$1+$1,$8,$9,$2,$3,0*%
G04 Aperture macros list end*
%ADD10O,1.700000X1.700000*%
%ADD11R,1.700000X1.700000*%
%ADD12RoundRect,0.218750X0.256250X-0.218750X0.256250X0.218750X-0.256250X0.218750X-0.256250X-0.218750X0*%
%ADD13RoundRect,0.200000X0.275000X-0.200000X0.275000X0.200000X-0.275000X0.200000X-0.275000X-0.200000X0*%
%ADD14RoundRect,0.250000X0.850000X0.350000X-0.850000X0.350000X-0.850000X-0.350000X0.850000X-0.350000X0*%
%ADD15RoundRect,0.249997X2.950003X2.650003X-2.950003X2.650003X-2.950003X-2.650003X2.950003X-2.650003X0*%
%ADD16RoundRect,0.225000X-0.250000X0.225000X-0.250000X-0.225000X0.250000X-0.225000X0.250000X0.225000X0*%
%ADD17RoundRect,0.225000X-0.225000X-0.250000X0.225000X-0.250000X0.225000X0.250000X-0.225000X0.250000X0*%
%ADD18RoundRect,0.112500X-0.112500X0.187500X-0.112500X-0.187500X0.112500X-0.187500X0.112500X0.187500X0*%
%ADD19R,1.100000X3.700000*%
%ADD20RoundRect,0.250000X0.787500X1.025000X-0.787500X1.025000X-0.787500X-1.025000X0.787500X-1.025000X0*%
%ADD21RoundRect,0.100000X-0.100000X0.637500X-0.100000X-0.637500X0.100000X-0.637500X0.100000X0.637500X0*%
%ADD22RoundRect,0.200000X0.200000X0.275000X-0.200000X0.275000X-0.200000X-0.275000X0.200000X-0.275000X0*%
%ADD23RoundRect,0.150000X0.150000X-0.512500X0.150000X0.512500X-0.150000X0.512500X-0.150000X-0.512500X0*%
%ADD24RoundRect,0.112500X0.112500X-0.187500X0.112500X0.187500X-0.112500X0.187500X-0.112500X-0.187500X0*%
%ADD25RoundRect,0.200000X-0.275000X0.200000X-0.275000X-0.200000X0.275000X-0.200000X0.275000X0.200000X0*%
%ADD26RoundRect,0.250000X-0.550000X1.500000X-0.550000X-1.500000X0.550000X-1.500000X0.550000X1.500000X0*%
%ADD27RoundRect,0.218750X-0.256250X0.218750X-0.256250X-0.218750X0.256250X-0.218750X0.256250X0.218750X0*%
%ADD28RoundRect,0.200000X-0.200000X-0.275000X0.200000X-0.275000X0.200000X0.275000X-0.200000X0.275000X0*%
%ADD29RoundRect,0.250000X0.712500X2.475000X-0.712500X2.475000X-0.712500X-2.475000X0.712500X-2.475000X0*%
%ADD30RoundRect,0.250000X-0.262500X-0.450000X0.262500X-0.450000X0.262500X0.450000X-0.262500X0.450000X0*%
%ADD31RoundRect,0.243750X-0.456250X0.243750X-0.456250X-0.243750X0.456250X-0.243750X0.456250X0.243750X0*%
%ADD32RoundRect,0.218750X0.218750X0.256250X-0.218750X0.256250X-0.218750X-0.256250X0.218750X-0.256250X0*%
%ADD33RoundRect,0.250000X-1.550000X0.750000X-1.550000X-0.750000X1.550000X-0.750000X1.550000X0.750000X0*%
%ADD34O,3.600000X2.000000*%
%ADD35RoundRect,0.243750X0.456250X-0.243750X0.456250X0.243750X-0.456250X0.243750X-0.456250X-0.243750X0*%
%ADD36RoundRect,0.225000X0.250000X-0.225000X0.250000X0.225000X-0.250000X0.225000X-0.250000X-0.225000X0*%
%ADD37RoundRect,0.250000X0.600000X-0.400000X0.600000X0.400000X-0.600000X0.400000X-0.600000X-0.400000X0*%
%ADD38RoundRect,0.225000X0.225000X0.250000X-0.225000X0.250000X-0.225000X-0.250000X0.225000X-0.250000X0*%
%ADD39R,1.270000X1.400000*%
%ADD40R,4.720000X4.800000*%
%ADD41C,0.770000*%
%ADD42RoundRect,0.070000X-1.100000X-0.250000X1.100000X-0.250000X1.100000X0.250000X-1.100000X0.250000X0*%
%ADD43R,2.400000X3.100000*%
%ADD44RoundRect,0.150000X-0.825000X-0.150000X0.825000X-0.150000X0.825000X0.150000X-0.825000X0.150000X0*%
%ADD45RoundRect,0.250000X0.625000X-0.375000X0.625000X0.375000X-0.625000X0.375000X-0.625000X-0.375000X0*%
%ADD46RoundRect,0.250000X0.550000X-1.500000X0.550000X1.500000X-0.550000X1.500000X-0.550000X-1.500000X0*%
%ADD47RoundRect,0.150000X0.150000X-0.587500X0.150000X0.587500X-0.150000X0.587500X-0.150000X-0.587500X0*%
%ADD48R,6.000000X6.000000*%
%ADD49C,3.200000*%
%ADD50O,1.727200X1.727200*%
%ADD51R,1.727200X1.727200*%
%ADD52R,3.100000X2.600000*%
%ADD53R,0.600000X1.550000*%
G04 APERTURE END LIST*
D10*
%TO.C,J10*%
X135128000Y-100594000D03*
D11*
X135128000Y-98054000D03*
%TD*%
D12*
%TO.C,D13*%
X130850000Y-119500000D03*
X130850000Y-121075000D03*
%TD*%
D13*
%TO.C,R44*%
X130850000Y-114735500D03*
X130850000Y-116385500D03*
%TD*%
D14*
%TO.C,U2*%
X209203000Y-116279000D03*
D15*
X202903000Y-113999000D03*
D14*
X209203000Y-111719000D03*
%TD*%
D16*
%TO.C,C7*%
X199978000Y-87499000D03*
X199978000Y-89049000D03*
%TD*%
D17*
%TO.C,C19*%
X168103000Y-125624000D03*
X169653000Y-125624000D03*
%TD*%
D18*
%TO.C,D11*%
X169544500Y-103154500D03*
X169544500Y-105254500D03*
%TD*%
D13*
%TO.C,R59*%
X130850000Y-106631000D03*
X130850000Y-108281000D03*
%TD*%
D19*
%TO.C,L1*%
X207478000Y-92274000D03*
X210478000Y-92274000D03*
%TD*%
D20*
%TO.C,C4*%
X209590500Y-105524000D03*
X203365500Y-105524000D03*
%TD*%
D21*
%TO.C,U5*%
X184549500Y-111371000D03*
X183899500Y-111371000D03*
X183249500Y-111371000D03*
X182599500Y-111371000D03*
X181949500Y-111371000D03*
X181299500Y-111371000D03*
X180649500Y-111371000D03*
X179999500Y-111371000D03*
X179349500Y-111371000D03*
X178699500Y-111371000D03*
X178049500Y-111371000D03*
X177399500Y-111371000D03*
X177399500Y-117096000D03*
X178049500Y-117096000D03*
X178699500Y-117096000D03*
X179349500Y-117096000D03*
X179999500Y-117096000D03*
X180649500Y-117096000D03*
X181299500Y-117096000D03*
X181949500Y-117096000D03*
X182599500Y-117096000D03*
X183249500Y-117096000D03*
X183899500Y-117096000D03*
X184549500Y-117096000D03*
%TD*%
D11*
%TO.C,J13*%
X135128000Y-105674000D03*
D10*
X135128000Y-108214000D03*
%TD*%
D22*
%TO.C,R34*%
X167749500Y-103548500D03*
X166099500Y-103548500D03*
%TD*%
%TO.C,R3*%
X167749500Y-112692500D03*
X166099500Y-112692500D03*
%TD*%
D16*
%TO.C,C10*%
X198728000Y-118749000D03*
X198728000Y-120299000D03*
%TD*%
D23*
%TO.C,U4*%
X180558000Y-92760000D03*
X181508000Y-92760000D03*
X182458000Y-92760000D03*
X182458000Y-90485000D03*
X181508000Y-90485000D03*
X180558000Y-90485000D03*
%TD*%
D24*
%TO.C,D25*%
X184164000Y-125349500D03*
X184164000Y-123249500D03*
%TD*%
D25*
%TO.C,R62*%
X192292000Y-120222000D03*
X192292000Y-121872000D03*
%TD*%
D22*
%TO.C,R50*%
X167703000Y-122224000D03*
X166053000Y-122224000D03*
%TD*%
D13*
%TO.C,R22*%
X177672500Y-108410000D03*
X177672500Y-106760000D03*
%TD*%
D26*
%TO.C,C14*%
X141884400Y-95481000D03*
X141884400Y-100881000D03*
%TD*%
D12*
%TO.C,D18*%
X132374000Y-113211500D03*
X132374000Y-111636500D03*
%TD*%
D25*
%TO.C,R7*%
X202728000Y-95449000D03*
X202728000Y-97099000D03*
%TD*%
D27*
%TO.C,D23*%
X130850000Y-97100000D03*
X130850000Y-98675000D03*
%TD*%
%TO.C,D6*%
X160078000Y-100436500D03*
X160078000Y-102011500D03*
%TD*%
D22*
%TO.C,R5*%
X210303000Y-95774000D03*
X208653000Y-95774000D03*
%TD*%
D28*
%TO.C,R6*%
X199903000Y-85774000D03*
X201553000Y-85774000D03*
%TD*%
D17*
%TO.C,C3*%
X204703000Y-95774000D03*
X206253000Y-95774000D03*
%TD*%
D29*
%TO.C,F9*%
X185003000Y-97774000D03*
X178228000Y-97774000D03*
%TD*%
D11*
%TO.C,J3*%
X160528000Y-113294000D03*
D10*
X157988000Y-113294000D03*
X155448000Y-113294000D03*
X152908000Y-113294000D03*
%TD*%
D30*
%TO.C,R45*%
X124484000Y-118086500D03*
X122659000Y-118086500D03*
%TD*%
D13*
%TO.C,R11*%
X181990500Y-108454500D03*
X181990500Y-106804500D03*
%TD*%
D24*
%TO.C,D30*%
X192292000Y-125653000D03*
X192292000Y-123553000D03*
%TD*%
D18*
%TO.C,D9*%
X175640500Y-103008000D03*
X175640500Y-105108000D03*
%TD*%
D17*
%TO.C,C20*%
X164903000Y-125624000D03*
X166453000Y-125624000D03*
%TD*%
D31*
%TO.C,F7*%
X176148500Y-119978500D03*
X176148500Y-121853500D03*
%TD*%
D32*
%TO.C,D17*%
X125665500Y-91024000D03*
X124090500Y-91024000D03*
%TD*%
D27*
%TO.C,D19*%
X130850000Y-111636500D03*
X130850000Y-113211500D03*
%TD*%
D25*
%TO.C,R29*%
X198478000Y-123624000D03*
X198478000Y-125274000D03*
%TD*%
D30*
%TO.C,R37*%
X124540500Y-125904000D03*
X122715500Y-125904000D03*
%TD*%
D12*
%TO.C,D28*%
X132374000Y-105107000D03*
X132374000Y-103532000D03*
%TD*%
D30*
%TO.C,R60*%
X124602000Y-110269500D03*
X122777000Y-110269500D03*
%TD*%
D27*
%TO.C,D14*%
X132374000Y-121075000D03*
X132374000Y-119500000D03*
%TD*%
D22*
%TO.C,R27*%
X167749500Y-106596500D03*
X166099500Y-106596500D03*
%TD*%
D33*
%TO.C,J1*%
X132278000Y-86824000D03*
D34*
X132278000Y-91824000D03*
%TD*%
D22*
%TO.C,R33*%
X167749500Y-105072500D03*
X166099500Y-105072500D03*
%TD*%
D18*
%TO.C,D10*%
X177672500Y-102979000D03*
X177672500Y-105079000D03*
%TD*%
D27*
%TO.C,D7*%
X161878000Y-100436500D03*
X161878000Y-102011500D03*
%TD*%
D18*
%TO.C,D1*%
X188086500Y-102735500D03*
X188086500Y-104835500D03*
%TD*%
D13*
%TO.C,R35*%
X130850000Y-124249000D03*
X130850000Y-122599000D03*
%TD*%
D16*
%TO.C,C22*%
X190278000Y-90049000D03*
X190278000Y-91599000D03*
%TD*%
D13*
%TO.C,R2*%
X188086500Y-108200500D03*
X188086500Y-106550500D03*
%TD*%
D25*
%TO.C,R46*%
X178180500Y-120075500D03*
X178180500Y-121725500D03*
%TD*%
D13*
%TO.C,R65*%
X178780000Y-92002500D03*
X178780000Y-90352500D03*
%TD*%
D11*
%TO.C,J8*%
X135128000Y-113294000D03*
D10*
X135128000Y-115834000D03*
%TD*%
D22*
%TO.C,R57*%
X167703000Y-119024000D03*
X166053000Y-119024000D03*
%TD*%
D27*
%TO.C,D8*%
X163678000Y-100436500D03*
X163678000Y-102011500D03*
%TD*%
D25*
%TO.C,R13*%
X187728000Y-91199000D03*
X187728000Y-92849000D03*
%TD*%
D35*
%TO.C,F5*%
X173608500Y-108630000D03*
X173608500Y-106755000D03*
%TD*%
D25*
%TO.C,R67*%
X190678000Y-94174000D03*
X190678000Y-95824000D03*
%TD*%
D22*
%TO.C,R24*%
X205546000Y-118570000D03*
X203896000Y-118570000D03*
%TD*%
D13*
%TO.C,R51*%
X132374000Y-101849000D03*
X132374000Y-100199000D03*
%TD*%
D11*
%TO.C,J4*%
X147828000Y-108214000D03*
D10*
X145288000Y-108214000D03*
X142748000Y-108214000D03*
X140208000Y-108214000D03*
%TD*%
D30*
%TO.C,R53*%
X121555500Y-95264000D03*
X123380500Y-95264000D03*
%TD*%
D12*
%TO.C,D22*%
X132374000Y-98675000D03*
X132374000Y-97100000D03*
%TD*%
D13*
%TO.C,R58*%
X132374000Y-106631000D03*
X132374000Y-108281000D03*
%TD*%
D36*
%TO.C,C6*%
X186054500Y-117053500D03*
X186054500Y-115503500D03*
%TD*%
D37*
%TO.C,D26*%
X165978000Y-100024000D03*
X165978000Y-96524000D03*
%TD*%
D13*
%TO.C,R43*%
X132374000Y-114735500D03*
X132374000Y-116385500D03*
%TD*%
D25*
%TO.C,R26*%
X184368000Y-91199000D03*
X184368000Y-92849000D03*
%TD*%
D38*
%TO.C,C15*%
X128226000Y-125904000D03*
X126676000Y-125904000D03*
%TD*%
D31*
%TO.C,F8*%
X182132000Y-119981500D03*
X182132000Y-121856500D03*
%TD*%
D22*
%TO.C,R32*%
X196700000Y-125275000D03*
X195050000Y-125275000D03*
%TD*%
%TO.C,R56*%
X167703000Y-117424000D03*
X166053000Y-117424000D03*
%TD*%
D11*
%TO.C,J14*%
X147828000Y-118374000D03*
D10*
X145288000Y-118374000D03*
X142748000Y-118374000D03*
X140208000Y-118374000D03*
%TD*%
D18*
%TO.C,D4*%
X181990500Y-103023500D03*
X181990500Y-105123500D03*
%TD*%
D24*
%TO.C,D31*%
X190260000Y-125653000D03*
X190260000Y-123553000D03*
%TD*%
D13*
%TO.C,R36*%
X132374000Y-124249000D03*
X132374000Y-122599000D03*
%TD*%
%TO.C,R42*%
X125665500Y-89246000D03*
X125665500Y-87596000D03*
%TD*%
D39*
%TO.C,D32*%
X170913000Y-86664000D03*
X170913000Y-84584000D03*
D40*
X174718000Y-85624000D03*
%TD*%
D25*
%TO.C,R66*%
X190678000Y-97374000D03*
X190678000Y-99024000D03*
%TD*%
D36*
%TO.C,C21*%
X207978000Y-87299000D03*
X207978000Y-85749000D03*
%TD*%
D35*
%TO.C,F1*%
X192150500Y-108313000D03*
X192150500Y-106438000D03*
%TD*%
D37*
%TO.C,D27*%
X188228000Y-99524000D03*
X188228000Y-96024000D03*
%TD*%
D22*
%TO.C,R9*%
X188466500Y-111693500D03*
X186816500Y-111693500D03*
%TD*%
D38*
%TO.C,C17*%
X127053000Y-96026000D03*
X125503000Y-96026000D03*
%TD*%
D14*
%TO.C,U3*%
X156078000Y-97744000D03*
D15*
X149778000Y-100024000D03*
D14*
X156078000Y-102304000D03*
%TD*%
D13*
%TO.C,R16*%
X160078000Y-98849000D03*
X160078000Y-97199000D03*
%TD*%
D11*
%TO.C,J2*%
X147828000Y-113294000D03*
D10*
X145288000Y-113294000D03*
X142748000Y-113294000D03*
X140208000Y-113294000D03*
%TD*%
D18*
%TO.C,D12*%
X171576500Y-103154500D03*
X171576500Y-105254500D03*
%TD*%
D41*
%TO.C,U9*%
X126106000Y-107421500D03*
X126106000Y-106121500D03*
X126106000Y-104821500D03*
X124806000Y-107421500D03*
X124806000Y-106121500D03*
X124806000Y-104821500D03*
D42*
X128331000Y-104216500D03*
X128331000Y-105486500D03*
X128331000Y-106756500D03*
X128331000Y-108026500D03*
X122581000Y-108026500D03*
X122581000Y-106756500D03*
X122581000Y-105486500D03*
X122581000Y-104216500D03*
D43*
X125456000Y-106121500D03*
%TD*%
%TO.C,U7*%
X125404000Y-114306500D03*
D42*
X122529000Y-112401500D03*
X122529000Y-113671500D03*
X122529000Y-114941500D03*
X122529000Y-116211500D03*
X128279000Y-116211500D03*
X128279000Y-114941500D03*
X128279000Y-113671500D03*
X128279000Y-112401500D03*
D41*
X124754000Y-113006500D03*
X124754000Y-114306500D03*
X124754000Y-115606500D03*
X126054000Y-113006500D03*
X126054000Y-114306500D03*
X126054000Y-115606500D03*
%TD*%
D25*
%TO.C,R54*%
X184164000Y-120109500D03*
X184164000Y-121759500D03*
%TD*%
D17*
%TO.C,C9*%
X209228000Y-109274000D03*
X210778000Y-109274000D03*
%TD*%
D24*
%TO.C,D15*%
X173862500Y-125716000D03*
X173862500Y-123616000D03*
%TD*%
D13*
%TO.C,R30*%
X171576500Y-108517500D03*
X171576500Y-106867500D03*
%TD*%
D17*
%TO.C,C13*%
X148213000Y-104424000D03*
X146663000Y-104424000D03*
%TD*%
D11*
%TO.C,J5*%
X160528000Y-108214000D03*
D10*
X157988000Y-108214000D03*
X155448000Y-108214000D03*
X152908000Y-108214000D03*
%TD*%
D11*
%TO.C,J12*%
X173228000Y-90984000D03*
D10*
X173228000Y-93524000D03*
X173228000Y-96064000D03*
X173228000Y-98604000D03*
%TD*%
D44*
%TO.C,Q1*%
X181003000Y-83369000D03*
X181003000Y-84639000D03*
X181003000Y-85909000D03*
X181003000Y-87179000D03*
X185953000Y-87179000D03*
X185953000Y-85909000D03*
X185953000Y-84639000D03*
X185953000Y-83369000D03*
%TD*%
D22*
%TO.C,R49*%
X167703000Y-120624000D03*
X166053000Y-120624000D03*
%TD*%
D11*
%TO.C,J11*%
X160528000Y-118374000D03*
D10*
X157988000Y-118374000D03*
X155448000Y-118374000D03*
X152908000Y-118374000D03*
%TD*%
D22*
%TO.C,R12*%
X167749500Y-109644500D03*
X166099500Y-109644500D03*
%TD*%
D45*
%TO.C,F11*%
X168728000Y-99424000D03*
X168728000Y-96624000D03*
%TD*%
D25*
%TO.C,R47*%
X179958500Y-120075500D03*
X179958500Y-121725500D03*
%TD*%
D24*
%TO.C,D20*%
X179958500Y-125477500D03*
X179958500Y-123377500D03*
%TD*%
D20*
%TO.C,C5*%
X209590500Y-100524000D03*
X203365500Y-100524000D03*
%TD*%
D24*
%TO.C,D24*%
X186196000Y-125349500D03*
X186196000Y-123249500D03*
%TD*%
D25*
%TO.C,R14*%
X178780000Y-86924500D03*
X178780000Y-88574500D03*
%TD*%
D24*
%TO.C,D16*%
X171830500Y-125716000D03*
X171830500Y-123616000D03*
%TD*%
D25*
%TO.C,R61*%
X190260000Y-120222000D03*
X190260000Y-121872000D03*
%TD*%
D10*
%TO.C,J6*%
X135128000Y-123454000D03*
D11*
X135128000Y-120914000D03*
%TD*%
D13*
%TO.C,R18*%
X163678000Y-98849000D03*
X163678000Y-97199000D03*
%TD*%
D43*
%TO.C,U8*%
X125579000Y-99804500D03*
D42*
X122704000Y-97899500D03*
X122704000Y-99169500D03*
X122704000Y-100439500D03*
X122704000Y-101709500D03*
X128454000Y-101709500D03*
X128454000Y-100439500D03*
X128454000Y-99169500D03*
X128454000Y-97899500D03*
D41*
X124929000Y-98504500D03*
X124929000Y-99804500D03*
X124929000Y-101104500D03*
X126229000Y-98504500D03*
X126229000Y-99804500D03*
X126229000Y-101104500D03*
%TD*%
D24*
%TO.C,D21*%
X177926500Y-125477500D03*
X177926500Y-123377500D03*
%TD*%
D46*
%TO.C,C11*%
X195478000Y-117024000D03*
X195478000Y-111624000D03*
%TD*%
D17*
%TO.C,C2*%
X204703000Y-85774000D03*
X206253000Y-85774000D03*
%TD*%
D10*
%TO.C,J7*%
X152908000Y-123454000D03*
X155448000Y-123454000D03*
X157988000Y-123454000D03*
D11*
X160528000Y-123454000D03*
%TD*%
D25*
%TO.C,R39*%
X173862500Y-120285000D03*
X173862500Y-121935000D03*
%TD*%
D22*
%TO.C,R63*%
X172130500Y-115232500D03*
X170480500Y-115232500D03*
%TD*%
%TO.C,R4*%
X172130500Y-113708500D03*
X170480500Y-113708500D03*
%TD*%
D18*
%TO.C,D2*%
X190118500Y-102769500D03*
X190118500Y-104869500D03*
%TD*%
D13*
%TO.C,R19*%
X185978000Y-92849000D03*
X185978000Y-91199000D03*
%TD*%
D22*
%TO.C,R40*%
X166503000Y-124024000D03*
X164853000Y-124024000D03*
%TD*%
D26*
%TO.C,C1*%
X194728000Y-86024000D03*
X194728000Y-91424000D03*
%TD*%
D47*
%TO.C,Q2*%
X123699500Y-85865500D03*
X125599500Y-85865500D03*
X124649500Y-83990500D03*
%TD*%
D22*
%TO.C,R21*%
X152613000Y-104424000D03*
X154263000Y-104424000D03*
%TD*%
D13*
%TO.C,R10*%
X184022500Y-108454500D03*
X184022500Y-106804500D03*
%TD*%
D22*
%TO.C,R25*%
X155813000Y-104424000D03*
X157463000Y-104424000D03*
%TD*%
D18*
%TO.C,D5*%
X184022500Y-103023500D03*
X184022500Y-105123500D03*
%TD*%
D22*
%TO.C,R64*%
X167703000Y-115824000D03*
X166053000Y-115824000D03*
%TD*%
D13*
%TO.C,R17*%
X161878000Y-98889000D03*
X161878000Y-97239000D03*
%TD*%
%TO.C,R23*%
X175640500Y-108439000D03*
X175640500Y-106789000D03*
%TD*%
D31*
%TO.C,F10*%
X188228000Y-120075500D03*
X188228000Y-121950500D03*
%TD*%
D13*
%TO.C,R31*%
X169544500Y-108517500D03*
X169544500Y-106867500D03*
%TD*%
%TO.C,R1*%
X190118500Y-108200500D03*
X190118500Y-106550500D03*
%TD*%
D22*
%TO.C,R8*%
X188466500Y-113471500D03*
X186816500Y-113471500D03*
%TD*%
D48*
%TO.C,F2*%
X148578000Y-88024000D03*
X165578000Y-88024000D03*
%TD*%
D25*
%TO.C,R55*%
X186196000Y-120109500D03*
X186196000Y-121759500D03*
%TD*%
D49*
%TO.C,XA1*%
X133858000Y-128524000D03*
X135128000Y-80264000D03*
D50*
X147828000Y-128524000D03*
D49*
X210058000Y-80264000D03*
X216408000Y-128524000D03*
D50*
X155448000Y-128524000D03*
X157988000Y-128524000D03*
X213868000Y-80264000D03*
X216408000Y-80264000D03*
X170688000Y-128524000D03*
X173228000Y-128524000D03*
X175768000Y-128524000D03*
X178308000Y-128524000D03*
X180848000Y-128524000D03*
X183388000Y-128524000D03*
X185928000Y-128524000D03*
X188468000Y-128524000D03*
X193548000Y-128524000D03*
X196088000Y-128524000D03*
X198628000Y-128524000D03*
X201168000Y-128524000D03*
X203708000Y-128524000D03*
X206248000Y-128524000D03*
X208788000Y-128524000D03*
X211328000Y-128524000D03*
X143764000Y-80264000D03*
X183388000Y-80264000D03*
X180848000Y-80264000D03*
X178308000Y-80264000D03*
X175768000Y-80264000D03*
X173228000Y-80264000D03*
X170688000Y-80264000D03*
X168148000Y-80264000D03*
X165608000Y-80264000D03*
X161544000Y-80264000D03*
X159004000Y-80264000D03*
X156464000Y-80264000D03*
X153924000Y-80264000D03*
X151384000Y-80264000D03*
X148844000Y-80264000D03*
X188468000Y-80264000D03*
X191008000Y-80264000D03*
X193548000Y-80264000D03*
X196088000Y-80264000D03*
X198628000Y-80264000D03*
X201168000Y-80264000D03*
X203708000Y-80264000D03*
X206248000Y-80264000D03*
X213868000Y-82804000D03*
X216408000Y-82804000D03*
X213868000Y-85344000D03*
X216408000Y-85344000D03*
X213868000Y-87884000D03*
X216408000Y-87884000D03*
X213868000Y-90424000D03*
X216408000Y-90424000D03*
X213868000Y-92964000D03*
X216408000Y-92964000D03*
X213868000Y-95504000D03*
X216408000Y-95504000D03*
X213868000Y-98044000D03*
X216408000Y-98044000D03*
X213868000Y-100584000D03*
X216408000Y-100584000D03*
X213868000Y-103124000D03*
X216408000Y-103124000D03*
X213868000Y-105664000D03*
X216408000Y-105664000D03*
X213868000Y-108204000D03*
X216408000Y-108204000D03*
X213868000Y-110744000D03*
X216408000Y-110744000D03*
X213868000Y-113284000D03*
X216408000Y-113284000D03*
X213868000Y-115824000D03*
X216408000Y-115824000D03*
X213868000Y-118364000D03*
X216408000Y-118364000D03*
X213868000Y-120904000D03*
X216408000Y-120904000D03*
D51*
X146304000Y-80264000D03*
X160528000Y-128524000D03*
X163068000Y-128524000D03*
X213868000Y-123444000D03*
X216408000Y-123444000D03*
D50*
X150368000Y-128524000D03*
X152908000Y-128524000D03*
X138684000Y-80264000D03*
X141224000Y-80264000D03*
X165608000Y-128524000D03*
%TD*%
D25*
%TO.C,R38*%
X171830500Y-120285000D03*
X171830500Y-121935000D03*
%TD*%
D16*
%TO.C,C12*%
X158278000Y-98799000D03*
X158278000Y-97249000D03*
%TD*%
D52*
%TO.C,U1*%
X203728000Y-90524000D03*
D53*
X205633000Y-87824000D03*
X204363000Y-87824000D03*
X203093000Y-87824000D03*
X201823000Y-87824000D03*
X201823000Y-93224000D03*
X203093000Y-93224000D03*
X204363000Y-93224000D03*
X205633000Y-93224000D03*
%TD*%
D22*
%TO.C,R28*%
X167749500Y-108120500D03*
X166099500Y-108120500D03*
%TD*%
%TO.C,R15*%
X167749500Y-111168500D03*
X166099500Y-111168500D03*
%TD*%
D13*
%TO.C,R52*%
X130850000Y-101849000D03*
X130850000Y-100199000D03*
%TD*%
D35*
%TO.C,F4*%
X179958500Y-108551500D03*
X179958500Y-106676500D03*
%TD*%
D27*
%TO.C,D29*%
X130850000Y-103532000D03*
X130850000Y-105107000D03*
%TD*%
D38*
%TO.C,C16*%
X126621000Y-110269500D03*
X128171000Y-110269500D03*
%TD*%
%TO.C,C18*%
X126977000Y-118086500D03*
X128527000Y-118086500D03*
%TD*%
D22*
%TO.C,R20*%
X202244000Y-118570000D03*
X200594000Y-118570000D03*
%TD*%
D17*
%TO.C,C23*%
X190528000Y-100624000D03*
X192078000Y-100624000D03*
%TD*%
D31*
%TO.C,F6*%
X170052500Y-120206500D03*
X170052500Y-122081500D03*
%TD*%
D35*
%TO.C,F3*%
X186054500Y-108376000D03*
X186054500Y-106501000D03*
%TD*%
D11*
%TO.C,J9*%
X147828000Y-123454000D03*
D10*
X145288000Y-123454000D03*
X142748000Y-123454000D03*
X140208000Y-123454000D03*
%TD*%
D43*
%TO.C,U6*%
X125548000Y-122124000D03*
D42*
X122673000Y-120219000D03*
X122673000Y-121489000D03*
X122673000Y-122759000D03*
X122673000Y-124029000D03*
X128423000Y-124029000D03*
X128423000Y-122759000D03*
X128423000Y-121489000D03*
X128423000Y-120219000D03*
D41*
X124898000Y-120824000D03*
X124898000Y-122124000D03*
X124898000Y-123424000D03*
X126198000Y-120824000D03*
X126198000Y-122124000D03*
X126198000Y-123424000D03*
%TD*%
D22*
%TO.C,R41*%
X169703000Y-124024000D03*
X168053000Y-124024000D03*
%TD*%
D25*
%TO.C,R48*%
X123887500Y-87659000D03*
X123887500Y-89309000D03*
%TD*%
D36*
%TO.C,C8*%
X178678000Y-84399000D03*
X178678000Y-82849000D03*
%TD*%
M02*
