%TF.GenerationSoftware,KiCad,Pcbnew,7.0.2*%
%TF.CreationDate,2023-09-30T13:11:57+02:00*%
%TF.ProjectId,RocciBoard,526f6363-6942-46f6-9172-642e6b696361,rev?*%
%TF.SameCoordinates,Original*%
%TF.FileFunction,Soldermask,Bot*%
%TF.FilePolarity,Negative*%
%FSLAX46Y46*%
G04 Gerber Fmt 4.6, Leading zero omitted, Abs format (unit mm)*
G04 Created by KiCad (PCBNEW 7.0.2) date 2023-09-30 13:11:57*
%MOMM*%
%LPD*%
G01*
G04 APERTURE LIST*
G04 Aperture macros list*
%AMRoundRect*
0 Rectangle with rounded corners*
0 $1 Rounding radius*
0 $2 $3 $4 $5 $6 $7 $8 $9 X,Y pos of 4 corners*
0 Add a 4 corners polygon primitive as box body*
4,1,4,$2,$3,$4,$5,$6,$7,$8,$9,$2,$3,0*
0 Add four circle primitives for the rounded corners*
1,1,$1+$1,$2,$3*
1,1,$1+$1,$4,$5*
1,1,$1+$1,$6,$7*
1,1,$1+$1,$8,$9*
0 Add four rect primitives between the rounded corners*
20,1,$1+$1,$2,$3,$4,$5,0*
20,1,$1+$1,$4,$5,$6,$7,0*
20,1,$1+$1,$6,$7,$8,$9,0*
20,1,$1+$1,$8,$9,$2,$3,0*%
G04 Aperture macros list end*
%ADD10R,1.700000X1.700000*%
%ADD11O,1.700000X1.700000*%
%ADD12RoundRect,0.250000X-1.550000X0.750000X-1.550000X-0.750000X1.550000X-0.750000X1.550000X0.750000X0*%
%ADD13O,3.600000X2.000000*%
%ADD14C,0.770000*%
%ADD15C,3.200000*%
%ADD16O,1.727200X1.727200*%
%ADD17R,1.727200X1.727200*%
%ADD18R,1.500000X1.000000*%
%ADD19C,1.000000*%
%ADD20RoundRect,0.250000X-0.350000X0.850000X-0.350000X-0.850000X0.350000X-0.850000X0.350000X0.850000X0*%
%ADD21RoundRect,0.249997X-2.650003X2.950003X-2.650003X-2.950003X2.650003X-2.950003X2.650003X2.950003X0*%
G04 APERTURE END LIST*
D10*
%TO.C,J13*%
X135128000Y-105674000D03*
D11*
X135128000Y-108214000D03*
%TD*%
D10*
%TO.C,J10*%
X135128000Y-98054000D03*
D11*
X135128000Y-100594000D03*
%TD*%
D10*
%TO.C,J3*%
X147828000Y-118374000D03*
D11*
X145288000Y-118374000D03*
X142748000Y-118374000D03*
X140208000Y-118374000D03*
%TD*%
D12*
%TO.C,J1*%
X132278000Y-86824000D03*
D13*
X132278000Y-91824000D03*
%TD*%
D10*
%TO.C,J8*%
X135128000Y-113294000D03*
D11*
X135128000Y-115834000D03*
%TD*%
D10*
%TO.C,J4*%
X147828000Y-113278000D03*
D11*
X145288000Y-113278000D03*
X142748000Y-113278000D03*
X140208000Y-113278000D03*
%TD*%
D10*
%TO.C,J14*%
X160514000Y-108198000D03*
D11*
X157974000Y-108198000D03*
X155434000Y-108198000D03*
X152894000Y-108198000D03*
%TD*%
D10*
%TO.C,J2*%
X147828000Y-123454000D03*
D11*
X145288000Y-123454000D03*
X142748000Y-123454000D03*
X140208000Y-123454000D03*
%TD*%
D14*
%TO.C,U9*%
X124806000Y-104821500D03*
X124806000Y-106121500D03*
X124806000Y-107421500D03*
X126106000Y-104821500D03*
X126106000Y-106121500D03*
X126106000Y-107421500D03*
%TD*%
%TO.C,U7*%
X124754000Y-113006500D03*
X124754000Y-114306500D03*
X124754000Y-115606500D03*
X126054000Y-113006500D03*
X126054000Y-114306500D03*
X126054000Y-115606500D03*
%TD*%
D10*
%TO.C,J5*%
X147828000Y-108214000D03*
D11*
X145288000Y-108214000D03*
X142748000Y-108214000D03*
X140208000Y-108214000D03*
%TD*%
D10*
%TO.C,J12*%
X168148000Y-90424000D03*
D11*
X168148000Y-92964000D03*
X168148000Y-95504000D03*
X168148000Y-98044000D03*
%TD*%
D10*
%TO.C,J11*%
X160528000Y-113278000D03*
D11*
X157988000Y-113278000D03*
X155448000Y-113278000D03*
X152908000Y-113278000D03*
%TD*%
D10*
%TO.C,J6*%
X135128000Y-120914000D03*
D11*
X135128000Y-123454000D03*
%TD*%
D14*
%TO.C,U8*%
X124929000Y-98504500D03*
X124929000Y-99804500D03*
X124929000Y-101104500D03*
X126229000Y-98504500D03*
X126229000Y-99804500D03*
X126229000Y-101104500D03*
%TD*%
D10*
%TO.C,J7*%
X160528000Y-123454000D03*
D11*
X157988000Y-123454000D03*
X155448000Y-123454000D03*
X152908000Y-123454000D03*
%TD*%
D15*
%TO.C,XA1*%
X133858000Y-128524000D03*
X135128000Y-80264000D03*
D16*
X147828000Y-128524000D03*
D15*
X210058000Y-80264000D03*
X216408000Y-128524000D03*
D16*
X155448000Y-128524000D03*
X157988000Y-128524000D03*
X213868000Y-80264000D03*
X216408000Y-80264000D03*
X170688000Y-128524000D03*
X173228000Y-128524000D03*
X175768000Y-128524000D03*
X178308000Y-128524000D03*
X180848000Y-128524000D03*
X183388000Y-128524000D03*
X185928000Y-128524000D03*
X188468000Y-128524000D03*
X193548000Y-128524000D03*
X196088000Y-128524000D03*
X198628000Y-128524000D03*
X201168000Y-128524000D03*
X203708000Y-128524000D03*
X206248000Y-128524000D03*
X208788000Y-128524000D03*
X211328000Y-128524000D03*
X143764000Y-80264000D03*
X183388000Y-80264000D03*
X180848000Y-80264000D03*
X178308000Y-80264000D03*
X175768000Y-80264000D03*
X173228000Y-80264000D03*
X170688000Y-80264000D03*
X168148000Y-80264000D03*
X165608000Y-80264000D03*
X161544000Y-80264000D03*
X159004000Y-80264000D03*
X156464000Y-80264000D03*
X153924000Y-80264000D03*
X151384000Y-80264000D03*
X148844000Y-80264000D03*
X188468000Y-80264000D03*
X191008000Y-80264000D03*
X193548000Y-80264000D03*
X196088000Y-80264000D03*
X198628000Y-80264000D03*
X201168000Y-80264000D03*
X203708000Y-80264000D03*
X206248000Y-80264000D03*
X213868000Y-82804000D03*
X216408000Y-82804000D03*
X213868000Y-85344000D03*
X216408000Y-85344000D03*
X213868000Y-87884000D03*
X216408000Y-87884000D03*
X213868000Y-90424000D03*
X216408000Y-90424000D03*
X213868000Y-92964000D03*
X216408000Y-92964000D03*
X213868000Y-95504000D03*
X216408000Y-95504000D03*
X213868000Y-98044000D03*
X216408000Y-98044000D03*
X213868000Y-100584000D03*
X216408000Y-100584000D03*
X213868000Y-103124000D03*
X216408000Y-103124000D03*
X213868000Y-105664000D03*
X216408000Y-105664000D03*
X213868000Y-108204000D03*
X216408000Y-108204000D03*
X213868000Y-110744000D03*
X216408000Y-110744000D03*
X213868000Y-113284000D03*
X216408000Y-113284000D03*
X213868000Y-115824000D03*
X216408000Y-115824000D03*
X213868000Y-118364000D03*
X216408000Y-118364000D03*
X213868000Y-120904000D03*
X216408000Y-120904000D03*
D17*
X146304000Y-80264000D03*
X160528000Y-128524000D03*
X163068000Y-128524000D03*
X213868000Y-123444000D03*
X216408000Y-123444000D03*
D16*
X150368000Y-128524000D03*
X152908000Y-128524000D03*
X138684000Y-80264000D03*
X141224000Y-80264000D03*
X165608000Y-128524000D03*
%TD*%
D10*
%TO.C,J9*%
X160528000Y-118374000D03*
D11*
X157988000Y-118374000D03*
X155448000Y-118374000D03*
X152908000Y-118374000D03*
%TD*%
D14*
%TO.C,U6*%
X124898000Y-120824000D03*
X124898000Y-122124000D03*
X124898000Y-123424000D03*
X126198000Y-120824000D03*
X126198000Y-122124000D03*
X126198000Y-123424000D03*
%TD*%
D18*
%TO.C,JP10*%
X182132000Y-125570500D03*
X182132000Y-124270500D03*
X182132000Y-122970500D03*
%TD*%
D19*
%TO.C,TP10*%
X178798500Y-93070500D03*
%TD*%
%TO.C,TP8*%
X190118500Y-111693500D03*
%TD*%
%TO.C,TP5*%
X200234000Y-103270000D03*
%TD*%
%TO.C,TP20*%
X121452000Y-97804000D03*
%TD*%
D18*
%TO.C,JP7*%
X178678000Y-115324000D03*
X178678000Y-114024000D03*
X178678000Y-112724000D03*
%TD*%
D19*
%TO.C,TP21*%
X121198000Y-107964000D03*
%TD*%
%TO.C,TP11*%
X200728000Y-120274000D03*
%TD*%
%TO.C,TP4*%
X201034000Y-94470000D03*
%TD*%
D18*
%TO.C,JP8*%
X169798500Y-125570500D03*
X169798500Y-124270500D03*
X169798500Y-122970500D03*
%TD*%
D19*
%TO.C,TP1*%
X203234000Y-103470000D03*
%TD*%
%TO.C,TP23*%
X163068000Y-125984000D03*
%TD*%
%TO.C,TP6*%
X201034000Y-96670000D03*
%TD*%
D18*
%TO.C,JP11*%
X188228000Y-125570500D03*
X188228000Y-124270500D03*
X188228000Y-122970500D03*
%TD*%
%TO.C,JP6*%
X181478000Y-115324000D03*
X181478000Y-114024000D03*
X181478000Y-112724000D03*
%TD*%
D19*
%TO.C,TP15*%
X122722000Y-123204000D03*
%TD*%
%TO.C,TP9*%
X190118500Y-113725500D03*
%TD*%
%TO.C,TP3*%
X206478000Y-109524000D03*
%TD*%
%TO.C,TP17*%
X121960000Y-115838000D03*
%TD*%
%TO.C,TP14*%
X184228000Y-89774000D03*
%TD*%
%TO.C,TP7*%
X139319000Y-95556000D03*
%TD*%
D18*
%TO.C,JP3*%
X179958500Y-103158500D03*
X179958500Y-104458500D03*
X179958500Y-105758500D03*
%TD*%
%TO.C,JP1*%
X191808500Y-103158500D03*
X191808500Y-104458500D03*
X191808500Y-105758500D03*
%TD*%
D19*
%TO.C,TP19*%
X121198000Y-101614000D03*
%TD*%
D18*
%TO.C,JP5*%
X184278000Y-115324000D03*
X184278000Y-114024000D03*
X184278000Y-112724000D03*
%TD*%
D19*
%TO.C,TP18*%
X121960000Y-112790000D03*
%TD*%
%TO.C,TP2*%
X206834000Y-102470000D03*
%TD*%
%TO.C,TP16*%
X122618000Y-120824000D03*
%TD*%
%TO.C,TP22*%
X121452000Y-104662000D03*
%TD*%
D20*
%TO.C,U10*%
X190923000Y-90999000D03*
D21*
X193203000Y-97299000D03*
D20*
X195483000Y-90999000D03*
%TD*%
D18*
%TO.C,JP2*%
X186054500Y-103158500D03*
X186054500Y-104458500D03*
X186054500Y-105758500D03*
%TD*%
%TO.C,JP4*%
X173608500Y-103158500D03*
X173608500Y-104458500D03*
X173608500Y-105758500D03*
%TD*%
D19*
%TO.C,TP13*%
X180598500Y-89070500D03*
%TD*%
D18*
%TO.C,JP9*%
X175798500Y-125570500D03*
X175798500Y-124270500D03*
X175798500Y-122970500D03*
%TD*%
M02*
