M48
; DRILL file {KiCad 7.0.2} date Tue Jul 18 21:54:39 2023
; FORMAT={-:-/ absolute / inch / decimal}
; #@! TF.CreationDate,2023-07-18T21:54:39+02:00
; #@! TF.GenerationSoftware,Kicad,Pcbnew,7.0.2
; #@! TF.FileFunction,Plated,1,2,PTH
FMAT,2
INCH
; #@! TA.AperFunction,Plated,PTH,ComponentDrill
T1C0.0118
; #@! TA.AperFunction,Plated,PTH,ComponentDrill
T2C0.0130
; #@! TA.AperFunction,Plated,PTH,ViaDrill
T3C0.0157
; #@! TA.AperFunction,Plated,PTH,ComponentDrill
T4C0.0394
; #@! TA.AperFunction,Plated,PTH,ComponentDrill
T5C0.0400
; #@! TA.AperFunction,Plated,PTH,ComponentDrill
T6C0.0551
%
G90
G05
T1
X7.944Y-3.5383
X7.944Y-3.5895
X7.9952Y-3.5383
X7.9952Y-3.5895
X8.0464Y-3.5383
X8.0464Y-3.5895
X8.0976Y-3.5383
X8.0976Y-3.5895
T2
X4.9116Y-4.4491
X4.9116Y-4.5003
X4.9116Y-4.5514
X4.9136Y-4.1268
X4.9136Y-4.178
X4.9136Y-4.2292
X4.9172Y-4.7569
X4.9172Y-4.808
X4.9172Y-4.8592
X4.9185Y-3.8781
X4.9185Y-3.9293
X4.9185Y-3.9805
X4.9628Y-4.4491
X4.9628Y-4.5003
X4.9628Y-4.5514
X4.9648Y-4.1268
X4.9648Y-4.178
X4.9648Y-4.2292
X4.9684Y-4.7569
X4.9684Y-4.808
X4.9684Y-4.8592
X4.9696Y-3.8781
X4.9696Y-3.9293
X4.9696Y-3.9805
T3
X4.7616Y-3.9506
X4.7616Y-4.1606
X4.7616Y-4.2006
X4.7616Y-4.4806
X4.7616Y-4.5206
X4.7622Y-3.9052
X4.7716Y-4.7806
X4.7716Y-4.8306
X4.79Y-3.6604
X5.0787Y-3.7834
X5.0816Y-4.0506
X5.0816Y-4.2906
X5.1216Y-4.6406
X5.1216Y-4.9506
X5.521Y-3.9684
X5.523Y-4.0204
X5.524Y-3.9254
X5.5464Y-4.5836
X5.5602Y-4.3907
X5.5602Y-4.7549
X5.6389Y-4.184
X5.663Y-3.9184
X5.665Y-3.9664
X5.665Y-4.0224
X5.6783Y-4.9124
X5.6881Y-4.5197
X5.6881Y-4.7155
X5.715Y-4.391
X5.7472Y-4.1742
X5.7865Y-4.7943
X5.81Y-4.391
X5.8298Y-4.1663
X5.9145Y-4.9124
X5.9342Y-4.6761
X5.9873Y-4.1663
X6.0228Y-4.3917
X6.0228Y-4.7943
X6.0424Y-4.1643
X6.055Y-3.5254
X6.072Y-4.9124
X6.1491Y-3.7509
X6.1606Y-4.4035
X6.1704Y-4.2234
X6.1763Y-4.5197
X6.1901Y-4.7943
X6.2098Y-4.1643
X6.259Y-4.4035
X6.2688Y-4.2234
X6.2944Y-3.7411
X6.2944Y-4.951
X6.3377Y-4.1446
X6.3476Y-4.4035
X6.3476Y-4.7943
X6.3731Y-4.0856
X6.4361Y-4.4035
X6.446Y-4.7057
X6.4657Y-4.8307
X6.5936Y-4.499
X6.6625Y-4.5777
X6.6645Y-3.6781
X6.6822Y-4.4301
X6.7051Y-4.2323
X6.7343Y-4.8767
X6.7413Y-3.997
X6.751Y-4.0974
X6.7747Y-4.3238
X6.7878Y-4.1742
X6.815Y-4.9074
X6.8298Y-4.558
X6.8397Y-4.4202
X6.8456Y-4.3238
X6.8594Y-4.9025
X6.9016Y-4.7666
X6.9243Y-4.9803
X6.9434Y-4.3359
X6.948Y-3.6131
X6.948Y-3.6919
X6.9543Y-4.0554
X6.985Y-4.8974
X7.0267Y-3.7096
X7.0343Y-4.0967
X7.0365Y-4.0462
X7.0365Y-4.1978
X7.0543Y-4.9143
X7.0739Y-3.7096
X7.0976Y-4.497
X7.1054Y-4.9025
X7.1212Y-3.7096
X7.1645Y-4.7606
X7.1763Y-3.7096
X7.1763Y-4.9773
X7.2043Y-4.056
X7.2043Y-4.5467
X7.2078Y-4.4813
X7.218Y-4.1104
X7.225Y-4.8874
X7.2531Y-3.5344
X7.2629Y-3.7096
X7.2629Y-4.0856
X7.2826Y-4.2037
X7.2943Y-4.935
X7.3023Y-4.371
X7.3102Y-4.4025
X7.318Y-3.7096
X7.3515Y-4.8927
X7.3635Y-4.6175
X7.381Y-3.7096
X7.381Y-4.0757
X7.384Y-4.5187
X7.384Y-4.5482
X7.3909Y-4.371
X7.3909Y-4.4301
X7.405Y-3.9616
X7.4106Y-4.7647
X7.4159Y-4.5178
X7.4392Y-4.8928
X7.444Y-4.3631
X7.4443Y-4.046
X7.4499Y-4.9685
X7.4519Y-3.2372
X7.4598Y-4.4399
X7.4598Y-3.5137
X7.4685Y-4.0998
X7.4726Y-4.9081
X7.4913Y-3.2135
X7.4991Y-4.4399
X7.5287Y-4.3612
X7.5306Y-3.2372
X7.5306Y-3.3946
X7.5621Y-3.5915
X7.5779Y-3.2135
X7.5779Y-3.3946
X7.6015Y-3.5915
X7.6015Y-3.6387
X7.6074Y-4.2037
X7.6172Y-3.2372
X7.6186Y-3.5651
X7.6222Y-4.1643
X7.633Y-4.3946
X7.633Y-4.434
X7.633Y-4.4813
X7.6468Y-4.2529
X7.6645Y-3.2135
X7.6763Y-3.2883
X7.6881Y-3.2372
X7.7157Y-4.184
X7.7354Y-3.371
X7.7354Y-3.5364
X7.7354Y-3.6387
X7.7433Y-3.5857
X7.755Y-4.2135
X7.7747Y-3.3474
X7.7747Y-4.371
X7.7747Y-4.4104
X7.7747Y-4.4576
X7.7846Y-4.2628
X7.7905Y-3.2293
X7.822Y-3.434
X7.822Y-3.4891
X7.822Y-3.5443
X7.8239Y-3.3769
X7.8298Y-3.2293
X7.8692Y-3.2135
X7.8771Y-3.56
X7.8771Y-3.5994
X7.8771Y-3.6466
X7.8928Y-3.7017
X7.9027Y-3.2342
X7.9027Y-3.4754
X7.9027Y-4.7352
X7.9165Y-3.7805
X7.9165Y-3.8356
X7.9165Y-3.8828
X7.9165Y-3.9458
X7.9165Y-4.0088
X7.9165Y-4.0639
X7.9165Y-4.1191
X7.9165Y-4.1663
X7.9322Y-3.3376
X7.9695Y-3.2106
X7.9913Y-3.3868
X8.0405Y-3.2342
X8.0424Y-3.2765
X8.0592Y-3.7214
X8.0818Y-3.3159
X8.0897Y-3.2765
X8.1202Y-3.7214
X8.1291Y-3.9458
X8.1291Y-4.0009
X8.1291Y-4.0954
X8.1291Y-4.1663
X8.1291Y-4.312
X8.1369Y-3.3159
X8.1527Y-3.5049
X8.2078Y-3.5285
X8.2235Y-3.5836
X8.2235Y-3.6466
X8.2235Y-3.7096
X8.2472Y-3.4261
X8.2944Y-3.4734
X8.3259Y-3.8671
X8.3259Y-3.9458
X8.3259Y-4.0167
X8.3259Y-4.0876
X8.3259Y-4.1663
X8.3338Y-3.5915
X8.3338Y-3.7175
X8.3338Y-3.7883
T4
X5.32Y-3.8604
X5.32Y-3.9604
X5.32Y-4.1604
X5.32Y-4.2604
X5.32Y-4.4604
X5.32Y-4.5604
X5.32Y-4.7604
X5.32Y-4.8604
X5.52Y-4.2604
X5.52Y-4.4604
X5.52Y-4.6604
X5.52Y-4.8604
X5.62Y-4.2604
X5.62Y-4.4604
X5.62Y-4.6604
X5.62Y-4.8604
X5.72Y-4.2604
X5.72Y-4.4604
X5.72Y-4.6604
X5.72Y-4.8604
X5.82Y-4.2604
X5.82Y-4.4604
X5.82Y-4.6604
X5.82Y-4.8604
X6.02Y-4.2604
X6.02Y-4.4604
X6.02Y-4.6604
X6.02Y-4.8604
X6.12Y-4.2604
X6.12Y-4.4604
X6.12Y-4.6604
X6.12Y-4.8604
X6.22Y-4.2604
X6.22Y-4.4604
X6.22Y-4.6604
X6.22Y-4.8604
X6.32Y-4.2604
X6.32Y-4.4604
X6.32Y-4.6604
X6.32Y-4.8604
X6.82Y-3.582
X6.82Y-3.682
X6.82Y-3.782
X6.82Y-3.882
T5
X5.46Y-3.16
X5.56Y-3.16
X5.66Y-3.16
X5.76Y-3.16
X5.82Y-5.06
X5.86Y-3.16
X5.92Y-5.06
X5.96Y-3.16
X6.02Y-5.06
X6.06Y-3.16
X6.12Y-5.06
X6.16Y-3.16
X6.22Y-5.06
X6.26Y-3.16
X6.32Y-5.06
X6.36Y-3.16
X6.42Y-5.06
X6.52Y-3.16
X6.52Y-5.06
X6.62Y-3.16
X6.72Y-3.16
X6.72Y-5.06
X6.82Y-3.16
X6.82Y-5.06
X6.92Y-3.16
X6.92Y-5.06
X7.02Y-3.16
X7.02Y-5.06
X7.12Y-3.16
X7.12Y-5.06
X7.22Y-3.16
X7.22Y-5.06
X7.32Y-5.06
X7.42Y-3.16
X7.42Y-5.06
X7.52Y-3.16
X7.62Y-3.16
X7.62Y-5.06
X7.72Y-3.16
X7.72Y-5.06
X7.82Y-3.16
X7.82Y-5.06
X7.92Y-3.16
X7.92Y-5.06
X8.02Y-3.16
X8.02Y-5.06
X8.12Y-3.16
X8.12Y-5.06
X8.22Y-5.06
X8.32Y-5.06
X8.42Y-3.16
X8.42Y-3.26
X8.42Y-3.36
X8.42Y-3.46
X8.42Y-3.56
X8.42Y-3.66
X8.42Y-3.76
X8.42Y-3.86
X8.42Y-3.96
X8.42Y-4.06
X8.42Y-4.16
X8.42Y-4.26
X8.42Y-4.36
X8.42Y-4.46
X8.42Y-4.56
X8.42Y-4.66
X8.42Y-4.76
X8.42Y-4.86
X8.52Y-3.16
X8.52Y-3.26
X8.52Y-3.36
X8.52Y-3.46
X8.52Y-3.56
X8.52Y-3.66
X8.52Y-3.76
X8.52Y-3.86
X8.52Y-3.96
X8.52Y-4.06
X8.52Y-4.16
X8.52Y-4.26
X8.52Y-4.36
X8.52Y-4.46
X8.52Y-4.56
X8.52Y-4.66
X8.52Y-4.76
X8.52Y-4.86
T6
X5.2078Y-3.4183
X5.2078Y-3.6151
T0
M30
