%TF.GenerationSoftware,KiCad,Pcbnew,7.0.2*%
%TF.CreationDate,2023-09-29T21:12:53+02:00*%
%TF.ProjectId,RocciBoard,526f6363-6942-46f6-9172-642e6b696361,rev?*%
%TF.SameCoordinates,Original*%
%TF.FileFunction,Legend,Bot*%
%TF.FilePolarity,Positive*%
%FSLAX46Y46*%
G04 Gerber Fmt 4.6, Leading zero omitted, Abs format (unit mm)*
G04 Created by KiCad (PCBNEW 7.0.2) date 2023-09-29 21:12:53*
%MOMM*%
%LPD*%
G01*
G04 APERTURE LIST*
G04 Aperture macros list*
%AMRoundRect*
0 Rectangle with rounded corners*
0 $1 Rounding radius*
0 $2 $3 $4 $5 $6 $7 $8 $9 X,Y pos of 4 corners*
0 Add a 4 corners polygon primitive as box body*
4,1,4,$2,$3,$4,$5,$6,$7,$8,$9,$2,$3,0*
0 Add four circle primitives for the rounded corners*
1,1,$1+$1,$2,$3*
1,1,$1+$1,$4,$5*
1,1,$1+$1,$6,$7*
1,1,$1+$1,$8,$9*
0 Add four rect primitives between the rounded corners*
20,1,$1+$1,$2,$3,$4,$5,0*
20,1,$1+$1,$4,$5,$6,$7,0*
20,1,$1+$1,$6,$7,$8,$9,0*
20,1,$1+$1,$8,$9,$2,$3,0*%
G04 Aperture macros list end*
%ADD10C,0.150000*%
%ADD11C,0.075000*%
%ADD12C,0.120000*%
%ADD13R,1.700000X1.700000*%
%ADD14O,1.700000X1.700000*%
%ADD15RoundRect,0.250000X-1.550000X0.750000X-1.550000X-0.750000X1.550000X-0.750000X1.550000X0.750000X0*%
%ADD16O,3.600000X2.000000*%
%ADD17C,0.770000*%
%ADD18C,3.200000*%
%ADD19O,1.727200X1.727200*%
%ADD20R,1.727200X1.727200*%
%ADD21R,1.500000X1.000000*%
%ADD22C,1.000000*%
%ADD23RoundRect,0.250000X-0.350000X0.850000X-0.350000X-0.850000X0.350000X-0.850000X0.350000X0.850000X0*%
%ADD24RoundRect,0.249997X-2.650003X2.950003X-2.650003X-2.950003X2.650003X-2.950003X2.650003X2.950003X0*%
G04 APERTURE END LIST*
D10*
X165834000Y-126270000D02*
X167034000Y-126270000D01*
X167034000Y-126270000D02*
X169434000Y-127870000D01*
X164834000Y-126270000D02*
X165234000Y-127070000D01*
X163834000Y-126270000D02*
X164834000Y-126270000D01*
X195595904Y-112147619D02*
X195595904Y-111147619D01*
X195595904Y-111147619D02*
X195262571Y-111861904D01*
X195262571Y-111861904D02*
X194929238Y-111147619D01*
X194929238Y-111147619D02*
X194929238Y-112147619D01*
X194691143Y-112242857D02*
X193929238Y-112242857D01*
X193738761Y-112100000D02*
X193595904Y-112147619D01*
X193595904Y-112147619D02*
X193357809Y-112147619D01*
X193357809Y-112147619D02*
X193262571Y-112100000D01*
X193262571Y-112100000D02*
X193214952Y-112052380D01*
X193214952Y-112052380D02*
X193167333Y-111957142D01*
X193167333Y-111957142D02*
X193167333Y-111861904D01*
X193167333Y-111861904D02*
X193214952Y-111766666D01*
X193214952Y-111766666D02*
X193262571Y-111719047D01*
X193262571Y-111719047D02*
X193357809Y-111671428D01*
X193357809Y-111671428D02*
X193548285Y-111623809D01*
X193548285Y-111623809D02*
X193643523Y-111576190D01*
X193643523Y-111576190D02*
X193691142Y-111528571D01*
X193691142Y-111528571D02*
X193738761Y-111433333D01*
X193738761Y-111433333D02*
X193738761Y-111338095D01*
X193738761Y-111338095D02*
X193691142Y-111242857D01*
X193691142Y-111242857D02*
X193643523Y-111195238D01*
X193643523Y-111195238D02*
X193548285Y-111147619D01*
X193548285Y-111147619D02*
X193310190Y-111147619D01*
X193310190Y-111147619D02*
X193167333Y-111195238D01*
X192167333Y-112052380D02*
X192214952Y-112100000D01*
X192214952Y-112100000D02*
X192357809Y-112147619D01*
X192357809Y-112147619D02*
X192453047Y-112147619D01*
X192453047Y-112147619D02*
X192595904Y-112100000D01*
X192595904Y-112100000D02*
X192691142Y-112004761D01*
X192691142Y-112004761D02*
X192738761Y-111909523D01*
X192738761Y-111909523D02*
X192786380Y-111719047D01*
X192786380Y-111719047D02*
X192786380Y-111576190D01*
X192786380Y-111576190D02*
X192738761Y-111385714D01*
X192738761Y-111385714D02*
X192691142Y-111290476D01*
X192691142Y-111290476D02*
X192595904Y-111195238D01*
X192595904Y-111195238D02*
X192453047Y-111147619D01*
X192453047Y-111147619D02*
X192357809Y-111147619D01*
X192357809Y-111147619D02*
X192214952Y-111195238D01*
X192214952Y-111195238D02*
X192167333Y-111242857D01*
X191262571Y-112147619D02*
X191738761Y-112147619D01*
X191738761Y-112147619D02*
X191738761Y-111147619D01*
X155655761Y-106551619D02*
X155655761Y-105551619D01*
X155227190Y-105646857D02*
X155179571Y-105599238D01*
X155179571Y-105599238D02*
X155084333Y-105551619D01*
X155084333Y-105551619D02*
X154846238Y-105551619D01*
X154846238Y-105551619D02*
X154751000Y-105599238D01*
X154751000Y-105599238D02*
X154703381Y-105646857D01*
X154703381Y-105646857D02*
X154655762Y-105742095D01*
X154655762Y-105742095D02*
X154655762Y-105837333D01*
X154655762Y-105837333D02*
X154703381Y-105980190D01*
X154703381Y-105980190D02*
X155274809Y-106551619D01*
X155274809Y-106551619D02*
X154655762Y-106551619D01*
X153655762Y-106456380D02*
X153703381Y-106504000D01*
X153703381Y-106504000D02*
X153846238Y-106551619D01*
X153846238Y-106551619D02*
X153941476Y-106551619D01*
X153941476Y-106551619D02*
X154084333Y-106504000D01*
X154084333Y-106504000D02*
X154179571Y-106408761D01*
X154179571Y-106408761D02*
X154227190Y-106313523D01*
X154227190Y-106313523D02*
X154274809Y-106123047D01*
X154274809Y-106123047D02*
X154274809Y-105980190D01*
X154274809Y-105980190D02*
X154227190Y-105789714D01*
X154227190Y-105789714D02*
X154179571Y-105694476D01*
X154179571Y-105694476D02*
X154084333Y-105599238D01*
X154084333Y-105599238D02*
X153941476Y-105551619D01*
X153941476Y-105551619D02*
X153846238Y-105551619D01*
X153846238Y-105551619D02*
X153703381Y-105599238D01*
X153703381Y-105599238D02*
X153655762Y-105646857D01*
X153465286Y-106646857D02*
X152703381Y-106646857D01*
X152560523Y-105551619D02*
X151893857Y-105551619D01*
X151893857Y-105551619D02*
X152322428Y-106551619D01*
X133010304Y-100014419D02*
X133010304Y-99014419D01*
X133010304Y-99014419D02*
X132676971Y-99728704D01*
X132676971Y-99728704D02*
X132343638Y-99014419D01*
X132343638Y-99014419D02*
X132343638Y-100014419D01*
X131962685Y-99014419D02*
X131343638Y-99014419D01*
X131343638Y-99014419D02*
X131676971Y-99395371D01*
X131676971Y-99395371D02*
X131534114Y-99395371D01*
X131534114Y-99395371D02*
X131438876Y-99442990D01*
X131438876Y-99442990D02*
X131391257Y-99490609D01*
X131391257Y-99490609D02*
X131343638Y-99585847D01*
X131343638Y-99585847D02*
X131343638Y-99823942D01*
X131343638Y-99823942D02*
X131391257Y-99919180D01*
X131391257Y-99919180D02*
X131438876Y-99966800D01*
X131438876Y-99966800D02*
X131534114Y-100014419D01*
X131534114Y-100014419D02*
X131819828Y-100014419D01*
X131819828Y-100014419D02*
X131915066Y-99966800D01*
X131915066Y-99966800D02*
X131962685Y-99919180D01*
X154893761Y-121410619D02*
X154893761Y-120410619D01*
X154465190Y-120505857D02*
X154417571Y-120458238D01*
X154417571Y-120458238D02*
X154322333Y-120410619D01*
X154322333Y-120410619D02*
X154084238Y-120410619D01*
X154084238Y-120410619D02*
X153989000Y-120458238D01*
X153989000Y-120458238D02*
X153941381Y-120505857D01*
X153941381Y-120505857D02*
X153893762Y-120601095D01*
X153893762Y-120601095D02*
X153893762Y-120696333D01*
X153893762Y-120696333D02*
X153941381Y-120839190D01*
X153941381Y-120839190D02*
X154512809Y-121410619D01*
X154512809Y-121410619D02*
X153893762Y-121410619D01*
X152893762Y-121315380D02*
X152941381Y-121363000D01*
X152941381Y-121363000D02*
X153084238Y-121410619D01*
X153084238Y-121410619D02*
X153179476Y-121410619D01*
X153179476Y-121410619D02*
X153322333Y-121363000D01*
X153322333Y-121363000D02*
X153417571Y-121267761D01*
X153417571Y-121267761D02*
X153465190Y-121172523D01*
X153465190Y-121172523D02*
X153512809Y-120982047D01*
X153512809Y-120982047D02*
X153512809Y-120839190D01*
X153512809Y-120839190D02*
X153465190Y-120648714D01*
X153465190Y-120648714D02*
X153417571Y-120553476D01*
X153417571Y-120553476D02*
X153322333Y-120458238D01*
X153322333Y-120458238D02*
X153179476Y-120410619D01*
X153179476Y-120410619D02*
X153084238Y-120410619D01*
X153084238Y-120410619D02*
X152941381Y-120458238D01*
X152941381Y-120458238D02*
X152893762Y-120505857D01*
X152703286Y-121505857D02*
X151941381Y-121505857D01*
X151274714Y-120743952D02*
X151274714Y-121410619D01*
X151512809Y-120363000D02*
X151750904Y-121077285D01*
X151750904Y-121077285D02*
X151131857Y-121077285D01*
X148631809Y-82662095D02*
X148631809Y-82995428D01*
X149155619Y-83138285D02*
X149155619Y-82662095D01*
X149155619Y-82662095D02*
X148155619Y-82662095D01*
X148155619Y-82662095D02*
X148155619Y-83138285D01*
X149155619Y-83566857D02*
X148488952Y-83566857D01*
X148679428Y-83566857D02*
X148584190Y-83614476D01*
X148584190Y-83614476D02*
X148536571Y-83662095D01*
X148536571Y-83662095D02*
X148488952Y-83757333D01*
X148488952Y-83757333D02*
X148488952Y-83852571D01*
X149155619Y-84185905D02*
X148488952Y-84185905D01*
X148679428Y-84185905D02*
X148584190Y-84233524D01*
X148584190Y-84233524D02*
X148536571Y-84281143D01*
X148536571Y-84281143D02*
X148488952Y-84376381D01*
X148488952Y-84376381D02*
X148488952Y-84471619D01*
X149155619Y-84947810D02*
X149108000Y-84852572D01*
X149108000Y-84852572D02*
X149060380Y-84804953D01*
X149060380Y-84804953D02*
X148965142Y-84757334D01*
X148965142Y-84757334D02*
X148679428Y-84757334D01*
X148679428Y-84757334D02*
X148584190Y-84804953D01*
X148584190Y-84804953D02*
X148536571Y-84852572D01*
X148536571Y-84852572D02*
X148488952Y-84947810D01*
X148488952Y-84947810D02*
X148488952Y-85090667D01*
X148488952Y-85090667D02*
X148536571Y-85185905D01*
X148536571Y-85185905D02*
X148584190Y-85233524D01*
X148584190Y-85233524D02*
X148679428Y-85281143D01*
X148679428Y-85281143D02*
X148965142Y-85281143D01*
X148965142Y-85281143D02*
X149060380Y-85233524D01*
X149060380Y-85233524D02*
X149108000Y-85185905D01*
X149108000Y-85185905D02*
X149155619Y-85090667D01*
X149155619Y-85090667D02*
X149155619Y-84947810D01*
X149155619Y-85709715D02*
X148488952Y-85709715D01*
X148679428Y-85709715D02*
X148584190Y-85757334D01*
X148584190Y-85757334D02*
X148536571Y-85804953D01*
X148536571Y-85804953D02*
X148488952Y-85900191D01*
X148488952Y-85900191D02*
X148488952Y-85995429D01*
X171751714Y-92737619D02*
X172227904Y-92737619D01*
X172227904Y-92737619D02*
X172275523Y-93213809D01*
X172275523Y-93213809D02*
X172227904Y-93166190D01*
X172227904Y-93166190D02*
X172132666Y-93118571D01*
X172132666Y-93118571D02*
X171894571Y-93118571D01*
X171894571Y-93118571D02*
X171799333Y-93166190D01*
X171799333Y-93166190D02*
X171751714Y-93213809D01*
X171751714Y-93213809D02*
X171704095Y-93309047D01*
X171704095Y-93309047D02*
X171704095Y-93547142D01*
X171704095Y-93547142D02*
X171751714Y-93642380D01*
X171751714Y-93642380D02*
X171799333Y-93690000D01*
X171799333Y-93690000D02*
X171894571Y-93737619D01*
X171894571Y-93737619D02*
X172132666Y-93737619D01*
X172132666Y-93737619D02*
X172227904Y-93690000D01*
X172227904Y-93690000D02*
X172275523Y-93642380D01*
X171418380Y-92737619D02*
X171085047Y-93737619D01*
X171085047Y-93737619D02*
X170751714Y-92737619D01*
X184039904Y-121501619D02*
X184039904Y-120501619D01*
X183611333Y-120596857D02*
X183563714Y-120549238D01*
X183563714Y-120549238D02*
X183468476Y-120501619D01*
X183468476Y-120501619D02*
X183230381Y-120501619D01*
X183230381Y-120501619D02*
X183135143Y-120549238D01*
X183135143Y-120549238D02*
X183087524Y-120596857D01*
X183087524Y-120596857D02*
X183039905Y-120692095D01*
X183039905Y-120692095D02*
X183039905Y-120787333D01*
X183039905Y-120787333D02*
X183087524Y-120930190D01*
X183087524Y-120930190D02*
X183658952Y-121501619D01*
X183658952Y-121501619D02*
X183039905Y-121501619D01*
X182039905Y-121406380D02*
X182087524Y-121454000D01*
X182087524Y-121454000D02*
X182230381Y-121501619D01*
X182230381Y-121501619D02*
X182325619Y-121501619D01*
X182325619Y-121501619D02*
X182468476Y-121454000D01*
X182468476Y-121454000D02*
X182563714Y-121358761D01*
X182563714Y-121358761D02*
X182611333Y-121263523D01*
X182611333Y-121263523D02*
X182658952Y-121073047D01*
X182658952Y-121073047D02*
X182658952Y-120930190D01*
X182658952Y-120930190D02*
X182611333Y-120739714D01*
X182611333Y-120739714D02*
X182563714Y-120644476D01*
X182563714Y-120644476D02*
X182468476Y-120549238D01*
X182468476Y-120549238D02*
X182325619Y-120501619D01*
X182325619Y-120501619D02*
X182230381Y-120501619D01*
X182230381Y-120501619D02*
X182087524Y-120549238D01*
X182087524Y-120549238D02*
X182039905Y-120596857D01*
X181849429Y-121596857D02*
X181087524Y-121596857D01*
X180420857Y-120501619D02*
X180611333Y-120501619D01*
X180611333Y-120501619D02*
X180706571Y-120549238D01*
X180706571Y-120549238D02*
X180754190Y-120596857D01*
X180754190Y-120596857D02*
X180849428Y-120739714D01*
X180849428Y-120739714D02*
X180897047Y-120930190D01*
X180897047Y-120930190D02*
X180897047Y-121311142D01*
X180897047Y-121311142D02*
X180849428Y-121406380D01*
X180849428Y-121406380D02*
X180801809Y-121454000D01*
X180801809Y-121454000D02*
X180706571Y-121501619D01*
X180706571Y-121501619D02*
X180516095Y-121501619D01*
X180516095Y-121501619D02*
X180420857Y-121454000D01*
X180420857Y-121454000D02*
X180373238Y-121406380D01*
X180373238Y-121406380D02*
X180325619Y-121311142D01*
X180325619Y-121311142D02*
X180325619Y-121073047D01*
X180325619Y-121073047D02*
X180373238Y-120977809D01*
X180373238Y-120977809D02*
X180420857Y-120930190D01*
X180420857Y-120930190D02*
X180516095Y-120882571D01*
X180516095Y-120882571D02*
X180706571Y-120882571D01*
X180706571Y-120882571D02*
X180801809Y-120930190D01*
X180801809Y-120930190D02*
X180849428Y-120977809D01*
X180849428Y-120977809D02*
X180897047Y-121073047D01*
X195595904Y-113947619D02*
X195595904Y-112947619D01*
X195595904Y-112947619D02*
X195262571Y-113661904D01*
X195262571Y-113661904D02*
X194929238Y-112947619D01*
X194929238Y-112947619D02*
X194929238Y-113947619D01*
X194691143Y-114042857D02*
X193929238Y-114042857D01*
X193738761Y-113900000D02*
X193595904Y-113947619D01*
X193595904Y-113947619D02*
X193357809Y-113947619D01*
X193357809Y-113947619D02*
X193262571Y-113900000D01*
X193262571Y-113900000D02*
X193214952Y-113852380D01*
X193214952Y-113852380D02*
X193167333Y-113757142D01*
X193167333Y-113757142D02*
X193167333Y-113661904D01*
X193167333Y-113661904D02*
X193214952Y-113566666D01*
X193214952Y-113566666D02*
X193262571Y-113519047D01*
X193262571Y-113519047D02*
X193357809Y-113471428D01*
X193357809Y-113471428D02*
X193548285Y-113423809D01*
X193548285Y-113423809D02*
X193643523Y-113376190D01*
X193643523Y-113376190D02*
X193691142Y-113328571D01*
X193691142Y-113328571D02*
X193738761Y-113233333D01*
X193738761Y-113233333D02*
X193738761Y-113138095D01*
X193738761Y-113138095D02*
X193691142Y-113042857D01*
X193691142Y-113042857D02*
X193643523Y-112995238D01*
X193643523Y-112995238D02*
X193548285Y-112947619D01*
X193548285Y-112947619D02*
X193310190Y-112947619D01*
X193310190Y-112947619D02*
X193167333Y-112995238D01*
X192738761Y-113947619D02*
X192738761Y-112947619D01*
X192738761Y-112947619D02*
X192500666Y-112947619D01*
X192500666Y-112947619D02*
X192357809Y-112995238D01*
X192357809Y-112995238D02*
X192262571Y-113090476D01*
X192262571Y-113090476D02*
X192214952Y-113185714D01*
X192214952Y-113185714D02*
X192167333Y-113376190D01*
X192167333Y-113376190D02*
X192167333Y-113519047D01*
X192167333Y-113519047D02*
X192214952Y-113709523D01*
X192214952Y-113709523D02*
X192262571Y-113804761D01*
X192262571Y-113804761D02*
X192357809Y-113900000D01*
X192357809Y-113900000D02*
X192500666Y-113947619D01*
X192500666Y-113947619D02*
X192738761Y-113947619D01*
X191786380Y-113661904D02*
X191310190Y-113661904D01*
X191881618Y-113947619D02*
X191548285Y-112947619D01*
X191548285Y-112947619D02*
X191214952Y-113947619D01*
X137058495Y-86463638D02*
X137153733Y-86416019D01*
X137153733Y-86416019D02*
X137296590Y-86416019D01*
X137296590Y-86416019D02*
X137439447Y-86463638D01*
X137439447Y-86463638D02*
X137534685Y-86558876D01*
X137534685Y-86558876D02*
X137582304Y-86654114D01*
X137582304Y-86654114D02*
X137629923Y-86844590D01*
X137629923Y-86844590D02*
X137629923Y-86987447D01*
X137629923Y-86987447D02*
X137582304Y-87177923D01*
X137582304Y-87177923D02*
X137534685Y-87273161D01*
X137534685Y-87273161D02*
X137439447Y-87368400D01*
X137439447Y-87368400D02*
X137296590Y-87416019D01*
X137296590Y-87416019D02*
X137201352Y-87416019D01*
X137201352Y-87416019D02*
X137058495Y-87368400D01*
X137058495Y-87368400D02*
X137010876Y-87320780D01*
X137010876Y-87320780D02*
X137010876Y-86987447D01*
X137010876Y-86987447D02*
X137201352Y-86987447D01*
X136582304Y-87416019D02*
X136582304Y-86416019D01*
X136582304Y-86416019D02*
X136010876Y-87416019D01*
X136010876Y-87416019D02*
X136010876Y-86416019D01*
X135534685Y-87416019D02*
X135534685Y-86416019D01*
X135534685Y-86416019D02*
X135296590Y-86416019D01*
X135296590Y-86416019D02*
X135153733Y-86463638D01*
X135153733Y-86463638D02*
X135058495Y-86558876D01*
X135058495Y-86558876D02*
X135010876Y-86654114D01*
X135010876Y-86654114D02*
X134963257Y-86844590D01*
X134963257Y-86844590D02*
X134963257Y-86987447D01*
X134963257Y-86987447D02*
X135010876Y-87177923D01*
X135010876Y-87177923D02*
X135058495Y-87273161D01*
X135058495Y-87273161D02*
X135153733Y-87368400D01*
X135153733Y-87368400D02*
X135296590Y-87416019D01*
X135296590Y-87416019D02*
X135534685Y-87416019D01*
X190763714Y-122101619D02*
X191239904Y-122101619D01*
X191239904Y-122101619D02*
X191287523Y-122577809D01*
X191287523Y-122577809D02*
X191239904Y-122530190D01*
X191239904Y-122530190D02*
X191144666Y-122482571D01*
X191144666Y-122482571D02*
X190906571Y-122482571D01*
X190906571Y-122482571D02*
X190811333Y-122530190D01*
X190811333Y-122530190D02*
X190763714Y-122577809D01*
X190763714Y-122577809D02*
X190716095Y-122673047D01*
X190716095Y-122673047D02*
X190716095Y-122911142D01*
X190716095Y-122911142D02*
X190763714Y-123006380D01*
X190763714Y-123006380D02*
X190811333Y-123054000D01*
X190811333Y-123054000D02*
X190906571Y-123101619D01*
X190906571Y-123101619D02*
X191144666Y-123101619D01*
X191144666Y-123101619D02*
X191239904Y-123054000D01*
X191239904Y-123054000D02*
X191287523Y-123006380D01*
X190430380Y-122101619D02*
X190097047Y-123101619D01*
X190097047Y-123101619D02*
X189763714Y-122101619D01*
X202120571Y-101715809D02*
X202453904Y-101715809D01*
X202453904Y-102239619D02*
X202453904Y-101239619D01*
X202453904Y-101239619D02*
X201977714Y-101239619D01*
X201263428Y-101715809D02*
X201120571Y-101763428D01*
X201120571Y-101763428D02*
X201072952Y-101811047D01*
X201072952Y-101811047D02*
X201025333Y-101906285D01*
X201025333Y-101906285D02*
X201025333Y-102049142D01*
X201025333Y-102049142D02*
X201072952Y-102144380D01*
X201072952Y-102144380D02*
X201120571Y-102192000D01*
X201120571Y-102192000D02*
X201215809Y-102239619D01*
X201215809Y-102239619D02*
X201596761Y-102239619D01*
X201596761Y-102239619D02*
X201596761Y-101239619D01*
X201596761Y-101239619D02*
X201263428Y-101239619D01*
X201263428Y-101239619D02*
X201168190Y-101287238D01*
X201168190Y-101287238D02*
X201120571Y-101334857D01*
X201120571Y-101334857D02*
X201072952Y-101430095D01*
X201072952Y-101430095D02*
X201072952Y-101525333D01*
X201072952Y-101525333D02*
X201120571Y-101620571D01*
X201120571Y-101620571D02*
X201168190Y-101668190D01*
X201168190Y-101668190D02*
X201263428Y-101715809D01*
X201263428Y-101715809D02*
X201596761Y-101715809D01*
X157155619Y-82662095D02*
X156155619Y-82662095D01*
X156155619Y-82662095D02*
X156869904Y-82995428D01*
X156869904Y-82995428D02*
X156155619Y-83328761D01*
X156155619Y-83328761D02*
X157155619Y-83328761D01*
X156250857Y-83757333D02*
X156203238Y-83804952D01*
X156203238Y-83804952D02*
X156155619Y-83900190D01*
X156155619Y-83900190D02*
X156155619Y-84138285D01*
X156155619Y-84138285D02*
X156203238Y-84233523D01*
X156203238Y-84233523D02*
X156250857Y-84281142D01*
X156250857Y-84281142D02*
X156346095Y-84328761D01*
X156346095Y-84328761D02*
X156441333Y-84328761D01*
X156441333Y-84328761D02*
X156584190Y-84281142D01*
X156584190Y-84281142D02*
X157155619Y-83709714D01*
X157155619Y-83709714D02*
X157155619Y-84328761D01*
X157250857Y-84519238D02*
X157250857Y-85281142D01*
X157155619Y-85519238D02*
X156155619Y-85519238D01*
X157155619Y-85995428D02*
X156155619Y-85995428D01*
X156155619Y-85995428D02*
X157155619Y-86566856D01*
X157155619Y-86566856D02*
X156155619Y-86566856D01*
X157155619Y-87566856D02*
X157155619Y-86995428D01*
X157155619Y-87281142D02*
X156155619Y-87281142D01*
X156155619Y-87281142D02*
X156298476Y-87185904D01*
X156298476Y-87185904D02*
X156393714Y-87090666D01*
X156393714Y-87090666D02*
X156441333Y-86995428D01*
X171704095Y-97985238D02*
X171799333Y-97937619D01*
X171799333Y-97937619D02*
X171942190Y-97937619D01*
X171942190Y-97937619D02*
X172085047Y-97985238D01*
X172085047Y-97985238D02*
X172180285Y-98080476D01*
X172180285Y-98080476D02*
X172227904Y-98175714D01*
X172227904Y-98175714D02*
X172275523Y-98366190D01*
X172275523Y-98366190D02*
X172275523Y-98509047D01*
X172275523Y-98509047D02*
X172227904Y-98699523D01*
X172227904Y-98699523D02*
X172180285Y-98794761D01*
X172180285Y-98794761D02*
X172085047Y-98890000D01*
X172085047Y-98890000D02*
X171942190Y-98937619D01*
X171942190Y-98937619D02*
X171846952Y-98937619D01*
X171846952Y-98937619D02*
X171704095Y-98890000D01*
X171704095Y-98890000D02*
X171656476Y-98842380D01*
X171656476Y-98842380D02*
X171656476Y-98509047D01*
X171656476Y-98509047D02*
X171846952Y-98509047D01*
X171227904Y-98937619D02*
X171227904Y-97937619D01*
X171227904Y-97937619D02*
X170656476Y-98937619D01*
X170656476Y-98937619D02*
X170656476Y-97937619D01*
X170180285Y-98937619D02*
X170180285Y-97937619D01*
X170180285Y-97937619D02*
X169942190Y-97937619D01*
X169942190Y-97937619D02*
X169799333Y-97985238D01*
X169799333Y-97985238D02*
X169704095Y-98080476D01*
X169704095Y-98080476D02*
X169656476Y-98175714D01*
X169656476Y-98175714D02*
X169608857Y-98366190D01*
X169608857Y-98366190D02*
X169608857Y-98509047D01*
X169608857Y-98509047D02*
X169656476Y-98699523D01*
X169656476Y-98699523D02*
X169704095Y-98794761D01*
X169704095Y-98794761D02*
X169799333Y-98890000D01*
X169799333Y-98890000D02*
X169942190Y-98937619D01*
X169942190Y-98937619D02*
X170180285Y-98937619D01*
X172323142Y-95137619D02*
X171704095Y-95137619D01*
X171704095Y-95137619D02*
X172037428Y-95518571D01*
X172037428Y-95518571D02*
X171894571Y-95518571D01*
X171894571Y-95518571D02*
X171799333Y-95566190D01*
X171799333Y-95566190D02*
X171751714Y-95613809D01*
X171751714Y-95613809D02*
X171704095Y-95709047D01*
X171704095Y-95709047D02*
X171704095Y-95947142D01*
X171704095Y-95947142D02*
X171751714Y-96042380D01*
X171751714Y-96042380D02*
X171799333Y-96090000D01*
X171799333Y-96090000D02*
X171894571Y-96137619D01*
X171894571Y-96137619D02*
X172180285Y-96137619D01*
X172180285Y-96137619D02*
X172275523Y-96090000D01*
X172275523Y-96090000D02*
X172323142Y-96042380D01*
X171227904Y-96090000D02*
X171227904Y-96137619D01*
X171227904Y-96137619D02*
X171275523Y-96232857D01*
X171275523Y-96232857D02*
X171323142Y-96280476D01*
X170894571Y-95137619D02*
X170275524Y-95137619D01*
X170275524Y-95137619D02*
X170608857Y-95518571D01*
X170608857Y-95518571D02*
X170466000Y-95518571D01*
X170466000Y-95518571D02*
X170370762Y-95566190D01*
X170370762Y-95566190D02*
X170323143Y-95613809D01*
X170323143Y-95613809D02*
X170275524Y-95709047D01*
X170275524Y-95709047D02*
X170275524Y-95947142D01*
X170275524Y-95947142D02*
X170323143Y-96042380D01*
X170323143Y-96042380D02*
X170370762Y-96090000D01*
X170370762Y-96090000D02*
X170466000Y-96137619D01*
X170466000Y-96137619D02*
X170751714Y-96137619D01*
X170751714Y-96137619D02*
X170846952Y-96090000D01*
X170846952Y-96090000D02*
X170894571Y-96042380D01*
X169989809Y-95137619D02*
X169656476Y-96137619D01*
X169656476Y-96137619D02*
X169323143Y-95137619D01*
X155147761Y-116330619D02*
X155147761Y-115330619D01*
X154719190Y-115425857D02*
X154671571Y-115378238D01*
X154671571Y-115378238D02*
X154576333Y-115330619D01*
X154576333Y-115330619D02*
X154338238Y-115330619D01*
X154338238Y-115330619D02*
X154243000Y-115378238D01*
X154243000Y-115378238D02*
X154195381Y-115425857D01*
X154195381Y-115425857D02*
X154147762Y-115521095D01*
X154147762Y-115521095D02*
X154147762Y-115616333D01*
X154147762Y-115616333D02*
X154195381Y-115759190D01*
X154195381Y-115759190D02*
X154766809Y-116330619D01*
X154766809Y-116330619D02*
X154147762Y-116330619D01*
X153147762Y-116235380D02*
X153195381Y-116283000D01*
X153195381Y-116283000D02*
X153338238Y-116330619D01*
X153338238Y-116330619D02*
X153433476Y-116330619D01*
X153433476Y-116330619D02*
X153576333Y-116283000D01*
X153576333Y-116283000D02*
X153671571Y-116187761D01*
X153671571Y-116187761D02*
X153719190Y-116092523D01*
X153719190Y-116092523D02*
X153766809Y-115902047D01*
X153766809Y-115902047D02*
X153766809Y-115759190D01*
X153766809Y-115759190D02*
X153719190Y-115568714D01*
X153719190Y-115568714D02*
X153671571Y-115473476D01*
X153671571Y-115473476D02*
X153576333Y-115378238D01*
X153576333Y-115378238D02*
X153433476Y-115330619D01*
X153433476Y-115330619D02*
X153338238Y-115330619D01*
X153338238Y-115330619D02*
X153195381Y-115378238D01*
X153195381Y-115378238D02*
X153147762Y-115425857D01*
X152957286Y-116425857D02*
X152195381Y-116425857D01*
X151481095Y-115330619D02*
X151957285Y-115330619D01*
X151957285Y-115330619D02*
X152004904Y-115806809D01*
X152004904Y-115806809D02*
X151957285Y-115759190D01*
X151957285Y-115759190D02*
X151862047Y-115711571D01*
X151862047Y-115711571D02*
X151623952Y-115711571D01*
X151623952Y-115711571D02*
X151528714Y-115759190D01*
X151528714Y-115759190D02*
X151481095Y-115806809D01*
X151481095Y-115806809D02*
X151433476Y-115902047D01*
X151433476Y-115902047D02*
X151433476Y-116140142D01*
X151433476Y-116140142D02*
X151481095Y-116235380D01*
X151481095Y-116235380D02*
X151528714Y-116283000D01*
X151528714Y-116283000D02*
X151623952Y-116330619D01*
X151623952Y-116330619D02*
X151862047Y-116330619D01*
X151862047Y-116330619D02*
X151957285Y-116283000D01*
X151957285Y-116283000D02*
X152004904Y-116235380D01*
X190239904Y-121501619D02*
X190239904Y-120501619D01*
X189811333Y-120596857D02*
X189763714Y-120549238D01*
X189763714Y-120549238D02*
X189668476Y-120501619D01*
X189668476Y-120501619D02*
X189430381Y-120501619D01*
X189430381Y-120501619D02*
X189335143Y-120549238D01*
X189335143Y-120549238D02*
X189287524Y-120596857D01*
X189287524Y-120596857D02*
X189239905Y-120692095D01*
X189239905Y-120692095D02*
X189239905Y-120787333D01*
X189239905Y-120787333D02*
X189287524Y-120930190D01*
X189287524Y-120930190D02*
X189858952Y-121501619D01*
X189858952Y-121501619D02*
X189239905Y-121501619D01*
X188239905Y-121406380D02*
X188287524Y-121454000D01*
X188287524Y-121454000D02*
X188430381Y-121501619D01*
X188430381Y-121501619D02*
X188525619Y-121501619D01*
X188525619Y-121501619D02*
X188668476Y-121454000D01*
X188668476Y-121454000D02*
X188763714Y-121358761D01*
X188763714Y-121358761D02*
X188811333Y-121263523D01*
X188811333Y-121263523D02*
X188858952Y-121073047D01*
X188858952Y-121073047D02*
X188858952Y-120930190D01*
X188858952Y-120930190D02*
X188811333Y-120739714D01*
X188811333Y-120739714D02*
X188763714Y-120644476D01*
X188763714Y-120644476D02*
X188668476Y-120549238D01*
X188668476Y-120549238D02*
X188525619Y-120501619D01*
X188525619Y-120501619D02*
X188430381Y-120501619D01*
X188430381Y-120501619D02*
X188287524Y-120549238D01*
X188287524Y-120549238D02*
X188239905Y-120596857D01*
X188049429Y-121596857D02*
X187287524Y-121596857D01*
X187144666Y-120501619D02*
X186478000Y-120501619D01*
X186478000Y-120501619D02*
X186906571Y-121501619D01*
X186763714Y-112301619D02*
X187239904Y-112301619D01*
X187239904Y-112301619D02*
X187287523Y-112777809D01*
X187287523Y-112777809D02*
X187239904Y-112730190D01*
X187239904Y-112730190D02*
X187144666Y-112682571D01*
X187144666Y-112682571D02*
X186906571Y-112682571D01*
X186906571Y-112682571D02*
X186811333Y-112730190D01*
X186811333Y-112730190D02*
X186763714Y-112777809D01*
X186763714Y-112777809D02*
X186716095Y-112873047D01*
X186716095Y-112873047D02*
X186716095Y-113111142D01*
X186716095Y-113111142D02*
X186763714Y-113206380D01*
X186763714Y-113206380D02*
X186811333Y-113254000D01*
X186811333Y-113254000D02*
X186906571Y-113301619D01*
X186906571Y-113301619D02*
X187144666Y-113301619D01*
X187144666Y-113301619D02*
X187239904Y-113254000D01*
X187239904Y-113254000D02*
X187287523Y-113206380D01*
X186430380Y-112301619D02*
X186097047Y-113301619D01*
X186097047Y-113301619D02*
X185763714Y-112301619D01*
X183546761Y-92548119D02*
X182975333Y-92548119D01*
X183261047Y-93548119D02*
X183261047Y-92548119D01*
X182641999Y-93548119D02*
X182641999Y-92548119D01*
X182641999Y-92548119D02*
X182261047Y-92548119D01*
X182261047Y-92548119D02*
X182165809Y-92595738D01*
X182165809Y-92595738D02*
X182118190Y-92643357D01*
X182118190Y-92643357D02*
X182070571Y-92738595D01*
X182070571Y-92738595D02*
X182070571Y-92881452D01*
X182070571Y-92881452D02*
X182118190Y-92976690D01*
X182118190Y-92976690D02*
X182165809Y-93024309D01*
X182165809Y-93024309D02*
X182261047Y-93071928D01*
X182261047Y-93071928D02*
X182641999Y-93071928D01*
X181118190Y-93548119D02*
X181689618Y-93548119D01*
X181403904Y-93548119D02*
X181403904Y-92548119D01*
X181403904Y-92548119D02*
X181499142Y-92690976D01*
X181499142Y-92690976D02*
X181594380Y-92786214D01*
X181594380Y-92786214D02*
X181689618Y-92833833D01*
X180499142Y-92548119D02*
X180403904Y-92548119D01*
X180403904Y-92548119D02*
X180308666Y-92595738D01*
X180308666Y-92595738D02*
X180261047Y-92643357D01*
X180261047Y-92643357D02*
X180213428Y-92738595D01*
X180213428Y-92738595D02*
X180165809Y-92929071D01*
X180165809Y-92929071D02*
X180165809Y-93167166D01*
X180165809Y-93167166D02*
X180213428Y-93357642D01*
X180213428Y-93357642D02*
X180261047Y-93452880D01*
X180261047Y-93452880D02*
X180308666Y-93500500D01*
X180308666Y-93500500D02*
X180403904Y-93548119D01*
X180403904Y-93548119D02*
X180499142Y-93548119D01*
X180499142Y-93548119D02*
X180594380Y-93500500D01*
X180594380Y-93500500D02*
X180641999Y-93452880D01*
X180641999Y-93452880D02*
X180689618Y-93357642D01*
X180689618Y-93357642D02*
X180737237Y-93167166D01*
X180737237Y-93167166D02*
X180737237Y-92929071D01*
X180737237Y-92929071D02*
X180689618Y-92738595D01*
X180689618Y-92738595D02*
X180641999Y-92643357D01*
X180641999Y-92643357D02*
X180594380Y-92595738D01*
X180594380Y-92595738D02*
X180499142Y-92548119D01*
X132832504Y-114848019D02*
X132832504Y-113848019D01*
X132832504Y-113848019D02*
X132499171Y-114562304D01*
X132499171Y-114562304D02*
X132165838Y-113848019D01*
X132165838Y-113848019D02*
X132165838Y-114848019D01*
X131165838Y-114848019D02*
X131737266Y-114848019D01*
X131451552Y-114848019D02*
X131451552Y-113848019D01*
X131451552Y-113848019D02*
X131546790Y-113990876D01*
X131546790Y-113990876D02*
X131642028Y-114086114D01*
X131642028Y-114086114D02*
X131737266Y-114133733D01*
X137160095Y-95889619D02*
X137731523Y-95889619D01*
X137445809Y-95889619D02*
X137445809Y-94889619D01*
X137445809Y-94889619D02*
X137541047Y-95032476D01*
X137541047Y-95032476D02*
X137636285Y-95127714D01*
X137636285Y-95127714D02*
X137731523Y-95175333D01*
X136779142Y-94984857D02*
X136731523Y-94937238D01*
X136731523Y-94937238D02*
X136636285Y-94889619D01*
X136636285Y-94889619D02*
X136398190Y-94889619D01*
X136398190Y-94889619D02*
X136302952Y-94937238D01*
X136302952Y-94937238D02*
X136255333Y-94984857D01*
X136255333Y-94984857D02*
X136207714Y-95080095D01*
X136207714Y-95080095D02*
X136207714Y-95175333D01*
X136207714Y-95175333D02*
X136255333Y-95318190D01*
X136255333Y-95318190D02*
X136826761Y-95889619D01*
X136826761Y-95889619D02*
X136207714Y-95889619D01*
X135921999Y-94889619D02*
X135588666Y-95889619D01*
X135588666Y-95889619D02*
X135255333Y-94889619D01*
X165355619Y-82462095D02*
X164355619Y-82462095D01*
X164355619Y-82462095D02*
X165069904Y-82795428D01*
X165069904Y-82795428D02*
X164355619Y-83128761D01*
X164355619Y-83128761D02*
X165355619Y-83128761D01*
X165355619Y-84128761D02*
X165355619Y-83557333D01*
X165355619Y-83843047D02*
X164355619Y-83843047D01*
X164355619Y-83843047D02*
X164498476Y-83747809D01*
X164498476Y-83747809D02*
X164593714Y-83652571D01*
X164593714Y-83652571D02*
X164641333Y-83557333D01*
X165450857Y-84319238D02*
X165450857Y-85081142D01*
X165355619Y-85319238D02*
X164355619Y-85319238D01*
X165355619Y-85795428D02*
X164355619Y-85795428D01*
X164355619Y-85795428D02*
X165355619Y-86366856D01*
X165355619Y-86366856D02*
X164355619Y-86366856D01*
X164450857Y-86795428D02*
X164403238Y-86843047D01*
X164403238Y-86843047D02*
X164355619Y-86938285D01*
X164355619Y-86938285D02*
X164355619Y-87176380D01*
X164355619Y-87176380D02*
X164403238Y-87271618D01*
X164403238Y-87271618D02*
X164450857Y-87319237D01*
X164450857Y-87319237D02*
X164546095Y-87366856D01*
X164546095Y-87366856D02*
X164641333Y-87366856D01*
X164641333Y-87366856D02*
X164784190Y-87319237D01*
X164784190Y-87319237D02*
X165355619Y-86747809D01*
X165355619Y-86747809D02*
X165355619Y-87366856D01*
X152860476Y-97413619D02*
X153193809Y-96937428D01*
X153431904Y-97413619D02*
X153431904Y-96413619D01*
X153431904Y-96413619D02*
X153050952Y-96413619D01*
X153050952Y-96413619D02*
X152955714Y-96461238D01*
X152955714Y-96461238D02*
X152908095Y-96508857D01*
X152908095Y-96508857D02*
X152860476Y-96604095D01*
X152860476Y-96604095D02*
X152860476Y-96746952D01*
X152860476Y-96746952D02*
X152908095Y-96842190D01*
X152908095Y-96842190D02*
X152955714Y-96889809D01*
X152955714Y-96889809D02*
X153050952Y-96937428D01*
X153050952Y-96937428D02*
X153431904Y-96937428D01*
X152289047Y-97413619D02*
X152384285Y-97366000D01*
X152384285Y-97366000D02*
X152431904Y-97318380D01*
X152431904Y-97318380D02*
X152479523Y-97223142D01*
X152479523Y-97223142D02*
X152479523Y-96937428D01*
X152479523Y-96937428D02*
X152431904Y-96842190D01*
X152431904Y-96842190D02*
X152384285Y-96794571D01*
X152384285Y-96794571D02*
X152289047Y-96746952D01*
X152289047Y-96746952D02*
X152146190Y-96746952D01*
X152146190Y-96746952D02*
X152050952Y-96794571D01*
X152050952Y-96794571D02*
X152003333Y-96842190D01*
X152003333Y-96842190D02*
X151955714Y-96937428D01*
X151955714Y-96937428D02*
X151955714Y-97223142D01*
X151955714Y-97223142D02*
X152003333Y-97318380D01*
X152003333Y-97318380D02*
X152050952Y-97366000D01*
X152050952Y-97366000D02*
X152146190Y-97413619D01*
X152146190Y-97413619D02*
X152289047Y-97413619D01*
X151098571Y-97366000D02*
X151193809Y-97413619D01*
X151193809Y-97413619D02*
X151384285Y-97413619D01*
X151384285Y-97413619D02*
X151479523Y-97366000D01*
X151479523Y-97366000D02*
X151527142Y-97318380D01*
X151527142Y-97318380D02*
X151574761Y-97223142D01*
X151574761Y-97223142D02*
X151574761Y-96937428D01*
X151574761Y-96937428D02*
X151527142Y-96842190D01*
X151527142Y-96842190D02*
X151479523Y-96794571D01*
X151479523Y-96794571D02*
X151384285Y-96746952D01*
X151384285Y-96746952D02*
X151193809Y-96746952D01*
X151193809Y-96746952D02*
X151098571Y-96794571D01*
X150241428Y-97366000D02*
X150336666Y-97413619D01*
X150336666Y-97413619D02*
X150527142Y-97413619D01*
X150527142Y-97413619D02*
X150622380Y-97366000D01*
X150622380Y-97366000D02*
X150669999Y-97318380D01*
X150669999Y-97318380D02*
X150717618Y-97223142D01*
X150717618Y-97223142D02*
X150717618Y-96937428D01*
X150717618Y-96937428D02*
X150669999Y-96842190D01*
X150669999Y-96842190D02*
X150622380Y-96794571D01*
X150622380Y-96794571D02*
X150527142Y-96746952D01*
X150527142Y-96746952D02*
X150336666Y-96746952D01*
X150336666Y-96746952D02*
X150241428Y-96794571D01*
X149812856Y-97413619D02*
X149812856Y-96746952D01*
X149812856Y-96413619D02*
X149860475Y-96461238D01*
X149860475Y-96461238D02*
X149812856Y-96508857D01*
X149812856Y-96508857D02*
X149765237Y-96461238D01*
X149765237Y-96461238D02*
X149812856Y-96413619D01*
X149812856Y-96413619D02*
X149812856Y-96508857D01*
X149003333Y-96889809D02*
X148860476Y-96937428D01*
X148860476Y-96937428D02*
X148812857Y-96985047D01*
X148812857Y-96985047D02*
X148765238Y-97080285D01*
X148765238Y-97080285D02*
X148765238Y-97223142D01*
X148765238Y-97223142D02*
X148812857Y-97318380D01*
X148812857Y-97318380D02*
X148860476Y-97366000D01*
X148860476Y-97366000D02*
X148955714Y-97413619D01*
X148955714Y-97413619D02*
X149336666Y-97413619D01*
X149336666Y-97413619D02*
X149336666Y-96413619D01*
X149336666Y-96413619D02*
X149003333Y-96413619D01*
X149003333Y-96413619D02*
X148908095Y-96461238D01*
X148908095Y-96461238D02*
X148860476Y-96508857D01*
X148860476Y-96508857D02*
X148812857Y-96604095D01*
X148812857Y-96604095D02*
X148812857Y-96699333D01*
X148812857Y-96699333D02*
X148860476Y-96794571D01*
X148860476Y-96794571D02*
X148908095Y-96842190D01*
X148908095Y-96842190D02*
X149003333Y-96889809D01*
X149003333Y-96889809D02*
X149336666Y-96889809D01*
X148193809Y-97413619D02*
X148289047Y-97366000D01*
X148289047Y-97366000D02*
X148336666Y-97318380D01*
X148336666Y-97318380D02*
X148384285Y-97223142D01*
X148384285Y-97223142D02*
X148384285Y-96937428D01*
X148384285Y-96937428D02*
X148336666Y-96842190D01*
X148336666Y-96842190D02*
X148289047Y-96794571D01*
X148289047Y-96794571D02*
X148193809Y-96746952D01*
X148193809Y-96746952D02*
X148050952Y-96746952D01*
X148050952Y-96746952D02*
X147955714Y-96794571D01*
X147955714Y-96794571D02*
X147908095Y-96842190D01*
X147908095Y-96842190D02*
X147860476Y-96937428D01*
X147860476Y-96937428D02*
X147860476Y-97223142D01*
X147860476Y-97223142D02*
X147908095Y-97318380D01*
X147908095Y-97318380D02*
X147955714Y-97366000D01*
X147955714Y-97366000D02*
X148050952Y-97413619D01*
X148050952Y-97413619D02*
X148193809Y-97413619D01*
X147003333Y-97413619D02*
X147003333Y-96889809D01*
X147003333Y-96889809D02*
X147050952Y-96794571D01*
X147050952Y-96794571D02*
X147146190Y-96746952D01*
X147146190Y-96746952D02*
X147336666Y-96746952D01*
X147336666Y-96746952D02*
X147431904Y-96794571D01*
X147003333Y-97366000D02*
X147098571Y-97413619D01*
X147098571Y-97413619D02*
X147336666Y-97413619D01*
X147336666Y-97413619D02*
X147431904Y-97366000D01*
X147431904Y-97366000D02*
X147479523Y-97270761D01*
X147479523Y-97270761D02*
X147479523Y-97175523D01*
X147479523Y-97175523D02*
X147431904Y-97080285D01*
X147431904Y-97080285D02*
X147336666Y-97032666D01*
X147336666Y-97032666D02*
X147098571Y-97032666D01*
X147098571Y-97032666D02*
X147003333Y-96985047D01*
X146527142Y-97413619D02*
X146527142Y-96746952D01*
X146527142Y-96937428D02*
X146479523Y-96842190D01*
X146479523Y-96842190D02*
X146431904Y-96794571D01*
X146431904Y-96794571D02*
X146336666Y-96746952D01*
X146336666Y-96746952D02*
X146241428Y-96746952D01*
X145479523Y-97413619D02*
X145479523Y-96413619D01*
X145479523Y-97366000D02*
X145574761Y-97413619D01*
X145574761Y-97413619D02*
X145765237Y-97413619D01*
X145765237Y-97413619D02*
X145860475Y-97366000D01*
X145860475Y-97366000D02*
X145908094Y-97318380D01*
X145908094Y-97318380D02*
X145955713Y-97223142D01*
X145955713Y-97223142D02*
X145955713Y-96937428D01*
X145955713Y-96937428D02*
X145908094Y-96842190D01*
X145908094Y-96842190D02*
X145860475Y-96794571D01*
X145860475Y-96794571D02*
X145765237Y-96746952D01*
X145765237Y-96746952D02*
X145574761Y-96746952D01*
X145574761Y-96746952D02*
X145479523Y-96794571D01*
X144384284Y-96413619D02*
X144050951Y-97413619D01*
X144050951Y-97413619D02*
X143717618Y-96413619D01*
X142860475Y-97413619D02*
X143431903Y-97413619D01*
X143146189Y-97413619D02*
X143146189Y-96413619D01*
X143146189Y-96413619D02*
X143241427Y-96556476D01*
X143241427Y-96556476D02*
X143336665Y-96651714D01*
X143336665Y-96651714D02*
X143431903Y-96699333D01*
X142431903Y-97318380D02*
X142384284Y-97366000D01*
X142384284Y-97366000D02*
X142431903Y-97413619D01*
X142431903Y-97413619D02*
X142479522Y-97366000D01*
X142479522Y-97366000D02*
X142431903Y-97318380D01*
X142431903Y-97318380D02*
X142431903Y-97413619D01*
X141765237Y-96413619D02*
X141669999Y-96413619D01*
X141669999Y-96413619D02*
X141574761Y-96461238D01*
X141574761Y-96461238D02*
X141527142Y-96508857D01*
X141527142Y-96508857D02*
X141479523Y-96604095D01*
X141479523Y-96604095D02*
X141431904Y-96794571D01*
X141431904Y-96794571D02*
X141431904Y-97032666D01*
X141431904Y-97032666D02*
X141479523Y-97223142D01*
X141479523Y-97223142D02*
X141527142Y-97318380D01*
X141527142Y-97318380D02*
X141574761Y-97366000D01*
X141574761Y-97366000D02*
X141669999Y-97413619D01*
X141669999Y-97413619D02*
X141765237Y-97413619D01*
X141765237Y-97413619D02*
X141860475Y-97366000D01*
X141860475Y-97366000D02*
X141908094Y-97318380D01*
X141908094Y-97318380D02*
X141955713Y-97223142D01*
X141955713Y-97223142D02*
X142003332Y-97032666D01*
X142003332Y-97032666D02*
X142003332Y-96794571D01*
X142003332Y-96794571D02*
X141955713Y-96604095D01*
X141955713Y-96604095D02*
X141908094Y-96508857D01*
X141908094Y-96508857D02*
X141860475Y-96461238D01*
X141860475Y-96461238D02*
X141765237Y-96413619D01*
X188116095Y-114949238D02*
X188211333Y-114901619D01*
X188211333Y-114901619D02*
X188354190Y-114901619D01*
X188354190Y-114901619D02*
X188497047Y-114949238D01*
X188497047Y-114949238D02*
X188592285Y-115044476D01*
X188592285Y-115044476D02*
X188639904Y-115139714D01*
X188639904Y-115139714D02*
X188687523Y-115330190D01*
X188687523Y-115330190D02*
X188687523Y-115473047D01*
X188687523Y-115473047D02*
X188639904Y-115663523D01*
X188639904Y-115663523D02*
X188592285Y-115758761D01*
X188592285Y-115758761D02*
X188497047Y-115854000D01*
X188497047Y-115854000D02*
X188354190Y-115901619D01*
X188354190Y-115901619D02*
X188258952Y-115901619D01*
X188258952Y-115901619D02*
X188116095Y-115854000D01*
X188116095Y-115854000D02*
X188068476Y-115806380D01*
X188068476Y-115806380D02*
X188068476Y-115473047D01*
X188068476Y-115473047D02*
X188258952Y-115473047D01*
X187639904Y-115901619D02*
X187639904Y-114901619D01*
X187639904Y-114901619D02*
X187068476Y-115901619D01*
X187068476Y-115901619D02*
X187068476Y-114901619D01*
X186592285Y-115901619D02*
X186592285Y-114901619D01*
X186592285Y-114901619D02*
X186354190Y-114901619D01*
X186354190Y-114901619D02*
X186211333Y-114949238D01*
X186211333Y-114949238D02*
X186116095Y-115044476D01*
X186116095Y-115044476D02*
X186068476Y-115139714D01*
X186068476Y-115139714D02*
X186020857Y-115330190D01*
X186020857Y-115330190D02*
X186020857Y-115473047D01*
X186020857Y-115473047D02*
X186068476Y-115663523D01*
X186068476Y-115663523D02*
X186116095Y-115758761D01*
X186116095Y-115758761D02*
X186211333Y-115854000D01*
X186211333Y-115854000D02*
X186354190Y-115901619D01*
X186354190Y-115901619D02*
X186592285Y-115901619D01*
X166755619Y-86785904D02*
X166755619Y-86214476D01*
X166755619Y-86500190D02*
X165755619Y-86500190D01*
X165755619Y-86500190D02*
X165898476Y-86404952D01*
X165898476Y-86404952D02*
X165993714Y-86309714D01*
X165993714Y-86309714D02*
X166041333Y-86214476D01*
X165850857Y-87166857D02*
X165803238Y-87214476D01*
X165803238Y-87214476D02*
X165755619Y-87309714D01*
X165755619Y-87309714D02*
X165755619Y-87547809D01*
X165755619Y-87547809D02*
X165803238Y-87643047D01*
X165803238Y-87643047D02*
X165850857Y-87690666D01*
X165850857Y-87690666D02*
X165946095Y-87738285D01*
X165946095Y-87738285D02*
X166041333Y-87738285D01*
X166041333Y-87738285D02*
X166184190Y-87690666D01*
X166184190Y-87690666D02*
X166755619Y-87119238D01*
X166755619Y-87119238D02*
X166755619Y-87738285D01*
X165755619Y-88024000D02*
X166755619Y-88357333D01*
X166755619Y-88357333D02*
X165755619Y-88690666D01*
X127777904Y-104017619D02*
X127777904Y-103017619D01*
X127777904Y-103017619D02*
X127444571Y-103731904D01*
X127444571Y-103731904D02*
X127111238Y-103017619D01*
X127111238Y-103017619D02*
X127111238Y-104017619D01*
X126682666Y-103112857D02*
X126635047Y-103065238D01*
X126635047Y-103065238D02*
X126539809Y-103017619D01*
X126539809Y-103017619D02*
X126301714Y-103017619D01*
X126301714Y-103017619D02*
X126206476Y-103065238D01*
X126206476Y-103065238D02*
X126158857Y-103112857D01*
X126158857Y-103112857D02*
X126111238Y-103208095D01*
X126111238Y-103208095D02*
X126111238Y-103303333D01*
X126111238Y-103303333D02*
X126158857Y-103446190D01*
X126158857Y-103446190D02*
X126730285Y-104017619D01*
X126730285Y-104017619D02*
X126111238Y-104017619D01*
X125920762Y-104112857D02*
X125158857Y-104112857D01*
X124920761Y-104017619D02*
X124920761Y-103017619D01*
X124444571Y-104017619D02*
X124444571Y-103017619D01*
X124444571Y-103017619D02*
X123873143Y-104017619D01*
X123873143Y-104017619D02*
X123873143Y-103017619D01*
X123444571Y-103112857D02*
X123396952Y-103065238D01*
X123396952Y-103065238D02*
X123301714Y-103017619D01*
X123301714Y-103017619D02*
X123063619Y-103017619D01*
X123063619Y-103017619D02*
X122968381Y-103065238D01*
X122968381Y-103065238D02*
X122920762Y-103112857D01*
X122920762Y-103112857D02*
X122873143Y-103208095D01*
X122873143Y-103208095D02*
X122873143Y-103303333D01*
X122873143Y-103303333D02*
X122920762Y-103446190D01*
X122920762Y-103446190D02*
X123492190Y-104017619D01*
X123492190Y-104017619D02*
X122873143Y-104017619D01*
X204835142Y-119747619D02*
X204216095Y-119747619D01*
X204216095Y-119747619D02*
X204549428Y-120128571D01*
X204549428Y-120128571D02*
X204406571Y-120128571D01*
X204406571Y-120128571D02*
X204311333Y-120176190D01*
X204311333Y-120176190D02*
X204263714Y-120223809D01*
X204263714Y-120223809D02*
X204216095Y-120319047D01*
X204216095Y-120319047D02*
X204216095Y-120557142D01*
X204216095Y-120557142D02*
X204263714Y-120652380D01*
X204263714Y-120652380D02*
X204311333Y-120700000D01*
X204311333Y-120700000D02*
X204406571Y-120747619D01*
X204406571Y-120747619D02*
X204692285Y-120747619D01*
X204692285Y-120747619D02*
X204787523Y-120700000D01*
X204787523Y-120700000D02*
X204835142Y-120652380D01*
X203739904Y-120700000D02*
X203739904Y-120747619D01*
X203739904Y-120747619D02*
X203787523Y-120842857D01*
X203787523Y-120842857D02*
X203835142Y-120890476D01*
X203406571Y-119747619D02*
X202787524Y-119747619D01*
X202787524Y-119747619D02*
X203120857Y-120128571D01*
X203120857Y-120128571D02*
X202978000Y-120128571D01*
X202978000Y-120128571D02*
X202882762Y-120176190D01*
X202882762Y-120176190D02*
X202835143Y-120223809D01*
X202835143Y-120223809D02*
X202787524Y-120319047D01*
X202787524Y-120319047D02*
X202787524Y-120557142D01*
X202787524Y-120557142D02*
X202835143Y-120652380D01*
X202835143Y-120652380D02*
X202882762Y-120700000D01*
X202882762Y-120700000D02*
X202978000Y-120747619D01*
X202978000Y-120747619D02*
X203263714Y-120747619D01*
X203263714Y-120747619D02*
X203358952Y-120700000D01*
X203358952Y-120700000D02*
X203406571Y-120652380D01*
X202501809Y-119747619D02*
X202168476Y-120747619D01*
X202168476Y-120747619D02*
X201835143Y-119747619D01*
X128031904Y-111977819D02*
X128031904Y-110977819D01*
X128031904Y-110977819D02*
X127698571Y-111692104D01*
X127698571Y-111692104D02*
X127365238Y-110977819D01*
X127365238Y-110977819D02*
X127365238Y-111977819D01*
X126365238Y-111977819D02*
X126936666Y-111977819D01*
X126650952Y-111977819D02*
X126650952Y-110977819D01*
X126650952Y-110977819D02*
X126746190Y-111120676D01*
X126746190Y-111120676D02*
X126841428Y-111215914D01*
X126841428Y-111215914D02*
X126936666Y-111263533D01*
X126174762Y-112073057D02*
X125412857Y-112073057D01*
X125174761Y-111977819D02*
X125174761Y-110977819D01*
X124698571Y-111977819D02*
X124698571Y-110977819D01*
X124698571Y-110977819D02*
X124127143Y-111977819D01*
X124127143Y-111977819D02*
X124127143Y-110977819D01*
X123698571Y-111073057D02*
X123650952Y-111025438D01*
X123650952Y-111025438D02*
X123555714Y-110977819D01*
X123555714Y-110977819D02*
X123317619Y-110977819D01*
X123317619Y-110977819D02*
X123222381Y-111025438D01*
X123222381Y-111025438D02*
X123174762Y-111073057D01*
X123174762Y-111073057D02*
X123127143Y-111168295D01*
X123127143Y-111168295D02*
X123127143Y-111263533D01*
X123127143Y-111263533D02*
X123174762Y-111406390D01*
X123174762Y-111406390D02*
X123746190Y-111977819D01*
X123746190Y-111977819D02*
X123127143Y-111977819D01*
X128031904Y-97159619D02*
X128031904Y-96159619D01*
X128031904Y-96159619D02*
X127698571Y-96873904D01*
X127698571Y-96873904D02*
X127365238Y-96159619D01*
X127365238Y-96159619D02*
X127365238Y-97159619D01*
X126984285Y-96159619D02*
X126365238Y-96159619D01*
X126365238Y-96159619D02*
X126698571Y-96540571D01*
X126698571Y-96540571D02*
X126555714Y-96540571D01*
X126555714Y-96540571D02*
X126460476Y-96588190D01*
X126460476Y-96588190D02*
X126412857Y-96635809D01*
X126412857Y-96635809D02*
X126365238Y-96731047D01*
X126365238Y-96731047D02*
X126365238Y-96969142D01*
X126365238Y-96969142D02*
X126412857Y-97064380D01*
X126412857Y-97064380D02*
X126460476Y-97112000D01*
X126460476Y-97112000D02*
X126555714Y-97159619D01*
X126555714Y-97159619D02*
X126841428Y-97159619D01*
X126841428Y-97159619D02*
X126936666Y-97112000D01*
X126936666Y-97112000D02*
X126984285Y-97064380D01*
X126174762Y-97254857D02*
X125412857Y-97254857D01*
X125174761Y-97159619D02*
X125174761Y-96159619D01*
X124698571Y-97159619D02*
X124698571Y-96159619D01*
X124698571Y-96159619D02*
X124127143Y-97159619D01*
X124127143Y-97159619D02*
X124127143Y-96159619D01*
X123698571Y-96254857D02*
X123650952Y-96207238D01*
X123650952Y-96207238D02*
X123555714Y-96159619D01*
X123555714Y-96159619D02*
X123317619Y-96159619D01*
X123317619Y-96159619D02*
X123222381Y-96207238D01*
X123222381Y-96207238D02*
X123174762Y-96254857D01*
X123174762Y-96254857D02*
X123127143Y-96350095D01*
X123127143Y-96350095D02*
X123127143Y-96445333D01*
X123127143Y-96445333D02*
X123174762Y-96588190D01*
X123174762Y-96588190D02*
X123746190Y-97159619D01*
X123746190Y-97159619D02*
X123127143Y-97159619D01*
X171355619Y-82462095D02*
X170355619Y-82462095D01*
X170355619Y-82462095D02*
X171069904Y-82795428D01*
X171069904Y-82795428D02*
X170355619Y-83128761D01*
X170355619Y-83128761D02*
X171355619Y-83128761D01*
X170355619Y-83795428D02*
X170355619Y-83890666D01*
X170355619Y-83890666D02*
X170403238Y-83985904D01*
X170403238Y-83985904D02*
X170450857Y-84033523D01*
X170450857Y-84033523D02*
X170546095Y-84081142D01*
X170546095Y-84081142D02*
X170736571Y-84128761D01*
X170736571Y-84128761D02*
X170974666Y-84128761D01*
X170974666Y-84128761D02*
X171165142Y-84081142D01*
X171165142Y-84081142D02*
X171260380Y-84033523D01*
X171260380Y-84033523D02*
X171308000Y-83985904D01*
X171308000Y-83985904D02*
X171355619Y-83890666D01*
X171355619Y-83890666D02*
X171355619Y-83795428D01*
X171355619Y-83795428D02*
X171308000Y-83700190D01*
X171308000Y-83700190D02*
X171260380Y-83652571D01*
X171260380Y-83652571D02*
X171165142Y-83604952D01*
X171165142Y-83604952D02*
X170974666Y-83557333D01*
X170974666Y-83557333D02*
X170736571Y-83557333D01*
X170736571Y-83557333D02*
X170546095Y-83604952D01*
X170546095Y-83604952D02*
X170450857Y-83652571D01*
X170450857Y-83652571D02*
X170403238Y-83700190D01*
X170403238Y-83700190D02*
X170355619Y-83795428D01*
X171450857Y-84319238D02*
X171450857Y-85081142D01*
X171355619Y-85319238D02*
X170355619Y-85319238D01*
X171355619Y-85795428D02*
X170355619Y-85795428D01*
X170355619Y-85795428D02*
X171355619Y-86366856D01*
X171355619Y-86366856D02*
X170355619Y-86366856D01*
X170450857Y-86795428D02*
X170403238Y-86843047D01*
X170403238Y-86843047D02*
X170355619Y-86938285D01*
X170355619Y-86938285D02*
X170355619Y-87176380D01*
X170355619Y-87176380D02*
X170403238Y-87271618D01*
X170403238Y-87271618D02*
X170450857Y-87319237D01*
X170450857Y-87319237D02*
X170546095Y-87366856D01*
X170546095Y-87366856D02*
X170641333Y-87366856D01*
X170641333Y-87366856D02*
X170784190Y-87319237D01*
X170784190Y-87319237D02*
X171355619Y-86747809D01*
X171355619Y-86747809D02*
X171355619Y-87366856D01*
X208519714Y-109147619D02*
X208995904Y-109147619D01*
X208995904Y-109147619D02*
X209043523Y-109623809D01*
X209043523Y-109623809D02*
X208995904Y-109576190D01*
X208995904Y-109576190D02*
X208900666Y-109528571D01*
X208900666Y-109528571D02*
X208662571Y-109528571D01*
X208662571Y-109528571D02*
X208567333Y-109576190D01*
X208567333Y-109576190D02*
X208519714Y-109623809D01*
X208519714Y-109623809D02*
X208472095Y-109719047D01*
X208472095Y-109719047D02*
X208472095Y-109957142D01*
X208472095Y-109957142D02*
X208519714Y-110052380D01*
X208519714Y-110052380D02*
X208567333Y-110100000D01*
X208567333Y-110100000D02*
X208662571Y-110147619D01*
X208662571Y-110147619D02*
X208900666Y-110147619D01*
X208900666Y-110147619D02*
X208995904Y-110100000D01*
X208995904Y-110100000D02*
X209043523Y-110052380D01*
X208186380Y-109147619D02*
X207853047Y-110147619D01*
X207853047Y-110147619D02*
X207519714Y-109147619D01*
X127523904Y-109097619D02*
X127523904Y-108097619D01*
X127523904Y-108097619D02*
X127190571Y-108811904D01*
X127190571Y-108811904D02*
X126857238Y-108097619D01*
X126857238Y-108097619D02*
X126857238Y-109097619D01*
X126428666Y-108192857D02*
X126381047Y-108145238D01*
X126381047Y-108145238D02*
X126285809Y-108097619D01*
X126285809Y-108097619D02*
X126047714Y-108097619D01*
X126047714Y-108097619D02*
X125952476Y-108145238D01*
X125952476Y-108145238D02*
X125904857Y-108192857D01*
X125904857Y-108192857D02*
X125857238Y-108288095D01*
X125857238Y-108288095D02*
X125857238Y-108383333D01*
X125857238Y-108383333D02*
X125904857Y-108526190D01*
X125904857Y-108526190D02*
X126476285Y-109097619D01*
X126476285Y-109097619D02*
X125857238Y-109097619D01*
X125666762Y-109192857D02*
X124904857Y-109192857D01*
X124666761Y-109097619D02*
X124666761Y-108097619D01*
X124190571Y-109097619D02*
X124190571Y-108097619D01*
X124190571Y-108097619D02*
X123619143Y-109097619D01*
X123619143Y-109097619D02*
X123619143Y-108097619D01*
X122619143Y-109097619D02*
X123190571Y-109097619D01*
X122904857Y-109097619D02*
X122904857Y-108097619D01*
X122904857Y-108097619D02*
X123000095Y-108240476D01*
X123000095Y-108240476D02*
X123095333Y-108335714D01*
X123095333Y-108335714D02*
X123190571Y-108383333D01*
X161755619Y-82462095D02*
X160755619Y-82462095D01*
X160755619Y-82462095D02*
X161469904Y-82795428D01*
X161469904Y-82795428D02*
X160755619Y-83128761D01*
X160755619Y-83128761D02*
X161755619Y-83128761D01*
X161755619Y-84128761D02*
X161755619Y-83557333D01*
X161755619Y-83843047D02*
X160755619Y-83843047D01*
X160755619Y-83843047D02*
X160898476Y-83747809D01*
X160898476Y-83747809D02*
X160993714Y-83652571D01*
X160993714Y-83652571D02*
X161041333Y-83557333D01*
X161850857Y-84319238D02*
X161850857Y-85081142D01*
X161755619Y-85319238D02*
X160755619Y-85319238D01*
X161755619Y-85795428D02*
X160755619Y-85795428D01*
X160755619Y-85795428D02*
X161755619Y-86366856D01*
X161755619Y-86366856D02*
X160755619Y-86366856D01*
X160850857Y-86795428D02*
X160803238Y-86843047D01*
X160803238Y-86843047D02*
X160755619Y-86938285D01*
X160755619Y-86938285D02*
X160755619Y-87176380D01*
X160755619Y-87176380D02*
X160803238Y-87271618D01*
X160803238Y-87271618D02*
X160850857Y-87319237D01*
X160850857Y-87319237D02*
X160946095Y-87366856D01*
X160946095Y-87366856D02*
X161041333Y-87366856D01*
X161041333Y-87366856D02*
X161184190Y-87319237D01*
X161184190Y-87319237D02*
X161755619Y-86747809D01*
X161755619Y-86747809D02*
X161755619Y-87366856D01*
X166387809Y-123641428D02*
X166435428Y-123784285D01*
X166435428Y-123784285D02*
X166483047Y-123831904D01*
X166483047Y-123831904D02*
X166578285Y-123879523D01*
X166578285Y-123879523D02*
X166721142Y-123879523D01*
X166721142Y-123879523D02*
X166816380Y-123831904D01*
X166816380Y-123831904D02*
X166864000Y-123784285D01*
X166864000Y-123784285D02*
X166911619Y-123689047D01*
X166911619Y-123689047D02*
X166911619Y-123308095D01*
X166911619Y-123308095D02*
X165911619Y-123308095D01*
X165911619Y-123308095D02*
X165911619Y-123641428D01*
X165911619Y-123641428D02*
X165959238Y-123736666D01*
X165959238Y-123736666D02*
X166006857Y-123784285D01*
X166006857Y-123784285D02*
X166102095Y-123831904D01*
X166102095Y-123831904D02*
X166197333Y-123831904D01*
X166197333Y-123831904D02*
X166292571Y-123784285D01*
X166292571Y-123784285D02*
X166340190Y-123736666D01*
X166340190Y-123736666D02*
X166387809Y-123641428D01*
X166387809Y-123641428D02*
X166387809Y-123308095D01*
X166625904Y-124260476D02*
X166625904Y-124736666D01*
X166911619Y-124165238D02*
X165911619Y-124498571D01*
X165911619Y-124498571D02*
X166911619Y-124831904D01*
X165911619Y-125022381D02*
X165911619Y-125593809D01*
X166911619Y-125308095D02*
X165911619Y-125308095D01*
X168355619Y-82462095D02*
X167355619Y-82462095D01*
X167355619Y-82462095D02*
X168069904Y-82795428D01*
X168069904Y-82795428D02*
X167355619Y-83128761D01*
X167355619Y-83128761D02*
X168355619Y-83128761D01*
X167355619Y-83795428D02*
X167355619Y-83890666D01*
X167355619Y-83890666D02*
X167403238Y-83985904D01*
X167403238Y-83985904D02*
X167450857Y-84033523D01*
X167450857Y-84033523D02*
X167546095Y-84081142D01*
X167546095Y-84081142D02*
X167736571Y-84128761D01*
X167736571Y-84128761D02*
X167974666Y-84128761D01*
X167974666Y-84128761D02*
X168165142Y-84081142D01*
X168165142Y-84081142D02*
X168260380Y-84033523D01*
X168260380Y-84033523D02*
X168308000Y-83985904D01*
X168308000Y-83985904D02*
X168355619Y-83890666D01*
X168355619Y-83890666D02*
X168355619Y-83795428D01*
X168355619Y-83795428D02*
X168308000Y-83700190D01*
X168308000Y-83700190D02*
X168260380Y-83652571D01*
X168260380Y-83652571D02*
X168165142Y-83604952D01*
X168165142Y-83604952D02*
X167974666Y-83557333D01*
X167974666Y-83557333D02*
X167736571Y-83557333D01*
X167736571Y-83557333D02*
X167546095Y-83604952D01*
X167546095Y-83604952D02*
X167450857Y-83652571D01*
X167450857Y-83652571D02*
X167403238Y-83700190D01*
X167403238Y-83700190D02*
X167355619Y-83795428D01*
X168450857Y-84319238D02*
X168450857Y-85081142D01*
X168355619Y-85319238D02*
X167355619Y-85319238D01*
X168355619Y-85795428D02*
X167355619Y-85795428D01*
X167355619Y-85795428D02*
X168355619Y-86366856D01*
X168355619Y-86366856D02*
X167355619Y-86366856D01*
X167450857Y-86795428D02*
X167403238Y-86843047D01*
X167403238Y-86843047D02*
X167355619Y-86938285D01*
X167355619Y-86938285D02*
X167355619Y-87176380D01*
X167355619Y-87176380D02*
X167403238Y-87271618D01*
X167403238Y-87271618D02*
X167450857Y-87319237D01*
X167450857Y-87319237D02*
X167546095Y-87366856D01*
X167546095Y-87366856D02*
X167641333Y-87366856D01*
X167641333Y-87366856D02*
X167784190Y-87319237D01*
X167784190Y-87319237D02*
X168355619Y-86747809D01*
X168355619Y-86747809D02*
X168355619Y-87366856D01*
X192535142Y-125101619D02*
X191916095Y-125101619D01*
X191916095Y-125101619D02*
X192249428Y-125482571D01*
X192249428Y-125482571D02*
X192106571Y-125482571D01*
X192106571Y-125482571D02*
X192011333Y-125530190D01*
X192011333Y-125530190D02*
X191963714Y-125577809D01*
X191963714Y-125577809D02*
X191916095Y-125673047D01*
X191916095Y-125673047D02*
X191916095Y-125911142D01*
X191916095Y-125911142D02*
X191963714Y-126006380D01*
X191963714Y-126006380D02*
X192011333Y-126054000D01*
X192011333Y-126054000D02*
X192106571Y-126101619D01*
X192106571Y-126101619D02*
X192392285Y-126101619D01*
X192392285Y-126101619D02*
X192487523Y-126054000D01*
X192487523Y-126054000D02*
X192535142Y-126006380D01*
X191439904Y-126054000D02*
X191439904Y-126101619D01*
X191439904Y-126101619D02*
X191487523Y-126196857D01*
X191487523Y-126196857D02*
X191535142Y-126244476D01*
X191106571Y-125101619D02*
X190487524Y-125101619D01*
X190487524Y-125101619D02*
X190820857Y-125482571D01*
X190820857Y-125482571D02*
X190678000Y-125482571D01*
X190678000Y-125482571D02*
X190582762Y-125530190D01*
X190582762Y-125530190D02*
X190535143Y-125577809D01*
X190535143Y-125577809D02*
X190487524Y-125673047D01*
X190487524Y-125673047D02*
X190487524Y-125911142D01*
X190487524Y-125911142D02*
X190535143Y-126006380D01*
X190535143Y-126006380D02*
X190582762Y-126054000D01*
X190582762Y-126054000D02*
X190678000Y-126101619D01*
X190678000Y-126101619D02*
X190963714Y-126101619D01*
X190963714Y-126101619D02*
X191058952Y-126054000D01*
X191058952Y-126054000D02*
X191106571Y-126006380D01*
X190201809Y-125101619D02*
X189868476Y-126101619D01*
X189868476Y-126101619D02*
X189535143Y-125101619D01*
X137895619Y-126919238D02*
X138895619Y-127252571D01*
X138895619Y-127252571D02*
X137895619Y-127585904D01*
X138800380Y-128490666D02*
X138848000Y-128443047D01*
X138848000Y-128443047D02*
X138895619Y-128300190D01*
X138895619Y-128300190D02*
X138895619Y-128204952D01*
X138895619Y-128204952D02*
X138848000Y-128062095D01*
X138848000Y-128062095D02*
X138752761Y-127966857D01*
X138752761Y-127966857D02*
X138657523Y-127919238D01*
X138657523Y-127919238D02*
X138467047Y-127871619D01*
X138467047Y-127871619D02*
X138324190Y-127871619D01*
X138324190Y-127871619D02*
X138133714Y-127919238D01*
X138133714Y-127919238D02*
X138038476Y-127966857D01*
X138038476Y-127966857D02*
X137943238Y-128062095D01*
X137943238Y-128062095D02*
X137895619Y-128204952D01*
X137895619Y-128204952D02*
X137895619Y-128300190D01*
X137895619Y-128300190D02*
X137943238Y-128443047D01*
X137943238Y-128443047D02*
X137990857Y-128490666D01*
X138800380Y-129490666D02*
X138848000Y-129443047D01*
X138848000Y-129443047D02*
X138895619Y-129300190D01*
X138895619Y-129300190D02*
X138895619Y-129204952D01*
X138895619Y-129204952D02*
X138848000Y-129062095D01*
X138848000Y-129062095D02*
X138752761Y-128966857D01*
X138752761Y-128966857D02*
X138657523Y-128919238D01*
X138657523Y-128919238D02*
X138467047Y-128871619D01*
X138467047Y-128871619D02*
X138324190Y-128871619D01*
X138324190Y-128871619D02*
X138133714Y-128919238D01*
X138133714Y-128919238D02*
X138038476Y-128966857D01*
X138038476Y-128966857D02*
X137943238Y-129062095D01*
X137943238Y-129062095D02*
X137895619Y-129204952D01*
X137895619Y-129204952D02*
X137895619Y-129300190D01*
X137895619Y-129300190D02*
X137943238Y-129443047D01*
X137943238Y-129443047D02*
X137990857Y-129490666D01*
X140468000Y-127014476D02*
X140515619Y-127157333D01*
X140515619Y-127157333D02*
X140515619Y-127395428D01*
X140515619Y-127395428D02*
X140468000Y-127490666D01*
X140468000Y-127490666D02*
X140420380Y-127538285D01*
X140420380Y-127538285D02*
X140325142Y-127585904D01*
X140325142Y-127585904D02*
X140229904Y-127585904D01*
X140229904Y-127585904D02*
X140134666Y-127538285D01*
X140134666Y-127538285D02*
X140087047Y-127490666D01*
X140087047Y-127490666D02*
X140039428Y-127395428D01*
X140039428Y-127395428D02*
X139991809Y-127204952D01*
X139991809Y-127204952D02*
X139944190Y-127109714D01*
X139944190Y-127109714D02*
X139896571Y-127062095D01*
X139896571Y-127062095D02*
X139801333Y-127014476D01*
X139801333Y-127014476D02*
X139706095Y-127014476D01*
X139706095Y-127014476D02*
X139610857Y-127062095D01*
X139610857Y-127062095D02*
X139563238Y-127109714D01*
X139563238Y-127109714D02*
X139515619Y-127204952D01*
X139515619Y-127204952D02*
X139515619Y-127443047D01*
X139515619Y-127443047D02*
X139563238Y-127585904D01*
X140420380Y-128585904D02*
X140468000Y-128538285D01*
X140468000Y-128538285D02*
X140515619Y-128395428D01*
X140515619Y-128395428D02*
X140515619Y-128300190D01*
X140515619Y-128300190D02*
X140468000Y-128157333D01*
X140468000Y-128157333D02*
X140372761Y-128062095D01*
X140372761Y-128062095D02*
X140277523Y-128014476D01*
X140277523Y-128014476D02*
X140087047Y-127966857D01*
X140087047Y-127966857D02*
X139944190Y-127966857D01*
X139944190Y-127966857D02*
X139753714Y-128014476D01*
X139753714Y-128014476D02*
X139658476Y-128062095D01*
X139658476Y-128062095D02*
X139563238Y-128157333D01*
X139563238Y-128157333D02*
X139515619Y-128300190D01*
X139515619Y-128300190D02*
X139515619Y-128395428D01*
X139515619Y-128395428D02*
X139563238Y-128538285D01*
X139563238Y-128538285D02*
X139610857Y-128585904D01*
X140515619Y-129490666D02*
X140515619Y-129014476D01*
X140515619Y-129014476D02*
X139515619Y-129014476D01*
X141183238Y-127585904D02*
X141135619Y-127490666D01*
X141135619Y-127490666D02*
X141135619Y-127347809D01*
X141135619Y-127347809D02*
X141183238Y-127204952D01*
X141183238Y-127204952D02*
X141278476Y-127109714D01*
X141278476Y-127109714D02*
X141373714Y-127062095D01*
X141373714Y-127062095D02*
X141564190Y-127014476D01*
X141564190Y-127014476D02*
X141707047Y-127014476D01*
X141707047Y-127014476D02*
X141897523Y-127062095D01*
X141897523Y-127062095D02*
X141992761Y-127109714D01*
X141992761Y-127109714D02*
X142088000Y-127204952D01*
X142088000Y-127204952D02*
X142135619Y-127347809D01*
X142135619Y-127347809D02*
X142135619Y-127443047D01*
X142135619Y-127443047D02*
X142088000Y-127585904D01*
X142088000Y-127585904D02*
X142040380Y-127633523D01*
X142040380Y-127633523D02*
X141707047Y-127633523D01*
X141707047Y-127633523D02*
X141707047Y-127443047D01*
X142135619Y-128062095D02*
X141135619Y-128062095D01*
X141135619Y-128062095D02*
X142135619Y-128633523D01*
X142135619Y-128633523D02*
X141135619Y-128633523D01*
X142135619Y-129109714D02*
X141135619Y-129109714D01*
X141135619Y-129109714D02*
X141135619Y-129347809D01*
X141135619Y-129347809D02*
X141183238Y-129490666D01*
X141183238Y-129490666D02*
X141278476Y-129585904D01*
X141278476Y-129585904D02*
X141373714Y-129633523D01*
X141373714Y-129633523D02*
X141564190Y-129681142D01*
X141564190Y-129681142D02*
X141707047Y-129681142D01*
X141707047Y-129681142D02*
X141897523Y-129633523D01*
X141897523Y-129633523D02*
X141992761Y-129585904D01*
X141992761Y-129585904D02*
X142088000Y-129490666D01*
X142088000Y-129490666D02*
X142135619Y-129347809D01*
X142135619Y-129347809D02*
X142135619Y-129109714D01*
X143708000Y-127014476D02*
X143755619Y-127157333D01*
X143755619Y-127157333D02*
X143755619Y-127395428D01*
X143755619Y-127395428D02*
X143708000Y-127490666D01*
X143708000Y-127490666D02*
X143660380Y-127538285D01*
X143660380Y-127538285D02*
X143565142Y-127585904D01*
X143565142Y-127585904D02*
X143469904Y-127585904D01*
X143469904Y-127585904D02*
X143374666Y-127538285D01*
X143374666Y-127538285D02*
X143327047Y-127490666D01*
X143327047Y-127490666D02*
X143279428Y-127395428D01*
X143279428Y-127395428D02*
X143231809Y-127204952D01*
X143231809Y-127204952D02*
X143184190Y-127109714D01*
X143184190Y-127109714D02*
X143136571Y-127062095D01*
X143136571Y-127062095D02*
X143041333Y-127014476D01*
X143041333Y-127014476D02*
X142946095Y-127014476D01*
X142946095Y-127014476D02*
X142850857Y-127062095D01*
X142850857Y-127062095D02*
X142803238Y-127109714D01*
X142803238Y-127109714D02*
X142755619Y-127204952D01*
X142755619Y-127204952D02*
X142755619Y-127443047D01*
X142755619Y-127443047D02*
X142803238Y-127585904D01*
X143755619Y-128014476D02*
X142755619Y-128014476D01*
X142755619Y-128014476D02*
X142755619Y-128252571D01*
X142755619Y-128252571D02*
X142803238Y-128395428D01*
X142803238Y-128395428D02*
X142898476Y-128490666D01*
X142898476Y-128490666D02*
X142993714Y-128538285D01*
X142993714Y-128538285D02*
X143184190Y-128585904D01*
X143184190Y-128585904D02*
X143327047Y-128585904D01*
X143327047Y-128585904D02*
X143517523Y-128538285D01*
X143517523Y-128538285D02*
X143612761Y-128490666D01*
X143612761Y-128490666D02*
X143708000Y-128395428D01*
X143708000Y-128395428D02*
X143755619Y-128252571D01*
X143755619Y-128252571D02*
X143755619Y-128014476D01*
X143469904Y-128966857D02*
X143469904Y-129443047D01*
X143755619Y-128871619D02*
X142755619Y-129204952D01*
X142755619Y-129204952D02*
X143755619Y-129538285D01*
X171704095Y-91337619D02*
X172275523Y-91337619D01*
X171989809Y-91337619D02*
X171989809Y-90337619D01*
X171989809Y-90337619D02*
X172085047Y-90480476D01*
X172085047Y-90480476D02*
X172180285Y-90575714D01*
X172180285Y-90575714D02*
X172275523Y-90623333D01*
X171323142Y-90432857D02*
X171275523Y-90385238D01*
X171275523Y-90385238D02*
X171180285Y-90337619D01*
X171180285Y-90337619D02*
X170942190Y-90337619D01*
X170942190Y-90337619D02*
X170846952Y-90385238D01*
X170846952Y-90385238D02*
X170799333Y-90432857D01*
X170799333Y-90432857D02*
X170751714Y-90528095D01*
X170751714Y-90528095D02*
X170751714Y-90623333D01*
X170751714Y-90623333D02*
X170799333Y-90766190D01*
X170799333Y-90766190D02*
X171370761Y-91337619D01*
X171370761Y-91337619D02*
X170751714Y-91337619D01*
X170465999Y-90337619D02*
X170132666Y-91337619D01*
X170132666Y-91337619D02*
X169799333Y-90337619D01*
X193309904Y-101985619D02*
X193309904Y-100985619D01*
X192881333Y-101080857D02*
X192833714Y-101033238D01*
X192833714Y-101033238D02*
X192738476Y-100985619D01*
X192738476Y-100985619D02*
X192500381Y-100985619D01*
X192500381Y-100985619D02*
X192405143Y-101033238D01*
X192405143Y-101033238D02*
X192357524Y-101080857D01*
X192357524Y-101080857D02*
X192309905Y-101176095D01*
X192309905Y-101176095D02*
X192309905Y-101271333D01*
X192309905Y-101271333D02*
X192357524Y-101414190D01*
X192357524Y-101414190D02*
X192928952Y-101985619D01*
X192928952Y-101985619D02*
X192309905Y-101985619D01*
X191309905Y-101890380D02*
X191357524Y-101938000D01*
X191357524Y-101938000D02*
X191500381Y-101985619D01*
X191500381Y-101985619D02*
X191595619Y-101985619D01*
X191595619Y-101985619D02*
X191738476Y-101938000D01*
X191738476Y-101938000D02*
X191833714Y-101842761D01*
X191833714Y-101842761D02*
X191881333Y-101747523D01*
X191881333Y-101747523D02*
X191928952Y-101557047D01*
X191928952Y-101557047D02*
X191928952Y-101414190D01*
X191928952Y-101414190D02*
X191881333Y-101223714D01*
X191881333Y-101223714D02*
X191833714Y-101128476D01*
X191833714Y-101128476D02*
X191738476Y-101033238D01*
X191738476Y-101033238D02*
X191595619Y-100985619D01*
X191595619Y-100985619D02*
X191500381Y-100985619D01*
X191500381Y-100985619D02*
X191357524Y-101033238D01*
X191357524Y-101033238D02*
X191309905Y-101080857D01*
X191119429Y-102080857D02*
X190357524Y-102080857D01*
X189928952Y-100985619D02*
X189833714Y-100985619D01*
X189833714Y-100985619D02*
X189738476Y-101033238D01*
X189738476Y-101033238D02*
X189690857Y-101080857D01*
X189690857Y-101080857D02*
X189643238Y-101176095D01*
X189643238Y-101176095D02*
X189595619Y-101366571D01*
X189595619Y-101366571D02*
X189595619Y-101604666D01*
X189595619Y-101604666D02*
X189643238Y-101795142D01*
X189643238Y-101795142D02*
X189690857Y-101890380D01*
X189690857Y-101890380D02*
X189738476Y-101938000D01*
X189738476Y-101938000D02*
X189833714Y-101985619D01*
X189833714Y-101985619D02*
X189928952Y-101985619D01*
X189928952Y-101985619D02*
X190024190Y-101938000D01*
X190024190Y-101938000D02*
X190071809Y-101890380D01*
X190071809Y-101890380D02*
X190119428Y-101795142D01*
X190119428Y-101795142D02*
X190167047Y-101604666D01*
X190167047Y-101604666D02*
X190167047Y-101366571D01*
X190167047Y-101366571D02*
X190119428Y-101176095D01*
X190119428Y-101176095D02*
X190071809Y-101080857D01*
X190071809Y-101080857D02*
X190024190Y-101033238D01*
X190024190Y-101033238D02*
X189928952Y-100985619D01*
X142447761Y-121410619D02*
X142447761Y-120410619D01*
X142019190Y-120505857D02*
X141971571Y-120458238D01*
X141971571Y-120458238D02*
X141876333Y-120410619D01*
X141876333Y-120410619D02*
X141638238Y-120410619D01*
X141638238Y-120410619D02*
X141543000Y-120458238D01*
X141543000Y-120458238D02*
X141495381Y-120505857D01*
X141495381Y-120505857D02*
X141447762Y-120601095D01*
X141447762Y-120601095D02*
X141447762Y-120696333D01*
X141447762Y-120696333D02*
X141495381Y-120839190D01*
X141495381Y-120839190D02*
X142066809Y-121410619D01*
X142066809Y-121410619D02*
X141447762Y-121410619D01*
X140447762Y-121315380D02*
X140495381Y-121363000D01*
X140495381Y-121363000D02*
X140638238Y-121410619D01*
X140638238Y-121410619D02*
X140733476Y-121410619D01*
X140733476Y-121410619D02*
X140876333Y-121363000D01*
X140876333Y-121363000D02*
X140971571Y-121267761D01*
X140971571Y-121267761D02*
X141019190Y-121172523D01*
X141019190Y-121172523D02*
X141066809Y-120982047D01*
X141066809Y-120982047D02*
X141066809Y-120839190D01*
X141066809Y-120839190D02*
X141019190Y-120648714D01*
X141019190Y-120648714D02*
X140971571Y-120553476D01*
X140971571Y-120553476D02*
X140876333Y-120458238D01*
X140876333Y-120458238D02*
X140733476Y-120410619D01*
X140733476Y-120410619D02*
X140638238Y-120410619D01*
X140638238Y-120410619D02*
X140495381Y-120458238D01*
X140495381Y-120458238D02*
X140447762Y-120505857D01*
X140257286Y-121505857D02*
X139495381Y-121505857D01*
X139066809Y-120410619D02*
X138971571Y-120410619D01*
X138971571Y-120410619D02*
X138876333Y-120458238D01*
X138876333Y-120458238D02*
X138828714Y-120505857D01*
X138828714Y-120505857D02*
X138781095Y-120601095D01*
X138781095Y-120601095D02*
X138733476Y-120791571D01*
X138733476Y-120791571D02*
X138733476Y-121029666D01*
X138733476Y-121029666D02*
X138781095Y-121220142D01*
X138781095Y-121220142D02*
X138828714Y-121315380D01*
X138828714Y-121315380D02*
X138876333Y-121363000D01*
X138876333Y-121363000D02*
X138971571Y-121410619D01*
X138971571Y-121410619D02*
X139066809Y-121410619D01*
X139066809Y-121410619D02*
X139162047Y-121363000D01*
X139162047Y-121363000D02*
X139209666Y-121315380D01*
X139209666Y-121315380D02*
X139257285Y-121220142D01*
X139257285Y-121220142D02*
X139304904Y-121029666D01*
X139304904Y-121029666D02*
X139304904Y-120791571D01*
X139304904Y-120791571D02*
X139257285Y-120601095D01*
X139257285Y-120601095D02*
X139209666Y-120505857D01*
X139209666Y-120505857D02*
X139162047Y-120458238D01*
X139162047Y-120458238D02*
X139066809Y-120410619D01*
X175439904Y-101985619D02*
X175439904Y-100985619D01*
X175011333Y-101080857D02*
X174963714Y-101033238D01*
X174963714Y-101033238D02*
X174868476Y-100985619D01*
X174868476Y-100985619D02*
X174630381Y-100985619D01*
X174630381Y-100985619D02*
X174535143Y-101033238D01*
X174535143Y-101033238D02*
X174487524Y-101080857D01*
X174487524Y-101080857D02*
X174439905Y-101176095D01*
X174439905Y-101176095D02*
X174439905Y-101271333D01*
X174439905Y-101271333D02*
X174487524Y-101414190D01*
X174487524Y-101414190D02*
X175058952Y-101985619D01*
X175058952Y-101985619D02*
X174439905Y-101985619D01*
X173439905Y-101890380D02*
X173487524Y-101938000D01*
X173487524Y-101938000D02*
X173630381Y-101985619D01*
X173630381Y-101985619D02*
X173725619Y-101985619D01*
X173725619Y-101985619D02*
X173868476Y-101938000D01*
X173868476Y-101938000D02*
X173963714Y-101842761D01*
X173963714Y-101842761D02*
X174011333Y-101747523D01*
X174011333Y-101747523D02*
X174058952Y-101557047D01*
X174058952Y-101557047D02*
X174058952Y-101414190D01*
X174058952Y-101414190D02*
X174011333Y-101223714D01*
X174011333Y-101223714D02*
X173963714Y-101128476D01*
X173963714Y-101128476D02*
X173868476Y-101033238D01*
X173868476Y-101033238D02*
X173725619Y-100985619D01*
X173725619Y-100985619D02*
X173630381Y-100985619D01*
X173630381Y-100985619D02*
X173487524Y-101033238D01*
X173487524Y-101033238D02*
X173439905Y-101080857D01*
X173249429Y-102080857D02*
X172487524Y-102080857D01*
X172344666Y-100985619D02*
X171725619Y-100985619D01*
X171725619Y-100985619D02*
X172058952Y-101366571D01*
X172058952Y-101366571D02*
X171916095Y-101366571D01*
X171916095Y-101366571D02*
X171820857Y-101414190D01*
X171820857Y-101414190D02*
X171773238Y-101461809D01*
X171773238Y-101461809D02*
X171725619Y-101557047D01*
X171725619Y-101557047D02*
X171725619Y-101795142D01*
X171725619Y-101795142D02*
X171773238Y-101890380D01*
X171773238Y-101890380D02*
X171820857Y-101938000D01*
X171820857Y-101938000D02*
X171916095Y-101985619D01*
X171916095Y-101985619D02*
X172201809Y-101985619D01*
X172201809Y-101985619D02*
X172297047Y-101938000D01*
X172297047Y-101938000D02*
X172344666Y-101890380D01*
X187975904Y-101985619D02*
X187975904Y-100985619D01*
X187547333Y-101080857D02*
X187499714Y-101033238D01*
X187499714Y-101033238D02*
X187404476Y-100985619D01*
X187404476Y-100985619D02*
X187166381Y-100985619D01*
X187166381Y-100985619D02*
X187071143Y-101033238D01*
X187071143Y-101033238D02*
X187023524Y-101080857D01*
X187023524Y-101080857D02*
X186975905Y-101176095D01*
X186975905Y-101176095D02*
X186975905Y-101271333D01*
X186975905Y-101271333D02*
X187023524Y-101414190D01*
X187023524Y-101414190D02*
X187594952Y-101985619D01*
X187594952Y-101985619D02*
X186975905Y-101985619D01*
X185975905Y-101890380D02*
X186023524Y-101938000D01*
X186023524Y-101938000D02*
X186166381Y-101985619D01*
X186166381Y-101985619D02*
X186261619Y-101985619D01*
X186261619Y-101985619D02*
X186404476Y-101938000D01*
X186404476Y-101938000D02*
X186499714Y-101842761D01*
X186499714Y-101842761D02*
X186547333Y-101747523D01*
X186547333Y-101747523D02*
X186594952Y-101557047D01*
X186594952Y-101557047D02*
X186594952Y-101414190D01*
X186594952Y-101414190D02*
X186547333Y-101223714D01*
X186547333Y-101223714D02*
X186499714Y-101128476D01*
X186499714Y-101128476D02*
X186404476Y-101033238D01*
X186404476Y-101033238D02*
X186261619Y-100985619D01*
X186261619Y-100985619D02*
X186166381Y-100985619D01*
X186166381Y-100985619D02*
X186023524Y-101033238D01*
X186023524Y-101033238D02*
X185975905Y-101080857D01*
X185785429Y-102080857D02*
X185023524Y-102080857D01*
X184261619Y-101985619D02*
X184833047Y-101985619D01*
X184547333Y-101985619D02*
X184547333Y-100985619D01*
X184547333Y-100985619D02*
X184642571Y-101128476D01*
X184642571Y-101128476D02*
X184737809Y-101223714D01*
X184737809Y-101223714D02*
X184833047Y-101271333D01*
X151955619Y-82662095D02*
X150955619Y-82662095D01*
X150955619Y-82662095D02*
X151669904Y-82995428D01*
X151669904Y-82995428D02*
X150955619Y-83328761D01*
X150955619Y-83328761D02*
X151955619Y-83328761D01*
X150955619Y-83709714D02*
X150955619Y-84328761D01*
X150955619Y-84328761D02*
X151336571Y-83995428D01*
X151336571Y-83995428D02*
X151336571Y-84138285D01*
X151336571Y-84138285D02*
X151384190Y-84233523D01*
X151384190Y-84233523D02*
X151431809Y-84281142D01*
X151431809Y-84281142D02*
X151527047Y-84328761D01*
X151527047Y-84328761D02*
X151765142Y-84328761D01*
X151765142Y-84328761D02*
X151860380Y-84281142D01*
X151860380Y-84281142D02*
X151908000Y-84233523D01*
X151908000Y-84233523D02*
X151955619Y-84138285D01*
X151955619Y-84138285D02*
X151955619Y-83852571D01*
X151955619Y-83852571D02*
X151908000Y-83757333D01*
X151908000Y-83757333D02*
X151860380Y-83709714D01*
X152050857Y-84519238D02*
X152050857Y-85281142D01*
X151955619Y-85519238D02*
X150955619Y-85519238D01*
X151955619Y-85995428D02*
X150955619Y-85995428D01*
X150955619Y-85995428D02*
X151955619Y-86566856D01*
X151955619Y-86566856D02*
X150955619Y-86566856D01*
X151955619Y-87566856D02*
X151955619Y-86995428D01*
X151955619Y-87281142D02*
X150955619Y-87281142D01*
X150955619Y-87281142D02*
X151098476Y-87185904D01*
X151098476Y-87185904D02*
X151193714Y-87090666D01*
X151193714Y-87090666D02*
X151241333Y-86995428D01*
X204882761Y-93873619D02*
X204311333Y-93873619D01*
X204597047Y-94873619D02*
X204597047Y-93873619D01*
X203977999Y-94873619D02*
X203977999Y-93873619D01*
X203977999Y-93873619D02*
X203597047Y-93873619D01*
X203597047Y-93873619D02*
X203501809Y-93921238D01*
X203501809Y-93921238D02*
X203454190Y-93968857D01*
X203454190Y-93968857D02*
X203406571Y-94064095D01*
X203406571Y-94064095D02*
X203406571Y-94206952D01*
X203406571Y-94206952D02*
X203454190Y-94302190D01*
X203454190Y-94302190D02*
X203501809Y-94349809D01*
X203501809Y-94349809D02*
X203597047Y-94397428D01*
X203597047Y-94397428D02*
X203977999Y-94397428D01*
X202549428Y-94206952D02*
X202549428Y-94873619D01*
X202787523Y-93826000D02*
X203025618Y-94540285D01*
X203025618Y-94540285D02*
X202406571Y-94540285D01*
X128031904Y-117479619D02*
X128031904Y-116479619D01*
X128031904Y-116479619D02*
X127698571Y-117193904D01*
X127698571Y-117193904D02*
X127365238Y-116479619D01*
X127365238Y-116479619D02*
X127365238Y-117479619D01*
X126365238Y-117479619D02*
X126936666Y-117479619D01*
X126650952Y-117479619D02*
X126650952Y-116479619D01*
X126650952Y-116479619D02*
X126746190Y-116622476D01*
X126746190Y-116622476D02*
X126841428Y-116717714D01*
X126841428Y-116717714D02*
X126936666Y-116765333D01*
X126174762Y-117574857D02*
X125412857Y-117574857D01*
X125174761Y-117479619D02*
X125174761Y-116479619D01*
X124698571Y-117479619D02*
X124698571Y-116479619D01*
X124698571Y-116479619D02*
X124127143Y-117479619D01*
X124127143Y-117479619D02*
X124127143Y-116479619D01*
X123698571Y-116574857D02*
X123650952Y-116527238D01*
X123650952Y-116527238D02*
X123555714Y-116479619D01*
X123555714Y-116479619D02*
X123317619Y-116479619D01*
X123317619Y-116479619D02*
X123222381Y-116527238D01*
X123222381Y-116527238D02*
X123174762Y-116574857D01*
X123174762Y-116574857D02*
X123127143Y-116670095D01*
X123127143Y-116670095D02*
X123127143Y-116765333D01*
X123127143Y-116765333D02*
X123174762Y-116908190D01*
X123174762Y-116908190D02*
X123746190Y-117479619D01*
X123746190Y-117479619D02*
X123127143Y-117479619D01*
X209867523Y-102954000D02*
X209724666Y-103001619D01*
X209724666Y-103001619D02*
X209486571Y-103001619D01*
X209486571Y-103001619D02*
X209391333Y-102954000D01*
X209391333Y-102954000D02*
X209343714Y-102906380D01*
X209343714Y-102906380D02*
X209296095Y-102811142D01*
X209296095Y-102811142D02*
X209296095Y-102715904D01*
X209296095Y-102715904D02*
X209343714Y-102620666D01*
X209343714Y-102620666D02*
X209391333Y-102573047D01*
X209391333Y-102573047D02*
X209486571Y-102525428D01*
X209486571Y-102525428D02*
X209677047Y-102477809D01*
X209677047Y-102477809D02*
X209772285Y-102430190D01*
X209772285Y-102430190D02*
X209819904Y-102382571D01*
X209819904Y-102382571D02*
X209867523Y-102287333D01*
X209867523Y-102287333D02*
X209867523Y-102192095D01*
X209867523Y-102192095D02*
X209819904Y-102096857D01*
X209819904Y-102096857D02*
X209772285Y-102049238D01*
X209772285Y-102049238D02*
X209677047Y-102001619D01*
X209677047Y-102001619D02*
X209438952Y-102001619D01*
X209438952Y-102001619D02*
X209296095Y-102049238D01*
X208962761Y-102001619D02*
X208724666Y-103001619D01*
X208724666Y-103001619D02*
X208534190Y-102287333D01*
X208534190Y-102287333D02*
X208343714Y-103001619D01*
X208343714Y-103001619D02*
X208105619Y-102001619D01*
X188880761Y-90063619D02*
X188309333Y-90063619D01*
X188595047Y-91063619D02*
X188595047Y-90063619D01*
X187975999Y-91063619D02*
X187975999Y-90063619D01*
X187975999Y-90063619D02*
X187595047Y-90063619D01*
X187595047Y-90063619D02*
X187499809Y-90111238D01*
X187499809Y-90111238D02*
X187452190Y-90158857D01*
X187452190Y-90158857D02*
X187404571Y-90254095D01*
X187404571Y-90254095D02*
X187404571Y-90396952D01*
X187404571Y-90396952D02*
X187452190Y-90492190D01*
X187452190Y-90492190D02*
X187499809Y-90539809D01*
X187499809Y-90539809D02*
X187595047Y-90587428D01*
X187595047Y-90587428D02*
X187975999Y-90587428D01*
X186452190Y-91063619D02*
X187023618Y-91063619D01*
X186737904Y-91063619D02*
X186737904Y-90063619D01*
X186737904Y-90063619D02*
X186833142Y-90206476D01*
X186833142Y-90206476D02*
X186928380Y-90301714D01*
X186928380Y-90301714D02*
X187023618Y-90349333D01*
X185595047Y-90396952D02*
X185595047Y-91063619D01*
X185833142Y-90016000D02*
X186071237Y-90730285D01*
X186071237Y-90730285D02*
X185452190Y-90730285D01*
X185087523Y-111015904D02*
X184611333Y-111015904D01*
X185182761Y-111301619D02*
X184849428Y-110301619D01*
X184849428Y-110301619D02*
X184516095Y-111301619D01*
X183992285Y-110301619D02*
X183897047Y-110301619D01*
X183897047Y-110301619D02*
X183801809Y-110349238D01*
X183801809Y-110349238D02*
X183754190Y-110396857D01*
X183754190Y-110396857D02*
X183706571Y-110492095D01*
X183706571Y-110492095D02*
X183658952Y-110682571D01*
X183658952Y-110682571D02*
X183658952Y-110920666D01*
X183658952Y-110920666D02*
X183706571Y-111111142D01*
X183706571Y-111111142D02*
X183754190Y-111206380D01*
X183754190Y-111206380D02*
X183801809Y-111254000D01*
X183801809Y-111254000D02*
X183897047Y-111301619D01*
X183897047Y-111301619D02*
X183992285Y-111301619D01*
X183992285Y-111301619D02*
X184087523Y-111254000D01*
X184087523Y-111254000D02*
X184135142Y-111206380D01*
X184135142Y-111206380D02*
X184182761Y-111111142D01*
X184182761Y-111111142D02*
X184230380Y-110920666D01*
X184230380Y-110920666D02*
X184230380Y-110682571D01*
X184230380Y-110682571D02*
X184182761Y-110492095D01*
X184182761Y-110492095D02*
X184135142Y-110396857D01*
X184135142Y-110396857D02*
X184087523Y-110349238D01*
X184087523Y-110349238D02*
X183992285Y-110301619D01*
X196335142Y-102301619D02*
X195716095Y-102301619D01*
X195716095Y-102301619D02*
X196049428Y-102682571D01*
X196049428Y-102682571D02*
X195906571Y-102682571D01*
X195906571Y-102682571D02*
X195811333Y-102730190D01*
X195811333Y-102730190D02*
X195763714Y-102777809D01*
X195763714Y-102777809D02*
X195716095Y-102873047D01*
X195716095Y-102873047D02*
X195716095Y-103111142D01*
X195716095Y-103111142D02*
X195763714Y-103206380D01*
X195763714Y-103206380D02*
X195811333Y-103254000D01*
X195811333Y-103254000D02*
X195906571Y-103301619D01*
X195906571Y-103301619D02*
X196192285Y-103301619D01*
X196192285Y-103301619D02*
X196287523Y-103254000D01*
X196287523Y-103254000D02*
X196335142Y-103206380D01*
X195239904Y-103254000D02*
X195239904Y-103301619D01*
X195239904Y-103301619D02*
X195287523Y-103396857D01*
X195287523Y-103396857D02*
X195335142Y-103444476D01*
X194906571Y-102301619D02*
X194287524Y-102301619D01*
X194287524Y-102301619D02*
X194620857Y-102682571D01*
X194620857Y-102682571D02*
X194478000Y-102682571D01*
X194478000Y-102682571D02*
X194382762Y-102730190D01*
X194382762Y-102730190D02*
X194335143Y-102777809D01*
X194335143Y-102777809D02*
X194287524Y-102873047D01*
X194287524Y-102873047D02*
X194287524Y-103111142D01*
X194287524Y-103111142D02*
X194335143Y-103206380D01*
X194335143Y-103206380D02*
X194382762Y-103254000D01*
X194382762Y-103254000D02*
X194478000Y-103301619D01*
X194478000Y-103301619D02*
X194763714Y-103301619D01*
X194763714Y-103301619D02*
X194858952Y-103254000D01*
X194858952Y-103254000D02*
X194906571Y-103206380D01*
X194001809Y-102301619D02*
X193668476Y-103301619D01*
X193668476Y-103301619D02*
X193335143Y-102301619D01*
X142447761Y-106043619D02*
X142447761Y-105043619D01*
X142019190Y-105138857D02*
X141971571Y-105091238D01*
X141971571Y-105091238D02*
X141876333Y-105043619D01*
X141876333Y-105043619D02*
X141638238Y-105043619D01*
X141638238Y-105043619D02*
X141543000Y-105091238D01*
X141543000Y-105091238D02*
X141495381Y-105138857D01*
X141495381Y-105138857D02*
X141447762Y-105234095D01*
X141447762Y-105234095D02*
X141447762Y-105329333D01*
X141447762Y-105329333D02*
X141495381Y-105472190D01*
X141495381Y-105472190D02*
X142066809Y-106043619D01*
X142066809Y-106043619D02*
X141447762Y-106043619D01*
X140447762Y-105948380D02*
X140495381Y-105996000D01*
X140495381Y-105996000D02*
X140638238Y-106043619D01*
X140638238Y-106043619D02*
X140733476Y-106043619D01*
X140733476Y-106043619D02*
X140876333Y-105996000D01*
X140876333Y-105996000D02*
X140971571Y-105900761D01*
X140971571Y-105900761D02*
X141019190Y-105805523D01*
X141019190Y-105805523D02*
X141066809Y-105615047D01*
X141066809Y-105615047D02*
X141066809Y-105472190D01*
X141066809Y-105472190D02*
X141019190Y-105281714D01*
X141019190Y-105281714D02*
X140971571Y-105186476D01*
X140971571Y-105186476D02*
X140876333Y-105091238D01*
X140876333Y-105091238D02*
X140733476Y-105043619D01*
X140733476Y-105043619D02*
X140638238Y-105043619D01*
X140638238Y-105043619D02*
X140495381Y-105091238D01*
X140495381Y-105091238D02*
X140447762Y-105138857D01*
X140257286Y-106138857D02*
X139495381Y-106138857D01*
X139352523Y-105043619D02*
X138733476Y-105043619D01*
X138733476Y-105043619D02*
X139066809Y-105424571D01*
X139066809Y-105424571D02*
X138923952Y-105424571D01*
X138923952Y-105424571D02*
X138828714Y-105472190D01*
X138828714Y-105472190D02*
X138781095Y-105519809D01*
X138781095Y-105519809D02*
X138733476Y-105615047D01*
X138733476Y-105615047D02*
X138733476Y-105853142D01*
X138733476Y-105853142D02*
X138781095Y-105948380D01*
X138781095Y-105948380D02*
X138828714Y-105996000D01*
X138828714Y-105996000D02*
X138923952Y-106043619D01*
X138923952Y-106043619D02*
X139209666Y-106043619D01*
X139209666Y-106043619D02*
X139304904Y-105996000D01*
X139304904Y-105996000D02*
X139352523Y-105948380D01*
X154555619Y-82662095D02*
X153555619Y-82662095D01*
X153555619Y-82662095D02*
X154269904Y-82995428D01*
X154269904Y-82995428D02*
X153555619Y-83328761D01*
X153555619Y-83328761D02*
X154555619Y-83328761D01*
X153555619Y-83709714D02*
X153555619Y-84328761D01*
X153555619Y-84328761D02*
X153936571Y-83995428D01*
X153936571Y-83995428D02*
X153936571Y-84138285D01*
X153936571Y-84138285D02*
X153984190Y-84233523D01*
X153984190Y-84233523D02*
X154031809Y-84281142D01*
X154031809Y-84281142D02*
X154127047Y-84328761D01*
X154127047Y-84328761D02*
X154365142Y-84328761D01*
X154365142Y-84328761D02*
X154460380Y-84281142D01*
X154460380Y-84281142D02*
X154508000Y-84233523D01*
X154508000Y-84233523D02*
X154555619Y-84138285D01*
X154555619Y-84138285D02*
X154555619Y-83852571D01*
X154555619Y-83852571D02*
X154508000Y-83757333D01*
X154508000Y-83757333D02*
X154460380Y-83709714D01*
X154650857Y-84519238D02*
X154650857Y-85281142D01*
X154555619Y-85519238D02*
X153555619Y-85519238D01*
X154555619Y-85995428D02*
X153555619Y-85995428D01*
X153555619Y-85995428D02*
X154555619Y-86566856D01*
X154555619Y-86566856D02*
X153555619Y-86566856D01*
X153650857Y-86995428D02*
X153603238Y-87043047D01*
X153603238Y-87043047D02*
X153555619Y-87138285D01*
X153555619Y-87138285D02*
X153555619Y-87376380D01*
X153555619Y-87376380D02*
X153603238Y-87471618D01*
X153603238Y-87471618D02*
X153650857Y-87519237D01*
X153650857Y-87519237D02*
X153746095Y-87566856D01*
X153746095Y-87566856D02*
X153841333Y-87566856D01*
X153841333Y-87566856D02*
X153984190Y-87519237D01*
X153984190Y-87519237D02*
X154555619Y-86947809D01*
X154555619Y-86947809D02*
X154555619Y-87566856D01*
X138471304Y-91962666D02*
X137709400Y-91962666D01*
X138090352Y-92343619D02*
X138090352Y-91581714D01*
X136709400Y-92343619D02*
X137280828Y-92343619D01*
X136995114Y-92343619D02*
X136995114Y-91343619D01*
X136995114Y-91343619D02*
X137090352Y-91486476D01*
X137090352Y-91486476D02*
X137185590Y-91581714D01*
X137185590Y-91581714D02*
X137280828Y-91629333D01*
X136328447Y-91438857D02*
X136280828Y-91391238D01*
X136280828Y-91391238D02*
X136185590Y-91343619D01*
X136185590Y-91343619D02*
X135947495Y-91343619D01*
X135947495Y-91343619D02*
X135852257Y-91391238D01*
X135852257Y-91391238D02*
X135804638Y-91438857D01*
X135804638Y-91438857D02*
X135757019Y-91534095D01*
X135757019Y-91534095D02*
X135757019Y-91629333D01*
X135757019Y-91629333D02*
X135804638Y-91772190D01*
X135804638Y-91772190D02*
X136376066Y-92343619D01*
X136376066Y-92343619D02*
X135757019Y-92343619D01*
X135471304Y-91343619D02*
X135137971Y-92343619D01*
X135137971Y-92343619D02*
X134804638Y-91343619D01*
X133264304Y-122315619D02*
X133264304Y-121315619D01*
X133264304Y-121315619D02*
X132930971Y-122029904D01*
X132930971Y-122029904D02*
X132597638Y-121315619D01*
X132597638Y-121315619D02*
X132597638Y-122315619D01*
X131930971Y-121315619D02*
X131835733Y-121315619D01*
X131835733Y-121315619D02*
X131740495Y-121363238D01*
X131740495Y-121363238D02*
X131692876Y-121410857D01*
X131692876Y-121410857D02*
X131645257Y-121506095D01*
X131645257Y-121506095D02*
X131597638Y-121696571D01*
X131597638Y-121696571D02*
X131597638Y-121934666D01*
X131597638Y-121934666D02*
X131645257Y-122125142D01*
X131645257Y-122125142D02*
X131692876Y-122220380D01*
X131692876Y-122220380D02*
X131740495Y-122268000D01*
X131740495Y-122268000D02*
X131835733Y-122315619D01*
X131835733Y-122315619D02*
X131930971Y-122315619D01*
X131930971Y-122315619D02*
X132026209Y-122268000D01*
X132026209Y-122268000D02*
X132073828Y-122220380D01*
X132073828Y-122220380D02*
X132121447Y-122125142D01*
X132121447Y-122125142D02*
X132169066Y-121934666D01*
X132169066Y-121934666D02*
X132169066Y-121696571D01*
X132169066Y-121696571D02*
X132121447Y-121506095D01*
X132121447Y-121506095D02*
X132073828Y-121410857D01*
X132073828Y-121410857D02*
X132026209Y-121363238D01*
X132026209Y-121363238D02*
X131930971Y-121315619D01*
X159155619Y-82662095D02*
X158155619Y-82662095D01*
X158155619Y-82662095D02*
X158869904Y-82995428D01*
X158869904Y-82995428D02*
X158155619Y-83328761D01*
X158155619Y-83328761D02*
X159155619Y-83328761D01*
X158250857Y-83757333D02*
X158203238Y-83804952D01*
X158203238Y-83804952D02*
X158155619Y-83900190D01*
X158155619Y-83900190D02*
X158155619Y-84138285D01*
X158155619Y-84138285D02*
X158203238Y-84233523D01*
X158203238Y-84233523D02*
X158250857Y-84281142D01*
X158250857Y-84281142D02*
X158346095Y-84328761D01*
X158346095Y-84328761D02*
X158441333Y-84328761D01*
X158441333Y-84328761D02*
X158584190Y-84281142D01*
X158584190Y-84281142D02*
X159155619Y-83709714D01*
X159155619Y-83709714D02*
X159155619Y-84328761D01*
X159250857Y-84519238D02*
X159250857Y-85281142D01*
X159155619Y-85519238D02*
X158155619Y-85519238D01*
X159155619Y-85995428D02*
X158155619Y-85995428D01*
X158155619Y-85995428D02*
X159155619Y-86566856D01*
X159155619Y-86566856D02*
X158155619Y-86566856D01*
X158250857Y-86995428D02*
X158203238Y-87043047D01*
X158203238Y-87043047D02*
X158155619Y-87138285D01*
X158155619Y-87138285D02*
X158155619Y-87376380D01*
X158155619Y-87376380D02*
X158203238Y-87471618D01*
X158203238Y-87471618D02*
X158250857Y-87519237D01*
X158250857Y-87519237D02*
X158346095Y-87566856D01*
X158346095Y-87566856D02*
X158441333Y-87566856D01*
X158441333Y-87566856D02*
X158584190Y-87519237D01*
X158584190Y-87519237D02*
X159155619Y-86947809D01*
X159155619Y-86947809D02*
X159155619Y-87566856D01*
X127777904Y-102605219D02*
X127777904Y-101605219D01*
X127777904Y-101605219D02*
X127444571Y-102319504D01*
X127444571Y-102319504D02*
X127111238Y-101605219D01*
X127111238Y-101605219D02*
X127111238Y-102605219D01*
X126730285Y-101605219D02*
X126111238Y-101605219D01*
X126111238Y-101605219D02*
X126444571Y-101986171D01*
X126444571Y-101986171D02*
X126301714Y-101986171D01*
X126301714Y-101986171D02*
X126206476Y-102033790D01*
X126206476Y-102033790D02*
X126158857Y-102081409D01*
X126158857Y-102081409D02*
X126111238Y-102176647D01*
X126111238Y-102176647D02*
X126111238Y-102414742D01*
X126111238Y-102414742D02*
X126158857Y-102509980D01*
X126158857Y-102509980D02*
X126206476Y-102557600D01*
X126206476Y-102557600D02*
X126301714Y-102605219D01*
X126301714Y-102605219D02*
X126587428Y-102605219D01*
X126587428Y-102605219D02*
X126682666Y-102557600D01*
X126682666Y-102557600D02*
X126730285Y-102509980D01*
X125920762Y-102700457D02*
X125158857Y-102700457D01*
X124920761Y-102605219D02*
X124920761Y-101605219D01*
X124444571Y-102605219D02*
X124444571Y-101605219D01*
X124444571Y-101605219D02*
X123873143Y-102605219D01*
X123873143Y-102605219D02*
X123873143Y-101605219D01*
X122873143Y-102605219D02*
X123444571Y-102605219D01*
X123158857Y-102605219D02*
X123158857Y-101605219D01*
X123158857Y-101605219D02*
X123254095Y-101748076D01*
X123254095Y-101748076D02*
X123349333Y-101843314D01*
X123349333Y-101843314D02*
X123444571Y-101890933D01*
X164340190Y-124250952D02*
X164292571Y-124155714D01*
X164292571Y-124155714D02*
X164244952Y-124108095D01*
X164244952Y-124108095D02*
X164149714Y-124060476D01*
X164149714Y-124060476D02*
X164102095Y-124060476D01*
X164102095Y-124060476D02*
X164006857Y-124108095D01*
X164006857Y-124108095D02*
X163959238Y-124155714D01*
X163959238Y-124155714D02*
X163911619Y-124250952D01*
X163911619Y-124250952D02*
X163911619Y-124441428D01*
X163911619Y-124441428D02*
X163959238Y-124536666D01*
X163959238Y-124536666D02*
X164006857Y-124584285D01*
X164006857Y-124584285D02*
X164102095Y-124631904D01*
X164102095Y-124631904D02*
X164149714Y-124631904D01*
X164149714Y-124631904D02*
X164244952Y-124584285D01*
X164244952Y-124584285D02*
X164292571Y-124536666D01*
X164292571Y-124536666D02*
X164340190Y-124441428D01*
X164340190Y-124441428D02*
X164340190Y-124250952D01*
X164340190Y-124250952D02*
X164387809Y-124155714D01*
X164387809Y-124155714D02*
X164435428Y-124108095D01*
X164435428Y-124108095D02*
X164530666Y-124060476D01*
X164530666Y-124060476D02*
X164721142Y-124060476D01*
X164721142Y-124060476D02*
X164816380Y-124108095D01*
X164816380Y-124108095D02*
X164864000Y-124155714D01*
X164864000Y-124155714D02*
X164911619Y-124250952D01*
X164911619Y-124250952D02*
X164911619Y-124441428D01*
X164911619Y-124441428D02*
X164864000Y-124536666D01*
X164864000Y-124536666D02*
X164816380Y-124584285D01*
X164816380Y-124584285D02*
X164721142Y-124631904D01*
X164721142Y-124631904D02*
X164530666Y-124631904D01*
X164530666Y-124631904D02*
X164435428Y-124584285D01*
X164435428Y-124584285D02*
X164387809Y-124536666D01*
X164387809Y-124536666D02*
X164340190Y-124441428D01*
X163911619Y-124917619D02*
X164911619Y-125250952D01*
X164911619Y-125250952D02*
X163911619Y-125584285D01*
X171839904Y-121701619D02*
X171839904Y-120701619D01*
X171411333Y-120796857D02*
X171363714Y-120749238D01*
X171363714Y-120749238D02*
X171268476Y-120701619D01*
X171268476Y-120701619D02*
X171030381Y-120701619D01*
X171030381Y-120701619D02*
X170935143Y-120749238D01*
X170935143Y-120749238D02*
X170887524Y-120796857D01*
X170887524Y-120796857D02*
X170839905Y-120892095D01*
X170839905Y-120892095D02*
X170839905Y-120987333D01*
X170839905Y-120987333D02*
X170887524Y-121130190D01*
X170887524Y-121130190D02*
X171458952Y-121701619D01*
X171458952Y-121701619D02*
X170839905Y-121701619D01*
X169839905Y-121606380D02*
X169887524Y-121654000D01*
X169887524Y-121654000D02*
X170030381Y-121701619D01*
X170030381Y-121701619D02*
X170125619Y-121701619D01*
X170125619Y-121701619D02*
X170268476Y-121654000D01*
X170268476Y-121654000D02*
X170363714Y-121558761D01*
X170363714Y-121558761D02*
X170411333Y-121463523D01*
X170411333Y-121463523D02*
X170458952Y-121273047D01*
X170458952Y-121273047D02*
X170458952Y-121130190D01*
X170458952Y-121130190D02*
X170411333Y-120939714D01*
X170411333Y-120939714D02*
X170363714Y-120844476D01*
X170363714Y-120844476D02*
X170268476Y-120749238D01*
X170268476Y-120749238D02*
X170125619Y-120701619D01*
X170125619Y-120701619D02*
X170030381Y-120701619D01*
X170030381Y-120701619D02*
X169887524Y-120749238D01*
X169887524Y-120749238D02*
X169839905Y-120796857D01*
X169649429Y-121796857D02*
X168887524Y-121796857D01*
X168220857Y-121034952D02*
X168220857Y-121701619D01*
X168458952Y-120654000D02*
X168697047Y-121368285D01*
X168697047Y-121368285D02*
X168078000Y-121368285D01*
X128768504Y-125033419D02*
X128768504Y-124033419D01*
X128768504Y-124033419D02*
X128435171Y-124747704D01*
X128435171Y-124747704D02*
X128101838Y-124033419D01*
X128101838Y-124033419D02*
X128101838Y-125033419D01*
X127435171Y-124033419D02*
X127339933Y-124033419D01*
X127339933Y-124033419D02*
X127244695Y-124081038D01*
X127244695Y-124081038D02*
X127197076Y-124128657D01*
X127197076Y-124128657D02*
X127149457Y-124223895D01*
X127149457Y-124223895D02*
X127101838Y-124414371D01*
X127101838Y-124414371D02*
X127101838Y-124652466D01*
X127101838Y-124652466D02*
X127149457Y-124842942D01*
X127149457Y-124842942D02*
X127197076Y-124938180D01*
X127197076Y-124938180D02*
X127244695Y-124985800D01*
X127244695Y-124985800D02*
X127339933Y-125033419D01*
X127339933Y-125033419D02*
X127435171Y-125033419D01*
X127435171Y-125033419D02*
X127530409Y-124985800D01*
X127530409Y-124985800D02*
X127578028Y-124938180D01*
X127578028Y-124938180D02*
X127625647Y-124842942D01*
X127625647Y-124842942D02*
X127673266Y-124652466D01*
X127673266Y-124652466D02*
X127673266Y-124414371D01*
X127673266Y-124414371D02*
X127625647Y-124223895D01*
X127625647Y-124223895D02*
X127578028Y-124128657D01*
X127578028Y-124128657D02*
X127530409Y-124081038D01*
X127530409Y-124081038D02*
X127435171Y-124033419D01*
X126911362Y-125128657D02*
X126149457Y-125128657D01*
X125911361Y-125033419D02*
X125911361Y-124033419D01*
X125435171Y-125033419D02*
X125435171Y-124033419D01*
X125435171Y-124033419D02*
X124863743Y-125033419D01*
X124863743Y-125033419D02*
X124863743Y-124033419D01*
X124435171Y-124128657D02*
X124387552Y-124081038D01*
X124387552Y-124081038D02*
X124292314Y-124033419D01*
X124292314Y-124033419D02*
X124054219Y-124033419D01*
X124054219Y-124033419D02*
X123958981Y-124081038D01*
X123958981Y-124081038D02*
X123911362Y-124128657D01*
X123911362Y-124128657D02*
X123863743Y-124223895D01*
X123863743Y-124223895D02*
X123863743Y-124319133D01*
X123863743Y-124319133D02*
X123911362Y-124461990D01*
X123911362Y-124461990D02*
X124482790Y-125033419D01*
X124482790Y-125033419D02*
X123863743Y-125033419D01*
X203977904Y-97159619D02*
X203977904Y-96159619D01*
X203977904Y-96159619D02*
X203596952Y-96159619D01*
X203596952Y-96159619D02*
X203501714Y-96207238D01*
X203501714Y-96207238D02*
X203454095Y-96254857D01*
X203454095Y-96254857D02*
X203406476Y-96350095D01*
X203406476Y-96350095D02*
X203406476Y-96492952D01*
X203406476Y-96492952D02*
X203454095Y-96588190D01*
X203454095Y-96588190D02*
X203501714Y-96635809D01*
X203501714Y-96635809D02*
X203596952Y-96683428D01*
X203596952Y-96683428D02*
X203977904Y-96683428D01*
X202454095Y-96207238D02*
X202549333Y-96159619D01*
X202549333Y-96159619D02*
X202692190Y-96159619D01*
X202692190Y-96159619D02*
X202835047Y-96207238D01*
X202835047Y-96207238D02*
X202930285Y-96302476D01*
X202930285Y-96302476D02*
X202977904Y-96397714D01*
X202977904Y-96397714D02*
X203025523Y-96588190D01*
X203025523Y-96588190D02*
X203025523Y-96731047D01*
X203025523Y-96731047D02*
X202977904Y-96921523D01*
X202977904Y-96921523D02*
X202930285Y-97016761D01*
X202930285Y-97016761D02*
X202835047Y-97112000D01*
X202835047Y-97112000D02*
X202692190Y-97159619D01*
X202692190Y-97159619D02*
X202596952Y-97159619D01*
X202596952Y-97159619D02*
X202454095Y-97112000D01*
X202454095Y-97112000D02*
X202406476Y-97064380D01*
X202406476Y-97064380D02*
X202406476Y-96731047D01*
X202406476Y-96731047D02*
X202596952Y-96731047D01*
X206708000Y-82614476D02*
X206755619Y-82757333D01*
X206755619Y-82757333D02*
X206755619Y-82995428D01*
X206755619Y-82995428D02*
X206708000Y-83090666D01*
X206708000Y-83090666D02*
X206660380Y-83138285D01*
X206660380Y-83138285D02*
X206565142Y-83185904D01*
X206565142Y-83185904D02*
X206469904Y-83185904D01*
X206469904Y-83185904D02*
X206374666Y-83138285D01*
X206374666Y-83138285D02*
X206327047Y-83090666D01*
X206327047Y-83090666D02*
X206279428Y-82995428D01*
X206279428Y-82995428D02*
X206231809Y-82804952D01*
X206231809Y-82804952D02*
X206184190Y-82709714D01*
X206184190Y-82709714D02*
X206136571Y-82662095D01*
X206136571Y-82662095D02*
X206041333Y-82614476D01*
X206041333Y-82614476D02*
X205946095Y-82614476D01*
X205946095Y-82614476D02*
X205850857Y-82662095D01*
X205850857Y-82662095D02*
X205803238Y-82709714D01*
X205803238Y-82709714D02*
X205755619Y-82804952D01*
X205755619Y-82804952D02*
X205755619Y-83043047D01*
X205755619Y-83043047D02*
X205803238Y-83185904D01*
X206660380Y-84185904D02*
X206708000Y-84138285D01*
X206708000Y-84138285D02*
X206755619Y-83995428D01*
X206755619Y-83995428D02*
X206755619Y-83900190D01*
X206755619Y-83900190D02*
X206708000Y-83757333D01*
X206708000Y-83757333D02*
X206612761Y-83662095D01*
X206612761Y-83662095D02*
X206517523Y-83614476D01*
X206517523Y-83614476D02*
X206327047Y-83566857D01*
X206327047Y-83566857D02*
X206184190Y-83566857D01*
X206184190Y-83566857D02*
X205993714Y-83614476D01*
X205993714Y-83614476D02*
X205898476Y-83662095D01*
X205898476Y-83662095D02*
X205803238Y-83757333D01*
X205803238Y-83757333D02*
X205755619Y-83900190D01*
X205755619Y-83900190D02*
X205755619Y-83995428D01*
X205755619Y-83995428D02*
X205803238Y-84138285D01*
X205803238Y-84138285D02*
X205850857Y-84185904D01*
X206755619Y-85090666D02*
X206755619Y-84614476D01*
X206755619Y-84614476D02*
X205755619Y-84614476D01*
X173555619Y-82462095D02*
X172555619Y-82462095D01*
X172650857Y-82890666D02*
X172603238Y-82938285D01*
X172603238Y-82938285D02*
X172555619Y-83033523D01*
X172555619Y-83033523D02*
X172555619Y-83271618D01*
X172555619Y-83271618D02*
X172603238Y-83366856D01*
X172603238Y-83366856D02*
X172650857Y-83414475D01*
X172650857Y-83414475D02*
X172746095Y-83462094D01*
X172746095Y-83462094D02*
X172841333Y-83462094D01*
X172841333Y-83462094D02*
X172984190Y-83414475D01*
X172984190Y-83414475D02*
X173555619Y-82843047D01*
X173555619Y-82843047D02*
X173555619Y-83462094D01*
X173460380Y-84462094D02*
X173508000Y-84414475D01*
X173508000Y-84414475D02*
X173555619Y-84271618D01*
X173555619Y-84271618D02*
X173555619Y-84176380D01*
X173555619Y-84176380D02*
X173508000Y-84033523D01*
X173508000Y-84033523D02*
X173412761Y-83938285D01*
X173412761Y-83938285D02*
X173317523Y-83890666D01*
X173317523Y-83890666D02*
X173127047Y-83843047D01*
X173127047Y-83843047D02*
X172984190Y-83843047D01*
X172984190Y-83843047D02*
X172793714Y-83890666D01*
X172793714Y-83890666D02*
X172698476Y-83938285D01*
X172698476Y-83938285D02*
X172603238Y-84033523D01*
X172603238Y-84033523D02*
X172555619Y-84176380D01*
X172555619Y-84176380D02*
X172555619Y-84271618D01*
X172555619Y-84271618D02*
X172603238Y-84414475D01*
X172603238Y-84414475D02*
X172650857Y-84462094D01*
X173650857Y-84652571D02*
X173650857Y-85414475D01*
X173555619Y-86223999D02*
X173079428Y-85890666D01*
X173555619Y-85652571D02*
X172555619Y-85652571D01*
X172555619Y-85652571D02*
X172555619Y-86033523D01*
X172555619Y-86033523D02*
X172603238Y-86128761D01*
X172603238Y-86128761D02*
X172650857Y-86176380D01*
X172650857Y-86176380D02*
X172746095Y-86223999D01*
X172746095Y-86223999D02*
X172888952Y-86223999D01*
X172888952Y-86223999D02*
X172984190Y-86176380D01*
X172984190Y-86176380D02*
X173031809Y-86128761D01*
X173031809Y-86128761D02*
X173079428Y-86033523D01*
X173079428Y-86033523D02*
X173079428Y-85652571D01*
X173031809Y-86652571D02*
X173031809Y-86985904D01*
X173555619Y-87128761D02*
X173555619Y-86652571D01*
X173555619Y-86652571D02*
X172555619Y-86652571D01*
X172555619Y-86652571D02*
X172555619Y-87128761D01*
X173508000Y-87509714D02*
X173555619Y-87652571D01*
X173555619Y-87652571D02*
X173555619Y-87890666D01*
X173555619Y-87890666D02*
X173508000Y-87985904D01*
X173508000Y-87985904D02*
X173460380Y-88033523D01*
X173460380Y-88033523D02*
X173365142Y-88081142D01*
X173365142Y-88081142D02*
X173269904Y-88081142D01*
X173269904Y-88081142D02*
X173174666Y-88033523D01*
X173174666Y-88033523D02*
X173127047Y-87985904D01*
X173127047Y-87985904D02*
X173079428Y-87890666D01*
X173079428Y-87890666D02*
X173031809Y-87700190D01*
X173031809Y-87700190D02*
X172984190Y-87604952D01*
X172984190Y-87604952D02*
X172936571Y-87557333D01*
X172936571Y-87557333D02*
X172841333Y-87509714D01*
X172841333Y-87509714D02*
X172746095Y-87509714D01*
X172746095Y-87509714D02*
X172650857Y-87557333D01*
X172650857Y-87557333D02*
X172603238Y-87604952D01*
X172603238Y-87604952D02*
X172555619Y-87700190D01*
X172555619Y-87700190D02*
X172555619Y-87938285D01*
X172555619Y-87938285D02*
X172603238Y-88081142D01*
X173031809Y-88509714D02*
X173031809Y-88843047D01*
X173555619Y-88985904D02*
X173555619Y-88509714D01*
X173555619Y-88509714D02*
X172555619Y-88509714D01*
X172555619Y-88509714D02*
X172555619Y-88985904D01*
X172555619Y-89271619D02*
X172555619Y-89843047D01*
X173555619Y-89557333D02*
X172555619Y-89557333D01*
X133010304Y-107253419D02*
X133010304Y-106253419D01*
X133010304Y-106253419D02*
X132676971Y-106967704D01*
X132676971Y-106967704D02*
X132343638Y-106253419D01*
X132343638Y-106253419D02*
X132343638Y-107253419D01*
X131915066Y-106348657D02*
X131867447Y-106301038D01*
X131867447Y-106301038D02*
X131772209Y-106253419D01*
X131772209Y-106253419D02*
X131534114Y-106253419D01*
X131534114Y-106253419D02*
X131438876Y-106301038D01*
X131438876Y-106301038D02*
X131391257Y-106348657D01*
X131391257Y-106348657D02*
X131343638Y-106443895D01*
X131343638Y-106443895D02*
X131343638Y-106539133D01*
X131343638Y-106539133D02*
X131391257Y-106681990D01*
X131391257Y-106681990D02*
X131962685Y-107253419D01*
X131962685Y-107253419D02*
X131343638Y-107253419D01*
X207200571Y-104509809D02*
X207057714Y-104557428D01*
X207057714Y-104557428D02*
X207010095Y-104605047D01*
X207010095Y-104605047D02*
X206962476Y-104700285D01*
X206962476Y-104700285D02*
X206962476Y-104843142D01*
X206962476Y-104843142D02*
X207010095Y-104938380D01*
X207010095Y-104938380D02*
X207057714Y-104986000D01*
X207057714Y-104986000D02*
X207152952Y-105033619D01*
X207152952Y-105033619D02*
X207533904Y-105033619D01*
X207533904Y-105033619D02*
X207533904Y-104033619D01*
X207533904Y-104033619D02*
X207200571Y-104033619D01*
X207200571Y-104033619D02*
X207105333Y-104081238D01*
X207105333Y-104081238D02*
X207057714Y-104128857D01*
X207057714Y-104128857D02*
X207010095Y-104224095D01*
X207010095Y-104224095D02*
X207010095Y-104319333D01*
X207010095Y-104319333D02*
X207057714Y-104414571D01*
X207057714Y-104414571D02*
X207105333Y-104462190D01*
X207105333Y-104462190D02*
X207200571Y-104509809D01*
X207200571Y-104509809D02*
X207533904Y-104509809D01*
X206391047Y-105033619D02*
X206486285Y-104986000D01*
X206486285Y-104986000D02*
X206533904Y-104938380D01*
X206533904Y-104938380D02*
X206581523Y-104843142D01*
X206581523Y-104843142D02*
X206581523Y-104557428D01*
X206581523Y-104557428D02*
X206533904Y-104462190D01*
X206533904Y-104462190D02*
X206486285Y-104414571D01*
X206486285Y-104414571D02*
X206391047Y-104366952D01*
X206391047Y-104366952D02*
X206248190Y-104366952D01*
X206248190Y-104366952D02*
X206152952Y-104414571D01*
X206152952Y-104414571D02*
X206105333Y-104462190D01*
X206105333Y-104462190D02*
X206057714Y-104557428D01*
X206057714Y-104557428D02*
X206057714Y-104843142D01*
X206057714Y-104843142D02*
X206105333Y-104938380D01*
X206105333Y-104938380D02*
X206152952Y-104986000D01*
X206152952Y-104986000D02*
X206248190Y-105033619D01*
X206248190Y-105033619D02*
X206391047Y-105033619D01*
X205486285Y-105033619D02*
X205581523Y-104986000D01*
X205581523Y-104986000D02*
X205629142Y-104938380D01*
X205629142Y-104938380D02*
X205676761Y-104843142D01*
X205676761Y-104843142D02*
X205676761Y-104557428D01*
X205676761Y-104557428D02*
X205629142Y-104462190D01*
X205629142Y-104462190D02*
X205581523Y-104414571D01*
X205581523Y-104414571D02*
X205486285Y-104366952D01*
X205486285Y-104366952D02*
X205343428Y-104366952D01*
X205343428Y-104366952D02*
X205248190Y-104414571D01*
X205248190Y-104414571D02*
X205200571Y-104462190D01*
X205200571Y-104462190D02*
X205152952Y-104557428D01*
X205152952Y-104557428D02*
X205152952Y-104843142D01*
X205152952Y-104843142D02*
X205200571Y-104938380D01*
X205200571Y-104938380D02*
X205248190Y-104986000D01*
X205248190Y-104986000D02*
X205343428Y-105033619D01*
X205343428Y-105033619D02*
X205486285Y-105033619D01*
X204867237Y-104366952D02*
X204486285Y-104366952D01*
X204724380Y-104033619D02*
X204724380Y-104890761D01*
X204724380Y-104890761D02*
X204676761Y-104986000D01*
X204676761Y-104986000D02*
X204581523Y-105033619D01*
X204581523Y-105033619D02*
X204486285Y-105033619D01*
X194963714Y-104901619D02*
X195439904Y-104901619D01*
X195439904Y-104901619D02*
X195487523Y-105377809D01*
X195487523Y-105377809D02*
X195439904Y-105330190D01*
X195439904Y-105330190D02*
X195344666Y-105282571D01*
X195344666Y-105282571D02*
X195106571Y-105282571D01*
X195106571Y-105282571D02*
X195011333Y-105330190D01*
X195011333Y-105330190D02*
X194963714Y-105377809D01*
X194963714Y-105377809D02*
X194916095Y-105473047D01*
X194916095Y-105473047D02*
X194916095Y-105711142D01*
X194916095Y-105711142D02*
X194963714Y-105806380D01*
X194963714Y-105806380D02*
X195011333Y-105854000D01*
X195011333Y-105854000D02*
X195106571Y-105901619D01*
X195106571Y-105901619D02*
X195344666Y-105901619D01*
X195344666Y-105901619D02*
X195439904Y-105854000D01*
X195439904Y-105854000D02*
X195487523Y-105806380D01*
X194630380Y-104901619D02*
X194297047Y-105901619D01*
X194297047Y-105901619D02*
X193963714Y-104901619D01*
X146431047Y-104208190D02*
X146526285Y-104160571D01*
X146526285Y-104160571D02*
X146573904Y-104112952D01*
X146573904Y-104112952D02*
X146621523Y-104017714D01*
X146621523Y-104017714D02*
X146621523Y-103970095D01*
X146621523Y-103970095D02*
X146573904Y-103874857D01*
X146573904Y-103874857D02*
X146526285Y-103827238D01*
X146526285Y-103827238D02*
X146431047Y-103779619D01*
X146431047Y-103779619D02*
X146240571Y-103779619D01*
X146240571Y-103779619D02*
X146145333Y-103827238D01*
X146145333Y-103827238D02*
X146097714Y-103874857D01*
X146097714Y-103874857D02*
X146050095Y-103970095D01*
X146050095Y-103970095D02*
X146050095Y-104017714D01*
X146050095Y-104017714D02*
X146097714Y-104112952D01*
X146097714Y-104112952D02*
X146145333Y-104160571D01*
X146145333Y-104160571D02*
X146240571Y-104208190D01*
X146240571Y-104208190D02*
X146431047Y-104208190D01*
X146431047Y-104208190D02*
X146526285Y-104255809D01*
X146526285Y-104255809D02*
X146573904Y-104303428D01*
X146573904Y-104303428D02*
X146621523Y-104398666D01*
X146621523Y-104398666D02*
X146621523Y-104589142D01*
X146621523Y-104589142D02*
X146573904Y-104684380D01*
X146573904Y-104684380D02*
X146526285Y-104732000D01*
X146526285Y-104732000D02*
X146431047Y-104779619D01*
X146431047Y-104779619D02*
X146240571Y-104779619D01*
X146240571Y-104779619D02*
X146145333Y-104732000D01*
X146145333Y-104732000D02*
X146097714Y-104684380D01*
X146097714Y-104684380D02*
X146050095Y-104589142D01*
X146050095Y-104589142D02*
X146050095Y-104398666D01*
X146050095Y-104398666D02*
X146097714Y-104303428D01*
X146097714Y-104303428D02*
X146145333Y-104255809D01*
X146145333Y-104255809D02*
X146240571Y-104208190D01*
X145764380Y-103779619D02*
X145431047Y-104779619D01*
X145431047Y-104779619D02*
X145097714Y-103779619D01*
X204108000Y-82614476D02*
X204155619Y-82757333D01*
X204155619Y-82757333D02*
X204155619Y-82995428D01*
X204155619Y-82995428D02*
X204108000Y-83090666D01*
X204108000Y-83090666D02*
X204060380Y-83138285D01*
X204060380Y-83138285D02*
X203965142Y-83185904D01*
X203965142Y-83185904D02*
X203869904Y-83185904D01*
X203869904Y-83185904D02*
X203774666Y-83138285D01*
X203774666Y-83138285D02*
X203727047Y-83090666D01*
X203727047Y-83090666D02*
X203679428Y-82995428D01*
X203679428Y-82995428D02*
X203631809Y-82804952D01*
X203631809Y-82804952D02*
X203584190Y-82709714D01*
X203584190Y-82709714D02*
X203536571Y-82662095D01*
X203536571Y-82662095D02*
X203441333Y-82614476D01*
X203441333Y-82614476D02*
X203346095Y-82614476D01*
X203346095Y-82614476D02*
X203250857Y-82662095D01*
X203250857Y-82662095D02*
X203203238Y-82709714D01*
X203203238Y-82709714D02*
X203155619Y-82804952D01*
X203155619Y-82804952D02*
X203155619Y-83043047D01*
X203155619Y-83043047D02*
X203203238Y-83185904D01*
X204155619Y-83614476D02*
X203155619Y-83614476D01*
X203155619Y-83614476D02*
X203155619Y-83852571D01*
X203155619Y-83852571D02*
X203203238Y-83995428D01*
X203203238Y-83995428D02*
X203298476Y-84090666D01*
X203298476Y-84090666D02*
X203393714Y-84138285D01*
X203393714Y-84138285D02*
X203584190Y-84185904D01*
X203584190Y-84185904D02*
X203727047Y-84185904D01*
X203727047Y-84185904D02*
X203917523Y-84138285D01*
X203917523Y-84138285D02*
X204012761Y-84090666D01*
X204012761Y-84090666D02*
X204108000Y-83995428D01*
X204108000Y-83995428D02*
X204155619Y-83852571D01*
X204155619Y-83852571D02*
X204155619Y-83614476D01*
X203869904Y-84566857D02*
X203869904Y-85043047D01*
X204155619Y-84471619D02*
X203155619Y-84804952D01*
X203155619Y-84804952D02*
X204155619Y-85138285D01*
X181879904Y-101985619D02*
X181879904Y-100985619D01*
X181451333Y-101080857D02*
X181403714Y-101033238D01*
X181403714Y-101033238D02*
X181308476Y-100985619D01*
X181308476Y-100985619D02*
X181070381Y-100985619D01*
X181070381Y-100985619D02*
X180975143Y-101033238D01*
X180975143Y-101033238D02*
X180927524Y-101080857D01*
X180927524Y-101080857D02*
X180879905Y-101176095D01*
X180879905Y-101176095D02*
X180879905Y-101271333D01*
X180879905Y-101271333D02*
X180927524Y-101414190D01*
X180927524Y-101414190D02*
X181498952Y-101985619D01*
X181498952Y-101985619D02*
X180879905Y-101985619D01*
X179879905Y-101890380D02*
X179927524Y-101938000D01*
X179927524Y-101938000D02*
X180070381Y-101985619D01*
X180070381Y-101985619D02*
X180165619Y-101985619D01*
X180165619Y-101985619D02*
X180308476Y-101938000D01*
X180308476Y-101938000D02*
X180403714Y-101842761D01*
X180403714Y-101842761D02*
X180451333Y-101747523D01*
X180451333Y-101747523D02*
X180498952Y-101557047D01*
X180498952Y-101557047D02*
X180498952Y-101414190D01*
X180498952Y-101414190D02*
X180451333Y-101223714D01*
X180451333Y-101223714D02*
X180403714Y-101128476D01*
X180403714Y-101128476D02*
X180308476Y-101033238D01*
X180308476Y-101033238D02*
X180165619Y-100985619D01*
X180165619Y-100985619D02*
X180070381Y-100985619D01*
X180070381Y-100985619D02*
X179927524Y-101033238D01*
X179927524Y-101033238D02*
X179879905Y-101080857D01*
X179689429Y-102080857D02*
X178927524Y-102080857D01*
X178737047Y-101080857D02*
X178689428Y-101033238D01*
X178689428Y-101033238D02*
X178594190Y-100985619D01*
X178594190Y-100985619D02*
X178356095Y-100985619D01*
X178356095Y-100985619D02*
X178260857Y-101033238D01*
X178260857Y-101033238D02*
X178213238Y-101080857D01*
X178213238Y-101080857D02*
X178165619Y-101176095D01*
X178165619Y-101176095D02*
X178165619Y-101271333D01*
X178165619Y-101271333D02*
X178213238Y-101414190D01*
X178213238Y-101414190D02*
X178784666Y-101985619D01*
X178784666Y-101985619D02*
X178165619Y-101985619D01*
X182287523Y-111015904D02*
X181811333Y-111015904D01*
X182382761Y-111301619D02*
X182049428Y-110301619D01*
X182049428Y-110301619D02*
X181716095Y-111301619D01*
X181430380Y-110396857D02*
X181382761Y-110349238D01*
X181382761Y-110349238D02*
X181287523Y-110301619D01*
X181287523Y-110301619D02*
X181049428Y-110301619D01*
X181049428Y-110301619D02*
X180954190Y-110349238D01*
X180954190Y-110349238D02*
X180906571Y-110396857D01*
X180906571Y-110396857D02*
X180858952Y-110492095D01*
X180858952Y-110492095D02*
X180858952Y-110587333D01*
X180858952Y-110587333D02*
X180906571Y-110730190D01*
X180906571Y-110730190D02*
X181477999Y-111301619D01*
X181477999Y-111301619D02*
X180858952Y-111301619D01*
X128590704Y-120055019D02*
X128590704Y-119055019D01*
X128590704Y-119055019D02*
X128257371Y-119769304D01*
X128257371Y-119769304D02*
X127924038Y-119055019D01*
X127924038Y-119055019D02*
X127924038Y-120055019D01*
X127257371Y-119055019D02*
X127162133Y-119055019D01*
X127162133Y-119055019D02*
X127066895Y-119102638D01*
X127066895Y-119102638D02*
X127019276Y-119150257D01*
X127019276Y-119150257D02*
X126971657Y-119245495D01*
X126971657Y-119245495D02*
X126924038Y-119435971D01*
X126924038Y-119435971D02*
X126924038Y-119674066D01*
X126924038Y-119674066D02*
X126971657Y-119864542D01*
X126971657Y-119864542D02*
X127019276Y-119959780D01*
X127019276Y-119959780D02*
X127066895Y-120007400D01*
X127066895Y-120007400D02*
X127162133Y-120055019D01*
X127162133Y-120055019D02*
X127257371Y-120055019D01*
X127257371Y-120055019D02*
X127352609Y-120007400D01*
X127352609Y-120007400D02*
X127400228Y-119959780D01*
X127400228Y-119959780D02*
X127447847Y-119864542D01*
X127447847Y-119864542D02*
X127495466Y-119674066D01*
X127495466Y-119674066D02*
X127495466Y-119435971D01*
X127495466Y-119435971D02*
X127447847Y-119245495D01*
X127447847Y-119245495D02*
X127400228Y-119150257D01*
X127400228Y-119150257D02*
X127352609Y-119102638D01*
X127352609Y-119102638D02*
X127257371Y-119055019D01*
X126733562Y-120150257D02*
X125971657Y-120150257D01*
X125733561Y-120055019D02*
X125733561Y-119055019D01*
X125257371Y-120055019D02*
X125257371Y-119055019D01*
X125257371Y-119055019D02*
X124685943Y-120055019D01*
X124685943Y-120055019D02*
X124685943Y-119055019D01*
X124257371Y-119150257D02*
X124209752Y-119102638D01*
X124209752Y-119102638D02*
X124114514Y-119055019D01*
X124114514Y-119055019D02*
X123876419Y-119055019D01*
X123876419Y-119055019D02*
X123781181Y-119102638D01*
X123781181Y-119102638D02*
X123733562Y-119150257D01*
X123733562Y-119150257D02*
X123685943Y-119245495D01*
X123685943Y-119245495D02*
X123685943Y-119340733D01*
X123685943Y-119340733D02*
X123733562Y-119483590D01*
X123733562Y-119483590D02*
X124304990Y-120055019D01*
X124304990Y-120055019D02*
X123685943Y-120055019D01*
X185070761Y-87523619D02*
X184499333Y-87523619D01*
X184785047Y-88523619D02*
X184785047Y-87523619D01*
X184165999Y-88523619D02*
X184165999Y-87523619D01*
X184165999Y-87523619D02*
X183785047Y-87523619D01*
X183785047Y-87523619D02*
X183689809Y-87571238D01*
X183689809Y-87571238D02*
X183642190Y-87618857D01*
X183642190Y-87618857D02*
X183594571Y-87714095D01*
X183594571Y-87714095D02*
X183594571Y-87856952D01*
X183594571Y-87856952D02*
X183642190Y-87952190D01*
X183642190Y-87952190D02*
X183689809Y-87999809D01*
X183689809Y-87999809D02*
X183785047Y-88047428D01*
X183785047Y-88047428D02*
X184165999Y-88047428D01*
X182642190Y-88523619D02*
X183213618Y-88523619D01*
X182927904Y-88523619D02*
X182927904Y-87523619D01*
X182927904Y-87523619D02*
X183023142Y-87666476D01*
X183023142Y-87666476D02*
X183118380Y-87761714D01*
X183118380Y-87761714D02*
X183213618Y-87809333D01*
X182308856Y-87523619D02*
X181689809Y-87523619D01*
X181689809Y-87523619D02*
X182023142Y-87904571D01*
X182023142Y-87904571D02*
X181880285Y-87904571D01*
X181880285Y-87904571D02*
X181785047Y-87952190D01*
X181785047Y-87952190D02*
X181737428Y-87999809D01*
X181737428Y-87999809D02*
X181689809Y-88095047D01*
X181689809Y-88095047D02*
X181689809Y-88333142D01*
X181689809Y-88333142D02*
X181737428Y-88428380D01*
X181737428Y-88428380D02*
X181785047Y-88476000D01*
X181785047Y-88476000D02*
X181880285Y-88523619D01*
X181880285Y-88523619D02*
X182165999Y-88523619D01*
X182165999Y-88523619D02*
X182261237Y-88476000D01*
X182261237Y-88476000D02*
X182308856Y-88428380D01*
X142320761Y-116330619D02*
X142320761Y-115330619D01*
X141892190Y-115425857D02*
X141844571Y-115378238D01*
X141844571Y-115378238D02*
X141749333Y-115330619D01*
X141749333Y-115330619D02*
X141511238Y-115330619D01*
X141511238Y-115330619D02*
X141416000Y-115378238D01*
X141416000Y-115378238D02*
X141368381Y-115425857D01*
X141368381Y-115425857D02*
X141320762Y-115521095D01*
X141320762Y-115521095D02*
X141320762Y-115616333D01*
X141320762Y-115616333D02*
X141368381Y-115759190D01*
X141368381Y-115759190D02*
X141939809Y-116330619D01*
X141939809Y-116330619D02*
X141320762Y-116330619D01*
X140320762Y-116235380D02*
X140368381Y-116283000D01*
X140368381Y-116283000D02*
X140511238Y-116330619D01*
X140511238Y-116330619D02*
X140606476Y-116330619D01*
X140606476Y-116330619D02*
X140749333Y-116283000D01*
X140749333Y-116283000D02*
X140844571Y-116187761D01*
X140844571Y-116187761D02*
X140892190Y-116092523D01*
X140892190Y-116092523D02*
X140939809Y-115902047D01*
X140939809Y-115902047D02*
X140939809Y-115759190D01*
X140939809Y-115759190D02*
X140892190Y-115568714D01*
X140892190Y-115568714D02*
X140844571Y-115473476D01*
X140844571Y-115473476D02*
X140749333Y-115378238D01*
X140749333Y-115378238D02*
X140606476Y-115330619D01*
X140606476Y-115330619D02*
X140511238Y-115330619D01*
X140511238Y-115330619D02*
X140368381Y-115378238D01*
X140368381Y-115378238D02*
X140320762Y-115425857D01*
X140130286Y-116425857D02*
X139368381Y-116425857D01*
X138606476Y-116330619D02*
X139177904Y-116330619D01*
X138892190Y-116330619D02*
X138892190Y-115330619D01*
X138892190Y-115330619D02*
X138987428Y-115473476D01*
X138987428Y-115473476D02*
X139082666Y-115568714D01*
X139082666Y-115568714D02*
X139177904Y-115616333D01*
X179487523Y-111015904D02*
X179011333Y-111015904D01*
X179582761Y-111301619D02*
X179249428Y-110301619D01*
X179249428Y-110301619D02*
X178916095Y-111301619D01*
X178058952Y-111301619D02*
X178630380Y-111301619D01*
X178344666Y-111301619D02*
X178344666Y-110301619D01*
X178344666Y-110301619D02*
X178439904Y-110444476D01*
X178439904Y-110444476D02*
X178535142Y-110539714D01*
X178535142Y-110539714D02*
X178630380Y-110587333D01*
X142828761Y-111250619D02*
X142828761Y-110250619D01*
X142400190Y-110345857D02*
X142352571Y-110298238D01*
X142352571Y-110298238D02*
X142257333Y-110250619D01*
X142257333Y-110250619D02*
X142019238Y-110250619D01*
X142019238Y-110250619D02*
X141924000Y-110298238D01*
X141924000Y-110298238D02*
X141876381Y-110345857D01*
X141876381Y-110345857D02*
X141828762Y-110441095D01*
X141828762Y-110441095D02*
X141828762Y-110536333D01*
X141828762Y-110536333D02*
X141876381Y-110679190D01*
X141876381Y-110679190D02*
X142447809Y-111250619D01*
X142447809Y-111250619D02*
X141828762Y-111250619D01*
X140828762Y-111155380D02*
X140876381Y-111203000D01*
X140876381Y-111203000D02*
X141019238Y-111250619D01*
X141019238Y-111250619D02*
X141114476Y-111250619D01*
X141114476Y-111250619D02*
X141257333Y-111203000D01*
X141257333Y-111203000D02*
X141352571Y-111107761D01*
X141352571Y-111107761D02*
X141400190Y-111012523D01*
X141400190Y-111012523D02*
X141447809Y-110822047D01*
X141447809Y-110822047D02*
X141447809Y-110679190D01*
X141447809Y-110679190D02*
X141400190Y-110488714D01*
X141400190Y-110488714D02*
X141352571Y-110393476D01*
X141352571Y-110393476D02*
X141257333Y-110298238D01*
X141257333Y-110298238D02*
X141114476Y-110250619D01*
X141114476Y-110250619D02*
X141019238Y-110250619D01*
X141019238Y-110250619D02*
X140876381Y-110298238D01*
X140876381Y-110298238D02*
X140828762Y-110345857D01*
X140638286Y-111345857D02*
X139876381Y-111345857D01*
X139685904Y-110345857D02*
X139638285Y-110298238D01*
X139638285Y-110298238D02*
X139543047Y-110250619D01*
X139543047Y-110250619D02*
X139304952Y-110250619D01*
X139304952Y-110250619D02*
X139209714Y-110298238D01*
X139209714Y-110298238D02*
X139162095Y-110345857D01*
X139162095Y-110345857D02*
X139114476Y-110441095D01*
X139114476Y-110441095D02*
X139114476Y-110536333D01*
X139114476Y-110536333D02*
X139162095Y-110679190D01*
X139162095Y-110679190D02*
X139733523Y-111250619D01*
X139733523Y-111250619D02*
X139114476Y-111250619D01*
X177639904Y-121701619D02*
X177639904Y-120701619D01*
X177211333Y-120796857D02*
X177163714Y-120749238D01*
X177163714Y-120749238D02*
X177068476Y-120701619D01*
X177068476Y-120701619D02*
X176830381Y-120701619D01*
X176830381Y-120701619D02*
X176735143Y-120749238D01*
X176735143Y-120749238D02*
X176687524Y-120796857D01*
X176687524Y-120796857D02*
X176639905Y-120892095D01*
X176639905Y-120892095D02*
X176639905Y-120987333D01*
X176639905Y-120987333D02*
X176687524Y-121130190D01*
X176687524Y-121130190D02*
X177258952Y-121701619D01*
X177258952Y-121701619D02*
X176639905Y-121701619D01*
X175639905Y-121606380D02*
X175687524Y-121654000D01*
X175687524Y-121654000D02*
X175830381Y-121701619D01*
X175830381Y-121701619D02*
X175925619Y-121701619D01*
X175925619Y-121701619D02*
X176068476Y-121654000D01*
X176068476Y-121654000D02*
X176163714Y-121558761D01*
X176163714Y-121558761D02*
X176211333Y-121463523D01*
X176211333Y-121463523D02*
X176258952Y-121273047D01*
X176258952Y-121273047D02*
X176258952Y-121130190D01*
X176258952Y-121130190D02*
X176211333Y-120939714D01*
X176211333Y-120939714D02*
X176163714Y-120844476D01*
X176163714Y-120844476D02*
X176068476Y-120749238D01*
X176068476Y-120749238D02*
X175925619Y-120701619D01*
X175925619Y-120701619D02*
X175830381Y-120701619D01*
X175830381Y-120701619D02*
X175687524Y-120749238D01*
X175687524Y-120749238D02*
X175639905Y-120796857D01*
X175449429Y-121796857D02*
X174687524Y-121796857D01*
X173973238Y-120701619D02*
X174449428Y-120701619D01*
X174449428Y-120701619D02*
X174497047Y-121177809D01*
X174497047Y-121177809D02*
X174449428Y-121130190D01*
X174449428Y-121130190D02*
X174354190Y-121082571D01*
X174354190Y-121082571D02*
X174116095Y-121082571D01*
X174116095Y-121082571D02*
X174020857Y-121130190D01*
X174020857Y-121130190D02*
X173973238Y-121177809D01*
X173973238Y-121177809D02*
X173925619Y-121273047D01*
X173925619Y-121273047D02*
X173925619Y-121511142D01*
X173925619Y-121511142D02*
X173973238Y-121606380D01*
X173973238Y-121606380D02*
X174020857Y-121654000D01*
X174020857Y-121654000D02*
X174116095Y-121701619D01*
X174116095Y-121701619D02*
X174354190Y-121701619D01*
X174354190Y-121701619D02*
X174449428Y-121654000D01*
X174449428Y-121654000D02*
X174497047Y-121606380D01*
X155655761Y-111123619D02*
X155655761Y-110123619D01*
X155227190Y-110218857D02*
X155179571Y-110171238D01*
X155179571Y-110171238D02*
X155084333Y-110123619D01*
X155084333Y-110123619D02*
X154846238Y-110123619D01*
X154846238Y-110123619D02*
X154751000Y-110171238D01*
X154751000Y-110171238D02*
X154703381Y-110218857D01*
X154703381Y-110218857D02*
X154655762Y-110314095D01*
X154655762Y-110314095D02*
X154655762Y-110409333D01*
X154655762Y-110409333D02*
X154703381Y-110552190D01*
X154703381Y-110552190D02*
X155274809Y-111123619D01*
X155274809Y-111123619D02*
X154655762Y-111123619D01*
X153655762Y-111028380D02*
X153703381Y-111076000D01*
X153703381Y-111076000D02*
X153846238Y-111123619D01*
X153846238Y-111123619D02*
X153941476Y-111123619D01*
X153941476Y-111123619D02*
X154084333Y-111076000D01*
X154084333Y-111076000D02*
X154179571Y-110980761D01*
X154179571Y-110980761D02*
X154227190Y-110885523D01*
X154227190Y-110885523D02*
X154274809Y-110695047D01*
X154274809Y-110695047D02*
X154274809Y-110552190D01*
X154274809Y-110552190D02*
X154227190Y-110361714D01*
X154227190Y-110361714D02*
X154179571Y-110266476D01*
X154179571Y-110266476D02*
X154084333Y-110171238D01*
X154084333Y-110171238D02*
X153941476Y-110123619D01*
X153941476Y-110123619D02*
X153846238Y-110123619D01*
X153846238Y-110123619D02*
X153703381Y-110171238D01*
X153703381Y-110171238D02*
X153655762Y-110218857D01*
X153465286Y-111218857D02*
X152703381Y-111218857D01*
X152036714Y-110123619D02*
X152227190Y-110123619D01*
X152227190Y-110123619D02*
X152322428Y-110171238D01*
X152322428Y-110171238D02*
X152370047Y-110218857D01*
X152370047Y-110218857D02*
X152465285Y-110361714D01*
X152465285Y-110361714D02*
X152512904Y-110552190D01*
X152512904Y-110552190D02*
X152512904Y-110933142D01*
X152512904Y-110933142D02*
X152465285Y-111028380D01*
X152465285Y-111028380D02*
X152417666Y-111076000D01*
X152417666Y-111076000D02*
X152322428Y-111123619D01*
X152322428Y-111123619D02*
X152131952Y-111123619D01*
X152131952Y-111123619D02*
X152036714Y-111076000D01*
X152036714Y-111076000D02*
X151989095Y-111028380D01*
X151989095Y-111028380D02*
X151941476Y-110933142D01*
X151941476Y-110933142D02*
X151941476Y-110695047D01*
X151941476Y-110695047D02*
X151989095Y-110599809D01*
X151989095Y-110599809D02*
X152036714Y-110552190D01*
X152036714Y-110552190D02*
X152131952Y-110504571D01*
X152131952Y-110504571D02*
X152322428Y-110504571D01*
X152322428Y-110504571D02*
X152417666Y-110552190D01*
X152417666Y-110552190D02*
X152465285Y-110599809D01*
X152465285Y-110599809D02*
X152512904Y-110695047D01*
%TO.C,XA1*%
X118332094Y-129764619D02*
X117665428Y-130764619D01*
X117665428Y-129764619D02*
X118332094Y-130764619D01*
X117332094Y-130478904D02*
X116855904Y-130478904D01*
X117427332Y-130764619D02*
X117093999Y-129764619D01*
X117093999Y-129764619D02*
X116760666Y-130764619D01*
X115903523Y-130764619D02*
X116474951Y-130764619D01*
X116189237Y-130764619D02*
X116189237Y-129764619D01*
X116189237Y-129764619D02*
X116284475Y-129907476D01*
X116284475Y-129907476D02*
X116379713Y-130002714D01*
X116379713Y-130002714D02*
X116474951Y-130050333D01*
D11*
X118479047Y-132311309D02*
X118479047Y-131811309D01*
X118479047Y-131811309D02*
X118359999Y-131811309D01*
X118359999Y-131811309D02*
X118288571Y-131835119D01*
X118288571Y-131835119D02*
X118240952Y-131882738D01*
X118240952Y-131882738D02*
X118217142Y-131930357D01*
X118217142Y-131930357D02*
X118193333Y-132025595D01*
X118193333Y-132025595D02*
X118193333Y-132097023D01*
X118193333Y-132097023D02*
X118217142Y-132192261D01*
X118217142Y-132192261D02*
X118240952Y-132239880D01*
X118240952Y-132239880D02*
X118288571Y-132287500D01*
X118288571Y-132287500D02*
X118359999Y-132311309D01*
X118359999Y-132311309D02*
X118479047Y-132311309D01*
X117883809Y-131811309D02*
X117836190Y-131811309D01*
X117836190Y-131811309D02*
X117788571Y-131835119D01*
X117788571Y-131835119D02*
X117764761Y-131858928D01*
X117764761Y-131858928D02*
X117740952Y-131906547D01*
X117740952Y-131906547D02*
X117717142Y-132001785D01*
X117717142Y-132001785D02*
X117717142Y-132120833D01*
X117717142Y-132120833D02*
X117740952Y-132216071D01*
X117740952Y-132216071D02*
X117764761Y-132263690D01*
X117764761Y-132263690D02*
X117788571Y-132287500D01*
X117788571Y-132287500D02*
X117836190Y-132311309D01*
X117836190Y-132311309D02*
X117883809Y-132311309D01*
X117883809Y-132311309D02*
X117931428Y-132287500D01*
X117931428Y-132287500D02*
X117955237Y-132263690D01*
X117955237Y-132263690D02*
X117979047Y-132216071D01*
X117979047Y-132216071D02*
X118002856Y-132120833D01*
X118002856Y-132120833D02*
X118002856Y-132001785D01*
X118002856Y-132001785D02*
X117979047Y-131906547D01*
X117979047Y-131906547D02*
X117955237Y-131858928D01*
X117955237Y-131858928D02*
X117931428Y-131835119D01*
X117931428Y-131835119D02*
X117883809Y-131811309D01*
D10*
X116586000Y-131939380D02*
X116633619Y-131987000D01*
X116633619Y-131987000D02*
X116586000Y-132034619D01*
X116586000Y-132034619D02*
X116538381Y-131987000D01*
X116538381Y-131987000D02*
X116586000Y-131939380D01*
X116586000Y-131939380D02*
X116586000Y-132034619D01*
%TO.C,TP23*%
X164806094Y-123998619D02*
X164234666Y-123998619D01*
X164520380Y-124998619D02*
X164520380Y-123998619D01*
X163901332Y-124998619D02*
X163901332Y-123998619D01*
X163901332Y-123998619D02*
X163520380Y-123998619D01*
X163520380Y-123998619D02*
X163425142Y-124046238D01*
X163425142Y-124046238D02*
X163377523Y-124093857D01*
X163377523Y-124093857D02*
X163329904Y-124189095D01*
X163329904Y-124189095D02*
X163329904Y-124331952D01*
X163329904Y-124331952D02*
X163377523Y-124427190D01*
X163377523Y-124427190D02*
X163425142Y-124474809D01*
X163425142Y-124474809D02*
X163520380Y-124522428D01*
X163520380Y-124522428D02*
X163901332Y-124522428D01*
X162948951Y-124093857D02*
X162901332Y-124046238D01*
X162901332Y-124046238D02*
X162806094Y-123998619D01*
X162806094Y-123998619D02*
X162567999Y-123998619D01*
X162567999Y-123998619D02*
X162472761Y-124046238D01*
X162472761Y-124046238D02*
X162425142Y-124093857D01*
X162425142Y-124093857D02*
X162377523Y-124189095D01*
X162377523Y-124189095D02*
X162377523Y-124284333D01*
X162377523Y-124284333D02*
X162425142Y-124427190D01*
X162425142Y-124427190D02*
X162996570Y-124998619D01*
X162996570Y-124998619D02*
X162377523Y-124998619D01*
X162044189Y-123998619D02*
X161425142Y-123998619D01*
X161425142Y-123998619D02*
X161758475Y-124379571D01*
X161758475Y-124379571D02*
X161615618Y-124379571D01*
X161615618Y-124379571D02*
X161520380Y-124427190D01*
X161520380Y-124427190D02*
X161472761Y-124474809D01*
X161472761Y-124474809D02*
X161425142Y-124570047D01*
X161425142Y-124570047D02*
X161425142Y-124808142D01*
X161425142Y-124808142D02*
X161472761Y-124903380D01*
X161472761Y-124903380D02*
X161520380Y-124951000D01*
X161520380Y-124951000D02*
X161615618Y-124998619D01*
X161615618Y-124998619D02*
X161901332Y-124998619D01*
X161901332Y-124998619D02*
X161996570Y-124951000D01*
X161996570Y-124951000D02*
X162044189Y-124903380D01*
%TO.C,U10*%
X188165619Y-94800905D02*
X188975142Y-94800905D01*
X188975142Y-94800905D02*
X189070380Y-94848524D01*
X189070380Y-94848524D02*
X189118000Y-94896143D01*
X189118000Y-94896143D02*
X189165619Y-94991381D01*
X189165619Y-94991381D02*
X189165619Y-95181857D01*
X189165619Y-95181857D02*
X189118000Y-95277095D01*
X189118000Y-95277095D02*
X189070380Y-95324714D01*
X189070380Y-95324714D02*
X188975142Y-95372333D01*
X188975142Y-95372333D02*
X188165619Y-95372333D01*
X189165619Y-96372333D02*
X189165619Y-95800905D01*
X189165619Y-96086619D02*
X188165619Y-96086619D01*
X188165619Y-96086619D02*
X188308476Y-95991381D01*
X188308476Y-95991381D02*
X188403714Y-95896143D01*
X188403714Y-95896143D02*
X188451333Y-95800905D01*
X188165619Y-96991381D02*
X188165619Y-97086619D01*
X188165619Y-97086619D02*
X188213238Y-97181857D01*
X188213238Y-97181857D02*
X188260857Y-97229476D01*
X188260857Y-97229476D02*
X188356095Y-97277095D01*
X188356095Y-97277095D02*
X188546571Y-97324714D01*
X188546571Y-97324714D02*
X188784666Y-97324714D01*
X188784666Y-97324714D02*
X188975142Y-97277095D01*
X188975142Y-97277095D02*
X189070380Y-97229476D01*
X189070380Y-97229476D02*
X189118000Y-97181857D01*
X189118000Y-97181857D02*
X189165619Y-97086619D01*
X189165619Y-97086619D02*
X189165619Y-96991381D01*
X189165619Y-96991381D02*
X189118000Y-96896143D01*
X189118000Y-96896143D02*
X189070380Y-96848524D01*
X189070380Y-96848524D02*
X188975142Y-96800905D01*
X188975142Y-96800905D02*
X188784666Y-96753286D01*
X188784666Y-96753286D02*
X188546571Y-96753286D01*
X188546571Y-96753286D02*
X188356095Y-96800905D01*
X188356095Y-96800905D02*
X188260857Y-96848524D01*
X188260857Y-96848524D02*
X188213238Y-96896143D01*
X188213238Y-96896143D02*
X188165619Y-96991381D01*
%TO.C,XA1*%
X119888000Y-77724000D02*
X119888000Y-131064000D01*
X119888000Y-77724000D02*
X217424000Y-77724000D01*
X119888000Y-131064000D02*
X218948000Y-131064000D01*
X217424000Y-77724000D02*
X218948000Y-79248000D01*
X218948000Y-90424000D02*
X218948000Y-79248000D01*
X218948000Y-129794000D02*
X221488000Y-127254000D01*
X218948000Y-131064000D02*
X218948000Y-129794000D01*
X221488000Y-92964000D02*
X218948000Y-90424000D01*
X221488000Y-127254000D02*
X221488000Y-92964000D01*
D12*
%TO.C,JP10*%
X181132000Y-126320500D02*
X183132000Y-126320500D01*
X183132000Y-126320500D02*
X183132000Y-122220500D01*
X180632000Y-125870500D02*
X180632000Y-125270500D01*
X180932000Y-125570500D02*
X180632000Y-125870500D01*
X180932000Y-125570500D02*
X180632000Y-125270500D01*
X181132000Y-122220500D02*
X181132000Y-126320500D01*
X183132000Y-122220500D02*
X181132000Y-122220500D01*
%TO.C,TP10*%
X179498500Y-93070500D02*
G75*
G03*
X179498500Y-93070500I-700000J0D01*
G01*
%TO.C,TP8*%
X190818500Y-111693500D02*
G75*
G03*
X190818500Y-111693500I-700000J0D01*
G01*
%TO.C,TP5*%
X200934000Y-103270000D02*
G75*
G03*
X200934000Y-103270000I-700000J0D01*
G01*
%TO.C,TP20*%
X122152000Y-97804000D02*
G75*
G03*
X122152000Y-97804000I-700000J0D01*
G01*
%TO.C,JP7*%
X177678000Y-116074000D02*
X179678000Y-116074000D01*
X179678000Y-116074000D02*
X179678000Y-111974000D01*
X177178000Y-115624000D02*
X177178000Y-115024000D01*
X177478000Y-115324000D02*
X177178000Y-115624000D01*
X177478000Y-115324000D02*
X177178000Y-115024000D01*
X177678000Y-111974000D02*
X177678000Y-116074000D01*
X179678000Y-111974000D02*
X177678000Y-111974000D01*
%TO.C,TP21*%
X121898000Y-107964000D02*
G75*
G03*
X121898000Y-107964000I-700000J0D01*
G01*
%TO.C,TP11*%
X201428000Y-120274000D02*
G75*
G03*
X201428000Y-120274000I-700000J0D01*
G01*
%TO.C,TP4*%
X201734000Y-94470000D02*
G75*
G03*
X201734000Y-94470000I-700000J0D01*
G01*
%TO.C,JP8*%
X168798500Y-126320500D02*
X170798500Y-126320500D01*
X170798500Y-126320500D02*
X170798500Y-122220500D01*
X168298500Y-125870500D02*
X168298500Y-125270500D01*
X168598500Y-125570500D02*
X168298500Y-125870500D01*
X168598500Y-125570500D02*
X168298500Y-125270500D01*
X168798500Y-122220500D02*
X168798500Y-126320500D01*
X170798500Y-122220500D02*
X168798500Y-122220500D01*
%TO.C,TP1*%
X203934000Y-103470000D02*
G75*
G03*
X203934000Y-103470000I-700000J0D01*
G01*
%TO.C,TP23*%
X163768000Y-125984000D02*
G75*
G03*
X163768000Y-125984000I-700000J0D01*
G01*
%TO.C,TP6*%
X201734000Y-96670000D02*
G75*
G03*
X201734000Y-96670000I-700000J0D01*
G01*
%TO.C,JP11*%
X187228000Y-126320500D02*
X189228000Y-126320500D01*
X189228000Y-126320500D02*
X189228000Y-122220500D01*
X186728000Y-125870500D02*
X186728000Y-125270500D01*
X187028000Y-125570500D02*
X186728000Y-125870500D01*
X187028000Y-125570500D02*
X186728000Y-125270500D01*
X187228000Y-122220500D02*
X187228000Y-126320500D01*
X189228000Y-122220500D02*
X187228000Y-122220500D01*
%TO.C,JP6*%
X180478000Y-116074000D02*
X182478000Y-116074000D01*
X182478000Y-116074000D02*
X182478000Y-111974000D01*
X179978000Y-115624000D02*
X179978000Y-115024000D01*
X180278000Y-115324000D02*
X179978000Y-115624000D01*
X180278000Y-115324000D02*
X179978000Y-115024000D01*
X180478000Y-111974000D02*
X180478000Y-116074000D01*
X182478000Y-111974000D02*
X180478000Y-111974000D01*
%TO.C,TP15*%
X123422000Y-123204000D02*
G75*
G03*
X123422000Y-123204000I-700000J0D01*
G01*
%TO.C,TP9*%
X190818500Y-113725500D02*
G75*
G03*
X190818500Y-113725500I-700000J0D01*
G01*
%TO.C,TP3*%
X207178000Y-109524000D02*
G75*
G03*
X207178000Y-109524000I-700000J0D01*
G01*
%TO.C,TP17*%
X122660000Y-115838000D02*
G75*
G03*
X122660000Y-115838000I-700000J0D01*
G01*
%TO.C,TP14*%
X184928000Y-89774000D02*
G75*
G03*
X184928000Y-89774000I-700000J0D01*
G01*
%TO.C,TP7*%
X140019000Y-95556000D02*
G75*
G03*
X140019000Y-95556000I-700000J0D01*
G01*
%TO.C,JP3*%
X180958500Y-102408500D02*
X178958500Y-102408500D01*
X178958500Y-102408500D02*
X178958500Y-106508500D01*
X181458500Y-102858500D02*
X181458500Y-103458500D01*
X181158500Y-103158500D02*
X181458500Y-102858500D01*
X181158500Y-103158500D02*
X181458500Y-103458500D01*
X180958500Y-106508500D02*
X180958500Y-102408500D01*
X178958500Y-106508500D02*
X180958500Y-106508500D01*
%TO.C,JP1*%
X192808500Y-102408500D02*
X190808500Y-102408500D01*
X190808500Y-102408500D02*
X190808500Y-106508500D01*
X193308500Y-102858500D02*
X193308500Y-103458500D01*
X193008500Y-103158500D02*
X193308500Y-102858500D01*
X193008500Y-103158500D02*
X193308500Y-103458500D01*
X192808500Y-106508500D02*
X192808500Y-102408500D01*
X190808500Y-106508500D02*
X192808500Y-106508500D01*
%TO.C,TP19*%
X121898000Y-101614000D02*
G75*
G03*
X121898000Y-101614000I-700000J0D01*
G01*
%TO.C,JP5*%
X183278000Y-116074000D02*
X185278000Y-116074000D01*
X185278000Y-116074000D02*
X185278000Y-111974000D01*
X182778000Y-115624000D02*
X182778000Y-115024000D01*
X183078000Y-115324000D02*
X182778000Y-115624000D01*
X183078000Y-115324000D02*
X182778000Y-115024000D01*
X183278000Y-111974000D02*
X183278000Y-116074000D01*
X185278000Y-111974000D02*
X183278000Y-111974000D01*
%TO.C,TP18*%
X122660000Y-112790000D02*
G75*
G03*
X122660000Y-112790000I-700000J0D01*
G01*
%TO.C,TP2*%
X207534000Y-102470000D02*
G75*
G03*
X207534000Y-102470000I-700000J0D01*
G01*
%TO.C,TP16*%
X123318000Y-120824000D02*
G75*
G03*
X123318000Y-120824000I-700000J0D01*
G01*
%TO.C,TP22*%
X122152000Y-104662000D02*
G75*
G03*
X122152000Y-104662000I-700000J0D01*
G01*
%TO.C,U10*%
X196653000Y-92729000D02*
X196383000Y-92729000D01*
X196383000Y-92729000D02*
X196383000Y-91629000D01*
X190023000Y-92729000D02*
X190023000Y-89899000D01*
X189753000Y-92729000D02*
X190023000Y-92729000D01*
X196653000Y-99149000D02*
X196653000Y-92729000D01*
X189753000Y-99149000D02*
X189753000Y-92729000D01*
%TO.C,JP2*%
X187054500Y-102408500D02*
X185054500Y-102408500D01*
X185054500Y-102408500D02*
X185054500Y-106508500D01*
X187554500Y-102858500D02*
X187554500Y-103458500D01*
X187254500Y-103158500D02*
X187554500Y-102858500D01*
X187254500Y-103158500D02*
X187554500Y-103458500D01*
X187054500Y-106508500D02*
X187054500Y-102408500D01*
X185054500Y-106508500D02*
X187054500Y-106508500D01*
%TO.C,G\u002A\u002A\u002A*%
G36*
X144563785Y-91866881D02*
G01*
X144591796Y-91937281D01*
X144612014Y-92008290D01*
X144619184Y-92067337D01*
X144616921Y-92100401D01*
X144602472Y-92151064D01*
X144582794Y-92220060D01*
X144513023Y-92325587D01*
X144413965Y-92409286D01*
X144291978Y-92463458D01*
X144283476Y-92465199D01*
X144231317Y-92469359D01*
X144152824Y-92470743D01*
X144061468Y-92469028D01*
X144056467Y-92468845D01*
X143959402Y-92463194D01*
X143891719Y-92452705D01*
X143839512Y-92434054D01*
X143788871Y-92403920D01*
X143695970Y-92322957D01*
X143637567Y-92225637D01*
X143615957Y-92165220D01*
X143601465Y-92103559D01*
X143712459Y-92103559D01*
X143720165Y-92163504D01*
X143732803Y-92196152D01*
X143752191Y-92214660D01*
X143756798Y-92214198D01*
X143780009Y-92191902D01*
X143786908Y-92151064D01*
X143773226Y-92112438D01*
X143758773Y-92078627D01*
X143772258Y-92027667D01*
X143779555Y-92008399D01*
X143785776Y-91957314D01*
X143773519Y-91921168D01*
X143745928Y-91913580D01*
X143735509Y-91924603D01*
X143721663Y-91969240D01*
X143713469Y-92033848D01*
X143712459Y-92103559D01*
X143601465Y-92103559D01*
X143596652Y-92083081D01*
X143602885Y-92035841D01*
X143615306Y-92001368D01*
X143622065Y-91945043D01*
X143630917Y-91900495D01*
X143655331Y-91871346D01*
X143670603Y-91862275D01*
X143675369Y-91853762D01*
X143802238Y-91853762D01*
X143806905Y-91861199D01*
X143841934Y-91841454D01*
X143857375Y-91828407D01*
X143848718Y-91819837D01*
X143841065Y-91820581D01*
X143809004Y-91841454D01*
X143802238Y-91853762D01*
X143675369Y-91853762D01*
X143688261Y-91830734D01*
X143697425Y-91809331D01*
X143735366Y-91769273D01*
X143791112Y-91726228D01*
X143851963Y-91689662D01*
X143905218Y-91669040D01*
X143916047Y-91667237D01*
X143974868Y-91662235D01*
X144058759Y-91659024D01*
X144153322Y-91658232D01*
X144207288Y-91658859D01*
X144284424Y-91662470D01*
X144336255Y-91671590D01*
X144375019Y-91689015D01*
X144412958Y-91717541D01*
X144428621Y-91730402D01*
X144472272Y-91762671D01*
X144497189Y-91775594D01*
X144505419Y-91778196D01*
X144533241Y-91809662D01*
X144543247Y-91828407D01*
X144563785Y-91866881D01*
G37*
G36*
X142763224Y-92367524D02*
G01*
X142723954Y-92481449D01*
X142642716Y-92582805D01*
X142618117Y-92607516D01*
X142583782Y-92652057D01*
X142574269Y-92681586D01*
X142583130Y-92692767D01*
X142624177Y-92719331D01*
X142685162Y-92746423D01*
X142698558Y-92751356D01*
X142744323Y-92766115D01*
X142785676Y-92772351D01*
X142834405Y-92769679D01*
X142902296Y-92757713D01*
X143001137Y-92736066D01*
X143048538Y-92725330D01*
X143132108Y-92704490D01*
X143191350Y-92683268D01*
X143239162Y-92654760D01*
X143288443Y-92612066D01*
X143352093Y-92548284D01*
X143380621Y-92519857D01*
X143459326Y-92451351D01*
X143517003Y-92419646D01*
X143555053Y-92424218D01*
X143574874Y-92464538D01*
X143570675Y-92484757D01*
X143541367Y-92533486D01*
X143491070Y-92596598D01*
X143427272Y-92665626D01*
X143357463Y-92732105D01*
X143289132Y-92787567D01*
X143269271Y-92798866D01*
X143204899Y-92824208D01*
X143117065Y-92850760D01*
X143018792Y-92874344D01*
X143010200Y-92876135D01*
X142912971Y-92895479D01*
X142843671Y-92905481D01*
X142788421Y-92906468D01*
X142733343Y-92898768D01*
X142664559Y-92882709D01*
X142591702Y-92865977D01*
X142536967Y-92856325D01*
X142512752Y-92855972D01*
X142504432Y-92879913D01*
X142490064Y-92939481D01*
X142471313Y-93026659D01*
X142449651Y-93133601D01*
X142426550Y-93252463D01*
X142403480Y-93375397D01*
X142381914Y-93494557D01*
X142363322Y-93602099D01*
X142349177Y-93690175D01*
X142340948Y-93750939D01*
X142340109Y-93776546D01*
X142355191Y-93789475D01*
X142401902Y-93816864D01*
X142466381Y-93848183D01*
X142511604Y-93870243D01*
X142575580Y-93908022D01*
X142615816Y-93940315D01*
X142622796Y-93950828D01*
X142646608Y-94001390D01*
X142678456Y-94081642D01*
X142715030Y-94182990D01*
X142753024Y-94296837D01*
X142787720Y-94406721D01*
X142817420Y-94508397D01*
X142836716Y-94589669D01*
X142847794Y-94661967D01*
X142852839Y-94736726D01*
X142854035Y-94825378D01*
X142854802Y-94924032D01*
X142858545Y-94990583D01*
X142867393Y-95033663D01*
X142883474Y-95063556D01*
X142908918Y-95090546D01*
X142940514Y-95129941D01*
X142963920Y-95199736D01*
X142955541Y-95267626D01*
X142915010Y-95319811D01*
X142867266Y-95341265D01*
X142796774Y-95352672D01*
X142728990Y-95348343D01*
X142682799Y-95327642D01*
X142682663Y-95327506D01*
X142664298Y-95288168D01*
X142657149Y-95231519D01*
X142661693Y-95177344D01*
X142678408Y-95145430D01*
X142686445Y-95123952D01*
X142693775Y-95064931D01*
X142698614Y-94976442D01*
X142700361Y-94866152D01*
X142699911Y-94775843D01*
X142696784Y-94684155D01*
X142688642Y-94607198D01*
X142673164Y-94530912D01*
X142648031Y-94441234D01*
X142610923Y-94324103D01*
X142604724Y-94305078D01*
X142569653Y-94202035D01*
X142537569Y-94114870D01*
X142511799Y-94052274D01*
X142495668Y-94022936D01*
X142483380Y-94014720D01*
X142433591Y-93991961D01*
X142360232Y-93963947D01*
X142275753Y-93934866D01*
X142192605Y-93908907D01*
X142123239Y-93890260D01*
X142080105Y-93883113D01*
X142059952Y-93885274D01*
X142041762Y-93897491D01*
X142046742Y-93917996D01*
X142062885Y-93972741D01*
X142087548Y-94052298D01*
X142117991Y-94147672D01*
X142127532Y-94177334D01*
X142157696Y-94277891D01*
X142174382Y-94357686D01*
X142177143Y-94429070D01*
X142165531Y-94504396D01*
X142139100Y-94596015D01*
X142097401Y-94716281D01*
X142074141Y-94818363D01*
X142076541Y-94937791D01*
X142082506Y-95000322D01*
X142080366Y-95047418D01*
X142064303Y-95078640D01*
X142030263Y-95108988D01*
X141977622Y-95141438D01*
X141901971Y-95153466D01*
X141827113Y-95122231D01*
X141807886Y-95105749D01*
X141780994Y-95048604D01*
X141792807Y-94978924D01*
X141842944Y-94901998D01*
X141881505Y-94844993D01*
X141928751Y-94745442D01*
X141974959Y-94618013D01*
X141990621Y-94568948D01*
X142015091Y-94487897D01*
X142027839Y-94430337D01*
X142030053Y-94383765D01*
X142022916Y-94335679D01*
X142007614Y-94273574D01*
X141988533Y-94205673D01*
X141954428Y-94097366D01*
X141919506Y-93997726D01*
X141886113Y-93895718D01*
X141868019Y-93798740D01*
X141873691Y-93731680D01*
X141903311Y-93697918D01*
X141920614Y-93694797D01*
X141976806Y-93697550D01*
X142046199Y-93710745D01*
X142073459Y-93717272D01*
X142140050Y-93725918D01*
X142174892Y-93714858D01*
X142183670Y-93695939D01*
X142200348Y-93639361D01*
X142221394Y-93554321D01*
X142245065Y-93449180D01*
X142269616Y-93332298D01*
X142293305Y-93212035D01*
X142314389Y-93096753D01*
X142331124Y-92994812D01*
X142341767Y-92914573D01*
X142354758Y-92791236D01*
X142247655Y-92751897D01*
X142222223Y-92742271D01*
X142149974Y-92708380D01*
X142106227Y-92670386D01*
X142090249Y-92621866D01*
X142098715Y-92571738D01*
X142265494Y-92571738D01*
X142268148Y-92581707D01*
X142300779Y-92618437D01*
X142354202Y-92639747D01*
X142409942Y-92637257D01*
X142438129Y-92617646D01*
X142472190Y-92557801D01*
X142494670Y-92468613D01*
X142502781Y-92358447D01*
X142500126Y-92288354D01*
X142492279Y-92234837D01*
X142480828Y-92214660D01*
X142471449Y-92216313D01*
X142431279Y-92244870D01*
X142384563Y-92300429D01*
X142337964Y-92371944D01*
X142298145Y-92448366D01*
X142271767Y-92518647D01*
X142265494Y-92571738D01*
X142098715Y-92571738D01*
X142101306Y-92556399D01*
X142138663Y-92467565D01*
X142201588Y-92348943D01*
X142316178Y-92142948D01*
X142500134Y-92047084D01*
X142580726Y-92006823D01*
X142675691Y-91967070D01*
X142740051Y-91952699D01*
X142776611Y-91963232D01*
X142788175Y-91998195D01*
X142781907Y-92029102D01*
X142751927Y-92071675D01*
X142734510Y-92087676D01*
X142726937Y-92118096D01*
X142740950Y-92170673D01*
X142760213Y-92242341D01*
X142763006Y-92358447D01*
X142763224Y-92367524D01*
G37*
G36*
X146089854Y-92653754D02*
G01*
X146329330Y-92744468D01*
X146342732Y-92750285D01*
X146414449Y-92779055D01*
X146467730Y-92796552D01*
X146491876Y-92799176D01*
X146495698Y-92791569D01*
X146505588Y-92750176D01*
X146514654Y-92688093D01*
X146518799Y-92660896D01*
X146536601Y-92598609D01*
X146559478Y-92560777D01*
X146573515Y-92554774D01*
X146628655Y-92545758D01*
X146714889Y-92539275D01*
X146823979Y-92535304D01*
X146947686Y-92533826D01*
X147077774Y-92534820D01*
X147206003Y-92538265D01*
X147324136Y-92544142D01*
X147423936Y-92552428D01*
X147497163Y-92563105D01*
X147562441Y-92578093D01*
X147685496Y-92611388D01*
X147818665Y-92652109D01*
X147948725Y-92695929D01*
X148062452Y-92738523D01*
X148146621Y-92775564D01*
X148327164Y-92879629D01*
X148518245Y-93014096D01*
X148702126Y-93166221D01*
X148867085Y-93326280D01*
X149001397Y-93484548D01*
X149056224Y-93557979D01*
X149172978Y-93479409D01*
X149227179Y-93446086D01*
X149319859Y-93398260D01*
X149403301Y-93364478D01*
X149460878Y-93349465D01*
X149588842Y-93329641D01*
X149738861Y-93318679D01*
X149897487Y-93316954D01*
X150051272Y-93324839D01*
X150186766Y-93342708D01*
X150220140Y-93348692D01*
X150300532Y-93360335D01*
X150359862Y-93364912D01*
X150387185Y-93361403D01*
X150390726Y-93343447D01*
X150385392Y-93292833D01*
X150370098Y-93224513D01*
X150351288Y-93115216D01*
X150350306Y-93065329D01*
X150428922Y-93065329D01*
X150452256Y-93217092D01*
X150504701Y-93369356D01*
X150583840Y-93513174D01*
X150687255Y-93639600D01*
X150711323Y-93661989D01*
X150769135Y-93708871D01*
X150836194Y-93757478D01*
X150903687Y-93802113D01*
X150962805Y-93837079D01*
X151004737Y-93856677D01*
X151020673Y-93855210D01*
X151017150Y-93850104D01*
X150990361Y-93819984D01*
X150942969Y-93769571D01*
X150881851Y-93706244D01*
X150783284Y-93594701D01*
X150679154Y-93435693D01*
X150614338Y-93270687D01*
X150603653Y-93203650D01*
X151284112Y-93203650D01*
X151289201Y-93254106D01*
X151329944Y-93354287D01*
X151407453Y-93444152D01*
X151516925Y-93517231D01*
X151525907Y-93521311D01*
X151587715Y-93540713D01*
X151673934Y-93559701D01*
X151768812Y-93574683D01*
X151800214Y-93578620D01*
X151881794Y-93588602D01*
X151932819Y-93593685D01*
X151963341Y-93594232D01*
X151983411Y-93590609D01*
X152003084Y-93583181D01*
X152007858Y-93580949D01*
X152024194Y-93562331D01*
X152027690Y-93526771D01*
X152017405Y-93468341D01*
X151992401Y-93381115D01*
X151951738Y-93259168D01*
X151935143Y-93211383D01*
X151904315Y-93126757D01*
X151880471Y-93072857D01*
X151858883Y-93042009D01*
X151843918Y-93032389D01*
X151964666Y-93032389D01*
X151964789Y-93034203D01*
X151973109Y-93069306D01*
X151992578Y-93135978D01*
X152020530Y-93225402D01*
X152054297Y-93328759D01*
X152056694Y-93335952D01*
X152093122Y-93443871D01*
X152119956Y-93517135D01*
X152124437Y-93526771D01*
X152141028Y-93562447D01*
X152160167Y-93586513D01*
X152181204Y-93596036D01*
X152207970Y-93597720D01*
X152213741Y-93597664D01*
X152258891Y-93588031D01*
X152272012Y-93558127D01*
X152270259Y-93543154D01*
X152256808Y-93487538D01*
X152233215Y-93407907D01*
X152203228Y-93315286D01*
X152170596Y-93220701D01*
X152139066Y-93135175D01*
X152112387Y-93069735D01*
X152094306Y-93035405D01*
X152067022Y-93016209D01*
X152022156Y-93005938D01*
X151982038Y-93011192D01*
X151964666Y-93032389D01*
X151843918Y-93032389D01*
X151834820Y-93026541D01*
X151803553Y-93018782D01*
X151750604Y-93015402D01*
X151669277Y-93018203D01*
X151580482Y-93026963D01*
X151578249Y-93027261D01*
X151497989Y-93037544D01*
X151433789Y-93045049D01*
X151399367Y-93048168D01*
X151379678Y-93052474D01*
X151334219Y-93086684D01*
X151298547Y-93142225D01*
X151284112Y-93203650D01*
X150603653Y-93203650D01*
X150586216Y-93094256D01*
X150583846Y-93002632D01*
X150595393Y-92880501D01*
X150628248Y-92781839D01*
X150685014Y-92696149D01*
X150696139Y-92682572D01*
X150725722Y-92637107D01*
X150721296Y-92618686D01*
X150683583Y-92627630D01*
X150613309Y-92664262D01*
X150587480Y-92680270D01*
X150515985Y-92742324D01*
X150466969Y-92824274D01*
X150437116Y-92923013D01*
X150428922Y-93065329D01*
X150350306Y-93065329D01*
X150348892Y-92993499D01*
X150363009Y-92879640D01*
X150392764Y-92790385D01*
X150433231Y-92729133D01*
X150530201Y-92637136D01*
X150658443Y-92561602D01*
X150662251Y-92559852D01*
X150692028Y-92546896D01*
X150722220Y-92536403D01*
X150757657Y-92528065D01*
X150803172Y-92521574D01*
X150863599Y-92516620D01*
X150943768Y-92512896D01*
X151048514Y-92510091D01*
X151182667Y-92507899D01*
X151351062Y-92506010D01*
X151558529Y-92504115D01*
X151742248Y-92502883D01*
X151966792Y-92502745D01*
X152147966Y-92504502D01*
X152285644Y-92508151D01*
X152379704Y-92513690D01*
X152430021Y-92521116D01*
X152449421Y-92527704D01*
X152543823Y-92583732D01*
X152627950Y-92671158D01*
X152691336Y-92779627D01*
X152700862Y-92802690D01*
X152716123Y-92842053D01*
X152735963Y-92895649D01*
X152761443Y-92966517D01*
X152793621Y-93057696D01*
X152833554Y-93172224D01*
X152882301Y-93313138D01*
X152940921Y-93483479D01*
X152966521Y-93558127D01*
X153010471Y-93686283D01*
X153068272Y-93855210D01*
X153092011Y-93924589D01*
X153115655Y-93993793D01*
X153186599Y-94201436D01*
X153221794Y-94304505D01*
X153281616Y-94479955D01*
X153329245Y-94620606D01*
X153365986Y-94730949D01*
X153393145Y-94815482D01*
X153412028Y-94878697D01*
X153423941Y-94925090D01*
X153430190Y-94959156D01*
X153432080Y-94985388D01*
X153430917Y-95008282D01*
X153428008Y-95032332D01*
X153426848Y-95040062D01*
X153404001Y-95111534D01*
X153381058Y-95148146D01*
X153367651Y-95169541D01*
X153355618Y-95181821D01*
X153331097Y-95200605D01*
X153298931Y-95212458D01*
X153250057Y-95218963D01*
X153175409Y-95221704D01*
X153065922Y-95222266D01*
X153040667Y-95222242D01*
X152935942Y-95220986D01*
X152862274Y-95216587D01*
X152808943Y-95207351D01*
X152765227Y-95191580D01*
X152720406Y-95167577D01*
X152671908Y-95135533D01*
X152624115Y-95091427D01*
X152581927Y-95033383D01*
X152541135Y-94954274D01*
X152497531Y-94846971D01*
X152446909Y-94704348D01*
X152407320Y-94589119D01*
X152354640Y-94439273D01*
X152312364Y-94324672D01*
X152278819Y-94241248D01*
X152252333Y-94184933D01*
X152231233Y-94151658D01*
X152213847Y-94137355D01*
X152206513Y-94135831D01*
X152163591Y-94150907D01*
X152107221Y-94197187D01*
X152106001Y-94198421D01*
X152061026Y-94261976D01*
X152012829Y-94364451D01*
X151960980Y-94507023D01*
X151905050Y-94690869D01*
X151844610Y-94917165D01*
X151822301Y-94997391D01*
X151783341Y-95097344D01*
X151734168Y-95167729D01*
X151668318Y-95212280D01*
X151579327Y-95234731D01*
X151460731Y-95238816D01*
X151306066Y-95228269D01*
X151289080Y-95226698D01*
X151166015Y-95218533D01*
X151074644Y-95218665D01*
X151020673Y-95227117D01*
X151012868Y-95229940D01*
X150949919Y-95248637D01*
X150877976Y-95265594D01*
X150854212Y-95269790D01*
X150749110Y-95280513D01*
X150618891Y-95285543D01*
X150477312Y-95285107D01*
X150338131Y-95279428D01*
X150215104Y-95268732D01*
X150121989Y-95253243D01*
X150108930Y-95249998D01*
X149929624Y-95190748D01*
X149747409Y-95106416D01*
X149577889Y-95005156D01*
X149436667Y-94895122D01*
X149405162Y-94866734D01*
X149341711Y-94812667D01*
X149292860Y-94775236D01*
X149267221Y-94761246D01*
X149267048Y-94761250D01*
X149242872Y-94778138D01*
X149202400Y-94821640D01*
X149154298Y-94882452D01*
X149116159Y-94930590D01*
X148991094Y-95050566D01*
X148972806Y-95062014D01*
X148840413Y-95144891D01*
X148661583Y-95214390D01*
X148452073Y-95259892D01*
X148209354Y-95282222D01*
X147930892Y-95282209D01*
X147922114Y-95281881D01*
X147747356Y-95272110D01*
X147605848Y-95256263D01*
X147487562Y-95232337D01*
X147382472Y-95198326D01*
X147280551Y-95152228D01*
X147195658Y-95108987D01*
X147102352Y-95149453D01*
X147070625Y-95163213D01*
X146990498Y-95195782D01*
X146866800Y-95235845D01*
X146738207Y-95263146D01*
X146595123Y-95279037D01*
X146427950Y-95284871D01*
X146227088Y-95281997D01*
X146216122Y-95281657D01*
X146055919Y-95275401D01*
X145930167Y-95267041D01*
X145829954Y-95255218D01*
X145746368Y-95238574D01*
X145670497Y-95215749D01*
X145593428Y-95185386D01*
X145554968Y-95170031D01*
X145513551Y-95162079D01*
X145469292Y-95170653D01*
X145403763Y-95196868D01*
X145367796Y-95210341D01*
X145240478Y-95238186D01*
X145088314Y-95249357D01*
X144922961Y-95244032D01*
X144756078Y-95222389D01*
X144599324Y-95184606D01*
X144559846Y-95172074D01*
X144494468Y-95146150D01*
X144457044Y-95115611D01*
X144437432Y-95069500D01*
X144425487Y-94996862D01*
X144417017Y-94939465D01*
X144382341Y-94767421D01*
X144330418Y-94564138D01*
X144263004Y-94335377D01*
X144181855Y-94086896D01*
X144088729Y-93824455D01*
X143985381Y-93553813D01*
X143971819Y-93519509D01*
X143919730Y-93387716D01*
X143867613Y-93255792D01*
X143820861Y-93137391D01*
X143784866Y-93046165D01*
X143762659Y-92987135D01*
X143723796Y-92854441D01*
X143713450Y-92751965D01*
X143714445Y-92747958D01*
X143818782Y-92747958D01*
X143821609Y-92844357D01*
X143851336Y-92974463D01*
X143907882Y-93137898D01*
X143991169Y-93334280D01*
X144003887Y-93363131D01*
X144044072Y-93461361D01*
X144087388Y-93575082D01*
X144126441Y-93685109D01*
X144140786Y-93726882D01*
X144180454Y-93837834D01*
X144220098Y-93943398D01*
X144252956Y-94025386D01*
X144302436Y-94153875D01*
X144352544Y-94309126D01*
X144395887Y-94469057D01*
X144429726Y-94622456D01*
X144451323Y-94758109D01*
X144457940Y-94864803D01*
X144457627Y-94887069D01*
X144460831Y-94962115D01*
X144473836Y-95010493D01*
X144499812Y-95045918D01*
X144536205Y-95076370D01*
X144566394Y-95090546D01*
X144569389Y-95090108D01*
X144583718Y-95064626D01*
X144587705Y-95005048D01*
X144582535Y-94918559D01*
X144569394Y-94812347D01*
X144565800Y-94790930D01*
X145400621Y-94790930D01*
X145401285Y-94811871D01*
X145429085Y-94921236D01*
X145489691Y-95005048D01*
X145495683Y-95013335D01*
X145598232Y-95083947D01*
X145628680Y-95098211D01*
X145701090Y-95128207D01*
X145757921Y-95146839D01*
X145772951Y-95150079D01*
X145790942Y-95149453D01*
X145786313Y-95133957D01*
X145756153Y-95098302D01*
X145697549Y-95037201D01*
X145670684Y-95009161D01*
X145614364Y-94943167D01*
X145584813Y-94892020D01*
X145576247Y-94846635D01*
X145564940Y-94764444D01*
X145528280Y-94712531D01*
X145465708Y-94695386D01*
X145444314Y-94695786D01*
X145414545Y-94703783D01*
X145402728Y-94731464D01*
X145400621Y-94790930D01*
X144565800Y-94790930D01*
X144549467Y-94693596D01*
X144523938Y-94569491D01*
X144493994Y-94447219D01*
X144460819Y-94333966D01*
X144425599Y-94236916D01*
X144421680Y-94227340D01*
X144392984Y-94153671D01*
X144355238Y-94052739D01*
X144312895Y-93936585D01*
X144270410Y-93817253D01*
X144265161Y-93802374D01*
X144219949Y-93678295D01*
X144172963Y-93555421D01*
X144129460Y-93447222D01*
X144094699Y-93367168D01*
X144059413Y-93285906D01*
X144018050Y-93179719D01*
X144014449Y-93169630D01*
X144862764Y-93169630D01*
X144867719Y-93235490D01*
X144872307Y-93261314D01*
X144890081Y-93328134D01*
X144918971Y-93423465D01*
X144956734Y-93540920D01*
X145001125Y-93674110D01*
X145049902Y-93816647D01*
X145100820Y-93962143D01*
X145151636Y-94104210D01*
X145200108Y-94236458D01*
X145243990Y-94352500D01*
X145281041Y-94445948D01*
X145309016Y-94510413D01*
X145325671Y-94539507D01*
X145338276Y-94549159D01*
X145403150Y-94577318D01*
X145481053Y-94591735D01*
X145548331Y-94587330D01*
X145592147Y-94582429D01*
X145671499Y-94592534D01*
X145783714Y-94621616D01*
X145931690Y-94657051D01*
X146091836Y-94669811D01*
X146227272Y-94647721D01*
X146339459Y-94590499D01*
X146429861Y-94497865D01*
X146446848Y-94473206D01*
X146510682Y-94338681D01*
X146532087Y-94194381D01*
X146511401Y-94038402D01*
X146490142Y-93962481D01*
X146416112Y-93772742D01*
X146315356Y-93607045D01*
X146181140Y-93453462D01*
X146079834Y-93362127D01*
X145908328Y-93243687D01*
X145731777Y-93163811D01*
X145554117Y-93124106D01*
X145379282Y-93126177D01*
X145363116Y-93128284D01*
X145275060Y-93137991D01*
X145167583Y-93147908D01*
X145060344Y-93156187D01*
X144862764Y-93169630D01*
X144014449Y-93169630D01*
X143981385Y-93077006D01*
X145798768Y-93077006D01*
X145804524Y-93086963D01*
X145842626Y-93109933D01*
X145916524Y-93149251D01*
X145970990Y-93178733D01*
X146123597Y-93276701D01*
X146249424Y-93386573D01*
X146361515Y-93519193D01*
X146417025Y-93596999D01*
X146490389Y-93718671D01*
X146539357Y-93836375D01*
X146569727Y-93965586D01*
X146587298Y-94121781D01*
X146588687Y-94140473D01*
X146592129Y-94194381D01*
X146595139Y-94241525D01*
X146596066Y-94312711D01*
X146590318Y-94366045D01*
X146576743Y-94413545D01*
X146554188Y-94467225D01*
X146496890Y-94562835D01*
X146418614Y-94641640D01*
X146392038Y-94661235D01*
X146342013Y-94698766D01*
X146312781Y-94721617D01*
X146306328Y-94734347D01*
X146328589Y-94738646D01*
X146373233Y-94732714D01*
X146420905Y-94720359D01*
X147049688Y-94720359D01*
X147054916Y-94802193D01*
X147066249Y-94888405D01*
X147086843Y-94956131D01*
X147118580Y-94992305D01*
X147165063Y-95003511D01*
X147209000Y-95011690D01*
X147266653Y-95035663D01*
X147310638Y-95058920D01*
X147333955Y-95062014D01*
X147330443Y-95035583D01*
X147302689Y-94975291D01*
X147289202Y-94945537D01*
X147265002Y-94856341D01*
X147260089Y-94746845D01*
X147260499Y-94731227D01*
X147260549Y-94662769D01*
X147253087Y-94623637D01*
X147233251Y-94601421D01*
X147196180Y-94583709D01*
X147152166Y-94568530D01*
X147119281Y-94574065D01*
X147085270Y-94609087D01*
X147071008Y-94628475D01*
X147054293Y-94667284D01*
X147049688Y-94720359D01*
X146420905Y-94720359D01*
X146429671Y-94718087D01*
X146487310Y-94696302D01*
X146500029Y-94690385D01*
X146580699Y-94643343D01*
X146652544Y-94579877D01*
X146729186Y-94488271D01*
X146752532Y-94455471D01*
X146771502Y-94417231D01*
X146782084Y-94370192D01*
X146786674Y-94302659D01*
X146787672Y-94202933D01*
X146787563Y-94180183D01*
X146778302Y-94022527D01*
X146751004Y-93889522D01*
X146701266Y-93765860D01*
X146624687Y-93636236D01*
X146477166Y-93448560D01*
X146304143Y-93294230D01*
X146110558Y-93178382D01*
X146997073Y-93178382D01*
X147022516Y-93225916D01*
X147082812Y-93295242D01*
X147232520Y-93475908D01*
X147371363Y-93699841D01*
X147472966Y-93936586D01*
X147535138Y-94180900D01*
X147536974Y-94202933D01*
X147555691Y-94427539D01*
X147555644Y-94439997D01*
X147556023Y-94531530D01*
X147559416Y-94589360D01*
X147568032Y-94622680D01*
X147584081Y-94640682D01*
X147609772Y-94652560D01*
X147645879Y-94661354D01*
X147718009Y-94669856D01*
X147800451Y-94672951D01*
X147889233Y-94666814D01*
X148026742Y-94629030D01*
X148137597Y-94560027D01*
X148219821Y-94463529D01*
X148271437Y-94343263D01*
X148290466Y-94202953D01*
X148274933Y-94046324D01*
X148222859Y-93877103D01*
X148141495Y-93711128D01*
X148019447Y-93534827D01*
X147874613Y-93384895D01*
X147711877Y-93264834D01*
X147536124Y-93178147D01*
X147525803Y-93175351D01*
X147719470Y-93175351D01*
X147752490Y-93204918D01*
X147823936Y-93254804D01*
X147871261Y-93288073D01*
X148029769Y-93431054D01*
X148159970Y-93600495D01*
X148257973Y-93789321D01*
X148319889Y-93990456D01*
X148341827Y-94196823D01*
X148341615Y-94202953D01*
X148338665Y-94288281D01*
X148318071Y-94402504D01*
X148273352Y-94502505D01*
X148198768Y-94604642D01*
X148193085Y-94611423D01*
X148162330Y-94651611D01*
X148159118Y-94669385D01*
X148181253Y-94673351D01*
X148224828Y-94663296D01*
X148292707Y-94629009D01*
X148362106Y-94579583D01*
X148417693Y-94524661D01*
X148469160Y-94440378D01*
X148508567Y-94308490D01*
X148516768Y-94158069D01*
X148502645Y-94056380D01*
X148965515Y-94056380D01*
X148988158Y-94158069D01*
X149003687Y-94227806D01*
X149078243Y-94397838D01*
X149186782Y-94560481D01*
X149326905Y-94709740D01*
X149442662Y-94812075D01*
X149548995Y-94899017D01*
X149639401Y-94963653D01*
X149720952Y-95011396D01*
X149771515Y-95036116D01*
X149795243Y-95042942D01*
X149787602Y-95028190D01*
X149747557Y-94989987D01*
X149740797Y-94984143D01*
X150987743Y-94984143D01*
X151051899Y-95042942D01*
X151069745Y-95059298D01*
X151099364Y-95084283D01*
X151153530Y-95120299D01*
X151192991Y-95134453D01*
X151211538Y-95132937D01*
X151220315Y-95121425D01*
X151210413Y-95090343D01*
X151180711Y-95030175D01*
X151168349Y-95005350D01*
X151143561Y-94941258D01*
X151135626Y-94878183D01*
X151140838Y-94794176D01*
X151153905Y-94693012D01*
X151212860Y-94439128D01*
X151309844Y-94196862D01*
X151328990Y-94156247D01*
X151361279Y-94079943D01*
X151363841Y-94072338D01*
X152281049Y-94072338D01*
X152300325Y-94109707D01*
X152304330Y-94116219D01*
X152321024Y-94149509D01*
X152343610Y-94203146D01*
X152373692Y-94281391D01*
X152412874Y-94388502D01*
X152462758Y-94528740D01*
X152524948Y-94706363D01*
X152539289Y-94746510D01*
X152564181Y-94811973D01*
X152582248Y-94854250D01*
X152591913Y-94877687D01*
X152601312Y-94921946D01*
X152608657Y-94941931D01*
X152639327Y-94987794D01*
X152685753Y-95042987D01*
X152721808Y-95079474D01*
X152780063Y-95121854D01*
X152833938Y-95134753D01*
X152887158Y-95138129D01*
X152952565Y-95148883D01*
X152974550Y-95153333D01*
X152984049Y-95148146D01*
X152966165Y-95124614D01*
X152918264Y-95077235D01*
X152843363Y-94985836D01*
X152790588Y-94881990D01*
X152779278Y-94850352D01*
X152744363Y-94757189D01*
X152711092Y-94673433D01*
X152700142Y-94645995D01*
X152673325Y-94570158D01*
X152655959Y-94508783D01*
X152639182Y-94447736D01*
X152613440Y-94377063D01*
X152606574Y-94360365D01*
X152580749Y-94289271D01*
X152556349Y-94212413D01*
X152547725Y-94185143D01*
X152521860Y-94120283D01*
X152497308Y-94077513D01*
X152443540Y-94041519D01*
X152372868Y-94027425D01*
X152309170Y-94040399D01*
X152291941Y-94050779D01*
X152281049Y-94072338D01*
X151363841Y-94072338D01*
X151380658Y-94022429D01*
X151383467Y-93993793D01*
X151379088Y-93987764D01*
X151341995Y-93970623D01*
X151300043Y-93982973D01*
X151272092Y-94020322D01*
X151254565Y-94060083D01*
X151218151Y-94113623D01*
X151156901Y-94200493D01*
X151094261Y-94331848D01*
X151043647Y-94485840D01*
X151036271Y-94520707D01*
X151008655Y-94651250D01*
X150992877Y-94816856D01*
X150987743Y-94984143D01*
X149740797Y-94984143D01*
X149674076Y-94926459D01*
X149611131Y-94869565D01*
X149479977Y-94729507D01*
X149362867Y-94576490D01*
X149272595Y-94426444D01*
X149254987Y-94389929D01*
X149196462Y-94228899D01*
X149179251Y-94139410D01*
X149824249Y-94139410D01*
X149847826Y-94263391D01*
X149892197Y-94375541D01*
X149981975Y-94513112D01*
X150105262Y-94625412D01*
X150181442Y-94670411D01*
X150277322Y-94704531D01*
X150365314Y-94713536D01*
X150433421Y-94694886D01*
X150440947Y-94689774D01*
X150488630Y-94634633D01*
X150523915Y-94557433D01*
X150537699Y-94477179D01*
X150525118Y-94383532D01*
X150479511Y-94260699D01*
X150407225Y-94139195D01*
X150315256Y-94030388D01*
X150210602Y-93945651D01*
X150143943Y-93913083D01*
X150321313Y-93913083D01*
X150334231Y-93947186D01*
X150380345Y-94009345D01*
X150430523Y-94073041D01*
X150508279Y-94197134D01*
X150552743Y-94317011D01*
X150568215Y-94442585D01*
X150567903Y-94477179D01*
X150567697Y-94500049D01*
X150562143Y-94583785D01*
X150552420Y-94645991D01*
X150543762Y-94687522D01*
X150549532Y-94711956D01*
X150577910Y-94717340D01*
X150586674Y-94716243D01*
X150631579Y-94693243D01*
X150678444Y-94649795D01*
X150701909Y-94616375D01*
X150734401Y-94520707D01*
X150733382Y-94410887D01*
X150701236Y-94293794D01*
X150640349Y-94176306D01*
X150553105Y-94065302D01*
X150441891Y-93967659D01*
X150389955Y-93932509D01*
X150340314Y-93907902D01*
X150321313Y-93913083D01*
X150143943Y-93913083D01*
X150117785Y-93900303D01*
X150019352Y-93884099D01*
X149936243Y-93903884D01*
X149872997Y-93955681D01*
X149834152Y-94035515D01*
X149824249Y-94139410D01*
X149179251Y-94139410D01*
X149165125Y-94065958D01*
X149160692Y-93908598D01*
X149182879Y-93764310D01*
X149231402Y-93640588D01*
X149305977Y-93544922D01*
X149337507Y-93511396D01*
X149352220Y-93484551D01*
X149342964Y-93466846D01*
X149306606Y-93474899D01*
X149242275Y-93515570D01*
X149149523Y-93589091D01*
X149110224Y-93622529D01*
X149051299Y-93677196D01*
X149014859Y-93722672D01*
X148992550Y-93770700D01*
X148976022Y-93833022D01*
X148966125Y-93889556D01*
X148965515Y-94056380D01*
X148502645Y-94056380D01*
X148494210Y-93995648D01*
X148441341Y-93827765D01*
X148358606Y-93660955D01*
X148292129Y-93565355D01*
X148181882Y-93443793D01*
X148054681Y-93333219D01*
X147922037Y-93243380D01*
X147795462Y-93184026D01*
X147767854Y-93175051D01*
X147724663Y-93165572D01*
X147719470Y-93175351D01*
X147525803Y-93175351D01*
X147352238Y-93128333D01*
X147165104Y-93118894D01*
X147151682Y-93119785D01*
X147059474Y-93129993D01*
X147012936Y-93146456D01*
X147008665Y-93147967D01*
X146997073Y-93178382D01*
X146110558Y-93178382D01*
X146107557Y-93176586D01*
X146074053Y-93161052D01*
X145982482Y-93122584D01*
X145901016Y-93093550D01*
X145844117Y-93079291D01*
X145821905Y-93076729D01*
X145798768Y-93077006D01*
X143981385Y-93077006D01*
X143977578Y-93066341D01*
X143941126Y-92955346D01*
X143911822Y-92856307D01*
X143903509Y-92822437D01*
X144855818Y-92822437D01*
X144856894Y-92911693D01*
X144863177Y-92984316D01*
X144873629Y-93026724D01*
X144906151Y-93057615D01*
X144962709Y-93070439D01*
X145019665Y-93054039D01*
X145024355Y-93048338D01*
X145036584Y-93005151D01*
X145040900Y-92970841D01*
X146521712Y-92970841D01*
X146531043Y-93035812D01*
X146563617Y-93098111D01*
X146582238Y-93119473D01*
X146648015Y-93161759D01*
X146725346Y-93163276D01*
X146753612Y-93146456D01*
X146749728Y-93107256D01*
X146744827Y-93084898D01*
X146736850Y-93021522D01*
X146729432Y-92933788D01*
X146723703Y-92833582D01*
X146722026Y-92796173D01*
X146717137Y-92707392D01*
X146711117Y-92652403D01*
X146701978Y-92623592D01*
X146687732Y-92613345D01*
X146666391Y-92614048D01*
X146650332Y-92617798D01*
X146628805Y-92635602D01*
X146615317Y-92676229D01*
X146605131Y-92750208D01*
X146601331Y-92780635D01*
X146582587Y-92860916D01*
X146555736Y-92899484D01*
X146536223Y-92918291D01*
X146521712Y-92970841D01*
X145040900Y-92970841D01*
X145046334Y-92927635D01*
X145052595Y-92822871D01*
X145060344Y-92607831D01*
X144961554Y-92614314D01*
X144862764Y-92620797D01*
X144856391Y-92801702D01*
X144855818Y-92822437D01*
X143903509Y-92822437D01*
X143892797Y-92778796D01*
X143887181Y-92732385D01*
X143887382Y-92729727D01*
X143888449Y-92676810D01*
X143878189Y-92660830D01*
X143852911Y-92675680D01*
X143842936Y-92685649D01*
X143818782Y-92747958D01*
X143714445Y-92747958D01*
X143732057Y-92677048D01*
X143780050Y-92627033D01*
X143857862Y-92599262D01*
X143866837Y-92597680D01*
X143960815Y-92588520D01*
X144082689Y-92585555D01*
X144218672Y-92588278D01*
X144354975Y-92596184D01*
X144477810Y-92608766D01*
X144573390Y-92625518D01*
X144723082Y-92661644D01*
X144771103Y-92601420D01*
X144794075Y-92575989D01*
X144824254Y-92555612D01*
X144868442Y-92541116D01*
X144936558Y-92529379D01*
X145038524Y-92517280D01*
X145094049Y-92512299D01*
X145325946Y-92510450D01*
X145576792Y-92534744D01*
X145835218Y-92583179D01*
X145924163Y-92607831D01*
X146089854Y-92653754D01*
G37*
%TO.C,JP4*%
X174608500Y-102408500D02*
X172608500Y-102408500D01*
X172608500Y-102408500D02*
X172608500Y-106508500D01*
X175108500Y-102858500D02*
X175108500Y-103458500D01*
X174808500Y-103158500D02*
X175108500Y-102858500D01*
X174808500Y-103158500D02*
X175108500Y-103458500D01*
X174608500Y-106508500D02*
X174608500Y-102408500D01*
X172608500Y-106508500D02*
X174608500Y-106508500D01*
%TO.C,TP13*%
X181298500Y-89070500D02*
G75*
G03*
X181298500Y-89070500I-700000J0D01*
G01*
%TO.C,JP9*%
X174798500Y-126320500D02*
X176798500Y-126320500D01*
X176798500Y-126320500D02*
X176798500Y-122220500D01*
X174298500Y-125870500D02*
X174298500Y-125270500D01*
X174598500Y-125570500D02*
X174298500Y-125870500D01*
X174598500Y-125570500D02*
X174298500Y-125270500D01*
X174798500Y-122220500D02*
X174798500Y-126320500D01*
X176798500Y-122220500D02*
X174798500Y-122220500D01*
%TD*%
%LPC*%
D13*
%TO.C,J13*%
X135128000Y-105674000D03*
D14*
X135128000Y-108214000D03*
%TD*%
D13*
%TO.C,J10*%
X135128000Y-98054000D03*
D14*
X135128000Y-100594000D03*
%TD*%
D13*
%TO.C,J3*%
X147828000Y-118374000D03*
D14*
X145288000Y-118374000D03*
X142748000Y-118374000D03*
X140208000Y-118374000D03*
%TD*%
D15*
%TO.C,J1*%
X132278000Y-86824000D03*
D16*
X132278000Y-91824000D03*
%TD*%
D13*
%TO.C,J8*%
X135128000Y-113294000D03*
D14*
X135128000Y-115834000D03*
%TD*%
D13*
%TO.C,J4*%
X147828000Y-113278000D03*
D14*
X145288000Y-113278000D03*
X142748000Y-113278000D03*
X140208000Y-113278000D03*
%TD*%
D13*
%TO.C,J14*%
X160514000Y-108198000D03*
D14*
X157974000Y-108198000D03*
X155434000Y-108198000D03*
X152894000Y-108198000D03*
%TD*%
D13*
%TO.C,J2*%
X147828000Y-123454000D03*
D14*
X145288000Y-123454000D03*
X142748000Y-123454000D03*
X140208000Y-123454000D03*
%TD*%
D17*
%TO.C,U9*%
X124806000Y-104821500D03*
X124806000Y-106121500D03*
X124806000Y-107421500D03*
X126106000Y-104821500D03*
X126106000Y-106121500D03*
X126106000Y-107421500D03*
%TD*%
%TO.C,U7*%
X124754000Y-113006500D03*
X124754000Y-114306500D03*
X124754000Y-115606500D03*
X126054000Y-113006500D03*
X126054000Y-114306500D03*
X126054000Y-115606500D03*
%TD*%
D13*
%TO.C,J5*%
X147828000Y-108214000D03*
D14*
X145288000Y-108214000D03*
X142748000Y-108214000D03*
X140208000Y-108214000D03*
%TD*%
D13*
%TO.C,J12*%
X168148000Y-90424000D03*
D14*
X168148000Y-92964000D03*
X168148000Y-95504000D03*
X168148000Y-98044000D03*
%TD*%
D13*
%TO.C,J11*%
X160528000Y-113278000D03*
D14*
X157988000Y-113278000D03*
X155448000Y-113278000D03*
X152908000Y-113278000D03*
%TD*%
D13*
%TO.C,J6*%
X135128000Y-120914000D03*
D14*
X135128000Y-123454000D03*
%TD*%
D17*
%TO.C,U8*%
X124929000Y-98504500D03*
X124929000Y-99804500D03*
X124929000Y-101104500D03*
X126229000Y-98504500D03*
X126229000Y-99804500D03*
X126229000Y-101104500D03*
%TD*%
D13*
%TO.C,J7*%
X160528000Y-123454000D03*
D14*
X157988000Y-123454000D03*
X155448000Y-123454000D03*
X152908000Y-123454000D03*
%TD*%
D18*
%TO.C,XA1*%
X133858000Y-128524000D03*
X135128000Y-80264000D03*
D19*
X147828000Y-128524000D03*
D18*
X210058000Y-80264000D03*
X216408000Y-128524000D03*
D19*
X155448000Y-128524000D03*
X157988000Y-128524000D03*
X213868000Y-80264000D03*
X216408000Y-80264000D03*
X170688000Y-128524000D03*
X173228000Y-128524000D03*
X175768000Y-128524000D03*
X178308000Y-128524000D03*
X180848000Y-128524000D03*
X183388000Y-128524000D03*
X185928000Y-128524000D03*
X188468000Y-128524000D03*
X193548000Y-128524000D03*
X196088000Y-128524000D03*
X198628000Y-128524000D03*
X201168000Y-128524000D03*
X203708000Y-128524000D03*
X206248000Y-128524000D03*
X208788000Y-128524000D03*
X211328000Y-128524000D03*
X143764000Y-80264000D03*
X183388000Y-80264000D03*
X180848000Y-80264000D03*
X178308000Y-80264000D03*
X175768000Y-80264000D03*
X173228000Y-80264000D03*
X170688000Y-80264000D03*
X168148000Y-80264000D03*
X165608000Y-80264000D03*
X161544000Y-80264000D03*
X159004000Y-80264000D03*
X156464000Y-80264000D03*
X153924000Y-80264000D03*
X151384000Y-80264000D03*
X148844000Y-80264000D03*
X188468000Y-80264000D03*
X191008000Y-80264000D03*
X193548000Y-80264000D03*
X196088000Y-80264000D03*
X198628000Y-80264000D03*
X201168000Y-80264000D03*
X203708000Y-80264000D03*
X206248000Y-80264000D03*
X213868000Y-82804000D03*
X216408000Y-82804000D03*
X213868000Y-85344000D03*
X216408000Y-85344000D03*
X213868000Y-87884000D03*
X216408000Y-87884000D03*
X213868000Y-90424000D03*
X216408000Y-90424000D03*
X213868000Y-92964000D03*
X216408000Y-92964000D03*
X213868000Y-95504000D03*
X216408000Y-95504000D03*
X213868000Y-98044000D03*
X216408000Y-98044000D03*
X213868000Y-100584000D03*
X216408000Y-100584000D03*
X213868000Y-103124000D03*
X216408000Y-103124000D03*
X213868000Y-105664000D03*
X216408000Y-105664000D03*
X213868000Y-108204000D03*
X216408000Y-108204000D03*
X213868000Y-110744000D03*
X216408000Y-110744000D03*
X213868000Y-113284000D03*
X216408000Y-113284000D03*
X213868000Y-115824000D03*
X216408000Y-115824000D03*
X213868000Y-118364000D03*
X216408000Y-118364000D03*
X213868000Y-120904000D03*
X216408000Y-120904000D03*
D20*
X146304000Y-80264000D03*
X160528000Y-128524000D03*
X163068000Y-128524000D03*
X213868000Y-123444000D03*
X216408000Y-123444000D03*
D19*
X150368000Y-128524000D03*
X152908000Y-128524000D03*
X138684000Y-80264000D03*
X141224000Y-80264000D03*
X165608000Y-128524000D03*
%TD*%
D13*
%TO.C,J9*%
X160528000Y-118374000D03*
D14*
X157988000Y-118374000D03*
X155448000Y-118374000D03*
X152908000Y-118374000D03*
%TD*%
D17*
%TO.C,U6*%
X124898000Y-120824000D03*
X124898000Y-122124000D03*
X124898000Y-123424000D03*
X126198000Y-120824000D03*
X126198000Y-122124000D03*
X126198000Y-123424000D03*
%TD*%
D21*
%TO.C,JP10*%
X182132000Y-125570500D03*
X182132000Y-124270500D03*
X182132000Y-122970500D03*
%TD*%
D22*
%TO.C,TP10*%
X178798500Y-93070500D03*
%TD*%
%TO.C,TP8*%
X190118500Y-111693500D03*
%TD*%
%TO.C,TP5*%
X200234000Y-103270000D03*
%TD*%
%TO.C,TP20*%
X121452000Y-97804000D03*
%TD*%
D21*
%TO.C,JP7*%
X178678000Y-115324000D03*
X178678000Y-114024000D03*
X178678000Y-112724000D03*
%TD*%
D22*
%TO.C,TP21*%
X121198000Y-107964000D03*
%TD*%
%TO.C,TP11*%
X200728000Y-120274000D03*
%TD*%
%TO.C,TP4*%
X201034000Y-94470000D03*
%TD*%
D21*
%TO.C,JP8*%
X169798500Y-125570500D03*
X169798500Y-124270500D03*
X169798500Y-122970500D03*
%TD*%
D22*
%TO.C,TP1*%
X203234000Y-103470000D03*
%TD*%
%TO.C,TP23*%
X163068000Y-125984000D03*
%TD*%
%TO.C,TP6*%
X201034000Y-96670000D03*
%TD*%
D21*
%TO.C,JP11*%
X188228000Y-125570500D03*
X188228000Y-124270500D03*
X188228000Y-122970500D03*
%TD*%
%TO.C,JP6*%
X181478000Y-115324000D03*
X181478000Y-114024000D03*
X181478000Y-112724000D03*
%TD*%
D22*
%TO.C,TP15*%
X122722000Y-123204000D03*
%TD*%
%TO.C,TP9*%
X190118500Y-113725500D03*
%TD*%
%TO.C,TP3*%
X206478000Y-109524000D03*
%TD*%
%TO.C,TP17*%
X121960000Y-115838000D03*
%TD*%
%TO.C,TP14*%
X184228000Y-89774000D03*
%TD*%
%TO.C,TP7*%
X139319000Y-95556000D03*
%TD*%
D21*
%TO.C,JP3*%
X179958500Y-103158500D03*
X179958500Y-104458500D03*
X179958500Y-105758500D03*
%TD*%
%TO.C,JP1*%
X191808500Y-103158500D03*
X191808500Y-104458500D03*
X191808500Y-105758500D03*
%TD*%
D22*
%TO.C,TP19*%
X121198000Y-101614000D03*
%TD*%
D21*
%TO.C,JP5*%
X184278000Y-115324000D03*
X184278000Y-114024000D03*
X184278000Y-112724000D03*
%TD*%
D22*
%TO.C,TP18*%
X121960000Y-112790000D03*
%TD*%
%TO.C,TP2*%
X206834000Y-102470000D03*
%TD*%
%TO.C,TP16*%
X122618000Y-120824000D03*
%TD*%
%TO.C,TP22*%
X121452000Y-104662000D03*
%TD*%
D23*
%TO.C,U10*%
X190923000Y-90999000D03*
D24*
X193203000Y-97299000D03*
D23*
X195483000Y-90999000D03*
%TD*%
D21*
%TO.C,JP2*%
X186054500Y-103158500D03*
X186054500Y-104458500D03*
X186054500Y-105758500D03*
%TD*%
%TO.C,JP4*%
X173608500Y-103158500D03*
X173608500Y-104458500D03*
X173608500Y-105758500D03*
%TD*%
D22*
%TO.C,TP13*%
X180598500Y-89070500D03*
%TD*%
D21*
%TO.C,JP9*%
X175798500Y-125570500D03*
X175798500Y-124270500D03*
X175798500Y-122970500D03*
%TD*%
%LPD*%
M02*
