%TF.GenerationSoftware,KiCad,Pcbnew,7.0.2*%
%TF.CreationDate,2023-07-01T11:58:04+02:00*%
%TF.ProjectId,RocciShield,526f6363-6953-4686-9965-6c642e6b6963,rev?*%
%TF.SameCoordinates,Original*%
%TF.FileFunction,Paste,Top*%
%TF.FilePolarity,Positive*%
%FSLAX46Y46*%
G04 Gerber Fmt 4.6, Leading zero omitted, Abs format (unit mm)*
G04 Created by KiCad (PCBNEW 7.0.2) date 2023-07-01 11:58:04*
%MOMM*%
%LPD*%
G01*
G04 APERTURE LIST*
G04 Aperture macros list*
%AMRoundRect*
0 Rectangle with rounded corners*
0 $1 Rounding radius*
0 $2 $3 $4 $5 $6 $7 $8 $9 X,Y pos of 4 corners*
0 Add a 4 corners polygon primitive as box body*
4,1,4,$2,$3,$4,$5,$6,$7,$8,$9,$2,$3,0*
0 Add four circle primitives for the rounded corners*
1,1,$1+$1,$2,$3*
1,1,$1+$1,$4,$5*
1,1,$1+$1,$6,$7*
1,1,$1+$1,$8,$9*
0 Add four rect primitives between the rounded corners*
20,1,$1+$1,$2,$3,$4,$5,0*
20,1,$1+$1,$4,$5,$6,$7,0*
20,1,$1+$1,$6,$7,$8,$9,0*
20,1,$1+$1,$8,$9,$2,$3,0*%
G04 Aperture macros list end*
%ADD10RoundRect,0.112500X0.112500X-0.187500X0.112500X0.187500X-0.112500X0.187500X-0.112500X-0.187500X0*%
%ADD11R,6.000000X6.000000*%
%ADD12RoundRect,0.225000X-0.250000X0.225000X-0.250000X-0.225000X0.250000X-0.225000X0.250000X0.225000X0*%
%ADD13RoundRect,0.250000X-0.850000X-0.350000X0.850000X-0.350000X0.850000X0.350000X-0.850000X0.350000X0*%
%ADD14RoundRect,0.250000X-1.275000X-1.125000X1.275000X-1.125000X1.275000X1.125000X-1.275000X1.125000X0*%
%ADD15RoundRect,0.225000X-0.225000X-0.250000X0.225000X-0.250000X0.225000X0.250000X-0.225000X0.250000X0*%
%ADD16RoundRect,0.200000X-0.275000X0.200000X-0.275000X-0.200000X0.275000X-0.200000X0.275000X0.200000X0*%
%ADD17R,1.100000X3.700000*%
%ADD18RoundRect,0.250000X-1.025000X0.787500X-1.025000X-0.787500X1.025000X-0.787500X1.025000X0.787500X0*%
%ADD19RoundRect,0.100000X0.100000X-0.637500X0.100000X0.637500X-0.100000X0.637500X-0.100000X-0.637500X0*%
%ADD20RoundRect,0.200000X0.200000X0.275000X-0.200000X0.275000X-0.200000X-0.275000X0.200000X-0.275000X0*%
%ADD21RoundRect,0.150000X0.150000X-0.512500X0.150000X0.512500X-0.150000X0.512500X-0.150000X-0.512500X0*%
%ADD22RoundRect,0.200000X0.275000X-0.200000X0.275000X0.200000X-0.275000X0.200000X-0.275000X-0.200000X0*%
%ADD23RoundRect,0.250000X-1.500000X-0.550000X1.500000X-0.550000X1.500000X0.550000X-1.500000X0.550000X0*%
%ADD24RoundRect,0.218750X-0.256250X0.218750X-0.256250X-0.218750X0.256250X-0.218750X0.256250X0.218750X0*%
%ADD25RoundRect,0.218750X0.256250X-0.218750X0.256250X0.218750X-0.256250X0.218750X-0.256250X-0.218750X0*%
%ADD26RoundRect,0.218750X-0.218750X-0.256250X0.218750X-0.256250X0.218750X0.256250X-0.218750X0.256250X0*%
%ADD27RoundRect,0.225000X0.250000X-0.225000X0.250000X0.225000X-0.250000X0.225000X-0.250000X-0.225000X0*%
%ADD28RoundRect,0.250000X0.712500X2.475000X-0.712500X2.475000X-0.712500X-2.475000X0.712500X-2.475000X0*%
%ADD29RoundRect,0.250000X0.262500X0.450000X-0.262500X0.450000X-0.262500X-0.450000X0.262500X-0.450000X0*%
%ADD30RoundRect,0.243750X0.456250X-0.243750X0.456250X0.243750X-0.456250X0.243750X-0.456250X-0.243750X0*%
%ADD31RoundRect,0.200000X-0.200000X-0.275000X0.200000X-0.275000X0.200000X0.275000X-0.200000X0.275000X0*%
%ADD32RoundRect,0.250000X-0.262500X-0.450000X0.262500X-0.450000X0.262500X0.450000X-0.262500X0.450000X0*%
%ADD33RoundRect,0.250000X-0.400000X-0.600000X0.400000X-0.600000X0.400000X0.600000X-0.400000X0.600000X0*%
%ADD34RoundRect,0.243750X-0.456250X0.243750X-0.456250X-0.243750X0.456250X-0.243750X0.456250X0.243750X0*%
%ADD35R,1.200000X1.250000*%
%ADD36R,1.270000X1.400000*%
%ADD37RoundRect,0.250000X-0.350000X0.850000X-0.350000X-0.850000X0.350000X-0.850000X0.350000X0.850000X0*%
%ADD38RoundRect,0.250000X-1.125000X1.275000X-1.125000X-1.275000X1.125000X-1.275000X1.125000X1.275000X0*%
%ADD39R,2.400000X3.100000*%
%ADD40R,2.200000X0.500000*%
%ADD41RoundRect,0.225000X0.225000X0.250000X-0.225000X0.250000X-0.225000X-0.250000X0.225000X-0.250000X0*%
%ADD42RoundRect,0.150000X-0.825000X-0.150000X0.825000X-0.150000X0.825000X0.150000X-0.825000X0.150000X0*%
%ADD43RoundRect,0.250000X0.375000X0.625000X-0.375000X0.625000X-0.375000X-0.625000X0.375000X-0.625000X0*%
%ADD44RoundRect,0.250000X0.550000X-1.500000X0.550000X1.500000X-0.550000X1.500000X-0.550000X-1.500000X0*%
%ADD45RoundRect,0.150000X-0.587500X-0.150000X0.587500X-0.150000X0.587500X0.150000X-0.587500X0.150000X0*%
%ADD46R,1.550000X0.600000*%
%ADD47R,2.600000X3.100000*%
G04 APERTURE END LIST*
D10*
%TO.C,D12*%
X206248000Y-118584000D03*
X206248000Y-116484000D03*
%TD*%
%TO.C,D11*%
X209042000Y-118364000D03*
X209042000Y-116264000D03*
%TD*%
%TO.C,D10*%
X199136000Y-117856000D03*
X199136000Y-115756000D03*
%TD*%
%TO.C,D9*%
X196850000Y-117822000D03*
X196850000Y-115722000D03*
%TD*%
D11*
%TO.C,F2*%
X135128000Y-89408000D03*
X152128000Y-89408000D03*
%TD*%
D12*
%TO.C,C21*%
X177800000Y-99809000D03*
X177800000Y-101359000D03*
%TD*%
D13*
%TO.C,U2*%
X179731000Y-91191000D03*
D14*
X184356000Y-91946000D03*
X184356000Y-94996000D03*
X187706000Y-91946000D03*
X187706000Y-94996000D03*
D13*
X179731000Y-95751000D03*
%TD*%
D15*
%TO.C,C7*%
X185394000Y-106159000D03*
X186944000Y-106159000D03*
%TD*%
%TO.C,C19*%
X169341000Y-126492000D03*
X170891000Y-126492000D03*
%TD*%
D16*
%TO.C,R59*%
X126746000Y-105030000D03*
X126746000Y-106680000D03*
%TD*%
D17*
%TO.C,L1*%
X182578000Y-99809000D03*
X179578000Y-99809000D03*
%TD*%
D18*
%TO.C,C4*%
X169418000Y-95426500D03*
X169418000Y-101651500D03*
%TD*%
D19*
%TO.C,U5*%
X203080000Y-96520000D03*
X203730000Y-96520000D03*
X204380000Y-96520000D03*
X205030000Y-96520000D03*
X205680000Y-96520000D03*
X206330000Y-96520000D03*
X206980000Y-96520000D03*
X207630000Y-96520000D03*
X208280000Y-96520000D03*
X208930000Y-96520000D03*
X209580000Y-96520000D03*
X210230000Y-96520000D03*
X210230000Y-90795000D03*
X209580000Y-90795000D03*
X208930000Y-90795000D03*
X208280000Y-90795000D03*
X207630000Y-90795000D03*
X206980000Y-90795000D03*
X206330000Y-90795000D03*
X205680000Y-90795000D03*
X205030000Y-90795000D03*
X204380000Y-90795000D03*
X203730000Y-90795000D03*
X203080000Y-90795000D03*
%TD*%
D20*
%TO.C,R34*%
X182246000Y-123698000D03*
X183896000Y-123698000D03*
%TD*%
%TO.C,R3*%
X182372000Y-114808000D03*
X184022000Y-114808000D03*
%TD*%
D15*
%TO.C,C10*%
X190526000Y-82550000D03*
X188976000Y-82550000D03*
%TD*%
D21*
%TO.C,U4*%
X158689000Y-105156000D03*
X159639000Y-105156000D03*
X160589000Y-105156000D03*
X160589000Y-107431000D03*
X159639000Y-107431000D03*
X158689000Y-107431000D03*
%TD*%
D10*
%TO.C,D25*%
X200406000Y-125730000D03*
X200406000Y-123630000D03*
%TD*%
D16*
%TO.C,R62*%
X192786000Y-120362000D03*
X192786000Y-122012000D03*
%TD*%
D20*
%TO.C,R50*%
X177292000Y-116586000D03*
X178942000Y-116586000D03*
%TD*%
D22*
%TO.C,R22*%
X198882000Y-114358000D03*
X198882000Y-112708000D03*
%TD*%
D23*
%TO.C,C14*%
X158938000Y-93472000D03*
X164338000Y-93472000D03*
%TD*%
D24*
%TO.C,D18*%
X143002000Y-102667000D03*
X143002000Y-101092000D03*
%TD*%
D20*
%TO.C,R7*%
X183768000Y-108699000D03*
X182118000Y-108699000D03*
%TD*%
D25*
%TO.C,D23*%
X126746000Y-102413000D03*
X126746000Y-100838000D03*
%TD*%
D26*
%TO.C,D6*%
X190665500Y-84582000D03*
X192240500Y-84582000D03*
%TD*%
D20*
%TO.C,R5*%
X187070000Y-108699000D03*
X185420000Y-108699000D03*
%TD*%
D22*
%TO.C,R6*%
X176022000Y-108825000D03*
X176022000Y-107175000D03*
%TD*%
D27*
%TO.C,C3*%
X185420000Y-104648000D03*
X185420000Y-103098000D03*
%TD*%
D28*
%TO.C,F9*%
X180848000Y-86614000D03*
X174073000Y-86614000D03*
%TD*%
D29*
%TO.C,R45*%
X150829000Y-95504000D03*
X152654000Y-95504000D03*
%TD*%
D22*
%TO.C,R11*%
X206756000Y-107926000D03*
X206756000Y-106276000D03*
%TD*%
D10*
%TO.C,D30*%
X192786000Y-125510000D03*
X192786000Y-123410000D03*
%TD*%
D15*
%TO.C,C20*%
X165608000Y-126492000D03*
X167158000Y-126492000D03*
%TD*%
D30*
%TO.C,F7*%
X204724000Y-122203000D03*
X204724000Y-120328000D03*
%TD*%
D25*
%TO.C,D17*%
X121158000Y-94234000D03*
X121158000Y-92659000D03*
%TD*%
%TO.C,D19*%
X144526000Y-101092000D03*
X144526000Y-102667000D03*
%TD*%
D16*
%TO.C,R29*%
X172720000Y-124714000D03*
X172720000Y-126364000D03*
%TD*%
D29*
%TO.C,R37*%
X152550500Y-103124000D03*
X150725500Y-103124000D03*
%TD*%
D25*
%TO.C,D28*%
X125222000Y-109779000D03*
X125222000Y-108204000D03*
%TD*%
D29*
%TO.C,R60*%
X135175000Y-103124000D03*
X133350000Y-103124000D03*
%TD*%
D25*
%TO.C,D14*%
X143119000Y-110236000D03*
X143119000Y-108661000D03*
%TD*%
D31*
%TO.C,R27*%
X183959000Y-120396000D03*
X182309000Y-120396000D03*
%TD*%
D20*
%TO.C,R33*%
X182246000Y-125476000D03*
X183896000Y-125476000D03*
%TD*%
D26*
%TO.C,D7*%
X194475500Y-84582000D03*
X196050500Y-84582000D03*
%TD*%
D10*
%TO.C,D1*%
X209804000Y-104682000D03*
X209804000Y-102582000D03*
%TD*%
D16*
%TO.C,R35*%
X144643000Y-105487000D03*
X144643000Y-107137000D03*
%TD*%
D22*
%TO.C,R2*%
X207264000Y-101184000D03*
X207264000Y-99534000D03*
%TD*%
%TO.C,R46*%
X209296000Y-121724000D03*
X209296000Y-120074000D03*
%TD*%
%TO.C,R65*%
X156911000Y-105023500D03*
X156911000Y-106673500D03*
%TD*%
D20*
%TO.C,R57*%
X177292000Y-121920000D03*
X178942000Y-121920000D03*
%TD*%
D26*
%TO.C,D8*%
X198285500Y-84582000D03*
X199860500Y-84582000D03*
%TD*%
D16*
%TO.C,R13*%
X166055000Y-107314000D03*
X166055000Y-105664000D03*
%TD*%
D30*
%TO.C,F5*%
X204216000Y-115599000D03*
X204216000Y-113724000D03*
%TD*%
D31*
%TO.C,R24*%
X183388000Y-88900000D03*
X185038000Y-88900000D03*
%TD*%
D16*
%TO.C,R51*%
X125222000Y-97664000D03*
X125222000Y-99314000D03*
%TD*%
D32*
%TO.C,R53*%
X133303000Y-95504000D03*
X135128000Y-95504000D03*
%TD*%
D24*
%TO.C,D22*%
X125222000Y-100838000D03*
X125222000Y-102413000D03*
%TD*%
D16*
%TO.C,R58*%
X125222000Y-105030000D03*
X125222000Y-106680000D03*
%TD*%
D15*
%TO.C,C6*%
X209804000Y-87376000D03*
X211354000Y-87376000D03*
%TD*%
D33*
%TO.C,D26*%
X184841000Y-86614000D03*
X188341000Y-86614000D03*
%TD*%
D16*
%TO.C,R43*%
X143002000Y-99568000D03*
X143002000Y-97918000D03*
%TD*%
%TO.C,R26*%
X162499000Y-107314000D03*
X162499000Y-105664000D03*
%TD*%
D15*
%TO.C,C15*%
X147040000Y-103124000D03*
X148590000Y-103124000D03*
%TD*%
D34*
%TO.C,F8*%
X196596000Y-120108000D03*
X196596000Y-121983000D03*
%TD*%
D20*
%TO.C,R32*%
X171068000Y-124714000D03*
X169418000Y-124714000D03*
%TD*%
%TO.C,R56*%
X177292000Y-120142000D03*
X178942000Y-120142000D03*
%TD*%
D10*
%TO.C,D4*%
X206502000Y-111540000D03*
X206502000Y-109440000D03*
%TD*%
%TO.C,D31*%
X190246000Y-125510000D03*
X190246000Y-123410000D03*
%TD*%
D16*
%TO.C,R36*%
X143119000Y-105487000D03*
X143119000Y-107137000D03*
%TD*%
D31*
%TO.C,R42*%
X122936000Y-94234000D03*
X124586000Y-94234000D03*
%TD*%
D35*
%TO.C,D32*%
X161456000Y-85168000D03*
X159766000Y-85168000D03*
X158106000Y-85168000D03*
X161456000Y-86868000D03*
X159766000Y-86868000D03*
X158106000Y-86868000D03*
X161456000Y-88568000D03*
X159766000Y-88568000D03*
X158106000Y-88568000D03*
D36*
X163571000Y-85828000D03*
X163571000Y-87908000D03*
%TD*%
D30*
%TO.C,F1*%
X204724000Y-101663000D03*
X204724000Y-99788000D03*
%TD*%
D33*
%TO.C,D27*%
X183444000Y-83566000D03*
X186944000Y-83566000D03*
%TD*%
D31*
%TO.C,R9*%
X206630000Y-87122000D03*
X208280000Y-87122000D03*
%TD*%
D15*
%TO.C,C17*%
X130022000Y-95504000D03*
X131572000Y-95504000D03*
%TD*%
D37*
%TO.C,U3*%
X196591000Y-99007000D03*
D38*
X195836000Y-103632000D03*
X192786000Y-103632000D03*
X195836000Y-106982000D03*
X192786000Y-106982000D03*
D37*
X192031000Y-99007000D03*
%TD*%
D31*
%TO.C,R16*%
X190628000Y-87376000D03*
X192278000Y-87376000D03*
%TD*%
D39*
%TO.C,U9*%
X131938000Y-106904000D03*
D40*
X134813000Y-108809000D03*
X134813000Y-107539000D03*
X134813000Y-106269000D03*
X134813000Y-104999000D03*
X129063000Y-104999000D03*
X129063000Y-106269000D03*
X129063000Y-107539000D03*
X129063000Y-108809000D03*
%TD*%
D39*
%TO.C,U7*%
X149718000Y-99284000D03*
D40*
X152593000Y-101189000D03*
X152593000Y-99919000D03*
X152593000Y-98649000D03*
X152593000Y-97379000D03*
X146843000Y-97379000D03*
X146843000Y-98649000D03*
X146843000Y-99919000D03*
X146843000Y-101189000D03*
%TD*%
D16*
%TO.C,R54*%
X200406000Y-120236000D03*
X200406000Y-121886000D03*
%TD*%
D41*
%TO.C,C9*%
X175273000Y-93218000D03*
X173723000Y-93218000D03*
%TD*%
D10*
%TO.C,D15*%
X189606000Y-117509000D03*
X189606000Y-115409000D03*
%TD*%
D22*
%TO.C,R30*%
X206502000Y-114612000D03*
X206502000Y-112962000D03*
%TD*%
D15*
%TO.C,C13*%
X196062000Y-109728000D03*
X197612000Y-109728000D03*
%TD*%
D42*
%TO.C,Q1*%
X164084000Y-97790000D03*
X164084000Y-99060000D03*
X164084000Y-100330000D03*
X164084000Y-101600000D03*
X159134000Y-101600000D03*
X159134000Y-100330000D03*
X159134000Y-99060000D03*
X159134000Y-97790000D03*
%TD*%
D20*
%TO.C,R49*%
X177292000Y-118364000D03*
X178942000Y-118364000D03*
%TD*%
%TO.C,R12*%
X182372000Y-118364000D03*
X184022000Y-118364000D03*
%TD*%
D43*
%TO.C,F11*%
X176619000Y-91186000D03*
X173819000Y-91186000D03*
%TD*%
D22*
%TO.C,R47*%
X207010000Y-121978000D03*
X207010000Y-120328000D03*
%TD*%
D10*
%TO.C,D20*%
X209296000Y-125222000D03*
X209296000Y-123122000D03*
%TD*%
D18*
%TO.C,C5*%
X174498000Y-95426500D03*
X174498000Y-101651500D03*
%TD*%
D10*
%TO.C,D24*%
X198374000Y-125730000D03*
X198374000Y-123630000D03*
%TD*%
D16*
%TO.C,R14*%
X156911000Y-103245500D03*
X156911000Y-101595500D03*
%TD*%
D10*
%TO.C,D16*%
X191770000Y-117602000D03*
X191770000Y-115502000D03*
%TD*%
D16*
%TO.C,R61*%
X190246000Y-120362000D03*
X190246000Y-122012000D03*
%TD*%
D31*
%TO.C,R18*%
X198248000Y-87376000D03*
X199898000Y-87376000D03*
%TD*%
D39*
%TO.C,U8*%
X131938000Y-99284000D03*
D40*
X134813000Y-101189000D03*
X134813000Y-99919000D03*
X134813000Y-98649000D03*
X134813000Y-97379000D03*
X129063000Y-97379000D03*
X129063000Y-98649000D03*
X129063000Y-99919000D03*
X129063000Y-101189000D03*
%TD*%
D10*
%TO.C,D21*%
X207010000Y-125408000D03*
X207010000Y-123308000D03*
%TD*%
D23*
%TO.C,C11*%
X191610000Y-93472000D03*
X197010000Y-93472000D03*
%TD*%
D27*
%TO.C,C2*%
X176022000Y-105423000D03*
X176022000Y-103873000D03*
%TD*%
D22*
%TO.C,R39*%
X189738000Y-113918000D03*
X189738000Y-112268000D03*
%TD*%
D20*
%TO.C,R63*%
X177292000Y-125476000D03*
X178942000Y-125476000D03*
%TD*%
%TO.C,R4*%
X182372000Y-113030000D03*
X184022000Y-113030000D03*
%TD*%
D10*
%TO.C,D2*%
X207513000Y-104648000D03*
X207513000Y-102548000D03*
%TD*%
D22*
%TO.C,R19*%
X164277000Y-105664000D03*
X164277000Y-107314000D03*
%TD*%
D24*
%TO.C,D13*%
X144643000Y-108661000D03*
X144643000Y-110236000D03*
%TD*%
D20*
%TO.C,R40*%
X177292000Y-113030000D03*
X178942000Y-113030000D03*
%TD*%
D44*
%TO.C,C1*%
X171450000Y-110543000D03*
X171450000Y-105143000D03*
%TD*%
D45*
%TO.C,Q2*%
X126316500Y-92268000D03*
X126316500Y-94168000D03*
X128191500Y-93218000D03*
%TD*%
D16*
%TO.C,R21*%
X198628000Y-101474000D03*
X198628000Y-103124000D03*
%TD*%
D22*
%TO.C,R10*%
X208788000Y-107672000D03*
X208788000Y-106022000D03*
%TD*%
D16*
%TO.C,R25*%
X198628000Y-98298000D03*
X198628000Y-99948000D03*
%TD*%
D10*
%TO.C,D5*%
X208788000Y-111356000D03*
X208788000Y-109256000D03*
%TD*%
D20*
%TO.C,R64*%
X177292000Y-123698000D03*
X178942000Y-123698000D03*
%TD*%
D31*
%TO.C,R17*%
X194438000Y-87376000D03*
X196088000Y-87376000D03*
%TD*%
D22*
%TO.C,R23*%
X196850000Y-114358000D03*
X196850000Y-112708000D03*
%TD*%
D34*
%TO.C,F10*%
X188214000Y-120265000D03*
X188214000Y-122140000D03*
%TD*%
D22*
%TO.C,R31*%
X209296000Y-114612000D03*
X209296000Y-112962000D03*
%TD*%
%TO.C,R1*%
X209804000Y-100676000D03*
X209804000Y-99026000D03*
%TD*%
D31*
%TO.C,R8*%
X202185000Y-87122000D03*
X203835000Y-87122000D03*
%TD*%
D16*
%TO.C,R55*%
X198628000Y-120236000D03*
X198628000Y-121886000D03*
%TD*%
%TO.C,R44*%
X144526000Y-99568000D03*
X144526000Y-97918000D03*
%TD*%
D22*
%TO.C,R38*%
X192024000Y-113918000D03*
X192024000Y-112268000D03*
%TD*%
D12*
%TO.C,C12*%
X189738000Y-99034000D03*
X189738000Y-100584000D03*
%TD*%
D46*
%TO.C,U1*%
X183561000Y-103126000D03*
X183561000Y-104396000D03*
X183561000Y-105666000D03*
X183561000Y-106936000D03*
X178161000Y-106936000D03*
X178161000Y-105666000D03*
X178161000Y-104396000D03*
X178161000Y-103126000D03*
D47*
X180861000Y-105031000D03*
%TD*%
D31*
%TO.C,R28*%
X183959000Y-122047000D03*
X182309000Y-122047000D03*
%TD*%
D20*
%TO.C,R15*%
X182372000Y-116586000D03*
X184022000Y-116586000D03*
%TD*%
D16*
%TO.C,R52*%
X126746000Y-97664000D03*
X126746000Y-99314000D03*
%TD*%
D30*
%TO.C,F4*%
X194818000Y-114837000D03*
X194818000Y-112962000D03*
%TD*%
D25*
%TO.C,D29*%
X126746000Y-109779000D03*
X126746000Y-108204000D03*
%TD*%
D15*
%TO.C,C16*%
X129781000Y-103124000D03*
X131331000Y-103124000D03*
%TD*%
%TO.C,C18*%
X146786000Y-95504000D03*
X148336000Y-95504000D03*
%TD*%
D31*
%TO.C,R20*%
X186690000Y-88900000D03*
X188340000Y-88900000D03*
%TD*%
D30*
%TO.C,F6*%
X187706000Y-114397000D03*
X187706000Y-112522000D03*
%TD*%
%TO.C,F3*%
X204724000Y-107897000D03*
X204724000Y-106022000D03*
%TD*%
D39*
%TO.C,U6*%
X149718000Y-106904000D03*
D40*
X152593000Y-108809000D03*
X152593000Y-107539000D03*
X152593000Y-106269000D03*
X152593000Y-104999000D03*
X146843000Y-104999000D03*
X146843000Y-106269000D03*
X146843000Y-107539000D03*
X146843000Y-108809000D03*
%TD*%
D20*
%TO.C,R41*%
X177292000Y-114808000D03*
X178942000Y-114808000D03*
%TD*%
%TO.C,R48*%
X124523000Y-92456000D03*
X122873000Y-92456000D03*
%TD*%
D15*
%TO.C,C8*%
X159740000Y-103378000D03*
X161290000Y-103378000D03*
%TD*%
M02*
