M48
; DRILL file {KiCad 7.0.2} date Sat Jul  1 11:58:04 2023
; FORMAT={-:-/ absolute / inch / decimal}
; #@! TF.CreationDate,2023-07-01T11:58:04+02:00
; #@! TF.GenerationSoftware,Kicad,Pcbnew,7.0.2
; #@! TF.FileFunction,Plated,1,2,PTH
FMAT,2
INCH
; #@! TA.AperFunction,Plated,PTH,ComponentDrill
T1C0.0118
; #@! TA.AperFunction,Plated,PTH,ComponentDrill
T2C0.0130
; #@! TA.AperFunction,Plated,PTH,ViaDrill
T3C0.0157
; #@! TA.AperFunction,Plated,PTH,ComponentDrill
T4C0.0394
; #@! TA.AperFunction,Plated,PTH,ComponentDrill
T5C0.0400
; #@! TA.AperFunction,Plated,PTH,ComponentDrill
T6C0.0551
%
G90
G05
T1
X7.0949Y-4.0583
X7.0949Y-4.1095
X7.0949Y-4.1607
X7.0949Y-4.2119
X7.1461Y-4.0583
X7.1461Y-4.1095
X7.1461Y-4.1607
X7.1461Y-4.2119
T2
X5.1688Y-3.8576
X5.1688Y-3.9088
X5.1688Y-3.96
X5.1688Y-4.1576
X5.1688Y-4.2088
X5.1688Y-4.26
X5.22Y-3.8576
X5.22Y-3.9088
X5.22Y-3.96
X5.22Y-4.1576
X5.22Y-4.2088
X5.22Y-4.26
X5.8688Y-3.8576
X5.8688Y-3.9088
X5.8688Y-3.96
X5.8688Y-4.1576
X5.8688Y-4.2088
X5.8688Y-4.26
X5.92Y-3.8576
X5.92Y-3.9088
X5.92Y-3.96
X5.92Y-4.1576
X5.92Y-4.2088
X5.92Y-4.26
T3
X4.77Y-3.6
X5.05Y-3.78
X5.06Y-4.08
X5.19Y-3.66
X5.19Y-3.69
X5.22Y-3.66
X5.22Y-3.69
X5.25Y-3.66
X5.25Y-3.69
X5.28Y-3.66
X5.28Y-3.69
X5.31Y-3.66
X5.31Y-3.69
X5.34Y-3.66
X5.34Y-3.69
X5.54Y-3.66
X5.54Y-3.69
X5.54Y-3.72
X5.57Y-3.66
X5.57Y-3.69
X5.57Y-3.72
X5.6Y-3.66
X5.6Y-3.69
X5.6Y-3.72
X5.63Y-3.66
X5.63Y-3.69
X5.63Y-3.72
X5.71Y-4.0963
X5.71Y-3.8
X6.1376Y-4.2448
X6.1976Y-4.2348
X6.25Y-3.73
X6.63Y-3.69
X6.64Y-3.89
X6.64Y-3.92
X6.67Y-3.89
X6.67Y-3.92
X6.7Y-3.89
X6.7Y-3.92
X6.84Y-3.88
X6.84Y-3.91
X6.87Y-3.88
X6.87Y-3.91
X6.9Y-3.88
X6.9Y-3.91
X6.94Y-4.94
X6.95Y-4.87
X6.97Y-3.69
X6.98Y-4.2795
X7.04Y-3.9295
X7.19Y-3.42
X7.28Y-4.3295
X7.3Y-4.0095
X7.33Y-4.2295
X7.38Y-4.0695
X7.4Y-4.2795
X7.41Y-4.84
T4
X4.82Y-3.86
X4.82Y-3.96
X4.82Y-4.16
X4.82Y-4.26
X4.82Y-4.46
X4.82Y-4.56
X4.82Y-4.66
X4.82Y-4.76
X5.02Y-4.46
X5.02Y-4.56
X5.02Y-4.66
X5.02Y-4.76
X5.22Y-4.46
X5.22Y-4.56
X5.22Y-4.66
X5.22Y-4.76
X5.42Y-4.46
X5.42Y-4.56
X5.42Y-4.66
X5.42Y-4.76
X5.52Y-3.86
X5.52Y-3.96
X5.52Y-4.16
X5.52Y-4.26
X5.62Y-4.46
X5.62Y-4.56
X5.62Y-4.66
X5.62Y-4.76
X5.82Y-4.46
X5.82Y-4.56
X5.82Y-4.66
X5.82Y-4.76
X6.02Y-4.46
X6.02Y-4.56
X6.02Y-4.66
X6.02Y-4.76
X6.22Y-4.46
X6.22Y-4.56
X6.22Y-4.66
X6.22Y-4.76
X6.72Y-3.32
X6.72Y-3.42
X6.72Y-3.52
X6.72Y-3.62
T5
X5.46Y-3.16
X5.56Y-3.16
X5.66Y-3.16
X5.76Y-3.16
X5.82Y-5.06
X5.86Y-3.16
X5.92Y-5.06
X5.96Y-3.16
X6.02Y-5.06
X6.06Y-3.16
X6.12Y-5.06
X6.16Y-3.16
X6.22Y-5.06
X6.26Y-3.16
X6.32Y-5.06
X6.36Y-3.16
X6.42Y-5.06
X6.52Y-3.16
X6.52Y-5.06
X6.62Y-3.16
X6.72Y-3.16
X6.72Y-5.06
X6.82Y-3.16
X6.82Y-5.06
X6.92Y-3.16
X6.92Y-5.06
X7.02Y-3.16
X7.02Y-5.06
X7.12Y-3.16
X7.12Y-5.06
X7.22Y-3.16
X7.22Y-5.06
X7.32Y-5.06
X7.42Y-3.16
X7.42Y-5.06
X7.52Y-3.16
X7.62Y-3.16
X7.62Y-5.06
X7.72Y-3.16
X7.72Y-5.06
X7.82Y-3.16
X7.82Y-5.06
X7.92Y-3.16
X7.92Y-5.06
X8.02Y-3.16
X8.02Y-5.06
X8.12Y-3.16
X8.12Y-5.06
X8.22Y-5.06
X8.32Y-5.06
X8.42Y-3.16
X8.42Y-3.26
X8.42Y-3.36
X8.42Y-3.46
X8.42Y-3.56
X8.42Y-3.66
X8.42Y-3.76
X8.42Y-3.86
X8.42Y-3.96
X8.42Y-4.06
X8.42Y-4.16
X8.42Y-4.26
X8.42Y-4.36
X8.42Y-4.46
X8.42Y-4.56
X8.42Y-4.66
X8.42Y-4.76
X8.42Y-4.86
X8.52Y-3.16
X8.52Y-3.26
X8.52Y-3.36
X8.52Y-3.46
X8.52Y-3.56
X8.52Y-3.66
X8.52Y-3.76
X8.52Y-3.86
X8.52Y-3.96
X8.52Y-4.06
X8.52Y-4.16
X8.52Y-4.26
X8.52Y-4.36
X8.52Y-4.46
X8.52Y-4.56
X8.52Y-4.66
X8.52Y-4.76
X8.52Y-4.86
T6
X4.9484Y-3.2316
X4.9484Y-3.4284
T0
M30
