%TF.GenerationSoftware,KiCad,Pcbnew,7.0.2*%
%TF.CreationDate,2023-09-29T21:12:53+02:00*%
%TF.ProjectId,RocciBoard,526f6363-6942-46f6-9172-642e6b696361,rev?*%
%TF.SameCoordinates,Original*%
%TF.FileFunction,Legend,Top*%
%TF.FilePolarity,Positive*%
%FSLAX46Y46*%
G04 Gerber Fmt 4.6, Leading zero omitted, Abs format (unit mm)*
G04 Created by KiCad (PCBNEW 7.0.2) date 2023-09-29 21:12:53*
%MOMM*%
%LPD*%
G01*
G04 APERTURE LIST*
G04 Aperture macros list*
%AMRoundRect*
0 Rectangle with rounded corners*
0 $1 Rounding radius*
0 $2 $3 $4 $5 $6 $7 $8 $9 X,Y pos of 4 corners*
0 Add a 4 corners polygon primitive as box body*
4,1,4,$2,$3,$4,$5,$6,$7,$8,$9,$2,$3,0*
0 Add four circle primitives for the rounded corners*
1,1,$1+$1,$2,$3*
1,1,$1+$1,$4,$5*
1,1,$1+$1,$6,$7*
1,1,$1+$1,$8,$9*
0 Add four rect primitives between the rounded corners*
20,1,$1+$1,$2,$3,$4,$5,0*
20,1,$1+$1,$4,$5,$6,$7,0*
20,1,$1+$1,$6,$7,$8,$9,0*
20,1,$1+$1,$8,$9,$2,$3,0*%
G04 Aperture macros list end*
%ADD10C,0.150000*%
%ADD11C,0.300000*%
%ADD12C,0.075000*%
%ADD13C,0.120000*%
%ADD14RoundRect,0.250000X0.850000X0.350000X-0.850000X0.350000X-0.850000X-0.350000X0.850000X-0.350000X0*%
%ADD15RoundRect,0.249997X2.950003X2.650003X-2.950003X2.650003X-2.950003X-2.650003X2.950003X-2.650003X0*%
%ADD16RoundRect,0.225000X-0.250000X0.225000X-0.250000X-0.225000X0.250000X-0.225000X0.250000X0.225000X0*%
%ADD17RoundRect,0.225000X-0.225000X-0.250000X0.225000X-0.250000X0.225000X0.250000X-0.225000X0.250000X0*%
%ADD18RoundRect,0.112500X-0.112500X0.187500X-0.112500X-0.187500X0.112500X-0.187500X0.112500X0.187500X0*%
%ADD19RoundRect,0.200000X0.275000X-0.200000X0.275000X0.200000X-0.275000X0.200000X-0.275000X-0.200000X0*%
%ADD20R,3.700000X1.100000*%
%ADD21RoundRect,0.250000X0.787500X1.025000X-0.787500X1.025000X-0.787500X-1.025000X0.787500X-1.025000X0*%
%ADD22RoundRect,0.100000X-0.100000X0.637500X-0.100000X-0.637500X0.100000X-0.637500X0.100000X0.637500X0*%
%ADD23R,1.700000X1.700000*%
%ADD24O,1.700000X1.700000*%
%ADD25RoundRect,0.200000X0.200000X0.275000X-0.200000X0.275000X-0.200000X-0.275000X0.200000X-0.275000X0*%
%ADD26RoundRect,0.150000X0.150000X-0.512500X0.150000X0.512500X-0.150000X0.512500X-0.150000X-0.512500X0*%
%ADD27RoundRect,0.112500X0.112500X-0.187500X0.112500X0.187500X-0.112500X0.187500X-0.112500X-0.187500X0*%
%ADD28RoundRect,0.200000X-0.275000X0.200000X-0.275000X-0.200000X0.275000X-0.200000X0.275000X0.200000X0*%
%ADD29RoundRect,0.250000X-0.550000X1.500000X-0.550000X-1.500000X0.550000X-1.500000X0.550000X1.500000X0*%
%ADD30RoundRect,0.218750X0.256250X-0.218750X0.256250X0.218750X-0.256250X0.218750X-0.256250X-0.218750X0*%
%ADD31RoundRect,0.218750X-0.256250X0.218750X-0.256250X-0.218750X0.256250X-0.218750X0.256250X0.218750X0*%
%ADD32RoundRect,0.200000X-0.200000X-0.275000X0.200000X-0.275000X0.200000X0.275000X-0.200000X0.275000X0*%
%ADD33RoundRect,0.250000X0.712500X2.475000X-0.712500X2.475000X-0.712500X-2.475000X0.712500X-2.475000X0*%
%ADD34RoundRect,0.250000X-0.262500X-0.450000X0.262500X-0.450000X0.262500X0.450000X-0.262500X0.450000X0*%
%ADD35RoundRect,0.243750X-0.456250X0.243750X-0.456250X-0.243750X0.456250X-0.243750X0.456250X0.243750X0*%
%ADD36RoundRect,0.218750X-0.218750X-0.256250X0.218750X-0.256250X0.218750X0.256250X-0.218750X0.256250X0*%
%ADD37RoundRect,0.250000X-1.550000X0.750000X-1.550000X-0.750000X1.550000X-0.750000X1.550000X0.750000X0*%
%ADD38O,3.600000X2.000000*%
%ADD39RoundRect,0.243750X0.456250X-0.243750X0.456250X0.243750X-0.456250X0.243750X-0.456250X-0.243750X0*%
%ADD40RoundRect,0.225000X0.250000X-0.225000X0.250000X0.225000X-0.250000X0.225000X-0.250000X-0.225000X0*%
%ADD41RoundRect,0.250000X-0.600000X0.400000X-0.600000X-0.400000X0.600000X-0.400000X0.600000X0.400000X0*%
%ADD42RoundRect,0.225000X0.225000X0.250000X-0.225000X0.250000X-0.225000X-0.250000X0.225000X-0.250000X0*%
%ADD43RoundRect,0.250000X1.000000X0.650000X-1.000000X0.650000X-1.000000X-0.650000X1.000000X-0.650000X0*%
%ADD44R,1.400000X1.270000*%
%ADD45R,4.800000X4.720000*%
%ADD46RoundRect,0.250000X0.600000X-0.400000X0.600000X0.400000X-0.600000X0.400000X-0.600000X-0.400000X0*%
%ADD47R,2.400000X3.100000*%
%ADD48RoundRect,0.070000X-1.100000X-0.250000X1.100000X-0.250000X1.100000X0.250000X-1.100000X0.250000X0*%
%ADD49C,0.770000*%
%ADD50RoundRect,0.150000X-0.825000X-0.150000X0.825000X-0.150000X0.825000X0.150000X-0.825000X0.150000X0*%
%ADD51RoundRect,0.250000X0.625000X-0.375000X0.625000X0.375000X-0.625000X0.375000X-0.625000X-0.375000X0*%
%ADD52RoundRect,0.250000X0.550000X-1.500000X0.550000X1.500000X-0.550000X1.500000X-0.550000X-1.500000X0*%
%ADD53RoundRect,0.250000X1.500000X0.550000X-1.500000X0.550000X-1.500000X-0.550000X1.500000X-0.550000X0*%
%ADD54RoundRect,0.150000X0.150000X-0.587500X0.150000X0.587500X-0.150000X0.587500X-0.150000X-0.587500X0*%
%ADD55R,6.000000X6.000000*%
%ADD56C,3.200000*%
%ADD57O,1.727200X1.727200*%
%ADD58R,1.727200X1.727200*%
%ADD59R,3.100000X2.600000*%
%ADD60R,0.600000X1.550000*%
G04 APERTURE END LIST*
D10*
X121219019Y-103429304D02*
X120219019Y-103429304D01*
X120219019Y-103429304D02*
X120933304Y-103095971D01*
X120933304Y-103095971D02*
X120219019Y-102762638D01*
X120219019Y-102762638D02*
X121219019Y-102762638D01*
X120219019Y-102381685D02*
X120219019Y-101762638D01*
X120219019Y-101762638D02*
X120599971Y-102095971D01*
X120599971Y-102095971D02*
X120599971Y-101953114D01*
X120599971Y-101953114D02*
X120647590Y-101857876D01*
X120647590Y-101857876D02*
X120695209Y-101810257D01*
X120695209Y-101810257D02*
X120790447Y-101762638D01*
X120790447Y-101762638D02*
X121028542Y-101762638D01*
X121028542Y-101762638D02*
X121123780Y-101810257D01*
X121123780Y-101810257D02*
X121171400Y-101857876D01*
X121171400Y-101857876D02*
X121219019Y-101953114D01*
X121219019Y-101953114D02*
X121219019Y-102238828D01*
X121219019Y-102238828D02*
X121171400Y-102334066D01*
X121171400Y-102334066D02*
X121123780Y-102381685D01*
X151872095Y-110995619D02*
X151872095Y-109995619D01*
X152300666Y-110090857D02*
X152348285Y-110043238D01*
X152348285Y-110043238D02*
X152443523Y-109995619D01*
X152443523Y-109995619D02*
X152681618Y-109995619D01*
X152681618Y-109995619D02*
X152776856Y-110043238D01*
X152776856Y-110043238D02*
X152824475Y-110090857D01*
X152824475Y-110090857D02*
X152872094Y-110186095D01*
X152872094Y-110186095D02*
X152872094Y-110281333D01*
X152872094Y-110281333D02*
X152824475Y-110424190D01*
X152824475Y-110424190D02*
X152253047Y-110995619D01*
X152253047Y-110995619D02*
X152872094Y-110995619D01*
X153872094Y-110900380D02*
X153824475Y-110948000D01*
X153824475Y-110948000D02*
X153681618Y-110995619D01*
X153681618Y-110995619D02*
X153586380Y-110995619D01*
X153586380Y-110995619D02*
X153443523Y-110948000D01*
X153443523Y-110948000D02*
X153348285Y-110852761D01*
X153348285Y-110852761D02*
X153300666Y-110757523D01*
X153300666Y-110757523D02*
X153253047Y-110567047D01*
X153253047Y-110567047D02*
X153253047Y-110424190D01*
X153253047Y-110424190D02*
X153300666Y-110233714D01*
X153300666Y-110233714D02*
X153348285Y-110138476D01*
X153348285Y-110138476D02*
X153443523Y-110043238D01*
X153443523Y-110043238D02*
X153586380Y-109995619D01*
X153586380Y-109995619D02*
X153681618Y-109995619D01*
X153681618Y-109995619D02*
X153824475Y-110043238D01*
X153824475Y-110043238D02*
X153872094Y-110090857D01*
X154062571Y-111090857D02*
X154824475Y-111090857D01*
X155491142Y-109995619D02*
X155300666Y-109995619D01*
X155300666Y-109995619D02*
X155205428Y-110043238D01*
X155205428Y-110043238D02*
X155157809Y-110090857D01*
X155157809Y-110090857D02*
X155062571Y-110233714D01*
X155062571Y-110233714D02*
X155014952Y-110424190D01*
X155014952Y-110424190D02*
X155014952Y-110805142D01*
X155014952Y-110805142D02*
X155062571Y-110900380D01*
X155062571Y-110900380D02*
X155110190Y-110948000D01*
X155110190Y-110948000D02*
X155205428Y-110995619D01*
X155205428Y-110995619D02*
X155395904Y-110995619D01*
X155395904Y-110995619D02*
X155491142Y-110948000D01*
X155491142Y-110948000D02*
X155538761Y-110900380D01*
X155538761Y-110900380D02*
X155586380Y-110805142D01*
X155586380Y-110805142D02*
X155586380Y-110567047D01*
X155586380Y-110567047D02*
X155538761Y-110471809D01*
X155538761Y-110471809D02*
X155491142Y-110424190D01*
X155491142Y-110424190D02*
X155395904Y-110376571D01*
X155395904Y-110376571D02*
X155205428Y-110376571D01*
X155205428Y-110376571D02*
X155110190Y-110424190D01*
X155110190Y-110424190D02*
X155062571Y-110471809D01*
X155062571Y-110471809D02*
X155014952Y-110567047D01*
X165146019Y-93321314D02*
X165146019Y-93797504D01*
X165146019Y-93797504D02*
X165622209Y-93845123D01*
X165622209Y-93845123D02*
X165574590Y-93797504D01*
X165574590Y-93797504D02*
X165526971Y-93702266D01*
X165526971Y-93702266D02*
X165526971Y-93464171D01*
X165526971Y-93464171D02*
X165574590Y-93368933D01*
X165574590Y-93368933D02*
X165622209Y-93321314D01*
X165622209Y-93321314D02*
X165717447Y-93273695D01*
X165717447Y-93273695D02*
X165955542Y-93273695D01*
X165955542Y-93273695D02*
X166050780Y-93321314D01*
X166050780Y-93321314D02*
X166098400Y-93368933D01*
X166098400Y-93368933D02*
X166146019Y-93464171D01*
X166146019Y-93464171D02*
X166146019Y-93702266D01*
X166146019Y-93702266D02*
X166098400Y-93797504D01*
X166098400Y-93797504D02*
X166050780Y-93845123D01*
X165146019Y-92987980D02*
X166146019Y-92654647D01*
X166146019Y-92654647D02*
X165146019Y-92321314D01*
X166146019Y-91073695D02*
X166146019Y-91645123D01*
X166146019Y-91359409D02*
X165146019Y-91359409D01*
X165146019Y-91359409D02*
X165288876Y-91454647D01*
X165288876Y-91454647D02*
X165384114Y-91549885D01*
X165384114Y-91549885D02*
X165431733Y-91645123D01*
X165241257Y-90692742D02*
X165193638Y-90645123D01*
X165193638Y-90645123D02*
X165146019Y-90549885D01*
X165146019Y-90549885D02*
X165146019Y-90311790D01*
X165146019Y-90311790D02*
X165193638Y-90216552D01*
X165193638Y-90216552D02*
X165241257Y-90168933D01*
X165241257Y-90168933D02*
X165336495Y-90121314D01*
X165336495Y-90121314D02*
X165431733Y-90121314D01*
X165431733Y-90121314D02*
X165574590Y-90168933D01*
X165574590Y-90168933D02*
X166146019Y-90740361D01*
X166146019Y-90740361D02*
X166146019Y-90121314D01*
X165146019Y-89835599D02*
X166146019Y-89502266D01*
X166146019Y-89502266D02*
X165146019Y-89168933D01*
X139072095Y-116195619D02*
X139072095Y-115195619D01*
X139500666Y-115290857D02*
X139548285Y-115243238D01*
X139548285Y-115243238D02*
X139643523Y-115195619D01*
X139643523Y-115195619D02*
X139881618Y-115195619D01*
X139881618Y-115195619D02*
X139976856Y-115243238D01*
X139976856Y-115243238D02*
X140024475Y-115290857D01*
X140024475Y-115290857D02*
X140072094Y-115386095D01*
X140072094Y-115386095D02*
X140072094Y-115481333D01*
X140072094Y-115481333D02*
X140024475Y-115624190D01*
X140024475Y-115624190D02*
X139453047Y-116195619D01*
X139453047Y-116195619D02*
X140072094Y-116195619D01*
X141072094Y-116100380D02*
X141024475Y-116148000D01*
X141024475Y-116148000D02*
X140881618Y-116195619D01*
X140881618Y-116195619D02*
X140786380Y-116195619D01*
X140786380Y-116195619D02*
X140643523Y-116148000D01*
X140643523Y-116148000D02*
X140548285Y-116052761D01*
X140548285Y-116052761D02*
X140500666Y-115957523D01*
X140500666Y-115957523D02*
X140453047Y-115767047D01*
X140453047Y-115767047D02*
X140453047Y-115624190D01*
X140453047Y-115624190D02*
X140500666Y-115433714D01*
X140500666Y-115433714D02*
X140548285Y-115338476D01*
X140548285Y-115338476D02*
X140643523Y-115243238D01*
X140643523Y-115243238D02*
X140786380Y-115195619D01*
X140786380Y-115195619D02*
X140881618Y-115195619D01*
X140881618Y-115195619D02*
X141024475Y-115243238D01*
X141024475Y-115243238D02*
X141072094Y-115290857D01*
X141262571Y-116290857D02*
X142024475Y-116290857D01*
X142786380Y-116195619D02*
X142214952Y-116195619D01*
X142500666Y-116195619D02*
X142500666Y-115195619D01*
X142500666Y-115195619D02*
X142405428Y-115338476D01*
X142405428Y-115338476D02*
X142310190Y-115433714D01*
X142310190Y-115433714D02*
X142214952Y-115481333D01*
X152072095Y-106195619D02*
X152072095Y-105195619D01*
X152500666Y-105290857D02*
X152548285Y-105243238D01*
X152548285Y-105243238D02*
X152643523Y-105195619D01*
X152643523Y-105195619D02*
X152881618Y-105195619D01*
X152881618Y-105195619D02*
X152976856Y-105243238D01*
X152976856Y-105243238D02*
X153024475Y-105290857D01*
X153024475Y-105290857D02*
X153072094Y-105386095D01*
X153072094Y-105386095D02*
X153072094Y-105481333D01*
X153072094Y-105481333D02*
X153024475Y-105624190D01*
X153024475Y-105624190D02*
X152453047Y-106195619D01*
X152453047Y-106195619D02*
X153072094Y-106195619D01*
X154072094Y-106100380D02*
X154024475Y-106148000D01*
X154024475Y-106148000D02*
X153881618Y-106195619D01*
X153881618Y-106195619D02*
X153786380Y-106195619D01*
X153786380Y-106195619D02*
X153643523Y-106148000D01*
X153643523Y-106148000D02*
X153548285Y-106052761D01*
X153548285Y-106052761D02*
X153500666Y-105957523D01*
X153500666Y-105957523D02*
X153453047Y-105767047D01*
X153453047Y-105767047D02*
X153453047Y-105624190D01*
X153453047Y-105624190D02*
X153500666Y-105433714D01*
X153500666Y-105433714D02*
X153548285Y-105338476D01*
X153548285Y-105338476D02*
X153643523Y-105243238D01*
X153643523Y-105243238D02*
X153786380Y-105195619D01*
X153786380Y-105195619D02*
X153881618Y-105195619D01*
X153881618Y-105195619D02*
X154024475Y-105243238D01*
X154024475Y-105243238D02*
X154072094Y-105290857D01*
X154262571Y-106290857D02*
X155024475Y-106290857D01*
X155167333Y-105195619D02*
X155833999Y-105195619D01*
X155833999Y-105195619D02*
X155405428Y-106195619D01*
X162001104Y-94824019D02*
X161429676Y-94824019D01*
X161715390Y-94824019D02*
X161715390Y-93824019D01*
X161715390Y-93824019D02*
X161620152Y-93966876D01*
X161620152Y-93966876D02*
X161524914Y-94062114D01*
X161524914Y-94062114D02*
X161429676Y-94109733D01*
X162620152Y-93824019D02*
X162715390Y-93824019D01*
X162715390Y-93824019D02*
X162810628Y-93871638D01*
X162810628Y-93871638D02*
X162858247Y-93919257D01*
X162858247Y-93919257D02*
X162905866Y-94014495D01*
X162905866Y-94014495D02*
X162953485Y-94204971D01*
X162953485Y-94204971D02*
X162953485Y-94443066D01*
X162953485Y-94443066D02*
X162905866Y-94633542D01*
X162905866Y-94633542D02*
X162858247Y-94728780D01*
X162858247Y-94728780D02*
X162810628Y-94776400D01*
X162810628Y-94776400D02*
X162715390Y-94824019D01*
X162715390Y-94824019D02*
X162620152Y-94824019D01*
X162620152Y-94824019D02*
X162524914Y-94776400D01*
X162524914Y-94776400D02*
X162477295Y-94728780D01*
X162477295Y-94728780D02*
X162429676Y-94633542D01*
X162429676Y-94633542D02*
X162382057Y-94443066D01*
X162382057Y-94443066D02*
X162382057Y-94204971D01*
X162382057Y-94204971D02*
X162429676Y-94014495D01*
X162429676Y-94014495D02*
X162477295Y-93919257D01*
X162477295Y-93919257D02*
X162524914Y-93871638D01*
X162524914Y-93871638D02*
X162620152Y-93824019D01*
X163334438Y-94538304D02*
X163810628Y-94538304D01*
X163239200Y-94824019D02*
X163572533Y-93824019D01*
X163572533Y-93824019D02*
X163905866Y-94824019D01*
X126301428Y-80889009D02*
X126444285Y-80936628D01*
X126444285Y-80936628D02*
X126491904Y-80984247D01*
X126491904Y-80984247D02*
X126539523Y-81079485D01*
X126539523Y-81079485D02*
X126539523Y-81222342D01*
X126539523Y-81222342D02*
X126491904Y-81317580D01*
X126491904Y-81317580D02*
X126444285Y-81365200D01*
X126444285Y-81365200D02*
X126349047Y-81412819D01*
X126349047Y-81412819D02*
X125968095Y-81412819D01*
X125968095Y-81412819D02*
X125968095Y-80412819D01*
X125968095Y-80412819D02*
X126301428Y-80412819D01*
X126301428Y-80412819D02*
X126396666Y-80460438D01*
X126396666Y-80460438D02*
X126444285Y-80508057D01*
X126444285Y-80508057D02*
X126491904Y-80603295D01*
X126491904Y-80603295D02*
X126491904Y-80698533D01*
X126491904Y-80698533D02*
X126444285Y-80793771D01*
X126444285Y-80793771D02*
X126396666Y-80841390D01*
X126396666Y-80841390D02*
X126301428Y-80889009D01*
X126301428Y-80889009D02*
X125968095Y-80889009D01*
X127396666Y-81412819D02*
X127396666Y-80889009D01*
X127396666Y-80889009D02*
X127349047Y-80793771D01*
X127349047Y-80793771D02*
X127253809Y-80746152D01*
X127253809Y-80746152D02*
X127063333Y-80746152D01*
X127063333Y-80746152D02*
X126968095Y-80793771D01*
X127396666Y-81365200D02*
X127301428Y-81412819D01*
X127301428Y-81412819D02*
X127063333Y-81412819D01*
X127063333Y-81412819D02*
X126968095Y-81365200D01*
X126968095Y-81365200D02*
X126920476Y-81269961D01*
X126920476Y-81269961D02*
X126920476Y-81174723D01*
X126920476Y-81174723D02*
X126968095Y-81079485D01*
X126968095Y-81079485D02*
X127063333Y-81031866D01*
X127063333Y-81031866D02*
X127301428Y-81031866D01*
X127301428Y-81031866D02*
X127396666Y-80984247D01*
X127730000Y-80746152D02*
X128110952Y-80746152D01*
X127872857Y-80412819D02*
X127872857Y-81269961D01*
X127872857Y-81269961D02*
X127920476Y-81365200D01*
X127920476Y-81365200D02*
X128015714Y-81412819D01*
X128015714Y-81412819D02*
X128110952Y-81412819D01*
X128301429Y-80746152D02*
X128682381Y-80746152D01*
X128444286Y-80412819D02*
X128444286Y-81269961D01*
X128444286Y-81269961D02*
X128491905Y-81365200D01*
X128491905Y-81365200D02*
X128587143Y-81412819D01*
X128587143Y-81412819D02*
X128682381Y-81412819D01*
X129396667Y-81365200D02*
X129301429Y-81412819D01*
X129301429Y-81412819D02*
X129110953Y-81412819D01*
X129110953Y-81412819D02*
X129015715Y-81365200D01*
X129015715Y-81365200D02*
X128968096Y-81269961D01*
X128968096Y-81269961D02*
X128968096Y-80889009D01*
X128968096Y-80889009D02*
X129015715Y-80793771D01*
X129015715Y-80793771D02*
X129110953Y-80746152D01*
X129110953Y-80746152D02*
X129301429Y-80746152D01*
X129301429Y-80746152D02*
X129396667Y-80793771D01*
X129396667Y-80793771D02*
X129444286Y-80889009D01*
X129444286Y-80889009D02*
X129444286Y-80984247D01*
X129444286Y-80984247D02*
X128968096Y-81079485D01*
X129872858Y-81412819D02*
X129872858Y-80746152D01*
X129872858Y-80936628D02*
X129920477Y-80841390D01*
X129920477Y-80841390D02*
X129968096Y-80793771D01*
X129968096Y-80793771D02*
X130063334Y-80746152D01*
X130063334Y-80746152D02*
X130158572Y-80746152D01*
X130396668Y-80746152D02*
X130634763Y-81412819D01*
X130872858Y-80746152D02*
X130634763Y-81412819D01*
X130634763Y-81412819D02*
X130539525Y-81650914D01*
X130539525Y-81650914D02*
X130491906Y-81698533D01*
X130491906Y-81698533D02*
X130396668Y-81746152D01*
X160456419Y-105115295D02*
X160456419Y-105686723D01*
X160456419Y-105401009D02*
X159456419Y-105401009D01*
X159456419Y-105401009D02*
X159599276Y-105496247D01*
X159599276Y-105496247D02*
X159694514Y-105591485D01*
X159694514Y-105591485D02*
X159742133Y-105686723D01*
X159551657Y-104734342D02*
X159504038Y-104686723D01*
X159504038Y-104686723D02*
X159456419Y-104591485D01*
X159456419Y-104591485D02*
X159456419Y-104353390D01*
X159456419Y-104353390D02*
X159504038Y-104258152D01*
X159504038Y-104258152D02*
X159551657Y-104210533D01*
X159551657Y-104210533D02*
X159646895Y-104162914D01*
X159646895Y-104162914D02*
X159742133Y-104162914D01*
X159742133Y-104162914D02*
X159884990Y-104210533D01*
X159884990Y-104210533D02*
X160456419Y-104781961D01*
X160456419Y-104781961D02*
X160456419Y-104162914D01*
X159456419Y-103877199D02*
X160456419Y-103543866D01*
X160456419Y-103543866D02*
X159456419Y-103210533D01*
X161513819Y-105289914D02*
X161513819Y-105766104D01*
X161513819Y-105766104D02*
X161990009Y-105813723D01*
X161990009Y-105813723D02*
X161942390Y-105766104D01*
X161942390Y-105766104D02*
X161894771Y-105670866D01*
X161894771Y-105670866D02*
X161894771Y-105432771D01*
X161894771Y-105432771D02*
X161942390Y-105337533D01*
X161942390Y-105337533D02*
X161990009Y-105289914D01*
X161990009Y-105289914D02*
X162085247Y-105242295D01*
X162085247Y-105242295D02*
X162323342Y-105242295D01*
X162323342Y-105242295D02*
X162418580Y-105289914D01*
X162418580Y-105289914D02*
X162466200Y-105337533D01*
X162466200Y-105337533D02*
X162513819Y-105432771D01*
X162513819Y-105432771D02*
X162513819Y-105670866D01*
X162513819Y-105670866D02*
X162466200Y-105766104D01*
X162466200Y-105766104D02*
X162418580Y-105813723D01*
X161513819Y-104956580D02*
X162513819Y-104623247D01*
X162513819Y-104623247D02*
X161513819Y-104289914D01*
X121162619Y-110846104D02*
X120162619Y-110846104D01*
X120162619Y-110846104D02*
X120876904Y-110512771D01*
X120876904Y-110512771D02*
X120162619Y-110179438D01*
X120162619Y-110179438D02*
X121162619Y-110179438D01*
X120257857Y-109750866D02*
X120210238Y-109703247D01*
X120210238Y-109703247D02*
X120162619Y-109608009D01*
X120162619Y-109608009D02*
X120162619Y-109369914D01*
X120162619Y-109369914D02*
X120210238Y-109274676D01*
X120210238Y-109274676D02*
X120257857Y-109227057D01*
X120257857Y-109227057D02*
X120353095Y-109179438D01*
X120353095Y-109179438D02*
X120448333Y-109179438D01*
X120448333Y-109179438D02*
X120591190Y-109227057D01*
X120591190Y-109227057D02*
X121162619Y-109798485D01*
X121162619Y-109798485D02*
X121162619Y-109179438D01*
X200687523Y-125901619D02*
X200354190Y-125425428D01*
X200116095Y-125901619D02*
X200116095Y-124901619D01*
X200116095Y-124901619D02*
X200497047Y-124901619D01*
X200497047Y-124901619D02*
X200592285Y-124949238D01*
X200592285Y-124949238D02*
X200639904Y-124996857D01*
X200639904Y-124996857D02*
X200687523Y-125092095D01*
X200687523Y-125092095D02*
X200687523Y-125234952D01*
X200687523Y-125234952D02*
X200639904Y-125330190D01*
X200639904Y-125330190D02*
X200592285Y-125377809D01*
X200592285Y-125377809D02*
X200497047Y-125425428D01*
X200497047Y-125425428D02*
X200116095Y-125425428D01*
X201258952Y-125901619D02*
X201163714Y-125854000D01*
X201163714Y-125854000D02*
X201116095Y-125806380D01*
X201116095Y-125806380D02*
X201068476Y-125711142D01*
X201068476Y-125711142D02*
X201068476Y-125425428D01*
X201068476Y-125425428D02*
X201116095Y-125330190D01*
X201116095Y-125330190D02*
X201163714Y-125282571D01*
X201163714Y-125282571D02*
X201258952Y-125234952D01*
X201258952Y-125234952D02*
X201401809Y-125234952D01*
X201401809Y-125234952D02*
X201497047Y-125282571D01*
X201497047Y-125282571D02*
X201544666Y-125330190D01*
X201544666Y-125330190D02*
X201592285Y-125425428D01*
X201592285Y-125425428D02*
X201592285Y-125711142D01*
X201592285Y-125711142D02*
X201544666Y-125806380D01*
X201544666Y-125806380D02*
X201497047Y-125854000D01*
X201497047Y-125854000D02*
X201401809Y-125901619D01*
X201401809Y-125901619D02*
X201258952Y-125901619D01*
X202449428Y-125854000D02*
X202354190Y-125901619D01*
X202354190Y-125901619D02*
X202163714Y-125901619D01*
X202163714Y-125901619D02*
X202068476Y-125854000D01*
X202068476Y-125854000D02*
X202020857Y-125806380D01*
X202020857Y-125806380D02*
X201973238Y-125711142D01*
X201973238Y-125711142D02*
X201973238Y-125425428D01*
X201973238Y-125425428D02*
X202020857Y-125330190D01*
X202020857Y-125330190D02*
X202068476Y-125282571D01*
X202068476Y-125282571D02*
X202163714Y-125234952D01*
X202163714Y-125234952D02*
X202354190Y-125234952D01*
X202354190Y-125234952D02*
X202449428Y-125282571D01*
X203306571Y-125854000D02*
X203211333Y-125901619D01*
X203211333Y-125901619D02*
X203020857Y-125901619D01*
X203020857Y-125901619D02*
X202925619Y-125854000D01*
X202925619Y-125854000D02*
X202878000Y-125806380D01*
X202878000Y-125806380D02*
X202830381Y-125711142D01*
X202830381Y-125711142D02*
X202830381Y-125425428D01*
X202830381Y-125425428D02*
X202878000Y-125330190D01*
X202878000Y-125330190D02*
X202925619Y-125282571D01*
X202925619Y-125282571D02*
X203020857Y-125234952D01*
X203020857Y-125234952D02*
X203211333Y-125234952D01*
X203211333Y-125234952D02*
X203306571Y-125282571D01*
X203735143Y-125901619D02*
X203735143Y-125234952D01*
X203735143Y-124901619D02*
X203687524Y-124949238D01*
X203687524Y-124949238D02*
X203735143Y-124996857D01*
X203735143Y-124996857D02*
X203782762Y-124949238D01*
X203782762Y-124949238D02*
X203735143Y-124901619D01*
X203735143Y-124901619D02*
X203735143Y-124996857D01*
X204544666Y-125377809D02*
X204687523Y-125425428D01*
X204687523Y-125425428D02*
X204735142Y-125473047D01*
X204735142Y-125473047D02*
X204782761Y-125568285D01*
X204782761Y-125568285D02*
X204782761Y-125711142D01*
X204782761Y-125711142D02*
X204735142Y-125806380D01*
X204735142Y-125806380D02*
X204687523Y-125854000D01*
X204687523Y-125854000D02*
X204592285Y-125901619D01*
X204592285Y-125901619D02*
X204211333Y-125901619D01*
X204211333Y-125901619D02*
X204211333Y-124901619D01*
X204211333Y-124901619D02*
X204544666Y-124901619D01*
X204544666Y-124901619D02*
X204639904Y-124949238D01*
X204639904Y-124949238D02*
X204687523Y-124996857D01*
X204687523Y-124996857D02*
X204735142Y-125092095D01*
X204735142Y-125092095D02*
X204735142Y-125187333D01*
X204735142Y-125187333D02*
X204687523Y-125282571D01*
X204687523Y-125282571D02*
X204639904Y-125330190D01*
X204639904Y-125330190D02*
X204544666Y-125377809D01*
X204544666Y-125377809D02*
X204211333Y-125377809D01*
X205354190Y-125901619D02*
X205258952Y-125854000D01*
X205258952Y-125854000D02*
X205211333Y-125806380D01*
X205211333Y-125806380D02*
X205163714Y-125711142D01*
X205163714Y-125711142D02*
X205163714Y-125425428D01*
X205163714Y-125425428D02*
X205211333Y-125330190D01*
X205211333Y-125330190D02*
X205258952Y-125282571D01*
X205258952Y-125282571D02*
X205354190Y-125234952D01*
X205354190Y-125234952D02*
X205497047Y-125234952D01*
X205497047Y-125234952D02*
X205592285Y-125282571D01*
X205592285Y-125282571D02*
X205639904Y-125330190D01*
X205639904Y-125330190D02*
X205687523Y-125425428D01*
X205687523Y-125425428D02*
X205687523Y-125711142D01*
X205687523Y-125711142D02*
X205639904Y-125806380D01*
X205639904Y-125806380D02*
X205592285Y-125854000D01*
X205592285Y-125854000D02*
X205497047Y-125901619D01*
X205497047Y-125901619D02*
X205354190Y-125901619D01*
X206544666Y-125901619D02*
X206544666Y-125377809D01*
X206544666Y-125377809D02*
X206497047Y-125282571D01*
X206497047Y-125282571D02*
X206401809Y-125234952D01*
X206401809Y-125234952D02*
X206211333Y-125234952D01*
X206211333Y-125234952D02*
X206116095Y-125282571D01*
X206544666Y-125854000D02*
X206449428Y-125901619D01*
X206449428Y-125901619D02*
X206211333Y-125901619D01*
X206211333Y-125901619D02*
X206116095Y-125854000D01*
X206116095Y-125854000D02*
X206068476Y-125758761D01*
X206068476Y-125758761D02*
X206068476Y-125663523D01*
X206068476Y-125663523D02*
X206116095Y-125568285D01*
X206116095Y-125568285D02*
X206211333Y-125520666D01*
X206211333Y-125520666D02*
X206449428Y-125520666D01*
X206449428Y-125520666D02*
X206544666Y-125473047D01*
X207020857Y-125901619D02*
X207020857Y-125234952D01*
X207020857Y-125425428D02*
X207068476Y-125330190D01*
X207068476Y-125330190D02*
X207116095Y-125282571D01*
X207116095Y-125282571D02*
X207211333Y-125234952D01*
X207211333Y-125234952D02*
X207306571Y-125234952D01*
X208068476Y-125901619D02*
X208068476Y-124901619D01*
X208068476Y-125854000D02*
X207973238Y-125901619D01*
X207973238Y-125901619D02*
X207782762Y-125901619D01*
X207782762Y-125901619D02*
X207687524Y-125854000D01*
X207687524Y-125854000D02*
X207639905Y-125806380D01*
X207639905Y-125806380D02*
X207592286Y-125711142D01*
X207592286Y-125711142D02*
X207592286Y-125425428D01*
X207592286Y-125425428D02*
X207639905Y-125330190D01*
X207639905Y-125330190D02*
X207687524Y-125282571D01*
X207687524Y-125282571D02*
X207782762Y-125234952D01*
X207782762Y-125234952D02*
X207973238Y-125234952D01*
X207973238Y-125234952D02*
X208068476Y-125282571D01*
X209163715Y-124901619D02*
X209497048Y-125901619D01*
X209497048Y-125901619D02*
X209830381Y-124901619D01*
X210687524Y-125901619D02*
X210116096Y-125901619D01*
X210401810Y-125901619D02*
X210401810Y-124901619D01*
X210401810Y-124901619D02*
X210306572Y-125044476D01*
X210306572Y-125044476D02*
X210211334Y-125139714D01*
X210211334Y-125139714D02*
X210116096Y-125187333D01*
X211116096Y-125806380D02*
X211163715Y-125854000D01*
X211163715Y-125854000D02*
X211116096Y-125901619D01*
X211116096Y-125901619D02*
X211068477Y-125854000D01*
X211068477Y-125854000D02*
X211116096Y-125806380D01*
X211116096Y-125806380D02*
X211116096Y-125901619D01*
X211782762Y-124901619D02*
X211878000Y-124901619D01*
X211878000Y-124901619D02*
X211973238Y-124949238D01*
X211973238Y-124949238D02*
X212020857Y-124996857D01*
X212020857Y-124996857D02*
X212068476Y-125092095D01*
X212068476Y-125092095D02*
X212116095Y-125282571D01*
X212116095Y-125282571D02*
X212116095Y-125520666D01*
X212116095Y-125520666D02*
X212068476Y-125711142D01*
X212068476Y-125711142D02*
X212020857Y-125806380D01*
X212020857Y-125806380D02*
X211973238Y-125854000D01*
X211973238Y-125854000D02*
X211878000Y-125901619D01*
X211878000Y-125901619D02*
X211782762Y-125901619D01*
X211782762Y-125901619D02*
X211687524Y-125854000D01*
X211687524Y-125854000D02*
X211639905Y-125806380D01*
X211639905Y-125806380D02*
X211592286Y-125711142D01*
X211592286Y-125711142D02*
X211544667Y-125520666D01*
X211544667Y-125520666D02*
X211544667Y-125282571D01*
X211544667Y-125282571D02*
X211592286Y-125092095D01*
X211592286Y-125092095D02*
X211639905Y-124996857D01*
X211639905Y-124996857D02*
X211687524Y-124949238D01*
X211687524Y-124949238D02*
X211782762Y-124901619D01*
X157810628Y-94300209D02*
X157477295Y-94300209D01*
X157477295Y-94824019D02*
X157477295Y-93824019D01*
X157477295Y-93824019D02*
X157953485Y-93824019D01*
X158763009Y-94157352D02*
X158763009Y-94824019D01*
X158334438Y-94157352D02*
X158334438Y-94681161D01*
X158334438Y-94681161D02*
X158382057Y-94776400D01*
X158382057Y-94776400D02*
X158477295Y-94824019D01*
X158477295Y-94824019D02*
X158620152Y-94824019D01*
X158620152Y-94824019D02*
X158715390Y-94776400D01*
X158715390Y-94776400D02*
X158763009Y-94728780D01*
X159191581Y-94776400D02*
X159286819Y-94824019D01*
X159286819Y-94824019D02*
X159477295Y-94824019D01*
X159477295Y-94824019D02*
X159572533Y-94776400D01*
X159572533Y-94776400D02*
X159620152Y-94681161D01*
X159620152Y-94681161D02*
X159620152Y-94633542D01*
X159620152Y-94633542D02*
X159572533Y-94538304D01*
X159572533Y-94538304D02*
X159477295Y-94490685D01*
X159477295Y-94490685D02*
X159334438Y-94490685D01*
X159334438Y-94490685D02*
X159239200Y-94443066D01*
X159239200Y-94443066D02*
X159191581Y-94347828D01*
X159191581Y-94347828D02*
X159191581Y-94300209D01*
X159191581Y-94300209D02*
X159239200Y-94204971D01*
X159239200Y-94204971D02*
X159334438Y-94157352D01*
X159334438Y-94157352D02*
X159477295Y-94157352D01*
X159477295Y-94157352D02*
X159572533Y-94204971D01*
X160429676Y-94776400D02*
X160334438Y-94824019D01*
X160334438Y-94824019D02*
X160143962Y-94824019D01*
X160143962Y-94824019D02*
X160048724Y-94776400D01*
X160048724Y-94776400D02*
X160001105Y-94681161D01*
X160001105Y-94681161D02*
X160001105Y-94300209D01*
X160001105Y-94300209D02*
X160048724Y-94204971D01*
X160048724Y-94204971D02*
X160143962Y-94157352D01*
X160143962Y-94157352D02*
X160334438Y-94157352D01*
X160334438Y-94157352D02*
X160429676Y-94204971D01*
X160429676Y-94204971D02*
X160477295Y-94300209D01*
X160477295Y-94300209D02*
X160477295Y-94395447D01*
X160477295Y-94395447D02*
X160001105Y-94490685D01*
X138872095Y-121395619D02*
X138872095Y-120395619D01*
X139300666Y-120490857D02*
X139348285Y-120443238D01*
X139348285Y-120443238D02*
X139443523Y-120395619D01*
X139443523Y-120395619D02*
X139681618Y-120395619D01*
X139681618Y-120395619D02*
X139776856Y-120443238D01*
X139776856Y-120443238D02*
X139824475Y-120490857D01*
X139824475Y-120490857D02*
X139872094Y-120586095D01*
X139872094Y-120586095D02*
X139872094Y-120681333D01*
X139872094Y-120681333D02*
X139824475Y-120824190D01*
X139824475Y-120824190D02*
X139253047Y-121395619D01*
X139253047Y-121395619D02*
X139872094Y-121395619D01*
X140872094Y-121300380D02*
X140824475Y-121348000D01*
X140824475Y-121348000D02*
X140681618Y-121395619D01*
X140681618Y-121395619D02*
X140586380Y-121395619D01*
X140586380Y-121395619D02*
X140443523Y-121348000D01*
X140443523Y-121348000D02*
X140348285Y-121252761D01*
X140348285Y-121252761D02*
X140300666Y-121157523D01*
X140300666Y-121157523D02*
X140253047Y-120967047D01*
X140253047Y-120967047D02*
X140253047Y-120824190D01*
X140253047Y-120824190D02*
X140300666Y-120633714D01*
X140300666Y-120633714D02*
X140348285Y-120538476D01*
X140348285Y-120538476D02*
X140443523Y-120443238D01*
X140443523Y-120443238D02*
X140586380Y-120395619D01*
X140586380Y-120395619D02*
X140681618Y-120395619D01*
X140681618Y-120395619D02*
X140824475Y-120443238D01*
X140824475Y-120443238D02*
X140872094Y-120490857D01*
X141062571Y-121490857D02*
X141824475Y-121490857D01*
X142253047Y-120395619D02*
X142348285Y-120395619D01*
X142348285Y-120395619D02*
X142443523Y-120443238D01*
X142443523Y-120443238D02*
X142491142Y-120490857D01*
X142491142Y-120490857D02*
X142538761Y-120586095D01*
X142538761Y-120586095D02*
X142586380Y-120776571D01*
X142586380Y-120776571D02*
X142586380Y-121014666D01*
X142586380Y-121014666D02*
X142538761Y-121205142D01*
X142538761Y-121205142D02*
X142491142Y-121300380D01*
X142491142Y-121300380D02*
X142443523Y-121348000D01*
X142443523Y-121348000D02*
X142348285Y-121395619D01*
X142348285Y-121395619D02*
X142253047Y-121395619D01*
X142253047Y-121395619D02*
X142157809Y-121348000D01*
X142157809Y-121348000D02*
X142110190Y-121300380D01*
X142110190Y-121300380D02*
X142062571Y-121205142D01*
X142062571Y-121205142D02*
X142014952Y-121014666D01*
X142014952Y-121014666D02*
X142014952Y-120776571D01*
X142014952Y-120776571D02*
X142062571Y-120586095D01*
X142062571Y-120586095D02*
X142110190Y-120490857D01*
X142110190Y-120490857D02*
X142157809Y-120443238D01*
X142157809Y-120443238D02*
X142253047Y-120395619D01*
X121086419Y-118872504D02*
X120086419Y-118872504D01*
X120086419Y-118872504D02*
X120800704Y-118539171D01*
X120800704Y-118539171D02*
X120086419Y-118205838D01*
X120086419Y-118205838D02*
X121086419Y-118205838D01*
X121086419Y-117205838D02*
X121086419Y-117777266D01*
X121086419Y-117491552D02*
X120086419Y-117491552D01*
X120086419Y-117491552D02*
X120229276Y-117586790D01*
X120229276Y-117586790D02*
X120324514Y-117682028D01*
X120324514Y-117682028D02*
X120372133Y-117777266D01*
X138872095Y-105995619D02*
X138872095Y-104995619D01*
X139300666Y-105090857D02*
X139348285Y-105043238D01*
X139348285Y-105043238D02*
X139443523Y-104995619D01*
X139443523Y-104995619D02*
X139681618Y-104995619D01*
X139681618Y-104995619D02*
X139776856Y-105043238D01*
X139776856Y-105043238D02*
X139824475Y-105090857D01*
X139824475Y-105090857D02*
X139872094Y-105186095D01*
X139872094Y-105186095D02*
X139872094Y-105281333D01*
X139872094Y-105281333D02*
X139824475Y-105424190D01*
X139824475Y-105424190D02*
X139253047Y-105995619D01*
X139253047Y-105995619D02*
X139872094Y-105995619D01*
X140872094Y-105900380D02*
X140824475Y-105948000D01*
X140824475Y-105948000D02*
X140681618Y-105995619D01*
X140681618Y-105995619D02*
X140586380Y-105995619D01*
X140586380Y-105995619D02*
X140443523Y-105948000D01*
X140443523Y-105948000D02*
X140348285Y-105852761D01*
X140348285Y-105852761D02*
X140300666Y-105757523D01*
X140300666Y-105757523D02*
X140253047Y-105567047D01*
X140253047Y-105567047D02*
X140253047Y-105424190D01*
X140253047Y-105424190D02*
X140300666Y-105233714D01*
X140300666Y-105233714D02*
X140348285Y-105138476D01*
X140348285Y-105138476D02*
X140443523Y-105043238D01*
X140443523Y-105043238D02*
X140586380Y-104995619D01*
X140586380Y-104995619D02*
X140681618Y-104995619D01*
X140681618Y-104995619D02*
X140824475Y-105043238D01*
X140824475Y-105043238D02*
X140872094Y-105090857D01*
X141062571Y-106090857D02*
X141824475Y-106090857D01*
X141967333Y-104995619D02*
X142586380Y-104995619D01*
X142586380Y-104995619D02*
X142253047Y-105376571D01*
X142253047Y-105376571D02*
X142395904Y-105376571D01*
X142395904Y-105376571D02*
X142491142Y-105424190D01*
X142491142Y-105424190D02*
X142538761Y-105471809D01*
X142538761Y-105471809D02*
X142586380Y-105567047D01*
X142586380Y-105567047D02*
X142586380Y-105805142D01*
X142586380Y-105805142D02*
X142538761Y-105900380D01*
X142538761Y-105900380D02*
X142491142Y-105948000D01*
X142491142Y-105948000D02*
X142395904Y-105995619D01*
X142395904Y-105995619D02*
X142110190Y-105995619D01*
X142110190Y-105995619D02*
X142014952Y-105948000D01*
X142014952Y-105948000D02*
X141967333Y-105900380D01*
X151872095Y-116195619D02*
X151872095Y-115195619D01*
X152300666Y-115290857D02*
X152348285Y-115243238D01*
X152348285Y-115243238D02*
X152443523Y-115195619D01*
X152443523Y-115195619D02*
X152681618Y-115195619D01*
X152681618Y-115195619D02*
X152776856Y-115243238D01*
X152776856Y-115243238D02*
X152824475Y-115290857D01*
X152824475Y-115290857D02*
X152872094Y-115386095D01*
X152872094Y-115386095D02*
X152872094Y-115481333D01*
X152872094Y-115481333D02*
X152824475Y-115624190D01*
X152824475Y-115624190D02*
X152253047Y-116195619D01*
X152253047Y-116195619D02*
X152872094Y-116195619D01*
X153872094Y-116100380D02*
X153824475Y-116148000D01*
X153824475Y-116148000D02*
X153681618Y-116195619D01*
X153681618Y-116195619D02*
X153586380Y-116195619D01*
X153586380Y-116195619D02*
X153443523Y-116148000D01*
X153443523Y-116148000D02*
X153348285Y-116052761D01*
X153348285Y-116052761D02*
X153300666Y-115957523D01*
X153300666Y-115957523D02*
X153253047Y-115767047D01*
X153253047Y-115767047D02*
X153253047Y-115624190D01*
X153253047Y-115624190D02*
X153300666Y-115433714D01*
X153300666Y-115433714D02*
X153348285Y-115338476D01*
X153348285Y-115338476D02*
X153443523Y-115243238D01*
X153443523Y-115243238D02*
X153586380Y-115195619D01*
X153586380Y-115195619D02*
X153681618Y-115195619D01*
X153681618Y-115195619D02*
X153824475Y-115243238D01*
X153824475Y-115243238D02*
X153872094Y-115290857D01*
X154062571Y-116290857D02*
X154824475Y-116290857D01*
X155538761Y-115195619D02*
X155062571Y-115195619D01*
X155062571Y-115195619D02*
X155014952Y-115671809D01*
X155014952Y-115671809D02*
X155062571Y-115624190D01*
X155062571Y-115624190D02*
X155157809Y-115576571D01*
X155157809Y-115576571D02*
X155395904Y-115576571D01*
X155395904Y-115576571D02*
X155491142Y-115624190D01*
X155491142Y-115624190D02*
X155538761Y-115671809D01*
X155538761Y-115671809D02*
X155586380Y-115767047D01*
X155586380Y-115767047D02*
X155586380Y-116005142D01*
X155586380Y-116005142D02*
X155538761Y-116100380D01*
X155538761Y-116100380D02*
X155491142Y-116148000D01*
X155491142Y-116148000D02*
X155395904Y-116195619D01*
X155395904Y-116195619D02*
X155157809Y-116195619D01*
X155157809Y-116195619D02*
X155062571Y-116148000D01*
X155062571Y-116148000D02*
X155014952Y-116100380D01*
X121086419Y-127025904D02*
X120086419Y-127025904D01*
X120086419Y-127025904D02*
X120800704Y-126692571D01*
X120800704Y-126692571D02*
X120086419Y-126359238D01*
X120086419Y-126359238D02*
X121086419Y-126359238D01*
X120086419Y-125692571D02*
X120086419Y-125597333D01*
X120086419Y-125597333D02*
X120134038Y-125502095D01*
X120134038Y-125502095D02*
X120181657Y-125454476D01*
X120181657Y-125454476D02*
X120276895Y-125406857D01*
X120276895Y-125406857D02*
X120467371Y-125359238D01*
X120467371Y-125359238D02*
X120705466Y-125359238D01*
X120705466Y-125359238D02*
X120895942Y-125406857D01*
X120895942Y-125406857D02*
X120991180Y-125454476D01*
X120991180Y-125454476D02*
X121038800Y-125502095D01*
X121038800Y-125502095D02*
X121086419Y-125597333D01*
X121086419Y-125597333D02*
X121086419Y-125692571D01*
X121086419Y-125692571D02*
X121038800Y-125787809D01*
X121038800Y-125787809D02*
X120991180Y-125835428D01*
X120991180Y-125835428D02*
X120895942Y-125883047D01*
X120895942Y-125883047D02*
X120705466Y-125930666D01*
X120705466Y-125930666D02*
X120467371Y-125930666D01*
X120467371Y-125930666D02*
X120276895Y-125883047D01*
X120276895Y-125883047D02*
X120181657Y-125835428D01*
X120181657Y-125835428D02*
X120134038Y-125787809D01*
X120134038Y-125787809D02*
X120086419Y-125692571D01*
X138872095Y-110995619D02*
X138872095Y-109995619D01*
X139300666Y-110090857D02*
X139348285Y-110043238D01*
X139348285Y-110043238D02*
X139443523Y-109995619D01*
X139443523Y-109995619D02*
X139681618Y-109995619D01*
X139681618Y-109995619D02*
X139776856Y-110043238D01*
X139776856Y-110043238D02*
X139824475Y-110090857D01*
X139824475Y-110090857D02*
X139872094Y-110186095D01*
X139872094Y-110186095D02*
X139872094Y-110281333D01*
X139872094Y-110281333D02*
X139824475Y-110424190D01*
X139824475Y-110424190D02*
X139253047Y-110995619D01*
X139253047Y-110995619D02*
X139872094Y-110995619D01*
X140872094Y-110900380D02*
X140824475Y-110948000D01*
X140824475Y-110948000D02*
X140681618Y-110995619D01*
X140681618Y-110995619D02*
X140586380Y-110995619D01*
X140586380Y-110995619D02*
X140443523Y-110948000D01*
X140443523Y-110948000D02*
X140348285Y-110852761D01*
X140348285Y-110852761D02*
X140300666Y-110757523D01*
X140300666Y-110757523D02*
X140253047Y-110567047D01*
X140253047Y-110567047D02*
X140253047Y-110424190D01*
X140253047Y-110424190D02*
X140300666Y-110233714D01*
X140300666Y-110233714D02*
X140348285Y-110138476D01*
X140348285Y-110138476D02*
X140443523Y-110043238D01*
X140443523Y-110043238D02*
X140586380Y-109995619D01*
X140586380Y-109995619D02*
X140681618Y-109995619D01*
X140681618Y-109995619D02*
X140824475Y-110043238D01*
X140824475Y-110043238D02*
X140872094Y-110090857D01*
X141062571Y-111090857D02*
X141824475Y-111090857D01*
X142014952Y-110090857D02*
X142062571Y-110043238D01*
X142062571Y-110043238D02*
X142157809Y-109995619D01*
X142157809Y-109995619D02*
X142395904Y-109995619D01*
X142395904Y-109995619D02*
X142491142Y-110043238D01*
X142491142Y-110043238D02*
X142538761Y-110090857D01*
X142538761Y-110090857D02*
X142586380Y-110186095D01*
X142586380Y-110186095D02*
X142586380Y-110281333D01*
X142586380Y-110281333D02*
X142538761Y-110424190D01*
X142538761Y-110424190D02*
X141967333Y-110995619D01*
X141967333Y-110995619D02*
X142586380Y-110995619D01*
X163317219Y-105785142D02*
X163317219Y-105166095D01*
X163317219Y-105166095D02*
X163698171Y-105499428D01*
X163698171Y-105499428D02*
X163698171Y-105356571D01*
X163698171Y-105356571D02*
X163745790Y-105261333D01*
X163745790Y-105261333D02*
X163793409Y-105213714D01*
X163793409Y-105213714D02*
X163888647Y-105166095D01*
X163888647Y-105166095D02*
X164126742Y-105166095D01*
X164126742Y-105166095D02*
X164221980Y-105213714D01*
X164221980Y-105213714D02*
X164269600Y-105261333D01*
X164269600Y-105261333D02*
X164317219Y-105356571D01*
X164317219Y-105356571D02*
X164317219Y-105642285D01*
X164317219Y-105642285D02*
X164269600Y-105737523D01*
X164269600Y-105737523D02*
X164221980Y-105785142D01*
X164269600Y-104689904D02*
X164317219Y-104689904D01*
X164317219Y-104689904D02*
X164412457Y-104737523D01*
X164412457Y-104737523D02*
X164460076Y-104785142D01*
X163317219Y-104356571D02*
X163317219Y-103737524D01*
X163317219Y-103737524D02*
X163698171Y-104070857D01*
X163698171Y-104070857D02*
X163698171Y-103928000D01*
X163698171Y-103928000D02*
X163745790Y-103832762D01*
X163745790Y-103832762D02*
X163793409Y-103785143D01*
X163793409Y-103785143D02*
X163888647Y-103737524D01*
X163888647Y-103737524D02*
X164126742Y-103737524D01*
X164126742Y-103737524D02*
X164221980Y-103785143D01*
X164221980Y-103785143D02*
X164269600Y-103832762D01*
X164269600Y-103832762D02*
X164317219Y-103928000D01*
X164317219Y-103928000D02*
X164317219Y-104213714D01*
X164317219Y-104213714D02*
X164269600Y-104308952D01*
X164269600Y-104308952D02*
X164221980Y-104356571D01*
X163317219Y-103451809D02*
X164317219Y-103118476D01*
X164317219Y-103118476D02*
X163317219Y-102785143D01*
X151716095Y-121501619D02*
X151716095Y-120501619D01*
X152144666Y-120596857D02*
X152192285Y-120549238D01*
X152192285Y-120549238D02*
X152287523Y-120501619D01*
X152287523Y-120501619D02*
X152525618Y-120501619D01*
X152525618Y-120501619D02*
X152620856Y-120549238D01*
X152620856Y-120549238D02*
X152668475Y-120596857D01*
X152668475Y-120596857D02*
X152716094Y-120692095D01*
X152716094Y-120692095D02*
X152716094Y-120787333D01*
X152716094Y-120787333D02*
X152668475Y-120930190D01*
X152668475Y-120930190D02*
X152097047Y-121501619D01*
X152097047Y-121501619D02*
X152716094Y-121501619D01*
X153716094Y-121406380D02*
X153668475Y-121454000D01*
X153668475Y-121454000D02*
X153525618Y-121501619D01*
X153525618Y-121501619D02*
X153430380Y-121501619D01*
X153430380Y-121501619D02*
X153287523Y-121454000D01*
X153287523Y-121454000D02*
X153192285Y-121358761D01*
X153192285Y-121358761D02*
X153144666Y-121263523D01*
X153144666Y-121263523D02*
X153097047Y-121073047D01*
X153097047Y-121073047D02*
X153097047Y-120930190D01*
X153097047Y-120930190D02*
X153144666Y-120739714D01*
X153144666Y-120739714D02*
X153192285Y-120644476D01*
X153192285Y-120644476D02*
X153287523Y-120549238D01*
X153287523Y-120549238D02*
X153430380Y-120501619D01*
X153430380Y-120501619D02*
X153525618Y-120501619D01*
X153525618Y-120501619D02*
X153668475Y-120549238D01*
X153668475Y-120549238D02*
X153716094Y-120596857D01*
X153906571Y-121596857D02*
X154668475Y-121596857D01*
X155335142Y-120834952D02*
X155335142Y-121501619D01*
X155097047Y-120454000D02*
X154858952Y-121168285D01*
X154858952Y-121168285D02*
X155477999Y-121168285D01*
X165193638Y-99873695D02*
X165146019Y-99968933D01*
X165146019Y-99968933D02*
X165146019Y-100111790D01*
X165146019Y-100111790D02*
X165193638Y-100254647D01*
X165193638Y-100254647D02*
X165288876Y-100349885D01*
X165288876Y-100349885D02*
X165384114Y-100397504D01*
X165384114Y-100397504D02*
X165574590Y-100445123D01*
X165574590Y-100445123D02*
X165717447Y-100445123D01*
X165717447Y-100445123D02*
X165907923Y-100397504D01*
X165907923Y-100397504D02*
X166003161Y-100349885D01*
X166003161Y-100349885D02*
X166098400Y-100254647D01*
X166098400Y-100254647D02*
X166146019Y-100111790D01*
X166146019Y-100111790D02*
X166146019Y-100016552D01*
X166146019Y-100016552D02*
X166098400Y-99873695D01*
X166098400Y-99873695D02*
X166050780Y-99826076D01*
X166050780Y-99826076D02*
X165717447Y-99826076D01*
X165717447Y-99826076D02*
X165717447Y-100016552D01*
X166146019Y-99397504D02*
X165146019Y-99397504D01*
X165146019Y-99397504D02*
X166146019Y-98826076D01*
X166146019Y-98826076D02*
X165146019Y-98826076D01*
X166146019Y-98349885D02*
X165146019Y-98349885D01*
X165146019Y-98349885D02*
X165146019Y-98111790D01*
X165146019Y-98111790D02*
X165193638Y-97968933D01*
X165193638Y-97968933D02*
X165288876Y-97873695D01*
X165288876Y-97873695D02*
X165384114Y-97826076D01*
X165384114Y-97826076D02*
X165574590Y-97778457D01*
X165574590Y-97778457D02*
X165717447Y-97778457D01*
X165717447Y-97778457D02*
X165907923Y-97826076D01*
X165907923Y-97826076D02*
X166003161Y-97873695D01*
X166003161Y-97873695D02*
X166098400Y-97968933D01*
X166098400Y-97968933D02*
X166146019Y-98111790D01*
X166146019Y-98111790D02*
X166146019Y-98349885D01*
X137895619Y-129528761D02*
X138895619Y-129195428D01*
X138895619Y-129195428D02*
X137895619Y-128862095D01*
X138800380Y-127957333D02*
X138848000Y-128004952D01*
X138848000Y-128004952D02*
X138895619Y-128147809D01*
X138895619Y-128147809D02*
X138895619Y-128243047D01*
X138895619Y-128243047D02*
X138848000Y-128385904D01*
X138848000Y-128385904D02*
X138752761Y-128481142D01*
X138752761Y-128481142D02*
X138657523Y-128528761D01*
X138657523Y-128528761D02*
X138467047Y-128576380D01*
X138467047Y-128576380D02*
X138324190Y-128576380D01*
X138324190Y-128576380D02*
X138133714Y-128528761D01*
X138133714Y-128528761D02*
X138038476Y-128481142D01*
X138038476Y-128481142D02*
X137943238Y-128385904D01*
X137943238Y-128385904D02*
X137895619Y-128243047D01*
X137895619Y-128243047D02*
X137895619Y-128147809D01*
X137895619Y-128147809D02*
X137943238Y-128004952D01*
X137943238Y-128004952D02*
X137990857Y-127957333D01*
X138800380Y-126957333D02*
X138848000Y-127004952D01*
X138848000Y-127004952D02*
X138895619Y-127147809D01*
X138895619Y-127147809D02*
X138895619Y-127243047D01*
X138895619Y-127243047D02*
X138848000Y-127385904D01*
X138848000Y-127385904D02*
X138752761Y-127481142D01*
X138752761Y-127481142D02*
X138657523Y-127528761D01*
X138657523Y-127528761D02*
X138467047Y-127576380D01*
X138467047Y-127576380D02*
X138324190Y-127576380D01*
X138324190Y-127576380D02*
X138133714Y-127528761D01*
X138133714Y-127528761D02*
X138038476Y-127481142D01*
X138038476Y-127481142D02*
X137943238Y-127385904D01*
X137943238Y-127385904D02*
X137895619Y-127243047D01*
X137895619Y-127243047D02*
X137895619Y-127147809D01*
X137895619Y-127147809D02*
X137943238Y-127004952D01*
X137943238Y-127004952D02*
X137990857Y-126957333D01*
X140468000Y-129433523D02*
X140515619Y-129290666D01*
X140515619Y-129290666D02*
X140515619Y-129052571D01*
X140515619Y-129052571D02*
X140468000Y-128957333D01*
X140468000Y-128957333D02*
X140420380Y-128909714D01*
X140420380Y-128909714D02*
X140325142Y-128862095D01*
X140325142Y-128862095D02*
X140229904Y-128862095D01*
X140229904Y-128862095D02*
X140134666Y-128909714D01*
X140134666Y-128909714D02*
X140087047Y-128957333D01*
X140087047Y-128957333D02*
X140039428Y-129052571D01*
X140039428Y-129052571D02*
X139991809Y-129243047D01*
X139991809Y-129243047D02*
X139944190Y-129338285D01*
X139944190Y-129338285D02*
X139896571Y-129385904D01*
X139896571Y-129385904D02*
X139801333Y-129433523D01*
X139801333Y-129433523D02*
X139706095Y-129433523D01*
X139706095Y-129433523D02*
X139610857Y-129385904D01*
X139610857Y-129385904D02*
X139563238Y-129338285D01*
X139563238Y-129338285D02*
X139515619Y-129243047D01*
X139515619Y-129243047D02*
X139515619Y-129004952D01*
X139515619Y-129004952D02*
X139563238Y-128862095D01*
X140420380Y-127862095D02*
X140468000Y-127909714D01*
X140468000Y-127909714D02*
X140515619Y-128052571D01*
X140515619Y-128052571D02*
X140515619Y-128147809D01*
X140515619Y-128147809D02*
X140468000Y-128290666D01*
X140468000Y-128290666D02*
X140372761Y-128385904D01*
X140372761Y-128385904D02*
X140277523Y-128433523D01*
X140277523Y-128433523D02*
X140087047Y-128481142D01*
X140087047Y-128481142D02*
X139944190Y-128481142D01*
X139944190Y-128481142D02*
X139753714Y-128433523D01*
X139753714Y-128433523D02*
X139658476Y-128385904D01*
X139658476Y-128385904D02*
X139563238Y-128290666D01*
X139563238Y-128290666D02*
X139515619Y-128147809D01*
X139515619Y-128147809D02*
X139515619Y-128052571D01*
X139515619Y-128052571D02*
X139563238Y-127909714D01*
X139563238Y-127909714D02*
X139610857Y-127862095D01*
X140515619Y-126957333D02*
X140515619Y-127433523D01*
X140515619Y-127433523D02*
X139515619Y-127433523D01*
X141183238Y-128862095D02*
X141135619Y-128957333D01*
X141135619Y-128957333D02*
X141135619Y-129100190D01*
X141135619Y-129100190D02*
X141183238Y-129243047D01*
X141183238Y-129243047D02*
X141278476Y-129338285D01*
X141278476Y-129338285D02*
X141373714Y-129385904D01*
X141373714Y-129385904D02*
X141564190Y-129433523D01*
X141564190Y-129433523D02*
X141707047Y-129433523D01*
X141707047Y-129433523D02*
X141897523Y-129385904D01*
X141897523Y-129385904D02*
X141992761Y-129338285D01*
X141992761Y-129338285D02*
X142088000Y-129243047D01*
X142088000Y-129243047D02*
X142135619Y-129100190D01*
X142135619Y-129100190D02*
X142135619Y-129004952D01*
X142135619Y-129004952D02*
X142088000Y-128862095D01*
X142088000Y-128862095D02*
X142040380Y-128814476D01*
X142040380Y-128814476D02*
X141707047Y-128814476D01*
X141707047Y-128814476D02*
X141707047Y-129004952D01*
X142135619Y-128385904D02*
X141135619Y-128385904D01*
X141135619Y-128385904D02*
X142135619Y-127814476D01*
X142135619Y-127814476D02*
X141135619Y-127814476D01*
X142135619Y-127338285D02*
X141135619Y-127338285D01*
X141135619Y-127338285D02*
X141135619Y-127100190D01*
X141135619Y-127100190D02*
X141183238Y-126957333D01*
X141183238Y-126957333D02*
X141278476Y-126862095D01*
X141278476Y-126862095D02*
X141373714Y-126814476D01*
X141373714Y-126814476D02*
X141564190Y-126766857D01*
X141564190Y-126766857D02*
X141707047Y-126766857D01*
X141707047Y-126766857D02*
X141897523Y-126814476D01*
X141897523Y-126814476D02*
X141992761Y-126862095D01*
X141992761Y-126862095D02*
X142088000Y-126957333D01*
X142088000Y-126957333D02*
X142135619Y-127100190D01*
X142135619Y-127100190D02*
X142135619Y-127338285D01*
X143708000Y-129433523D02*
X143755619Y-129290666D01*
X143755619Y-129290666D02*
X143755619Y-129052571D01*
X143755619Y-129052571D02*
X143708000Y-128957333D01*
X143708000Y-128957333D02*
X143660380Y-128909714D01*
X143660380Y-128909714D02*
X143565142Y-128862095D01*
X143565142Y-128862095D02*
X143469904Y-128862095D01*
X143469904Y-128862095D02*
X143374666Y-128909714D01*
X143374666Y-128909714D02*
X143327047Y-128957333D01*
X143327047Y-128957333D02*
X143279428Y-129052571D01*
X143279428Y-129052571D02*
X143231809Y-129243047D01*
X143231809Y-129243047D02*
X143184190Y-129338285D01*
X143184190Y-129338285D02*
X143136571Y-129385904D01*
X143136571Y-129385904D02*
X143041333Y-129433523D01*
X143041333Y-129433523D02*
X142946095Y-129433523D01*
X142946095Y-129433523D02*
X142850857Y-129385904D01*
X142850857Y-129385904D02*
X142803238Y-129338285D01*
X142803238Y-129338285D02*
X142755619Y-129243047D01*
X142755619Y-129243047D02*
X142755619Y-129004952D01*
X142755619Y-129004952D02*
X142803238Y-128862095D01*
X143755619Y-128433523D02*
X142755619Y-128433523D01*
X142755619Y-128433523D02*
X142755619Y-128195428D01*
X142755619Y-128195428D02*
X142803238Y-128052571D01*
X142803238Y-128052571D02*
X142898476Y-127957333D01*
X142898476Y-127957333D02*
X142993714Y-127909714D01*
X142993714Y-127909714D02*
X143184190Y-127862095D01*
X143184190Y-127862095D02*
X143327047Y-127862095D01*
X143327047Y-127862095D02*
X143517523Y-127909714D01*
X143517523Y-127909714D02*
X143612761Y-127957333D01*
X143612761Y-127957333D02*
X143708000Y-128052571D01*
X143708000Y-128052571D02*
X143755619Y-128195428D01*
X143755619Y-128195428D02*
X143755619Y-128433523D01*
X143469904Y-127481142D02*
X143469904Y-127004952D01*
X143755619Y-127576380D02*
X142755619Y-127243047D01*
X142755619Y-127243047D02*
X143755619Y-126909714D01*
X165146019Y-97292742D02*
X165146019Y-96673695D01*
X165146019Y-96673695D02*
X165526971Y-97007028D01*
X165526971Y-97007028D02*
X165526971Y-96864171D01*
X165526971Y-96864171D02*
X165574590Y-96768933D01*
X165574590Y-96768933D02*
X165622209Y-96721314D01*
X165622209Y-96721314D02*
X165717447Y-96673695D01*
X165717447Y-96673695D02*
X165955542Y-96673695D01*
X165955542Y-96673695D02*
X166050780Y-96721314D01*
X166050780Y-96721314D02*
X166098400Y-96768933D01*
X166098400Y-96768933D02*
X166146019Y-96864171D01*
X166146019Y-96864171D02*
X166146019Y-97149885D01*
X166146019Y-97149885D02*
X166098400Y-97245123D01*
X166098400Y-97245123D02*
X166050780Y-97292742D01*
X166098400Y-96197504D02*
X166146019Y-96197504D01*
X166146019Y-96197504D02*
X166241257Y-96245123D01*
X166241257Y-96245123D02*
X166288876Y-96292742D01*
X165146019Y-95864171D02*
X165146019Y-95245124D01*
X165146019Y-95245124D02*
X165526971Y-95578457D01*
X165526971Y-95578457D02*
X165526971Y-95435600D01*
X165526971Y-95435600D02*
X165574590Y-95340362D01*
X165574590Y-95340362D02*
X165622209Y-95292743D01*
X165622209Y-95292743D02*
X165717447Y-95245124D01*
X165717447Y-95245124D02*
X165955542Y-95245124D01*
X165955542Y-95245124D02*
X166050780Y-95292743D01*
X166050780Y-95292743D02*
X166098400Y-95340362D01*
X166098400Y-95340362D02*
X166146019Y-95435600D01*
X166146019Y-95435600D02*
X166146019Y-95721314D01*
X166146019Y-95721314D02*
X166098400Y-95816552D01*
X166098400Y-95816552D02*
X166050780Y-95864171D01*
X165146019Y-94959409D02*
X166146019Y-94626076D01*
X166146019Y-94626076D02*
X165146019Y-94292743D01*
D11*
X120207285Y-86080000D02*
X122493000Y-86080000D01*
X120207285Y-90940000D02*
X122493000Y-90940000D01*
X121350142Y-92082857D02*
X121350142Y-89797142D01*
D10*
%TO.C,D3*%
X140834905Y-130851619D02*
X140834905Y-129851619D01*
X140834905Y-129851619D02*
X141073000Y-129851619D01*
X141073000Y-129851619D02*
X141215857Y-129899238D01*
X141215857Y-129899238D02*
X141311095Y-129994476D01*
X141311095Y-129994476D02*
X141358714Y-130089714D01*
X141358714Y-130089714D02*
X141406333Y-130280190D01*
X141406333Y-130280190D02*
X141406333Y-130423047D01*
X141406333Y-130423047D02*
X141358714Y-130613523D01*
X141358714Y-130613523D02*
X141311095Y-130708761D01*
X141311095Y-130708761D02*
X141215857Y-130804000D01*
X141215857Y-130804000D02*
X141073000Y-130851619D01*
X141073000Y-130851619D02*
X140834905Y-130851619D01*
X141739667Y-129851619D02*
X142358714Y-129851619D01*
X142358714Y-129851619D02*
X142025381Y-130232571D01*
X142025381Y-130232571D02*
X142168238Y-130232571D01*
X142168238Y-130232571D02*
X142263476Y-130280190D01*
X142263476Y-130280190D02*
X142311095Y-130327809D01*
X142311095Y-130327809D02*
X142358714Y-130423047D01*
X142358714Y-130423047D02*
X142358714Y-130661142D01*
X142358714Y-130661142D02*
X142311095Y-130756380D01*
X142311095Y-130756380D02*
X142263476Y-130804000D01*
X142263476Y-130804000D02*
X142168238Y-130851619D01*
X142168238Y-130851619D02*
X141882524Y-130851619D01*
X141882524Y-130851619D02*
X141787286Y-130804000D01*
X141787286Y-130804000D02*
X141739667Y-130756380D01*
%TO.C,XA1*%
X116586000Y-131939380D02*
X116633619Y-131987000D01*
X116633619Y-131987000D02*
X116586000Y-132034619D01*
X116586000Y-132034619D02*
X116538381Y-131987000D01*
X116538381Y-131987000D02*
X116586000Y-131939380D01*
X116586000Y-131939380D02*
X116586000Y-132034619D01*
D12*
X117740952Y-132311309D02*
X117740952Y-131811309D01*
X117740952Y-131811309D02*
X117860000Y-131811309D01*
X117860000Y-131811309D02*
X117931428Y-131835119D01*
X117931428Y-131835119D02*
X117979047Y-131882738D01*
X117979047Y-131882738D02*
X118002857Y-131930357D01*
X118002857Y-131930357D02*
X118026666Y-132025595D01*
X118026666Y-132025595D02*
X118026666Y-132097023D01*
X118026666Y-132097023D02*
X118002857Y-132192261D01*
X118002857Y-132192261D02*
X117979047Y-132239880D01*
X117979047Y-132239880D02*
X117931428Y-132287500D01*
X117931428Y-132287500D02*
X117860000Y-132311309D01*
X117860000Y-132311309D02*
X117740952Y-132311309D01*
X118336190Y-131811309D02*
X118383809Y-131811309D01*
X118383809Y-131811309D02*
X118431428Y-131835119D01*
X118431428Y-131835119D02*
X118455238Y-131858928D01*
X118455238Y-131858928D02*
X118479047Y-131906547D01*
X118479047Y-131906547D02*
X118502857Y-132001785D01*
X118502857Y-132001785D02*
X118502857Y-132120833D01*
X118502857Y-132120833D02*
X118479047Y-132216071D01*
X118479047Y-132216071D02*
X118455238Y-132263690D01*
X118455238Y-132263690D02*
X118431428Y-132287500D01*
X118431428Y-132287500D02*
X118383809Y-132311309D01*
X118383809Y-132311309D02*
X118336190Y-132311309D01*
X118336190Y-132311309D02*
X118288571Y-132287500D01*
X118288571Y-132287500D02*
X118264762Y-132263690D01*
X118264762Y-132263690D02*
X118240952Y-132216071D01*
X118240952Y-132216071D02*
X118217143Y-132120833D01*
X118217143Y-132120833D02*
X118217143Y-132001785D01*
X118217143Y-132001785D02*
X118240952Y-131906547D01*
X118240952Y-131906547D02*
X118264762Y-131858928D01*
X118264762Y-131858928D02*
X118288571Y-131835119D01*
X118288571Y-131835119D02*
X118336190Y-131811309D01*
D13*
%TO.C,U2*%
X207618000Y-117449000D02*
X207618000Y-117179000D01*
X207618000Y-117179000D02*
X210448000Y-117179000D01*
X207618000Y-110819000D02*
X208718000Y-110819000D01*
X207618000Y-110549000D02*
X207618000Y-110819000D01*
X201198000Y-117449000D02*
X207618000Y-117449000D01*
X201198000Y-110549000D02*
X207618000Y-110549000D01*
%TO.C,C7*%
X202344000Y-104929420D02*
X202344000Y-105210580D01*
X201324000Y-104929420D02*
X201324000Y-105210580D01*
%TO.C,C19*%
X168737420Y-125114000D02*
X169018580Y-125114000D01*
X168737420Y-126134000D02*
X169018580Y-126134000D01*
%TO.C,D11*%
X170394500Y-102594500D02*
X168694500Y-102594500D01*
X170394500Y-102594500D02*
X170394500Y-105254500D01*
X168694500Y-102594500D02*
X168694500Y-105254500D01*
%TO.C,R59*%
X130327500Y-107693258D02*
X130327500Y-107218742D01*
X131372500Y-107693258D02*
X131372500Y-107218742D01*
%TO.C,L1*%
X205374000Y-101730000D02*
X205524000Y-101730000D01*
X205374000Y-101730000D02*
X205374000Y-97210000D01*
X209894000Y-101730000D02*
X209744000Y-101730000D01*
X209894000Y-101730000D02*
X209894000Y-97210000D01*
X205374000Y-97210000D02*
X205524000Y-97210000D01*
X209894000Y-97210000D02*
X209744000Y-97210000D01*
%TO.C,C4*%
X210044000Y-88730000D02*
X210044000Y-84210000D01*
X210044000Y-84210000D02*
X201984000Y-84210000D01*
X201984000Y-88730000D02*
X210044000Y-88730000D01*
%TO.C,U5*%
X185009500Y-114233500D02*
X185009500Y-110633500D01*
X185009500Y-114233500D02*
X185009500Y-116433500D01*
X176939500Y-114233500D02*
X176939500Y-112033500D01*
X176939500Y-114233500D02*
X176939500Y-116433500D01*
%TO.C,J13*%
X133798000Y-104344000D02*
X135128000Y-104344000D01*
X133798000Y-105674000D02*
X133798000Y-104344000D01*
X133798000Y-106944000D02*
X133798000Y-109544000D01*
X133798000Y-106944000D02*
X136458000Y-106944000D01*
X133798000Y-109544000D02*
X136458000Y-109544000D01*
X136458000Y-106944000D02*
X136458000Y-109544000D01*
%TO.C,R34*%
X167161758Y-104071000D02*
X166687242Y-104071000D01*
X167161758Y-103026000D02*
X166687242Y-103026000D01*
%TO.C,R3*%
X167161758Y-113215000D02*
X166687242Y-113215000D01*
X167161758Y-112170000D02*
X166687242Y-112170000D01*
%TO.C,C10*%
X199238000Y-119383420D02*
X199238000Y-119664580D01*
X198218000Y-119383420D02*
X198218000Y-119664580D01*
%TO.C,U4*%
X179948000Y-91622500D02*
X179948000Y-93422500D01*
X179948000Y-91622500D02*
X179948000Y-90822500D01*
X183068000Y-91622500D02*
X183068000Y-92422500D01*
X183068000Y-91622500D02*
X183068000Y-90822500D01*
%TO.C,D25*%
X183314000Y-126276000D02*
X185014000Y-126276000D01*
X183314000Y-126276000D02*
X183314000Y-123616000D01*
X185014000Y-126276000D02*
X185014000Y-123616000D01*
%TO.C,R62*%
X192814500Y-120906742D02*
X192814500Y-121381258D01*
X191769500Y-120906742D02*
X191769500Y-121381258D01*
%TO.C,R50*%
X167115258Y-122746500D02*
X166640742Y-122746500D01*
X167115258Y-121701500D02*
X166640742Y-121701500D01*
%TO.C,R22*%
X177150000Y-107822258D02*
X177150000Y-107347742D01*
X178195000Y-107822258D02*
X178195000Y-107347742D01*
%TO.C,C14*%
X143731900Y-94876500D02*
X143731900Y-95664000D01*
X144125650Y-95270250D02*
X143338150Y-95270250D01*
X144229963Y-95904000D02*
X142944400Y-95904000D01*
X144229963Y-95904000D02*
X145294400Y-96968437D01*
X139538837Y-95904000D02*
X140824400Y-95904000D01*
X139538837Y-95904000D02*
X138474400Y-96968437D01*
X145294400Y-96968437D02*
X145294400Y-102724000D01*
X138474400Y-96968437D02*
X138474400Y-102724000D01*
X145294400Y-102724000D02*
X142944400Y-102724000D01*
X138474400Y-102724000D02*
X140824400Y-102724000D01*
%TO.C,D18*%
X131639000Y-113909000D02*
X133109000Y-113909000D01*
X133109000Y-113909000D02*
X133109000Y-111624000D01*
X131639000Y-111624000D02*
X131639000Y-113909000D01*
%TO.C,J10*%
X133798000Y-96724000D02*
X135128000Y-96724000D01*
X133798000Y-98054000D02*
X133798000Y-96724000D01*
X133798000Y-99324000D02*
X133798000Y-101924000D01*
X133798000Y-99324000D02*
X136458000Y-99324000D01*
X133798000Y-101924000D02*
X136458000Y-101924000D01*
X136458000Y-99324000D02*
X136458000Y-101924000D01*
%TO.C,R7*%
X198311500Y-101707258D02*
X198311500Y-101232742D01*
X199356500Y-101707258D02*
X199356500Y-101232742D01*
%TO.C,D23*%
X131585000Y-96402500D02*
X130115000Y-96402500D01*
X130115000Y-96402500D02*
X130115000Y-98687500D01*
X131585000Y-98687500D02*
X131585000Y-96402500D01*
%TO.C,D6*%
X160813000Y-99739000D02*
X159343000Y-99739000D01*
X159343000Y-99739000D02*
X159343000Y-102024000D01*
X160813000Y-102024000D02*
X160813000Y-99739000D01*
%TO.C,R5*%
X199196742Y-103547500D02*
X199671258Y-103547500D01*
X199196742Y-104592500D02*
X199671258Y-104592500D01*
%TO.C,R6*%
X199356500Y-95632742D02*
X199356500Y-96107258D01*
X198311500Y-95632742D02*
X198311500Y-96107258D01*
%TO.C,C3*%
X204293420Y-103760000D02*
X204574580Y-103760000D01*
X204293420Y-104780000D02*
X204574580Y-104780000D01*
%TO.C,F9*%
X183819252Y-100444000D02*
X179411748Y-100444000D01*
X183819252Y-95104000D02*
X179411748Y-95104000D01*
%TO.C,J3*%
X149158000Y-117044000D02*
X149158000Y-118374000D01*
X147828000Y-117044000D02*
X149158000Y-117044000D01*
X146558000Y-117044000D02*
X138878000Y-117044000D01*
X146558000Y-117044000D02*
X146558000Y-119704000D01*
X138878000Y-117044000D02*
X138878000Y-119704000D01*
X146558000Y-119704000D02*
X138878000Y-119704000D01*
%TO.C,R45*%
X123344436Y-117351500D02*
X123798564Y-117351500D01*
X123344436Y-118821500D02*
X123798564Y-118821500D01*
%TO.C,R11*%
X181468000Y-107729758D02*
X181468000Y-107255242D01*
X182513000Y-107729758D02*
X182513000Y-107255242D01*
%TO.C,D30*%
X191442000Y-126276000D02*
X193142000Y-126276000D01*
X191442000Y-126276000D02*
X191442000Y-123616000D01*
X193142000Y-126276000D02*
X193142000Y-123616000D01*
%TO.C,D9*%
X176490500Y-102594500D02*
X174790500Y-102594500D01*
X176490500Y-102594500D02*
X176490500Y-105254500D01*
X174790500Y-102594500D02*
X174790500Y-105254500D01*
%TO.C,C20*%
X165537420Y-125114000D02*
X165818580Y-125114000D01*
X165537420Y-126134000D02*
X165818580Y-126134000D01*
%TO.C,F7*%
X176858500Y-120885422D02*
X176858500Y-121402578D01*
X175438500Y-120885422D02*
X175438500Y-121402578D01*
%TO.C,D17*%
X123393000Y-90289000D02*
X123393000Y-91759000D01*
X123393000Y-91759000D02*
X125678000Y-91759000D01*
X125678000Y-90289000D02*
X123393000Y-90289000D01*
%TO.C,D19*%
X131585000Y-110939000D02*
X130115000Y-110939000D01*
X130115000Y-110939000D02*
X130115000Y-113224000D01*
X131585000Y-113224000D02*
X131585000Y-110939000D01*
%TO.C,R29*%
X199000500Y-124306742D02*
X199000500Y-124781258D01*
X197955500Y-124306742D02*
X197955500Y-124781258D01*
%TO.C,R37*%
X123400936Y-125169000D02*
X123855064Y-125169000D01*
X123400936Y-126639000D02*
X123855064Y-126639000D01*
%TO.C,D28*%
X131639000Y-105804500D02*
X133109000Y-105804500D01*
X133109000Y-105804500D02*
X133109000Y-103519500D01*
X131639000Y-103519500D02*
X131639000Y-105804500D01*
%TO.C,R60*%
X123462436Y-109534500D02*
X123916564Y-109534500D01*
X123462436Y-111004500D02*
X123916564Y-111004500D01*
%TO.C,D14*%
X131545000Y-118802500D02*
X130075000Y-118802500D01*
X130075000Y-118802500D02*
X130075000Y-121087500D01*
X131545000Y-121087500D02*
X131545000Y-118802500D01*
%TO.C,R27*%
X167161758Y-107119000D02*
X166687242Y-107119000D01*
X167161758Y-106074000D02*
X166687242Y-106074000D01*
%TO.C,J1*%
X137188000Y-83214000D02*
X128368000Y-83214000D01*
X136378000Y-83214000D02*
X136378000Y-85714000D01*
X128368000Y-83214000D02*
X128368000Y-95434000D01*
X135378000Y-84124000D02*
X135378000Y-94524000D01*
X130078000Y-84124000D02*
X135378000Y-84124000D01*
X130078000Y-84824000D02*
X130078000Y-84124000D01*
X137188000Y-85824000D02*
X137188000Y-87824000D01*
X135378000Y-85824000D02*
X137188000Y-85824000D01*
X137988000Y-86524000D02*
X137988000Y-87124000D01*
X137388000Y-86824000D02*
X137988000Y-86524000D01*
X137988000Y-87124000D02*
X137388000Y-86824000D01*
X137188000Y-87824000D02*
X135378000Y-87824000D01*
X136378000Y-87824000D02*
X136378000Y-90824000D01*
X135378000Y-87824000D02*
X135378000Y-85824000D01*
X130078000Y-88824000D02*
X130078000Y-89824000D01*
X137188000Y-90824000D02*
X137188000Y-92824000D01*
X135378000Y-90824000D02*
X137188000Y-90824000D01*
X137188000Y-92824000D02*
X135378000Y-92824000D01*
X135378000Y-92824000D02*
X135378000Y-90824000D01*
X135378000Y-94524000D02*
X130078000Y-94524000D01*
X130078000Y-94524000D02*
X130078000Y-93824000D01*
X137188000Y-95434000D02*
X137188000Y-83214000D01*
X136378000Y-95434000D02*
X136378000Y-92934000D01*
X128368000Y-95434000D02*
X137188000Y-95434000D01*
X130078000Y-84824000D02*
G75*
G03*
X130062179Y-88810842I1650000J-2000000D01*
G01*
X130078000Y-89824000D02*
G75*
G03*
X130062179Y-93810842I1650000J-2000000D01*
G01*
%TO.C,R33*%
X167161758Y-105595000D02*
X166687242Y-105595000D01*
X167161758Y-104550000D02*
X166687242Y-104550000D01*
%TO.C,D10*%
X178522500Y-102594500D02*
X176822500Y-102594500D01*
X178522500Y-102594500D02*
X178522500Y-105254500D01*
X176822500Y-102594500D02*
X176822500Y-105254500D01*
%TO.C,D7*%
X162613000Y-99739000D02*
X161143000Y-99739000D01*
X161143000Y-99739000D02*
X161143000Y-102024000D01*
X162613000Y-102024000D02*
X162613000Y-99739000D01*
%TO.C,D1*%
X188936500Y-102394500D02*
X187236500Y-102394500D01*
X188936500Y-102394500D02*
X188936500Y-105054500D01*
X187236500Y-102394500D02*
X187236500Y-105054500D01*
%TO.C,R35*%
X131811500Y-123661258D02*
X131811500Y-123186742D01*
X132856500Y-123661258D02*
X132856500Y-123186742D01*
%TO.C,C22*%
X190788000Y-90683420D02*
X190788000Y-90964580D01*
X189768000Y-90683420D02*
X189768000Y-90964580D01*
%TO.C,R2*%
X187564000Y-107729758D02*
X187564000Y-107255242D01*
X188609000Y-107729758D02*
X188609000Y-107255242D01*
%TO.C,R46*%
X178703000Y-120906742D02*
X178703000Y-121381258D01*
X177658000Y-120906742D02*
X177658000Y-121381258D01*
%TO.C,R65*%
X178257500Y-91414758D02*
X178257500Y-90940242D01*
X179302500Y-91414758D02*
X179302500Y-90940242D01*
%TO.C,J8*%
X133798000Y-111964000D02*
X135128000Y-111964000D01*
X133798000Y-113294000D02*
X133798000Y-111964000D01*
X133798000Y-114564000D02*
X133798000Y-117164000D01*
X133798000Y-114564000D02*
X136458000Y-114564000D01*
X133798000Y-117164000D02*
X136458000Y-117164000D01*
X136458000Y-114564000D02*
X136458000Y-117164000D01*
%TO.C,R57*%
X167115258Y-119546500D02*
X166640742Y-119546500D01*
X167115258Y-118501500D02*
X166640742Y-118501500D01*
%TO.C,D8*%
X164413000Y-99739000D02*
X162943000Y-99739000D01*
X162943000Y-99739000D02*
X162943000Y-102024000D01*
X164413000Y-102024000D02*
X164413000Y-99739000D01*
%TO.C,R13*%
X188090500Y-91786742D02*
X188090500Y-92261258D01*
X187045500Y-91786742D02*
X187045500Y-92261258D01*
%TO.C,F5*%
X172898500Y-107951078D02*
X172898500Y-107433922D01*
X174318500Y-107951078D02*
X174318500Y-107433922D01*
%TO.C,R67*%
X191200500Y-94761742D02*
X191200500Y-95236258D01*
X190155500Y-94761742D02*
X190155500Y-95236258D01*
%TO.C,R24*%
X204889758Y-119266500D02*
X204415242Y-119266500D01*
X204889758Y-118221500D02*
X204415242Y-118221500D01*
%TO.C,R51*%
X131851500Y-101261258D02*
X131851500Y-100786742D01*
X132896500Y-101261258D02*
X132896500Y-100786742D01*
%TO.C,J4*%
X149158000Y-111948000D02*
X149158000Y-113278000D01*
X147828000Y-111948000D02*
X149158000Y-111948000D01*
X146558000Y-111948000D02*
X138878000Y-111948000D01*
X146558000Y-111948000D02*
X146558000Y-114608000D01*
X138878000Y-111948000D02*
X138878000Y-114608000D01*
X146558000Y-114608000D02*
X138878000Y-114608000D01*
%TO.C,R53*%
X122240936Y-94529000D02*
X122695064Y-94529000D01*
X122240936Y-95999000D02*
X122695064Y-95999000D01*
%TO.C,D22*%
X131639000Y-99372500D02*
X133109000Y-99372500D01*
X133109000Y-99372500D02*
X133109000Y-97087500D01*
X131639000Y-97087500D02*
X131639000Y-99372500D01*
%TO.C,R58*%
X131851500Y-107693258D02*
X131851500Y-107218742D01*
X132896500Y-107693258D02*
X132896500Y-107218742D01*
%TO.C,C6*%
X185544500Y-116419080D02*
X185544500Y-116137920D01*
X186564500Y-116419080D02*
X186564500Y-116137920D01*
%TO.C,D26*%
X175862000Y-95182000D02*
X173642000Y-95182000D01*
X173642000Y-95182000D02*
X173642000Y-99592000D01*
X175862000Y-99592000D02*
X175862000Y-95182000D01*
%TO.C,R43*%
X131851500Y-115797758D02*
X131851500Y-115323242D01*
X132896500Y-115797758D02*
X132896500Y-115323242D01*
%TO.C,R26*%
X184890500Y-91786742D02*
X184890500Y-92261258D01*
X183845500Y-91786742D02*
X183845500Y-92261258D01*
%TO.C,C15*%
X127280580Y-126414000D02*
X126999420Y-126414000D01*
X127280580Y-125394000D02*
X126999420Y-125394000D01*
%TO.C,D3*%
X145083000Y-129539000D02*
X145083000Y-126239000D01*
X145083000Y-129539000D02*
X139573000Y-129539000D01*
X145083000Y-126239000D02*
X139573000Y-126239000D01*
%TO.C,F8*%
X182842000Y-120885422D02*
X182842000Y-121402578D01*
X181422000Y-120885422D02*
X181422000Y-121402578D01*
%TO.C,R32*%
X196289758Y-125797500D02*
X195815242Y-125797500D01*
X196289758Y-124752500D02*
X195815242Y-124752500D01*
%TO.C,R56*%
X167115258Y-117946500D02*
X166640742Y-117946500D01*
X167115258Y-116901500D02*
X166640742Y-116901500D01*
%TO.C,J14*%
X161844000Y-106868000D02*
X161844000Y-108198000D01*
X160514000Y-106868000D02*
X161844000Y-106868000D01*
X159244000Y-106868000D02*
X151564000Y-106868000D01*
X159244000Y-106868000D02*
X159244000Y-109528000D01*
X151564000Y-106868000D02*
X151564000Y-109528000D01*
X159244000Y-109528000D02*
X151564000Y-109528000D01*
%TO.C,D4*%
X182794500Y-102594500D02*
X181094500Y-102594500D01*
X182794500Y-102594500D02*
X182794500Y-105254500D01*
X181094500Y-102594500D02*
X181094500Y-105254500D01*
%TO.C,D31*%
X189410000Y-126276000D02*
X191110000Y-126276000D01*
X189410000Y-126276000D02*
X189410000Y-123616000D01*
X191110000Y-126276000D02*
X191110000Y-123616000D01*
%TO.C,R36*%
X130287500Y-123661258D02*
X130287500Y-123186742D01*
X131332500Y-123661258D02*
X131332500Y-123186742D01*
%TO.C,R42*%
X125143000Y-88658258D02*
X125143000Y-88183742D01*
X126188000Y-88658258D02*
X126188000Y-88183742D01*
%TO.C,D32*%
X171603000Y-83073000D02*
X171603000Y-84733000D01*
X171943000Y-82833000D02*
X171943000Y-83073000D01*
X171943000Y-83073000D02*
X171603000Y-83073000D01*
X173703000Y-83073000D02*
X174023000Y-83073000D01*
X176123000Y-83073000D02*
X175783000Y-83073000D01*
X176123000Y-84733000D02*
X176123000Y-83073000D01*
%TO.C,R66*%
X191200500Y-97961742D02*
X191200500Y-98436258D01*
X190155500Y-97961742D02*
X190155500Y-98436258D01*
%TO.C,C21*%
X206974580Y-95380000D02*
X206693420Y-95380000D01*
X206974580Y-94360000D02*
X206693420Y-94360000D01*
%TO.C,F1*%
X191440500Y-107751078D02*
X191440500Y-107233922D01*
X192860500Y-107751078D02*
X192860500Y-107233922D01*
%TO.C,D27*%
X187118000Y-100434000D02*
X189338000Y-100434000D01*
X189338000Y-100434000D02*
X189338000Y-96024000D01*
X187118000Y-96024000D02*
X187118000Y-100434000D01*
%TO.C,R9*%
X187878758Y-112216000D02*
X187404242Y-112216000D01*
X187878758Y-111171000D02*
X187404242Y-111171000D01*
%TO.C,C17*%
X126418580Y-96536000D02*
X126137420Y-96536000D01*
X126418580Y-95516000D02*
X126137420Y-95516000D01*
%TO.C,U3*%
X154278000Y-103474000D02*
X154278000Y-103204000D01*
X154278000Y-103204000D02*
X157108000Y-103204000D01*
X154278000Y-96844000D02*
X155378000Y-96844000D01*
X154278000Y-96574000D02*
X154278000Y-96844000D01*
X147858000Y-103474000D02*
X154278000Y-103474000D01*
X147858000Y-96574000D02*
X154278000Y-96574000D01*
%TO.C,R16*%
X159555500Y-98261258D02*
X159555500Y-97786742D01*
X160600500Y-98261258D02*
X160600500Y-97786742D01*
%TO.C,J2*%
X149158000Y-122124000D02*
X149158000Y-123454000D01*
X147828000Y-122124000D02*
X149158000Y-122124000D01*
X146558000Y-122124000D02*
X138878000Y-122124000D01*
X146558000Y-122124000D02*
X146558000Y-124784000D01*
X138878000Y-122124000D02*
X138878000Y-124784000D01*
X146558000Y-124784000D02*
X138878000Y-124784000D01*
%TO.C,D12*%
X172426500Y-102594500D02*
X170726500Y-102594500D01*
X172426500Y-102594500D02*
X172426500Y-105254500D01*
X170726500Y-102594500D02*
X170726500Y-105254500D01*
D10*
%TO.C,U9*%
X123381000Y-103546500D02*
X123381000Y-103596500D01*
X123381000Y-103546500D02*
X127531000Y-103546500D01*
X123381000Y-103596500D02*
X121981000Y-103596500D01*
X123381000Y-108696500D02*
X123381000Y-108551500D01*
X123381000Y-108696500D02*
X127531000Y-108696500D01*
X127531000Y-103546500D02*
X127531000Y-103691500D01*
X127531000Y-108696500D02*
X127531000Y-108551500D01*
%TO.C,U7*%
X123329000Y-111731500D02*
X123329000Y-111781500D01*
X123329000Y-111731500D02*
X127479000Y-111731500D01*
X123329000Y-111781500D02*
X121929000Y-111781500D01*
X123329000Y-116881500D02*
X123329000Y-116736500D01*
X123329000Y-116881500D02*
X127479000Y-116881500D01*
X127479000Y-111731500D02*
X127479000Y-111876500D01*
X127479000Y-116881500D02*
X127479000Y-116736500D01*
D13*
%TO.C,R54*%
X184686500Y-120906742D02*
X184686500Y-121381258D01*
X183641500Y-120906742D02*
X183641500Y-121381258D01*
%TO.C,C9*%
X209862420Y-108764000D02*
X210143580Y-108764000D01*
X209862420Y-109784000D02*
X210143580Y-109784000D01*
%TO.C,D15*%
X172980500Y-126276000D02*
X174680500Y-126276000D01*
X172980500Y-126276000D02*
X172980500Y-123616000D01*
X174680500Y-126276000D02*
X174680500Y-123616000D01*
%TO.C,R30*%
X171022000Y-107929758D02*
X171022000Y-107455242D01*
X172067000Y-107929758D02*
X172067000Y-107455242D01*
%TO.C,C13*%
X147297420Y-103914000D02*
X147578580Y-103914000D01*
X147297420Y-104934000D02*
X147578580Y-104934000D01*
%TO.C,J5*%
X149158000Y-106884000D02*
X149158000Y-108214000D01*
X147828000Y-106884000D02*
X149158000Y-106884000D01*
X146558000Y-106884000D02*
X138878000Y-106884000D01*
X146558000Y-106884000D02*
X146558000Y-109544000D01*
X138878000Y-106884000D02*
X138878000Y-109544000D01*
X146558000Y-109544000D02*
X138878000Y-109544000D01*
%TO.C,J12*%
X166818000Y-89094000D02*
X168148000Y-89094000D01*
X166818000Y-90424000D02*
X166818000Y-89094000D01*
X166818000Y-91694000D02*
X166818000Y-99374000D01*
X166818000Y-91694000D02*
X169478000Y-91694000D01*
X166818000Y-99374000D02*
X169478000Y-99374000D01*
X169478000Y-91694000D02*
X169478000Y-99374000D01*
%TO.C,Q1*%
X183478000Y-82714000D02*
X180028000Y-82714000D01*
X183478000Y-82714000D02*
X185428000Y-82714000D01*
X183478000Y-87834000D02*
X181528000Y-87834000D01*
X183478000Y-87834000D02*
X185428000Y-87834000D01*
%TO.C,R49*%
X167115258Y-121146500D02*
X166640742Y-121146500D01*
X167115258Y-120101500D02*
X166640742Y-120101500D01*
%TO.C,J11*%
X161858000Y-111948000D02*
X161858000Y-113278000D01*
X160528000Y-111948000D02*
X161858000Y-111948000D01*
X159258000Y-111948000D02*
X151578000Y-111948000D01*
X159258000Y-111948000D02*
X159258000Y-114608000D01*
X151578000Y-111948000D02*
X151578000Y-114608000D01*
X159258000Y-114608000D02*
X151578000Y-114608000D01*
%TO.C,R12*%
X167161758Y-110167000D02*
X166687242Y-110167000D01*
X167161758Y-109122000D02*
X166687242Y-109122000D01*
%TO.C,F11*%
X170921000Y-98698064D02*
X170921000Y-97493936D01*
X172741000Y-98698064D02*
X172741000Y-97493936D01*
%TO.C,R47*%
X180481000Y-120906742D02*
X180481000Y-121381258D01*
X179436000Y-120906742D02*
X179436000Y-121381258D01*
%TO.C,D20*%
X179108500Y-126276000D02*
X180808500Y-126276000D01*
X179108500Y-126276000D02*
X179108500Y-123616000D01*
X180808500Y-126276000D02*
X180808500Y-123616000D01*
%TO.C,C5*%
X210044000Y-93730000D02*
X210044000Y-89210000D01*
X210044000Y-89210000D02*
X201984000Y-89210000D01*
X201984000Y-93730000D02*
X210044000Y-93730000D01*
%TO.C,D24*%
X185346000Y-126276000D02*
X187046000Y-126276000D01*
X185346000Y-126276000D02*
X185346000Y-123616000D01*
X187046000Y-126276000D02*
X187046000Y-123616000D01*
%TO.C,R14*%
X179302500Y-87740242D02*
X179302500Y-88214758D01*
X178257500Y-87740242D02*
X178257500Y-88214758D01*
%TO.C,D16*%
X170980500Y-126276000D02*
X172680500Y-126276000D01*
X170980500Y-126276000D02*
X170980500Y-123616000D01*
X172680500Y-126276000D02*
X172680500Y-123616000D01*
%TO.C,R61*%
X190775000Y-120906742D02*
X190775000Y-121381258D01*
X189730000Y-120906742D02*
X189730000Y-121381258D01*
%TO.C,J6*%
X133798000Y-119584000D02*
X135128000Y-119584000D01*
X133798000Y-120914000D02*
X133798000Y-119584000D01*
X133798000Y-122184000D02*
X133798000Y-124784000D01*
X133798000Y-122184000D02*
X136458000Y-122184000D01*
X133798000Y-124784000D02*
X136458000Y-124784000D01*
X136458000Y-122184000D02*
X136458000Y-124784000D01*
%TO.C,R18*%
X163155500Y-98261258D02*
X163155500Y-97786742D01*
X164200500Y-98261258D02*
X164200500Y-97786742D01*
D10*
%TO.C,U8*%
X123504000Y-97229500D02*
X123504000Y-97279500D01*
X123504000Y-97229500D02*
X127654000Y-97229500D01*
X123504000Y-97279500D02*
X122104000Y-97279500D01*
X123504000Y-102379500D02*
X123504000Y-102234500D01*
X123504000Y-102379500D02*
X127654000Y-102379500D01*
X127654000Y-97229500D02*
X127654000Y-97374500D01*
X127654000Y-102379500D02*
X127654000Y-102234500D01*
D13*
%TO.C,D21*%
X177184000Y-126276000D02*
X178884000Y-126276000D01*
X177184000Y-126276000D02*
X177184000Y-123616000D01*
X178884000Y-126276000D02*
X178884000Y-123616000D01*
%TO.C,C11*%
X193630500Y-118761500D02*
X193630500Y-117974000D01*
X193236750Y-118367750D02*
X194024250Y-118367750D01*
X193132437Y-117734000D02*
X194418000Y-117734000D01*
X193132437Y-117734000D02*
X192068000Y-116669563D01*
X197823563Y-117734000D02*
X196538000Y-117734000D01*
X197823563Y-117734000D02*
X198888000Y-116669563D01*
X192068000Y-116669563D02*
X192068000Y-110914000D01*
X198888000Y-116669563D02*
X198888000Y-110914000D01*
X192068000Y-110914000D02*
X194418000Y-110914000D01*
X198888000Y-110914000D02*
X196538000Y-110914000D01*
%TO.C,C2*%
X203493420Y-94360000D02*
X203774580Y-94360000D01*
X203493420Y-95380000D02*
X203774580Y-95380000D01*
%TO.C,J7*%
X161858000Y-122124000D02*
X161858000Y-123454000D01*
X160528000Y-122124000D02*
X161858000Y-122124000D01*
X159258000Y-122124000D02*
X151578000Y-122124000D01*
X159258000Y-122124000D02*
X159258000Y-124784000D01*
X151578000Y-122124000D02*
X151578000Y-124784000D01*
X159258000Y-124784000D02*
X151578000Y-124784000D01*
%TO.C,R39*%
X174385000Y-120872742D02*
X174385000Y-121347258D01*
X173340000Y-120872742D02*
X173340000Y-121347258D01*
%TO.C,R63*%
X171542758Y-115755000D02*
X171068242Y-115755000D01*
X171542758Y-114710000D02*
X171068242Y-114710000D01*
%TO.C,R4*%
X171542758Y-114231000D02*
X171068242Y-114231000D01*
X171542758Y-113186000D02*
X171068242Y-113186000D01*
%TO.C,D2*%
X190968500Y-102394500D02*
X189268500Y-102394500D01*
X190968500Y-102394500D02*
X190968500Y-105054500D01*
X189268500Y-102394500D02*
X189268500Y-105054500D01*
%TO.C,R19*%
X185445500Y-92261258D02*
X185445500Y-91786742D01*
X186490500Y-92261258D02*
X186490500Y-91786742D01*
%TO.C,D13*%
X131599000Y-121772500D02*
X133069000Y-121772500D01*
X133069000Y-121772500D02*
X133069000Y-119487500D01*
X131599000Y-119487500D02*
X131599000Y-121772500D01*
%TO.C,R40*%
X165915258Y-124546500D02*
X165440742Y-124546500D01*
X165915258Y-123501500D02*
X165440742Y-123501500D01*
%TO.C,C1*%
X200771500Y-91917500D02*
X199984000Y-91917500D01*
X200377750Y-92311250D02*
X200377750Y-91523750D01*
X199744000Y-92415563D02*
X199744000Y-91130000D01*
X199744000Y-92415563D02*
X198679563Y-93480000D01*
X199744000Y-87724437D02*
X199744000Y-89010000D01*
X199744000Y-87724437D02*
X198679563Y-86660000D01*
X198679563Y-93480000D02*
X192924000Y-93480000D01*
X198679563Y-86660000D02*
X192924000Y-86660000D01*
X192924000Y-93480000D02*
X192924000Y-91130000D01*
X192924000Y-86660000D02*
X192924000Y-89010000D01*
%TO.C,Q2*%
X123089500Y-84928000D02*
X123089500Y-86603000D01*
X123089500Y-84928000D02*
X123089500Y-84278000D01*
X126209500Y-84928000D02*
X126209500Y-85578000D01*
X126209500Y-84928000D02*
X126209500Y-84278000D01*
%TO.C,R21*%
X149246258Y-96163500D02*
X148771742Y-96163500D01*
X149246258Y-95118500D02*
X148771742Y-95118500D01*
%TO.C,R10*%
X183500000Y-107729758D02*
X183500000Y-107255242D01*
X184545000Y-107729758D02*
X184545000Y-107255242D01*
%TO.C,R25*%
X152446258Y-96163500D02*
X151971742Y-96163500D01*
X152446258Y-95118500D02*
X151971742Y-95118500D01*
%TO.C,D5*%
X184794500Y-102594500D02*
X183094500Y-102594500D01*
X184794500Y-102594500D02*
X184794500Y-105254500D01*
X183094500Y-102594500D02*
X183094500Y-105254500D01*
%TO.C,R64*%
X167115258Y-116346500D02*
X166640742Y-116346500D01*
X167115258Y-115301500D02*
X166640742Y-115301500D01*
%TO.C,R17*%
X161355500Y-98301258D02*
X161355500Y-97826742D01*
X162400500Y-98301258D02*
X162400500Y-97826742D01*
%TO.C,R23*%
X175118000Y-107851258D02*
X175118000Y-107376742D01*
X176163000Y-107851258D02*
X176163000Y-107376742D01*
%TO.C,F10*%
X188962500Y-120885422D02*
X188962500Y-121402578D01*
X187542500Y-120885422D02*
X187542500Y-121402578D01*
%TO.C,R31*%
X169022000Y-107929758D02*
X169022000Y-107455242D01*
X170067000Y-107929758D02*
X170067000Y-107455242D01*
%TO.C,R1*%
X189622000Y-107729758D02*
X189622000Y-107255242D01*
X190667000Y-107729758D02*
X190667000Y-107255242D01*
%TO.C,R8*%
X187878758Y-113994000D02*
X187404242Y-113994000D01*
X187878758Y-112949000D02*
X187404242Y-112949000D01*
%TO.C,F2*%
X139274000Y-83370000D02*
X164274000Y-83370000D01*
X139274000Y-93170000D02*
X139274000Y-83370000D01*
X164274000Y-83370000D02*
X164274000Y-93170000D01*
X164274000Y-93170000D02*
X139274000Y-93170000D01*
%TO.C,R55*%
X186718500Y-120906742D02*
X186718500Y-121381258D01*
X185673500Y-120906742D02*
X185673500Y-121381258D01*
%TO.C,R44*%
X130327500Y-115797758D02*
X130327500Y-115323242D01*
X131372500Y-115797758D02*
X131372500Y-115323242D01*
%TO.C,R38*%
X172353000Y-120906742D02*
X172353000Y-121381258D01*
X171308000Y-120906742D02*
X171308000Y-121381258D01*
%TO.C,C12*%
X158788000Y-97883420D02*
X158788000Y-98164580D01*
X157768000Y-97883420D02*
X157768000Y-98164580D01*
D10*
%TO.C,U1*%
X205009000Y-97395000D02*
X204959000Y-97395000D01*
X205009000Y-97395000D02*
X205009000Y-101545000D01*
X204959000Y-97395000D02*
X204959000Y-95995000D01*
X199859000Y-97395000D02*
X200004000Y-97395000D01*
X199859000Y-97395000D02*
X199859000Y-101545000D01*
X205009000Y-101545000D02*
X204864000Y-101545000D01*
X199859000Y-101545000D02*
X200004000Y-101545000D01*
D13*
%TO.C,R28*%
X167161758Y-108643000D02*
X166687242Y-108643000D01*
X167161758Y-107598000D02*
X166687242Y-107598000D01*
%TO.C,R15*%
X167161758Y-111691000D02*
X166687242Y-111691000D01*
X167161758Y-110646000D02*
X166687242Y-110646000D01*
%TO.C,R52*%
X130327500Y-101261258D02*
X130327500Y-100786742D01*
X131372500Y-101261258D02*
X131372500Y-100786742D01*
%TO.C,F4*%
X179234500Y-107872578D02*
X179234500Y-107355422D01*
X180654500Y-107872578D02*
X180654500Y-107355422D01*
%TO.C,D29*%
X131585000Y-102834500D02*
X130115000Y-102834500D01*
X130115000Y-102834500D02*
X130115000Y-105119500D01*
X131585000Y-105119500D02*
X131585000Y-102834500D01*
%TO.C,G\u002A\u002A\u002A*%
G36*
X209593241Y-120217024D02*
G01*
X209677132Y-120220235D01*
X209735953Y-120225237D01*
X209746782Y-120227040D01*
X209800037Y-120247662D01*
X209860888Y-120284228D01*
X209916634Y-120327273D01*
X209954575Y-120367331D01*
X209963739Y-120388734D01*
X209981397Y-120420275D01*
X209996669Y-120429346D01*
X210021083Y-120458495D01*
X210029935Y-120503043D01*
X210036694Y-120559368D01*
X210049115Y-120593841D01*
X210055348Y-120641081D01*
X210036043Y-120723220D01*
X210014433Y-120783637D01*
X209956030Y-120880957D01*
X209863129Y-120961920D01*
X209812488Y-120992054D01*
X209760281Y-121010705D01*
X209692598Y-121021194D01*
X209595533Y-121026845D01*
X209590532Y-121027028D01*
X209499176Y-121028743D01*
X209420683Y-121027359D01*
X209368524Y-121023199D01*
X209360022Y-121021458D01*
X209238035Y-120967286D01*
X209138977Y-120883587D01*
X209069206Y-120778060D01*
X209049528Y-120709064D01*
X209865092Y-120709064D01*
X209871991Y-120749902D01*
X209895202Y-120772198D01*
X209899809Y-120772660D01*
X209919197Y-120754152D01*
X209931835Y-120721504D01*
X209939541Y-120661559D01*
X209938531Y-120591848D01*
X209930337Y-120527240D01*
X209916491Y-120482603D01*
X209906072Y-120471580D01*
X209878481Y-120479168D01*
X209866224Y-120515314D01*
X209872445Y-120566399D01*
X209879742Y-120585667D01*
X209893227Y-120636627D01*
X209878774Y-120670438D01*
X209865092Y-120709064D01*
X209049528Y-120709064D01*
X209035079Y-120658401D01*
X209032816Y-120625337D01*
X209039986Y-120566290D01*
X209060204Y-120495281D01*
X209088215Y-120424881D01*
X209108753Y-120386407D01*
X209794625Y-120386407D01*
X209810066Y-120399454D01*
X209845095Y-120419199D01*
X209849762Y-120411762D01*
X209842996Y-120399454D01*
X209810935Y-120378581D01*
X209803282Y-120377837D01*
X209794625Y-120386407D01*
X209108753Y-120386407D01*
X209118759Y-120367662D01*
X209146581Y-120336196D01*
X209154811Y-120333594D01*
X209179728Y-120320671D01*
X209223379Y-120288402D01*
X209239042Y-120275541D01*
X209276981Y-120247015D01*
X209315745Y-120229590D01*
X209367576Y-120220470D01*
X209444712Y-120216859D01*
X209498678Y-120216232D01*
X209593241Y-120217024D01*
G37*
G36*
X210976309Y-120525070D02*
G01*
X211071274Y-120564823D01*
X211151866Y-120605084D01*
X211335822Y-120700948D01*
X211450412Y-120906943D01*
X211513337Y-121025565D01*
X211550694Y-121114399D01*
X211561751Y-121179866D01*
X211545773Y-121228386D01*
X211502026Y-121266380D01*
X211429777Y-121300271D01*
X211404345Y-121309897D01*
X211297242Y-121349236D01*
X211310233Y-121472573D01*
X211320876Y-121552812D01*
X211337611Y-121654753D01*
X211358695Y-121770035D01*
X211382384Y-121890298D01*
X211406935Y-122007180D01*
X211430606Y-122112321D01*
X211451652Y-122197361D01*
X211468330Y-122253939D01*
X211477108Y-122272858D01*
X211511950Y-122283918D01*
X211578541Y-122275272D01*
X211605801Y-122268745D01*
X211675194Y-122255550D01*
X211731386Y-122252797D01*
X211748689Y-122255918D01*
X211778309Y-122289680D01*
X211783981Y-122356740D01*
X211765887Y-122453718D01*
X211732494Y-122555726D01*
X211697572Y-122655366D01*
X211663467Y-122763673D01*
X211644386Y-122831574D01*
X211629084Y-122893679D01*
X211621947Y-122941765D01*
X211624161Y-122988337D01*
X211636909Y-123045897D01*
X211661379Y-123126948D01*
X211677041Y-123176013D01*
X211723249Y-123303442D01*
X211770495Y-123402993D01*
X211809056Y-123459998D01*
X211859193Y-123536924D01*
X211871006Y-123606604D01*
X211844114Y-123663749D01*
X211824887Y-123680231D01*
X211750029Y-123711466D01*
X211674378Y-123699438D01*
X211621737Y-123666988D01*
X211587697Y-123636640D01*
X211571634Y-123605418D01*
X211569494Y-123558322D01*
X211575459Y-123495791D01*
X211577859Y-123376363D01*
X211554599Y-123274281D01*
X211512900Y-123154015D01*
X211486469Y-123062396D01*
X211474857Y-122987070D01*
X211477618Y-122915686D01*
X211494304Y-122835891D01*
X211524468Y-122735334D01*
X211534009Y-122705672D01*
X211564452Y-122610298D01*
X211589115Y-122530741D01*
X211605258Y-122475996D01*
X211610238Y-122455491D01*
X211592048Y-122443274D01*
X211571895Y-122441113D01*
X211528761Y-122448260D01*
X211459395Y-122466907D01*
X211376247Y-122492866D01*
X211291768Y-122521947D01*
X211218409Y-122549961D01*
X211168620Y-122572720D01*
X211156332Y-122580936D01*
X211140201Y-122610274D01*
X211114431Y-122672870D01*
X211082347Y-122760035D01*
X211047276Y-122863078D01*
X211041077Y-122882103D01*
X211003969Y-122999234D01*
X210978836Y-123088912D01*
X210963358Y-123165198D01*
X210955216Y-123242155D01*
X210952089Y-123333843D01*
X210951639Y-123424152D01*
X210953386Y-123534442D01*
X210958225Y-123622931D01*
X210965555Y-123681952D01*
X210973592Y-123703430D01*
X210990307Y-123735344D01*
X210994851Y-123789519D01*
X210987702Y-123846168D01*
X210969337Y-123885506D01*
X210969201Y-123885642D01*
X210923010Y-123906343D01*
X210855226Y-123910672D01*
X210784734Y-123899265D01*
X210736990Y-123877811D01*
X210696459Y-123825626D01*
X210688080Y-123757736D01*
X210711486Y-123687941D01*
X210743082Y-123648546D01*
X210768526Y-123621556D01*
X210784607Y-123591663D01*
X210793455Y-123548583D01*
X210797198Y-123482032D01*
X210797965Y-123383378D01*
X210799161Y-123294726D01*
X210804206Y-123219967D01*
X210815284Y-123147669D01*
X210834580Y-123066397D01*
X210864280Y-122964721D01*
X210898976Y-122854837D01*
X210936970Y-122740990D01*
X210973544Y-122639642D01*
X211005392Y-122559390D01*
X211029204Y-122508828D01*
X211036184Y-122498315D01*
X211076420Y-122466022D01*
X211140396Y-122428243D01*
X211185619Y-122406183D01*
X211250098Y-122374864D01*
X211296809Y-122347475D01*
X211311891Y-122334546D01*
X211311052Y-122308939D01*
X211302823Y-122248175D01*
X211288678Y-122160099D01*
X211270086Y-122052557D01*
X211248520Y-121933397D01*
X211225450Y-121810463D01*
X211202349Y-121691601D01*
X211180687Y-121584659D01*
X211161936Y-121497481D01*
X211147568Y-121437913D01*
X211139248Y-121413972D01*
X211115033Y-121414325D01*
X211060298Y-121423977D01*
X210987441Y-121440709D01*
X210918657Y-121456768D01*
X210863579Y-121464468D01*
X210808329Y-121463481D01*
X210739029Y-121453479D01*
X210641800Y-121434135D01*
X210633208Y-121432344D01*
X210534935Y-121408760D01*
X210447101Y-121382208D01*
X210382729Y-121356866D01*
X210362868Y-121345567D01*
X210294537Y-121290105D01*
X210224728Y-121223626D01*
X210160930Y-121154598D01*
X210110633Y-121091486D01*
X210081325Y-121042757D01*
X210077126Y-121022538D01*
X210096947Y-120982218D01*
X210134997Y-120977646D01*
X210192674Y-121009351D01*
X210271379Y-121077857D01*
X210299907Y-121106284D01*
X210363557Y-121170066D01*
X210412838Y-121212760D01*
X210460650Y-121241268D01*
X210519892Y-121262490D01*
X210603462Y-121283330D01*
X210650863Y-121294066D01*
X210749704Y-121315713D01*
X210817595Y-121327679D01*
X210866324Y-121330351D01*
X210907677Y-121324115D01*
X210953442Y-121309356D01*
X210966838Y-121304423D01*
X211027823Y-121277331D01*
X211068870Y-121250767D01*
X211077731Y-121239586D01*
X211068218Y-121210057D01*
X211033883Y-121165516D01*
X211009284Y-121140805D01*
X210928046Y-121039449D01*
X210888776Y-120925524D01*
X210888994Y-120916447D01*
X211149219Y-120916447D01*
X211157330Y-121026613D01*
X211179810Y-121115801D01*
X211213871Y-121175646D01*
X211242058Y-121195257D01*
X211297798Y-121197747D01*
X211351221Y-121176437D01*
X211383852Y-121139707D01*
X211386506Y-121129738D01*
X211380233Y-121076647D01*
X211353855Y-121006366D01*
X211314036Y-120929944D01*
X211267437Y-120858429D01*
X211220721Y-120802870D01*
X211180551Y-120774313D01*
X211171172Y-120772660D01*
X211159721Y-120792837D01*
X211151874Y-120846354D01*
X211149219Y-120916447D01*
X210888994Y-120916447D01*
X210891787Y-120800341D01*
X210911050Y-120728673D01*
X210925063Y-120676096D01*
X210917490Y-120645676D01*
X210900073Y-120629675D01*
X210870093Y-120587102D01*
X210863825Y-120556195D01*
X210875389Y-120521232D01*
X210911949Y-120510699D01*
X210976309Y-120525070D01*
G37*
G36*
X201909752Y-121060883D02*
G01*
X202093471Y-121062115D01*
X202300938Y-121064010D01*
X202469333Y-121065899D01*
X202603486Y-121068091D01*
X202708232Y-121070896D01*
X202788401Y-121074620D01*
X202848828Y-121079574D01*
X202894343Y-121086065D01*
X202929780Y-121094403D01*
X202959972Y-121104896D01*
X202989749Y-121117852D01*
X202993557Y-121119602D01*
X203121799Y-121195136D01*
X203218769Y-121287133D01*
X203259236Y-121348385D01*
X203288991Y-121437640D01*
X203303108Y-121551499D01*
X203300712Y-121673216D01*
X203281902Y-121782513D01*
X203266608Y-121850833D01*
X203261274Y-121901447D01*
X203264815Y-121919403D01*
X203292138Y-121922912D01*
X203351468Y-121918335D01*
X203431860Y-121906692D01*
X203465234Y-121900708D01*
X203600728Y-121882839D01*
X203754513Y-121874954D01*
X203913139Y-121876679D01*
X204063158Y-121887641D01*
X204191122Y-121907465D01*
X204248699Y-121922478D01*
X204332141Y-121956260D01*
X204424821Y-122004086D01*
X204479022Y-122037409D01*
X204595776Y-122115979D01*
X204650603Y-122042548D01*
X204784915Y-121884280D01*
X204949874Y-121724221D01*
X205133755Y-121572096D01*
X205324836Y-121437629D01*
X205505379Y-121333564D01*
X205589548Y-121296523D01*
X205703275Y-121253929D01*
X205833335Y-121210109D01*
X205966504Y-121169388D01*
X206089559Y-121136093D01*
X206154837Y-121121105D01*
X206228064Y-121110428D01*
X206327864Y-121102142D01*
X206445997Y-121096265D01*
X206574226Y-121092820D01*
X206704314Y-121091826D01*
X206828021Y-121093304D01*
X206937111Y-121097275D01*
X207023345Y-121103758D01*
X207078485Y-121112774D01*
X207092522Y-121118777D01*
X207115399Y-121156609D01*
X207133201Y-121218896D01*
X207137346Y-121246093D01*
X207146412Y-121308176D01*
X207156302Y-121349569D01*
X207160124Y-121357176D01*
X207184270Y-121354552D01*
X207237551Y-121337055D01*
X207309268Y-121308285D01*
X207322670Y-121302468D01*
X207562146Y-121211754D01*
X207727837Y-121165831D01*
X208591656Y-121165831D01*
X208599405Y-121380871D01*
X208605666Y-121485635D01*
X208615416Y-121563151D01*
X208627645Y-121606338D01*
X208632335Y-121612039D01*
X208689291Y-121628439D01*
X208745849Y-121615615D01*
X208778371Y-121584724D01*
X208788823Y-121542316D01*
X208795106Y-121469693D01*
X208796182Y-121380437D01*
X208795609Y-121359702D01*
X208789236Y-121178797D01*
X208690446Y-121172314D01*
X208591656Y-121165831D01*
X207727837Y-121165831D01*
X207816782Y-121141179D01*
X208075208Y-121092744D01*
X208326054Y-121068450D01*
X208557951Y-121070299D01*
X208613476Y-121075280D01*
X208715442Y-121087379D01*
X208783558Y-121099116D01*
X208827746Y-121113612D01*
X208857925Y-121133989D01*
X208880897Y-121159420D01*
X208928918Y-121219644D01*
X209078610Y-121183518D01*
X209174190Y-121166766D01*
X209297025Y-121154184D01*
X209433328Y-121146278D01*
X209569311Y-121143555D01*
X209691185Y-121146520D01*
X209785163Y-121155680D01*
X209794138Y-121157262D01*
X209871950Y-121185033D01*
X209919943Y-121235048D01*
X209938550Y-121309965D01*
X209928204Y-121412441D01*
X209889341Y-121545135D01*
X209867134Y-121604165D01*
X209831139Y-121695391D01*
X209784387Y-121813792D01*
X209732270Y-121945716D01*
X209680181Y-122077509D01*
X209666619Y-122111813D01*
X209563271Y-122382455D01*
X209470145Y-122644896D01*
X209388996Y-122893377D01*
X209321582Y-123122138D01*
X209269659Y-123325421D01*
X209234983Y-123497465D01*
X209226513Y-123554862D01*
X209214568Y-123627500D01*
X209194956Y-123673611D01*
X209157532Y-123704150D01*
X209092154Y-123730074D01*
X209052676Y-123742606D01*
X208895922Y-123780389D01*
X208729039Y-123802032D01*
X208563686Y-123807357D01*
X208411522Y-123796186D01*
X208284204Y-123768341D01*
X208248237Y-123754868D01*
X208182708Y-123728653D01*
X208138449Y-123720079D01*
X208097032Y-123728031D01*
X208058572Y-123743386D01*
X207981503Y-123773749D01*
X207905632Y-123796574D01*
X207822046Y-123813218D01*
X207721833Y-123825041D01*
X207596081Y-123833401D01*
X207435878Y-123839657D01*
X207424912Y-123839997D01*
X207224050Y-123842871D01*
X207056877Y-123837037D01*
X206913793Y-123821146D01*
X206785200Y-123793845D01*
X206661502Y-123753782D01*
X206581375Y-123721213D01*
X206549648Y-123707453D01*
X207861058Y-123707453D01*
X207879049Y-123708079D01*
X207894079Y-123704839D01*
X207950910Y-123686207D01*
X208023320Y-123656211D01*
X208053768Y-123641947D01*
X208156317Y-123571335D01*
X208162309Y-123563048D01*
X209064295Y-123563048D01*
X209068282Y-123622626D01*
X209082611Y-123648108D01*
X209085606Y-123648546D01*
X209115795Y-123634370D01*
X209152188Y-123603918D01*
X209178164Y-123568493D01*
X209191169Y-123520115D01*
X209194373Y-123445069D01*
X209194060Y-123422803D01*
X209200677Y-123316109D01*
X209222274Y-123180456D01*
X209256113Y-123027057D01*
X209299456Y-122867126D01*
X209349564Y-122711875D01*
X209399044Y-122583386D01*
X209431902Y-122501398D01*
X209471546Y-122395834D01*
X209511214Y-122284882D01*
X209525559Y-122243109D01*
X209564612Y-122133082D01*
X209607928Y-122019361D01*
X209648113Y-121921131D01*
X209660831Y-121892280D01*
X209744118Y-121695898D01*
X209800664Y-121532463D01*
X209830391Y-121402357D01*
X209833218Y-121305958D01*
X209809064Y-121243649D01*
X209799089Y-121233680D01*
X209773811Y-121218830D01*
X209763551Y-121234810D01*
X209764618Y-121287727D01*
X209764819Y-121290385D01*
X209759203Y-121336796D01*
X209740178Y-121414307D01*
X209710874Y-121513346D01*
X209674422Y-121624341D01*
X209633950Y-121737719D01*
X209592587Y-121843906D01*
X209557301Y-121925168D01*
X209522540Y-122005222D01*
X209479037Y-122113421D01*
X209432051Y-122236295D01*
X209386839Y-122360374D01*
X209381590Y-122375253D01*
X209339105Y-122494585D01*
X209296762Y-122610739D01*
X209259016Y-122711671D01*
X209230320Y-122785340D01*
X209226401Y-122794916D01*
X209191181Y-122891966D01*
X209158006Y-123005219D01*
X209128062Y-123127491D01*
X209102533Y-123251596D01*
X209082606Y-123370347D01*
X209069465Y-123476559D01*
X209064295Y-123563048D01*
X208162309Y-123563048D01*
X208222915Y-123479236D01*
X208250715Y-123369871D01*
X208251379Y-123348930D01*
X208249272Y-123289464D01*
X208237455Y-123261783D01*
X208207686Y-123253786D01*
X208186292Y-123253386D01*
X208123720Y-123270531D01*
X208087060Y-123322444D01*
X208075753Y-123404635D01*
X208067187Y-123450020D01*
X208037636Y-123501167D01*
X207981316Y-123567161D01*
X207954451Y-123595201D01*
X207895847Y-123656302D01*
X207865687Y-123691957D01*
X207861058Y-123707453D01*
X206549648Y-123707453D01*
X206456342Y-123666987D01*
X206371449Y-123710228D01*
X206269528Y-123756326D01*
X206164438Y-123790337D01*
X206046152Y-123814263D01*
X205904644Y-123830110D01*
X205729886Y-123839881D01*
X205721108Y-123840209D01*
X205442646Y-123840222D01*
X205199927Y-123817892D01*
X204990417Y-123772390D01*
X204811587Y-123702891D01*
X204679194Y-123620014D01*
X206318045Y-123620014D01*
X206341362Y-123616920D01*
X206385347Y-123593663D01*
X206443000Y-123569690D01*
X206486937Y-123561511D01*
X206533420Y-123550305D01*
X206565157Y-123514131D01*
X206585751Y-123446405D01*
X206597084Y-123360193D01*
X206602312Y-123278359D01*
X206597707Y-123225284D01*
X206580992Y-123186475D01*
X206566730Y-123167087D01*
X206532719Y-123132065D01*
X206499834Y-123126530D01*
X206455820Y-123141709D01*
X206418749Y-123159421D01*
X206398913Y-123181637D01*
X206391451Y-123220769D01*
X206391501Y-123289227D01*
X206391911Y-123304845D01*
X206386998Y-123414341D01*
X206362798Y-123503537D01*
X206349311Y-123533291D01*
X206321557Y-123593583D01*
X206318045Y-123620014D01*
X204679194Y-123620014D01*
X204660906Y-123608566D01*
X204535841Y-123488590D01*
X204497702Y-123440452D01*
X204449600Y-123379640D01*
X204409128Y-123336138D01*
X204384952Y-123319250D01*
X204384779Y-123319246D01*
X204359140Y-123333236D01*
X204310289Y-123370667D01*
X204246838Y-123424734D01*
X204215333Y-123453122D01*
X204074111Y-123563156D01*
X203904591Y-123664416D01*
X203722376Y-123748748D01*
X203543070Y-123807998D01*
X203530011Y-123811243D01*
X203436896Y-123826732D01*
X203313869Y-123837428D01*
X203174688Y-123843107D01*
X203033109Y-123843543D01*
X202902890Y-123838513D01*
X202797788Y-123827790D01*
X202774024Y-123823594D01*
X202702081Y-123806637D01*
X202639132Y-123787940D01*
X202631327Y-123785117D01*
X202577356Y-123776665D01*
X202485985Y-123776533D01*
X202362920Y-123784698D01*
X202345934Y-123786269D01*
X202191269Y-123796816D01*
X202072673Y-123792731D01*
X201983682Y-123770280D01*
X201917832Y-123725729D01*
X201868659Y-123655344D01*
X201829699Y-123555391D01*
X201807390Y-123475165D01*
X201746950Y-123248869D01*
X201691020Y-123065023D01*
X201639171Y-122922451D01*
X201590974Y-122819976D01*
X201545999Y-122756421D01*
X201544779Y-122755187D01*
X201488409Y-122708907D01*
X201445487Y-122693831D01*
X201438153Y-122695355D01*
X201420767Y-122709658D01*
X201399667Y-122742933D01*
X201373181Y-122799248D01*
X201339636Y-122882672D01*
X201297360Y-122997273D01*
X201244680Y-123147119D01*
X201205091Y-123262348D01*
X201154469Y-123404971D01*
X201110865Y-123512274D01*
X201070073Y-123591383D01*
X201027885Y-123649427D01*
X200980092Y-123693533D01*
X200931594Y-123725577D01*
X200886773Y-123749580D01*
X200843057Y-123765351D01*
X200789726Y-123774587D01*
X200716058Y-123778986D01*
X200611333Y-123780242D01*
X200586078Y-123780266D01*
X200476591Y-123779704D01*
X200401943Y-123776963D01*
X200353069Y-123770458D01*
X200320903Y-123758605D01*
X200296382Y-123739821D01*
X200284349Y-123727541D01*
X200270942Y-123706146D01*
X200667951Y-123706146D01*
X200677450Y-123711333D01*
X200699435Y-123706883D01*
X200764842Y-123696129D01*
X200818062Y-123692753D01*
X200871937Y-123679854D01*
X200930192Y-123637474D01*
X200966247Y-123600987D01*
X201012673Y-123545794D01*
X201043343Y-123499931D01*
X201050688Y-123479946D01*
X201060087Y-123435687D01*
X201069752Y-123412250D01*
X201087819Y-123369973D01*
X201112711Y-123304510D01*
X201127052Y-123264363D01*
X201189242Y-123086740D01*
X201239126Y-122946502D01*
X201278308Y-122839391D01*
X201308390Y-122761146D01*
X201330976Y-122707509D01*
X201347670Y-122674219D01*
X201351675Y-122667707D01*
X201370951Y-122630338D01*
X201360059Y-122608779D01*
X201342830Y-122598399D01*
X201279132Y-122585425D01*
X201208460Y-122599519D01*
X201154692Y-122635513D01*
X201130140Y-122678283D01*
X201104275Y-122743143D01*
X201095651Y-122770413D01*
X201071251Y-122847271D01*
X201045426Y-122918365D01*
X201038560Y-122935063D01*
X201012818Y-123005736D01*
X200996041Y-123066783D01*
X200978675Y-123128158D01*
X200951858Y-123203995D01*
X200940908Y-123231433D01*
X200907637Y-123315189D01*
X200872722Y-123408352D01*
X200861412Y-123439990D01*
X200808637Y-123543836D01*
X200733736Y-123635235D01*
X200685835Y-123682614D01*
X200667951Y-123706146D01*
X200270942Y-123706146D01*
X200247999Y-123669534D01*
X200225152Y-123598062D01*
X200223992Y-123590332D01*
X200221083Y-123566282D01*
X200219920Y-123543388D01*
X200221810Y-123517156D01*
X200228059Y-123483090D01*
X200239972Y-123436697D01*
X200258855Y-123373482D01*
X200286014Y-123288949D01*
X200322755Y-123178606D01*
X200370384Y-123037955D01*
X200430206Y-122862505D01*
X200465401Y-122759436D01*
X200536345Y-122551793D01*
X202268533Y-122551793D01*
X202271342Y-122580429D01*
X202290721Y-122637943D01*
X202323010Y-122714247D01*
X202342156Y-122754862D01*
X202439140Y-122997128D01*
X202498095Y-123251012D01*
X202511162Y-123352176D01*
X202516374Y-123436183D01*
X202508439Y-123499258D01*
X202483651Y-123563350D01*
X202471289Y-123588175D01*
X202441587Y-123648343D01*
X202431685Y-123679425D01*
X202440462Y-123690937D01*
X202459009Y-123692453D01*
X202498470Y-123678299D01*
X202552636Y-123642283D01*
X202582255Y-123617298D01*
X202600101Y-123600942D01*
X203856757Y-123600942D01*
X203880485Y-123594116D01*
X203931048Y-123569396D01*
X204012599Y-123521653D01*
X204103005Y-123457017D01*
X204209338Y-123370075D01*
X204325095Y-123267740D01*
X204465218Y-123118481D01*
X204573757Y-122955838D01*
X204648313Y-122785806D01*
X204663842Y-122716069D01*
X205135232Y-122716069D01*
X205143433Y-122866490D01*
X205182840Y-122998378D01*
X205234307Y-123082661D01*
X205289894Y-123137583D01*
X205359293Y-123187009D01*
X205427172Y-123221296D01*
X205470747Y-123231351D01*
X205492882Y-123227385D01*
X205489670Y-123209611D01*
X205458915Y-123169423D01*
X205453232Y-123162642D01*
X205378648Y-123060505D01*
X205333929Y-122960504D01*
X205313335Y-122846281D01*
X205310385Y-122760953D01*
X205361534Y-122760953D01*
X205380563Y-122901263D01*
X205432179Y-123021529D01*
X205514403Y-123118027D01*
X205625258Y-123187030D01*
X205762767Y-123224814D01*
X205851549Y-123230951D01*
X205933991Y-123227856D01*
X206006121Y-123219354D01*
X206042228Y-123210560D01*
X206067919Y-123198682D01*
X206083968Y-123180680D01*
X206092584Y-123147360D01*
X206095977Y-123089530D01*
X206096356Y-122997997D01*
X206096309Y-122985539D01*
X206115026Y-122760933D01*
X206864328Y-122760933D01*
X206865326Y-122860659D01*
X206869916Y-122928192D01*
X206880498Y-122975231D01*
X206899468Y-123013471D01*
X206922814Y-123046271D01*
X206999456Y-123137877D01*
X207071301Y-123201343D01*
X207151971Y-123248385D01*
X207164690Y-123254302D01*
X207222329Y-123276087D01*
X207278767Y-123290714D01*
X207323411Y-123296646D01*
X207345672Y-123292347D01*
X207339219Y-123279617D01*
X207309987Y-123256766D01*
X207259962Y-123219235D01*
X207233386Y-123199640D01*
X207155110Y-123120835D01*
X207097812Y-123025225D01*
X207075257Y-122971545D01*
X207061682Y-122924045D01*
X207055934Y-122870711D01*
X207056861Y-122799525D01*
X207059871Y-122752381D01*
X207119913Y-122752381D01*
X207141318Y-122896681D01*
X207205152Y-123031206D01*
X207222139Y-123055865D01*
X207312541Y-123148499D01*
X207424728Y-123205721D01*
X207560164Y-123227811D01*
X207720310Y-123215051D01*
X207868286Y-123179616D01*
X207980501Y-123150534D01*
X208059853Y-123140429D01*
X208103669Y-123145330D01*
X208170947Y-123149735D01*
X208248850Y-123135318D01*
X208313724Y-123107159D01*
X208326329Y-123097507D01*
X208342984Y-123068413D01*
X208370959Y-123003948D01*
X208408010Y-122910500D01*
X208451892Y-122794458D01*
X208500364Y-122662210D01*
X208551180Y-122520143D01*
X208602098Y-122374647D01*
X208650875Y-122232110D01*
X208695266Y-122098920D01*
X208733029Y-121981465D01*
X208761919Y-121886134D01*
X208779693Y-121819314D01*
X208784281Y-121793490D01*
X208789236Y-121727630D01*
X208591656Y-121714187D01*
X208484417Y-121705908D01*
X208376940Y-121695991D01*
X208288884Y-121686284D01*
X208272718Y-121684177D01*
X208097883Y-121682106D01*
X207920223Y-121721811D01*
X207743672Y-121801687D01*
X207572166Y-121920127D01*
X207470860Y-122011462D01*
X207336644Y-122165045D01*
X207235888Y-122330742D01*
X207161858Y-122520481D01*
X207140599Y-122596402D01*
X207119913Y-122752381D01*
X207059871Y-122752381D01*
X207063313Y-122698473D01*
X207064702Y-122679781D01*
X207082273Y-122523586D01*
X207112643Y-122394375D01*
X207161611Y-122276671D01*
X207234975Y-122154999D01*
X207290485Y-122077193D01*
X207402576Y-121944573D01*
X207528403Y-121834701D01*
X207681010Y-121736733D01*
X207735476Y-121707251D01*
X207809374Y-121667933D01*
X207847476Y-121644963D01*
X207853232Y-121635006D01*
X207830095Y-121634729D01*
X207807883Y-121637291D01*
X207750984Y-121651550D01*
X207669518Y-121680584D01*
X207577947Y-121719052D01*
X207544443Y-121734586D01*
X207347857Y-121852230D01*
X207174834Y-122006560D01*
X207027313Y-122194236D01*
X206950734Y-122323860D01*
X206900996Y-122447522D01*
X206873698Y-122580527D01*
X206864437Y-122738183D01*
X206864328Y-122760933D01*
X206115026Y-122760933D01*
X206116862Y-122738900D01*
X206179034Y-122494586D01*
X206280637Y-122257841D01*
X206419480Y-122033908D01*
X206569188Y-121853242D01*
X206629484Y-121783916D01*
X206654927Y-121736382D01*
X206643335Y-121705967D01*
X206639064Y-121704456D01*
X206898388Y-121704456D01*
X206926654Y-121721276D01*
X207003985Y-121719759D01*
X207069762Y-121677473D01*
X207088383Y-121656111D01*
X207120957Y-121593812D01*
X207130288Y-121528841D01*
X207115777Y-121476291D01*
X207096264Y-121457484D01*
X207069413Y-121418916D01*
X207050669Y-121338635D01*
X207046869Y-121308208D01*
X207036683Y-121234229D01*
X207023195Y-121193602D01*
X207001668Y-121175798D01*
X206985609Y-121172048D01*
X206964268Y-121171345D01*
X206950022Y-121181592D01*
X206940883Y-121210403D01*
X206934863Y-121265392D01*
X206929974Y-121354173D01*
X206928297Y-121391582D01*
X206922568Y-121491788D01*
X206915150Y-121579522D01*
X206907173Y-121642898D01*
X206902272Y-121665256D01*
X206898388Y-121704456D01*
X206639064Y-121704456D01*
X206592526Y-121687993D01*
X206500318Y-121677785D01*
X206486896Y-121676894D01*
X206299762Y-121686333D01*
X206115876Y-121736147D01*
X205940123Y-121822834D01*
X205777387Y-121942895D01*
X205632553Y-122092827D01*
X205510505Y-122269128D01*
X205429141Y-122435103D01*
X205377067Y-122604324D01*
X205361534Y-122760953D01*
X205310385Y-122760953D01*
X205310173Y-122754823D01*
X205332111Y-122548456D01*
X205394027Y-122347321D01*
X205492030Y-122158495D01*
X205622231Y-121989054D01*
X205780739Y-121846073D01*
X205828064Y-121812804D01*
X205899510Y-121762918D01*
X205932530Y-121733351D01*
X205927337Y-121723572D01*
X205884146Y-121733051D01*
X205856538Y-121742026D01*
X205729963Y-121801380D01*
X205597319Y-121891219D01*
X205470118Y-122001793D01*
X205359871Y-122123355D01*
X205293394Y-122218955D01*
X205210659Y-122385765D01*
X205157790Y-122553648D01*
X205135232Y-122716069D01*
X204663842Y-122716069D01*
X204686485Y-122614380D01*
X204685875Y-122447556D01*
X204675978Y-122391022D01*
X204659450Y-122328700D01*
X204637141Y-122280672D01*
X204600701Y-122235196D01*
X204541776Y-122180529D01*
X204502477Y-122147091D01*
X204409725Y-122073570D01*
X204345394Y-122032899D01*
X204309036Y-122024846D01*
X204299780Y-122042551D01*
X204314493Y-122069396D01*
X204346023Y-122102922D01*
X204420598Y-122198588D01*
X204469121Y-122322310D01*
X204491308Y-122466598D01*
X204486875Y-122623958D01*
X204455538Y-122786899D01*
X204397013Y-122947929D01*
X204379405Y-122984444D01*
X204289133Y-123134490D01*
X204172023Y-123287507D01*
X204040869Y-123427565D01*
X203977924Y-123484459D01*
X203904443Y-123547987D01*
X203864398Y-123586190D01*
X203856757Y-123600942D01*
X202600101Y-123600942D01*
X202664257Y-123542143D01*
X202659123Y-123374856D01*
X202643345Y-123209250D01*
X202615729Y-123078707D01*
X202917599Y-123078707D01*
X202950091Y-123174375D01*
X202973556Y-123207795D01*
X203020421Y-123251243D01*
X203065326Y-123274243D01*
X203074090Y-123275340D01*
X203102468Y-123269956D01*
X203108238Y-123245522D01*
X203099580Y-123203991D01*
X203089857Y-123141785D01*
X203084303Y-123058049D01*
X203084097Y-123035179D01*
X203114301Y-123035179D01*
X203128085Y-123115433D01*
X203163370Y-123192633D01*
X203211053Y-123247774D01*
X203218579Y-123252886D01*
X203286686Y-123271536D01*
X203374678Y-123262531D01*
X203470558Y-123228411D01*
X203546738Y-123183412D01*
X203670025Y-123071112D01*
X203759803Y-122933541D01*
X203804174Y-122821391D01*
X203827751Y-122697410D01*
X203817848Y-122593515D01*
X203779003Y-122513681D01*
X203715757Y-122461884D01*
X203632648Y-122442099D01*
X203534215Y-122458303D01*
X203441398Y-122503651D01*
X203336744Y-122588388D01*
X203244775Y-122697195D01*
X203172489Y-122818699D01*
X203126882Y-122941532D01*
X203114301Y-123035179D01*
X203084097Y-123035179D01*
X203083785Y-123000585D01*
X203099257Y-122875011D01*
X203143721Y-122755134D01*
X203221477Y-122631041D01*
X203271655Y-122567345D01*
X203317769Y-122505186D01*
X203330687Y-122471083D01*
X203311686Y-122465902D01*
X203262045Y-122490509D01*
X203210109Y-122525659D01*
X203098895Y-122623302D01*
X203011651Y-122734306D01*
X202950764Y-122851794D01*
X202918618Y-122968887D01*
X202917599Y-123078707D01*
X202615729Y-123078707D01*
X202608353Y-123043840D01*
X202557739Y-122889848D01*
X202495099Y-122758493D01*
X202433849Y-122671623D01*
X202397435Y-122618083D01*
X202379908Y-122578322D01*
X202351957Y-122540973D01*
X202310005Y-122528623D01*
X202272912Y-122545764D01*
X202268533Y-122551793D01*
X200536345Y-122551793D01*
X200559989Y-122482589D01*
X200583728Y-122413210D01*
X202631327Y-122413210D01*
X202647263Y-122414677D01*
X202689195Y-122395079D01*
X202748313Y-122360113D01*
X202815806Y-122315478D01*
X202882865Y-122266871D01*
X202940677Y-122219989D01*
X202964745Y-122197600D01*
X203068160Y-122071174D01*
X203147299Y-121927356D01*
X203199744Y-121775092D01*
X203223078Y-121623329D01*
X203214884Y-121481013D01*
X203185031Y-121382274D01*
X203136015Y-121300324D01*
X203064520Y-121238270D01*
X203038691Y-121222262D01*
X202968417Y-121185630D01*
X202930704Y-121176686D01*
X202926278Y-121195107D01*
X202955861Y-121240572D01*
X202966986Y-121254149D01*
X203023752Y-121339839D01*
X203056607Y-121438501D01*
X203068154Y-121560632D01*
X203065784Y-121652256D01*
X203037662Y-121828687D01*
X202972846Y-121993693D01*
X202868716Y-122152701D01*
X202770149Y-122264244D01*
X202709031Y-122327571D01*
X202661639Y-122377984D01*
X202634850Y-122408104D01*
X202631327Y-122413210D01*
X200583728Y-122413210D01*
X200641529Y-122244283D01*
X200685479Y-122116127D01*
X201379988Y-122116127D01*
X201393109Y-122146031D01*
X201438259Y-122155664D01*
X201444030Y-122155720D01*
X201470796Y-122154036D01*
X201491833Y-122144513D01*
X201510972Y-122120447D01*
X201527563Y-122084771D01*
X201624310Y-122084771D01*
X201627806Y-122120331D01*
X201644142Y-122138949D01*
X201648916Y-122141181D01*
X201668589Y-122148609D01*
X201688659Y-122152232D01*
X201719181Y-122151685D01*
X201770206Y-122146602D01*
X201851786Y-122136620D01*
X201883188Y-122132683D01*
X201978066Y-122117701D01*
X202064285Y-122098713D01*
X202126093Y-122079311D01*
X202135075Y-122075231D01*
X202244547Y-122002152D01*
X202322056Y-121912287D01*
X202362799Y-121812106D01*
X202367888Y-121761650D01*
X202353453Y-121700225D01*
X202317781Y-121644684D01*
X202272322Y-121610474D01*
X202252633Y-121606168D01*
X202218211Y-121603049D01*
X202154011Y-121595544D01*
X202073751Y-121585261D01*
X202071518Y-121584963D01*
X201982723Y-121576203D01*
X201901396Y-121573402D01*
X201848447Y-121576782D01*
X201817180Y-121584541D01*
X201793117Y-121600009D01*
X201771529Y-121630857D01*
X201747685Y-121684757D01*
X201716857Y-121769383D01*
X201700262Y-121817168D01*
X201659599Y-121939115D01*
X201634595Y-122026341D01*
X201624310Y-122084771D01*
X201527563Y-122084771D01*
X201532044Y-122075135D01*
X201558878Y-122001871D01*
X201595306Y-121893952D01*
X201597703Y-121886759D01*
X201631470Y-121783402D01*
X201659422Y-121693978D01*
X201678891Y-121627306D01*
X201687211Y-121592203D01*
X201687334Y-121590389D01*
X201669962Y-121569192D01*
X201629844Y-121563938D01*
X201584978Y-121574209D01*
X201557694Y-121593405D01*
X201539613Y-121627735D01*
X201512934Y-121693175D01*
X201481404Y-121778701D01*
X201448772Y-121873286D01*
X201418785Y-121965907D01*
X201395192Y-122045538D01*
X201381741Y-122101154D01*
X201379988Y-122116127D01*
X200685479Y-122116127D01*
X200711079Y-122041479D01*
X200769699Y-121871138D01*
X200818446Y-121730224D01*
X200858379Y-121615696D01*
X200890557Y-121524517D01*
X200916037Y-121453649D01*
X200935877Y-121400053D01*
X200951138Y-121360690D01*
X200960664Y-121337627D01*
X201024050Y-121229158D01*
X201108177Y-121141732D01*
X201202579Y-121085704D01*
X201221979Y-121079116D01*
X201272296Y-121071690D01*
X201366356Y-121066151D01*
X201504034Y-121062502D01*
X201685208Y-121060745D01*
X201909752Y-121060883D01*
G37*
%TO.C,C16*%
X127267580Y-110798000D02*
X126986420Y-110798000D01*
X127267580Y-109778000D02*
X126986420Y-109778000D01*
%TO.C,C18*%
X127280580Y-118545000D02*
X126999420Y-118545000D01*
X127280580Y-117525000D02*
X126999420Y-117525000D01*
%TO.C,R20*%
X201656258Y-119266500D02*
X201181742Y-119266500D01*
X201656258Y-118221500D02*
X201181742Y-118221500D01*
%TO.C,C23*%
X191162420Y-100114000D02*
X191443580Y-100114000D01*
X191162420Y-101134000D02*
X191443580Y-101134000D01*
%TO.C,F6*%
X170762500Y-120885422D02*
X170762500Y-121402578D01*
X169342500Y-120885422D02*
X169342500Y-121402578D01*
%TO.C,F3*%
X185344500Y-107697078D02*
X185344500Y-107179922D01*
X186764500Y-107697078D02*
X186764500Y-107179922D01*
%TO.C,J9*%
X161858000Y-117044000D02*
X161858000Y-118374000D01*
X160528000Y-117044000D02*
X161858000Y-117044000D01*
X159258000Y-117044000D02*
X151578000Y-117044000D01*
X159258000Y-117044000D02*
X159258000Y-119704000D01*
X151578000Y-117044000D02*
X151578000Y-119704000D01*
X159258000Y-119704000D02*
X151578000Y-119704000D01*
D10*
%TO.C,U6*%
X123473000Y-119549000D02*
X123473000Y-119599000D01*
X123473000Y-119549000D02*
X127623000Y-119549000D01*
X123473000Y-119599000D02*
X122073000Y-119599000D01*
X123473000Y-124699000D02*
X123473000Y-124554000D01*
X123473000Y-124699000D02*
X127623000Y-124699000D01*
X127623000Y-119549000D02*
X127623000Y-119694000D01*
X127623000Y-124699000D02*
X127623000Y-124554000D01*
D13*
%TO.C,R41*%
X169115258Y-124546500D02*
X168640742Y-124546500D01*
X169115258Y-123501500D02*
X168640742Y-123501500D01*
%TO.C,R48*%
X124410000Y-88246742D02*
X124410000Y-88721258D01*
X123365000Y-88246742D02*
X123365000Y-88721258D01*
%TO.C,C8*%
X178270000Y-84118080D02*
X178270000Y-83836920D01*
X179290000Y-84118080D02*
X179290000Y-83836920D01*
%TD*%
%LPC*%
D14*
%TO.C,U2*%
X209348000Y-116279000D03*
D15*
X203048000Y-113999000D03*
D14*
X209348000Y-111719000D03*
%TD*%
D16*
%TO.C,C7*%
X201834000Y-104295000D03*
X201834000Y-105845000D03*
%TD*%
D17*
%TO.C,C19*%
X168103000Y-125624000D03*
X169653000Y-125624000D03*
%TD*%
D18*
%TO.C,D11*%
X169544500Y-103154500D03*
X169544500Y-105254500D03*
%TD*%
D19*
%TO.C,R59*%
X130850000Y-108281000D03*
X130850000Y-106631000D03*
%TD*%
D20*
%TO.C,L1*%
X207634000Y-100970000D03*
X207634000Y-97970000D03*
%TD*%
D21*
%TO.C,C4*%
X208746500Y-86470000D03*
X202521500Y-86470000D03*
%TD*%
D22*
%TO.C,U5*%
X184549500Y-111371000D03*
X183899500Y-111371000D03*
X183249500Y-111371000D03*
X182599500Y-111371000D03*
X181949500Y-111371000D03*
X181299500Y-111371000D03*
X180649500Y-111371000D03*
X179999500Y-111371000D03*
X179349500Y-111371000D03*
X178699500Y-111371000D03*
X178049500Y-111371000D03*
X177399500Y-111371000D03*
X177399500Y-117096000D03*
X178049500Y-117096000D03*
X178699500Y-117096000D03*
X179349500Y-117096000D03*
X179999500Y-117096000D03*
X180649500Y-117096000D03*
X181299500Y-117096000D03*
X181949500Y-117096000D03*
X182599500Y-117096000D03*
X183249500Y-117096000D03*
X183899500Y-117096000D03*
X184549500Y-117096000D03*
%TD*%
D23*
%TO.C,J13*%
X135128000Y-105674000D03*
D24*
X135128000Y-108214000D03*
%TD*%
D25*
%TO.C,R34*%
X167749500Y-103548500D03*
X166099500Y-103548500D03*
%TD*%
%TO.C,R3*%
X167749500Y-112692500D03*
X166099500Y-112692500D03*
%TD*%
D16*
%TO.C,C10*%
X198728000Y-118749000D03*
X198728000Y-120299000D03*
%TD*%
D26*
%TO.C,U4*%
X180558000Y-92760000D03*
X181508000Y-92760000D03*
X182458000Y-92760000D03*
X182458000Y-90485000D03*
X181508000Y-90485000D03*
X180558000Y-90485000D03*
%TD*%
D27*
%TO.C,D25*%
X184164000Y-125716000D03*
X184164000Y-123616000D03*
%TD*%
D28*
%TO.C,R62*%
X192292000Y-120319000D03*
X192292000Y-121969000D03*
%TD*%
D25*
%TO.C,R50*%
X167703000Y-122224000D03*
X166053000Y-122224000D03*
%TD*%
D19*
%TO.C,R22*%
X177672500Y-108410000D03*
X177672500Y-106760000D03*
%TD*%
D29*
%TO.C,C14*%
X141884400Y-96614000D03*
X141884400Y-102014000D03*
%TD*%
D30*
%TO.C,D18*%
X132374000Y-113211500D03*
X132374000Y-111636500D03*
%TD*%
D23*
%TO.C,J10*%
X135128000Y-98054000D03*
D24*
X135128000Y-100594000D03*
%TD*%
D19*
%TO.C,R7*%
X198834000Y-102295000D03*
X198834000Y-100645000D03*
%TD*%
D31*
%TO.C,D23*%
X130850000Y-97100000D03*
X130850000Y-98675000D03*
%TD*%
%TO.C,D6*%
X160078000Y-100436500D03*
X160078000Y-102011500D03*
%TD*%
D32*
%TO.C,R5*%
X198609000Y-104070000D03*
X200259000Y-104070000D03*
%TD*%
D28*
%TO.C,R6*%
X198834000Y-95045000D03*
X198834000Y-96695000D03*
%TD*%
D17*
%TO.C,C3*%
X203659000Y-104270000D03*
X205209000Y-104270000D03*
%TD*%
D33*
%TO.C,F9*%
X185003000Y-97774000D03*
X178228000Y-97774000D03*
%TD*%
D23*
%TO.C,J3*%
X147828000Y-118374000D03*
D24*
X145288000Y-118374000D03*
X142748000Y-118374000D03*
X140208000Y-118374000D03*
%TD*%
D34*
%TO.C,R45*%
X122659000Y-118086500D03*
X124484000Y-118086500D03*
%TD*%
D19*
%TO.C,R11*%
X181990500Y-108317500D03*
X181990500Y-106667500D03*
%TD*%
D27*
%TO.C,D30*%
X192292000Y-125716000D03*
X192292000Y-123616000D03*
%TD*%
D18*
%TO.C,D9*%
X175640500Y-103154500D03*
X175640500Y-105254500D03*
%TD*%
D17*
%TO.C,C20*%
X164903000Y-125624000D03*
X166453000Y-125624000D03*
%TD*%
D35*
%TO.C,F7*%
X176148500Y-120206500D03*
X176148500Y-122081500D03*
%TD*%
D36*
%TO.C,D17*%
X124090500Y-91024000D03*
X125665500Y-91024000D03*
%TD*%
D31*
%TO.C,D19*%
X130850000Y-111636500D03*
X130850000Y-113211500D03*
%TD*%
D28*
%TO.C,R29*%
X198478000Y-123719000D03*
X198478000Y-125369000D03*
%TD*%
D34*
%TO.C,R37*%
X122715500Y-125904000D03*
X124540500Y-125904000D03*
%TD*%
D30*
%TO.C,D28*%
X132374000Y-105107000D03*
X132374000Y-103532000D03*
%TD*%
D34*
%TO.C,R60*%
X122777000Y-110269500D03*
X124602000Y-110269500D03*
%TD*%
D31*
%TO.C,D14*%
X130810000Y-119500000D03*
X130810000Y-121075000D03*
%TD*%
D25*
%TO.C,R27*%
X167749500Y-106596500D03*
X166099500Y-106596500D03*
%TD*%
D37*
%TO.C,J1*%
X132278000Y-86824000D03*
D38*
X132278000Y-91824000D03*
%TD*%
D25*
%TO.C,R33*%
X167749500Y-105072500D03*
X166099500Y-105072500D03*
%TD*%
D18*
%TO.C,D10*%
X177672500Y-103154500D03*
X177672500Y-105254500D03*
%TD*%
D31*
%TO.C,D7*%
X161878000Y-100436500D03*
X161878000Y-102011500D03*
%TD*%
D18*
%TO.C,D1*%
X188086500Y-102954500D03*
X188086500Y-105054500D03*
%TD*%
D19*
%TO.C,R35*%
X132334000Y-124249000D03*
X132334000Y-122599000D03*
%TD*%
D16*
%TO.C,C22*%
X190278000Y-90049000D03*
X190278000Y-91599000D03*
%TD*%
D19*
%TO.C,R2*%
X188086500Y-108317500D03*
X188086500Y-106667500D03*
%TD*%
D28*
%TO.C,R46*%
X178180500Y-120319000D03*
X178180500Y-121969000D03*
%TD*%
D19*
%TO.C,R65*%
X178780000Y-92002500D03*
X178780000Y-90352500D03*
%TD*%
D23*
%TO.C,J8*%
X135128000Y-113294000D03*
D24*
X135128000Y-115834000D03*
%TD*%
D25*
%TO.C,R57*%
X167703000Y-119024000D03*
X166053000Y-119024000D03*
%TD*%
D31*
%TO.C,D8*%
X163678000Y-100436500D03*
X163678000Y-102011500D03*
%TD*%
D28*
%TO.C,R13*%
X187568000Y-91199000D03*
X187568000Y-92849000D03*
%TD*%
D39*
%TO.C,F5*%
X173608500Y-108630000D03*
X173608500Y-106755000D03*
%TD*%
D28*
%TO.C,R67*%
X190678000Y-94174000D03*
X190678000Y-95824000D03*
%TD*%
D25*
%TO.C,R24*%
X205477500Y-118744000D03*
X203827500Y-118744000D03*
%TD*%
D19*
%TO.C,R51*%
X132374000Y-101849000D03*
X132374000Y-100199000D03*
%TD*%
D23*
%TO.C,J4*%
X147828000Y-113278000D03*
D24*
X145288000Y-113278000D03*
X142748000Y-113278000D03*
X140208000Y-113278000D03*
%TD*%
D34*
%TO.C,R53*%
X121555500Y-95264000D03*
X123380500Y-95264000D03*
%TD*%
D30*
%TO.C,D22*%
X132374000Y-98675000D03*
X132374000Y-97100000D03*
%TD*%
D19*
%TO.C,R58*%
X132374000Y-108281000D03*
X132374000Y-106631000D03*
%TD*%
D40*
%TO.C,C6*%
X186054500Y-117053500D03*
X186054500Y-115503500D03*
%TD*%
D41*
%TO.C,D26*%
X174752000Y-96092000D03*
X174752000Y-99592000D03*
%TD*%
D19*
%TO.C,R43*%
X132374000Y-116385500D03*
X132374000Y-114735500D03*
%TD*%
D28*
%TO.C,R26*%
X184368000Y-91199000D03*
X184368000Y-92849000D03*
%TD*%
D42*
%TO.C,C15*%
X127915000Y-125904000D03*
X126365000Y-125904000D03*
%TD*%
D43*
%TO.C,D3*%
X143573000Y-127889000D03*
X139573000Y-127889000D03*
%TD*%
D35*
%TO.C,F8*%
X182132000Y-120206500D03*
X182132000Y-122081500D03*
%TD*%
D25*
%TO.C,R32*%
X196877500Y-125275000D03*
X195227500Y-125275000D03*
%TD*%
%TO.C,R56*%
X167703000Y-117424000D03*
X166053000Y-117424000D03*
%TD*%
D23*
%TO.C,J14*%
X160514000Y-108198000D03*
D24*
X157974000Y-108198000D03*
X155434000Y-108198000D03*
X152894000Y-108198000D03*
%TD*%
D18*
%TO.C,D4*%
X181944500Y-103154500D03*
X181944500Y-105254500D03*
%TD*%
D27*
%TO.C,D31*%
X190260000Y-125716000D03*
X190260000Y-123616000D03*
%TD*%
D19*
%TO.C,R36*%
X130810000Y-124249000D03*
X130810000Y-122599000D03*
%TD*%
%TO.C,R42*%
X125665500Y-89246000D03*
X125665500Y-87596000D03*
%TD*%
D44*
%TO.C,D32*%
X172823000Y-83468000D03*
X174903000Y-83468000D03*
D45*
X173863000Y-87273000D03*
%TD*%
D28*
%TO.C,R66*%
X190678000Y-97374000D03*
X190678000Y-99024000D03*
%TD*%
D42*
%TO.C,C21*%
X207609000Y-94870000D03*
X206059000Y-94870000D03*
%TD*%
D39*
%TO.C,F1*%
X192150500Y-108430000D03*
X192150500Y-106555000D03*
%TD*%
D46*
%TO.C,D27*%
X188228000Y-99524000D03*
X188228000Y-96024000D03*
%TD*%
D25*
%TO.C,R9*%
X188466500Y-111693500D03*
X186816500Y-111693500D03*
%TD*%
D42*
%TO.C,C17*%
X127053000Y-96026000D03*
X125503000Y-96026000D03*
%TD*%
D14*
%TO.C,U3*%
X156008000Y-102304000D03*
D15*
X149708000Y-100024000D03*
D14*
X156008000Y-97744000D03*
%TD*%
D19*
%TO.C,R16*%
X160078000Y-98849000D03*
X160078000Y-97199000D03*
%TD*%
D23*
%TO.C,J2*%
X147828000Y-123454000D03*
D24*
X145288000Y-123454000D03*
X142748000Y-123454000D03*
X140208000Y-123454000D03*
%TD*%
D18*
%TO.C,D12*%
X171576500Y-103154500D03*
X171576500Y-105254500D03*
%TD*%
D47*
%TO.C,U9*%
X125456000Y-106121500D03*
D48*
X122581000Y-104216500D03*
X122581000Y-105486500D03*
X122581000Y-106756500D03*
X122581000Y-108026500D03*
X128331000Y-108026500D03*
X128331000Y-106756500D03*
X128331000Y-105486500D03*
X128331000Y-104216500D03*
D49*
X124806000Y-104821500D03*
X124806000Y-106121500D03*
X124806000Y-107421500D03*
X126106000Y-104821500D03*
X126106000Y-106121500D03*
X126106000Y-107421500D03*
%TD*%
D47*
%TO.C,U7*%
X125404000Y-114306500D03*
D48*
X122529000Y-112401500D03*
X122529000Y-113671500D03*
X122529000Y-114941500D03*
X122529000Y-116211500D03*
X128279000Y-116211500D03*
X128279000Y-114941500D03*
X128279000Y-113671500D03*
X128279000Y-112401500D03*
D49*
X124754000Y-113006500D03*
X124754000Y-114306500D03*
X124754000Y-115606500D03*
X126054000Y-113006500D03*
X126054000Y-114306500D03*
X126054000Y-115606500D03*
%TD*%
D28*
%TO.C,R54*%
X184164000Y-120319000D03*
X184164000Y-121969000D03*
%TD*%
D17*
%TO.C,C9*%
X209228000Y-109274000D03*
X210778000Y-109274000D03*
%TD*%
D27*
%TO.C,D15*%
X173830500Y-125716000D03*
X173830500Y-123616000D03*
%TD*%
D19*
%TO.C,R30*%
X171544500Y-108517500D03*
X171544500Y-106867500D03*
%TD*%
D17*
%TO.C,C13*%
X146663000Y-104424000D03*
X148213000Y-104424000D03*
%TD*%
D23*
%TO.C,J5*%
X147828000Y-108214000D03*
D24*
X145288000Y-108214000D03*
X142748000Y-108214000D03*
X140208000Y-108214000D03*
%TD*%
D23*
%TO.C,J12*%
X168148000Y-90424000D03*
D24*
X168148000Y-92964000D03*
X168148000Y-95504000D03*
X168148000Y-98044000D03*
%TD*%
D50*
%TO.C,Q1*%
X181003000Y-83369000D03*
X181003000Y-84639000D03*
X181003000Y-85909000D03*
X181003000Y-87179000D03*
X185953000Y-87179000D03*
X185953000Y-85909000D03*
X185953000Y-84639000D03*
X185953000Y-83369000D03*
%TD*%
D25*
%TO.C,R49*%
X167703000Y-120624000D03*
X166053000Y-120624000D03*
%TD*%
D23*
%TO.C,J11*%
X160528000Y-113278000D03*
D24*
X157988000Y-113278000D03*
X155448000Y-113278000D03*
X152908000Y-113278000D03*
%TD*%
D25*
%TO.C,R12*%
X167749500Y-109644500D03*
X166099500Y-109644500D03*
%TD*%
D51*
%TO.C,F11*%
X171831000Y-99496000D03*
X171831000Y-96696000D03*
%TD*%
D28*
%TO.C,R47*%
X179958500Y-120319000D03*
X179958500Y-121969000D03*
%TD*%
D27*
%TO.C,D20*%
X179958500Y-125716000D03*
X179958500Y-123616000D03*
%TD*%
D21*
%TO.C,C5*%
X208746500Y-91470000D03*
X202521500Y-91470000D03*
%TD*%
D27*
%TO.C,D24*%
X186196000Y-125716000D03*
X186196000Y-123616000D03*
%TD*%
D28*
%TO.C,R14*%
X178780000Y-87152500D03*
X178780000Y-88802500D03*
%TD*%
D27*
%TO.C,D16*%
X171830500Y-125716000D03*
X171830500Y-123616000D03*
%TD*%
D28*
%TO.C,R61*%
X190252500Y-120319000D03*
X190252500Y-121969000D03*
%TD*%
D23*
%TO.C,J6*%
X135128000Y-120914000D03*
D24*
X135128000Y-123454000D03*
%TD*%
D19*
%TO.C,R18*%
X163678000Y-98849000D03*
X163678000Y-97199000D03*
%TD*%
D47*
%TO.C,U8*%
X125579000Y-99804500D03*
D48*
X122704000Y-97899500D03*
X122704000Y-99169500D03*
X122704000Y-100439500D03*
X122704000Y-101709500D03*
X128454000Y-101709500D03*
X128454000Y-100439500D03*
X128454000Y-99169500D03*
X128454000Y-97899500D03*
D49*
X124929000Y-98504500D03*
X124929000Y-99804500D03*
X124929000Y-101104500D03*
X126229000Y-98504500D03*
X126229000Y-99804500D03*
X126229000Y-101104500D03*
%TD*%
D27*
%TO.C,D21*%
X178034000Y-125716000D03*
X178034000Y-123616000D03*
%TD*%
D52*
%TO.C,C11*%
X195478000Y-117024000D03*
X195478000Y-111624000D03*
%TD*%
D17*
%TO.C,C2*%
X202859000Y-94870000D03*
X204409000Y-94870000D03*
%TD*%
D23*
%TO.C,J7*%
X160528000Y-123454000D03*
D24*
X157988000Y-123454000D03*
X155448000Y-123454000D03*
X152908000Y-123454000D03*
%TD*%
D28*
%TO.C,R39*%
X173862500Y-120285000D03*
X173862500Y-121935000D03*
%TD*%
D25*
%TO.C,R63*%
X172130500Y-115232500D03*
X170480500Y-115232500D03*
%TD*%
%TO.C,R4*%
X172130500Y-113708500D03*
X170480500Y-113708500D03*
%TD*%
D18*
%TO.C,D2*%
X190118500Y-102954500D03*
X190118500Y-105054500D03*
%TD*%
D19*
%TO.C,R19*%
X185968000Y-92849000D03*
X185968000Y-91199000D03*
%TD*%
D30*
%TO.C,D13*%
X132334000Y-121075000D03*
X132334000Y-119500000D03*
%TD*%
D25*
%TO.C,R40*%
X166503000Y-124024000D03*
X164853000Y-124024000D03*
%TD*%
D53*
%TO.C,C1*%
X199034000Y-90070000D03*
X193634000Y-90070000D03*
%TD*%
D54*
%TO.C,Q2*%
X123699500Y-85865500D03*
X125599500Y-85865500D03*
X124649500Y-83990500D03*
%TD*%
D25*
%TO.C,R21*%
X149834000Y-95641000D03*
X148184000Y-95641000D03*
%TD*%
D19*
%TO.C,R10*%
X184022500Y-108317500D03*
X184022500Y-106667500D03*
%TD*%
D25*
%TO.C,R25*%
X153034000Y-95641000D03*
X151384000Y-95641000D03*
%TD*%
D18*
%TO.C,D5*%
X183944500Y-103154500D03*
X183944500Y-105254500D03*
%TD*%
D25*
%TO.C,R64*%
X167703000Y-115824000D03*
X166053000Y-115824000D03*
%TD*%
D19*
%TO.C,R17*%
X161878000Y-98889000D03*
X161878000Y-97239000D03*
%TD*%
%TO.C,R23*%
X175640500Y-108439000D03*
X175640500Y-106789000D03*
%TD*%
D35*
%TO.C,F10*%
X188252500Y-120206500D03*
X188252500Y-122081500D03*
%TD*%
D19*
%TO.C,R31*%
X169544500Y-108517500D03*
X169544500Y-106867500D03*
%TD*%
%TO.C,R1*%
X190144500Y-108317500D03*
X190144500Y-106667500D03*
%TD*%
D25*
%TO.C,R8*%
X188466500Y-113471500D03*
X186816500Y-113471500D03*
%TD*%
D55*
%TO.C,F2*%
X143274000Y-88270000D03*
X160274000Y-88270000D03*
%TD*%
D28*
%TO.C,R55*%
X186196000Y-120319000D03*
X186196000Y-121969000D03*
%TD*%
D56*
%TO.C,XA1*%
X133858000Y-128524000D03*
X135128000Y-80264000D03*
D57*
X147828000Y-128524000D03*
D56*
X210058000Y-80264000D03*
X216408000Y-128524000D03*
D57*
X155448000Y-128524000D03*
X157988000Y-128524000D03*
X213868000Y-80264000D03*
X216408000Y-80264000D03*
X170688000Y-128524000D03*
X173228000Y-128524000D03*
X175768000Y-128524000D03*
X178308000Y-128524000D03*
X180848000Y-128524000D03*
X183388000Y-128524000D03*
X185928000Y-128524000D03*
X188468000Y-128524000D03*
X193548000Y-128524000D03*
X196088000Y-128524000D03*
X198628000Y-128524000D03*
X201168000Y-128524000D03*
X203708000Y-128524000D03*
X206248000Y-128524000D03*
X208788000Y-128524000D03*
X211328000Y-128524000D03*
X143764000Y-80264000D03*
X183388000Y-80264000D03*
X180848000Y-80264000D03*
X178308000Y-80264000D03*
X175768000Y-80264000D03*
X173228000Y-80264000D03*
X170688000Y-80264000D03*
X168148000Y-80264000D03*
X165608000Y-80264000D03*
X161544000Y-80264000D03*
X159004000Y-80264000D03*
X156464000Y-80264000D03*
X153924000Y-80264000D03*
X151384000Y-80264000D03*
X148844000Y-80264000D03*
X188468000Y-80264000D03*
X191008000Y-80264000D03*
X193548000Y-80264000D03*
X196088000Y-80264000D03*
X198628000Y-80264000D03*
X201168000Y-80264000D03*
X203708000Y-80264000D03*
X206248000Y-80264000D03*
X213868000Y-82804000D03*
X216408000Y-82804000D03*
X213868000Y-85344000D03*
X216408000Y-85344000D03*
X213868000Y-87884000D03*
X216408000Y-87884000D03*
X213868000Y-90424000D03*
X216408000Y-90424000D03*
X213868000Y-92964000D03*
X216408000Y-92964000D03*
X213868000Y-95504000D03*
X216408000Y-95504000D03*
X213868000Y-98044000D03*
X216408000Y-98044000D03*
X213868000Y-100584000D03*
X216408000Y-100584000D03*
X213868000Y-103124000D03*
X216408000Y-103124000D03*
X213868000Y-105664000D03*
X216408000Y-105664000D03*
X213868000Y-108204000D03*
X216408000Y-108204000D03*
X213868000Y-110744000D03*
X216408000Y-110744000D03*
X213868000Y-113284000D03*
X216408000Y-113284000D03*
X213868000Y-115824000D03*
X216408000Y-115824000D03*
X213868000Y-118364000D03*
X216408000Y-118364000D03*
X213868000Y-120904000D03*
X216408000Y-120904000D03*
D58*
X146304000Y-80264000D03*
X160528000Y-128524000D03*
X163068000Y-128524000D03*
X213868000Y-123444000D03*
X216408000Y-123444000D03*
D57*
X150368000Y-128524000D03*
X152908000Y-128524000D03*
X138684000Y-80264000D03*
X141224000Y-80264000D03*
X165608000Y-128524000D03*
%TD*%
D19*
%TO.C,R44*%
X130850000Y-116385500D03*
X130850000Y-114735500D03*
%TD*%
D28*
%TO.C,R38*%
X171830500Y-120319000D03*
X171830500Y-121969000D03*
%TD*%
D16*
%TO.C,C12*%
X158278000Y-97249000D03*
X158278000Y-98799000D03*
%TD*%
D59*
%TO.C,U1*%
X202434000Y-99470000D03*
D60*
X204339000Y-96770000D03*
X203069000Y-96770000D03*
X201799000Y-96770000D03*
X200529000Y-96770000D03*
X200529000Y-102170000D03*
X201799000Y-102170000D03*
X203069000Y-102170000D03*
X204339000Y-102170000D03*
%TD*%
D25*
%TO.C,R28*%
X167749500Y-108120500D03*
X166099500Y-108120500D03*
%TD*%
%TO.C,R15*%
X167749500Y-111168500D03*
X166099500Y-111168500D03*
%TD*%
D19*
%TO.C,R52*%
X130850000Y-101849000D03*
X130850000Y-100199000D03*
%TD*%
D39*
%TO.C,F4*%
X179944500Y-108551500D03*
X179944500Y-106676500D03*
%TD*%
D31*
%TO.C,D29*%
X130850000Y-103532000D03*
X130850000Y-105107000D03*
%TD*%
D42*
%TO.C,C16*%
X127902000Y-110288000D03*
X126352000Y-110288000D03*
%TD*%
%TO.C,C18*%
X127915000Y-118035000D03*
X126365000Y-118035000D03*
%TD*%
D25*
%TO.C,R20*%
X202244000Y-118744000D03*
X200594000Y-118744000D03*
%TD*%
D17*
%TO.C,C23*%
X190528000Y-100624000D03*
X192078000Y-100624000D03*
%TD*%
D35*
%TO.C,F6*%
X170052500Y-120206500D03*
X170052500Y-122081500D03*
%TD*%
D39*
%TO.C,F3*%
X186054500Y-108376000D03*
X186054500Y-106501000D03*
%TD*%
D23*
%TO.C,J9*%
X160528000Y-118374000D03*
D24*
X157988000Y-118374000D03*
X155448000Y-118374000D03*
X152908000Y-118374000D03*
%TD*%
D47*
%TO.C,U6*%
X125548000Y-122124000D03*
D48*
X122673000Y-120219000D03*
X122673000Y-121489000D03*
X122673000Y-122759000D03*
X122673000Y-124029000D03*
X128423000Y-124029000D03*
X128423000Y-122759000D03*
X128423000Y-121489000D03*
X128423000Y-120219000D03*
D49*
X124898000Y-120824000D03*
X124898000Y-122124000D03*
X124898000Y-123424000D03*
X126198000Y-120824000D03*
X126198000Y-122124000D03*
X126198000Y-123424000D03*
%TD*%
D25*
%TO.C,R41*%
X169703000Y-124024000D03*
X168053000Y-124024000D03*
%TD*%
D28*
%TO.C,R48*%
X123887500Y-87659000D03*
X123887500Y-89309000D03*
%TD*%
D40*
%TO.C,C8*%
X178780000Y-84752500D03*
X178780000Y-83202500D03*
%TD*%
%LPD*%
M02*
