%TF.GenerationSoftware,KiCad,Pcbnew,7.0.2*%
%TF.CreationDate,2023-07-01T11:58:04+02:00*%
%TF.ProjectId,RocciShield,526f6363-6953-4686-9965-6c642e6b6963,rev?*%
%TF.SameCoordinates,Original*%
%TF.FileFunction,Soldermask,Bot*%
%TF.FilePolarity,Negative*%
%FSLAX46Y46*%
G04 Gerber Fmt 4.6, Leading zero omitted, Abs format (unit mm)*
G04 Created by KiCad (PCBNEW 7.0.2) date 2023-07-01 11:58:04*
%MOMM*%
%LPD*%
G01*
G04 APERTURE LIST*
G04 Aperture macros list*
%AMRoundRect*
0 Rectangle with rounded corners*
0 $1 Rounding radius*
0 $2 $3 $4 $5 $6 $7 $8 $9 X,Y pos of 4 corners*
0 Add a 4 corners polygon primitive as box body*
4,1,4,$2,$3,$4,$5,$6,$7,$8,$9,$2,$3,0*
0 Add four circle primitives for the rounded corners*
1,1,$1+$1,$2,$3*
1,1,$1+$1,$4,$5*
1,1,$1+$1,$6,$7*
1,1,$1+$1,$8,$9*
0 Add four rect primitives between the rounded corners*
20,1,$1+$1,$2,$3,$4,$5,0*
20,1,$1+$1,$4,$5,$6,$7,0*
20,1,$1+$1,$6,$7,$8,$9,0*
20,1,$1+$1,$8,$9,$2,$3,0*%
G04 Aperture macros list end*
%ADD10O,1.727200X1.727200*%
%ADD11R,1.727200X1.727200*%
%ADD12C,3.200000*%
%ADD13R,1.700000X1.700000*%
%ADD14O,1.700000X1.700000*%
%ADD15RoundRect,0.250000X1.550000X-0.750000X1.550000X0.750000X-1.550000X0.750000X-1.550000X-0.750000X0*%
%ADD16O,3.600000X2.000000*%
%ADD17C,0.770000*%
%ADD18R,1.000000X1.500000*%
%ADD19C,1.000000*%
%ADD20R,1.500000X1.000000*%
G04 APERTURE END LIST*
D10*
%TO.C,XA1*%
X165608000Y-128524000D03*
X141224000Y-80264000D03*
X138684000Y-80264000D03*
X152908000Y-128524000D03*
X150368000Y-128524000D03*
D11*
X216408000Y-123444000D03*
X213868000Y-123444000D03*
X163068000Y-128524000D03*
X160528000Y-128524000D03*
X146304000Y-80264000D03*
D10*
X216408000Y-120904000D03*
X213868000Y-120904000D03*
X216408000Y-118364000D03*
X213868000Y-118364000D03*
X216408000Y-115824000D03*
X213868000Y-115824000D03*
X216408000Y-113284000D03*
X213868000Y-113284000D03*
X216408000Y-110744000D03*
X213868000Y-110744000D03*
X216408000Y-108204000D03*
X213868000Y-108204000D03*
X216408000Y-105664000D03*
X213868000Y-105664000D03*
X216408000Y-103124000D03*
X213868000Y-103124000D03*
X216408000Y-100584000D03*
X213868000Y-100584000D03*
X216408000Y-98044000D03*
X213868000Y-98044000D03*
X216408000Y-95504000D03*
X213868000Y-95504000D03*
X216408000Y-92964000D03*
X213868000Y-92964000D03*
X216408000Y-90424000D03*
X213868000Y-90424000D03*
X216408000Y-87884000D03*
X213868000Y-87884000D03*
X216408000Y-85344000D03*
X213868000Y-85344000D03*
X216408000Y-82804000D03*
X213868000Y-82804000D03*
X206248000Y-80264000D03*
X203708000Y-80264000D03*
X201168000Y-80264000D03*
X198628000Y-80264000D03*
X196088000Y-80264000D03*
X193548000Y-80264000D03*
X191008000Y-80264000D03*
X188468000Y-80264000D03*
X148844000Y-80264000D03*
X151384000Y-80264000D03*
X153924000Y-80264000D03*
X156464000Y-80264000D03*
X159004000Y-80264000D03*
X161544000Y-80264000D03*
X165608000Y-80264000D03*
X168148000Y-80264000D03*
X170688000Y-80264000D03*
X173228000Y-80264000D03*
X175768000Y-80264000D03*
X178308000Y-80264000D03*
X180848000Y-80264000D03*
X183388000Y-80264000D03*
X143764000Y-80264000D03*
X211328000Y-128524000D03*
X208788000Y-128524000D03*
X206248000Y-128524000D03*
X203708000Y-128524000D03*
X201168000Y-128524000D03*
X198628000Y-128524000D03*
X196088000Y-128524000D03*
X193548000Y-128524000D03*
X188468000Y-128524000D03*
X185928000Y-128524000D03*
X183388000Y-128524000D03*
X180848000Y-128524000D03*
X178308000Y-128524000D03*
X175768000Y-128524000D03*
X173228000Y-128524000D03*
X170688000Y-128524000D03*
X216408000Y-80264000D03*
X213868000Y-80264000D03*
X157988000Y-128524000D03*
X155448000Y-128524000D03*
D12*
X216408000Y-128524000D03*
X210058000Y-80264000D03*
D10*
X147828000Y-128524000D03*
D12*
X135128000Y-80264000D03*
X133858000Y-128524000D03*
%TD*%
D13*
%TO.C,J13*%
X122428000Y-108204000D03*
D14*
X122428000Y-105664000D03*
%TD*%
D13*
%TO.C,J10*%
X122428000Y-100584000D03*
D14*
X122428000Y-98044000D03*
%TD*%
D13*
%TO.C,J3*%
X152908000Y-113284000D03*
D14*
X152908000Y-115824000D03*
X152908000Y-118364000D03*
X152908000Y-120904000D03*
%TD*%
D15*
%TO.C,J1*%
X125690500Y-87082000D03*
D16*
X125690500Y-82082000D03*
%TD*%
D13*
%TO.C,J8*%
X140208000Y-100584000D03*
D14*
X140208000Y-98044000D03*
%TD*%
D13*
%TO.C,J4*%
X147828000Y-113284000D03*
D14*
X147828000Y-115824000D03*
X147828000Y-118364000D03*
X147828000Y-120904000D03*
%TD*%
D13*
%TO.C,J14*%
X122428000Y-113284000D03*
D14*
X122428000Y-115824000D03*
X122428000Y-118364000D03*
X122428000Y-120904000D03*
%TD*%
D13*
%TO.C,J2*%
X157988000Y-113284000D03*
D14*
X157988000Y-115824000D03*
X157988000Y-118364000D03*
X157988000Y-120904000D03*
%TD*%
D17*
%TO.C,U9*%
X132588000Y-108204000D03*
X132588000Y-106904000D03*
X132588000Y-105604000D03*
X131288000Y-108204000D03*
X131288000Y-106904000D03*
X131288000Y-105604000D03*
%TD*%
%TO.C,U7*%
X150368000Y-100584000D03*
X150368000Y-99284000D03*
X150368000Y-97984000D03*
X149068000Y-100584000D03*
X149068000Y-99284000D03*
X149068000Y-97984000D03*
%TD*%
D13*
%TO.C,J5*%
X142748000Y-113284000D03*
D14*
X142748000Y-115824000D03*
X142748000Y-118364000D03*
X142748000Y-120904000D03*
%TD*%
D13*
%TO.C,J12*%
X170688000Y-84328000D03*
D14*
X170688000Y-86868000D03*
X170688000Y-89408000D03*
X170688000Y-91948000D03*
%TD*%
D13*
%TO.C,J11*%
X127508000Y-113284000D03*
D14*
X127508000Y-115824000D03*
X127508000Y-118364000D03*
X127508000Y-120904000D03*
%TD*%
D13*
%TO.C,J6*%
X140208000Y-108204000D03*
D14*
X140208000Y-105664000D03*
%TD*%
D17*
%TO.C,U8*%
X132588000Y-100584000D03*
X132588000Y-99284000D03*
X132588000Y-97984000D03*
X131288000Y-100584000D03*
X131288000Y-99284000D03*
X131288000Y-97984000D03*
%TD*%
D13*
%TO.C,J7*%
X137668000Y-113284000D03*
D14*
X137668000Y-115824000D03*
X137668000Y-118364000D03*
X137668000Y-120904000D03*
%TD*%
D13*
%TO.C,J9*%
X132588000Y-113284000D03*
D14*
X132588000Y-115824000D03*
X132588000Y-118364000D03*
X132588000Y-120904000D03*
%TD*%
D17*
%TO.C,U6*%
X150368000Y-108204000D03*
X150368000Y-106904000D03*
X150368000Y-105604000D03*
X149068000Y-108204000D03*
X149068000Y-106904000D03*
X149068000Y-105604000D03*
%TD*%
D18*
%TO.C,JP10*%
X197328000Y-121158000D03*
X198628000Y-121158000D03*
X199928000Y-121158000D03*
%TD*%
D19*
%TO.C,TP10*%
X157419000Y-107563500D03*
%TD*%
%TO.C,TP8*%
X201105000Y-90297000D03*
%TD*%
%TO.C,TP5*%
X184912000Y-109969000D03*
%TD*%
%TO.C,TP20*%
X146050000Y-83312000D03*
%TD*%
D20*
%TO.C,JP7*%
X208788000Y-92613000D03*
X208788000Y-93913000D03*
X208788000Y-95213000D03*
%TD*%
D19*
%TO.C,TP21*%
X151638000Y-82804000D03*
%TD*%
%TO.C,TP11*%
X185738000Y-83439000D03*
%TD*%
%TO.C,TP4*%
X186182000Y-107429000D03*
%TD*%
D18*
%TO.C,JP8*%
X188468000Y-113538000D03*
X189768000Y-113538000D03*
X191068000Y-113538000D03*
%TD*%
D19*
%TO.C,TP1*%
X187452000Y-103365000D03*
%TD*%
%TO.C,TP12*%
X198641000Y-107696000D03*
%TD*%
%TO.C,TP6*%
X177038000Y-106426000D03*
%TD*%
D18*
%TO.C,JP11*%
X191770000Y-121124000D03*
X190470000Y-121124000D03*
X189170000Y-121124000D03*
%TD*%
D20*
%TO.C,JP6*%
X206248000Y-92643000D03*
X206248000Y-93943000D03*
X206248000Y-95243000D03*
%TD*%
D19*
%TO.C,TP15*%
X166243000Y-82296000D03*
%TD*%
%TO.C,TP9*%
X201105000Y-91567000D03*
%TD*%
%TO.C,TP3*%
X180848000Y-86614000D03*
%TD*%
%TO.C,TP17*%
X161290000Y-82296000D03*
%TD*%
%TO.C,TP14*%
X163576000Y-103886000D03*
%TD*%
%TO.C,TP7*%
X167132000Y-85852000D03*
%TD*%
D18*
%TO.C,JP3*%
X195326000Y-114232000D03*
X196626000Y-114232000D03*
X197926000Y-114232000D03*
%TD*%
%TO.C,JP1*%
X206248000Y-101058000D03*
X207548000Y-101058000D03*
X208848000Y-101058000D03*
%TD*%
D19*
%TO.C,TP19*%
X144780000Y-83312000D03*
%TD*%
D20*
%TO.C,JP5*%
X203454000Y-92650000D03*
X203454000Y-93950000D03*
X203454000Y-95250000D03*
%TD*%
D19*
%TO.C,TP18*%
X162560000Y-82296000D03*
%TD*%
%TO.C,TP2*%
X185420000Y-101841000D03*
%TD*%
%TO.C,TP16*%
X168148000Y-82296000D03*
%TD*%
%TO.C,TP22*%
X153924000Y-82804000D03*
%TD*%
D18*
%TO.C,JP2*%
X205232000Y-107038000D03*
X206532000Y-107038000D03*
X207832000Y-107038000D03*
%TD*%
%TO.C,JP4*%
X205232000Y-114486000D03*
X206532000Y-114486000D03*
X207832000Y-114486000D03*
%TD*%
D19*
%TO.C,TP13*%
X155895000Y-107817500D03*
%TD*%
D18*
%TO.C,JP9*%
X206248000Y-121852000D03*
X207548000Y-121852000D03*
X208848000Y-121852000D03*
%TD*%
M02*
