%TF.GenerationSoftware,KiCad,Pcbnew,7.0.2*%
%TF.CreationDate,2023-07-19T21:42:15+02:00*%
%TF.ProjectId,RocciBoard,526f6363-6942-46f6-9172-642e6b696361,rev?*%
%TF.SameCoordinates,Original*%
%TF.FileFunction,Legend,Bot*%
%TF.FilePolarity,Positive*%
%FSLAX46Y46*%
G04 Gerber Fmt 4.6, Leading zero omitted, Abs format (unit mm)*
G04 Created by KiCad (PCBNEW 7.0.2) date 2023-07-19 21:42:15*
%MOMM*%
%LPD*%
G01*
G04 APERTURE LIST*
G04 Aperture macros list*
%AMRoundRect*
0 Rectangle with rounded corners*
0 $1 Rounding radius*
0 $2 $3 $4 $5 $6 $7 $8 $9 X,Y pos of 4 corners*
0 Add a 4 corners polygon primitive as box body*
4,1,4,$2,$3,$4,$5,$6,$7,$8,$9,$2,$3,0*
0 Add four circle primitives for the rounded corners*
1,1,$1+$1,$2,$3*
1,1,$1+$1,$4,$5*
1,1,$1+$1,$6,$7*
1,1,$1+$1,$8,$9*
0 Add four rect primitives between the rounded corners*
20,1,$1+$1,$2,$3,$4,$5,0*
20,1,$1+$1,$4,$5,$6,$7,0*
20,1,$1+$1,$6,$7,$8,$9,0*
20,1,$1+$1,$8,$9,$2,$3,0*%
G04 Aperture macros list end*
%ADD10C,0.150000*%
%ADD11C,0.075000*%
%ADD12C,0.120000*%
%ADD13R,1.700000X1.700000*%
%ADD14O,1.700000X1.700000*%
%ADD15RoundRect,0.250000X-1.550000X0.750000X-1.550000X-0.750000X1.550000X-0.750000X1.550000X0.750000X0*%
%ADD16O,3.600000X2.000000*%
%ADD17C,0.770000*%
%ADD18C,3.200000*%
%ADD19O,1.727200X1.727200*%
%ADD20R,1.727200X1.727200*%
%ADD21R,1.500000X1.000000*%
%ADD22C,1.000000*%
%ADD23RoundRect,0.250000X-0.350000X0.850000X-0.350000X-0.850000X0.350000X-0.850000X0.350000X0.850000X0*%
%ADD24RoundRect,0.249997X-2.650003X2.950003X-2.650003X-2.950003X2.650003X-2.950003X2.650003X2.950003X0*%
G04 APERTURE END LIST*
D10*
X165834000Y-126270000D02*
X167034000Y-126270000D01*
X167034000Y-126270000D02*
X169434000Y-127870000D01*
X164834000Y-126270000D02*
X165234000Y-127070000D01*
X163834000Y-126270000D02*
X164834000Y-126270000D01*
X195595904Y-112147619D02*
X195595904Y-111147619D01*
X195595904Y-111147619D02*
X195262571Y-111861904D01*
X195262571Y-111861904D02*
X194929238Y-111147619D01*
X194929238Y-111147619D02*
X194929238Y-112147619D01*
X194691143Y-112242857D02*
X193929238Y-112242857D01*
X193738761Y-112100000D02*
X193595904Y-112147619D01*
X193595904Y-112147619D02*
X193357809Y-112147619D01*
X193357809Y-112147619D02*
X193262571Y-112100000D01*
X193262571Y-112100000D02*
X193214952Y-112052380D01*
X193214952Y-112052380D02*
X193167333Y-111957142D01*
X193167333Y-111957142D02*
X193167333Y-111861904D01*
X193167333Y-111861904D02*
X193214952Y-111766666D01*
X193214952Y-111766666D02*
X193262571Y-111719047D01*
X193262571Y-111719047D02*
X193357809Y-111671428D01*
X193357809Y-111671428D02*
X193548285Y-111623809D01*
X193548285Y-111623809D02*
X193643523Y-111576190D01*
X193643523Y-111576190D02*
X193691142Y-111528571D01*
X193691142Y-111528571D02*
X193738761Y-111433333D01*
X193738761Y-111433333D02*
X193738761Y-111338095D01*
X193738761Y-111338095D02*
X193691142Y-111242857D01*
X193691142Y-111242857D02*
X193643523Y-111195238D01*
X193643523Y-111195238D02*
X193548285Y-111147619D01*
X193548285Y-111147619D02*
X193310190Y-111147619D01*
X193310190Y-111147619D02*
X193167333Y-111195238D01*
X192167333Y-112052380D02*
X192214952Y-112100000D01*
X192214952Y-112100000D02*
X192357809Y-112147619D01*
X192357809Y-112147619D02*
X192453047Y-112147619D01*
X192453047Y-112147619D02*
X192595904Y-112100000D01*
X192595904Y-112100000D02*
X192691142Y-112004761D01*
X192691142Y-112004761D02*
X192738761Y-111909523D01*
X192738761Y-111909523D02*
X192786380Y-111719047D01*
X192786380Y-111719047D02*
X192786380Y-111576190D01*
X192786380Y-111576190D02*
X192738761Y-111385714D01*
X192738761Y-111385714D02*
X192691142Y-111290476D01*
X192691142Y-111290476D02*
X192595904Y-111195238D01*
X192595904Y-111195238D02*
X192453047Y-111147619D01*
X192453047Y-111147619D02*
X192357809Y-111147619D01*
X192357809Y-111147619D02*
X192214952Y-111195238D01*
X192214952Y-111195238D02*
X192167333Y-111242857D01*
X191262571Y-112147619D02*
X191738761Y-112147619D01*
X191738761Y-112147619D02*
X191738761Y-111147619D01*
X155655761Y-106551619D02*
X155655761Y-105551619D01*
X155227190Y-105646857D02*
X155179571Y-105599238D01*
X155179571Y-105599238D02*
X155084333Y-105551619D01*
X155084333Y-105551619D02*
X154846238Y-105551619D01*
X154846238Y-105551619D02*
X154751000Y-105599238D01*
X154751000Y-105599238D02*
X154703381Y-105646857D01*
X154703381Y-105646857D02*
X154655762Y-105742095D01*
X154655762Y-105742095D02*
X154655762Y-105837333D01*
X154655762Y-105837333D02*
X154703381Y-105980190D01*
X154703381Y-105980190D02*
X155274809Y-106551619D01*
X155274809Y-106551619D02*
X154655762Y-106551619D01*
X153655762Y-106456380D02*
X153703381Y-106504000D01*
X153703381Y-106504000D02*
X153846238Y-106551619D01*
X153846238Y-106551619D02*
X153941476Y-106551619D01*
X153941476Y-106551619D02*
X154084333Y-106504000D01*
X154084333Y-106504000D02*
X154179571Y-106408761D01*
X154179571Y-106408761D02*
X154227190Y-106313523D01*
X154227190Y-106313523D02*
X154274809Y-106123047D01*
X154274809Y-106123047D02*
X154274809Y-105980190D01*
X154274809Y-105980190D02*
X154227190Y-105789714D01*
X154227190Y-105789714D02*
X154179571Y-105694476D01*
X154179571Y-105694476D02*
X154084333Y-105599238D01*
X154084333Y-105599238D02*
X153941476Y-105551619D01*
X153941476Y-105551619D02*
X153846238Y-105551619D01*
X153846238Y-105551619D02*
X153703381Y-105599238D01*
X153703381Y-105599238D02*
X153655762Y-105646857D01*
X153465286Y-106646857D02*
X152703381Y-106646857D01*
X152560523Y-105551619D02*
X151893857Y-105551619D01*
X151893857Y-105551619D02*
X152322428Y-106551619D01*
X133010304Y-100014419D02*
X133010304Y-99014419D01*
X133010304Y-99014419D02*
X132676971Y-99728704D01*
X132676971Y-99728704D02*
X132343638Y-99014419D01*
X132343638Y-99014419D02*
X132343638Y-100014419D01*
X131962685Y-99014419D02*
X131343638Y-99014419D01*
X131343638Y-99014419D02*
X131676971Y-99395371D01*
X131676971Y-99395371D02*
X131534114Y-99395371D01*
X131534114Y-99395371D02*
X131438876Y-99442990D01*
X131438876Y-99442990D02*
X131391257Y-99490609D01*
X131391257Y-99490609D02*
X131343638Y-99585847D01*
X131343638Y-99585847D02*
X131343638Y-99823942D01*
X131343638Y-99823942D02*
X131391257Y-99919180D01*
X131391257Y-99919180D02*
X131438876Y-99966800D01*
X131438876Y-99966800D02*
X131534114Y-100014419D01*
X131534114Y-100014419D02*
X131819828Y-100014419D01*
X131819828Y-100014419D02*
X131915066Y-99966800D01*
X131915066Y-99966800D02*
X131962685Y-99919180D01*
X154893761Y-121410619D02*
X154893761Y-120410619D01*
X154465190Y-120505857D02*
X154417571Y-120458238D01*
X154417571Y-120458238D02*
X154322333Y-120410619D01*
X154322333Y-120410619D02*
X154084238Y-120410619D01*
X154084238Y-120410619D02*
X153989000Y-120458238D01*
X153989000Y-120458238D02*
X153941381Y-120505857D01*
X153941381Y-120505857D02*
X153893762Y-120601095D01*
X153893762Y-120601095D02*
X153893762Y-120696333D01*
X153893762Y-120696333D02*
X153941381Y-120839190D01*
X153941381Y-120839190D02*
X154512809Y-121410619D01*
X154512809Y-121410619D02*
X153893762Y-121410619D01*
X152893762Y-121315380D02*
X152941381Y-121363000D01*
X152941381Y-121363000D02*
X153084238Y-121410619D01*
X153084238Y-121410619D02*
X153179476Y-121410619D01*
X153179476Y-121410619D02*
X153322333Y-121363000D01*
X153322333Y-121363000D02*
X153417571Y-121267761D01*
X153417571Y-121267761D02*
X153465190Y-121172523D01*
X153465190Y-121172523D02*
X153512809Y-120982047D01*
X153512809Y-120982047D02*
X153512809Y-120839190D01*
X153512809Y-120839190D02*
X153465190Y-120648714D01*
X153465190Y-120648714D02*
X153417571Y-120553476D01*
X153417571Y-120553476D02*
X153322333Y-120458238D01*
X153322333Y-120458238D02*
X153179476Y-120410619D01*
X153179476Y-120410619D02*
X153084238Y-120410619D01*
X153084238Y-120410619D02*
X152941381Y-120458238D01*
X152941381Y-120458238D02*
X152893762Y-120505857D01*
X152703286Y-121505857D02*
X151941381Y-121505857D01*
X151274714Y-120743952D02*
X151274714Y-121410619D01*
X151512809Y-120363000D02*
X151750904Y-121077285D01*
X151750904Y-121077285D02*
X151131857Y-121077285D01*
X148631809Y-82662095D02*
X148631809Y-82995428D01*
X149155619Y-83138285D02*
X149155619Y-82662095D01*
X149155619Y-82662095D02*
X148155619Y-82662095D01*
X148155619Y-82662095D02*
X148155619Y-83138285D01*
X149155619Y-83566857D02*
X148488952Y-83566857D01*
X148679428Y-83566857D02*
X148584190Y-83614476D01*
X148584190Y-83614476D02*
X148536571Y-83662095D01*
X148536571Y-83662095D02*
X148488952Y-83757333D01*
X148488952Y-83757333D02*
X148488952Y-83852571D01*
X149155619Y-84185905D02*
X148488952Y-84185905D01*
X148679428Y-84185905D02*
X148584190Y-84233524D01*
X148584190Y-84233524D02*
X148536571Y-84281143D01*
X148536571Y-84281143D02*
X148488952Y-84376381D01*
X148488952Y-84376381D02*
X148488952Y-84471619D01*
X149155619Y-84947810D02*
X149108000Y-84852572D01*
X149108000Y-84852572D02*
X149060380Y-84804953D01*
X149060380Y-84804953D02*
X148965142Y-84757334D01*
X148965142Y-84757334D02*
X148679428Y-84757334D01*
X148679428Y-84757334D02*
X148584190Y-84804953D01*
X148584190Y-84804953D02*
X148536571Y-84852572D01*
X148536571Y-84852572D02*
X148488952Y-84947810D01*
X148488952Y-84947810D02*
X148488952Y-85090667D01*
X148488952Y-85090667D02*
X148536571Y-85185905D01*
X148536571Y-85185905D02*
X148584190Y-85233524D01*
X148584190Y-85233524D02*
X148679428Y-85281143D01*
X148679428Y-85281143D02*
X148965142Y-85281143D01*
X148965142Y-85281143D02*
X149060380Y-85233524D01*
X149060380Y-85233524D02*
X149108000Y-85185905D01*
X149108000Y-85185905D02*
X149155619Y-85090667D01*
X149155619Y-85090667D02*
X149155619Y-84947810D01*
X149155619Y-85709715D02*
X148488952Y-85709715D01*
X148679428Y-85709715D02*
X148584190Y-85757334D01*
X148584190Y-85757334D02*
X148536571Y-85804953D01*
X148536571Y-85804953D02*
X148488952Y-85900191D01*
X148488952Y-85900191D02*
X148488952Y-85995429D01*
X170963714Y-92901619D02*
X171439904Y-92901619D01*
X171439904Y-92901619D02*
X171487523Y-93377809D01*
X171487523Y-93377809D02*
X171439904Y-93330190D01*
X171439904Y-93330190D02*
X171344666Y-93282571D01*
X171344666Y-93282571D02*
X171106571Y-93282571D01*
X171106571Y-93282571D02*
X171011333Y-93330190D01*
X171011333Y-93330190D02*
X170963714Y-93377809D01*
X170963714Y-93377809D02*
X170916095Y-93473047D01*
X170916095Y-93473047D02*
X170916095Y-93711142D01*
X170916095Y-93711142D02*
X170963714Y-93806380D01*
X170963714Y-93806380D02*
X171011333Y-93854000D01*
X171011333Y-93854000D02*
X171106571Y-93901619D01*
X171106571Y-93901619D02*
X171344666Y-93901619D01*
X171344666Y-93901619D02*
X171439904Y-93854000D01*
X171439904Y-93854000D02*
X171487523Y-93806380D01*
X170630380Y-92901619D02*
X170297047Y-93901619D01*
X170297047Y-93901619D02*
X169963714Y-92901619D01*
X184039904Y-121501619D02*
X184039904Y-120501619D01*
X183611333Y-120596857D02*
X183563714Y-120549238D01*
X183563714Y-120549238D02*
X183468476Y-120501619D01*
X183468476Y-120501619D02*
X183230381Y-120501619D01*
X183230381Y-120501619D02*
X183135143Y-120549238D01*
X183135143Y-120549238D02*
X183087524Y-120596857D01*
X183087524Y-120596857D02*
X183039905Y-120692095D01*
X183039905Y-120692095D02*
X183039905Y-120787333D01*
X183039905Y-120787333D02*
X183087524Y-120930190D01*
X183087524Y-120930190D02*
X183658952Y-121501619D01*
X183658952Y-121501619D02*
X183039905Y-121501619D01*
X182039905Y-121406380D02*
X182087524Y-121454000D01*
X182087524Y-121454000D02*
X182230381Y-121501619D01*
X182230381Y-121501619D02*
X182325619Y-121501619D01*
X182325619Y-121501619D02*
X182468476Y-121454000D01*
X182468476Y-121454000D02*
X182563714Y-121358761D01*
X182563714Y-121358761D02*
X182611333Y-121263523D01*
X182611333Y-121263523D02*
X182658952Y-121073047D01*
X182658952Y-121073047D02*
X182658952Y-120930190D01*
X182658952Y-120930190D02*
X182611333Y-120739714D01*
X182611333Y-120739714D02*
X182563714Y-120644476D01*
X182563714Y-120644476D02*
X182468476Y-120549238D01*
X182468476Y-120549238D02*
X182325619Y-120501619D01*
X182325619Y-120501619D02*
X182230381Y-120501619D01*
X182230381Y-120501619D02*
X182087524Y-120549238D01*
X182087524Y-120549238D02*
X182039905Y-120596857D01*
X181849429Y-121596857D02*
X181087524Y-121596857D01*
X180420857Y-120501619D02*
X180611333Y-120501619D01*
X180611333Y-120501619D02*
X180706571Y-120549238D01*
X180706571Y-120549238D02*
X180754190Y-120596857D01*
X180754190Y-120596857D02*
X180849428Y-120739714D01*
X180849428Y-120739714D02*
X180897047Y-120930190D01*
X180897047Y-120930190D02*
X180897047Y-121311142D01*
X180897047Y-121311142D02*
X180849428Y-121406380D01*
X180849428Y-121406380D02*
X180801809Y-121454000D01*
X180801809Y-121454000D02*
X180706571Y-121501619D01*
X180706571Y-121501619D02*
X180516095Y-121501619D01*
X180516095Y-121501619D02*
X180420857Y-121454000D01*
X180420857Y-121454000D02*
X180373238Y-121406380D01*
X180373238Y-121406380D02*
X180325619Y-121311142D01*
X180325619Y-121311142D02*
X180325619Y-121073047D01*
X180325619Y-121073047D02*
X180373238Y-120977809D01*
X180373238Y-120977809D02*
X180420857Y-120930190D01*
X180420857Y-120930190D02*
X180516095Y-120882571D01*
X180516095Y-120882571D02*
X180706571Y-120882571D01*
X180706571Y-120882571D02*
X180801809Y-120930190D01*
X180801809Y-120930190D02*
X180849428Y-120977809D01*
X180849428Y-120977809D02*
X180897047Y-121073047D01*
X195595904Y-113947619D02*
X195595904Y-112947619D01*
X195595904Y-112947619D02*
X195262571Y-113661904D01*
X195262571Y-113661904D02*
X194929238Y-112947619D01*
X194929238Y-112947619D02*
X194929238Y-113947619D01*
X194691143Y-114042857D02*
X193929238Y-114042857D01*
X193738761Y-113900000D02*
X193595904Y-113947619D01*
X193595904Y-113947619D02*
X193357809Y-113947619D01*
X193357809Y-113947619D02*
X193262571Y-113900000D01*
X193262571Y-113900000D02*
X193214952Y-113852380D01*
X193214952Y-113852380D02*
X193167333Y-113757142D01*
X193167333Y-113757142D02*
X193167333Y-113661904D01*
X193167333Y-113661904D02*
X193214952Y-113566666D01*
X193214952Y-113566666D02*
X193262571Y-113519047D01*
X193262571Y-113519047D02*
X193357809Y-113471428D01*
X193357809Y-113471428D02*
X193548285Y-113423809D01*
X193548285Y-113423809D02*
X193643523Y-113376190D01*
X193643523Y-113376190D02*
X193691142Y-113328571D01*
X193691142Y-113328571D02*
X193738761Y-113233333D01*
X193738761Y-113233333D02*
X193738761Y-113138095D01*
X193738761Y-113138095D02*
X193691142Y-113042857D01*
X193691142Y-113042857D02*
X193643523Y-112995238D01*
X193643523Y-112995238D02*
X193548285Y-112947619D01*
X193548285Y-112947619D02*
X193310190Y-112947619D01*
X193310190Y-112947619D02*
X193167333Y-112995238D01*
X192738761Y-113947619D02*
X192738761Y-112947619D01*
X192738761Y-112947619D02*
X192500666Y-112947619D01*
X192500666Y-112947619D02*
X192357809Y-112995238D01*
X192357809Y-112995238D02*
X192262571Y-113090476D01*
X192262571Y-113090476D02*
X192214952Y-113185714D01*
X192214952Y-113185714D02*
X192167333Y-113376190D01*
X192167333Y-113376190D02*
X192167333Y-113519047D01*
X192167333Y-113519047D02*
X192214952Y-113709523D01*
X192214952Y-113709523D02*
X192262571Y-113804761D01*
X192262571Y-113804761D02*
X192357809Y-113900000D01*
X192357809Y-113900000D02*
X192500666Y-113947619D01*
X192500666Y-113947619D02*
X192738761Y-113947619D01*
X191786380Y-113661904D02*
X191310190Y-113661904D01*
X191881618Y-113947619D02*
X191548285Y-112947619D01*
X191548285Y-112947619D02*
X191214952Y-113947619D01*
X137058495Y-86463638D02*
X137153733Y-86416019D01*
X137153733Y-86416019D02*
X137296590Y-86416019D01*
X137296590Y-86416019D02*
X137439447Y-86463638D01*
X137439447Y-86463638D02*
X137534685Y-86558876D01*
X137534685Y-86558876D02*
X137582304Y-86654114D01*
X137582304Y-86654114D02*
X137629923Y-86844590D01*
X137629923Y-86844590D02*
X137629923Y-86987447D01*
X137629923Y-86987447D02*
X137582304Y-87177923D01*
X137582304Y-87177923D02*
X137534685Y-87273161D01*
X137534685Y-87273161D02*
X137439447Y-87368400D01*
X137439447Y-87368400D02*
X137296590Y-87416019D01*
X137296590Y-87416019D02*
X137201352Y-87416019D01*
X137201352Y-87416019D02*
X137058495Y-87368400D01*
X137058495Y-87368400D02*
X137010876Y-87320780D01*
X137010876Y-87320780D02*
X137010876Y-86987447D01*
X137010876Y-86987447D02*
X137201352Y-86987447D01*
X136582304Y-87416019D02*
X136582304Y-86416019D01*
X136582304Y-86416019D02*
X136010876Y-87416019D01*
X136010876Y-87416019D02*
X136010876Y-86416019D01*
X135534685Y-87416019D02*
X135534685Y-86416019D01*
X135534685Y-86416019D02*
X135296590Y-86416019D01*
X135296590Y-86416019D02*
X135153733Y-86463638D01*
X135153733Y-86463638D02*
X135058495Y-86558876D01*
X135058495Y-86558876D02*
X135010876Y-86654114D01*
X135010876Y-86654114D02*
X134963257Y-86844590D01*
X134963257Y-86844590D02*
X134963257Y-86987447D01*
X134963257Y-86987447D02*
X135010876Y-87177923D01*
X135010876Y-87177923D02*
X135058495Y-87273161D01*
X135058495Y-87273161D02*
X135153733Y-87368400D01*
X135153733Y-87368400D02*
X135296590Y-87416019D01*
X135296590Y-87416019D02*
X135534685Y-87416019D01*
X190763714Y-122101619D02*
X191239904Y-122101619D01*
X191239904Y-122101619D02*
X191287523Y-122577809D01*
X191287523Y-122577809D02*
X191239904Y-122530190D01*
X191239904Y-122530190D02*
X191144666Y-122482571D01*
X191144666Y-122482571D02*
X190906571Y-122482571D01*
X190906571Y-122482571D02*
X190811333Y-122530190D01*
X190811333Y-122530190D02*
X190763714Y-122577809D01*
X190763714Y-122577809D02*
X190716095Y-122673047D01*
X190716095Y-122673047D02*
X190716095Y-122911142D01*
X190716095Y-122911142D02*
X190763714Y-123006380D01*
X190763714Y-123006380D02*
X190811333Y-123054000D01*
X190811333Y-123054000D02*
X190906571Y-123101619D01*
X190906571Y-123101619D02*
X191144666Y-123101619D01*
X191144666Y-123101619D02*
X191239904Y-123054000D01*
X191239904Y-123054000D02*
X191287523Y-123006380D01*
X190430380Y-122101619D02*
X190097047Y-123101619D01*
X190097047Y-123101619D02*
X189763714Y-122101619D01*
X201662571Y-101823809D02*
X201995904Y-101823809D01*
X201995904Y-102347619D02*
X201995904Y-101347619D01*
X201995904Y-101347619D02*
X201519714Y-101347619D01*
X200805428Y-101823809D02*
X200662571Y-101871428D01*
X200662571Y-101871428D02*
X200614952Y-101919047D01*
X200614952Y-101919047D02*
X200567333Y-102014285D01*
X200567333Y-102014285D02*
X200567333Y-102157142D01*
X200567333Y-102157142D02*
X200614952Y-102252380D01*
X200614952Y-102252380D02*
X200662571Y-102300000D01*
X200662571Y-102300000D02*
X200757809Y-102347619D01*
X200757809Y-102347619D02*
X201138761Y-102347619D01*
X201138761Y-102347619D02*
X201138761Y-101347619D01*
X201138761Y-101347619D02*
X200805428Y-101347619D01*
X200805428Y-101347619D02*
X200710190Y-101395238D01*
X200710190Y-101395238D02*
X200662571Y-101442857D01*
X200662571Y-101442857D02*
X200614952Y-101538095D01*
X200614952Y-101538095D02*
X200614952Y-101633333D01*
X200614952Y-101633333D02*
X200662571Y-101728571D01*
X200662571Y-101728571D02*
X200710190Y-101776190D01*
X200710190Y-101776190D02*
X200805428Y-101823809D01*
X200805428Y-101823809D02*
X201138761Y-101823809D01*
X157155619Y-82662095D02*
X156155619Y-82662095D01*
X156155619Y-82662095D02*
X156869904Y-82995428D01*
X156869904Y-82995428D02*
X156155619Y-83328761D01*
X156155619Y-83328761D02*
X157155619Y-83328761D01*
X156250857Y-83757333D02*
X156203238Y-83804952D01*
X156203238Y-83804952D02*
X156155619Y-83900190D01*
X156155619Y-83900190D02*
X156155619Y-84138285D01*
X156155619Y-84138285D02*
X156203238Y-84233523D01*
X156203238Y-84233523D02*
X156250857Y-84281142D01*
X156250857Y-84281142D02*
X156346095Y-84328761D01*
X156346095Y-84328761D02*
X156441333Y-84328761D01*
X156441333Y-84328761D02*
X156584190Y-84281142D01*
X156584190Y-84281142D02*
X157155619Y-83709714D01*
X157155619Y-83709714D02*
X157155619Y-84328761D01*
X157250857Y-84519238D02*
X157250857Y-85281142D01*
X157155619Y-85519238D02*
X156155619Y-85519238D01*
X157155619Y-85995428D02*
X156155619Y-85995428D01*
X156155619Y-85995428D02*
X157155619Y-86566856D01*
X157155619Y-86566856D02*
X156155619Y-86566856D01*
X157155619Y-87566856D02*
X157155619Y-86995428D01*
X157155619Y-87281142D02*
X156155619Y-87281142D01*
X156155619Y-87281142D02*
X156298476Y-87185904D01*
X156298476Y-87185904D02*
X156393714Y-87090666D01*
X156393714Y-87090666D02*
X156441333Y-86995428D01*
X170916095Y-98149238D02*
X171011333Y-98101619D01*
X171011333Y-98101619D02*
X171154190Y-98101619D01*
X171154190Y-98101619D02*
X171297047Y-98149238D01*
X171297047Y-98149238D02*
X171392285Y-98244476D01*
X171392285Y-98244476D02*
X171439904Y-98339714D01*
X171439904Y-98339714D02*
X171487523Y-98530190D01*
X171487523Y-98530190D02*
X171487523Y-98673047D01*
X171487523Y-98673047D02*
X171439904Y-98863523D01*
X171439904Y-98863523D02*
X171392285Y-98958761D01*
X171392285Y-98958761D02*
X171297047Y-99054000D01*
X171297047Y-99054000D02*
X171154190Y-99101619D01*
X171154190Y-99101619D02*
X171058952Y-99101619D01*
X171058952Y-99101619D02*
X170916095Y-99054000D01*
X170916095Y-99054000D02*
X170868476Y-99006380D01*
X170868476Y-99006380D02*
X170868476Y-98673047D01*
X170868476Y-98673047D02*
X171058952Y-98673047D01*
X170439904Y-99101619D02*
X170439904Y-98101619D01*
X170439904Y-98101619D02*
X169868476Y-99101619D01*
X169868476Y-99101619D02*
X169868476Y-98101619D01*
X169392285Y-99101619D02*
X169392285Y-98101619D01*
X169392285Y-98101619D02*
X169154190Y-98101619D01*
X169154190Y-98101619D02*
X169011333Y-98149238D01*
X169011333Y-98149238D02*
X168916095Y-98244476D01*
X168916095Y-98244476D02*
X168868476Y-98339714D01*
X168868476Y-98339714D02*
X168820857Y-98530190D01*
X168820857Y-98530190D02*
X168820857Y-98673047D01*
X168820857Y-98673047D02*
X168868476Y-98863523D01*
X168868476Y-98863523D02*
X168916095Y-98958761D01*
X168916095Y-98958761D02*
X169011333Y-99054000D01*
X169011333Y-99054000D02*
X169154190Y-99101619D01*
X169154190Y-99101619D02*
X169392285Y-99101619D01*
X171535142Y-95301619D02*
X170916095Y-95301619D01*
X170916095Y-95301619D02*
X171249428Y-95682571D01*
X171249428Y-95682571D02*
X171106571Y-95682571D01*
X171106571Y-95682571D02*
X171011333Y-95730190D01*
X171011333Y-95730190D02*
X170963714Y-95777809D01*
X170963714Y-95777809D02*
X170916095Y-95873047D01*
X170916095Y-95873047D02*
X170916095Y-96111142D01*
X170916095Y-96111142D02*
X170963714Y-96206380D01*
X170963714Y-96206380D02*
X171011333Y-96254000D01*
X171011333Y-96254000D02*
X171106571Y-96301619D01*
X171106571Y-96301619D02*
X171392285Y-96301619D01*
X171392285Y-96301619D02*
X171487523Y-96254000D01*
X171487523Y-96254000D02*
X171535142Y-96206380D01*
X170439904Y-96254000D02*
X170439904Y-96301619D01*
X170439904Y-96301619D02*
X170487523Y-96396857D01*
X170487523Y-96396857D02*
X170535142Y-96444476D01*
X170106571Y-95301619D02*
X169487524Y-95301619D01*
X169487524Y-95301619D02*
X169820857Y-95682571D01*
X169820857Y-95682571D02*
X169678000Y-95682571D01*
X169678000Y-95682571D02*
X169582762Y-95730190D01*
X169582762Y-95730190D02*
X169535143Y-95777809D01*
X169535143Y-95777809D02*
X169487524Y-95873047D01*
X169487524Y-95873047D02*
X169487524Y-96111142D01*
X169487524Y-96111142D02*
X169535143Y-96206380D01*
X169535143Y-96206380D02*
X169582762Y-96254000D01*
X169582762Y-96254000D02*
X169678000Y-96301619D01*
X169678000Y-96301619D02*
X169963714Y-96301619D01*
X169963714Y-96301619D02*
X170058952Y-96254000D01*
X170058952Y-96254000D02*
X170106571Y-96206380D01*
X169201809Y-95301619D02*
X168868476Y-96301619D01*
X168868476Y-96301619D02*
X168535143Y-95301619D01*
X155147761Y-116330619D02*
X155147761Y-115330619D01*
X154719190Y-115425857D02*
X154671571Y-115378238D01*
X154671571Y-115378238D02*
X154576333Y-115330619D01*
X154576333Y-115330619D02*
X154338238Y-115330619D01*
X154338238Y-115330619D02*
X154243000Y-115378238D01*
X154243000Y-115378238D02*
X154195381Y-115425857D01*
X154195381Y-115425857D02*
X154147762Y-115521095D01*
X154147762Y-115521095D02*
X154147762Y-115616333D01*
X154147762Y-115616333D02*
X154195381Y-115759190D01*
X154195381Y-115759190D02*
X154766809Y-116330619D01*
X154766809Y-116330619D02*
X154147762Y-116330619D01*
X153147762Y-116235380D02*
X153195381Y-116283000D01*
X153195381Y-116283000D02*
X153338238Y-116330619D01*
X153338238Y-116330619D02*
X153433476Y-116330619D01*
X153433476Y-116330619D02*
X153576333Y-116283000D01*
X153576333Y-116283000D02*
X153671571Y-116187761D01*
X153671571Y-116187761D02*
X153719190Y-116092523D01*
X153719190Y-116092523D02*
X153766809Y-115902047D01*
X153766809Y-115902047D02*
X153766809Y-115759190D01*
X153766809Y-115759190D02*
X153719190Y-115568714D01*
X153719190Y-115568714D02*
X153671571Y-115473476D01*
X153671571Y-115473476D02*
X153576333Y-115378238D01*
X153576333Y-115378238D02*
X153433476Y-115330619D01*
X153433476Y-115330619D02*
X153338238Y-115330619D01*
X153338238Y-115330619D02*
X153195381Y-115378238D01*
X153195381Y-115378238D02*
X153147762Y-115425857D01*
X152957286Y-116425857D02*
X152195381Y-116425857D01*
X151481095Y-115330619D02*
X151957285Y-115330619D01*
X151957285Y-115330619D02*
X152004904Y-115806809D01*
X152004904Y-115806809D02*
X151957285Y-115759190D01*
X151957285Y-115759190D02*
X151862047Y-115711571D01*
X151862047Y-115711571D02*
X151623952Y-115711571D01*
X151623952Y-115711571D02*
X151528714Y-115759190D01*
X151528714Y-115759190D02*
X151481095Y-115806809D01*
X151481095Y-115806809D02*
X151433476Y-115902047D01*
X151433476Y-115902047D02*
X151433476Y-116140142D01*
X151433476Y-116140142D02*
X151481095Y-116235380D01*
X151481095Y-116235380D02*
X151528714Y-116283000D01*
X151528714Y-116283000D02*
X151623952Y-116330619D01*
X151623952Y-116330619D02*
X151862047Y-116330619D01*
X151862047Y-116330619D02*
X151957285Y-116283000D01*
X151957285Y-116283000D02*
X152004904Y-116235380D01*
X190239904Y-121501619D02*
X190239904Y-120501619D01*
X189811333Y-120596857D02*
X189763714Y-120549238D01*
X189763714Y-120549238D02*
X189668476Y-120501619D01*
X189668476Y-120501619D02*
X189430381Y-120501619D01*
X189430381Y-120501619D02*
X189335143Y-120549238D01*
X189335143Y-120549238D02*
X189287524Y-120596857D01*
X189287524Y-120596857D02*
X189239905Y-120692095D01*
X189239905Y-120692095D02*
X189239905Y-120787333D01*
X189239905Y-120787333D02*
X189287524Y-120930190D01*
X189287524Y-120930190D02*
X189858952Y-121501619D01*
X189858952Y-121501619D02*
X189239905Y-121501619D01*
X188239905Y-121406380D02*
X188287524Y-121454000D01*
X188287524Y-121454000D02*
X188430381Y-121501619D01*
X188430381Y-121501619D02*
X188525619Y-121501619D01*
X188525619Y-121501619D02*
X188668476Y-121454000D01*
X188668476Y-121454000D02*
X188763714Y-121358761D01*
X188763714Y-121358761D02*
X188811333Y-121263523D01*
X188811333Y-121263523D02*
X188858952Y-121073047D01*
X188858952Y-121073047D02*
X188858952Y-120930190D01*
X188858952Y-120930190D02*
X188811333Y-120739714D01*
X188811333Y-120739714D02*
X188763714Y-120644476D01*
X188763714Y-120644476D02*
X188668476Y-120549238D01*
X188668476Y-120549238D02*
X188525619Y-120501619D01*
X188525619Y-120501619D02*
X188430381Y-120501619D01*
X188430381Y-120501619D02*
X188287524Y-120549238D01*
X188287524Y-120549238D02*
X188239905Y-120596857D01*
X188049429Y-121596857D02*
X187287524Y-121596857D01*
X187144666Y-120501619D02*
X186478000Y-120501619D01*
X186478000Y-120501619D02*
X186906571Y-121501619D01*
X186763714Y-112301619D02*
X187239904Y-112301619D01*
X187239904Y-112301619D02*
X187287523Y-112777809D01*
X187287523Y-112777809D02*
X187239904Y-112730190D01*
X187239904Y-112730190D02*
X187144666Y-112682571D01*
X187144666Y-112682571D02*
X186906571Y-112682571D01*
X186906571Y-112682571D02*
X186811333Y-112730190D01*
X186811333Y-112730190D02*
X186763714Y-112777809D01*
X186763714Y-112777809D02*
X186716095Y-112873047D01*
X186716095Y-112873047D02*
X186716095Y-113111142D01*
X186716095Y-113111142D02*
X186763714Y-113206380D01*
X186763714Y-113206380D02*
X186811333Y-113254000D01*
X186811333Y-113254000D02*
X186906571Y-113301619D01*
X186906571Y-113301619D02*
X187144666Y-113301619D01*
X187144666Y-113301619D02*
X187239904Y-113254000D01*
X187239904Y-113254000D02*
X187287523Y-113206380D01*
X186430380Y-112301619D02*
X186097047Y-113301619D01*
X186097047Y-113301619D02*
X185763714Y-112301619D01*
X183103261Y-92548119D02*
X182531833Y-92548119D01*
X182817547Y-93548119D02*
X182817547Y-92548119D01*
X182198499Y-93548119D02*
X182198499Y-92548119D01*
X182198499Y-92548119D02*
X181817547Y-92548119D01*
X181817547Y-92548119D02*
X181722309Y-92595738D01*
X181722309Y-92595738D02*
X181674690Y-92643357D01*
X181674690Y-92643357D02*
X181627071Y-92738595D01*
X181627071Y-92738595D02*
X181627071Y-92881452D01*
X181627071Y-92881452D02*
X181674690Y-92976690D01*
X181674690Y-92976690D02*
X181722309Y-93024309D01*
X181722309Y-93024309D02*
X181817547Y-93071928D01*
X181817547Y-93071928D02*
X182198499Y-93071928D01*
X180674690Y-93548119D02*
X181246118Y-93548119D01*
X180960404Y-93548119D02*
X180960404Y-92548119D01*
X180960404Y-92548119D02*
X181055642Y-92690976D01*
X181055642Y-92690976D02*
X181150880Y-92786214D01*
X181150880Y-92786214D02*
X181246118Y-92833833D01*
X180055642Y-92548119D02*
X179960404Y-92548119D01*
X179960404Y-92548119D02*
X179865166Y-92595738D01*
X179865166Y-92595738D02*
X179817547Y-92643357D01*
X179817547Y-92643357D02*
X179769928Y-92738595D01*
X179769928Y-92738595D02*
X179722309Y-92929071D01*
X179722309Y-92929071D02*
X179722309Y-93167166D01*
X179722309Y-93167166D02*
X179769928Y-93357642D01*
X179769928Y-93357642D02*
X179817547Y-93452880D01*
X179817547Y-93452880D02*
X179865166Y-93500500D01*
X179865166Y-93500500D02*
X179960404Y-93548119D01*
X179960404Y-93548119D02*
X180055642Y-93548119D01*
X180055642Y-93548119D02*
X180150880Y-93500500D01*
X180150880Y-93500500D02*
X180198499Y-93452880D01*
X180198499Y-93452880D02*
X180246118Y-93357642D01*
X180246118Y-93357642D02*
X180293737Y-93167166D01*
X180293737Y-93167166D02*
X180293737Y-92929071D01*
X180293737Y-92929071D02*
X180246118Y-92738595D01*
X180246118Y-92738595D02*
X180198499Y-92643357D01*
X180198499Y-92643357D02*
X180150880Y-92595738D01*
X180150880Y-92595738D02*
X180055642Y-92548119D01*
X132832504Y-114848019D02*
X132832504Y-113848019D01*
X132832504Y-113848019D02*
X132499171Y-114562304D01*
X132499171Y-114562304D02*
X132165838Y-113848019D01*
X132165838Y-113848019D02*
X132165838Y-114848019D01*
X131165838Y-114848019D02*
X131737266Y-114848019D01*
X131451552Y-114848019D02*
X131451552Y-113848019D01*
X131451552Y-113848019D02*
X131546790Y-113990876D01*
X131546790Y-113990876D02*
X131642028Y-114086114D01*
X131642028Y-114086114D02*
X131737266Y-114133733D01*
X165355619Y-82462095D02*
X164355619Y-82462095D01*
X164355619Y-82462095D02*
X165069904Y-82795428D01*
X165069904Y-82795428D02*
X164355619Y-83128761D01*
X164355619Y-83128761D02*
X165355619Y-83128761D01*
X165355619Y-84128761D02*
X165355619Y-83557333D01*
X165355619Y-83843047D02*
X164355619Y-83843047D01*
X164355619Y-83843047D02*
X164498476Y-83747809D01*
X164498476Y-83747809D02*
X164593714Y-83652571D01*
X164593714Y-83652571D02*
X164641333Y-83557333D01*
X165450857Y-84319238D02*
X165450857Y-85081142D01*
X165355619Y-85319238D02*
X164355619Y-85319238D01*
X165355619Y-85795428D02*
X164355619Y-85795428D01*
X164355619Y-85795428D02*
X165355619Y-86366856D01*
X165355619Y-86366856D02*
X164355619Y-86366856D01*
X164450857Y-86795428D02*
X164403238Y-86843047D01*
X164403238Y-86843047D02*
X164355619Y-86938285D01*
X164355619Y-86938285D02*
X164355619Y-87176380D01*
X164355619Y-87176380D02*
X164403238Y-87271618D01*
X164403238Y-87271618D02*
X164450857Y-87319237D01*
X164450857Y-87319237D02*
X164546095Y-87366856D01*
X164546095Y-87366856D02*
X164641333Y-87366856D01*
X164641333Y-87366856D02*
X164784190Y-87319237D01*
X164784190Y-87319237D02*
X165355619Y-86747809D01*
X165355619Y-86747809D02*
X165355619Y-87366856D01*
X151934476Y-97343619D02*
X152267809Y-96867428D01*
X152505904Y-97343619D02*
X152505904Y-96343619D01*
X152505904Y-96343619D02*
X152124952Y-96343619D01*
X152124952Y-96343619D02*
X152029714Y-96391238D01*
X152029714Y-96391238D02*
X151982095Y-96438857D01*
X151982095Y-96438857D02*
X151934476Y-96534095D01*
X151934476Y-96534095D02*
X151934476Y-96676952D01*
X151934476Y-96676952D02*
X151982095Y-96772190D01*
X151982095Y-96772190D02*
X152029714Y-96819809D01*
X152029714Y-96819809D02*
X152124952Y-96867428D01*
X152124952Y-96867428D02*
X152505904Y-96867428D01*
X151363047Y-97343619D02*
X151458285Y-97296000D01*
X151458285Y-97296000D02*
X151505904Y-97248380D01*
X151505904Y-97248380D02*
X151553523Y-97153142D01*
X151553523Y-97153142D02*
X151553523Y-96867428D01*
X151553523Y-96867428D02*
X151505904Y-96772190D01*
X151505904Y-96772190D02*
X151458285Y-96724571D01*
X151458285Y-96724571D02*
X151363047Y-96676952D01*
X151363047Y-96676952D02*
X151220190Y-96676952D01*
X151220190Y-96676952D02*
X151124952Y-96724571D01*
X151124952Y-96724571D02*
X151077333Y-96772190D01*
X151077333Y-96772190D02*
X151029714Y-96867428D01*
X151029714Y-96867428D02*
X151029714Y-97153142D01*
X151029714Y-97153142D02*
X151077333Y-97248380D01*
X151077333Y-97248380D02*
X151124952Y-97296000D01*
X151124952Y-97296000D02*
X151220190Y-97343619D01*
X151220190Y-97343619D02*
X151363047Y-97343619D01*
X150172571Y-97296000D02*
X150267809Y-97343619D01*
X150267809Y-97343619D02*
X150458285Y-97343619D01*
X150458285Y-97343619D02*
X150553523Y-97296000D01*
X150553523Y-97296000D02*
X150601142Y-97248380D01*
X150601142Y-97248380D02*
X150648761Y-97153142D01*
X150648761Y-97153142D02*
X150648761Y-96867428D01*
X150648761Y-96867428D02*
X150601142Y-96772190D01*
X150601142Y-96772190D02*
X150553523Y-96724571D01*
X150553523Y-96724571D02*
X150458285Y-96676952D01*
X150458285Y-96676952D02*
X150267809Y-96676952D01*
X150267809Y-96676952D02*
X150172571Y-96724571D01*
X149315428Y-97296000D02*
X149410666Y-97343619D01*
X149410666Y-97343619D02*
X149601142Y-97343619D01*
X149601142Y-97343619D02*
X149696380Y-97296000D01*
X149696380Y-97296000D02*
X149743999Y-97248380D01*
X149743999Y-97248380D02*
X149791618Y-97153142D01*
X149791618Y-97153142D02*
X149791618Y-96867428D01*
X149791618Y-96867428D02*
X149743999Y-96772190D01*
X149743999Y-96772190D02*
X149696380Y-96724571D01*
X149696380Y-96724571D02*
X149601142Y-96676952D01*
X149601142Y-96676952D02*
X149410666Y-96676952D01*
X149410666Y-96676952D02*
X149315428Y-96724571D01*
X148886856Y-97343619D02*
X148886856Y-96676952D01*
X148886856Y-96343619D02*
X148934475Y-96391238D01*
X148934475Y-96391238D02*
X148886856Y-96438857D01*
X148886856Y-96438857D02*
X148839237Y-96391238D01*
X148839237Y-96391238D02*
X148886856Y-96343619D01*
X148886856Y-96343619D02*
X148886856Y-96438857D01*
X148077333Y-96819809D02*
X147934476Y-96867428D01*
X147934476Y-96867428D02*
X147886857Y-96915047D01*
X147886857Y-96915047D02*
X147839238Y-97010285D01*
X147839238Y-97010285D02*
X147839238Y-97153142D01*
X147839238Y-97153142D02*
X147886857Y-97248380D01*
X147886857Y-97248380D02*
X147934476Y-97296000D01*
X147934476Y-97296000D02*
X148029714Y-97343619D01*
X148029714Y-97343619D02*
X148410666Y-97343619D01*
X148410666Y-97343619D02*
X148410666Y-96343619D01*
X148410666Y-96343619D02*
X148077333Y-96343619D01*
X148077333Y-96343619D02*
X147982095Y-96391238D01*
X147982095Y-96391238D02*
X147934476Y-96438857D01*
X147934476Y-96438857D02*
X147886857Y-96534095D01*
X147886857Y-96534095D02*
X147886857Y-96629333D01*
X147886857Y-96629333D02*
X147934476Y-96724571D01*
X147934476Y-96724571D02*
X147982095Y-96772190D01*
X147982095Y-96772190D02*
X148077333Y-96819809D01*
X148077333Y-96819809D02*
X148410666Y-96819809D01*
X147267809Y-97343619D02*
X147363047Y-97296000D01*
X147363047Y-97296000D02*
X147410666Y-97248380D01*
X147410666Y-97248380D02*
X147458285Y-97153142D01*
X147458285Y-97153142D02*
X147458285Y-96867428D01*
X147458285Y-96867428D02*
X147410666Y-96772190D01*
X147410666Y-96772190D02*
X147363047Y-96724571D01*
X147363047Y-96724571D02*
X147267809Y-96676952D01*
X147267809Y-96676952D02*
X147124952Y-96676952D01*
X147124952Y-96676952D02*
X147029714Y-96724571D01*
X147029714Y-96724571D02*
X146982095Y-96772190D01*
X146982095Y-96772190D02*
X146934476Y-96867428D01*
X146934476Y-96867428D02*
X146934476Y-97153142D01*
X146934476Y-97153142D02*
X146982095Y-97248380D01*
X146982095Y-97248380D02*
X147029714Y-97296000D01*
X147029714Y-97296000D02*
X147124952Y-97343619D01*
X147124952Y-97343619D02*
X147267809Y-97343619D01*
X146077333Y-97343619D02*
X146077333Y-96819809D01*
X146077333Y-96819809D02*
X146124952Y-96724571D01*
X146124952Y-96724571D02*
X146220190Y-96676952D01*
X146220190Y-96676952D02*
X146410666Y-96676952D01*
X146410666Y-96676952D02*
X146505904Y-96724571D01*
X146077333Y-97296000D02*
X146172571Y-97343619D01*
X146172571Y-97343619D02*
X146410666Y-97343619D01*
X146410666Y-97343619D02*
X146505904Y-97296000D01*
X146505904Y-97296000D02*
X146553523Y-97200761D01*
X146553523Y-97200761D02*
X146553523Y-97105523D01*
X146553523Y-97105523D02*
X146505904Y-97010285D01*
X146505904Y-97010285D02*
X146410666Y-96962666D01*
X146410666Y-96962666D02*
X146172571Y-96962666D01*
X146172571Y-96962666D02*
X146077333Y-96915047D01*
X145601142Y-97343619D02*
X145601142Y-96676952D01*
X145601142Y-96867428D02*
X145553523Y-96772190D01*
X145553523Y-96772190D02*
X145505904Y-96724571D01*
X145505904Y-96724571D02*
X145410666Y-96676952D01*
X145410666Y-96676952D02*
X145315428Y-96676952D01*
X144553523Y-97343619D02*
X144553523Y-96343619D01*
X144553523Y-97296000D02*
X144648761Y-97343619D01*
X144648761Y-97343619D02*
X144839237Y-97343619D01*
X144839237Y-97343619D02*
X144934475Y-97296000D01*
X144934475Y-97296000D02*
X144982094Y-97248380D01*
X144982094Y-97248380D02*
X145029713Y-97153142D01*
X145029713Y-97153142D02*
X145029713Y-96867428D01*
X145029713Y-96867428D02*
X144982094Y-96772190D01*
X144982094Y-96772190D02*
X144934475Y-96724571D01*
X144934475Y-96724571D02*
X144839237Y-96676952D01*
X144839237Y-96676952D02*
X144648761Y-96676952D01*
X144648761Y-96676952D02*
X144553523Y-96724571D01*
X143458284Y-96343619D02*
X143124951Y-97343619D01*
X143124951Y-97343619D02*
X142791618Y-96343619D01*
X141934475Y-97343619D02*
X142505903Y-97343619D01*
X142220189Y-97343619D02*
X142220189Y-96343619D01*
X142220189Y-96343619D02*
X142315427Y-96486476D01*
X142315427Y-96486476D02*
X142410665Y-96581714D01*
X142410665Y-96581714D02*
X142505903Y-96629333D01*
X141505903Y-97248380D02*
X141458284Y-97296000D01*
X141458284Y-97296000D02*
X141505903Y-97343619D01*
X141505903Y-97343619D02*
X141553522Y-97296000D01*
X141553522Y-97296000D02*
X141505903Y-97248380D01*
X141505903Y-97248380D02*
X141505903Y-97343619D01*
X140839237Y-96343619D02*
X140743999Y-96343619D01*
X140743999Y-96343619D02*
X140648761Y-96391238D01*
X140648761Y-96391238D02*
X140601142Y-96438857D01*
X140601142Y-96438857D02*
X140553523Y-96534095D01*
X140553523Y-96534095D02*
X140505904Y-96724571D01*
X140505904Y-96724571D02*
X140505904Y-96962666D01*
X140505904Y-96962666D02*
X140553523Y-97153142D01*
X140553523Y-97153142D02*
X140601142Y-97248380D01*
X140601142Y-97248380D02*
X140648761Y-97296000D01*
X140648761Y-97296000D02*
X140743999Y-97343619D01*
X140743999Y-97343619D02*
X140839237Y-97343619D01*
X140839237Y-97343619D02*
X140934475Y-97296000D01*
X140934475Y-97296000D02*
X140982094Y-97248380D01*
X140982094Y-97248380D02*
X141029713Y-97153142D01*
X141029713Y-97153142D02*
X141077332Y-96962666D01*
X141077332Y-96962666D02*
X141077332Y-96724571D01*
X141077332Y-96724571D02*
X141029713Y-96534095D01*
X141029713Y-96534095D02*
X140982094Y-96438857D01*
X140982094Y-96438857D02*
X140934475Y-96391238D01*
X140934475Y-96391238D02*
X140839237Y-96343619D01*
X188116095Y-114949238D02*
X188211333Y-114901619D01*
X188211333Y-114901619D02*
X188354190Y-114901619D01*
X188354190Y-114901619D02*
X188497047Y-114949238D01*
X188497047Y-114949238D02*
X188592285Y-115044476D01*
X188592285Y-115044476D02*
X188639904Y-115139714D01*
X188639904Y-115139714D02*
X188687523Y-115330190D01*
X188687523Y-115330190D02*
X188687523Y-115473047D01*
X188687523Y-115473047D02*
X188639904Y-115663523D01*
X188639904Y-115663523D02*
X188592285Y-115758761D01*
X188592285Y-115758761D02*
X188497047Y-115854000D01*
X188497047Y-115854000D02*
X188354190Y-115901619D01*
X188354190Y-115901619D02*
X188258952Y-115901619D01*
X188258952Y-115901619D02*
X188116095Y-115854000D01*
X188116095Y-115854000D02*
X188068476Y-115806380D01*
X188068476Y-115806380D02*
X188068476Y-115473047D01*
X188068476Y-115473047D02*
X188258952Y-115473047D01*
X187639904Y-115901619D02*
X187639904Y-114901619D01*
X187639904Y-114901619D02*
X187068476Y-115901619D01*
X187068476Y-115901619D02*
X187068476Y-114901619D01*
X186592285Y-115901619D02*
X186592285Y-114901619D01*
X186592285Y-114901619D02*
X186354190Y-114901619D01*
X186354190Y-114901619D02*
X186211333Y-114949238D01*
X186211333Y-114949238D02*
X186116095Y-115044476D01*
X186116095Y-115044476D02*
X186068476Y-115139714D01*
X186068476Y-115139714D02*
X186020857Y-115330190D01*
X186020857Y-115330190D02*
X186020857Y-115473047D01*
X186020857Y-115473047D02*
X186068476Y-115663523D01*
X186068476Y-115663523D02*
X186116095Y-115758761D01*
X186116095Y-115758761D02*
X186211333Y-115854000D01*
X186211333Y-115854000D02*
X186354190Y-115901619D01*
X186354190Y-115901619D02*
X186592285Y-115901619D01*
X166755619Y-86785904D02*
X166755619Y-86214476D01*
X166755619Y-86500190D02*
X165755619Y-86500190D01*
X165755619Y-86500190D02*
X165898476Y-86404952D01*
X165898476Y-86404952D02*
X165993714Y-86309714D01*
X165993714Y-86309714D02*
X166041333Y-86214476D01*
X165850857Y-87166857D02*
X165803238Y-87214476D01*
X165803238Y-87214476D02*
X165755619Y-87309714D01*
X165755619Y-87309714D02*
X165755619Y-87547809D01*
X165755619Y-87547809D02*
X165803238Y-87643047D01*
X165803238Y-87643047D02*
X165850857Y-87690666D01*
X165850857Y-87690666D02*
X165946095Y-87738285D01*
X165946095Y-87738285D02*
X166041333Y-87738285D01*
X166041333Y-87738285D02*
X166184190Y-87690666D01*
X166184190Y-87690666D02*
X166755619Y-87119238D01*
X166755619Y-87119238D02*
X166755619Y-87738285D01*
X165755619Y-88024000D02*
X166755619Y-88357333D01*
X166755619Y-88357333D02*
X165755619Y-88690666D01*
X127371504Y-104129219D02*
X127371504Y-103129219D01*
X127371504Y-103129219D02*
X127038171Y-103843504D01*
X127038171Y-103843504D02*
X126704838Y-103129219D01*
X126704838Y-103129219D02*
X126704838Y-104129219D01*
X126276266Y-103224457D02*
X126228647Y-103176838D01*
X126228647Y-103176838D02*
X126133409Y-103129219D01*
X126133409Y-103129219D02*
X125895314Y-103129219D01*
X125895314Y-103129219D02*
X125800076Y-103176838D01*
X125800076Y-103176838D02*
X125752457Y-103224457D01*
X125752457Y-103224457D02*
X125704838Y-103319695D01*
X125704838Y-103319695D02*
X125704838Y-103414933D01*
X125704838Y-103414933D02*
X125752457Y-103557790D01*
X125752457Y-103557790D02*
X126323885Y-104129219D01*
X126323885Y-104129219D02*
X125704838Y-104129219D01*
X125514362Y-104224457D02*
X124752457Y-104224457D01*
X124514361Y-104129219D02*
X124514361Y-103129219D01*
X124038171Y-104129219D02*
X124038171Y-103129219D01*
X124038171Y-103129219D02*
X123466743Y-104129219D01*
X123466743Y-104129219D02*
X123466743Y-103129219D01*
X123038171Y-103224457D02*
X122990552Y-103176838D01*
X122990552Y-103176838D02*
X122895314Y-103129219D01*
X122895314Y-103129219D02*
X122657219Y-103129219D01*
X122657219Y-103129219D02*
X122561981Y-103176838D01*
X122561981Y-103176838D02*
X122514362Y-103224457D01*
X122514362Y-103224457D02*
X122466743Y-103319695D01*
X122466743Y-103319695D02*
X122466743Y-103414933D01*
X122466743Y-103414933D02*
X122514362Y-103557790D01*
X122514362Y-103557790D02*
X123085790Y-104129219D01*
X123085790Y-104129219D02*
X122466743Y-104129219D01*
X204691142Y-119747619D02*
X204072095Y-119747619D01*
X204072095Y-119747619D02*
X204405428Y-120128571D01*
X204405428Y-120128571D02*
X204262571Y-120128571D01*
X204262571Y-120128571D02*
X204167333Y-120176190D01*
X204167333Y-120176190D02*
X204119714Y-120223809D01*
X204119714Y-120223809D02*
X204072095Y-120319047D01*
X204072095Y-120319047D02*
X204072095Y-120557142D01*
X204072095Y-120557142D02*
X204119714Y-120652380D01*
X204119714Y-120652380D02*
X204167333Y-120700000D01*
X204167333Y-120700000D02*
X204262571Y-120747619D01*
X204262571Y-120747619D02*
X204548285Y-120747619D01*
X204548285Y-120747619D02*
X204643523Y-120700000D01*
X204643523Y-120700000D02*
X204691142Y-120652380D01*
X203595904Y-120700000D02*
X203595904Y-120747619D01*
X203595904Y-120747619D02*
X203643523Y-120842857D01*
X203643523Y-120842857D02*
X203691142Y-120890476D01*
X203262571Y-119747619D02*
X202643524Y-119747619D01*
X202643524Y-119747619D02*
X202976857Y-120128571D01*
X202976857Y-120128571D02*
X202834000Y-120128571D01*
X202834000Y-120128571D02*
X202738762Y-120176190D01*
X202738762Y-120176190D02*
X202691143Y-120223809D01*
X202691143Y-120223809D02*
X202643524Y-120319047D01*
X202643524Y-120319047D02*
X202643524Y-120557142D01*
X202643524Y-120557142D02*
X202691143Y-120652380D01*
X202691143Y-120652380D02*
X202738762Y-120700000D01*
X202738762Y-120700000D02*
X202834000Y-120747619D01*
X202834000Y-120747619D02*
X203119714Y-120747619D01*
X203119714Y-120747619D02*
X203214952Y-120700000D01*
X203214952Y-120700000D02*
X203262571Y-120652380D01*
X202357809Y-119747619D02*
X202024476Y-120747619D01*
X202024476Y-120747619D02*
X201691143Y-119747619D01*
X127904904Y-111977819D02*
X127904904Y-110977819D01*
X127904904Y-110977819D02*
X127571571Y-111692104D01*
X127571571Y-111692104D02*
X127238238Y-110977819D01*
X127238238Y-110977819D02*
X127238238Y-111977819D01*
X126238238Y-111977819D02*
X126809666Y-111977819D01*
X126523952Y-111977819D02*
X126523952Y-110977819D01*
X126523952Y-110977819D02*
X126619190Y-111120676D01*
X126619190Y-111120676D02*
X126714428Y-111215914D01*
X126714428Y-111215914D02*
X126809666Y-111263533D01*
X126047762Y-112073057D02*
X125285857Y-112073057D01*
X125047761Y-111977819D02*
X125047761Y-110977819D01*
X124571571Y-111977819D02*
X124571571Y-110977819D01*
X124571571Y-110977819D02*
X124000143Y-111977819D01*
X124000143Y-111977819D02*
X124000143Y-110977819D01*
X123571571Y-111073057D02*
X123523952Y-111025438D01*
X123523952Y-111025438D02*
X123428714Y-110977819D01*
X123428714Y-110977819D02*
X123190619Y-110977819D01*
X123190619Y-110977819D02*
X123095381Y-111025438D01*
X123095381Y-111025438D02*
X123047762Y-111073057D01*
X123047762Y-111073057D02*
X123000143Y-111168295D01*
X123000143Y-111168295D02*
X123000143Y-111263533D01*
X123000143Y-111263533D02*
X123047762Y-111406390D01*
X123047762Y-111406390D02*
X123619190Y-111977819D01*
X123619190Y-111977819D02*
X123000143Y-111977819D01*
X127447704Y-97271219D02*
X127447704Y-96271219D01*
X127447704Y-96271219D02*
X127114371Y-96985504D01*
X127114371Y-96985504D02*
X126781038Y-96271219D01*
X126781038Y-96271219D02*
X126781038Y-97271219D01*
X126400085Y-96271219D02*
X125781038Y-96271219D01*
X125781038Y-96271219D02*
X126114371Y-96652171D01*
X126114371Y-96652171D02*
X125971514Y-96652171D01*
X125971514Y-96652171D02*
X125876276Y-96699790D01*
X125876276Y-96699790D02*
X125828657Y-96747409D01*
X125828657Y-96747409D02*
X125781038Y-96842647D01*
X125781038Y-96842647D02*
X125781038Y-97080742D01*
X125781038Y-97080742D02*
X125828657Y-97175980D01*
X125828657Y-97175980D02*
X125876276Y-97223600D01*
X125876276Y-97223600D02*
X125971514Y-97271219D01*
X125971514Y-97271219D02*
X126257228Y-97271219D01*
X126257228Y-97271219D02*
X126352466Y-97223600D01*
X126352466Y-97223600D02*
X126400085Y-97175980D01*
X125590562Y-97366457D02*
X124828657Y-97366457D01*
X124590561Y-97271219D02*
X124590561Y-96271219D01*
X124114371Y-97271219D02*
X124114371Y-96271219D01*
X124114371Y-96271219D02*
X123542943Y-97271219D01*
X123542943Y-97271219D02*
X123542943Y-96271219D01*
X123114371Y-96366457D02*
X123066752Y-96318838D01*
X123066752Y-96318838D02*
X122971514Y-96271219D01*
X122971514Y-96271219D02*
X122733419Y-96271219D01*
X122733419Y-96271219D02*
X122638181Y-96318838D01*
X122638181Y-96318838D02*
X122590562Y-96366457D01*
X122590562Y-96366457D02*
X122542943Y-96461695D01*
X122542943Y-96461695D02*
X122542943Y-96556933D01*
X122542943Y-96556933D02*
X122590562Y-96699790D01*
X122590562Y-96699790D02*
X123161990Y-97271219D01*
X123161990Y-97271219D02*
X122542943Y-97271219D01*
X171355619Y-82462095D02*
X170355619Y-82462095D01*
X170355619Y-82462095D02*
X171069904Y-82795428D01*
X171069904Y-82795428D02*
X170355619Y-83128761D01*
X170355619Y-83128761D02*
X171355619Y-83128761D01*
X170355619Y-83795428D02*
X170355619Y-83890666D01*
X170355619Y-83890666D02*
X170403238Y-83985904D01*
X170403238Y-83985904D02*
X170450857Y-84033523D01*
X170450857Y-84033523D02*
X170546095Y-84081142D01*
X170546095Y-84081142D02*
X170736571Y-84128761D01*
X170736571Y-84128761D02*
X170974666Y-84128761D01*
X170974666Y-84128761D02*
X171165142Y-84081142D01*
X171165142Y-84081142D02*
X171260380Y-84033523D01*
X171260380Y-84033523D02*
X171308000Y-83985904D01*
X171308000Y-83985904D02*
X171355619Y-83890666D01*
X171355619Y-83890666D02*
X171355619Y-83795428D01*
X171355619Y-83795428D02*
X171308000Y-83700190D01*
X171308000Y-83700190D02*
X171260380Y-83652571D01*
X171260380Y-83652571D02*
X171165142Y-83604952D01*
X171165142Y-83604952D02*
X170974666Y-83557333D01*
X170974666Y-83557333D02*
X170736571Y-83557333D01*
X170736571Y-83557333D02*
X170546095Y-83604952D01*
X170546095Y-83604952D02*
X170450857Y-83652571D01*
X170450857Y-83652571D02*
X170403238Y-83700190D01*
X170403238Y-83700190D02*
X170355619Y-83795428D01*
X171450857Y-84319238D02*
X171450857Y-85081142D01*
X171355619Y-85319238D02*
X170355619Y-85319238D01*
X171355619Y-85795428D02*
X170355619Y-85795428D01*
X170355619Y-85795428D02*
X171355619Y-86366856D01*
X171355619Y-86366856D02*
X170355619Y-86366856D01*
X170450857Y-86795428D02*
X170403238Y-86843047D01*
X170403238Y-86843047D02*
X170355619Y-86938285D01*
X170355619Y-86938285D02*
X170355619Y-87176380D01*
X170355619Y-87176380D02*
X170403238Y-87271618D01*
X170403238Y-87271618D02*
X170450857Y-87319237D01*
X170450857Y-87319237D02*
X170546095Y-87366856D01*
X170546095Y-87366856D02*
X170641333Y-87366856D01*
X170641333Y-87366856D02*
X170784190Y-87319237D01*
X170784190Y-87319237D02*
X171355619Y-86747809D01*
X171355619Y-86747809D02*
X171355619Y-87366856D01*
X208519714Y-109147619D02*
X208995904Y-109147619D01*
X208995904Y-109147619D02*
X209043523Y-109623809D01*
X209043523Y-109623809D02*
X208995904Y-109576190D01*
X208995904Y-109576190D02*
X208900666Y-109528571D01*
X208900666Y-109528571D02*
X208662571Y-109528571D01*
X208662571Y-109528571D02*
X208567333Y-109576190D01*
X208567333Y-109576190D02*
X208519714Y-109623809D01*
X208519714Y-109623809D02*
X208472095Y-109719047D01*
X208472095Y-109719047D02*
X208472095Y-109957142D01*
X208472095Y-109957142D02*
X208519714Y-110052380D01*
X208519714Y-110052380D02*
X208567333Y-110100000D01*
X208567333Y-110100000D02*
X208662571Y-110147619D01*
X208662571Y-110147619D02*
X208900666Y-110147619D01*
X208900666Y-110147619D02*
X208995904Y-110100000D01*
X208995904Y-110100000D02*
X209043523Y-110052380D01*
X208186380Y-109147619D02*
X207853047Y-110147619D01*
X207853047Y-110147619D02*
X207519714Y-109147619D01*
X127117504Y-108980619D02*
X127117504Y-107980619D01*
X127117504Y-107980619D02*
X126784171Y-108694904D01*
X126784171Y-108694904D02*
X126450838Y-107980619D01*
X126450838Y-107980619D02*
X126450838Y-108980619D01*
X126022266Y-108075857D02*
X125974647Y-108028238D01*
X125974647Y-108028238D02*
X125879409Y-107980619D01*
X125879409Y-107980619D02*
X125641314Y-107980619D01*
X125641314Y-107980619D02*
X125546076Y-108028238D01*
X125546076Y-108028238D02*
X125498457Y-108075857D01*
X125498457Y-108075857D02*
X125450838Y-108171095D01*
X125450838Y-108171095D02*
X125450838Y-108266333D01*
X125450838Y-108266333D02*
X125498457Y-108409190D01*
X125498457Y-108409190D02*
X126069885Y-108980619D01*
X126069885Y-108980619D02*
X125450838Y-108980619D01*
X125260362Y-109075857D02*
X124498457Y-109075857D01*
X124260361Y-108980619D02*
X124260361Y-107980619D01*
X123784171Y-108980619D02*
X123784171Y-107980619D01*
X123784171Y-107980619D02*
X123212743Y-108980619D01*
X123212743Y-108980619D02*
X123212743Y-107980619D01*
X122212743Y-108980619D02*
X122784171Y-108980619D01*
X122498457Y-108980619D02*
X122498457Y-107980619D01*
X122498457Y-107980619D02*
X122593695Y-108123476D01*
X122593695Y-108123476D02*
X122688933Y-108218714D01*
X122688933Y-108218714D02*
X122784171Y-108266333D01*
X161755619Y-82462095D02*
X160755619Y-82462095D01*
X160755619Y-82462095D02*
X161469904Y-82795428D01*
X161469904Y-82795428D02*
X160755619Y-83128761D01*
X160755619Y-83128761D02*
X161755619Y-83128761D01*
X161755619Y-84128761D02*
X161755619Y-83557333D01*
X161755619Y-83843047D02*
X160755619Y-83843047D01*
X160755619Y-83843047D02*
X160898476Y-83747809D01*
X160898476Y-83747809D02*
X160993714Y-83652571D01*
X160993714Y-83652571D02*
X161041333Y-83557333D01*
X161850857Y-84319238D02*
X161850857Y-85081142D01*
X161755619Y-85319238D02*
X160755619Y-85319238D01*
X161755619Y-85795428D02*
X160755619Y-85795428D01*
X160755619Y-85795428D02*
X161755619Y-86366856D01*
X161755619Y-86366856D02*
X160755619Y-86366856D01*
X160850857Y-86795428D02*
X160803238Y-86843047D01*
X160803238Y-86843047D02*
X160755619Y-86938285D01*
X160755619Y-86938285D02*
X160755619Y-87176380D01*
X160755619Y-87176380D02*
X160803238Y-87271618D01*
X160803238Y-87271618D02*
X160850857Y-87319237D01*
X160850857Y-87319237D02*
X160946095Y-87366856D01*
X160946095Y-87366856D02*
X161041333Y-87366856D01*
X161041333Y-87366856D02*
X161184190Y-87319237D01*
X161184190Y-87319237D02*
X161755619Y-86747809D01*
X161755619Y-86747809D02*
X161755619Y-87366856D01*
X166387809Y-123641428D02*
X166435428Y-123784285D01*
X166435428Y-123784285D02*
X166483047Y-123831904D01*
X166483047Y-123831904D02*
X166578285Y-123879523D01*
X166578285Y-123879523D02*
X166721142Y-123879523D01*
X166721142Y-123879523D02*
X166816380Y-123831904D01*
X166816380Y-123831904D02*
X166864000Y-123784285D01*
X166864000Y-123784285D02*
X166911619Y-123689047D01*
X166911619Y-123689047D02*
X166911619Y-123308095D01*
X166911619Y-123308095D02*
X165911619Y-123308095D01*
X165911619Y-123308095D02*
X165911619Y-123641428D01*
X165911619Y-123641428D02*
X165959238Y-123736666D01*
X165959238Y-123736666D02*
X166006857Y-123784285D01*
X166006857Y-123784285D02*
X166102095Y-123831904D01*
X166102095Y-123831904D02*
X166197333Y-123831904D01*
X166197333Y-123831904D02*
X166292571Y-123784285D01*
X166292571Y-123784285D02*
X166340190Y-123736666D01*
X166340190Y-123736666D02*
X166387809Y-123641428D01*
X166387809Y-123641428D02*
X166387809Y-123308095D01*
X166625904Y-124260476D02*
X166625904Y-124736666D01*
X166911619Y-124165238D02*
X165911619Y-124498571D01*
X165911619Y-124498571D02*
X166911619Y-124831904D01*
X165911619Y-125022381D02*
X165911619Y-125593809D01*
X166911619Y-125308095D02*
X165911619Y-125308095D01*
X168355619Y-82462095D02*
X167355619Y-82462095D01*
X167355619Y-82462095D02*
X168069904Y-82795428D01*
X168069904Y-82795428D02*
X167355619Y-83128761D01*
X167355619Y-83128761D02*
X168355619Y-83128761D01*
X167355619Y-83795428D02*
X167355619Y-83890666D01*
X167355619Y-83890666D02*
X167403238Y-83985904D01*
X167403238Y-83985904D02*
X167450857Y-84033523D01*
X167450857Y-84033523D02*
X167546095Y-84081142D01*
X167546095Y-84081142D02*
X167736571Y-84128761D01*
X167736571Y-84128761D02*
X167974666Y-84128761D01*
X167974666Y-84128761D02*
X168165142Y-84081142D01*
X168165142Y-84081142D02*
X168260380Y-84033523D01*
X168260380Y-84033523D02*
X168308000Y-83985904D01*
X168308000Y-83985904D02*
X168355619Y-83890666D01*
X168355619Y-83890666D02*
X168355619Y-83795428D01*
X168355619Y-83795428D02*
X168308000Y-83700190D01*
X168308000Y-83700190D02*
X168260380Y-83652571D01*
X168260380Y-83652571D02*
X168165142Y-83604952D01*
X168165142Y-83604952D02*
X167974666Y-83557333D01*
X167974666Y-83557333D02*
X167736571Y-83557333D01*
X167736571Y-83557333D02*
X167546095Y-83604952D01*
X167546095Y-83604952D02*
X167450857Y-83652571D01*
X167450857Y-83652571D02*
X167403238Y-83700190D01*
X167403238Y-83700190D02*
X167355619Y-83795428D01*
X168450857Y-84319238D02*
X168450857Y-85081142D01*
X168355619Y-85319238D02*
X167355619Y-85319238D01*
X168355619Y-85795428D02*
X167355619Y-85795428D01*
X167355619Y-85795428D02*
X168355619Y-86366856D01*
X168355619Y-86366856D02*
X167355619Y-86366856D01*
X167450857Y-86795428D02*
X167403238Y-86843047D01*
X167403238Y-86843047D02*
X167355619Y-86938285D01*
X167355619Y-86938285D02*
X167355619Y-87176380D01*
X167355619Y-87176380D02*
X167403238Y-87271618D01*
X167403238Y-87271618D02*
X167450857Y-87319237D01*
X167450857Y-87319237D02*
X167546095Y-87366856D01*
X167546095Y-87366856D02*
X167641333Y-87366856D01*
X167641333Y-87366856D02*
X167784190Y-87319237D01*
X167784190Y-87319237D02*
X168355619Y-86747809D01*
X168355619Y-86747809D02*
X168355619Y-87366856D01*
X192535142Y-125101619D02*
X191916095Y-125101619D01*
X191916095Y-125101619D02*
X192249428Y-125482571D01*
X192249428Y-125482571D02*
X192106571Y-125482571D01*
X192106571Y-125482571D02*
X192011333Y-125530190D01*
X192011333Y-125530190D02*
X191963714Y-125577809D01*
X191963714Y-125577809D02*
X191916095Y-125673047D01*
X191916095Y-125673047D02*
X191916095Y-125911142D01*
X191916095Y-125911142D02*
X191963714Y-126006380D01*
X191963714Y-126006380D02*
X192011333Y-126054000D01*
X192011333Y-126054000D02*
X192106571Y-126101619D01*
X192106571Y-126101619D02*
X192392285Y-126101619D01*
X192392285Y-126101619D02*
X192487523Y-126054000D01*
X192487523Y-126054000D02*
X192535142Y-126006380D01*
X191439904Y-126054000D02*
X191439904Y-126101619D01*
X191439904Y-126101619D02*
X191487523Y-126196857D01*
X191487523Y-126196857D02*
X191535142Y-126244476D01*
X191106571Y-125101619D02*
X190487524Y-125101619D01*
X190487524Y-125101619D02*
X190820857Y-125482571D01*
X190820857Y-125482571D02*
X190678000Y-125482571D01*
X190678000Y-125482571D02*
X190582762Y-125530190D01*
X190582762Y-125530190D02*
X190535143Y-125577809D01*
X190535143Y-125577809D02*
X190487524Y-125673047D01*
X190487524Y-125673047D02*
X190487524Y-125911142D01*
X190487524Y-125911142D02*
X190535143Y-126006380D01*
X190535143Y-126006380D02*
X190582762Y-126054000D01*
X190582762Y-126054000D02*
X190678000Y-126101619D01*
X190678000Y-126101619D02*
X190963714Y-126101619D01*
X190963714Y-126101619D02*
X191058952Y-126054000D01*
X191058952Y-126054000D02*
X191106571Y-126006380D01*
X190201809Y-125101619D02*
X189868476Y-126101619D01*
X189868476Y-126101619D02*
X189535143Y-125101619D01*
X137895619Y-126919238D02*
X138895619Y-127252571D01*
X138895619Y-127252571D02*
X137895619Y-127585904D01*
X138800380Y-128490666D02*
X138848000Y-128443047D01*
X138848000Y-128443047D02*
X138895619Y-128300190D01*
X138895619Y-128300190D02*
X138895619Y-128204952D01*
X138895619Y-128204952D02*
X138848000Y-128062095D01*
X138848000Y-128062095D02*
X138752761Y-127966857D01*
X138752761Y-127966857D02*
X138657523Y-127919238D01*
X138657523Y-127919238D02*
X138467047Y-127871619D01*
X138467047Y-127871619D02*
X138324190Y-127871619D01*
X138324190Y-127871619D02*
X138133714Y-127919238D01*
X138133714Y-127919238D02*
X138038476Y-127966857D01*
X138038476Y-127966857D02*
X137943238Y-128062095D01*
X137943238Y-128062095D02*
X137895619Y-128204952D01*
X137895619Y-128204952D02*
X137895619Y-128300190D01*
X137895619Y-128300190D02*
X137943238Y-128443047D01*
X137943238Y-128443047D02*
X137990857Y-128490666D01*
X138800380Y-129490666D02*
X138848000Y-129443047D01*
X138848000Y-129443047D02*
X138895619Y-129300190D01*
X138895619Y-129300190D02*
X138895619Y-129204952D01*
X138895619Y-129204952D02*
X138848000Y-129062095D01*
X138848000Y-129062095D02*
X138752761Y-128966857D01*
X138752761Y-128966857D02*
X138657523Y-128919238D01*
X138657523Y-128919238D02*
X138467047Y-128871619D01*
X138467047Y-128871619D02*
X138324190Y-128871619D01*
X138324190Y-128871619D02*
X138133714Y-128919238D01*
X138133714Y-128919238D02*
X138038476Y-128966857D01*
X138038476Y-128966857D02*
X137943238Y-129062095D01*
X137943238Y-129062095D02*
X137895619Y-129204952D01*
X137895619Y-129204952D02*
X137895619Y-129300190D01*
X137895619Y-129300190D02*
X137943238Y-129443047D01*
X137943238Y-129443047D02*
X137990857Y-129490666D01*
X140468000Y-127014476D02*
X140515619Y-127157333D01*
X140515619Y-127157333D02*
X140515619Y-127395428D01*
X140515619Y-127395428D02*
X140468000Y-127490666D01*
X140468000Y-127490666D02*
X140420380Y-127538285D01*
X140420380Y-127538285D02*
X140325142Y-127585904D01*
X140325142Y-127585904D02*
X140229904Y-127585904D01*
X140229904Y-127585904D02*
X140134666Y-127538285D01*
X140134666Y-127538285D02*
X140087047Y-127490666D01*
X140087047Y-127490666D02*
X140039428Y-127395428D01*
X140039428Y-127395428D02*
X139991809Y-127204952D01*
X139991809Y-127204952D02*
X139944190Y-127109714D01*
X139944190Y-127109714D02*
X139896571Y-127062095D01*
X139896571Y-127062095D02*
X139801333Y-127014476D01*
X139801333Y-127014476D02*
X139706095Y-127014476D01*
X139706095Y-127014476D02*
X139610857Y-127062095D01*
X139610857Y-127062095D02*
X139563238Y-127109714D01*
X139563238Y-127109714D02*
X139515619Y-127204952D01*
X139515619Y-127204952D02*
X139515619Y-127443047D01*
X139515619Y-127443047D02*
X139563238Y-127585904D01*
X140420380Y-128585904D02*
X140468000Y-128538285D01*
X140468000Y-128538285D02*
X140515619Y-128395428D01*
X140515619Y-128395428D02*
X140515619Y-128300190D01*
X140515619Y-128300190D02*
X140468000Y-128157333D01*
X140468000Y-128157333D02*
X140372761Y-128062095D01*
X140372761Y-128062095D02*
X140277523Y-128014476D01*
X140277523Y-128014476D02*
X140087047Y-127966857D01*
X140087047Y-127966857D02*
X139944190Y-127966857D01*
X139944190Y-127966857D02*
X139753714Y-128014476D01*
X139753714Y-128014476D02*
X139658476Y-128062095D01*
X139658476Y-128062095D02*
X139563238Y-128157333D01*
X139563238Y-128157333D02*
X139515619Y-128300190D01*
X139515619Y-128300190D02*
X139515619Y-128395428D01*
X139515619Y-128395428D02*
X139563238Y-128538285D01*
X139563238Y-128538285D02*
X139610857Y-128585904D01*
X140515619Y-129490666D02*
X140515619Y-129014476D01*
X140515619Y-129014476D02*
X139515619Y-129014476D01*
X141183238Y-127585904D02*
X141135619Y-127490666D01*
X141135619Y-127490666D02*
X141135619Y-127347809D01*
X141135619Y-127347809D02*
X141183238Y-127204952D01*
X141183238Y-127204952D02*
X141278476Y-127109714D01*
X141278476Y-127109714D02*
X141373714Y-127062095D01*
X141373714Y-127062095D02*
X141564190Y-127014476D01*
X141564190Y-127014476D02*
X141707047Y-127014476D01*
X141707047Y-127014476D02*
X141897523Y-127062095D01*
X141897523Y-127062095D02*
X141992761Y-127109714D01*
X141992761Y-127109714D02*
X142088000Y-127204952D01*
X142088000Y-127204952D02*
X142135619Y-127347809D01*
X142135619Y-127347809D02*
X142135619Y-127443047D01*
X142135619Y-127443047D02*
X142088000Y-127585904D01*
X142088000Y-127585904D02*
X142040380Y-127633523D01*
X142040380Y-127633523D02*
X141707047Y-127633523D01*
X141707047Y-127633523D02*
X141707047Y-127443047D01*
X142135619Y-128062095D02*
X141135619Y-128062095D01*
X141135619Y-128062095D02*
X142135619Y-128633523D01*
X142135619Y-128633523D02*
X141135619Y-128633523D01*
X142135619Y-129109714D02*
X141135619Y-129109714D01*
X141135619Y-129109714D02*
X141135619Y-129347809D01*
X141135619Y-129347809D02*
X141183238Y-129490666D01*
X141183238Y-129490666D02*
X141278476Y-129585904D01*
X141278476Y-129585904D02*
X141373714Y-129633523D01*
X141373714Y-129633523D02*
X141564190Y-129681142D01*
X141564190Y-129681142D02*
X141707047Y-129681142D01*
X141707047Y-129681142D02*
X141897523Y-129633523D01*
X141897523Y-129633523D02*
X141992761Y-129585904D01*
X141992761Y-129585904D02*
X142088000Y-129490666D01*
X142088000Y-129490666D02*
X142135619Y-129347809D01*
X142135619Y-129347809D02*
X142135619Y-129109714D01*
X143708000Y-127014476D02*
X143755619Y-127157333D01*
X143755619Y-127157333D02*
X143755619Y-127395428D01*
X143755619Y-127395428D02*
X143708000Y-127490666D01*
X143708000Y-127490666D02*
X143660380Y-127538285D01*
X143660380Y-127538285D02*
X143565142Y-127585904D01*
X143565142Y-127585904D02*
X143469904Y-127585904D01*
X143469904Y-127585904D02*
X143374666Y-127538285D01*
X143374666Y-127538285D02*
X143327047Y-127490666D01*
X143327047Y-127490666D02*
X143279428Y-127395428D01*
X143279428Y-127395428D02*
X143231809Y-127204952D01*
X143231809Y-127204952D02*
X143184190Y-127109714D01*
X143184190Y-127109714D02*
X143136571Y-127062095D01*
X143136571Y-127062095D02*
X143041333Y-127014476D01*
X143041333Y-127014476D02*
X142946095Y-127014476D01*
X142946095Y-127014476D02*
X142850857Y-127062095D01*
X142850857Y-127062095D02*
X142803238Y-127109714D01*
X142803238Y-127109714D02*
X142755619Y-127204952D01*
X142755619Y-127204952D02*
X142755619Y-127443047D01*
X142755619Y-127443047D02*
X142803238Y-127585904D01*
X143755619Y-128014476D02*
X142755619Y-128014476D01*
X142755619Y-128014476D02*
X142755619Y-128252571D01*
X142755619Y-128252571D02*
X142803238Y-128395428D01*
X142803238Y-128395428D02*
X142898476Y-128490666D01*
X142898476Y-128490666D02*
X142993714Y-128538285D01*
X142993714Y-128538285D02*
X143184190Y-128585904D01*
X143184190Y-128585904D02*
X143327047Y-128585904D01*
X143327047Y-128585904D02*
X143517523Y-128538285D01*
X143517523Y-128538285D02*
X143612761Y-128490666D01*
X143612761Y-128490666D02*
X143708000Y-128395428D01*
X143708000Y-128395428D02*
X143755619Y-128252571D01*
X143755619Y-128252571D02*
X143755619Y-128014476D01*
X143469904Y-128966857D02*
X143469904Y-129443047D01*
X143755619Y-128871619D02*
X142755619Y-129204952D01*
X142755619Y-129204952D02*
X143755619Y-129538285D01*
X170916095Y-91501619D02*
X171487523Y-91501619D01*
X171201809Y-91501619D02*
X171201809Y-90501619D01*
X171201809Y-90501619D02*
X171297047Y-90644476D01*
X171297047Y-90644476D02*
X171392285Y-90739714D01*
X171392285Y-90739714D02*
X171487523Y-90787333D01*
X170535142Y-90596857D02*
X170487523Y-90549238D01*
X170487523Y-90549238D02*
X170392285Y-90501619D01*
X170392285Y-90501619D02*
X170154190Y-90501619D01*
X170154190Y-90501619D02*
X170058952Y-90549238D01*
X170058952Y-90549238D02*
X170011333Y-90596857D01*
X170011333Y-90596857D02*
X169963714Y-90692095D01*
X169963714Y-90692095D02*
X169963714Y-90787333D01*
X169963714Y-90787333D02*
X170011333Y-90930190D01*
X170011333Y-90930190D02*
X170582761Y-91501619D01*
X170582761Y-91501619D02*
X169963714Y-91501619D01*
X169677999Y-90501619D02*
X169344666Y-91501619D01*
X169344666Y-91501619D02*
X169011333Y-90501619D01*
X193439904Y-101701619D02*
X193439904Y-100701619D01*
X193011333Y-100796857D02*
X192963714Y-100749238D01*
X192963714Y-100749238D02*
X192868476Y-100701619D01*
X192868476Y-100701619D02*
X192630381Y-100701619D01*
X192630381Y-100701619D02*
X192535143Y-100749238D01*
X192535143Y-100749238D02*
X192487524Y-100796857D01*
X192487524Y-100796857D02*
X192439905Y-100892095D01*
X192439905Y-100892095D02*
X192439905Y-100987333D01*
X192439905Y-100987333D02*
X192487524Y-101130190D01*
X192487524Y-101130190D02*
X193058952Y-101701619D01*
X193058952Y-101701619D02*
X192439905Y-101701619D01*
X191439905Y-101606380D02*
X191487524Y-101654000D01*
X191487524Y-101654000D02*
X191630381Y-101701619D01*
X191630381Y-101701619D02*
X191725619Y-101701619D01*
X191725619Y-101701619D02*
X191868476Y-101654000D01*
X191868476Y-101654000D02*
X191963714Y-101558761D01*
X191963714Y-101558761D02*
X192011333Y-101463523D01*
X192011333Y-101463523D02*
X192058952Y-101273047D01*
X192058952Y-101273047D02*
X192058952Y-101130190D01*
X192058952Y-101130190D02*
X192011333Y-100939714D01*
X192011333Y-100939714D02*
X191963714Y-100844476D01*
X191963714Y-100844476D02*
X191868476Y-100749238D01*
X191868476Y-100749238D02*
X191725619Y-100701619D01*
X191725619Y-100701619D02*
X191630381Y-100701619D01*
X191630381Y-100701619D02*
X191487524Y-100749238D01*
X191487524Y-100749238D02*
X191439905Y-100796857D01*
X191249429Y-101796857D02*
X190487524Y-101796857D01*
X190058952Y-100701619D02*
X189963714Y-100701619D01*
X189963714Y-100701619D02*
X189868476Y-100749238D01*
X189868476Y-100749238D02*
X189820857Y-100796857D01*
X189820857Y-100796857D02*
X189773238Y-100892095D01*
X189773238Y-100892095D02*
X189725619Y-101082571D01*
X189725619Y-101082571D02*
X189725619Y-101320666D01*
X189725619Y-101320666D02*
X189773238Y-101511142D01*
X189773238Y-101511142D02*
X189820857Y-101606380D01*
X189820857Y-101606380D02*
X189868476Y-101654000D01*
X189868476Y-101654000D02*
X189963714Y-101701619D01*
X189963714Y-101701619D02*
X190058952Y-101701619D01*
X190058952Y-101701619D02*
X190154190Y-101654000D01*
X190154190Y-101654000D02*
X190201809Y-101606380D01*
X190201809Y-101606380D02*
X190249428Y-101511142D01*
X190249428Y-101511142D02*
X190297047Y-101320666D01*
X190297047Y-101320666D02*
X190297047Y-101082571D01*
X190297047Y-101082571D02*
X190249428Y-100892095D01*
X190249428Y-100892095D02*
X190201809Y-100796857D01*
X190201809Y-100796857D02*
X190154190Y-100749238D01*
X190154190Y-100749238D02*
X190058952Y-100701619D01*
X142447761Y-121410619D02*
X142447761Y-120410619D01*
X142019190Y-120505857D02*
X141971571Y-120458238D01*
X141971571Y-120458238D02*
X141876333Y-120410619D01*
X141876333Y-120410619D02*
X141638238Y-120410619D01*
X141638238Y-120410619D02*
X141543000Y-120458238D01*
X141543000Y-120458238D02*
X141495381Y-120505857D01*
X141495381Y-120505857D02*
X141447762Y-120601095D01*
X141447762Y-120601095D02*
X141447762Y-120696333D01*
X141447762Y-120696333D02*
X141495381Y-120839190D01*
X141495381Y-120839190D02*
X142066809Y-121410619D01*
X142066809Y-121410619D02*
X141447762Y-121410619D01*
X140447762Y-121315380D02*
X140495381Y-121363000D01*
X140495381Y-121363000D02*
X140638238Y-121410619D01*
X140638238Y-121410619D02*
X140733476Y-121410619D01*
X140733476Y-121410619D02*
X140876333Y-121363000D01*
X140876333Y-121363000D02*
X140971571Y-121267761D01*
X140971571Y-121267761D02*
X141019190Y-121172523D01*
X141019190Y-121172523D02*
X141066809Y-120982047D01*
X141066809Y-120982047D02*
X141066809Y-120839190D01*
X141066809Y-120839190D02*
X141019190Y-120648714D01*
X141019190Y-120648714D02*
X140971571Y-120553476D01*
X140971571Y-120553476D02*
X140876333Y-120458238D01*
X140876333Y-120458238D02*
X140733476Y-120410619D01*
X140733476Y-120410619D02*
X140638238Y-120410619D01*
X140638238Y-120410619D02*
X140495381Y-120458238D01*
X140495381Y-120458238D02*
X140447762Y-120505857D01*
X140257286Y-121505857D02*
X139495381Y-121505857D01*
X139066809Y-120410619D02*
X138971571Y-120410619D01*
X138971571Y-120410619D02*
X138876333Y-120458238D01*
X138876333Y-120458238D02*
X138828714Y-120505857D01*
X138828714Y-120505857D02*
X138781095Y-120601095D01*
X138781095Y-120601095D02*
X138733476Y-120791571D01*
X138733476Y-120791571D02*
X138733476Y-121029666D01*
X138733476Y-121029666D02*
X138781095Y-121220142D01*
X138781095Y-121220142D02*
X138828714Y-121315380D01*
X138828714Y-121315380D02*
X138876333Y-121363000D01*
X138876333Y-121363000D02*
X138971571Y-121410619D01*
X138971571Y-121410619D02*
X139066809Y-121410619D01*
X139066809Y-121410619D02*
X139162047Y-121363000D01*
X139162047Y-121363000D02*
X139209666Y-121315380D01*
X139209666Y-121315380D02*
X139257285Y-121220142D01*
X139257285Y-121220142D02*
X139304904Y-121029666D01*
X139304904Y-121029666D02*
X139304904Y-120791571D01*
X139304904Y-120791571D02*
X139257285Y-120601095D01*
X139257285Y-120601095D02*
X139209666Y-120505857D01*
X139209666Y-120505857D02*
X139162047Y-120458238D01*
X139162047Y-120458238D02*
X139066809Y-120410619D01*
X175439904Y-101901619D02*
X175439904Y-100901619D01*
X175011333Y-100996857D02*
X174963714Y-100949238D01*
X174963714Y-100949238D02*
X174868476Y-100901619D01*
X174868476Y-100901619D02*
X174630381Y-100901619D01*
X174630381Y-100901619D02*
X174535143Y-100949238D01*
X174535143Y-100949238D02*
X174487524Y-100996857D01*
X174487524Y-100996857D02*
X174439905Y-101092095D01*
X174439905Y-101092095D02*
X174439905Y-101187333D01*
X174439905Y-101187333D02*
X174487524Y-101330190D01*
X174487524Y-101330190D02*
X175058952Y-101901619D01*
X175058952Y-101901619D02*
X174439905Y-101901619D01*
X173439905Y-101806380D02*
X173487524Y-101854000D01*
X173487524Y-101854000D02*
X173630381Y-101901619D01*
X173630381Y-101901619D02*
X173725619Y-101901619D01*
X173725619Y-101901619D02*
X173868476Y-101854000D01*
X173868476Y-101854000D02*
X173963714Y-101758761D01*
X173963714Y-101758761D02*
X174011333Y-101663523D01*
X174011333Y-101663523D02*
X174058952Y-101473047D01*
X174058952Y-101473047D02*
X174058952Y-101330190D01*
X174058952Y-101330190D02*
X174011333Y-101139714D01*
X174011333Y-101139714D02*
X173963714Y-101044476D01*
X173963714Y-101044476D02*
X173868476Y-100949238D01*
X173868476Y-100949238D02*
X173725619Y-100901619D01*
X173725619Y-100901619D02*
X173630381Y-100901619D01*
X173630381Y-100901619D02*
X173487524Y-100949238D01*
X173487524Y-100949238D02*
X173439905Y-100996857D01*
X173249429Y-101996857D02*
X172487524Y-101996857D01*
X172344666Y-100901619D02*
X171725619Y-100901619D01*
X171725619Y-100901619D02*
X172058952Y-101282571D01*
X172058952Y-101282571D02*
X171916095Y-101282571D01*
X171916095Y-101282571D02*
X171820857Y-101330190D01*
X171820857Y-101330190D02*
X171773238Y-101377809D01*
X171773238Y-101377809D02*
X171725619Y-101473047D01*
X171725619Y-101473047D02*
X171725619Y-101711142D01*
X171725619Y-101711142D02*
X171773238Y-101806380D01*
X171773238Y-101806380D02*
X171820857Y-101854000D01*
X171820857Y-101854000D02*
X171916095Y-101901619D01*
X171916095Y-101901619D02*
X172201809Y-101901619D01*
X172201809Y-101901619D02*
X172297047Y-101854000D01*
X172297047Y-101854000D02*
X172344666Y-101806380D01*
X188039904Y-101701619D02*
X188039904Y-100701619D01*
X187611333Y-100796857D02*
X187563714Y-100749238D01*
X187563714Y-100749238D02*
X187468476Y-100701619D01*
X187468476Y-100701619D02*
X187230381Y-100701619D01*
X187230381Y-100701619D02*
X187135143Y-100749238D01*
X187135143Y-100749238D02*
X187087524Y-100796857D01*
X187087524Y-100796857D02*
X187039905Y-100892095D01*
X187039905Y-100892095D02*
X187039905Y-100987333D01*
X187039905Y-100987333D02*
X187087524Y-101130190D01*
X187087524Y-101130190D02*
X187658952Y-101701619D01*
X187658952Y-101701619D02*
X187039905Y-101701619D01*
X186039905Y-101606380D02*
X186087524Y-101654000D01*
X186087524Y-101654000D02*
X186230381Y-101701619D01*
X186230381Y-101701619D02*
X186325619Y-101701619D01*
X186325619Y-101701619D02*
X186468476Y-101654000D01*
X186468476Y-101654000D02*
X186563714Y-101558761D01*
X186563714Y-101558761D02*
X186611333Y-101463523D01*
X186611333Y-101463523D02*
X186658952Y-101273047D01*
X186658952Y-101273047D02*
X186658952Y-101130190D01*
X186658952Y-101130190D02*
X186611333Y-100939714D01*
X186611333Y-100939714D02*
X186563714Y-100844476D01*
X186563714Y-100844476D02*
X186468476Y-100749238D01*
X186468476Y-100749238D02*
X186325619Y-100701619D01*
X186325619Y-100701619D02*
X186230381Y-100701619D01*
X186230381Y-100701619D02*
X186087524Y-100749238D01*
X186087524Y-100749238D02*
X186039905Y-100796857D01*
X185849429Y-101796857D02*
X185087524Y-101796857D01*
X184325619Y-101701619D02*
X184897047Y-101701619D01*
X184611333Y-101701619D02*
X184611333Y-100701619D01*
X184611333Y-100701619D02*
X184706571Y-100844476D01*
X184706571Y-100844476D02*
X184801809Y-100939714D01*
X184801809Y-100939714D02*
X184897047Y-100987333D01*
X151955619Y-82662095D02*
X150955619Y-82662095D01*
X150955619Y-82662095D02*
X151669904Y-82995428D01*
X151669904Y-82995428D02*
X150955619Y-83328761D01*
X150955619Y-83328761D02*
X151955619Y-83328761D01*
X150955619Y-83709714D02*
X150955619Y-84328761D01*
X150955619Y-84328761D02*
X151336571Y-83995428D01*
X151336571Y-83995428D02*
X151336571Y-84138285D01*
X151336571Y-84138285D02*
X151384190Y-84233523D01*
X151384190Y-84233523D02*
X151431809Y-84281142D01*
X151431809Y-84281142D02*
X151527047Y-84328761D01*
X151527047Y-84328761D02*
X151765142Y-84328761D01*
X151765142Y-84328761D02*
X151860380Y-84281142D01*
X151860380Y-84281142D02*
X151908000Y-84233523D01*
X151908000Y-84233523D02*
X151955619Y-84138285D01*
X151955619Y-84138285D02*
X151955619Y-83852571D01*
X151955619Y-83852571D02*
X151908000Y-83757333D01*
X151908000Y-83757333D02*
X151860380Y-83709714D01*
X152050857Y-84519238D02*
X152050857Y-85281142D01*
X151955619Y-85519238D02*
X150955619Y-85519238D01*
X151955619Y-85995428D02*
X150955619Y-85995428D01*
X150955619Y-85995428D02*
X151955619Y-86566856D01*
X151955619Y-86566856D02*
X150955619Y-86566856D01*
X151955619Y-87566856D02*
X151955619Y-86995428D01*
X151955619Y-87281142D02*
X150955619Y-87281142D01*
X150955619Y-87281142D02*
X151098476Y-87185904D01*
X151098476Y-87185904D02*
X151193714Y-87090666D01*
X151193714Y-87090666D02*
X151241333Y-86995428D01*
X204138761Y-94347619D02*
X203567333Y-94347619D01*
X203853047Y-95347619D02*
X203853047Y-94347619D01*
X203233999Y-95347619D02*
X203233999Y-94347619D01*
X203233999Y-94347619D02*
X202853047Y-94347619D01*
X202853047Y-94347619D02*
X202757809Y-94395238D01*
X202757809Y-94395238D02*
X202710190Y-94442857D01*
X202710190Y-94442857D02*
X202662571Y-94538095D01*
X202662571Y-94538095D02*
X202662571Y-94680952D01*
X202662571Y-94680952D02*
X202710190Y-94776190D01*
X202710190Y-94776190D02*
X202757809Y-94823809D01*
X202757809Y-94823809D02*
X202853047Y-94871428D01*
X202853047Y-94871428D02*
X203233999Y-94871428D01*
X201805428Y-94680952D02*
X201805428Y-95347619D01*
X202043523Y-94300000D02*
X202281618Y-95014285D01*
X202281618Y-95014285D02*
X201662571Y-95014285D01*
X127777904Y-117134019D02*
X127777904Y-116134019D01*
X127777904Y-116134019D02*
X127444571Y-116848304D01*
X127444571Y-116848304D02*
X127111238Y-116134019D01*
X127111238Y-116134019D02*
X127111238Y-117134019D01*
X126111238Y-117134019D02*
X126682666Y-117134019D01*
X126396952Y-117134019D02*
X126396952Y-116134019D01*
X126396952Y-116134019D02*
X126492190Y-116276876D01*
X126492190Y-116276876D02*
X126587428Y-116372114D01*
X126587428Y-116372114D02*
X126682666Y-116419733D01*
X125920762Y-117229257D02*
X125158857Y-117229257D01*
X124920761Y-117134019D02*
X124920761Y-116134019D01*
X124444571Y-117134019D02*
X124444571Y-116134019D01*
X124444571Y-116134019D02*
X123873143Y-117134019D01*
X123873143Y-117134019D02*
X123873143Y-116134019D01*
X123444571Y-116229257D02*
X123396952Y-116181638D01*
X123396952Y-116181638D02*
X123301714Y-116134019D01*
X123301714Y-116134019D02*
X123063619Y-116134019D01*
X123063619Y-116134019D02*
X122968381Y-116181638D01*
X122968381Y-116181638D02*
X122920762Y-116229257D01*
X122920762Y-116229257D02*
X122873143Y-116324495D01*
X122873143Y-116324495D02*
X122873143Y-116419733D01*
X122873143Y-116419733D02*
X122920762Y-116562590D01*
X122920762Y-116562590D02*
X123492190Y-117134019D01*
X123492190Y-117134019D02*
X122873143Y-117134019D01*
X209443523Y-102900000D02*
X209300666Y-102947619D01*
X209300666Y-102947619D02*
X209062571Y-102947619D01*
X209062571Y-102947619D02*
X208967333Y-102900000D01*
X208967333Y-102900000D02*
X208919714Y-102852380D01*
X208919714Y-102852380D02*
X208872095Y-102757142D01*
X208872095Y-102757142D02*
X208872095Y-102661904D01*
X208872095Y-102661904D02*
X208919714Y-102566666D01*
X208919714Y-102566666D02*
X208967333Y-102519047D01*
X208967333Y-102519047D02*
X209062571Y-102471428D01*
X209062571Y-102471428D02*
X209253047Y-102423809D01*
X209253047Y-102423809D02*
X209348285Y-102376190D01*
X209348285Y-102376190D02*
X209395904Y-102328571D01*
X209395904Y-102328571D02*
X209443523Y-102233333D01*
X209443523Y-102233333D02*
X209443523Y-102138095D01*
X209443523Y-102138095D02*
X209395904Y-102042857D01*
X209395904Y-102042857D02*
X209348285Y-101995238D01*
X209348285Y-101995238D02*
X209253047Y-101947619D01*
X209253047Y-101947619D02*
X209014952Y-101947619D01*
X209014952Y-101947619D02*
X208872095Y-101995238D01*
X208538761Y-101947619D02*
X208300666Y-102947619D01*
X208300666Y-102947619D02*
X208110190Y-102233333D01*
X208110190Y-102233333D02*
X207919714Y-102947619D01*
X207919714Y-102947619D02*
X207681619Y-101947619D01*
X188503261Y-89548119D02*
X187931833Y-89548119D01*
X188217547Y-90548119D02*
X188217547Y-89548119D01*
X187598499Y-90548119D02*
X187598499Y-89548119D01*
X187598499Y-89548119D02*
X187217547Y-89548119D01*
X187217547Y-89548119D02*
X187122309Y-89595738D01*
X187122309Y-89595738D02*
X187074690Y-89643357D01*
X187074690Y-89643357D02*
X187027071Y-89738595D01*
X187027071Y-89738595D02*
X187027071Y-89881452D01*
X187027071Y-89881452D02*
X187074690Y-89976690D01*
X187074690Y-89976690D02*
X187122309Y-90024309D01*
X187122309Y-90024309D02*
X187217547Y-90071928D01*
X187217547Y-90071928D02*
X187598499Y-90071928D01*
X186074690Y-90548119D02*
X186646118Y-90548119D01*
X186360404Y-90548119D02*
X186360404Y-89548119D01*
X186360404Y-89548119D02*
X186455642Y-89690976D01*
X186455642Y-89690976D02*
X186550880Y-89786214D01*
X186550880Y-89786214D02*
X186646118Y-89833833D01*
X185217547Y-89881452D02*
X185217547Y-90548119D01*
X185455642Y-89500500D02*
X185693737Y-90214785D01*
X185693737Y-90214785D02*
X185074690Y-90214785D01*
X185087523Y-111015904D02*
X184611333Y-111015904D01*
X185182761Y-111301619D02*
X184849428Y-110301619D01*
X184849428Y-110301619D02*
X184516095Y-111301619D01*
X183992285Y-110301619D02*
X183897047Y-110301619D01*
X183897047Y-110301619D02*
X183801809Y-110349238D01*
X183801809Y-110349238D02*
X183754190Y-110396857D01*
X183754190Y-110396857D02*
X183706571Y-110492095D01*
X183706571Y-110492095D02*
X183658952Y-110682571D01*
X183658952Y-110682571D02*
X183658952Y-110920666D01*
X183658952Y-110920666D02*
X183706571Y-111111142D01*
X183706571Y-111111142D02*
X183754190Y-111206380D01*
X183754190Y-111206380D02*
X183801809Y-111254000D01*
X183801809Y-111254000D02*
X183897047Y-111301619D01*
X183897047Y-111301619D02*
X183992285Y-111301619D01*
X183992285Y-111301619D02*
X184087523Y-111254000D01*
X184087523Y-111254000D02*
X184135142Y-111206380D01*
X184135142Y-111206380D02*
X184182761Y-111111142D01*
X184182761Y-111111142D02*
X184230380Y-110920666D01*
X184230380Y-110920666D02*
X184230380Y-110682571D01*
X184230380Y-110682571D02*
X184182761Y-110492095D01*
X184182761Y-110492095D02*
X184135142Y-110396857D01*
X184135142Y-110396857D02*
X184087523Y-110349238D01*
X184087523Y-110349238D02*
X183992285Y-110301619D01*
X196335142Y-102301619D02*
X195716095Y-102301619D01*
X195716095Y-102301619D02*
X196049428Y-102682571D01*
X196049428Y-102682571D02*
X195906571Y-102682571D01*
X195906571Y-102682571D02*
X195811333Y-102730190D01*
X195811333Y-102730190D02*
X195763714Y-102777809D01*
X195763714Y-102777809D02*
X195716095Y-102873047D01*
X195716095Y-102873047D02*
X195716095Y-103111142D01*
X195716095Y-103111142D02*
X195763714Y-103206380D01*
X195763714Y-103206380D02*
X195811333Y-103254000D01*
X195811333Y-103254000D02*
X195906571Y-103301619D01*
X195906571Y-103301619D02*
X196192285Y-103301619D01*
X196192285Y-103301619D02*
X196287523Y-103254000D01*
X196287523Y-103254000D02*
X196335142Y-103206380D01*
X195239904Y-103254000D02*
X195239904Y-103301619D01*
X195239904Y-103301619D02*
X195287523Y-103396857D01*
X195287523Y-103396857D02*
X195335142Y-103444476D01*
X194906571Y-102301619D02*
X194287524Y-102301619D01*
X194287524Y-102301619D02*
X194620857Y-102682571D01*
X194620857Y-102682571D02*
X194478000Y-102682571D01*
X194478000Y-102682571D02*
X194382762Y-102730190D01*
X194382762Y-102730190D02*
X194335143Y-102777809D01*
X194335143Y-102777809D02*
X194287524Y-102873047D01*
X194287524Y-102873047D02*
X194287524Y-103111142D01*
X194287524Y-103111142D02*
X194335143Y-103206380D01*
X194335143Y-103206380D02*
X194382762Y-103254000D01*
X194382762Y-103254000D02*
X194478000Y-103301619D01*
X194478000Y-103301619D02*
X194763714Y-103301619D01*
X194763714Y-103301619D02*
X194858952Y-103254000D01*
X194858952Y-103254000D02*
X194906571Y-103206380D01*
X194001809Y-102301619D02*
X193668476Y-103301619D01*
X193668476Y-103301619D02*
X193335143Y-102301619D01*
X142447761Y-106043619D02*
X142447761Y-105043619D01*
X142019190Y-105138857D02*
X141971571Y-105091238D01*
X141971571Y-105091238D02*
X141876333Y-105043619D01*
X141876333Y-105043619D02*
X141638238Y-105043619D01*
X141638238Y-105043619D02*
X141543000Y-105091238D01*
X141543000Y-105091238D02*
X141495381Y-105138857D01*
X141495381Y-105138857D02*
X141447762Y-105234095D01*
X141447762Y-105234095D02*
X141447762Y-105329333D01*
X141447762Y-105329333D02*
X141495381Y-105472190D01*
X141495381Y-105472190D02*
X142066809Y-106043619D01*
X142066809Y-106043619D02*
X141447762Y-106043619D01*
X140447762Y-105948380D02*
X140495381Y-105996000D01*
X140495381Y-105996000D02*
X140638238Y-106043619D01*
X140638238Y-106043619D02*
X140733476Y-106043619D01*
X140733476Y-106043619D02*
X140876333Y-105996000D01*
X140876333Y-105996000D02*
X140971571Y-105900761D01*
X140971571Y-105900761D02*
X141019190Y-105805523D01*
X141019190Y-105805523D02*
X141066809Y-105615047D01*
X141066809Y-105615047D02*
X141066809Y-105472190D01*
X141066809Y-105472190D02*
X141019190Y-105281714D01*
X141019190Y-105281714D02*
X140971571Y-105186476D01*
X140971571Y-105186476D02*
X140876333Y-105091238D01*
X140876333Y-105091238D02*
X140733476Y-105043619D01*
X140733476Y-105043619D02*
X140638238Y-105043619D01*
X140638238Y-105043619D02*
X140495381Y-105091238D01*
X140495381Y-105091238D02*
X140447762Y-105138857D01*
X140257286Y-106138857D02*
X139495381Y-106138857D01*
X139352523Y-105043619D02*
X138733476Y-105043619D01*
X138733476Y-105043619D02*
X139066809Y-105424571D01*
X139066809Y-105424571D02*
X138923952Y-105424571D01*
X138923952Y-105424571D02*
X138828714Y-105472190D01*
X138828714Y-105472190D02*
X138781095Y-105519809D01*
X138781095Y-105519809D02*
X138733476Y-105615047D01*
X138733476Y-105615047D02*
X138733476Y-105853142D01*
X138733476Y-105853142D02*
X138781095Y-105948380D01*
X138781095Y-105948380D02*
X138828714Y-105996000D01*
X138828714Y-105996000D02*
X138923952Y-106043619D01*
X138923952Y-106043619D02*
X139209666Y-106043619D01*
X139209666Y-106043619D02*
X139304904Y-105996000D01*
X139304904Y-105996000D02*
X139352523Y-105948380D01*
X154555619Y-82662095D02*
X153555619Y-82662095D01*
X153555619Y-82662095D02*
X154269904Y-82995428D01*
X154269904Y-82995428D02*
X153555619Y-83328761D01*
X153555619Y-83328761D02*
X154555619Y-83328761D01*
X153555619Y-83709714D02*
X153555619Y-84328761D01*
X153555619Y-84328761D02*
X153936571Y-83995428D01*
X153936571Y-83995428D02*
X153936571Y-84138285D01*
X153936571Y-84138285D02*
X153984190Y-84233523D01*
X153984190Y-84233523D02*
X154031809Y-84281142D01*
X154031809Y-84281142D02*
X154127047Y-84328761D01*
X154127047Y-84328761D02*
X154365142Y-84328761D01*
X154365142Y-84328761D02*
X154460380Y-84281142D01*
X154460380Y-84281142D02*
X154508000Y-84233523D01*
X154508000Y-84233523D02*
X154555619Y-84138285D01*
X154555619Y-84138285D02*
X154555619Y-83852571D01*
X154555619Y-83852571D02*
X154508000Y-83757333D01*
X154508000Y-83757333D02*
X154460380Y-83709714D01*
X154650857Y-84519238D02*
X154650857Y-85281142D01*
X154555619Y-85519238D02*
X153555619Y-85519238D01*
X154555619Y-85995428D02*
X153555619Y-85995428D01*
X153555619Y-85995428D02*
X154555619Y-86566856D01*
X154555619Y-86566856D02*
X153555619Y-86566856D01*
X153650857Y-86995428D02*
X153603238Y-87043047D01*
X153603238Y-87043047D02*
X153555619Y-87138285D01*
X153555619Y-87138285D02*
X153555619Y-87376380D01*
X153555619Y-87376380D02*
X153603238Y-87471618D01*
X153603238Y-87471618D02*
X153650857Y-87519237D01*
X153650857Y-87519237D02*
X153746095Y-87566856D01*
X153746095Y-87566856D02*
X153841333Y-87566856D01*
X153841333Y-87566856D02*
X153984190Y-87519237D01*
X153984190Y-87519237D02*
X154555619Y-86947809D01*
X154555619Y-86947809D02*
X154555619Y-87566856D01*
X138471304Y-91962666D02*
X137709400Y-91962666D01*
X138090352Y-92343619D02*
X138090352Y-91581714D01*
X136709400Y-92343619D02*
X137280828Y-92343619D01*
X136995114Y-92343619D02*
X136995114Y-91343619D01*
X136995114Y-91343619D02*
X137090352Y-91486476D01*
X137090352Y-91486476D02*
X137185590Y-91581714D01*
X137185590Y-91581714D02*
X137280828Y-91629333D01*
X136328447Y-91438857D02*
X136280828Y-91391238D01*
X136280828Y-91391238D02*
X136185590Y-91343619D01*
X136185590Y-91343619D02*
X135947495Y-91343619D01*
X135947495Y-91343619D02*
X135852257Y-91391238D01*
X135852257Y-91391238D02*
X135804638Y-91438857D01*
X135804638Y-91438857D02*
X135757019Y-91534095D01*
X135757019Y-91534095D02*
X135757019Y-91629333D01*
X135757019Y-91629333D02*
X135804638Y-91772190D01*
X135804638Y-91772190D02*
X136376066Y-92343619D01*
X136376066Y-92343619D02*
X135757019Y-92343619D01*
X135471304Y-91343619D02*
X135137971Y-92343619D01*
X135137971Y-92343619D02*
X134804638Y-91343619D01*
X133264304Y-122315619D02*
X133264304Y-121315619D01*
X133264304Y-121315619D02*
X132930971Y-122029904D01*
X132930971Y-122029904D02*
X132597638Y-121315619D01*
X132597638Y-121315619D02*
X132597638Y-122315619D01*
X131930971Y-121315619D02*
X131835733Y-121315619D01*
X131835733Y-121315619D02*
X131740495Y-121363238D01*
X131740495Y-121363238D02*
X131692876Y-121410857D01*
X131692876Y-121410857D02*
X131645257Y-121506095D01*
X131645257Y-121506095D02*
X131597638Y-121696571D01*
X131597638Y-121696571D02*
X131597638Y-121934666D01*
X131597638Y-121934666D02*
X131645257Y-122125142D01*
X131645257Y-122125142D02*
X131692876Y-122220380D01*
X131692876Y-122220380D02*
X131740495Y-122268000D01*
X131740495Y-122268000D02*
X131835733Y-122315619D01*
X131835733Y-122315619D02*
X131930971Y-122315619D01*
X131930971Y-122315619D02*
X132026209Y-122268000D01*
X132026209Y-122268000D02*
X132073828Y-122220380D01*
X132073828Y-122220380D02*
X132121447Y-122125142D01*
X132121447Y-122125142D02*
X132169066Y-121934666D01*
X132169066Y-121934666D02*
X132169066Y-121696571D01*
X132169066Y-121696571D02*
X132121447Y-121506095D01*
X132121447Y-121506095D02*
X132073828Y-121410857D01*
X132073828Y-121410857D02*
X132026209Y-121363238D01*
X132026209Y-121363238D02*
X131930971Y-121315619D01*
X159155619Y-82662095D02*
X158155619Y-82662095D01*
X158155619Y-82662095D02*
X158869904Y-82995428D01*
X158869904Y-82995428D02*
X158155619Y-83328761D01*
X158155619Y-83328761D02*
X159155619Y-83328761D01*
X158250857Y-83757333D02*
X158203238Y-83804952D01*
X158203238Y-83804952D02*
X158155619Y-83900190D01*
X158155619Y-83900190D02*
X158155619Y-84138285D01*
X158155619Y-84138285D02*
X158203238Y-84233523D01*
X158203238Y-84233523D02*
X158250857Y-84281142D01*
X158250857Y-84281142D02*
X158346095Y-84328761D01*
X158346095Y-84328761D02*
X158441333Y-84328761D01*
X158441333Y-84328761D02*
X158584190Y-84281142D01*
X158584190Y-84281142D02*
X159155619Y-83709714D01*
X159155619Y-83709714D02*
X159155619Y-84328761D01*
X159250857Y-84519238D02*
X159250857Y-85281142D01*
X159155619Y-85519238D02*
X158155619Y-85519238D01*
X159155619Y-85995428D02*
X158155619Y-85995428D01*
X158155619Y-85995428D02*
X159155619Y-86566856D01*
X159155619Y-86566856D02*
X158155619Y-86566856D01*
X158250857Y-86995428D02*
X158203238Y-87043047D01*
X158203238Y-87043047D02*
X158155619Y-87138285D01*
X158155619Y-87138285D02*
X158155619Y-87376380D01*
X158155619Y-87376380D02*
X158203238Y-87471618D01*
X158203238Y-87471618D02*
X158250857Y-87519237D01*
X158250857Y-87519237D02*
X158346095Y-87566856D01*
X158346095Y-87566856D02*
X158441333Y-87566856D01*
X158441333Y-87566856D02*
X158584190Y-87519237D01*
X158584190Y-87519237D02*
X159155619Y-86947809D01*
X159155619Y-86947809D02*
X159155619Y-87566856D01*
X127473104Y-102605219D02*
X127473104Y-101605219D01*
X127473104Y-101605219D02*
X127139771Y-102319504D01*
X127139771Y-102319504D02*
X126806438Y-101605219D01*
X126806438Y-101605219D02*
X126806438Y-102605219D01*
X126425485Y-101605219D02*
X125806438Y-101605219D01*
X125806438Y-101605219D02*
X126139771Y-101986171D01*
X126139771Y-101986171D02*
X125996914Y-101986171D01*
X125996914Y-101986171D02*
X125901676Y-102033790D01*
X125901676Y-102033790D02*
X125854057Y-102081409D01*
X125854057Y-102081409D02*
X125806438Y-102176647D01*
X125806438Y-102176647D02*
X125806438Y-102414742D01*
X125806438Y-102414742D02*
X125854057Y-102509980D01*
X125854057Y-102509980D02*
X125901676Y-102557600D01*
X125901676Y-102557600D02*
X125996914Y-102605219D01*
X125996914Y-102605219D02*
X126282628Y-102605219D01*
X126282628Y-102605219D02*
X126377866Y-102557600D01*
X126377866Y-102557600D02*
X126425485Y-102509980D01*
X125615962Y-102700457D02*
X124854057Y-102700457D01*
X124615961Y-102605219D02*
X124615961Y-101605219D01*
X124139771Y-102605219D02*
X124139771Y-101605219D01*
X124139771Y-101605219D02*
X123568343Y-102605219D01*
X123568343Y-102605219D02*
X123568343Y-101605219D01*
X122568343Y-102605219D02*
X123139771Y-102605219D01*
X122854057Y-102605219D02*
X122854057Y-101605219D01*
X122854057Y-101605219D02*
X122949295Y-101748076D01*
X122949295Y-101748076D02*
X123044533Y-101843314D01*
X123044533Y-101843314D02*
X123139771Y-101890933D01*
X164340190Y-124250952D02*
X164292571Y-124155714D01*
X164292571Y-124155714D02*
X164244952Y-124108095D01*
X164244952Y-124108095D02*
X164149714Y-124060476D01*
X164149714Y-124060476D02*
X164102095Y-124060476D01*
X164102095Y-124060476D02*
X164006857Y-124108095D01*
X164006857Y-124108095D02*
X163959238Y-124155714D01*
X163959238Y-124155714D02*
X163911619Y-124250952D01*
X163911619Y-124250952D02*
X163911619Y-124441428D01*
X163911619Y-124441428D02*
X163959238Y-124536666D01*
X163959238Y-124536666D02*
X164006857Y-124584285D01*
X164006857Y-124584285D02*
X164102095Y-124631904D01*
X164102095Y-124631904D02*
X164149714Y-124631904D01*
X164149714Y-124631904D02*
X164244952Y-124584285D01*
X164244952Y-124584285D02*
X164292571Y-124536666D01*
X164292571Y-124536666D02*
X164340190Y-124441428D01*
X164340190Y-124441428D02*
X164340190Y-124250952D01*
X164340190Y-124250952D02*
X164387809Y-124155714D01*
X164387809Y-124155714D02*
X164435428Y-124108095D01*
X164435428Y-124108095D02*
X164530666Y-124060476D01*
X164530666Y-124060476D02*
X164721142Y-124060476D01*
X164721142Y-124060476D02*
X164816380Y-124108095D01*
X164816380Y-124108095D02*
X164864000Y-124155714D01*
X164864000Y-124155714D02*
X164911619Y-124250952D01*
X164911619Y-124250952D02*
X164911619Y-124441428D01*
X164911619Y-124441428D02*
X164864000Y-124536666D01*
X164864000Y-124536666D02*
X164816380Y-124584285D01*
X164816380Y-124584285D02*
X164721142Y-124631904D01*
X164721142Y-124631904D02*
X164530666Y-124631904D01*
X164530666Y-124631904D02*
X164435428Y-124584285D01*
X164435428Y-124584285D02*
X164387809Y-124536666D01*
X164387809Y-124536666D02*
X164340190Y-124441428D01*
X163911619Y-124917619D02*
X164911619Y-125250952D01*
X164911619Y-125250952D02*
X163911619Y-125584285D01*
X171839904Y-121701619D02*
X171839904Y-120701619D01*
X171411333Y-120796857D02*
X171363714Y-120749238D01*
X171363714Y-120749238D02*
X171268476Y-120701619D01*
X171268476Y-120701619D02*
X171030381Y-120701619D01*
X171030381Y-120701619D02*
X170935143Y-120749238D01*
X170935143Y-120749238D02*
X170887524Y-120796857D01*
X170887524Y-120796857D02*
X170839905Y-120892095D01*
X170839905Y-120892095D02*
X170839905Y-120987333D01*
X170839905Y-120987333D02*
X170887524Y-121130190D01*
X170887524Y-121130190D02*
X171458952Y-121701619D01*
X171458952Y-121701619D02*
X170839905Y-121701619D01*
X169839905Y-121606380D02*
X169887524Y-121654000D01*
X169887524Y-121654000D02*
X170030381Y-121701619D01*
X170030381Y-121701619D02*
X170125619Y-121701619D01*
X170125619Y-121701619D02*
X170268476Y-121654000D01*
X170268476Y-121654000D02*
X170363714Y-121558761D01*
X170363714Y-121558761D02*
X170411333Y-121463523D01*
X170411333Y-121463523D02*
X170458952Y-121273047D01*
X170458952Y-121273047D02*
X170458952Y-121130190D01*
X170458952Y-121130190D02*
X170411333Y-120939714D01*
X170411333Y-120939714D02*
X170363714Y-120844476D01*
X170363714Y-120844476D02*
X170268476Y-120749238D01*
X170268476Y-120749238D02*
X170125619Y-120701619D01*
X170125619Y-120701619D02*
X170030381Y-120701619D01*
X170030381Y-120701619D02*
X169887524Y-120749238D01*
X169887524Y-120749238D02*
X169839905Y-120796857D01*
X169649429Y-121796857D02*
X168887524Y-121796857D01*
X168220857Y-121034952D02*
X168220857Y-121701619D01*
X168458952Y-120654000D02*
X168697047Y-121368285D01*
X168697047Y-121368285D02*
X168078000Y-121368285D01*
X128768504Y-125033419D02*
X128768504Y-124033419D01*
X128768504Y-124033419D02*
X128435171Y-124747704D01*
X128435171Y-124747704D02*
X128101838Y-124033419D01*
X128101838Y-124033419D02*
X128101838Y-125033419D01*
X127435171Y-124033419D02*
X127339933Y-124033419D01*
X127339933Y-124033419D02*
X127244695Y-124081038D01*
X127244695Y-124081038D02*
X127197076Y-124128657D01*
X127197076Y-124128657D02*
X127149457Y-124223895D01*
X127149457Y-124223895D02*
X127101838Y-124414371D01*
X127101838Y-124414371D02*
X127101838Y-124652466D01*
X127101838Y-124652466D02*
X127149457Y-124842942D01*
X127149457Y-124842942D02*
X127197076Y-124938180D01*
X127197076Y-124938180D02*
X127244695Y-124985800D01*
X127244695Y-124985800D02*
X127339933Y-125033419D01*
X127339933Y-125033419D02*
X127435171Y-125033419D01*
X127435171Y-125033419D02*
X127530409Y-124985800D01*
X127530409Y-124985800D02*
X127578028Y-124938180D01*
X127578028Y-124938180D02*
X127625647Y-124842942D01*
X127625647Y-124842942D02*
X127673266Y-124652466D01*
X127673266Y-124652466D02*
X127673266Y-124414371D01*
X127673266Y-124414371D02*
X127625647Y-124223895D01*
X127625647Y-124223895D02*
X127578028Y-124128657D01*
X127578028Y-124128657D02*
X127530409Y-124081038D01*
X127530409Y-124081038D02*
X127435171Y-124033419D01*
X126911362Y-125128657D02*
X126149457Y-125128657D01*
X125911361Y-125033419D02*
X125911361Y-124033419D01*
X125435171Y-125033419D02*
X125435171Y-124033419D01*
X125435171Y-124033419D02*
X124863743Y-125033419D01*
X124863743Y-125033419D02*
X124863743Y-124033419D01*
X124435171Y-124128657D02*
X124387552Y-124081038D01*
X124387552Y-124081038D02*
X124292314Y-124033419D01*
X124292314Y-124033419D02*
X124054219Y-124033419D01*
X124054219Y-124033419D02*
X123958981Y-124081038D01*
X123958981Y-124081038D02*
X123911362Y-124128657D01*
X123911362Y-124128657D02*
X123863743Y-124223895D01*
X123863743Y-124223895D02*
X123863743Y-124319133D01*
X123863743Y-124319133D02*
X123911362Y-124461990D01*
X123911362Y-124461990D02*
X124482790Y-125033419D01*
X124482790Y-125033419D02*
X123863743Y-125033419D01*
X203795904Y-97147619D02*
X203795904Y-96147619D01*
X203795904Y-96147619D02*
X203414952Y-96147619D01*
X203414952Y-96147619D02*
X203319714Y-96195238D01*
X203319714Y-96195238D02*
X203272095Y-96242857D01*
X203272095Y-96242857D02*
X203224476Y-96338095D01*
X203224476Y-96338095D02*
X203224476Y-96480952D01*
X203224476Y-96480952D02*
X203272095Y-96576190D01*
X203272095Y-96576190D02*
X203319714Y-96623809D01*
X203319714Y-96623809D02*
X203414952Y-96671428D01*
X203414952Y-96671428D02*
X203795904Y-96671428D01*
X202272095Y-96195238D02*
X202367333Y-96147619D01*
X202367333Y-96147619D02*
X202510190Y-96147619D01*
X202510190Y-96147619D02*
X202653047Y-96195238D01*
X202653047Y-96195238D02*
X202748285Y-96290476D01*
X202748285Y-96290476D02*
X202795904Y-96385714D01*
X202795904Y-96385714D02*
X202843523Y-96576190D01*
X202843523Y-96576190D02*
X202843523Y-96719047D01*
X202843523Y-96719047D02*
X202795904Y-96909523D01*
X202795904Y-96909523D02*
X202748285Y-97004761D01*
X202748285Y-97004761D02*
X202653047Y-97100000D01*
X202653047Y-97100000D02*
X202510190Y-97147619D01*
X202510190Y-97147619D02*
X202414952Y-97147619D01*
X202414952Y-97147619D02*
X202272095Y-97100000D01*
X202272095Y-97100000D02*
X202224476Y-97052380D01*
X202224476Y-97052380D02*
X202224476Y-96719047D01*
X202224476Y-96719047D02*
X202414952Y-96719047D01*
X206708000Y-82614476D02*
X206755619Y-82757333D01*
X206755619Y-82757333D02*
X206755619Y-82995428D01*
X206755619Y-82995428D02*
X206708000Y-83090666D01*
X206708000Y-83090666D02*
X206660380Y-83138285D01*
X206660380Y-83138285D02*
X206565142Y-83185904D01*
X206565142Y-83185904D02*
X206469904Y-83185904D01*
X206469904Y-83185904D02*
X206374666Y-83138285D01*
X206374666Y-83138285D02*
X206327047Y-83090666D01*
X206327047Y-83090666D02*
X206279428Y-82995428D01*
X206279428Y-82995428D02*
X206231809Y-82804952D01*
X206231809Y-82804952D02*
X206184190Y-82709714D01*
X206184190Y-82709714D02*
X206136571Y-82662095D01*
X206136571Y-82662095D02*
X206041333Y-82614476D01*
X206041333Y-82614476D02*
X205946095Y-82614476D01*
X205946095Y-82614476D02*
X205850857Y-82662095D01*
X205850857Y-82662095D02*
X205803238Y-82709714D01*
X205803238Y-82709714D02*
X205755619Y-82804952D01*
X205755619Y-82804952D02*
X205755619Y-83043047D01*
X205755619Y-83043047D02*
X205803238Y-83185904D01*
X206660380Y-84185904D02*
X206708000Y-84138285D01*
X206708000Y-84138285D02*
X206755619Y-83995428D01*
X206755619Y-83995428D02*
X206755619Y-83900190D01*
X206755619Y-83900190D02*
X206708000Y-83757333D01*
X206708000Y-83757333D02*
X206612761Y-83662095D01*
X206612761Y-83662095D02*
X206517523Y-83614476D01*
X206517523Y-83614476D02*
X206327047Y-83566857D01*
X206327047Y-83566857D02*
X206184190Y-83566857D01*
X206184190Y-83566857D02*
X205993714Y-83614476D01*
X205993714Y-83614476D02*
X205898476Y-83662095D01*
X205898476Y-83662095D02*
X205803238Y-83757333D01*
X205803238Y-83757333D02*
X205755619Y-83900190D01*
X205755619Y-83900190D02*
X205755619Y-83995428D01*
X205755619Y-83995428D02*
X205803238Y-84138285D01*
X205803238Y-84138285D02*
X205850857Y-84185904D01*
X206755619Y-85090666D02*
X206755619Y-84614476D01*
X206755619Y-84614476D02*
X205755619Y-84614476D01*
X173555619Y-82462095D02*
X172555619Y-82462095D01*
X172650857Y-82890666D02*
X172603238Y-82938285D01*
X172603238Y-82938285D02*
X172555619Y-83033523D01*
X172555619Y-83033523D02*
X172555619Y-83271618D01*
X172555619Y-83271618D02*
X172603238Y-83366856D01*
X172603238Y-83366856D02*
X172650857Y-83414475D01*
X172650857Y-83414475D02*
X172746095Y-83462094D01*
X172746095Y-83462094D02*
X172841333Y-83462094D01*
X172841333Y-83462094D02*
X172984190Y-83414475D01*
X172984190Y-83414475D02*
X173555619Y-82843047D01*
X173555619Y-82843047D02*
X173555619Y-83462094D01*
X173460380Y-84462094D02*
X173508000Y-84414475D01*
X173508000Y-84414475D02*
X173555619Y-84271618D01*
X173555619Y-84271618D02*
X173555619Y-84176380D01*
X173555619Y-84176380D02*
X173508000Y-84033523D01*
X173508000Y-84033523D02*
X173412761Y-83938285D01*
X173412761Y-83938285D02*
X173317523Y-83890666D01*
X173317523Y-83890666D02*
X173127047Y-83843047D01*
X173127047Y-83843047D02*
X172984190Y-83843047D01*
X172984190Y-83843047D02*
X172793714Y-83890666D01*
X172793714Y-83890666D02*
X172698476Y-83938285D01*
X172698476Y-83938285D02*
X172603238Y-84033523D01*
X172603238Y-84033523D02*
X172555619Y-84176380D01*
X172555619Y-84176380D02*
X172555619Y-84271618D01*
X172555619Y-84271618D02*
X172603238Y-84414475D01*
X172603238Y-84414475D02*
X172650857Y-84462094D01*
X173650857Y-84652571D02*
X173650857Y-85414475D01*
X173555619Y-86223999D02*
X173079428Y-85890666D01*
X173555619Y-85652571D02*
X172555619Y-85652571D01*
X172555619Y-85652571D02*
X172555619Y-86033523D01*
X172555619Y-86033523D02*
X172603238Y-86128761D01*
X172603238Y-86128761D02*
X172650857Y-86176380D01*
X172650857Y-86176380D02*
X172746095Y-86223999D01*
X172746095Y-86223999D02*
X172888952Y-86223999D01*
X172888952Y-86223999D02*
X172984190Y-86176380D01*
X172984190Y-86176380D02*
X173031809Y-86128761D01*
X173031809Y-86128761D02*
X173079428Y-86033523D01*
X173079428Y-86033523D02*
X173079428Y-85652571D01*
X173031809Y-86652571D02*
X173031809Y-86985904D01*
X173555619Y-87128761D02*
X173555619Y-86652571D01*
X173555619Y-86652571D02*
X172555619Y-86652571D01*
X172555619Y-86652571D02*
X172555619Y-87128761D01*
X173508000Y-87509714D02*
X173555619Y-87652571D01*
X173555619Y-87652571D02*
X173555619Y-87890666D01*
X173555619Y-87890666D02*
X173508000Y-87985904D01*
X173508000Y-87985904D02*
X173460380Y-88033523D01*
X173460380Y-88033523D02*
X173365142Y-88081142D01*
X173365142Y-88081142D02*
X173269904Y-88081142D01*
X173269904Y-88081142D02*
X173174666Y-88033523D01*
X173174666Y-88033523D02*
X173127047Y-87985904D01*
X173127047Y-87985904D02*
X173079428Y-87890666D01*
X173079428Y-87890666D02*
X173031809Y-87700190D01*
X173031809Y-87700190D02*
X172984190Y-87604952D01*
X172984190Y-87604952D02*
X172936571Y-87557333D01*
X172936571Y-87557333D02*
X172841333Y-87509714D01*
X172841333Y-87509714D02*
X172746095Y-87509714D01*
X172746095Y-87509714D02*
X172650857Y-87557333D01*
X172650857Y-87557333D02*
X172603238Y-87604952D01*
X172603238Y-87604952D02*
X172555619Y-87700190D01*
X172555619Y-87700190D02*
X172555619Y-87938285D01*
X172555619Y-87938285D02*
X172603238Y-88081142D01*
X173031809Y-88509714D02*
X173031809Y-88843047D01*
X173555619Y-88985904D02*
X173555619Y-88509714D01*
X173555619Y-88509714D02*
X172555619Y-88509714D01*
X172555619Y-88509714D02*
X172555619Y-88985904D01*
X172555619Y-89271619D02*
X172555619Y-89843047D01*
X173555619Y-89557333D02*
X172555619Y-89557333D01*
X133010304Y-107253419D02*
X133010304Y-106253419D01*
X133010304Y-106253419D02*
X132676971Y-106967704D01*
X132676971Y-106967704D02*
X132343638Y-106253419D01*
X132343638Y-106253419D02*
X132343638Y-107253419D01*
X131915066Y-106348657D02*
X131867447Y-106301038D01*
X131867447Y-106301038D02*
X131772209Y-106253419D01*
X131772209Y-106253419D02*
X131534114Y-106253419D01*
X131534114Y-106253419D02*
X131438876Y-106301038D01*
X131438876Y-106301038D02*
X131391257Y-106348657D01*
X131391257Y-106348657D02*
X131343638Y-106443895D01*
X131343638Y-106443895D02*
X131343638Y-106539133D01*
X131343638Y-106539133D02*
X131391257Y-106681990D01*
X131391257Y-106681990D02*
X131962685Y-107253419D01*
X131962685Y-107253419D02*
X131343638Y-107253419D01*
X206662571Y-104223809D02*
X206519714Y-104271428D01*
X206519714Y-104271428D02*
X206472095Y-104319047D01*
X206472095Y-104319047D02*
X206424476Y-104414285D01*
X206424476Y-104414285D02*
X206424476Y-104557142D01*
X206424476Y-104557142D02*
X206472095Y-104652380D01*
X206472095Y-104652380D02*
X206519714Y-104700000D01*
X206519714Y-104700000D02*
X206614952Y-104747619D01*
X206614952Y-104747619D02*
X206995904Y-104747619D01*
X206995904Y-104747619D02*
X206995904Y-103747619D01*
X206995904Y-103747619D02*
X206662571Y-103747619D01*
X206662571Y-103747619D02*
X206567333Y-103795238D01*
X206567333Y-103795238D02*
X206519714Y-103842857D01*
X206519714Y-103842857D02*
X206472095Y-103938095D01*
X206472095Y-103938095D02*
X206472095Y-104033333D01*
X206472095Y-104033333D02*
X206519714Y-104128571D01*
X206519714Y-104128571D02*
X206567333Y-104176190D01*
X206567333Y-104176190D02*
X206662571Y-104223809D01*
X206662571Y-104223809D02*
X206995904Y-104223809D01*
X205853047Y-104747619D02*
X205948285Y-104700000D01*
X205948285Y-104700000D02*
X205995904Y-104652380D01*
X205995904Y-104652380D02*
X206043523Y-104557142D01*
X206043523Y-104557142D02*
X206043523Y-104271428D01*
X206043523Y-104271428D02*
X205995904Y-104176190D01*
X205995904Y-104176190D02*
X205948285Y-104128571D01*
X205948285Y-104128571D02*
X205853047Y-104080952D01*
X205853047Y-104080952D02*
X205710190Y-104080952D01*
X205710190Y-104080952D02*
X205614952Y-104128571D01*
X205614952Y-104128571D02*
X205567333Y-104176190D01*
X205567333Y-104176190D02*
X205519714Y-104271428D01*
X205519714Y-104271428D02*
X205519714Y-104557142D01*
X205519714Y-104557142D02*
X205567333Y-104652380D01*
X205567333Y-104652380D02*
X205614952Y-104700000D01*
X205614952Y-104700000D02*
X205710190Y-104747619D01*
X205710190Y-104747619D02*
X205853047Y-104747619D01*
X204948285Y-104747619D02*
X205043523Y-104700000D01*
X205043523Y-104700000D02*
X205091142Y-104652380D01*
X205091142Y-104652380D02*
X205138761Y-104557142D01*
X205138761Y-104557142D02*
X205138761Y-104271428D01*
X205138761Y-104271428D02*
X205091142Y-104176190D01*
X205091142Y-104176190D02*
X205043523Y-104128571D01*
X205043523Y-104128571D02*
X204948285Y-104080952D01*
X204948285Y-104080952D02*
X204805428Y-104080952D01*
X204805428Y-104080952D02*
X204710190Y-104128571D01*
X204710190Y-104128571D02*
X204662571Y-104176190D01*
X204662571Y-104176190D02*
X204614952Y-104271428D01*
X204614952Y-104271428D02*
X204614952Y-104557142D01*
X204614952Y-104557142D02*
X204662571Y-104652380D01*
X204662571Y-104652380D02*
X204710190Y-104700000D01*
X204710190Y-104700000D02*
X204805428Y-104747619D01*
X204805428Y-104747619D02*
X204948285Y-104747619D01*
X204329237Y-104080952D02*
X203948285Y-104080952D01*
X204186380Y-103747619D02*
X204186380Y-104604761D01*
X204186380Y-104604761D02*
X204138761Y-104700000D01*
X204138761Y-104700000D02*
X204043523Y-104747619D01*
X204043523Y-104747619D02*
X203948285Y-104747619D01*
X194963714Y-104901619D02*
X195439904Y-104901619D01*
X195439904Y-104901619D02*
X195487523Y-105377809D01*
X195487523Y-105377809D02*
X195439904Y-105330190D01*
X195439904Y-105330190D02*
X195344666Y-105282571D01*
X195344666Y-105282571D02*
X195106571Y-105282571D01*
X195106571Y-105282571D02*
X195011333Y-105330190D01*
X195011333Y-105330190D02*
X194963714Y-105377809D01*
X194963714Y-105377809D02*
X194916095Y-105473047D01*
X194916095Y-105473047D02*
X194916095Y-105711142D01*
X194916095Y-105711142D02*
X194963714Y-105806380D01*
X194963714Y-105806380D02*
X195011333Y-105854000D01*
X195011333Y-105854000D02*
X195106571Y-105901619D01*
X195106571Y-105901619D02*
X195344666Y-105901619D01*
X195344666Y-105901619D02*
X195439904Y-105854000D01*
X195439904Y-105854000D02*
X195487523Y-105806380D01*
X194630380Y-104901619D02*
X194297047Y-105901619D01*
X194297047Y-105901619D02*
X193963714Y-104901619D01*
X146053047Y-104376190D02*
X146148285Y-104328571D01*
X146148285Y-104328571D02*
X146195904Y-104280952D01*
X146195904Y-104280952D02*
X146243523Y-104185714D01*
X146243523Y-104185714D02*
X146243523Y-104138095D01*
X146243523Y-104138095D02*
X146195904Y-104042857D01*
X146195904Y-104042857D02*
X146148285Y-103995238D01*
X146148285Y-103995238D02*
X146053047Y-103947619D01*
X146053047Y-103947619D02*
X145862571Y-103947619D01*
X145862571Y-103947619D02*
X145767333Y-103995238D01*
X145767333Y-103995238D02*
X145719714Y-104042857D01*
X145719714Y-104042857D02*
X145672095Y-104138095D01*
X145672095Y-104138095D02*
X145672095Y-104185714D01*
X145672095Y-104185714D02*
X145719714Y-104280952D01*
X145719714Y-104280952D02*
X145767333Y-104328571D01*
X145767333Y-104328571D02*
X145862571Y-104376190D01*
X145862571Y-104376190D02*
X146053047Y-104376190D01*
X146053047Y-104376190D02*
X146148285Y-104423809D01*
X146148285Y-104423809D02*
X146195904Y-104471428D01*
X146195904Y-104471428D02*
X146243523Y-104566666D01*
X146243523Y-104566666D02*
X146243523Y-104757142D01*
X146243523Y-104757142D02*
X146195904Y-104852380D01*
X146195904Y-104852380D02*
X146148285Y-104900000D01*
X146148285Y-104900000D02*
X146053047Y-104947619D01*
X146053047Y-104947619D02*
X145862571Y-104947619D01*
X145862571Y-104947619D02*
X145767333Y-104900000D01*
X145767333Y-104900000D02*
X145719714Y-104852380D01*
X145719714Y-104852380D02*
X145672095Y-104757142D01*
X145672095Y-104757142D02*
X145672095Y-104566666D01*
X145672095Y-104566666D02*
X145719714Y-104471428D01*
X145719714Y-104471428D02*
X145767333Y-104423809D01*
X145767333Y-104423809D02*
X145862571Y-104376190D01*
X145386380Y-103947619D02*
X145053047Y-104947619D01*
X145053047Y-104947619D02*
X144719714Y-103947619D01*
X204108000Y-82614476D02*
X204155619Y-82757333D01*
X204155619Y-82757333D02*
X204155619Y-82995428D01*
X204155619Y-82995428D02*
X204108000Y-83090666D01*
X204108000Y-83090666D02*
X204060380Y-83138285D01*
X204060380Y-83138285D02*
X203965142Y-83185904D01*
X203965142Y-83185904D02*
X203869904Y-83185904D01*
X203869904Y-83185904D02*
X203774666Y-83138285D01*
X203774666Y-83138285D02*
X203727047Y-83090666D01*
X203727047Y-83090666D02*
X203679428Y-82995428D01*
X203679428Y-82995428D02*
X203631809Y-82804952D01*
X203631809Y-82804952D02*
X203584190Y-82709714D01*
X203584190Y-82709714D02*
X203536571Y-82662095D01*
X203536571Y-82662095D02*
X203441333Y-82614476D01*
X203441333Y-82614476D02*
X203346095Y-82614476D01*
X203346095Y-82614476D02*
X203250857Y-82662095D01*
X203250857Y-82662095D02*
X203203238Y-82709714D01*
X203203238Y-82709714D02*
X203155619Y-82804952D01*
X203155619Y-82804952D02*
X203155619Y-83043047D01*
X203155619Y-83043047D02*
X203203238Y-83185904D01*
X204155619Y-83614476D02*
X203155619Y-83614476D01*
X203155619Y-83614476D02*
X203155619Y-83852571D01*
X203155619Y-83852571D02*
X203203238Y-83995428D01*
X203203238Y-83995428D02*
X203298476Y-84090666D01*
X203298476Y-84090666D02*
X203393714Y-84138285D01*
X203393714Y-84138285D02*
X203584190Y-84185904D01*
X203584190Y-84185904D02*
X203727047Y-84185904D01*
X203727047Y-84185904D02*
X203917523Y-84138285D01*
X203917523Y-84138285D02*
X204012761Y-84090666D01*
X204012761Y-84090666D02*
X204108000Y-83995428D01*
X204108000Y-83995428D02*
X204155619Y-83852571D01*
X204155619Y-83852571D02*
X204155619Y-83614476D01*
X203869904Y-84566857D02*
X203869904Y-85043047D01*
X204155619Y-84471619D02*
X203155619Y-84804952D01*
X203155619Y-84804952D02*
X204155619Y-85138285D01*
X181839904Y-101701619D02*
X181839904Y-100701619D01*
X181411333Y-100796857D02*
X181363714Y-100749238D01*
X181363714Y-100749238D02*
X181268476Y-100701619D01*
X181268476Y-100701619D02*
X181030381Y-100701619D01*
X181030381Y-100701619D02*
X180935143Y-100749238D01*
X180935143Y-100749238D02*
X180887524Y-100796857D01*
X180887524Y-100796857D02*
X180839905Y-100892095D01*
X180839905Y-100892095D02*
X180839905Y-100987333D01*
X180839905Y-100987333D02*
X180887524Y-101130190D01*
X180887524Y-101130190D02*
X181458952Y-101701619D01*
X181458952Y-101701619D02*
X180839905Y-101701619D01*
X179839905Y-101606380D02*
X179887524Y-101654000D01*
X179887524Y-101654000D02*
X180030381Y-101701619D01*
X180030381Y-101701619D02*
X180125619Y-101701619D01*
X180125619Y-101701619D02*
X180268476Y-101654000D01*
X180268476Y-101654000D02*
X180363714Y-101558761D01*
X180363714Y-101558761D02*
X180411333Y-101463523D01*
X180411333Y-101463523D02*
X180458952Y-101273047D01*
X180458952Y-101273047D02*
X180458952Y-101130190D01*
X180458952Y-101130190D02*
X180411333Y-100939714D01*
X180411333Y-100939714D02*
X180363714Y-100844476D01*
X180363714Y-100844476D02*
X180268476Y-100749238D01*
X180268476Y-100749238D02*
X180125619Y-100701619D01*
X180125619Y-100701619D02*
X180030381Y-100701619D01*
X180030381Y-100701619D02*
X179887524Y-100749238D01*
X179887524Y-100749238D02*
X179839905Y-100796857D01*
X179649429Y-101796857D02*
X178887524Y-101796857D01*
X178697047Y-100796857D02*
X178649428Y-100749238D01*
X178649428Y-100749238D02*
X178554190Y-100701619D01*
X178554190Y-100701619D02*
X178316095Y-100701619D01*
X178316095Y-100701619D02*
X178220857Y-100749238D01*
X178220857Y-100749238D02*
X178173238Y-100796857D01*
X178173238Y-100796857D02*
X178125619Y-100892095D01*
X178125619Y-100892095D02*
X178125619Y-100987333D01*
X178125619Y-100987333D02*
X178173238Y-101130190D01*
X178173238Y-101130190D02*
X178744666Y-101701619D01*
X178744666Y-101701619D02*
X178125619Y-101701619D01*
X182287523Y-111015904D02*
X181811333Y-111015904D01*
X182382761Y-111301619D02*
X182049428Y-110301619D01*
X182049428Y-110301619D02*
X181716095Y-111301619D01*
X181430380Y-110396857D02*
X181382761Y-110349238D01*
X181382761Y-110349238D02*
X181287523Y-110301619D01*
X181287523Y-110301619D02*
X181049428Y-110301619D01*
X181049428Y-110301619D02*
X180954190Y-110349238D01*
X180954190Y-110349238D02*
X180906571Y-110396857D01*
X180906571Y-110396857D02*
X180858952Y-110492095D01*
X180858952Y-110492095D02*
X180858952Y-110587333D01*
X180858952Y-110587333D02*
X180906571Y-110730190D01*
X180906571Y-110730190D02*
X181477999Y-111301619D01*
X181477999Y-111301619D02*
X180858952Y-111301619D01*
X128590704Y-120055019D02*
X128590704Y-119055019D01*
X128590704Y-119055019D02*
X128257371Y-119769304D01*
X128257371Y-119769304D02*
X127924038Y-119055019D01*
X127924038Y-119055019D02*
X127924038Y-120055019D01*
X127257371Y-119055019D02*
X127162133Y-119055019D01*
X127162133Y-119055019D02*
X127066895Y-119102638D01*
X127066895Y-119102638D02*
X127019276Y-119150257D01*
X127019276Y-119150257D02*
X126971657Y-119245495D01*
X126971657Y-119245495D02*
X126924038Y-119435971D01*
X126924038Y-119435971D02*
X126924038Y-119674066D01*
X126924038Y-119674066D02*
X126971657Y-119864542D01*
X126971657Y-119864542D02*
X127019276Y-119959780D01*
X127019276Y-119959780D02*
X127066895Y-120007400D01*
X127066895Y-120007400D02*
X127162133Y-120055019D01*
X127162133Y-120055019D02*
X127257371Y-120055019D01*
X127257371Y-120055019D02*
X127352609Y-120007400D01*
X127352609Y-120007400D02*
X127400228Y-119959780D01*
X127400228Y-119959780D02*
X127447847Y-119864542D01*
X127447847Y-119864542D02*
X127495466Y-119674066D01*
X127495466Y-119674066D02*
X127495466Y-119435971D01*
X127495466Y-119435971D02*
X127447847Y-119245495D01*
X127447847Y-119245495D02*
X127400228Y-119150257D01*
X127400228Y-119150257D02*
X127352609Y-119102638D01*
X127352609Y-119102638D02*
X127257371Y-119055019D01*
X126733562Y-120150257D02*
X125971657Y-120150257D01*
X125733561Y-120055019D02*
X125733561Y-119055019D01*
X125257371Y-120055019D02*
X125257371Y-119055019D01*
X125257371Y-119055019D02*
X124685943Y-120055019D01*
X124685943Y-120055019D02*
X124685943Y-119055019D01*
X124257371Y-119150257D02*
X124209752Y-119102638D01*
X124209752Y-119102638D02*
X124114514Y-119055019D01*
X124114514Y-119055019D02*
X123876419Y-119055019D01*
X123876419Y-119055019D02*
X123781181Y-119102638D01*
X123781181Y-119102638D02*
X123733562Y-119150257D01*
X123733562Y-119150257D02*
X123685943Y-119245495D01*
X123685943Y-119245495D02*
X123685943Y-119340733D01*
X123685943Y-119340733D02*
X123733562Y-119483590D01*
X123733562Y-119483590D02*
X124304990Y-120055019D01*
X124304990Y-120055019D02*
X123685943Y-120055019D01*
X184703261Y-87748119D02*
X184131833Y-87748119D01*
X184417547Y-88748119D02*
X184417547Y-87748119D01*
X183798499Y-88748119D02*
X183798499Y-87748119D01*
X183798499Y-87748119D02*
X183417547Y-87748119D01*
X183417547Y-87748119D02*
X183322309Y-87795738D01*
X183322309Y-87795738D02*
X183274690Y-87843357D01*
X183274690Y-87843357D02*
X183227071Y-87938595D01*
X183227071Y-87938595D02*
X183227071Y-88081452D01*
X183227071Y-88081452D02*
X183274690Y-88176690D01*
X183274690Y-88176690D02*
X183322309Y-88224309D01*
X183322309Y-88224309D02*
X183417547Y-88271928D01*
X183417547Y-88271928D02*
X183798499Y-88271928D01*
X182274690Y-88748119D02*
X182846118Y-88748119D01*
X182560404Y-88748119D02*
X182560404Y-87748119D01*
X182560404Y-87748119D02*
X182655642Y-87890976D01*
X182655642Y-87890976D02*
X182750880Y-87986214D01*
X182750880Y-87986214D02*
X182846118Y-88033833D01*
X181941356Y-87748119D02*
X181322309Y-87748119D01*
X181322309Y-87748119D02*
X181655642Y-88129071D01*
X181655642Y-88129071D02*
X181512785Y-88129071D01*
X181512785Y-88129071D02*
X181417547Y-88176690D01*
X181417547Y-88176690D02*
X181369928Y-88224309D01*
X181369928Y-88224309D02*
X181322309Y-88319547D01*
X181322309Y-88319547D02*
X181322309Y-88557642D01*
X181322309Y-88557642D02*
X181369928Y-88652880D01*
X181369928Y-88652880D02*
X181417547Y-88700500D01*
X181417547Y-88700500D02*
X181512785Y-88748119D01*
X181512785Y-88748119D02*
X181798499Y-88748119D01*
X181798499Y-88748119D02*
X181893737Y-88700500D01*
X181893737Y-88700500D02*
X181941356Y-88652880D01*
X142320761Y-116330619D02*
X142320761Y-115330619D01*
X141892190Y-115425857D02*
X141844571Y-115378238D01*
X141844571Y-115378238D02*
X141749333Y-115330619D01*
X141749333Y-115330619D02*
X141511238Y-115330619D01*
X141511238Y-115330619D02*
X141416000Y-115378238D01*
X141416000Y-115378238D02*
X141368381Y-115425857D01*
X141368381Y-115425857D02*
X141320762Y-115521095D01*
X141320762Y-115521095D02*
X141320762Y-115616333D01*
X141320762Y-115616333D02*
X141368381Y-115759190D01*
X141368381Y-115759190D02*
X141939809Y-116330619D01*
X141939809Y-116330619D02*
X141320762Y-116330619D01*
X140320762Y-116235380D02*
X140368381Y-116283000D01*
X140368381Y-116283000D02*
X140511238Y-116330619D01*
X140511238Y-116330619D02*
X140606476Y-116330619D01*
X140606476Y-116330619D02*
X140749333Y-116283000D01*
X140749333Y-116283000D02*
X140844571Y-116187761D01*
X140844571Y-116187761D02*
X140892190Y-116092523D01*
X140892190Y-116092523D02*
X140939809Y-115902047D01*
X140939809Y-115902047D02*
X140939809Y-115759190D01*
X140939809Y-115759190D02*
X140892190Y-115568714D01*
X140892190Y-115568714D02*
X140844571Y-115473476D01*
X140844571Y-115473476D02*
X140749333Y-115378238D01*
X140749333Y-115378238D02*
X140606476Y-115330619D01*
X140606476Y-115330619D02*
X140511238Y-115330619D01*
X140511238Y-115330619D02*
X140368381Y-115378238D01*
X140368381Y-115378238D02*
X140320762Y-115425857D01*
X140130286Y-116425857D02*
X139368381Y-116425857D01*
X138606476Y-116330619D02*
X139177904Y-116330619D01*
X138892190Y-116330619D02*
X138892190Y-115330619D01*
X138892190Y-115330619D02*
X138987428Y-115473476D01*
X138987428Y-115473476D02*
X139082666Y-115568714D01*
X139082666Y-115568714D02*
X139177904Y-115616333D01*
X179487523Y-111015904D02*
X179011333Y-111015904D01*
X179582761Y-111301619D02*
X179249428Y-110301619D01*
X179249428Y-110301619D02*
X178916095Y-111301619D01*
X178058952Y-111301619D02*
X178630380Y-111301619D01*
X178344666Y-111301619D02*
X178344666Y-110301619D01*
X178344666Y-110301619D02*
X178439904Y-110444476D01*
X178439904Y-110444476D02*
X178535142Y-110539714D01*
X178535142Y-110539714D02*
X178630380Y-110587333D01*
X142828761Y-111250619D02*
X142828761Y-110250619D01*
X142400190Y-110345857D02*
X142352571Y-110298238D01*
X142352571Y-110298238D02*
X142257333Y-110250619D01*
X142257333Y-110250619D02*
X142019238Y-110250619D01*
X142019238Y-110250619D02*
X141924000Y-110298238D01*
X141924000Y-110298238D02*
X141876381Y-110345857D01*
X141876381Y-110345857D02*
X141828762Y-110441095D01*
X141828762Y-110441095D02*
X141828762Y-110536333D01*
X141828762Y-110536333D02*
X141876381Y-110679190D01*
X141876381Y-110679190D02*
X142447809Y-111250619D01*
X142447809Y-111250619D02*
X141828762Y-111250619D01*
X140828762Y-111155380D02*
X140876381Y-111203000D01*
X140876381Y-111203000D02*
X141019238Y-111250619D01*
X141019238Y-111250619D02*
X141114476Y-111250619D01*
X141114476Y-111250619D02*
X141257333Y-111203000D01*
X141257333Y-111203000D02*
X141352571Y-111107761D01*
X141352571Y-111107761D02*
X141400190Y-111012523D01*
X141400190Y-111012523D02*
X141447809Y-110822047D01*
X141447809Y-110822047D02*
X141447809Y-110679190D01*
X141447809Y-110679190D02*
X141400190Y-110488714D01*
X141400190Y-110488714D02*
X141352571Y-110393476D01*
X141352571Y-110393476D02*
X141257333Y-110298238D01*
X141257333Y-110298238D02*
X141114476Y-110250619D01*
X141114476Y-110250619D02*
X141019238Y-110250619D01*
X141019238Y-110250619D02*
X140876381Y-110298238D01*
X140876381Y-110298238D02*
X140828762Y-110345857D01*
X140638286Y-111345857D02*
X139876381Y-111345857D01*
X139685904Y-110345857D02*
X139638285Y-110298238D01*
X139638285Y-110298238D02*
X139543047Y-110250619D01*
X139543047Y-110250619D02*
X139304952Y-110250619D01*
X139304952Y-110250619D02*
X139209714Y-110298238D01*
X139209714Y-110298238D02*
X139162095Y-110345857D01*
X139162095Y-110345857D02*
X139114476Y-110441095D01*
X139114476Y-110441095D02*
X139114476Y-110536333D01*
X139114476Y-110536333D02*
X139162095Y-110679190D01*
X139162095Y-110679190D02*
X139733523Y-111250619D01*
X139733523Y-111250619D02*
X139114476Y-111250619D01*
X177639904Y-121701619D02*
X177639904Y-120701619D01*
X177211333Y-120796857D02*
X177163714Y-120749238D01*
X177163714Y-120749238D02*
X177068476Y-120701619D01*
X177068476Y-120701619D02*
X176830381Y-120701619D01*
X176830381Y-120701619D02*
X176735143Y-120749238D01*
X176735143Y-120749238D02*
X176687524Y-120796857D01*
X176687524Y-120796857D02*
X176639905Y-120892095D01*
X176639905Y-120892095D02*
X176639905Y-120987333D01*
X176639905Y-120987333D02*
X176687524Y-121130190D01*
X176687524Y-121130190D02*
X177258952Y-121701619D01*
X177258952Y-121701619D02*
X176639905Y-121701619D01*
X175639905Y-121606380D02*
X175687524Y-121654000D01*
X175687524Y-121654000D02*
X175830381Y-121701619D01*
X175830381Y-121701619D02*
X175925619Y-121701619D01*
X175925619Y-121701619D02*
X176068476Y-121654000D01*
X176068476Y-121654000D02*
X176163714Y-121558761D01*
X176163714Y-121558761D02*
X176211333Y-121463523D01*
X176211333Y-121463523D02*
X176258952Y-121273047D01*
X176258952Y-121273047D02*
X176258952Y-121130190D01*
X176258952Y-121130190D02*
X176211333Y-120939714D01*
X176211333Y-120939714D02*
X176163714Y-120844476D01*
X176163714Y-120844476D02*
X176068476Y-120749238D01*
X176068476Y-120749238D02*
X175925619Y-120701619D01*
X175925619Y-120701619D02*
X175830381Y-120701619D01*
X175830381Y-120701619D02*
X175687524Y-120749238D01*
X175687524Y-120749238D02*
X175639905Y-120796857D01*
X175449429Y-121796857D02*
X174687524Y-121796857D01*
X173973238Y-120701619D02*
X174449428Y-120701619D01*
X174449428Y-120701619D02*
X174497047Y-121177809D01*
X174497047Y-121177809D02*
X174449428Y-121130190D01*
X174449428Y-121130190D02*
X174354190Y-121082571D01*
X174354190Y-121082571D02*
X174116095Y-121082571D01*
X174116095Y-121082571D02*
X174020857Y-121130190D01*
X174020857Y-121130190D02*
X173973238Y-121177809D01*
X173973238Y-121177809D02*
X173925619Y-121273047D01*
X173925619Y-121273047D02*
X173925619Y-121511142D01*
X173925619Y-121511142D02*
X173973238Y-121606380D01*
X173973238Y-121606380D02*
X174020857Y-121654000D01*
X174020857Y-121654000D02*
X174116095Y-121701619D01*
X174116095Y-121701619D02*
X174354190Y-121701619D01*
X174354190Y-121701619D02*
X174449428Y-121654000D01*
X174449428Y-121654000D02*
X174497047Y-121606380D01*
X155655761Y-111123619D02*
X155655761Y-110123619D01*
X155227190Y-110218857D02*
X155179571Y-110171238D01*
X155179571Y-110171238D02*
X155084333Y-110123619D01*
X155084333Y-110123619D02*
X154846238Y-110123619D01*
X154846238Y-110123619D02*
X154751000Y-110171238D01*
X154751000Y-110171238D02*
X154703381Y-110218857D01*
X154703381Y-110218857D02*
X154655762Y-110314095D01*
X154655762Y-110314095D02*
X154655762Y-110409333D01*
X154655762Y-110409333D02*
X154703381Y-110552190D01*
X154703381Y-110552190D02*
X155274809Y-111123619D01*
X155274809Y-111123619D02*
X154655762Y-111123619D01*
X153655762Y-111028380D02*
X153703381Y-111076000D01*
X153703381Y-111076000D02*
X153846238Y-111123619D01*
X153846238Y-111123619D02*
X153941476Y-111123619D01*
X153941476Y-111123619D02*
X154084333Y-111076000D01*
X154084333Y-111076000D02*
X154179571Y-110980761D01*
X154179571Y-110980761D02*
X154227190Y-110885523D01*
X154227190Y-110885523D02*
X154274809Y-110695047D01*
X154274809Y-110695047D02*
X154274809Y-110552190D01*
X154274809Y-110552190D02*
X154227190Y-110361714D01*
X154227190Y-110361714D02*
X154179571Y-110266476D01*
X154179571Y-110266476D02*
X154084333Y-110171238D01*
X154084333Y-110171238D02*
X153941476Y-110123619D01*
X153941476Y-110123619D02*
X153846238Y-110123619D01*
X153846238Y-110123619D02*
X153703381Y-110171238D01*
X153703381Y-110171238D02*
X153655762Y-110218857D01*
X153465286Y-111218857D02*
X152703381Y-111218857D01*
X152036714Y-110123619D02*
X152227190Y-110123619D01*
X152227190Y-110123619D02*
X152322428Y-110171238D01*
X152322428Y-110171238D02*
X152370047Y-110218857D01*
X152370047Y-110218857D02*
X152465285Y-110361714D01*
X152465285Y-110361714D02*
X152512904Y-110552190D01*
X152512904Y-110552190D02*
X152512904Y-110933142D01*
X152512904Y-110933142D02*
X152465285Y-111028380D01*
X152465285Y-111028380D02*
X152417666Y-111076000D01*
X152417666Y-111076000D02*
X152322428Y-111123619D01*
X152322428Y-111123619D02*
X152131952Y-111123619D01*
X152131952Y-111123619D02*
X152036714Y-111076000D01*
X152036714Y-111076000D02*
X151989095Y-111028380D01*
X151989095Y-111028380D02*
X151941476Y-110933142D01*
X151941476Y-110933142D02*
X151941476Y-110695047D01*
X151941476Y-110695047D02*
X151989095Y-110599809D01*
X151989095Y-110599809D02*
X152036714Y-110552190D01*
X152036714Y-110552190D02*
X152131952Y-110504571D01*
X152131952Y-110504571D02*
X152322428Y-110504571D01*
X152322428Y-110504571D02*
X152417666Y-110552190D01*
X152417666Y-110552190D02*
X152465285Y-110599809D01*
X152465285Y-110599809D02*
X152512904Y-110695047D01*
%TO.C,XA1*%
X118332094Y-129764619D02*
X117665428Y-130764619D01*
X117665428Y-129764619D02*
X118332094Y-130764619D01*
X117332094Y-130478904D02*
X116855904Y-130478904D01*
X117427332Y-130764619D02*
X117093999Y-129764619D01*
X117093999Y-129764619D02*
X116760666Y-130764619D01*
X115903523Y-130764619D02*
X116474951Y-130764619D01*
X116189237Y-130764619D02*
X116189237Y-129764619D01*
X116189237Y-129764619D02*
X116284475Y-129907476D01*
X116284475Y-129907476D02*
X116379713Y-130002714D01*
X116379713Y-130002714D02*
X116474951Y-130050333D01*
D11*
X118479047Y-132311309D02*
X118479047Y-131811309D01*
X118479047Y-131811309D02*
X118359999Y-131811309D01*
X118359999Y-131811309D02*
X118288571Y-131835119D01*
X118288571Y-131835119D02*
X118240952Y-131882738D01*
X118240952Y-131882738D02*
X118217142Y-131930357D01*
X118217142Y-131930357D02*
X118193333Y-132025595D01*
X118193333Y-132025595D02*
X118193333Y-132097023D01*
X118193333Y-132097023D02*
X118217142Y-132192261D01*
X118217142Y-132192261D02*
X118240952Y-132239880D01*
X118240952Y-132239880D02*
X118288571Y-132287500D01*
X118288571Y-132287500D02*
X118359999Y-132311309D01*
X118359999Y-132311309D02*
X118479047Y-132311309D01*
X117883809Y-131811309D02*
X117836190Y-131811309D01*
X117836190Y-131811309D02*
X117788571Y-131835119D01*
X117788571Y-131835119D02*
X117764761Y-131858928D01*
X117764761Y-131858928D02*
X117740952Y-131906547D01*
X117740952Y-131906547D02*
X117717142Y-132001785D01*
X117717142Y-132001785D02*
X117717142Y-132120833D01*
X117717142Y-132120833D02*
X117740952Y-132216071D01*
X117740952Y-132216071D02*
X117764761Y-132263690D01*
X117764761Y-132263690D02*
X117788571Y-132287500D01*
X117788571Y-132287500D02*
X117836190Y-132311309D01*
X117836190Y-132311309D02*
X117883809Y-132311309D01*
X117883809Y-132311309D02*
X117931428Y-132287500D01*
X117931428Y-132287500D02*
X117955237Y-132263690D01*
X117955237Y-132263690D02*
X117979047Y-132216071D01*
X117979047Y-132216071D02*
X118002856Y-132120833D01*
X118002856Y-132120833D02*
X118002856Y-132001785D01*
X118002856Y-132001785D02*
X117979047Y-131906547D01*
X117979047Y-131906547D02*
X117955237Y-131858928D01*
X117955237Y-131858928D02*
X117931428Y-131835119D01*
X117931428Y-131835119D02*
X117883809Y-131811309D01*
D10*
X116586000Y-131939380D02*
X116633619Y-131987000D01*
X116633619Y-131987000D02*
X116586000Y-132034619D01*
X116586000Y-132034619D02*
X116538381Y-131987000D01*
X116538381Y-131987000D02*
X116586000Y-131939380D01*
X116586000Y-131939380D02*
X116586000Y-132034619D01*
%TO.C,U10*%
X188165619Y-94800905D02*
X188975142Y-94800905D01*
X188975142Y-94800905D02*
X189070380Y-94848524D01*
X189070380Y-94848524D02*
X189118000Y-94896143D01*
X189118000Y-94896143D02*
X189165619Y-94991381D01*
X189165619Y-94991381D02*
X189165619Y-95181857D01*
X189165619Y-95181857D02*
X189118000Y-95277095D01*
X189118000Y-95277095D02*
X189070380Y-95324714D01*
X189070380Y-95324714D02*
X188975142Y-95372333D01*
X188975142Y-95372333D02*
X188165619Y-95372333D01*
X189165619Y-96372333D02*
X189165619Y-95800905D01*
X189165619Y-96086619D02*
X188165619Y-96086619D01*
X188165619Y-96086619D02*
X188308476Y-95991381D01*
X188308476Y-95991381D02*
X188403714Y-95896143D01*
X188403714Y-95896143D02*
X188451333Y-95800905D01*
X188165619Y-96991381D02*
X188165619Y-97086619D01*
X188165619Y-97086619D02*
X188213238Y-97181857D01*
X188213238Y-97181857D02*
X188260857Y-97229476D01*
X188260857Y-97229476D02*
X188356095Y-97277095D01*
X188356095Y-97277095D02*
X188546571Y-97324714D01*
X188546571Y-97324714D02*
X188784666Y-97324714D01*
X188784666Y-97324714D02*
X188975142Y-97277095D01*
X188975142Y-97277095D02*
X189070380Y-97229476D01*
X189070380Y-97229476D02*
X189118000Y-97181857D01*
X189118000Y-97181857D02*
X189165619Y-97086619D01*
X189165619Y-97086619D02*
X189165619Y-96991381D01*
X189165619Y-96991381D02*
X189118000Y-96896143D01*
X189118000Y-96896143D02*
X189070380Y-96848524D01*
X189070380Y-96848524D02*
X188975142Y-96800905D01*
X188975142Y-96800905D02*
X188784666Y-96753286D01*
X188784666Y-96753286D02*
X188546571Y-96753286D01*
X188546571Y-96753286D02*
X188356095Y-96800905D01*
X188356095Y-96800905D02*
X188260857Y-96848524D01*
X188260857Y-96848524D02*
X188213238Y-96896143D01*
X188213238Y-96896143D02*
X188165619Y-96991381D01*
%TO.C,XA1*%
X119888000Y-77724000D02*
X119888000Y-131064000D01*
X119888000Y-77724000D02*
X217424000Y-77724000D01*
X119888000Y-131064000D02*
X218948000Y-131064000D01*
X217424000Y-77724000D02*
X218948000Y-79248000D01*
X218948000Y-90424000D02*
X218948000Y-79248000D01*
X218948000Y-129794000D02*
X221488000Y-127254000D01*
X218948000Y-131064000D02*
X218948000Y-129794000D01*
X221488000Y-92964000D02*
X218948000Y-90424000D01*
X221488000Y-127254000D02*
X221488000Y-92964000D01*
D12*
%TO.C,JP10*%
X181132000Y-126320500D02*
X183132000Y-126320500D01*
X183132000Y-126320500D02*
X183132000Y-122220500D01*
X180632000Y-125870500D02*
X180632000Y-125270500D01*
X180932000Y-125570500D02*
X180632000Y-125870500D01*
X180932000Y-125570500D02*
X180632000Y-125270500D01*
X181132000Y-122220500D02*
X181132000Y-126320500D01*
X183132000Y-122220500D02*
X181132000Y-122220500D01*
%TO.C,TP10*%
X179498500Y-93070500D02*
G75*
G03*
X179498500Y-93070500I-700000J0D01*
G01*
%TO.C,TP8*%
X190818500Y-111693500D02*
G75*
G03*
X190818500Y-111693500I-700000J0D01*
G01*
%TO.C,TP5*%
X200934000Y-103270000D02*
G75*
G03*
X200934000Y-103270000I-700000J0D01*
G01*
%TO.C,TP20*%
X122152000Y-97804000D02*
G75*
G03*
X122152000Y-97804000I-700000J0D01*
G01*
%TO.C,JP7*%
X177678000Y-116074000D02*
X179678000Y-116074000D01*
X179678000Y-116074000D02*
X179678000Y-111974000D01*
X177178000Y-115624000D02*
X177178000Y-115024000D01*
X177478000Y-115324000D02*
X177178000Y-115624000D01*
X177478000Y-115324000D02*
X177178000Y-115024000D01*
X177678000Y-111974000D02*
X177678000Y-116074000D01*
X179678000Y-111974000D02*
X177678000Y-111974000D01*
%TO.C,TP21*%
X121898000Y-107964000D02*
G75*
G03*
X121898000Y-107964000I-700000J0D01*
G01*
%TO.C,TP11*%
X201428000Y-120274000D02*
G75*
G03*
X201428000Y-120274000I-700000J0D01*
G01*
%TO.C,TP4*%
X201734000Y-94470000D02*
G75*
G03*
X201734000Y-94470000I-700000J0D01*
G01*
%TO.C,JP8*%
X168798500Y-126320500D02*
X170798500Y-126320500D01*
X170798500Y-126320500D02*
X170798500Y-122220500D01*
X168298500Y-125870500D02*
X168298500Y-125270500D01*
X168598500Y-125570500D02*
X168298500Y-125870500D01*
X168598500Y-125570500D02*
X168298500Y-125270500D01*
X168798500Y-122220500D02*
X168798500Y-126320500D01*
X170798500Y-122220500D02*
X168798500Y-122220500D01*
%TO.C,TP1*%
X203934000Y-103470000D02*
G75*
G03*
X203934000Y-103470000I-700000J0D01*
G01*
%TO.C,TP12*%
X144591000Y-104404000D02*
G75*
G03*
X144591000Y-104404000I-700000J0D01*
G01*
%TO.C,TP6*%
X201734000Y-96670000D02*
G75*
G03*
X201734000Y-96670000I-700000J0D01*
G01*
%TO.C,JP11*%
X187228000Y-126320500D02*
X189228000Y-126320500D01*
X189228000Y-126320500D02*
X189228000Y-122220500D01*
X186728000Y-125870500D02*
X186728000Y-125270500D01*
X187028000Y-125570500D02*
X186728000Y-125870500D01*
X187028000Y-125570500D02*
X186728000Y-125270500D01*
X187228000Y-122220500D02*
X187228000Y-126320500D01*
X189228000Y-122220500D02*
X187228000Y-122220500D01*
%TO.C,JP6*%
X180478000Y-116074000D02*
X182478000Y-116074000D01*
X182478000Y-116074000D02*
X182478000Y-111974000D01*
X179978000Y-115624000D02*
X179978000Y-115024000D01*
X180278000Y-115324000D02*
X179978000Y-115624000D01*
X180278000Y-115324000D02*
X179978000Y-115024000D01*
X180478000Y-111974000D02*
X180478000Y-116074000D01*
X182478000Y-111974000D02*
X180478000Y-111974000D01*
%TO.C,TP15*%
X123422000Y-123204000D02*
G75*
G03*
X123422000Y-123204000I-700000J0D01*
G01*
%TO.C,TP9*%
X190818500Y-113725500D02*
G75*
G03*
X190818500Y-113725500I-700000J0D01*
G01*
%TO.C,TP3*%
X207178000Y-109524000D02*
G75*
G03*
X207178000Y-109524000I-700000J0D01*
G01*
%TO.C,TP17*%
X122660000Y-115838000D02*
G75*
G03*
X122660000Y-115838000I-700000J0D01*
G01*
%TO.C,TP14*%
X184928000Y-89774000D02*
G75*
G03*
X184928000Y-89774000I-700000J0D01*
G01*
%TO.C,TP7*%
X169978000Y-93424000D02*
G75*
G03*
X169978000Y-93424000I-700000J0D01*
G01*
%TO.C,JP3*%
X180958500Y-102408500D02*
X178958500Y-102408500D01*
X178958500Y-102408500D02*
X178958500Y-106508500D01*
X181458500Y-102858500D02*
X181458500Y-103458500D01*
X181158500Y-103158500D02*
X181458500Y-102858500D01*
X181158500Y-103158500D02*
X181458500Y-103458500D01*
X180958500Y-106508500D02*
X180958500Y-102408500D01*
X178958500Y-106508500D02*
X180958500Y-106508500D01*
%TO.C,JP1*%
X192808500Y-102408500D02*
X190808500Y-102408500D01*
X190808500Y-102408500D02*
X190808500Y-106508500D01*
X193308500Y-102858500D02*
X193308500Y-103458500D01*
X193008500Y-103158500D02*
X193308500Y-102858500D01*
X193008500Y-103158500D02*
X193308500Y-103458500D01*
X192808500Y-106508500D02*
X192808500Y-102408500D01*
X190808500Y-106508500D02*
X192808500Y-106508500D01*
%TO.C,TP19*%
X121898000Y-101614000D02*
G75*
G03*
X121898000Y-101614000I-700000J0D01*
G01*
%TO.C,JP5*%
X183278000Y-116074000D02*
X185278000Y-116074000D01*
X185278000Y-116074000D02*
X185278000Y-111974000D01*
X182778000Y-115624000D02*
X182778000Y-115024000D01*
X183078000Y-115324000D02*
X182778000Y-115624000D01*
X183078000Y-115324000D02*
X182778000Y-115024000D01*
X183278000Y-111974000D02*
X183278000Y-116074000D01*
X185278000Y-111974000D02*
X183278000Y-111974000D01*
%TO.C,TP18*%
X122660000Y-112790000D02*
G75*
G03*
X122660000Y-112790000I-700000J0D01*
G01*
%TO.C,TP2*%
X207534000Y-102470000D02*
G75*
G03*
X207534000Y-102470000I-700000J0D01*
G01*
%TO.C,TP16*%
X123318000Y-120824000D02*
G75*
G03*
X123318000Y-120824000I-700000J0D01*
G01*
%TO.C,TP22*%
X122152000Y-104662000D02*
G75*
G03*
X122152000Y-104662000I-700000J0D01*
G01*
%TO.C,U10*%
X196653000Y-92729000D02*
X196383000Y-92729000D01*
X196383000Y-92729000D02*
X196383000Y-91629000D01*
X190023000Y-92729000D02*
X190023000Y-89899000D01*
X189753000Y-92729000D02*
X190023000Y-92729000D01*
X196653000Y-99149000D02*
X196653000Y-92729000D01*
X189753000Y-99149000D02*
X189753000Y-92729000D01*
%TO.C,JP2*%
X187054500Y-102408500D02*
X185054500Y-102408500D01*
X185054500Y-102408500D02*
X185054500Y-106508500D01*
X187554500Y-102858500D02*
X187554500Y-103458500D01*
X187254500Y-103158500D02*
X187554500Y-102858500D01*
X187254500Y-103158500D02*
X187554500Y-103458500D01*
X187054500Y-106508500D02*
X187054500Y-102408500D01*
X185054500Y-106508500D02*
X187054500Y-106508500D01*
%TO.C,G\u002A\u002A\u002A*%
G36*
X143533785Y-91866881D02*
G01*
X143561796Y-91937281D01*
X143582014Y-92008290D01*
X143589184Y-92067337D01*
X143586921Y-92100401D01*
X143572472Y-92151064D01*
X143552794Y-92220060D01*
X143483023Y-92325587D01*
X143383965Y-92409286D01*
X143261978Y-92463458D01*
X143253476Y-92465199D01*
X143201317Y-92469359D01*
X143122824Y-92470743D01*
X143031468Y-92469028D01*
X143026467Y-92468845D01*
X142929402Y-92463194D01*
X142861719Y-92452705D01*
X142809512Y-92434054D01*
X142758871Y-92403920D01*
X142665970Y-92322957D01*
X142607567Y-92225637D01*
X142585957Y-92165220D01*
X142571465Y-92103559D01*
X142682459Y-92103559D01*
X142690165Y-92163504D01*
X142702803Y-92196152D01*
X142722191Y-92214660D01*
X142726798Y-92214198D01*
X142750009Y-92191902D01*
X142756908Y-92151064D01*
X142743226Y-92112438D01*
X142728773Y-92078627D01*
X142742258Y-92027667D01*
X142749555Y-92008399D01*
X142755776Y-91957314D01*
X142743519Y-91921168D01*
X142715928Y-91913580D01*
X142705509Y-91924603D01*
X142691663Y-91969240D01*
X142683469Y-92033848D01*
X142682459Y-92103559D01*
X142571465Y-92103559D01*
X142566652Y-92083081D01*
X142572885Y-92035841D01*
X142585306Y-92001368D01*
X142592065Y-91945043D01*
X142600917Y-91900495D01*
X142625331Y-91871346D01*
X142640603Y-91862275D01*
X142645369Y-91853762D01*
X142772238Y-91853762D01*
X142776905Y-91861199D01*
X142811934Y-91841454D01*
X142827375Y-91828407D01*
X142818718Y-91819837D01*
X142811065Y-91820581D01*
X142779004Y-91841454D01*
X142772238Y-91853762D01*
X142645369Y-91853762D01*
X142658261Y-91830734D01*
X142667425Y-91809331D01*
X142705366Y-91769273D01*
X142761112Y-91726228D01*
X142821963Y-91689662D01*
X142875218Y-91669040D01*
X142886047Y-91667237D01*
X142944868Y-91662235D01*
X143028759Y-91659024D01*
X143123322Y-91658232D01*
X143177288Y-91658859D01*
X143254424Y-91662470D01*
X143306255Y-91671590D01*
X143345019Y-91689015D01*
X143382958Y-91717541D01*
X143398621Y-91730402D01*
X143442272Y-91762671D01*
X143467189Y-91775594D01*
X143475419Y-91778196D01*
X143503241Y-91809662D01*
X143513247Y-91828407D01*
X143533785Y-91866881D01*
G37*
G36*
X141733224Y-92367524D02*
G01*
X141693954Y-92481449D01*
X141612716Y-92582805D01*
X141588117Y-92607516D01*
X141553782Y-92652057D01*
X141544269Y-92681586D01*
X141553130Y-92692767D01*
X141594177Y-92719331D01*
X141655162Y-92746423D01*
X141668558Y-92751356D01*
X141714323Y-92766115D01*
X141755676Y-92772351D01*
X141804405Y-92769679D01*
X141872296Y-92757713D01*
X141971137Y-92736066D01*
X142018538Y-92725330D01*
X142102108Y-92704490D01*
X142161350Y-92683268D01*
X142209162Y-92654760D01*
X142258443Y-92612066D01*
X142322093Y-92548284D01*
X142350621Y-92519857D01*
X142429326Y-92451351D01*
X142487003Y-92419646D01*
X142525053Y-92424218D01*
X142544874Y-92464538D01*
X142540675Y-92484757D01*
X142511367Y-92533486D01*
X142461070Y-92596598D01*
X142397272Y-92665626D01*
X142327463Y-92732105D01*
X142259132Y-92787567D01*
X142239271Y-92798866D01*
X142174899Y-92824208D01*
X142087065Y-92850760D01*
X141988792Y-92874344D01*
X141980200Y-92876135D01*
X141882971Y-92895479D01*
X141813671Y-92905481D01*
X141758421Y-92906468D01*
X141703343Y-92898768D01*
X141634559Y-92882709D01*
X141561702Y-92865977D01*
X141506967Y-92856325D01*
X141482752Y-92855972D01*
X141474432Y-92879913D01*
X141460064Y-92939481D01*
X141441313Y-93026659D01*
X141419651Y-93133601D01*
X141396550Y-93252463D01*
X141373480Y-93375397D01*
X141351914Y-93494557D01*
X141333322Y-93602099D01*
X141319177Y-93690175D01*
X141310948Y-93750939D01*
X141310109Y-93776546D01*
X141325191Y-93789475D01*
X141371902Y-93816864D01*
X141436381Y-93848183D01*
X141481604Y-93870243D01*
X141545580Y-93908022D01*
X141585816Y-93940315D01*
X141592796Y-93950828D01*
X141616608Y-94001390D01*
X141648456Y-94081642D01*
X141685030Y-94182990D01*
X141723024Y-94296837D01*
X141757720Y-94406721D01*
X141787420Y-94508397D01*
X141806716Y-94589669D01*
X141817794Y-94661967D01*
X141822839Y-94736726D01*
X141824035Y-94825378D01*
X141824802Y-94924032D01*
X141828545Y-94990583D01*
X141837393Y-95033663D01*
X141853474Y-95063556D01*
X141878918Y-95090546D01*
X141910514Y-95129941D01*
X141933920Y-95199736D01*
X141925541Y-95267626D01*
X141885010Y-95319811D01*
X141837266Y-95341265D01*
X141766774Y-95352672D01*
X141698990Y-95348343D01*
X141652799Y-95327642D01*
X141652663Y-95327506D01*
X141634298Y-95288168D01*
X141627149Y-95231519D01*
X141631693Y-95177344D01*
X141648408Y-95145430D01*
X141656445Y-95123952D01*
X141663775Y-95064931D01*
X141668614Y-94976442D01*
X141670361Y-94866152D01*
X141669911Y-94775843D01*
X141666784Y-94684155D01*
X141658642Y-94607198D01*
X141643164Y-94530912D01*
X141618031Y-94441234D01*
X141580923Y-94324103D01*
X141574724Y-94305078D01*
X141539653Y-94202035D01*
X141507569Y-94114870D01*
X141481799Y-94052274D01*
X141465668Y-94022936D01*
X141453380Y-94014720D01*
X141403591Y-93991961D01*
X141330232Y-93963947D01*
X141245753Y-93934866D01*
X141162605Y-93908907D01*
X141093239Y-93890260D01*
X141050105Y-93883113D01*
X141029952Y-93885274D01*
X141011762Y-93897491D01*
X141016742Y-93917996D01*
X141032885Y-93972741D01*
X141057548Y-94052298D01*
X141087991Y-94147672D01*
X141097532Y-94177334D01*
X141127696Y-94277891D01*
X141144382Y-94357686D01*
X141147143Y-94429070D01*
X141135531Y-94504396D01*
X141109100Y-94596015D01*
X141067401Y-94716281D01*
X141044141Y-94818363D01*
X141046541Y-94937791D01*
X141052506Y-95000322D01*
X141050366Y-95047418D01*
X141034303Y-95078640D01*
X141000263Y-95108988D01*
X140947622Y-95141438D01*
X140871971Y-95153466D01*
X140797113Y-95122231D01*
X140777886Y-95105749D01*
X140750994Y-95048604D01*
X140762807Y-94978924D01*
X140812944Y-94901998D01*
X140851505Y-94844993D01*
X140898751Y-94745442D01*
X140944959Y-94618013D01*
X140960621Y-94568948D01*
X140985091Y-94487897D01*
X140997839Y-94430337D01*
X141000053Y-94383765D01*
X140992916Y-94335679D01*
X140977614Y-94273574D01*
X140958533Y-94205673D01*
X140924428Y-94097366D01*
X140889506Y-93997726D01*
X140856113Y-93895718D01*
X140838019Y-93798740D01*
X140843691Y-93731680D01*
X140873311Y-93697918D01*
X140890614Y-93694797D01*
X140946806Y-93697550D01*
X141016199Y-93710745D01*
X141043459Y-93717272D01*
X141110050Y-93725918D01*
X141144892Y-93714858D01*
X141153670Y-93695939D01*
X141170348Y-93639361D01*
X141191394Y-93554321D01*
X141215065Y-93449180D01*
X141239616Y-93332298D01*
X141263305Y-93212035D01*
X141284389Y-93096753D01*
X141301124Y-92994812D01*
X141311767Y-92914573D01*
X141324758Y-92791236D01*
X141217655Y-92751897D01*
X141192223Y-92742271D01*
X141119974Y-92708380D01*
X141076227Y-92670386D01*
X141060249Y-92621866D01*
X141068715Y-92571738D01*
X141235494Y-92571738D01*
X141238148Y-92581707D01*
X141270779Y-92618437D01*
X141324202Y-92639747D01*
X141379942Y-92637257D01*
X141408129Y-92617646D01*
X141442190Y-92557801D01*
X141464670Y-92468613D01*
X141472781Y-92358447D01*
X141470126Y-92288354D01*
X141462279Y-92234837D01*
X141450828Y-92214660D01*
X141441449Y-92216313D01*
X141401279Y-92244870D01*
X141354563Y-92300429D01*
X141307964Y-92371944D01*
X141268145Y-92448366D01*
X141241767Y-92518647D01*
X141235494Y-92571738D01*
X141068715Y-92571738D01*
X141071306Y-92556399D01*
X141108663Y-92467565D01*
X141171588Y-92348943D01*
X141286178Y-92142948D01*
X141470134Y-92047084D01*
X141550726Y-92006823D01*
X141645691Y-91967070D01*
X141710051Y-91952699D01*
X141746611Y-91963232D01*
X141758175Y-91998195D01*
X141751907Y-92029102D01*
X141721927Y-92071675D01*
X141704510Y-92087676D01*
X141696937Y-92118096D01*
X141710950Y-92170673D01*
X141730213Y-92242341D01*
X141733006Y-92358447D01*
X141733224Y-92367524D01*
G37*
G36*
X145059854Y-92653754D02*
G01*
X145299330Y-92744468D01*
X145312732Y-92750285D01*
X145384449Y-92779055D01*
X145437730Y-92796552D01*
X145461876Y-92799176D01*
X145465698Y-92791569D01*
X145475588Y-92750176D01*
X145484654Y-92688093D01*
X145488799Y-92660896D01*
X145506601Y-92598609D01*
X145529478Y-92560777D01*
X145543515Y-92554774D01*
X145598655Y-92545758D01*
X145684889Y-92539275D01*
X145793979Y-92535304D01*
X145917686Y-92533826D01*
X146047774Y-92534820D01*
X146176003Y-92538265D01*
X146294136Y-92544142D01*
X146393936Y-92552428D01*
X146467163Y-92563105D01*
X146532441Y-92578093D01*
X146655496Y-92611388D01*
X146788665Y-92652109D01*
X146918725Y-92695929D01*
X147032452Y-92738523D01*
X147116621Y-92775564D01*
X147297164Y-92879629D01*
X147488245Y-93014096D01*
X147672126Y-93166221D01*
X147837085Y-93326280D01*
X147971397Y-93484548D01*
X148026224Y-93557979D01*
X148142978Y-93479409D01*
X148197179Y-93446086D01*
X148289859Y-93398260D01*
X148373301Y-93364478D01*
X148430878Y-93349465D01*
X148558842Y-93329641D01*
X148708861Y-93318679D01*
X148867487Y-93316954D01*
X149021272Y-93324839D01*
X149156766Y-93342708D01*
X149190140Y-93348692D01*
X149270532Y-93360335D01*
X149329862Y-93364912D01*
X149357185Y-93361403D01*
X149360726Y-93343447D01*
X149355392Y-93292833D01*
X149340098Y-93224513D01*
X149321288Y-93115216D01*
X149320306Y-93065329D01*
X149398922Y-93065329D01*
X149422256Y-93217092D01*
X149474701Y-93369356D01*
X149553840Y-93513174D01*
X149657255Y-93639600D01*
X149681323Y-93661989D01*
X149739135Y-93708871D01*
X149806194Y-93757478D01*
X149873687Y-93802113D01*
X149932805Y-93837079D01*
X149974737Y-93856677D01*
X149990673Y-93855210D01*
X149987150Y-93850104D01*
X149960361Y-93819984D01*
X149912969Y-93769571D01*
X149851851Y-93706244D01*
X149753284Y-93594701D01*
X149649154Y-93435693D01*
X149584338Y-93270687D01*
X149573653Y-93203650D01*
X150254112Y-93203650D01*
X150259201Y-93254106D01*
X150299944Y-93354287D01*
X150377453Y-93444152D01*
X150486925Y-93517231D01*
X150495907Y-93521311D01*
X150557715Y-93540713D01*
X150643934Y-93559701D01*
X150738812Y-93574683D01*
X150770214Y-93578620D01*
X150851794Y-93588602D01*
X150902819Y-93593685D01*
X150933341Y-93594232D01*
X150953411Y-93590609D01*
X150973084Y-93583181D01*
X150977858Y-93580949D01*
X150994194Y-93562331D01*
X150997690Y-93526771D01*
X150987405Y-93468341D01*
X150962401Y-93381115D01*
X150921738Y-93259168D01*
X150905143Y-93211383D01*
X150874315Y-93126757D01*
X150850471Y-93072857D01*
X150828883Y-93042009D01*
X150813918Y-93032389D01*
X150934666Y-93032389D01*
X150934789Y-93034203D01*
X150943109Y-93069306D01*
X150962578Y-93135978D01*
X150990530Y-93225402D01*
X151024297Y-93328759D01*
X151026694Y-93335952D01*
X151063122Y-93443871D01*
X151089956Y-93517135D01*
X151094437Y-93526771D01*
X151111028Y-93562447D01*
X151130167Y-93586513D01*
X151151204Y-93596036D01*
X151177970Y-93597720D01*
X151183741Y-93597664D01*
X151228891Y-93588031D01*
X151242012Y-93558127D01*
X151240259Y-93543154D01*
X151226808Y-93487538D01*
X151203215Y-93407907D01*
X151173228Y-93315286D01*
X151140596Y-93220701D01*
X151109066Y-93135175D01*
X151082387Y-93069735D01*
X151064306Y-93035405D01*
X151037022Y-93016209D01*
X150992156Y-93005938D01*
X150952038Y-93011192D01*
X150934666Y-93032389D01*
X150813918Y-93032389D01*
X150804820Y-93026541D01*
X150773553Y-93018782D01*
X150720604Y-93015402D01*
X150639277Y-93018203D01*
X150550482Y-93026963D01*
X150548249Y-93027261D01*
X150467989Y-93037544D01*
X150403789Y-93045049D01*
X150369367Y-93048168D01*
X150349678Y-93052474D01*
X150304219Y-93086684D01*
X150268547Y-93142225D01*
X150254112Y-93203650D01*
X149573653Y-93203650D01*
X149556216Y-93094256D01*
X149553846Y-93002632D01*
X149565393Y-92880501D01*
X149598248Y-92781839D01*
X149655014Y-92696149D01*
X149666139Y-92682572D01*
X149695722Y-92637107D01*
X149691296Y-92618686D01*
X149653583Y-92627630D01*
X149583309Y-92664262D01*
X149557480Y-92680270D01*
X149485985Y-92742324D01*
X149436969Y-92824274D01*
X149407116Y-92923013D01*
X149398922Y-93065329D01*
X149320306Y-93065329D01*
X149318892Y-92993499D01*
X149333009Y-92879640D01*
X149362764Y-92790385D01*
X149403231Y-92729133D01*
X149500201Y-92637136D01*
X149628443Y-92561602D01*
X149632251Y-92559852D01*
X149662028Y-92546896D01*
X149692220Y-92536403D01*
X149727657Y-92528065D01*
X149773172Y-92521574D01*
X149833599Y-92516620D01*
X149913768Y-92512896D01*
X150018514Y-92510091D01*
X150152667Y-92507899D01*
X150321062Y-92506010D01*
X150528529Y-92504115D01*
X150712248Y-92502883D01*
X150936792Y-92502745D01*
X151117966Y-92504502D01*
X151255644Y-92508151D01*
X151349704Y-92513690D01*
X151400021Y-92521116D01*
X151419421Y-92527704D01*
X151513823Y-92583732D01*
X151597950Y-92671158D01*
X151661336Y-92779627D01*
X151670862Y-92802690D01*
X151686123Y-92842053D01*
X151705963Y-92895649D01*
X151731443Y-92966517D01*
X151763621Y-93057696D01*
X151803554Y-93172224D01*
X151852301Y-93313138D01*
X151910921Y-93483479D01*
X151936521Y-93558127D01*
X151980471Y-93686283D01*
X152038272Y-93855210D01*
X152062011Y-93924589D01*
X152085655Y-93993793D01*
X152156599Y-94201436D01*
X152191794Y-94304505D01*
X152251616Y-94479955D01*
X152299245Y-94620606D01*
X152335986Y-94730949D01*
X152363145Y-94815482D01*
X152382028Y-94878697D01*
X152393941Y-94925090D01*
X152400190Y-94959156D01*
X152402080Y-94985388D01*
X152400917Y-95008282D01*
X152398008Y-95032332D01*
X152396848Y-95040062D01*
X152374001Y-95111534D01*
X152351058Y-95148146D01*
X152337651Y-95169541D01*
X152325618Y-95181821D01*
X152301097Y-95200605D01*
X152268931Y-95212458D01*
X152220057Y-95218963D01*
X152145409Y-95221704D01*
X152035922Y-95222266D01*
X152010667Y-95222242D01*
X151905942Y-95220986D01*
X151832274Y-95216587D01*
X151778943Y-95207351D01*
X151735227Y-95191580D01*
X151690406Y-95167577D01*
X151641908Y-95135533D01*
X151594115Y-95091427D01*
X151551927Y-95033383D01*
X151511135Y-94954274D01*
X151467531Y-94846971D01*
X151416909Y-94704348D01*
X151377320Y-94589119D01*
X151324640Y-94439273D01*
X151282364Y-94324672D01*
X151248819Y-94241248D01*
X151222333Y-94184933D01*
X151201233Y-94151658D01*
X151183847Y-94137355D01*
X151176513Y-94135831D01*
X151133591Y-94150907D01*
X151077221Y-94197187D01*
X151076001Y-94198421D01*
X151031026Y-94261976D01*
X150982829Y-94364451D01*
X150930980Y-94507023D01*
X150875050Y-94690869D01*
X150814610Y-94917165D01*
X150792301Y-94997391D01*
X150753341Y-95097344D01*
X150704168Y-95167729D01*
X150638318Y-95212280D01*
X150549327Y-95234731D01*
X150430731Y-95238816D01*
X150276066Y-95228269D01*
X150259080Y-95226698D01*
X150136015Y-95218533D01*
X150044644Y-95218665D01*
X149990673Y-95227117D01*
X149982868Y-95229940D01*
X149919919Y-95248637D01*
X149847976Y-95265594D01*
X149824212Y-95269790D01*
X149719110Y-95280513D01*
X149588891Y-95285543D01*
X149447312Y-95285107D01*
X149308131Y-95279428D01*
X149185104Y-95268732D01*
X149091989Y-95253243D01*
X149078930Y-95249998D01*
X148899624Y-95190748D01*
X148717409Y-95106416D01*
X148547889Y-95005156D01*
X148406667Y-94895122D01*
X148375162Y-94866734D01*
X148311711Y-94812667D01*
X148262860Y-94775236D01*
X148237221Y-94761246D01*
X148237048Y-94761250D01*
X148212872Y-94778138D01*
X148172400Y-94821640D01*
X148124298Y-94882452D01*
X148086159Y-94930590D01*
X147961094Y-95050566D01*
X147942806Y-95062014D01*
X147810413Y-95144891D01*
X147631583Y-95214390D01*
X147422073Y-95259892D01*
X147179354Y-95282222D01*
X146900892Y-95282209D01*
X146892114Y-95281881D01*
X146717356Y-95272110D01*
X146575848Y-95256263D01*
X146457562Y-95232337D01*
X146352472Y-95198326D01*
X146250551Y-95152228D01*
X146165658Y-95108987D01*
X146072352Y-95149453D01*
X146040625Y-95163213D01*
X145960498Y-95195782D01*
X145836800Y-95235845D01*
X145708207Y-95263146D01*
X145565123Y-95279037D01*
X145397950Y-95284871D01*
X145197088Y-95281997D01*
X145186122Y-95281657D01*
X145025919Y-95275401D01*
X144900167Y-95267041D01*
X144799954Y-95255218D01*
X144716368Y-95238574D01*
X144640497Y-95215749D01*
X144563428Y-95185386D01*
X144524968Y-95170031D01*
X144483551Y-95162079D01*
X144439292Y-95170653D01*
X144373763Y-95196868D01*
X144337796Y-95210341D01*
X144210478Y-95238186D01*
X144058314Y-95249357D01*
X143892961Y-95244032D01*
X143726078Y-95222389D01*
X143569324Y-95184606D01*
X143529846Y-95172074D01*
X143464468Y-95146150D01*
X143427044Y-95115611D01*
X143407432Y-95069500D01*
X143395487Y-94996862D01*
X143387017Y-94939465D01*
X143352341Y-94767421D01*
X143300418Y-94564138D01*
X143233004Y-94335377D01*
X143151855Y-94086896D01*
X143058729Y-93824455D01*
X142955381Y-93553813D01*
X142941819Y-93519509D01*
X142889730Y-93387716D01*
X142837613Y-93255792D01*
X142790861Y-93137391D01*
X142754866Y-93046165D01*
X142732659Y-92987135D01*
X142693796Y-92854441D01*
X142683450Y-92751965D01*
X142684445Y-92747958D01*
X142788782Y-92747958D01*
X142791609Y-92844357D01*
X142821336Y-92974463D01*
X142877882Y-93137898D01*
X142961169Y-93334280D01*
X142973887Y-93363131D01*
X143014072Y-93461361D01*
X143057388Y-93575082D01*
X143096441Y-93685109D01*
X143110786Y-93726882D01*
X143150454Y-93837834D01*
X143190098Y-93943398D01*
X143222956Y-94025386D01*
X143272436Y-94153875D01*
X143322544Y-94309126D01*
X143365887Y-94469057D01*
X143399726Y-94622456D01*
X143421323Y-94758109D01*
X143427940Y-94864803D01*
X143427627Y-94887069D01*
X143430831Y-94962115D01*
X143443836Y-95010493D01*
X143469812Y-95045918D01*
X143506205Y-95076370D01*
X143536394Y-95090546D01*
X143539389Y-95090108D01*
X143553718Y-95064626D01*
X143557705Y-95005048D01*
X143552535Y-94918559D01*
X143539394Y-94812347D01*
X143535800Y-94790930D01*
X144370621Y-94790930D01*
X144371285Y-94811871D01*
X144399085Y-94921236D01*
X144459691Y-95005048D01*
X144465683Y-95013335D01*
X144568232Y-95083947D01*
X144598680Y-95098211D01*
X144671090Y-95128207D01*
X144727921Y-95146839D01*
X144742951Y-95150079D01*
X144760942Y-95149453D01*
X144756313Y-95133957D01*
X144726153Y-95098302D01*
X144667549Y-95037201D01*
X144640684Y-95009161D01*
X144584364Y-94943167D01*
X144554813Y-94892020D01*
X144546247Y-94846635D01*
X144534940Y-94764444D01*
X144498280Y-94712531D01*
X144435708Y-94695386D01*
X144414314Y-94695786D01*
X144384545Y-94703783D01*
X144372728Y-94731464D01*
X144370621Y-94790930D01*
X143535800Y-94790930D01*
X143519467Y-94693596D01*
X143493938Y-94569491D01*
X143463994Y-94447219D01*
X143430819Y-94333966D01*
X143395599Y-94236916D01*
X143391680Y-94227340D01*
X143362984Y-94153671D01*
X143325238Y-94052739D01*
X143282895Y-93936585D01*
X143240410Y-93817253D01*
X143235161Y-93802374D01*
X143189949Y-93678295D01*
X143142963Y-93555421D01*
X143099460Y-93447222D01*
X143064699Y-93367168D01*
X143029413Y-93285906D01*
X142988050Y-93179719D01*
X142984449Y-93169630D01*
X143832764Y-93169630D01*
X143837719Y-93235490D01*
X143842307Y-93261314D01*
X143860081Y-93328134D01*
X143888971Y-93423465D01*
X143926734Y-93540920D01*
X143971125Y-93674110D01*
X144019902Y-93816647D01*
X144070820Y-93962143D01*
X144121636Y-94104210D01*
X144170108Y-94236458D01*
X144213990Y-94352500D01*
X144251041Y-94445948D01*
X144279016Y-94510413D01*
X144295671Y-94539507D01*
X144308276Y-94549159D01*
X144373150Y-94577318D01*
X144451053Y-94591735D01*
X144518331Y-94587330D01*
X144562147Y-94582429D01*
X144641499Y-94592534D01*
X144753714Y-94621616D01*
X144901690Y-94657051D01*
X145061836Y-94669811D01*
X145197272Y-94647721D01*
X145309459Y-94590499D01*
X145399861Y-94497865D01*
X145416848Y-94473206D01*
X145480682Y-94338681D01*
X145502087Y-94194381D01*
X145481401Y-94038402D01*
X145460142Y-93962481D01*
X145386112Y-93772742D01*
X145285356Y-93607045D01*
X145151140Y-93453462D01*
X145049834Y-93362127D01*
X144878328Y-93243687D01*
X144701777Y-93163811D01*
X144524117Y-93124106D01*
X144349282Y-93126177D01*
X144333116Y-93128284D01*
X144245060Y-93137991D01*
X144137583Y-93147908D01*
X144030344Y-93156187D01*
X143832764Y-93169630D01*
X142984449Y-93169630D01*
X142951385Y-93077006D01*
X144768768Y-93077006D01*
X144774524Y-93086963D01*
X144812626Y-93109933D01*
X144886524Y-93149251D01*
X144940990Y-93178733D01*
X145093597Y-93276701D01*
X145219424Y-93386573D01*
X145331515Y-93519193D01*
X145387025Y-93596999D01*
X145460389Y-93718671D01*
X145509357Y-93836375D01*
X145539727Y-93965586D01*
X145557298Y-94121781D01*
X145558687Y-94140473D01*
X145562129Y-94194381D01*
X145565139Y-94241525D01*
X145566066Y-94312711D01*
X145560318Y-94366045D01*
X145546743Y-94413545D01*
X145524188Y-94467225D01*
X145466890Y-94562835D01*
X145388614Y-94641640D01*
X145362038Y-94661235D01*
X145312013Y-94698766D01*
X145282781Y-94721617D01*
X145276328Y-94734347D01*
X145298589Y-94738646D01*
X145343233Y-94732714D01*
X145390905Y-94720359D01*
X146019688Y-94720359D01*
X146024916Y-94802193D01*
X146036249Y-94888405D01*
X146056843Y-94956131D01*
X146088580Y-94992305D01*
X146135063Y-95003511D01*
X146179000Y-95011690D01*
X146236653Y-95035663D01*
X146280638Y-95058920D01*
X146303955Y-95062014D01*
X146300443Y-95035583D01*
X146272689Y-94975291D01*
X146259202Y-94945537D01*
X146235002Y-94856341D01*
X146230089Y-94746845D01*
X146230499Y-94731227D01*
X146230549Y-94662769D01*
X146223087Y-94623637D01*
X146203251Y-94601421D01*
X146166180Y-94583709D01*
X146122166Y-94568530D01*
X146089281Y-94574065D01*
X146055270Y-94609087D01*
X146041008Y-94628475D01*
X146024293Y-94667284D01*
X146019688Y-94720359D01*
X145390905Y-94720359D01*
X145399671Y-94718087D01*
X145457310Y-94696302D01*
X145470029Y-94690385D01*
X145550699Y-94643343D01*
X145622544Y-94579877D01*
X145699186Y-94488271D01*
X145722532Y-94455471D01*
X145741502Y-94417231D01*
X145752084Y-94370192D01*
X145756674Y-94302659D01*
X145757672Y-94202933D01*
X145757563Y-94180183D01*
X145748302Y-94022527D01*
X145721004Y-93889522D01*
X145671266Y-93765860D01*
X145594687Y-93636236D01*
X145447166Y-93448560D01*
X145274143Y-93294230D01*
X145080558Y-93178382D01*
X145967073Y-93178382D01*
X145992516Y-93225916D01*
X146052812Y-93295242D01*
X146202520Y-93475908D01*
X146341363Y-93699841D01*
X146442966Y-93936586D01*
X146505138Y-94180900D01*
X146506974Y-94202933D01*
X146525691Y-94427539D01*
X146525644Y-94439997D01*
X146526023Y-94531530D01*
X146529416Y-94589360D01*
X146538032Y-94622680D01*
X146554081Y-94640682D01*
X146579772Y-94652560D01*
X146615879Y-94661354D01*
X146688009Y-94669856D01*
X146770451Y-94672951D01*
X146859233Y-94666814D01*
X146996742Y-94629030D01*
X147107597Y-94560027D01*
X147189821Y-94463529D01*
X147241437Y-94343263D01*
X147260466Y-94202953D01*
X147244933Y-94046324D01*
X147192859Y-93877103D01*
X147111495Y-93711128D01*
X146989447Y-93534827D01*
X146844613Y-93384895D01*
X146681877Y-93264834D01*
X146506124Y-93178147D01*
X146495803Y-93175351D01*
X146689470Y-93175351D01*
X146722490Y-93204918D01*
X146793936Y-93254804D01*
X146841261Y-93288073D01*
X146999769Y-93431054D01*
X147129970Y-93600495D01*
X147227973Y-93789321D01*
X147289889Y-93990456D01*
X147311827Y-94196823D01*
X147311615Y-94202953D01*
X147308665Y-94288281D01*
X147288071Y-94402504D01*
X147243352Y-94502505D01*
X147168768Y-94604642D01*
X147163085Y-94611423D01*
X147132330Y-94651611D01*
X147129118Y-94669385D01*
X147151253Y-94673351D01*
X147194828Y-94663296D01*
X147262707Y-94629009D01*
X147332106Y-94579583D01*
X147387693Y-94524661D01*
X147439160Y-94440378D01*
X147478567Y-94308490D01*
X147486768Y-94158069D01*
X147472645Y-94056380D01*
X147935515Y-94056380D01*
X147958158Y-94158069D01*
X147973687Y-94227806D01*
X148048243Y-94397838D01*
X148156782Y-94560481D01*
X148296905Y-94709740D01*
X148412662Y-94812075D01*
X148518995Y-94899017D01*
X148609401Y-94963653D01*
X148690952Y-95011396D01*
X148741515Y-95036116D01*
X148765243Y-95042942D01*
X148757602Y-95028190D01*
X148717557Y-94989987D01*
X148710797Y-94984143D01*
X149957743Y-94984143D01*
X150021899Y-95042942D01*
X150039745Y-95059298D01*
X150069364Y-95084283D01*
X150123530Y-95120299D01*
X150162991Y-95134453D01*
X150181538Y-95132937D01*
X150190315Y-95121425D01*
X150180413Y-95090343D01*
X150150711Y-95030175D01*
X150138349Y-95005350D01*
X150113561Y-94941258D01*
X150105626Y-94878183D01*
X150110838Y-94794176D01*
X150123905Y-94693012D01*
X150182860Y-94439128D01*
X150279844Y-94196862D01*
X150298990Y-94156247D01*
X150331279Y-94079943D01*
X150333841Y-94072338D01*
X151251049Y-94072338D01*
X151270325Y-94109707D01*
X151274330Y-94116219D01*
X151291024Y-94149509D01*
X151313610Y-94203146D01*
X151343692Y-94281391D01*
X151382874Y-94388502D01*
X151432758Y-94528740D01*
X151494948Y-94706363D01*
X151509289Y-94746510D01*
X151534181Y-94811973D01*
X151552248Y-94854250D01*
X151561913Y-94877687D01*
X151571312Y-94921946D01*
X151578657Y-94941931D01*
X151609327Y-94987794D01*
X151655753Y-95042987D01*
X151691808Y-95079474D01*
X151750063Y-95121854D01*
X151803938Y-95134753D01*
X151857158Y-95138129D01*
X151922565Y-95148883D01*
X151944550Y-95153333D01*
X151954049Y-95148146D01*
X151936165Y-95124614D01*
X151888264Y-95077235D01*
X151813363Y-94985836D01*
X151760588Y-94881990D01*
X151749278Y-94850352D01*
X151714363Y-94757189D01*
X151681092Y-94673433D01*
X151670142Y-94645995D01*
X151643325Y-94570158D01*
X151625959Y-94508783D01*
X151609182Y-94447736D01*
X151583440Y-94377063D01*
X151576574Y-94360365D01*
X151550749Y-94289271D01*
X151526349Y-94212413D01*
X151517725Y-94185143D01*
X151491860Y-94120283D01*
X151467308Y-94077513D01*
X151413540Y-94041519D01*
X151342868Y-94027425D01*
X151279170Y-94040399D01*
X151261941Y-94050779D01*
X151251049Y-94072338D01*
X150333841Y-94072338D01*
X150350658Y-94022429D01*
X150353467Y-93993793D01*
X150349088Y-93987764D01*
X150311995Y-93970623D01*
X150270043Y-93982973D01*
X150242092Y-94020322D01*
X150224565Y-94060083D01*
X150188151Y-94113623D01*
X150126901Y-94200493D01*
X150064261Y-94331848D01*
X150013647Y-94485840D01*
X150006271Y-94520707D01*
X149978655Y-94651250D01*
X149962877Y-94816856D01*
X149957743Y-94984143D01*
X148710797Y-94984143D01*
X148644076Y-94926459D01*
X148581131Y-94869565D01*
X148449977Y-94729507D01*
X148332867Y-94576490D01*
X148242595Y-94426444D01*
X148224987Y-94389929D01*
X148166462Y-94228899D01*
X148149251Y-94139410D01*
X148794249Y-94139410D01*
X148817826Y-94263391D01*
X148862197Y-94375541D01*
X148951975Y-94513112D01*
X149075262Y-94625412D01*
X149151442Y-94670411D01*
X149247322Y-94704531D01*
X149335314Y-94713536D01*
X149403421Y-94694886D01*
X149410947Y-94689774D01*
X149458630Y-94634633D01*
X149493915Y-94557433D01*
X149507699Y-94477179D01*
X149495118Y-94383532D01*
X149449511Y-94260699D01*
X149377225Y-94139195D01*
X149285256Y-94030388D01*
X149180602Y-93945651D01*
X149113943Y-93913083D01*
X149291313Y-93913083D01*
X149304231Y-93947186D01*
X149350345Y-94009345D01*
X149400523Y-94073041D01*
X149478279Y-94197134D01*
X149522743Y-94317011D01*
X149538215Y-94442585D01*
X149537903Y-94477179D01*
X149537697Y-94500049D01*
X149532143Y-94583785D01*
X149522420Y-94645991D01*
X149513762Y-94687522D01*
X149519532Y-94711956D01*
X149547910Y-94717340D01*
X149556674Y-94716243D01*
X149601579Y-94693243D01*
X149648444Y-94649795D01*
X149671909Y-94616375D01*
X149704401Y-94520707D01*
X149703382Y-94410887D01*
X149671236Y-94293794D01*
X149610349Y-94176306D01*
X149523105Y-94065302D01*
X149411891Y-93967659D01*
X149359955Y-93932509D01*
X149310314Y-93907902D01*
X149291313Y-93913083D01*
X149113943Y-93913083D01*
X149087785Y-93900303D01*
X148989352Y-93884099D01*
X148906243Y-93903884D01*
X148842997Y-93955681D01*
X148804152Y-94035515D01*
X148794249Y-94139410D01*
X148149251Y-94139410D01*
X148135125Y-94065958D01*
X148130692Y-93908598D01*
X148152879Y-93764310D01*
X148201402Y-93640588D01*
X148275977Y-93544922D01*
X148307507Y-93511396D01*
X148322220Y-93484551D01*
X148312964Y-93466846D01*
X148276606Y-93474899D01*
X148212275Y-93515570D01*
X148119523Y-93589091D01*
X148080224Y-93622529D01*
X148021299Y-93677196D01*
X147984859Y-93722672D01*
X147962550Y-93770700D01*
X147946022Y-93833022D01*
X147936125Y-93889556D01*
X147935515Y-94056380D01*
X147472645Y-94056380D01*
X147464210Y-93995648D01*
X147411341Y-93827765D01*
X147328606Y-93660955D01*
X147262129Y-93565355D01*
X147151882Y-93443793D01*
X147024681Y-93333219D01*
X146892037Y-93243380D01*
X146765462Y-93184026D01*
X146737854Y-93175051D01*
X146694663Y-93165572D01*
X146689470Y-93175351D01*
X146495803Y-93175351D01*
X146322238Y-93128333D01*
X146135104Y-93118894D01*
X146121682Y-93119785D01*
X146029474Y-93129993D01*
X145982936Y-93146456D01*
X145978665Y-93147967D01*
X145967073Y-93178382D01*
X145080558Y-93178382D01*
X145077557Y-93176586D01*
X145044053Y-93161052D01*
X144952482Y-93122584D01*
X144871016Y-93093550D01*
X144814117Y-93079291D01*
X144791905Y-93076729D01*
X144768768Y-93077006D01*
X142951385Y-93077006D01*
X142947578Y-93066341D01*
X142911126Y-92955346D01*
X142881822Y-92856307D01*
X142873509Y-92822437D01*
X143825818Y-92822437D01*
X143826894Y-92911693D01*
X143833177Y-92984316D01*
X143843629Y-93026724D01*
X143876151Y-93057615D01*
X143932709Y-93070439D01*
X143989665Y-93054039D01*
X143994355Y-93048338D01*
X144006584Y-93005151D01*
X144010900Y-92970841D01*
X145491712Y-92970841D01*
X145501043Y-93035812D01*
X145533617Y-93098111D01*
X145552238Y-93119473D01*
X145618015Y-93161759D01*
X145695346Y-93163276D01*
X145723612Y-93146456D01*
X145719728Y-93107256D01*
X145714827Y-93084898D01*
X145706850Y-93021522D01*
X145699432Y-92933788D01*
X145693703Y-92833582D01*
X145692026Y-92796173D01*
X145687137Y-92707392D01*
X145681117Y-92652403D01*
X145671978Y-92623592D01*
X145657732Y-92613345D01*
X145636391Y-92614048D01*
X145620332Y-92617798D01*
X145598805Y-92635602D01*
X145585317Y-92676229D01*
X145575131Y-92750208D01*
X145571331Y-92780635D01*
X145552587Y-92860916D01*
X145525736Y-92899484D01*
X145506223Y-92918291D01*
X145491712Y-92970841D01*
X144010900Y-92970841D01*
X144016334Y-92927635D01*
X144022595Y-92822871D01*
X144030344Y-92607831D01*
X143931554Y-92614314D01*
X143832764Y-92620797D01*
X143826391Y-92801702D01*
X143825818Y-92822437D01*
X142873509Y-92822437D01*
X142862797Y-92778796D01*
X142857181Y-92732385D01*
X142857382Y-92729727D01*
X142858449Y-92676810D01*
X142848189Y-92660830D01*
X142822911Y-92675680D01*
X142812936Y-92685649D01*
X142788782Y-92747958D01*
X142684445Y-92747958D01*
X142702057Y-92677048D01*
X142750050Y-92627033D01*
X142827862Y-92599262D01*
X142836837Y-92597680D01*
X142930815Y-92588520D01*
X143052689Y-92585555D01*
X143188672Y-92588278D01*
X143324975Y-92596184D01*
X143447810Y-92608766D01*
X143543390Y-92625518D01*
X143693082Y-92661644D01*
X143741103Y-92601420D01*
X143764075Y-92575989D01*
X143794254Y-92555612D01*
X143838442Y-92541116D01*
X143906558Y-92529379D01*
X144008524Y-92517280D01*
X144064049Y-92512299D01*
X144295946Y-92510450D01*
X144546792Y-92534744D01*
X144805218Y-92583179D01*
X144894163Y-92607831D01*
X145059854Y-92653754D01*
G37*
%TO.C,JP4*%
X174608500Y-102408500D02*
X172608500Y-102408500D01*
X172608500Y-102408500D02*
X172608500Y-106508500D01*
X175108500Y-102858500D02*
X175108500Y-103458500D01*
X174808500Y-103158500D02*
X175108500Y-102858500D01*
X174808500Y-103158500D02*
X175108500Y-103458500D01*
X174608500Y-106508500D02*
X174608500Y-102408500D01*
X172608500Y-106508500D02*
X174608500Y-106508500D01*
%TO.C,TP13*%
X181298500Y-89070500D02*
G75*
G03*
X181298500Y-89070500I-700000J0D01*
G01*
%TO.C,JP9*%
X174798500Y-126320500D02*
X176798500Y-126320500D01*
X176798500Y-126320500D02*
X176798500Y-122220500D01*
X174298500Y-125870500D02*
X174298500Y-125270500D01*
X174598500Y-125570500D02*
X174298500Y-125870500D01*
X174598500Y-125570500D02*
X174298500Y-125270500D01*
X174798500Y-122220500D02*
X174798500Y-126320500D01*
X176798500Y-122220500D02*
X174798500Y-122220500D01*
%TD*%
%LPC*%
D13*
%TO.C,J13*%
X135128000Y-105674000D03*
D14*
X135128000Y-108214000D03*
%TD*%
D13*
%TO.C,J10*%
X135128000Y-98054000D03*
D14*
X135128000Y-100594000D03*
%TD*%
D13*
%TO.C,J3*%
X147828000Y-118374000D03*
D14*
X145288000Y-118374000D03*
X142748000Y-118374000D03*
X140208000Y-118374000D03*
%TD*%
D15*
%TO.C,J1*%
X132278000Y-86824000D03*
D16*
X132278000Y-91824000D03*
%TD*%
D13*
%TO.C,J8*%
X135128000Y-113294000D03*
D14*
X135128000Y-115834000D03*
%TD*%
D13*
%TO.C,J4*%
X147828000Y-113278000D03*
D14*
X145288000Y-113278000D03*
X142748000Y-113278000D03*
X140208000Y-113278000D03*
%TD*%
D13*
%TO.C,J14*%
X160514000Y-108198000D03*
D14*
X157974000Y-108198000D03*
X155434000Y-108198000D03*
X152894000Y-108198000D03*
%TD*%
D13*
%TO.C,J2*%
X147828000Y-123454000D03*
D14*
X145288000Y-123454000D03*
X142748000Y-123454000D03*
X140208000Y-123454000D03*
%TD*%
D17*
%TO.C,U9*%
X124806000Y-104821500D03*
X124806000Y-106121500D03*
X124806000Y-107421500D03*
X126106000Y-104821500D03*
X126106000Y-106121500D03*
X126106000Y-107421500D03*
%TD*%
%TO.C,U7*%
X124754000Y-113006500D03*
X124754000Y-114306500D03*
X124754000Y-115606500D03*
X126054000Y-113006500D03*
X126054000Y-114306500D03*
X126054000Y-115606500D03*
%TD*%
D13*
%TO.C,J5*%
X147828000Y-108214000D03*
D14*
X145288000Y-108214000D03*
X142748000Y-108214000D03*
X140208000Y-108214000D03*
%TD*%
D13*
%TO.C,J12*%
X173228000Y-90984000D03*
D14*
X173228000Y-93524000D03*
X173228000Y-96064000D03*
X173228000Y-98604000D03*
%TD*%
D13*
%TO.C,J11*%
X160528000Y-113278000D03*
D14*
X157988000Y-113278000D03*
X155448000Y-113278000D03*
X152908000Y-113278000D03*
%TD*%
D13*
%TO.C,J6*%
X135128000Y-120914000D03*
D14*
X135128000Y-123454000D03*
%TD*%
D17*
%TO.C,U8*%
X124929000Y-98504500D03*
X124929000Y-99804500D03*
X124929000Y-101104500D03*
X126229000Y-98504500D03*
X126229000Y-99804500D03*
X126229000Y-101104500D03*
%TD*%
D13*
%TO.C,J7*%
X160528000Y-123454000D03*
D14*
X157988000Y-123454000D03*
X155448000Y-123454000D03*
X152908000Y-123454000D03*
%TD*%
D18*
%TO.C,XA1*%
X133858000Y-128524000D03*
X135128000Y-80264000D03*
D19*
X147828000Y-128524000D03*
D18*
X210058000Y-80264000D03*
X216408000Y-128524000D03*
D19*
X155448000Y-128524000D03*
X157988000Y-128524000D03*
X213868000Y-80264000D03*
X216408000Y-80264000D03*
X170688000Y-128524000D03*
X173228000Y-128524000D03*
X175768000Y-128524000D03*
X178308000Y-128524000D03*
X180848000Y-128524000D03*
X183388000Y-128524000D03*
X185928000Y-128524000D03*
X188468000Y-128524000D03*
X193548000Y-128524000D03*
X196088000Y-128524000D03*
X198628000Y-128524000D03*
X201168000Y-128524000D03*
X203708000Y-128524000D03*
X206248000Y-128524000D03*
X208788000Y-128524000D03*
X211328000Y-128524000D03*
X143764000Y-80264000D03*
X183388000Y-80264000D03*
X180848000Y-80264000D03*
X178308000Y-80264000D03*
X175768000Y-80264000D03*
X173228000Y-80264000D03*
X170688000Y-80264000D03*
X168148000Y-80264000D03*
X165608000Y-80264000D03*
X161544000Y-80264000D03*
X159004000Y-80264000D03*
X156464000Y-80264000D03*
X153924000Y-80264000D03*
X151384000Y-80264000D03*
X148844000Y-80264000D03*
X188468000Y-80264000D03*
X191008000Y-80264000D03*
X193548000Y-80264000D03*
X196088000Y-80264000D03*
X198628000Y-80264000D03*
X201168000Y-80264000D03*
X203708000Y-80264000D03*
X206248000Y-80264000D03*
X213868000Y-82804000D03*
X216408000Y-82804000D03*
X213868000Y-85344000D03*
X216408000Y-85344000D03*
X213868000Y-87884000D03*
X216408000Y-87884000D03*
X213868000Y-90424000D03*
X216408000Y-90424000D03*
X213868000Y-92964000D03*
X216408000Y-92964000D03*
X213868000Y-95504000D03*
X216408000Y-95504000D03*
X213868000Y-98044000D03*
X216408000Y-98044000D03*
X213868000Y-100584000D03*
X216408000Y-100584000D03*
X213868000Y-103124000D03*
X216408000Y-103124000D03*
X213868000Y-105664000D03*
X216408000Y-105664000D03*
X213868000Y-108204000D03*
X216408000Y-108204000D03*
X213868000Y-110744000D03*
X216408000Y-110744000D03*
X213868000Y-113284000D03*
X216408000Y-113284000D03*
X213868000Y-115824000D03*
X216408000Y-115824000D03*
X213868000Y-118364000D03*
X216408000Y-118364000D03*
X213868000Y-120904000D03*
X216408000Y-120904000D03*
D20*
X146304000Y-80264000D03*
X160528000Y-128524000D03*
X163068000Y-128524000D03*
X213868000Y-123444000D03*
X216408000Y-123444000D03*
D19*
X150368000Y-128524000D03*
X152908000Y-128524000D03*
X138684000Y-80264000D03*
X141224000Y-80264000D03*
X165608000Y-128524000D03*
%TD*%
D13*
%TO.C,J9*%
X160528000Y-118374000D03*
D14*
X157988000Y-118374000D03*
X155448000Y-118374000D03*
X152908000Y-118374000D03*
%TD*%
D17*
%TO.C,U6*%
X124898000Y-120824000D03*
X124898000Y-122124000D03*
X124898000Y-123424000D03*
X126198000Y-120824000D03*
X126198000Y-122124000D03*
X126198000Y-123424000D03*
%TD*%
D21*
%TO.C,JP10*%
X182132000Y-125570500D03*
X182132000Y-124270500D03*
X182132000Y-122970500D03*
%TD*%
D22*
%TO.C,TP10*%
X178798500Y-93070500D03*
%TD*%
%TO.C,TP8*%
X190118500Y-111693500D03*
%TD*%
%TO.C,TP5*%
X200234000Y-103270000D03*
%TD*%
%TO.C,TP20*%
X121452000Y-97804000D03*
%TD*%
D21*
%TO.C,JP7*%
X178678000Y-115324000D03*
X178678000Y-114024000D03*
X178678000Y-112724000D03*
%TD*%
D22*
%TO.C,TP21*%
X121198000Y-107964000D03*
%TD*%
%TO.C,TP11*%
X200728000Y-120274000D03*
%TD*%
%TO.C,TP4*%
X201034000Y-94470000D03*
%TD*%
D21*
%TO.C,JP8*%
X169798500Y-125570500D03*
X169798500Y-124270500D03*
X169798500Y-122970500D03*
%TD*%
D22*
%TO.C,TP1*%
X203234000Y-103470000D03*
%TD*%
%TO.C,TP12*%
X143891000Y-104404000D03*
%TD*%
%TO.C,TP6*%
X201034000Y-96670000D03*
%TD*%
D21*
%TO.C,JP11*%
X188228000Y-125570500D03*
X188228000Y-124270500D03*
X188228000Y-122970500D03*
%TD*%
%TO.C,JP6*%
X181478000Y-115324000D03*
X181478000Y-114024000D03*
X181478000Y-112724000D03*
%TD*%
D22*
%TO.C,TP15*%
X122722000Y-123204000D03*
%TD*%
%TO.C,TP9*%
X190118500Y-113725500D03*
%TD*%
%TO.C,TP3*%
X206478000Y-109524000D03*
%TD*%
%TO.C,TP17*%
X121960000Y-115838000D03*
%TD*%
%TO.C,TP14*%
X184228000Y-89774000D03*
%TD*%
%TO.C,TP7*%
X169278000Y-93424000D03*
%TD*%
D21*
%TO.C,JP3*%
X179958500Y-103158500D03*
X179958500Y-104458500D03*
X179958500Y-105758500D03*
%TD*%
%TO.C,JP1*%
X191808500Y-103158500D03*
X191808500Y-104458500D03*
X191808500Y-105758500D03*
%TD*%
D22*
%TO.C,TP19*%
X121198000Y-101614000D03*
%TD*%
D21*
%TO.C,JP5*%
X184278000Y-115324000D03*
X184278000Y-114024000D03*
X184278000Y-112724000D03*
%TD*%
D22*
%TO.C,TP18*%
X121960000Y-112790000D03*
%TD*%
%TO.C,TP2*%
X206834000Y-102470000D03*
%TD*%
%TO.C,TP16*%
X122618000Y-120824000D03*
%TD*%
%TO.C,TP22*%
X121452000Y-104662000D03*
%TD*%
D23*
%TO.C,U10*%
X190923000Y-90999000D03*
D24*
X193203000Y-97299000D03*
D23*
X195483000Y-90999000D03*
%TD*%
D21*
%TO.C,JP2*%
X186054500Y-103158500D03*
X186054500Y-104458500D03*
X186054500Y-105758500D03*
%TD*%
%TO.C,JP4*%
X173608500Y-103158500D03*
X173608500Y-104458500D03*
X173608500Y-105758500D03*
%TD*%
D22*
%TO.C,TP13*%
X180598500Y-89070500D03*
%TD*%
D21*
%TO.C,JP9*%
X175798500Y-125570500D03*
X175798500Y-124270500D03*
X175798500Y-122970500D03*
%TD*%
%LPD*%
M02*
