M48
; DRILL file {KiCad 7.0.2} date Wed Jul 19 21:42:15 2023
; FORMAT={-:-/ absolute / inch / decimal}
; #@! TF.CreationDate,2023-07-19T21:42:15+02:00
; #@! TF.GenerationSoftware,Kicad,Pcbnew,7.0.2
; #@! TF.FileFunction,Plated,1,2,PTH
FMAT,2
INCH
; #@! TA.AperFunction,Plated,PTH,ComponentDrill
T1C0.0118
; #@! TA.AperFunction,Plated,PTH,ComponentDrill
T2C0.0130
; #@! TA.AperFunction,Plated,PTH,ViaDrill
T3C0.0157
; #@! TA.AperFunction,Plated,PTH,ComponentDrill
T4C0.0394
; #@! TA.AperFunction,Plated,PTH,ComponentDrill
T5C0.0400
; #@! TA.AperFunction,Plated,PTH,ComponentDrill
T6C0.0551
%
G90
G05
T1
X7.8931Y-3.8906
X7.8931Y-3.9417
X7.9443Y-3.8906
X7.9443Y-3.9417
X7.9954Y-3.8906
X7.9954Y-3.9417
X8.0466Y-3.8906
X8.0466Y-3.9417
T2
X4.9116Y-4.4491
X4.9116Y-4.5003
X4.9116Y-4.5514
X4.9136Y-4.1268
X4.9136Y-4.178
X4.9136Y-4.2292
X4.9172Y-4.7569
X4.9172Y-4.808
X4.9172Y-4.8592
X4.9185Y-3.8781
X4.9185Y-3.9293
X4.9185Y-3.9805
X4.9628Y-4.4491
X4.9628Y-4.5003
X4.9628Y-4.5514
X4.9648Y-4.1268
X4.9648Y-4.178
X4.9648Y-4.2292
X4.9684Y-4.7569
X4.9684Y-4.808
X4.9684Y-4.8592
X4.9696Y-3.8781
X4.9696Y-3.9293
X4.9696Y-3.9805
T3
X4.7616Y-3.9506
X4.7616Y-4.1606
X4.7616Y-4.2006
X4.7616Y-4.4806
X4.7616Y-4.5206
X4.7622Y-3.9052
X4.7716Y-4.7806
X4.7716Y-4.8306
X4.79Y-3.6604
X5.0787Y-3.7834
X5.0816Y-4.0506
X5.0816Y-4.2906
X5.1216Y-4.6406
X5.1216Y-4.9506
X5.4738Y-3.3571
X5.4738Y-3.3965
X5.5131Y-3.3571
X5.5131Y-3.3965
X5.521Y-3.9684
X5.523Y-4.0204
X5.524Y-3.9254
X5.5525Y-3.3571
X5.5525Y-3.3965
X5.5919Y-3.3571
X5.5919Y-3.3965
X5.6313Y-3.3571
X5.6313Y-3.3965
X5.663Y-3.9184
X5.665Y-3.9664
X5.665Y-4.0224
X5.665Y-4.1112
X5.6706Y-3.3571
X5.6706Y-3.3965
X5.873Y-4.5688
X5.8776Y-4.3603
X6.055Y-3.5254
X6.1491Y-3.7509
X6.2944Y-3.7411
X6.5118Y-4.0285
X6.5782Y-4.4969
X6.6315Y-4.8434
X6.6625Y-4.5777
X6.6645Y-3.6781
X6.6822Y-4.4301
X6.7061Y-4.2313
X6.7343Y-4.8767
X6.7413Y-3.997
X6.751Y-4.0974
X6.77Y-4.1742
X6.815Y-4.9074
X6.8298Y-4.5638
X6.8397Y-4.4202
X6.8594Y-4.9025
X6.9016Y-4.7666
X6.9243Y-4.987
X6.94Y-4.3438
X6.9543Y-4.0554
X6.985Y-4.8974
X7.0267Y-3.7096
X7.0343Y-4.0967
X7.035Y-4.2104
X7.0365Y-4.0462
X7.0393Y-3.6642
X7.0543Y-4.9143
X7.0739Y-3.7096
X7.0976Y-4.497
X7.1054Y-4.9025
X7.1102Y-3.5067
X7.1212Y-3.7096
X7.1753Y-4.7694
X7.1763Y-3.7096
X7.1763Y-4.9949
X7.2043Y-4.056
X7.2043Y-4.5467
X7.2078Y-4.4813
X7.225Y-4.8874
X7.2302Y-4.1104
X7.2531Y-3.5344
X7.2629Y-3.7096
X7.2677Y-4.0894
X7.2826Y-4.2037
X7.2943Y-4.935
X7.3102Y-4.4025
X7.318Y-3.7096
X7.3515Y-4.8927
X7.3635Y-4.6175
X7.3793Y-3.3256
X7.3793Y-3.3571
X7.3807Y-4.3771
X7.381Y-3.7096
X7.384Y-4.5187
X7.384Y-4.5482
X7.3909Y-4.4301
X7.3958Y-4.7773
X7.405Y-3.9616
X7.405Y-4.3604
X7.4159Y-4.5178
X7.4187Y-3.3256
X7.4187Y-3.3571
X7.444Y-4.3631
X7.4443Y-4.046
X7.4488Y-4.2941
X7.4499Y-4.9685
X7.4566Y-4.8689
X7.4598Y-4.4399
X7.4598Y-3.5137
X7.4659Y-3.3361
X7.4685Y-4.0998
X7.4726Y-4.9081
X7.4991Y-4.4399
X7.5287Y-4.3612
X7.5621Y-3.6012
X7.5761Y-3.2232
X7.5761Y-3.2626
X7.6015Y-3.6387
X7.6074Y-4.2037
X7.6155Y-3.2232
X7.6155Y-3.2626
X7.6222Y-4.1643
X7.633Y-4.3946
X7.633Y-4.434
X7.633Y-4.4813
X7.6391Y-3.6169
X7.6549Y-3.2232
X7.6549Y-3.2626
X7.6628Y-3.6563
X7.6943Y-3.2232
X7.6943Y-3.2626
X7.7747Y-4.371
X7.7747Y-4.4104
X7.7747Y-4.4576
X7.7846Y-4.2628
X7.7887Y-3.8374
X7.7887Y-3.9634
X7.7887Y-4.0579
X7.7887Y-4.1445
X7.836Y-4.1287
X7.8596Y-3.8059
X7.8675Y-3.7419
X7.8832Y-4.0657
X7.8911Y-4.176
X7.9027Y-4.7352
X7.9448Y-4.0736
X7.9541Y-3.2626
X7.9541Y-3.302
X7.9541Y-3.5146
X7.9935Y-3.2626
X7.9935Y-3.302
X8.0013Y-3.5146
X8.0013Y-4.0736
X8.0092Y-4.176
X8.0328Y-3.2626
X8.0328Y-3.302
X8.0565Y-3.3728
X8.0565Y-3.428
X8.0565Y-3.5618
X8.0565Y-3.6327
X8.0722Y-3.2626
X8.0722Y-3.302
X8.088Y-3.7902
X8.0958Y-3.6878
X8.1273Y-4.1602
X8.1291Y-4.312
X8.1431Y-4.0343
X8.2139Y-3.5067
X8.2202Y-3.3272
X8.2769Y-4.0815
X8.2927Y-3.3177
X8.2927Y-3.8925
X8.2927Y-3.9319
X8.3084Y-3.3965
X8.3084Y-3.5146
X8.3084Y-3.6642
X8.3084Y-3.7902
X8.3163Y-4.0028
X8.3242Y-3.8925
X8.3242Y-3.9319
T4
X5.32Y-3.8604
X5.32Y-3.9604
X5.32Y-4.1604
X5.32Y-4.2604
X5.32Y-4.4604
X5.32Y-4.5604
X5.32Y-4.7604
X5.32Y-4.8604
X5.52Y-4.2604
X5.52Y-4.4598
X5.52Y-4.6604
X5.52Y-4.8604
X5.62Y-4.2604
X5.62Y-4.4598
X5.62Y-4.6604
X5.62Y-4.8604
X5.72Y-4.2604
X5.72Y-4.4598
X5.72Y-4.6604
X5.72Y-4.8604
X5.82Y-4.2604
X5.82Y-4.4598
X5.82Y-4.6604
X5.82Y-4.8604
X6.0194Y-4.2598
X6.02Y-4.4598
X6.02Y-4.6604
X6.02Y-4.8604
X6.1194Y-4.2598
X6.12Y-4.4598
X6.12Y-4.6604
X6.12Y-4.8604
X6.2194Y-4.2598
X6.22Y-4.4598
X6.22Y-4.6604
X6.22Y-4.8604
X6.3194Y-4.2598
X6.32Y-4.4598
X6.32Y-4.6604
X6.32Y-4.8604
X6.82Y-3.582
X6.82Y-3.682
X6.82Y-3.782
X6.82Y-3.882
T5
X5.46Y-3.16
X5.56Y-3.16
X5.66Y-3.16
X5.76Y-3.16
X5.82Y-5.06
X5.86Y-3.16
X5.92Y-5.06
X5.96Y-3.16
X6.02Y-5.06
X6.06Y-3.16
X6.12Y-5.06
X6.16Y-3.16
X6.22Y-5.06
X6.26Y-3.16
X6.32Y-5.06
X6.36Y-3.16
X6.42Y-5.06
X6.52Y-3.16
X6.52Y-5.06
X6.62Y-3.16
X6.72Y-3.16
X6.72Y-5.06
X6.82Y-3.16
X6.82Y-5.06
X6.92Y-3.16
X6.92Y-5.06
X7.02Y-3.16
X7.02Y-5.06
X7.12Y-3.16
X7.12Y-5.06
X7.22Y-3.16
X7.22Y-5.06
X7.32Y-5.06
X7.42Y-3.16
X7.42Y-5.06
X7.52Y-3.16
X7.62Y-3.16
X7.62Y-5.06
X7.72Y-3.16
X7.72Y-5.06
X7.82Y-3.16
X7.82Y-5.06
X7.92Y-3.16
X7.92Y-5.06
X8.02Y-3.16
X8.02Y-5.06
X8.12Y-3.16
X8.12Y-5.06
X8.22Y-5.06
X8.32Y-5.06
X8.42Y-3.16
X8.42Y-3.26
X8.42Y-3.36
X8.42Y-3.46
X8.42Y-3.56
X8.42Y-3.66
X8.42Y-3.76
X8.42Y-3.86
X8.42Y-3.96
X8.42Y-4.06
X8.42Y-4.16
X8.42Y-4.26
X8.42Y-4.36
X8.42Y-4.46
X8.42Y-4.56
X8.42Y-4.66
X8.42Y-4.76
X8.42Y-4.86
X8.52Y-3.16
X8.52Y-3.26
X8.52Y-3.36
X8.52Y-3.46
X8.52Y-3.56
X8.52Y-3.66
X8.52Y-3.76
X8.52Y-3.86
X8.52Y-3.96
X8.52Y-4.06
X8.52Y-4.16
X8.52Y-4.26
X8.52Y-4.36
X8.52Y-4.46
X8.52Y-4.56
X8.52Y-4.66
X8.52Y-4.76
X8.52Y-4.86
T6
X5.2078Y-3.4183
X5.2078Y-3.6151
T0
M30
